<svg width="276" height="70" viewBox="0 0 276 70" fill="none" xmlns="http://www.w3.org/2000/svg">
<path d="M21.5695 9.64987C21.7895 9.36987 21.8695 8.87988 21.8695 8.87988H8.51953C8.51953 8.87988 8.68953 9.42987 8.81953 9.64987H21.5595H21.5695Z" fill="#AA8420"/>
<path d="M20.7903 10.7791C21.0403 10.5591 21.2903 10.1191 21.2903 10.1191H9.07031C9.07031 10.1191 9.21031 10.4491 9.51031 10.7791H20.7903Z" fill="#AA8420"/>
<path d="M19.8297 11.7998C20.1297 11.6298 20.3797 11.2998 20.3797 11.2998H9.92969C9.92969 11.2998 10.1797 11.5798 10.4197 11.7998H19.8197H19.8297Z" fill="#AA8420"/>
<path d="M18.6096 12.7699C18.9096 12.6599 19.2496 12.3799 19.2496 12.3799H11.0996C11.0996 12.3799 11.0996 12.4399 11.6796 12.7699H18.6196H18.6096Z" fill="#AA8420"/>
<path d="M12.6096 13.3799C12.6096 13.3799 13.4696 13.8799 15.1496 13.8799C16.8296 13.8799 17.9096 13.3799 17.9096 13.3799H12.5996H12.6096Z" fill="#AA8420"/>
<path d="M12.47 14.5098C12.47 14.5098 13.49 14.5598 14.1 15.0298C14.68 15.5298 15.13 16.3598 15.13 16.3598C15.13 16.3598 15.49 15.5597 16.07 15.1497C16.65 14.6997 17.59 14.5098 17.59 14.5098H28.12L30.19 17.5798H20.73C20.73 17.5798 20.07 17.6098 19.07 18.1898C18.54 18.4898 18.15 19.0198 18.15 19.0198C18.15 19.0198 18.07 19.2697 17.96 19.3997C17.85 19.5397 17.77 19.6497 17.63 19.7097C17.49 19.7697 17.52 19.7398 17.52 19.7398H12.6C12.6 19.7398 12.4 19.6598 12.3 19.4898C12.19 19.3198 12.27 19.3798 12.16 19.2498C12.08 19.1098 11.88 18.7498 11.14 18.2498C10.37 17.7498 9.62 17.6998 9.62 17.6998H0L2.1 14.5198H12.47V14.5098Z" fill="#AA8420"/>
<path d="M5.0293 18.8496V34.5496C5.0293 34.5496 5.0893 35.9396 6.2493 37.8096C7.4093 39.6896 9.08929 40.5496 9.08929 40.5496L10.4193 38.4796C10.4193 38.4796 9.2593 37.7896 8.3793 36.4596C7.5193 35.1396 7.51929 33.9996 7.51929 33.9996V18.8496H5.0293V18.8496Z" fill="#AA8420"/>
<path d="M22.8395 18.7998V33.9498C22.8395 33.9498 22.6495 35.4698 21.9295 36.5498C21.2095 37.6598 20.0195 38.5398 20.0195 38.5398L21.2995 40.5798C21.2995 40.5798 23.2295 39.1698 24.1695 37.6798C25.1095 36.1898 25.3395 33.9498 25.3395 33.9498V18.7998H22.8495H22.8395Z" fill="#AA8420"/>
<path d="M1.08008 18.8496V34.6096C1.08008 34.6096 1.24008 37.0496 2.76008 39.5896C4.29008 42.1296 7.05008 43.8996 7.05008 43.8996L8.35008 41.8296C8.35008 41.8296 6.58008 40.8896 5.17008 38.7296C3.73008 36.5496 3.65008 34.5596 3.65008 34.5596V18.8596H1.08008V18.8496Z" fill="#AA8420"/>
<path d="M12.4706 20.5098V37.1497C12.4706 37.1497 12.4106 37.2098 12.3906 37.4498C12.3606 37.6998 12.2006 37.8698 12.2006 37.8698L6.64062 47.0798H23.6706L18.1106 37.6797L17.9506 37.2598L17.8906 36.8198V20.5398H15.8206V37.4398C15.8206 37.4398 15.8206 37.6798 15.9006 37.8798C15.9506 38.0798 16.0706 38.3698 16.0706 38.3698L19.5006 44.0098H10.8206L14.1906 38.3997C14.1906 38.3997 14.3006 38.2097 14.3806 37.9297C14.4406 37.6797 14.4606 37.4398 14.4606 37.4398V20.5098H12.4706V20.5098Z" fill="#AA8420"/>
<path d="M26.6791 18.8V34.28C26.6791 34.28 26.6591 36.27 25.1891 38.56C23.7291 40.86 22.0391 41.82 22.0391 41.82L23.2891 43.92C23.2891 43.92 25.8291 42.3201 27.4391 39.7701C29.0191 37.2201 29.2091 34.2701 29.2091 34.2701V18.79H26.6891L26.6791 18.8Z" fill="#AA8420"/>
<path d="M8.42964 8.42999C8.42964 8.42999 7.57965 3.75999 10.9997 1.42999C10.9997 1.42999 12.5496 0 15.0596 0C17.7396 0 19.2896 1.41 19.2896 1.41C23.0196 4.15 21.9196 8.42999 21.9196 8.42999H8.42964V8.42999Z" fill="#AA8420"/>
<path d="M83.0207 9.64987C83.2407 9.36987 83.3207 8.87988 83.3207 8.87988H69.9707C69.9707 8.87988 70.1307 9.42987 70.2707 9.64987H83.0107H83.0207Z" fill="#D3A100"/>
<path d="M82.2493 10.7791C82.4993 10.5591 82.7493 10.1191 82.7493 10.1191H70.5293C70.5293 10.1191 70.6693 10.4491 70.9693 10.7791H82.2493Z" fill="#D3A100"/>
<path d="M81.2789 11.7998C81.5789 11.6298 81.8289 11.2998 81.8289 11.2998H71.3789C71.3789 11.2998 71.6289 11.5798 71.8689 11.7998H81.2689H81.2789Z" fill="#D3A100"/>
<path d="M80.0608 12.7699C80.3608 12.6599 80.7008 12.3799 80.7008 12.3799H72.5508C72.5508 12.3799 72.5508 12.4399 73.1308 12.7699H80.0708H80.0608Z" fill="#D3A100"/>
<path d="M74.0608 13.3799C74.0608 13.3799 74.9208 13.8799 76.6008 13.8799C78.2808 13.8799 79.3608 13.3799 79.3608 13.3799H74.0508H74.0608Z" fill="#D3A100"/>
<path d="M73.9192 14.5098C73.9192 14.5098 74.9392 14.5598 75.5492 15.0298C76.1292 15.5298 76.5792 16.3598 76.5792 16.3598C76.5792 16.3598 76.9392 15.5597 77.5192 15.1497C78.0992 14.6997 79.0392 14.5098 79.0392 14.5098H89.5692L91.6392 17.5798H82.1792C82.1792 17.5798 81.5192 17.6098 80.5192 18.1898C79.9892 18.4898 79.5992 19.0198 79.5992 19.0198C79.5992 19.0198 79.5192 19.2697 79.4092 19.3997C79.2992 19.5397 79.2192 19.6497 79.0792 19.7097C78.9392 19.7697 78.9692 19.7398 78.9692 19.7398H74.0492C74.0492 19.7398 73.8492 19.6598 73.7492 19.4898C73.6392 19.3198 73.7192 19.3798 73.6092 19.2498C73.5292 19.1098 73.3292 18.7498 72.5892 18.2498C71.8192 17.7498 71.0692 17.6998 71.0692 17.6998H61.4492L63.5492 14.5198H73.9192V14.5098Z" fill="#D3A100"/>
<path d="M66.4805 18.8496V34.5496C66.4805 34.5496 66.5405 35.9396 67.7005 37.8096C68.8605 39.6896 70.5405 40.5496 70.5405 40.5496L71.8705 38.4796C71.8705 38.4796 70.7105 37.7896 69.8305 36.4596C68.9705 35.1396 68.9705 33.9996 68.9705 33.9996V18.8496H66.4805V18.8496Z" fill="#D3A100"/>
<path d="M84.2907 18.7998V33.9498C84.2907 33.9498 84.1007 35.4698 83.3807 36.5498C82.6607 37.6598 81.4707 38.5398 81.4707 38.5398L82.7507 40.5798C82.7507 40.5798 84.6807 39.1698 85.6207 37.6798C86.5607 36.1898 86.7907 33.9498 86.7907 33.9498V18.7998H84.3007H84.2907Z" fill="#D3A100"/>
<path d="M62.5391 18.8496V34.6096C62.5391 34.6096 62.6991 37.0496 64.2191 39.5896C65.7491 42.1296 68.5091 43.8996 68.5091 43.8996L69.8091 41.8296C69.8091 41.8296 68.0391 40.8896 66.6291 38.7296C65.1891 36.5496 65.1091 34.5596 65.1091 34.5596V18.8596H62.5391V18.8496Z" fill="#D3A100"/>
<path d="M73.9198 20.5098V37.1497C73.9198 37.1497 73.8598 37.2098 73.8398 37.4498C73.8098 37.6998 73.6498 37.8698 73.6498 37.8698L68.0898 47.0798H85.1198L79.5598 37.6797L79.3898 37.2598L79.3298 36.8198V20.5398H77.2598V37.4398C77.2598 37.4398 77.2598 37.6798 77.3398 37.8798C77.3898 38.0798 77.5098 38.3698 77.5098 38.3698L80.9298 44.0098H72.2498L75.6198 38.3997C75.6198 38.3997 75.7298 38.2097 75.8098 37.9297C75.8698 37.6797 75.8898 37.4398 75.8898 37.4398V20.5098H73.8998H73.9198Z" fill="#D3A100"/>
<path d="M88.1302 18.8V34.28C88.1302 34.28 88.1102 36.27 86.6402 38.56C85.1802 40.86 83.4902 41.82 83.4902 41.82L84.7402 43.92C84.7402 43.92 87.2802 42.3201 88.8902 39.7701C90.4702 37.2201 90.6602 34.2701 90.6602 34.2701V18.79H88.1402L88.1302 18.8Z" fill="#D3A100"/>
<path d="M69.8906 8.42999C69.8906 8.42999 69.0406 3.75999 72.4606 1.42999C72.4606 1.42999 74.0106 0 76.5206 0C79.2006 0 80.7506 1.41 80.7506 1.41C84.4806 4.15 83.3806 8.42999 83.3806 8.42999H69.8906V8.42999Z" fill="#D3A100"/>
<path d="M144.47 9.64987C144.69 9.36987 144.77 8.87988 144.77 8.87988H131.42C131.42 8.87988 131.58 9.42987 131.72 9.64987H144.46H144.47Z" fill="#003477"/>
<path d="M143.7 10.7791C143.95 10.5591 144.2 10.1191 144.2 10.1191H131.98C131.98 10.1191 132.12 10.4491 132.42 10.7791H143.7Z" fill="#003477"/>
<path d="M142.73 11.7998C143.03 11.6298 143.28 11.2998 143.28 11.2998H132.83C132.83 11.2998 133.08 11.5798 133.32 11.7998H142.72H142.73Z" fill="#003477"/>
<path d="M141.51 12.7699C141.81 12.6599 142.15 12.3799 142.15 12.3799H134C134 12.3799 134 12.4399 134.58 12.7699H141.52H141.51Z" fill="#003477"/>
<path d="M135.51 13.3799C135.51 13.3799 136.37 13.8799 138.05 13.8799C139.73 13.8799 140.81 13.3799 140.81 13.3799H135.5H135.51Z" fill="#003477"/>
<path d="M135.38 14.5098C135.38 14.5098 136.4 14.5598 137.01 15.0298C137.59 15.5298 138.04 16.3598 138.04 16.3598C138.04 16.3598 138.4 15.5597 138.98 15.1497C139.56 14.6997 140.5 14.5098 140.5 14.5098H151.03L153.1 17.5798H143.64C143.64 17.5798 142.98 17.6098 141.98 18.1898C141.45 18.4898 141.06 19.0198 141.06 19.0198C141.06 19.0198 140.98 19.2697 140.87 19.3997C140.76 19.5397 140.68 19.6497 140.54 19.7097C140.4 19.7697 140.43 19.7398 140.43 19.7398H135.51C135.51 19.7398 135.31 19.6598 135.21 19.4898C135.1 19.3198 135.18 19.3798 135.07 19.2498C134.99 19.1098 134.79 18.7498 134.05 18.2498C133.28 17.7498 132.53 17.6998 132.53 17.6998H122.91L125.01 14.5198H135.38V14.5098Z" fill="#003477"/>
<path d="M127.939 18.8496V34.5496C127.939 34.5496 127.999 35.9396 129.159 37.8096C130.319 39.6896 131.999 40.5496 131.999 40.5496L133.329 38.4796C133.329 38.4796 132.169 37.7896 131.279 36.4596C130.429 35.1396 130.429 33.9996 130.429 33.9996V18.8496H127.939V18.8496Z" fill="#003477"/>
<path d="M145.74 18.7998V33.9498C145.74 33.9498 145.55 35.4698 144.83 36.5498C144.11 37.6598 142.92 38.5398 142.92 38.5398L144.2 40.5798C144.2 40.5798 146.13 39.1698 147.07 37.6798C148.01 36.1898 148.24 33.9498 148.24 33.9498V18.7998H145.75H145.74Z" fill="#003477"/>
<path d="M123.99 18.8496V34.6096C123.99 34.6096 124.15 37.0496 125.67 39.5896C127.2 42.1296 129.96 43.8996 129.96 43.8996L131.26 41.8296C131.26 41.8296 129.49 40.8896 128.08 38.7296C126.64 36.5496 126.56 34.5596 126.56 34.5596V18.8596H123.99V18.8496Z" fill="#003477"/>
<path d="M135.381 20.5098V37.1497C135.381 37.1497 135.321 37.2098 135.301 37.4498C135.271 37.6998 135.111 37.8698 135.111 37.8698L129.551 47.0798H146.581L141.021 37.6797L140.851 37.2598L140.791 36.8198V20.5398H138.721V37.4398C138.721 37.4398 138.721 37.6798 138.801 37.8798C138.851 38.0798 138.971 38.3698 138.971 38.3698L142.391 44.0098H133.711L137.081 38.3997C137.081 38.3997 137.191 38.2097 137.271 37.9297C137.331 37.6797 137.351 37.4398 137.351 37.4398V20.5098H135.361H135.381Z" fill="#003477"/>
<path d="M149.589 18.8V34.28C149.589 34.28 149.569 36.27 148.099 38.56C146.639 40.86 144.949 41.82 144.949 41.82L146.199 43.92C146.199 43.92 148.739 42.3201 150.349 39.7701C151.929 37.2201 152.119 34.2701 152.119 34.2701V18.79H149.599L149.589 18.8Z" fill="#003477"/>
<path d="M131.34 8.42999C131.34 8.42999 130.48 3.75999 133.91 1.42999C133.91 1.42999 135.46 0 137.97 0C140.65 0 142.2 1.41 142.2 1.41C145.93 4.15 144.83 8.42999 144.83 8.42999H131.34Z" fill="#003477"/>
<path d="M205.929 9.64987C206.149 9.36987 206.229 8.87988 206.229 8.87988H192.879C192.879 8.87988 193.049 9.42987 193.189 9.64987H205.929Z" fill="#C9CACA"/>
<path d="M205.15 10.7791C205.4 10.5591 205.65 10.1191 205.65 10.1191H193.43C193.43 10.1191 193.57 10.4491 193.87 10.7791H205.15V10.7791Z" fill="#C9CACA"/>
<path d="M204.189 11.7998C204.489 11.6298 204.739 11.2998 204.739 11.2998H194.289C194.289 11.2998 194.539 11.5798 194.779 11.7998H204.179H204.189Z" fill="#C9CACA"/>
<path d="M202.969 12.7699C203.269 12.6599 203.609 12.3799 203.609 12.3799H195.459C195.459 12.3799 195.459 12.4399 196.039 12.7699H202.979H202.969Z" fill="#C9CACA"/>
<path d="M196.969 13.3799C196.969 13.3799 197.829 13.8799 199.509 13.8799C201.189 13.8799 202.269 13.3799 202.269 13.3799H196.959H196.969Z" fill="#C9CACA"/>
<path d="M196.829 14.5098C196.829 14.5098 197.849 14.5598 198.459 15.0298C199.039 15.5298 199.489 16.3598 199.489 16.3598C199.489 16.3598 199.849 15.5597 200.429 15.1497C201.009 14.6997 201.949 14.5098 201.949 14.5098H212.479L214.549 17.5798H205.089C205.089 17.5798 204.429 17.6098 203.429 18.1898C202.899 18.4898 202.509 19.0198 202.509 19.0198C202.509 19.0198 202.429 19.2697 202.319 19.3997C202.209 19.5397 202.129 19.6497 201.989 19.7097C201.849 19.7697 201.879 19.7398 201.879 19.7398H196.959C196.959 19.7398 196.759 19.6598 196.659 19.4898C196.549 19.3198 196.629 19.3798 196.519 19.2498C196.439 19.1098 196.239 18.7498 195.499 18.2498C194.729 17.7498 193.979 17.6998 193.979 17.6998H184.359L186.459 14.5198H196.829V14.5098Z" fill="#C9CACA"/>
<path d="M189.391 18.8496V34.5496C189.391 34.5496 189.451 35.9396 190.611 37.8096C191.771 39.6896 193.451 40.5496 193.451 40.5496L194.781 38.4796C194.781 38.4796 193.621 37.7896 192.731 36.4596C191.881 35.1396 191.881 33.9996 191.881 33.9996V18.8496H189.391V18.8496Z" fill="#C9CACA"/>
<path d="M207.199 18.7998V33.9498C207.199 33.9498 207.009 35.4698 206.289 36.5498C205.569 37.6598 204.379 38.5398 204.379 38.5398L205.659 40.5798C205.659 40.5798 207.589 39.1698 208.529 37.6798C209.469 36.1898 209.699 33.9498 209.699 33.9498V18.7998H207.209H207.199Z" fill="#C9CACA"/>
<path d="M185.439 18.8496V34.6096C185.439 34.6096 185.599 37.0496 187.119 39.5896C188.649 42.1296 191.409 43.8996 191.409 43.8996L192.709 41.8296C192.709 41.8296 190.939 40.8896 189.529 38.7296C188.089 36.5496 188.009 34.5596 188.009 34.5596V18.8596H185.439V18.8496Z" fill="#C9CACA"/>
<path d="M196.83 20.5098V37.1497C196.83 37.1497 196.77 37.2098 196.75 37.4498C196.72 37.6998 196.56 37.8698 196.56 37.8698L191 47.0798H208.03L202.47 37.6797L202.3 37.2598L202.24 36.8198V20.5398H200.17V37.4398C200.17 37.4398 200.17 37.6798 200.25 37.8798C200.3 38.0798 200.42 38.3698 200.42 38.3698L203.84 44.0098H195.16L198.53 38.3997C198.53 38.3997 198.64 38.2097 198.72 37.9297C198.78 37.6797 198.8 37.4398 198.8 37.4398V20.5098H196.81H196.83Z" fill="#C9CACA"/>
<path d="M211.04 18.8V34.28C211.04 34.28 211.02 36.27 209.55 38.56C208.09 40.86 206.4 41.82 206.4 41.82L207.65 43.92C207.65 43.92 210.19 42.3201 211.8 39.7701C213.38 37.2201 213.57 34.2701 213.57 34.2701V18.79H211.05L211.04 18.8Z" fill="#C9CACA"/>
<path d="M192.789 8.42999C192.789 8.42999 191.929 3.75999 195.359 1.42999C195.359 1.42999 196.909 0 199.419 0C202.099 0 203.649 1.41 203.649 1.41C207.379 4.14 206.279 8.42999 206.279 8.42999H192.789Z" fill="#C9CACA"/>
<path d="M267.38 9.64987C267.6 9.36987 267.68 8.87988 267.68 8.87988H254.33C254.33 8.87988 254.5 9.42987 254.64 9.64987H267.38Z" fill="#231815"/>
<path d="M266.599 10.7791C266.849 10.5591 267.099 10.1191 267.099 10.1191H254.879C254.879 10.1191 255.019 10.4491 255.319 10.7791H266.599V10.7791Z" fill="#231815"/>
<path d="M265.64 11.7998C265.94 11.6298 266.19 11.2998 266.19 11.2998H255.74C255.74 11.2998 255.99 11.5798 256.23 11.7998H265.63H265.64Z" fill="#231815"/>
<path d="M264.42 12.7699C264.72 12.6599 265.06 12.3799 265.06 12.3799H256.91C256.91 12.3799 256.91 12.4399 257.49 12.7699H264.43H264.42Z" fill="#231815"/>
<path d="M258.42 13.3799C258.42 13.3799 259.28 13.8799 260.96 13.8799C262.64 13.8799 263.72 13.3799 263.72 13.3799H258.41H258.42Z" fill="#231815"/>
<path d="M258.281 14.5098C258.281 14.5098 259.301 14.5598 259.911 15.0298C260.491 15.5298 260.941 16.3598 260.941 16.3598C260.941 16.3598 261.301 15.5597 261.881 15.1497C262.461 14.6997 263.401 14.5098 263.401 14.5098H273.931L276.001 17.5798H266.541C266.541 17.5798 265.881 17.6098 264.881 18.1898C264.351 18.4898 263.961 19.0198 263.961 19.0198C263.961 19.0198 263.881 19.2697 263.771 19.3997C263.661 19.5397 263.581 19.6497 263.441 19.7097C263.301 19.7697 263.331 19.7398 263.331 19.7398H258.411C258.411 19.7398 258.211 19.6598 258.111 19.4898C258.001 19.3198 258.081 19.3798 257.971 19.2498C257.891 19.1098 257.691 18.7498 256.951 18.2498C256.181 17.7498 255.431 17.6998 255.431 17.6998H245.811L247.911 14.5198H258.281V14.5098Z" fill="#231815"/>
<path d="M250.84 18.8496V34.5496C250.84 34.5496 250.9 35.9396 252.06 37.8096C253.22 39.6896 254.9 40.5496 254.9 40.5496L256.23 38.4796C256.23 38.4796 255.07 37.7896 254.18 36.4596C253.33 35.1396 253.33 33.9996 253.33 33.9996V18.8496H250.84V18.8496Z" fill="#231815"/>
<path d="M268.65 18.7998V33.9498C268.65 33.9498 268.46 35.4698 267.74 36.5498C267.02 37.6598 265.83 38.5398 265.83 38.5398L267.11 40.5798C267.11 40.5798 269.04 39.1698 269.98 37.6798C270.92 36.1898 271.15 33.9498 271.15 33.9498V18.7998H268.66H268.65Z" fill="#231815"/>
<path d="M246.891 18.8496V34.6096C246.891 34.6096 247.051 37.0496 248.571 39.5896C250.101 42.1296 252.861 43.8996 252.861 43.8996L254.161 41.8296C254.161 41.8296 252.391 40.8896 250.981 38.7296C249.541 36.5496 249.461 34.5596 249.461 34.5596V18.8596H246.891V18.8496Z" fill="#231815"/>
<path d="M258.279 20.5098V37.1497C258.279 37.1497 258.219 37.2098 258.199 37.4498C258.169 37.6998 258.009 37.8698 258.009 37.8698L252.449 47.0798H269.479L263.919 37.6797L263.749 37.2598L263.689 36.8198V20.5398H261.619V37.4398C261.619 37.4398 261.619 37.6798 261.699 37.8798C261.749 38.0798 261.869 38.3698 261.869 38.3698L265.289 44.0098H256.609L259.979 38.3997C259.979 38.3997 260.089 38.2097 260.169 37.9297C260.229 37.6797 260.249 37.4398 260.249 37.4398V20.5098H258.259H258.279Z" fill="#231815"/>
<path d="M272.49 18.8V34.28C272.49 34.28 272.47 36.27 271 38.56C269.54 40.86 267.85 41.82 267.85 41.82L269.1 43.92C269.1 43.92 271.64 42.3201 273.25 39.7701C274.83 37.2201 275.02 34.2701 275.02 34.2701V18.79H272.5L272.49 18.8Z" fill="#231815"/>
<path d="M254.24 8.42999C254.24 8.42999 253.38 3.75999 256.81 1.42999C256.81 1.42999 258.36 0 260.87 0C263.55 0 265.1 1.41 265.1 1.41C268.83 4.14 267.73 8.42999 267.73 8.42999H254.24Z" fill="#231815"/>
<path d="M12.2744 63.0848C12.0995 63.3365 11.8733 63.5989 11.596 63.872C11.3229 64.1408 11.0179 64.3989 10.6808 64.6464C10.348 64.8939 10.0003 65.1136 9.6376 65.3056C9.61627 65.2672 9.58853 65.2245 9.5544 65.1776C9.52027 65.1307 9.484 65.0859 9.4456 65.0432C9.41147 64.9963 9.3752 64.9557 9.3368 64.9216C9.708 64.7381 10.0643 64.5184 10.4056 64.2624C10.7512 64.0021 11.0627 63.7291 11.34 63.4432C11.6173 63.1573 11.8392 62.8821 12.0056 62.6176H12.492C12.6627 62.8437 12.8568 63.0677 13.0744 63.2896C13.292 63.5115 13.5224 63.7205 13.7656 63.9168C14.0131 64.1088 14.2648 64.2837 14.5208 64.4416C14.7811 64.5995 15.0371 64.7339 15.2888 64.8448C15.2291 64.9045 15.1715 64.9728 15.116 65.0496C15.0605 65.1264 15.0115 65.2011 14.9688 65.2736C14.7256 65.1456 14.476 64.9984 14.22 64.832C13.964 64.6613 13.7144 64.48 13.4712 64.288C13.2323 64.0917 13.0104 63.8933 12.8056 63.6928C12.6008 63.488 12.4237 63.2853 12.2744 63.0848ZM10.6936 64.576H13.9V65.0048H10.6936V64.576ZM9.8616 65.8624H14.732V66.2848H9.8616V65.8624ZM9.5672 67.8848H15.0392V68.3072H9.5672V67.8848ZM12.0184 64.7424H12.524V68.1024H12.0184V64.7424ZM10.3928 66.6112L10.7832 66.4576C10.8728 66.5728 10.9581 66.7008 11.0392 66.8416C11.1245 66.9781 11.1992 67.1147 11.2632 67.2512C11.3272 67.3835 11.372 67.5029 11.3976 67.6096L10.9816 67.7888C10.956 67.6821 10.9133 67.5605 10.8536 67.424C10.7939 67.2875 10.7235 67.1488 10.6424 67.008C10.5613 66.8672 10.4781 66.7349 10.3928 66.6112ZM13.7464 66.4448L14.2008 66.624C14.0771 66.8245 13.9448 67.0336 13.804 67.2512C13.6675 67.4645 13.5373 67.6437 13.4136 67.7888L13.0552 67.6352C13.132 67.5285 13.2131 67.4069 13.2984 67.2704C13.3837 67.1296 13.4648 66.9867 13.5416 66.8416C13.6227 66.6965 13.6909 66.5643 13.7464 66.4448ZM16.7736 65.8176H20.7928V66.2592H16.7736V65.8176ZM18.508 64.384H18.9944V66.0416H18.508V64.384ZM16.748 64.2112H21.1128V66.5472H20.6264V64.6464H16.748V64.2112ZM16.5048 64.2112H16.9848V67.4944C16.9848 67.6267 17.0061 67.7291 17.0488 67.8016C17.0915 67.8741 17.1725 67.9253 17.292 67.9552C17.4157 67.9808 17.5949 67.9936 17.8296 67.9936C17.8851 67.9936 17.9747 67.9936 18.0984 67.9936C18.2221 67.9936 18.3672 67.9936 18.5336 67.9936C18.7 67.9936 18.8728 67.9936 19.052 67.9936C19.2355 67.9936 19.4125 67.9936 19.5832 67.9936C19.7539 67.9936 19.9053 67.9936 20.0376 67.9936C20.1741 67.9936 20.2787 67.9936 20.3512 67.9936C20.556 67.9936 20.7117 67.9701 20.8184 67.9232C20.9251 67.872 20.9997 67.7781 21.0424 67.6416C21.0893 67.5008 21.1235 67.3003 21.1448 67.04C21.2088 67.0784 21.2856 67.1147 21.3752 67.1488C21.4691 67.1787 21.5501 67.2021 21.6184 67.2192C21.5843 67.5349 21.5288 67.7824 21.452 67.9616C21.3795 68.1365 21.2579 68.2603 21.0872 68.3328C20.9208 68.4053 20.6776 68.4416 20.3576 68.4416C20.3149 68.4416 20.2296 68.4416 20.1016 68.4416C19.9779 68.4416 19.8264 68.4416 19.6472 68.4416C19.4723 68.4416 19.2888 68.4416 19.0968 68.4416C18.9091 68.4416 18.7277 68.4416 18.5528 68.4416C18.3821 68.4416 18.2328 68.4416 18.1048 68.4416C17.9811 68.4416 17.9 68.4416 17.8616 68.4416C17.516 68.4416 17.2451 68.416 17.0488 68.3648C16.8525 68.3136 16.7117 68.2176 16.6264 68.0768C16.5453 67.9403 16.5048 67.744 16.5048 67.488V64.2112ZM17.5736 63.0528H19.5832V63.4752H17.3624L17.5736 63.0528ZM17.5928 62.6048L18.124 62.7008C17.9747 62.9568 17.7997 63.2171 17.5992 63.4816C17.3987 63.7461 17.1725 64.0064 16.9208 64.2624C16.6691 64.5141 16.3896 64.7531 16.0824 64.9792C16.0568 64.9408 16.0227 64.9003 15.98 64.8576C15.9373 64.8149 15.8947 64.7723 15.852 64.7296C15.8093 64.6869 15.7667 64.6549 15.724 64.6336C16.0141 64.4331 16.2787 64.2176 16.5176 63.9872C16.7565 63.7525 16.9656 63.5179 17.1448 63.2832C17.3283 63.0443 17.4776 62.8181 17.5928 62.6048ZM19.3784 63.0528H19.4872L19.5768 63.0208L19.9096 63.2384C19.8243 63.4005 19.7283 63.5669 19.6216 63.7376C19.5149 63.9083 19.404 64.0704 19.2888 64.224C19.1736 64.3733 19.0605 64.5077 18.9496 64.6272C18.9283 64.5931 18.8984 64.5568 18.86 64.5184C18.8259 64.48 18.7896 64.4437 18.7512 64.4096C18.7128 64.3712 18.6765 64.3392 18.6424 64.3136C18.7363 64.2112 18.8301 64.0939 18.924 63.9616C19.0179 63.8251 19.1053 63.6864 19.1864 63.5456C19.2675 63.4005 19.3315 63.2683 19.3784 63.1488V63.0528Z" fill="black"/>
<path d="M73.9528 67.7568L74.2728 67.456C74.5117 67.5285 74.7507 67.6096 74.9896 67.6992C75.2328 67.7845 75.4632 67.8699 75.6808 67.9552C75.8984 68.0363 76.0861 68.1131 76.244 68.1856L75.828 68.512C75.6829 68.4352 75.5101 68.3541 75.3096 68.2688C75.1091 68.1835 74.8915 68.096 74.6568 68.0064C74.4264 67.9211 74.1917 67.8379 73.9528 67.7568ZM70.7464 63.1104H75.8984V63.488H70.7464V63.1104ZM70.4328 64.6208H76.1864V65.0368H70.4328V64.6208ZM73.044 64.7744H73.5176V67.3024H73.044V64.7744ZM71.636 66.592V67.1232H75.0152V66.592H71.636ZM71.636 65.7408V66.2592H75.0152V65.7408H71.636ZM71.1688 65.3824H75.4952V67.4752H71.1688V65.3824ZM72.244 67.456L72.6728 67.7312C72.4979 67.8336 72.2973 67.9339 72.0712 68.032C71.8493 68.1344 71.6168 68.2261 71.3736 68.3072C71.1347 68.3925 70.9085 68.4651 70.6952 68.5248C70.6525 68.4779 70.5971 68.4203 70.5288 68.352C70.4648 68.288 70.4072 68.2347 70.356 68.192C70.5736 68.1323 70.8019 68.064 71.0408 67.9872C71.284 67.9061 71.5101 67.8187 71.7192 67.7248C71.9325 67.6309 72.1075 67.5413 72.244 67.456ZM71.9432 62.6112H72.4104V63.9488H74.2152V62.6112H74.7016V64.3008H71.9432V62.6112ZM77.7736 65.8176H81.7928V66.2592H77.7736V65.8176ZM79.508 64.384H79.9944V66.0416H79.508V64.384ZM77.748 64.2112H82.1128V66.5472H81.6264V64.6464H77.748V64.2112ZM77.5048 64.2112H77.9848V67.4944C77.9848 67.6267 78.0061 67.7291 78.0488 67.8016C78.0915 67.8741 78.1725 67.9253 78.292 67.9552C78.4157 67.9808 78.5949 67.9936 78.8296 67.9936C78.8851 67.9936 78.9747 67.9936 79.0984 67.9936C79.2221 67.9936 79.3672 67.9936 79.5336 67.9936C79.7 67.9936 79.8728 67.9936 80.052 67.9936C80.2355 67.9936 80.4125 67.9936 80.5832 67.9936C80.7539 67.9936 80.9053 67.9936 81.0376 67.9936C81.1741 67.9936 81.2787 67.9936 81.3512 67.9936C81.556 67.9936 81.7117 67.9701 81.8184 67.9232C81.9251 67.872 81.9997 67.7781 82.0424 67.6416C82.0893 67.5008 82.1235 67.3003 82.1448 67.04C82.2088 67.0784 82.2856 67.1147 82.3752 67.1488C82.4691 67.1787 82.5501 67.2021 82.6184 67.2192C82.5843 67.5349 82.5288 67.7824 82.452 67.9616C82.3795 68.1365 82.2579 68.2603 82.0872 68.3328C81.9208 68.4053 81.6776 68.4416 81.3576 68.4416C81.3149 68.4416 81.2296 68.4416 81.1016 68.4416C80.9779 68.4416 80.8264 68.4416 80.6472 68.4416C80.4723 68.4416 80.2888 68.4416 80.0968 68.4416C79.9091 68.4416 79.7277 68.4416 79.5528 68.4416C79.3821 68.4416 79.2328 68.4416 79.1048 68.4416C78.9811 68.4416 78.9 68.4416 78.8616 68.4416C78.516 68.4416 78.2451 68.416 78.0488 68.3648C77.8525 68.3136 77.7117 68.2176 77.6264 68.0768C77.5453 67.9403 77.5048 67.744 77.5048 67.488V64.2112ZM78.5736 63.0528H80.5832V63.4752H78.3624L78.5736 63.0528ZM78.5928 62.6048L79.124 62.7008C78.9747 62.9568 78.7997 63.2171 78.5992 63.4816C78.3987 63.7461 78.1725 64.0064 77.9208 64.2624C77.6691 64.5141 77.3896 64.7531 77.0824 64.9792C77.0568 64.9408 77.0227 64.9003 76.98 64.8576C76.9373 64.8149 76.8947 64.7723 76.852 64.7296C76.8093 64.6869 76.7667 64.6549 76.724 64.6336C77.0141 64.4331 77.2787 64.2176 77.5176 63.9872C77.7565 63.7525 77.9656 63.5179 78.1448 63.2832C78.3283 63.0443 78.4776 62.8181 78.5928 62.6048ZM80.3784 63.0528H80.4872L80.5768 63.0208L80.9096 63.2384C80.8243 63.4005 80.7283 63.5669 80.6216 63.7376C80.5149 63.9083 80.404 64.0704 80.2888 64.224C80.1736 64.3733 80.0605 64.5077 79.9496 64.6272C79.9283 64.5931 79.8984 64.5568 79.86 64.5184C79.8259 64.48 79.7896 64.4437 79.7512 64.4096C79.7128 64.3712 79.6765 64.3392 79.6424 64.3136C79.7363 64.2112 79.8301 64.0939 79.924 63.9616C80.0179 63.8251 80.1053 63.6864 80.1864 63.5456C80.2675 63.4005 80.3315 63.2683 80.3784 63.1488V63.0528Z" fill="black"/>
<path d="M132.465 63.04H138.161V63.456H132.465V63.04ZM135.934 64.4736H138.084V64.8704H135.934V64.4736ZM135.831 65.6896H137.937V66.08H135.831V65.6896ZM133.975 62.624H134.449V63.8336H133.975V62.624ZM133.898 64.064H134.314V64.8H133.898V64.064ZM133.898 65.4336H134.314V66.176H133.898V65.4336ZM136.126 62.624H136.599V63.8336H136.126V62.624ZM132.439 67.9104H138.18V68.3136H132.439V67.9104ZM133.13 66.592H137.559V68.1216H137.086V66.9632H136.183V68.1216H135.774V66.9632H134.878V68.1216H134.462V66.9632H133.578V68.1216H133.13V66.592ZM136.081 63.8592L136.522 63.9552C136.424 64.2581 136.296 64.5483 136.138 64.8256C135.985 65.1029 135.816 65.3376 135.633 65.5296C135.607 65.504 135.571 65.4763 135.524 65.4464C135.481 65.4123 135.434 65.3781 135.383 65.344C135.336 65.3099 135.294 65.2843 135.255 65.2672C135.439 65.0923 135.601 64.8811 135.742 64.6336C135.887 64.3861 136 64.128 136.081 63.8592ZM132.99 64.608H135.21V65.6256H132.99V65.3312H134.814V64.9088H132.99V64.608ZM135.364 63.936V64.256H133.162V65.9904H135.415V66.3104H132.759V63.936H135.364ZM139.774 65.8176H143.793V66.2592H139.774V65.8176ZM141.508 64.384H141.994V66.0416H141.508V64.384ZM139.748 64.2112H144.113V66.5472H143.626V64.6464H139.748V64.2112ZM139.505 64.2112H139.985V67.4944C139.985 67.6267 140.006 67.7291 140.049 67.8016C140.091 67.8741 140.173 67.9253 140.292 67.9552C140.416 67.9808 140.595 67.9936 140.83 67.9936C140.885 67.9936 140.975 67.9936 141.098 67.9936C141.222 67.9936 141.367 67.9936 141.534 67.9936C141.7 67.9936 141.873 67.9936 142.052 67.9936C142.235 67.9936 142.413 67.9936 142.583 67.9936C142.754 67.9936 142.905 67.9936 143.038 67.9936C143.174 67.9936 143.279 67.9936 143.351 67.9936C143.556 67.9936 143.712 67.9701 143.818 67.9232C143.925 67.872 144 67.7781 144.042 67.6416C144.089 67.5008 144.123 67.3003 144.145 67.04C144.209 67.0784 144.286 67.1147 144.375 67.1488C144.469 67.1787 144.55 67.2021 144.618 67.2192C144.584 67.5349 144.529 67.7824 144.452 67.9616C144.379 68.1365 144.258 68.2603 144.087 68.3328C143.921 68.4053 143.678 68.4416 143.358 68.4416C143.315 68.4416 143.23 68.4416 143.102 68.4416C142.978 68.4416 142.826 68.4416 142.647 68.4416C142.472 68.4416 142.289 68.4416 142.097 68.4416C141.909 68.4416 141.728 68.4416 141.553 68.4416C141.382 68.4416 141.233 68.4416 141.105 68.4416C140.981 68.4416 140.9 68.4416 140.862 68.4416C140.516 68.4416 140.245 68.416 140.049 68.3648C139.853 68.3136 139.712 68.2176 139.626 68.0768C139.545 67.9403 139.505 67.744 139.505 67.488V64.2112ZM140.574 63.0528H142.583V63.4752H140.362L140.574 63.0528ZM140.593 62.6048L141.124 62.7008C140.975 62.9568 140.8 63.2171 140.599 63.4816C140.399 63.7461 140.173 64.0064 139.921 64.2624C139.669 64.5141 139.39 64.7531 139.082 64.9792C139.057 64.9408 139.023 64.9003 138.98 64.8576C138.937 64.8149 138.895 64.7723 138.852 64.7296C138.809 64.6869 138.767 64.6549 138.724 64.6336C139.014 64.4331 139.279 64.2176 139.518 63.9872C139.757 63.7525 139.966 63.5179 140.145 63.2832C140.328 63.0443 140.478 62.8181 140.593 62.6048ZM142.378 63.0528H142.487L142.577 63.0208L142.91 63.2384C142.824 63.4005 142.728 63.5669 142.622 63.7376C142.515 63.9083 142.404 64.0704 142.289 64.224C142.174 64.3733 142.061 64.5077 141.95 64.6272C141.928 64.5931 141.898 64.5568 141.86 64.5184C141.826 64.48 141.79 64.4437 141.751 64.4096C141.713 64.3712 141.677 64.3392 141.642 64.3136C141.736 64.2112 141.83 64.0939 141.924 63.9616C142.018 63.8251 142.105 63.6864 142.186 63.5456C142.267 63.4005 142.331 63.2683 142.378 63.1488V63.0528Z" fill="black"/>
<path d="M195.22 63.0208H200.129V63.4816H195.22V63.0208ZM194.932 63.0208H195.412V64.9472C195.412 65.2117 195.403 65.4976 195.386 65.8048C195.374 66.112 195.344 66.4256 195.297 66.7456C195.25 67.0656 195.179 67.3771 195.086 67.68C194.996 67.9829 194.877 68.2624 194.727 68.5184C194.702 68.4885 194.663 68.4565 194.612 68.4224C194.561 68.3925 194.507 68.3627 194.452 68.3328C194.401 68.3029 194.354 68.2816 194.311 68.2688C194.452 68.0299 194.563 67.7696 194.644 67.488C194.729 67.2021 194.791 66.912 194.83 66.6176C194.872 66.3232 194.9 66.0331 194.913 65.7472C194.926 65.4613 194.932 65.1947 194.932 64.9472V63.0208ZM197.428 63.7952H197.908C197.895 64.2304 197.872 64.6485 197.838 65.0496C197.808 65.4464 197.752 65.8197 197.671 66.1696C197.59 66.5152 197.466 66.8352 197.3 67.1296C197.134 67.424 196.912 67.6885 196.634 67.9232C196.357 68.1579 196.007 68.3563 195.585 68.5184C195.568 68.48 195.542 68.4373 195.508 68.3904C195.474 68.3435 195.438 68.2965 195.399 68.2496C195.361 68.2069 195.327 68.1707 195.297 68.1408C195.698 67.9957 196.029 67.8165 196.289 67.6032C196.549 67.3899 196.754 67.1488 196.903 66.88C197.053 66.6069 197.161 66.3104 197.23 65.9904C197.302 65.6661 197.351 65.3205 197.377 64.9536C197.402 64.5867 197.419 64.2005 197.428 63.7952ZM197.876 64.0192C197.923 64.5611 197.993 65.0539 198.087 65.4976C198.181 65.9371 198.315 66.3275 198.49 66.6688C198.665 67.0101 198.891 67.3003 199.169 67.5392C199.45 67.7781 199.8 67.9659 200.218 68.1024C200.189 68.1323 200.152 68.1707 200.11 68.2176C200.071 68.2688 200.035 68.32 200.001 68.3712C199.971 68.4224 199.943 68.4672 199.918 68.5056C199.482 68.3477 199.118 68.1387 198.823 67.8784C198.529 67.6181 198.29 67.3024 198.106 66.9312C197.923 66.56 197.78 66.1355 197.678 65.6576C197.579 65.1797 197.503 64.6443 197.447 64.0512L197.876 64.0192ZM196.282 64.608L196.711 64.7232C196.673 64.9237 196.622 65.1221 196.558 65.3184C196.498 65.5147 196.419 65.7003 196.321 65.8752C196.223 66.0459 196.101 66.1909 195.956 66.3104L195.553 66.0864C195.685 65.9712 195.798 65.8347 195.892 65.6768C195.99 65.5147 196.071 65.3419 196.135 65.1584C196.199 64.9749 196.248 64.7915 196.282 64.608ZM199.425 64.5248L199.911 64.7168C199.779 64.9685 199.634 65.2267 199.476 65.4912C199.322 65.7515 199.175 65.9776 199.034 66.1696L198.612 65.984C198.706 65.856 198.802 65.7067 198.9 65.536C199.002 65.3653 199.101 65.1925 199.194 65.0176C199.288 64.8384 199.365 64.6741 199.425 64.5248ZM201.774 65.8176H205.793V66.2592H201.774V65.8176ZM203.508 64.384H203.994V66.0416H203.508V64.384ZM201.748 64.2112H206.113V66.5472H205.626V64.6464H201.748V64.2112ZM201.505 64.2112H201.985V67.4944C201.985 67.6267 202.006 67.7291 202.049 67.8016C202.091 67.8741 202.173 67.9253 202.292 67.9552C202.416 67.9808 202.595 67.9936 202.83 67.9936C202.885 67.9936 202.975 67.9936 203.098 67.9936C203.222 67.9936 203.367 67.9936 203.534 67.9936C203.7 67.9936 203.873 67.9936 204.052 67.9936C204.235 67.9936 204.413 67.9936 204.583 67.9936C204.754 67.9936 204.905 67.9936 205.038 67.9936C205.174 67.9936 205.279 67.9936 205.351 67.9936C205.556 67.9936 205.712 67.9701 205.818 67.9232C205.925 67.872 206 67.7781 206.042 67.6416C206.089 67.5008 206.123 67.3003 206.145 67.04C206.209 67.0784 206.286 67.1147 206.375 67.1488C206.469 67.1787 206.55 67.2021 206.618 67.2192C206.584 67.5349 206.529 67.7824 206.452 67.9616C206.379 68.1365 206.258 68.2603 206.087 68.3328C205.921 68.4053 205.678 68.4416 205.358 68.4416C205.315 68.4416 205.23 68.4416 205.102 68.4416C204.978 68.4416 204.826 68.4416 204.647 68.4416C204.472 68.4416 204.289 68.4416 204.097 68.4416C203.909 68.4416 203.728 68.4416 203.553 68.4416C203.382 68.4416 203.233 68.4416 203.105 68.4416C202.981 68.4416 202.9 68.4416 202.862 68.4416C202.516 68.4416 202.245 68.416 202.049 68.3648C201.853 68.3136 201.712 68.2176 201.626 68.0768C201.545 67.9403 201.505 67.744 201.505 67.488V64.2112ZM202.574 63.0528H204.583V63.4752H202.362L202.574 63.0528ZM202.593 62.6048L203.124 62.7008C202.975 62.9568 202.8 63.2171 202.599 63.4816C202.399 63.7461 202.173 64.0064 201.921 64.2624C201.669 64.5141 201.39 64.7531 201.082 64.9792C201.057 64.9408 201.023 64.9003 200.98 64.8576C200.937 64.8149 200.895 64.7723 200.852 64.7296C200.809 64.6869 200.767 64.6549 200.724 64.6336C201.014 64.4331 201.279 64.2176 201.518 63.9872C201.757 63.7525 201.966 63.5179 202.145 63.2832C202.328 63.0443 202.478 62.8181 202.593 62.6048ZM204.378 63.0528H204.487L204.577 63.0208L204.91 63.2384C204.824 63.4005 204.728 63.5669 204.622 63.7376C204.515 63.9083 204.404 64.0704 204.289 64.224C204.174 64.3733 204.061 64.5077 203.95 64.6272C203.928 64.5931 203.898 64.5568 203.86 64.5184C203.826 64.48 203.79 64.4437 203.751 64.4096C203.713 64.3712 203.677 64.3392 203.642 64.3136C203.736 64.2112 203.83 64.0939 203.924 63.9616C204.018 63.8251 204.105 63.6864 204.186 63.5456C204.267 63.4005 204.331 63.2683 204.378 63.1488V63.0528Z" fill="black"/>
<path d="M258.553 63.2704V64.6656H262.002V63.2704H258.553ZM258.092 62.8672H262.482V65.0688H258.092V62.8672ZM258.905 63.5456L259.225 63.4368C259.323 63.5819 259.41 63.7419 259.487 63.9168C259.568 64.0917 259.622 64.2432 259.647 64.3712L259.314 64.5056C259.289 64.3819 259.238 64.2283 259.161 64.0448C259.084 63.8613 258.999 63.6949 258.905 63.5456ZM257.983 65.5936H262.61V65.9904H257.983V65.5936ZM257.452 66.5664H263.154V66.9952H257.452V66.5664ZM260.05 63.0272H260.53V66.784H260.05V63.0272ZM261.311 63.4304L261.689 63.5712C261.599 63.7419 261.503 63.9189 261.401 64.1024C261.303 64.2859 261.211 64.4416 261.126 64.5696L260.818 64.4416C260.874 64.3477 260.931 64.2432 260.991 64.128C261.055 64.0085 261.115 63.8869 261.17 63.7632C261.226 63.6395 261.273 63.5285 261.311 63.4304ZM259.276 67.424L259.724 67.3856C259.767 67.552 259.799 67.7333 259.82 67.9296C259.846 68.1259 259.858 68.288 259.858 68.416L259.391 68.4736C259.391 68.3413 259.381 68.1771 259.359 67.9808C259.342 67.7803 259.314 67.5947 259.276 67.424ZM260.594 67.4368L261.042 67.3472C261.119 67.5051 261.192 67.68 261.26 67.872C261.333 68.064 261.384 68.2261 261.414 68.3584L260.934 68.4736C260.908 68.3371 260.861 68.1707 260.793 67.9744C260.729 67.7781 260.663 67.5989 260.594 67.4368ZM261.894 67.4112L262.335 67.2512C262.438 67.3579 262.544 67.4773 262.655 67.6096C262.766 67.7419 262.866 67.872 262.956 68C263.05 68.1237 263.127 68.2368 263.186 68.3392L262.719 68.5184C262.668 68.416 262.595 68.3008 262.502 68.1728C262.412 68.0491 262.314 67.9189 262.207 67.7824C262.105 67.6459 262 67.5221 261.894 67.4112ZM258.175 67.2512L258.636 67.3664C258.555 67.5755 258.45 67.7867 258.322 68C258.199 68.2133 258.06 68.3925 257.906 68.5376L257.465 68.3328C257.606 68.2048 257.74 68.0427 257.868 67.8464C257.996 67.6501 258.098 67.4517 258.175 67.2512ZM264.774 65.8176H268.793V66.2592H264.774V65.8176ZM266.508 64.384H266.994V66.0416H266.508V64.384ZM264.748 64.2112H269.113V66.5472H268.626V64.6464H264.748V64.2112ZM264.505 64.2112H264.985V67.4944C264.985 67.6267 265.006 67.7291 265.049 67.8016C265.091 67.8741 265.173 67.9253 265.292 67.9552C265.416 67.9808 265.595 67.9936 265.83 67.9936C265.885 67.9936 265.975 67.9936 266.098 67.9936C266.222 67.9936 266.367 67.9936 266.534 67.9936C266.7 67.9936 266.873 67.9936 267.052 67.9936C267.235 67.9936 267.413 67.9936 267.583 67.9936C267.754 67.9936 267.905 67.9936 268.038 67.9936C268.174 67.9936 268.279 67.9936 268.351 67.9936C268.556 67.9936 268.712 67.9701 268.818 67.9232C268.925 67.872 269 67.7781 269.042 67.6416C269.089 67.5008 269.123 67.3003 269.145 67.04C269.209 67.0784 269.286 67.1147 269.375 67.1488C269.469 67.1787 269.55 67.2021 269.618 67.2192C269.584 67.5349 269.529 67.7824 269.452 67.9616C269.379 68.1365 269.258 68.2603 269.087 68.3328C268.921 68.4053 268.678 68.4416 268.358 68.4416C268.315 68.4416 268.23 68.4416 268.102 68.4416C267.978 68.4416 267.826 68.4416 267.647 68.4416C267.472 68.4416 267.289 68.4416 267.097 68.4416C266.909 68.4416 266.728 68.4416 266.553 68.4416C266.382 68.4416 266.233 68.4416 266.105 68.4416C265.981 68.4416 265.9 68.4416 265.862 68.4416C265.516 68.4416 265.245 68.416 265.049 68.3648C264.853 68.3136 264.712 68.2176 264.626 68.0768C264.545 67.9403 264.505 67.744 264.505 67.488V64.2112ZM265.574 63.0528H267.583V63.4752H265.362L265.574 63.0528ZM265.593 62.6048L266.124 62.7008C265.975 62.9568 265.8 63.2171 265.599 63.4816C265.399 63.7461 265.173 64.0064 264.921 64.2624C264.669 64.5141 264.39 64.7531 264.082 64.9792C264.057 64.9408 264.023 64.9003 263.98 64.8576C263.937 64.8149 263.895 64.7723 263.852 64.7296C263.809 64.6869 263.767 64.6549 263.724 64.6336C264.014 64.4331 264.279 64.2176 264.518 63.9872C264.757 63.7525 264.966 63.5179 265.145 63.2832C265.328 63.0443 265.478 62.8181 265.593 62.6048ZM267.378 63.0528H267.487L267.577 63.0208L267.91 63.2384C267.824 63.4005 267.728 63.5669 267.622 63.7376C267.515 63.9083 267.404 64.0704 267.289 64.224C267.174 64.3733 267.061 64.5077 266.95 64.6272C266.928 64.5931 266.898 64.5568 266.86 64.5184C266.826 64.48 266.79 64.4437 266.751 64.4096C266.713 64.3712 266.677 64.3392 266.642 64.3136C266.736 64.2112 266.83 64.0939 266.924 63.9616C267.018 63.8251 267.105 63.6864 267.186 63.5456C267.267 63.4005 267.331 63.2683 267.378 63.1488V63.0528Z" fill="black"/>
</svg>
