<svg width="296" height="92" viewBox="0 0 296 92" fill="none" xmlns="http://www.w3.org/2000/svg">
<path d="M295.72 0H0V78H295.72V0Z" fill="#231815"/>
<path d="M103.13 25.11C103.35 24.83 103.43 24.3301 103.43 24.3301H90.0801C90.0801 24.3301 90.2401 24.88 90.3801 25.11H103.12H103.13Z" fill="#D3A100"/>
<path d="M102.361 26.2401C102.611 26.0201 102.861 25.5801 102.861 25.5801H90.6406C90.6406 25.5801 90.7806 25.9101 91.0806 26.2401H102.361Z" fill="#D3A100"/>
<path d="M101.39 27.2598C101.69 27.0898 101.94 26.7598 101.94 26.7598H91.4902C91.4902 26.7598 91.7402 27.0398 91.9802 27.2598H101.38H101.39Z" fill="#D3A100"/>
<path d="M100.17 28.2299C100.47 28.1199 100.81 27.8398 100.81 27.8398H92.6602C92.6602 27.8398 92.6601 27.8999 93.2401 28.2299H100.18H100.17Z" fill="#D3A100"/>
<path d="M94.1702 28.8398C94.1702 28.8398 95.0301 29.3398 96.7101 29.3398C98.3901 29.3398 99.4702 28.8398 99.4702 28.8398H94.1602H94.1702Z" fill="#D3A100"/>
<path d="M94.0305 29.9697C94.0305 29.9697 95.0506 30.0197 95.6606 30.4897C96.2406 30.9897 96.6906 31.8198 96.6906 31.8198C96.6906 31.8198 97.0505 31.0197 97.6305 30.6097C98.2105 30.1597 99.1505 29.9697 99.1505 29.9697H109.681L111.751 33.0397H102.291C102.291 33.0397 101.631 33.0697 100.631 33.6497C100.101 33.9497 99.7105 34.4797 99.7105 34.4797C99.7105 34.4797 99.6305 34.7297 99.5205 34.8597C99.4105 34.9997 99.3306 35.1097 99.1906 35.1697C99.0506 35.2297 99.0806 35.1998 99.0806 35.1998H94.1606C94.1606 35.1998 93.9605 35.1198 93.8605 34.9498C93.7505 34.7798 93.8306 34.8398 93.7206 34.7098C93.6406 34.5698 93.4405 34.2098 92.7005 33.7098C91.9305 33.2098 91.1805 33.1597 91.1805 33.1597H81.5605L83.6606 29.9797H94.0305V29.9697Z" fill="#D3A100"/>
<path d="M86.5898 34.3096V50.0096C86.5898 50.0096 86.6498 51.3996 87.8098 53.2696C88.9698 55.1496 90.6498 56.0096 90.6498 56.0096L91.9798 53.9396C91.9798 53.9396 90.8198 53.2496 89.9298 51.9196C89.0798 50.5996 89.0798 49.4596 89.0798 49.4596V34.3096H86.5898Z" fill="#D3A100"/>
<path d="M104.4 34.2598V49.4097C104.4 49.4097 104.21 50.9298 103.49 52.0098C102.77 53.1098 101.58 53.9998 101.58 53.9998L102.86 56.0397C102.86 56.0397 104.79 54.6298 105.73 53.1398C106.67 51.6498 106.9 49.4097 106.9 49.4097V34.2598H104.41H104.4Z" fill="#D3A100"/>
<path d="M82.6504 34.3096V50.0696C82.6504 50.0696 82.8104 52.5096 84.3304 55.0496C85.8604 57.5896 88.6204 59.3596 88.6204 59.3596L89.9204 57.2896C89.9204 57.2896 88.1504 56.3496 86.7404 54.1896C85.3004 52.0096 85.2204 50.0196 85.2204 50.0196V34.3196H82.6504V34.3096Z" fill="#D3A100"/>
<path d="M94.0292 35.9697V52.6097C94.0292 52.6097 93.9692 52.6697 93.9492 52.9097C93.9192 53.1597 93.7592 53.3298 93.7592 53.3298L88.1992 62.5397H105.229L99.6692 53.1398L99.4992 52.7197L99.4392 52.2797V35.9998H97.3692V52.8997C97.3692 52.8997 97.3692 53.1397 97.4492 53.3397C97.4992 53.5297 97.6192 53.8298 97.6192 53.8298L101.039 59.4697H92.3592L95.7292 53.8597C95.7292 53.8597 95.8392 53.6698 95.9192 53.3898C95.9792 53.1398 95.9992 52.8997 95.9992 52.8997V35.9697H94.0092H94.0292Z" fill="#D3A100"/>
<path d="M108.24 34.26V49.74C108.24 49.74 108.22 51.73 106.75 54.02C105.29 56.32 103.6 57.28 103.6 57.28L104.85 59.38C104.85 59.38 107.39 57.78 109 55.23C110.58 52.69 110.77 49.73 110.77 49.73V34.25H108.25L108.24 34.26Z" fill="#D3A100"/>
<path d="M90.0002 23.89C90.0002 23.89 89.1402 19.22 92.5702 16.89C92.5702 16.89 94.1202 15.46 96.6302 15.46C99.3102 15.46 100.86 16.8699 100.86 16.8699C104.59 19.6099 103.49 23.89 103.49 23.89H90.0002V23.89Z" fill="#D3A100"/>
<path d="M206.739 25.11C206.959 24.83 207.039 24.3301 207.039 24.3301H193.689C193.689 24.3301 193.859 24.88 193.999 25.11H206.739Z" fill="white"/>
<path d="M205.96 26.2401C206.21 26.0201 206.46 25.5801 206.46 25.5801H194.24C194.24 25.5801 194.38 25.9101 194.68 26.2401H205.96V26.2401Z" fill="white"/>
<path d="M205 27.2598C205.3 27.0898 205.55 26.7598 205.55 26.7598H195.1C195.1 26.7598 195.35 27.0398 195.59 27.2598H204.99H205Z" fill="white"/>
<path d="M203.78 28.2299C204.08 28.1199 204.42 27.8398 204.42 27.8398H196.27C196.27 27.8398 196.27 27.8999 196.85 28.2299H203.79H203.78Z" fill="white"/>
<path d="M197.78 28.8398C197.78 28.8398 198.64 29.3398 200.32 29.3398C202 29.3398 203.08 28.8398 203.08 28.8398H197.77H197.78Z" fill="white"/>
<path d="M197.64 29.9697C197.64 29.9697 198.66 30.0197 199.27 30.4897C199.85 30.9897 200.3 31.8198 200.3 31.8198C200.3 31.8198 200.66 31.0197 201.24 30.6097C201.82 30.1597 202.76 29.9697 202.76 29.9697H213.29L215.36 33.0397H205.9C205.9 33.0397 205.24 33.0697 204.24 33.6497C203.71 33.9497 203.32 34.4797 203.32 34.4797C203.32 34.4797 203.24 34.7297 203.13 34.8597C203.02 34.9997 202.94 35.1097 202.8 35.1697C202.66 35.2297 202.69 35.1998 202.69 35.1998H197.77C197.77 35.1998 197.57 35.1198 197.47 34.9498C197.36 34.7798 197.44 34.8398 197.33 34.7098C197.25 34.5698 197.05 34.2098 196.31 33.7098C195.54 33.2098 194.79 33.1597 194.79 33.1597H185.17L187.27 29.9797H197.64V29.9697Z" fill="white"/>
<path d="M190.199 34.3096V50.0096C190.199 50.0096 190.259 51.3996 191.419 53.2696C192.579 55.1496 194.259 56.0096 194.259 56.0096L195.589 53.9396C195.589 53.9396 194.429 53.2496 193.539 51.9196C192.689 50.5996 192.689 49.4596 192.689 49.4596V34.3096H190.199V34.3096Z" fill="white"/>
<path d="M208.009 34.2598V49.4097C208.009 49.4097 207.819 50.9298 207.099 52.0098C206.379 53.1098 205.189 53.9998 205.189 53.9998L206.469 56.0397C206.469 56.0397 208.399 54.6298 209.339 53.1398C210.279 51.6498 210.509 49.4097 210.509 49.4097V34.2598H208.019H208.009Z" fill="white"/>
<path d="M186.25 34.3096V50.0696C186.25 50.0696 186.41 52.5096 187.93 55.0496C189.46 57.5896 192.22 59.3596 192.22 59.3596L193.52 57.2896C193.52 57.2896 191.75 56.3496 190.34 54.1896C188.9 52.0096 188.82 50.0196 188.82 50.0196V34.3196H186.25V34.3096Z" fill="white"/>
<path d="M197.641 35.9697V52.6097C197.641 52.6097 197.581 52.6697 197.561 52.9097C197.531 53.1597 197.371 53.3298 197.371 53.3298L191.811 62.5397H208.841L203.281 53.1398L203.111 52.7197L203.051 52.2797V35.9998H200.981V52.8997C200.981 52.8997 200.981 53.1397 201.061 53.3397C201.111 53.5297 201.231 53.8298 201.231 53.8298L204.651 59.4697H195.971L199.341 53.8597C199.341 53.8597 199.451 53.6698 199.531 53.3898C199.591 53.1398 199.611 52.8997 199.611 52.8997V35.9697H197.621H197.641Z" fill="white"/>
<path d="M211.849 34.26V49.74C211.849 49.74 211.829 51.73 210.359 54.02C208.899 56.32 207.209 57.28 207.209 57.28L208.459 59.38C208.459 59.38 210.999 57.78 212.609 55.23C214.189 52.69 214.379 49.73 214.379 49.73V34.25H211.859L211.849 34.26Z" fill="white"/>
<path d="M193.6 23.89C193.6 23.89 192.74 19.22 196.17 16.89C196.17 16.89 197.72 15.46 200.23 15.46C202.91 15.46 204.46 16.8699 204.46 16.8699C208.19 19.5999 207.09 23.89 207.09 23.89H193.6Z" fill="white"/>
<path d="M195.265 89.5648H199.322V90.0448H195.265V89.5648ZM195.233 87.5936H199.329V88.0672H195.233V87.5936ZM195.022 85.648H199.591V90.48H199.092V86.1344H195.502V90.512H195.022V85.648ZM196.954 84.5984L197.55 84.7072C197.456 84.9248 197.358 85.1467 197.255 85.3728C197.157 85.5947 197.063 85.7867 196.974 85.9488L196.513 85.8336C196.568 85.7184 196.624 85.5883 196.679 85.4432C196.735 85.2981 196.786 85.1531 196.833 85.008C196.884 84.8587 196.925 84.7221 196.954 84.5984ZM201.774 87.8176H205.793V88.2592H201.774V87.8176ZM203.508 86.384H203.994V88.0416H203.508V86.384ZM201.748 86.2112H206.113V88.5472H205.626V86.6464H201.748V86.2112ZM201.505 86.2112H201.985V89.4944C201.985 89.6267 202.006 89.7291 202.049 89.8016C202.091 89.8741 202.173 89.9253 202.292 89.9552C202.416 89.9808 202.595 89.9936 202.83 89.9936C202.885 89.9936 202.975 89.9936 203.098 89.9936C203.222 89.9936 203.367 89.9936 203.534 89.9936C203.7 89.9936 203.873 89.9936 204.052 89.9936C204.235 89.9936 204.413 89.9936 204.583 89.9936C204.754 89.9936 204.905 89.9936 205.038 89.9936C205.174 89.9936 205.279 89.9936 205.351 89.9936C205.556 89.9936 205.712 89.9701 205.818 89.9232C205.925 89.872 206 89.7781 206.042 89.6416C206.089 89.5008 206.123 89.3003 206.145 89.04C206.209 89.0784 206.286 89.1147 206.375 89.1488C206.469 89.1787 206.55 89.2021 206.618 89.2192C206.584 89.5349 206.529 89.7824 206.452 89.9616C206.379 90.1365 206.258 90.2603 206.087 90.3328C205.921 90.4053 205.678 90.4416 205.358 90.4416C205.315 90.4416 205.23 90.4416 205.102 90.4416C204.978 90.4416 204.826 90.4416 204.647 90.4416C204.472 90.4416 204.289 90.4416 204.097 90.4416C203.909 90.4416 203.728 90.4416 203.553 90.4416C203.382 90.4416 203.233 90.4416 203.105 90.4416C202.981 90.4416 202.9 90.4416 202.862 90.4416C202.516 90.4416 202.245 90.416 202.049 90.3648C201.853 90.3136 201.712 90.2176 201.626 90.0768C201.545 89.9403 201.505 89.744 201.505 89.488V86.2112ZM202.574 85.0528H204.583V85.4752H202.362L202.574 85.0528ZM202.593 84.6048L203.124 84.7008C202.975 84.9568 202.8 85.2171 202.599 85.4816C202.399 85.7461 202.173 86.0064 201.921 86.2624C201.669 86.5141 201.39 86.7531 201.082 86.9792C201.057 86.9408 201.023 86.9003 200.98 86.8576C200.937 86.8149 200.895 86.7723 200.852 86.7296C200.809 86.6869 200.767 86.6549 200.724 86.6336C201.014 86.4331 201.279 86.2176 201.518 85.9872C201.757 85.7525 201.966 85.5179 202.145 85.2832C202.328 85.0443 202.478 84.8181 202.593 84.6048ZM204.378 85.0528H204.487L204.577 85.0208L204.91 85.2384C204.824 85.4005 204.728 85.5669 204.622 85.7376C204.515 85.9083 204.404 86.0704 204.289 86.224C204.174 86.3733 204.061 86.5077 203.95 86.6272C203.928 86.5931 203.898 86.5568 203.86 86.5184C203.826 86.48 203.79 86.4437 203.751 86.4096C203.713 86.3712 203.677 86.3392 203.642 86.3136C203.736 86.2112 203.83 86.0939 203.924 85.9616C204.018 85.8251 204.105 85.6864 204.186 85.5456C204.267 85.4005 204.331 85.2683 204.378 85.1488V85.0528Z" fill="black"/>
<path d="M93.9528 89.7568L94.2728 89.456C94.5117 89.5285 94.7507 89.6096 94.9896 89.6992C95.2328 89.7845 95.4632 89.8699 95.6808 89.9552C95.8984 90.0363 96.0861 90.1131 96.244 90.1856L95.828 90.512C95.6829 90.4352 95.5101 90.3541 95.3096 90.2688C95.1091 90.1835 94.8915 90.096 94.6568 90.0064C94.4264 89.9211 94.1917 89.8379 93.9528 89.7568ZM90.7464 85.1104H95.8984V85.488H90.7464V85.1104ZM90.4328 86.6208H96.1864V87.0368H90.4328V86.6208ZM93.044 86.7744H93.5176V89.3024H93.044V86.7744ZM91.636 88.592V89.1232H95.0152V88.592H91.636ZM91.636 87.7408V88.2592H95.0152V87.7408H91.636ZM91.1688 87.3824H95.4952V89.4752H91.1688V87.3824ZM92.244 89.456L92.6728 89.7312C92.4979 89.8336 92.2973 89.9339 92.0712 90.032C91.8493 90.1344 91.6168 90.2261 91.3736 90.3072C91.1347 90.3925 90.9085 90.4651 90.6952 90.5248C90.6525 90.4779 90.5971 90.4203 90.5288 90.352C90.4648 90.288 90.4072 90.2347 90.356 90.192C90.5736 90.1323 90.8019 90.064 91.0408 89.9872C91.284 89.9061 91.5101 89.8187 91.7192 89.7248C91.9325 89.6309 92.1075 89.5413 92.244 89.456ZM91.9432 84.6112H92.4104V85.9488H94.2152V84.6112H94.7016V86.3008H91.9432V84.6112ZM97.7736 87.8176H101.793V88.2592H97.7736V87.8176ZM99.508 86.384H99.9944V88.0416H99.508V86.384ZM97.748 86.2112H102.113V88.5472H101.626V86.6464H97.748V86.2112ZM97.5048 86.2112H97.9848V89.4944C97.9848 89.6267 98.0061 89.7291 98.0488 89.8016C98.0915 89.8741 98.1725 89.9253 98.292 89.9552C98.4157 89.9808 98.5949 89.9936 98.8296 89.9936C98.8851 89.9936 98.9747 89.9936 99.0984 89.9936C99.2221 89.9936 99.3672 89.9936 99.5336 89.9936C99.7 89.9936 99.8728 89.9936 100.052 89.9936C100.235 89.9936 100.413 89.9936 100.583 89.9936C100.754 89.9936 100.905 89.9936 101.038 89.9936C101.174 89.9936 101.279 89.9936 101.351 89.9936C101.556 89.9936 101.712 89.9701 101.818 89.9232C101.925 89.872 102 89.7781 102.042 89.6416C102.089 89.5008 102.123 89.3003 102.145 89.04C102.209 89.0784 102.286 89.1147 102.375 89.1488C102.469 89.1787 102.55 89.2021 102.618 89.2192C102.584 89.5349 102.529 89.7824 102.452 89.9616C102.379 90.1365 102.258 90.2603 102.087 90.3328C101.921 90.4053 101.678 90.4416 101.358 90.4416C101.315 90.4416 101.23 90.4416 101.102 90.4416C100.978 90.4416 100.826 90.4416 100.647 90.4416C100.472 90.4416 100.289 90.4416 100.097 90.4416C99.9091 90.4416 99.7277 90.4416 99.5528 90.4416C99.3821 90.4416 99.2328 90.4416 99.1048 90.4416C98.9811 90.4416 98.9 90.4416 98.8616 90.4416C98.516 90.4416 98.2451 90.416 98.0488 90.3648C97.8525 90.3136 97.7117 90.2176 97.6264 90.0768C97.5453 89.9403 97.5048 89.744 97.5048 89.488V86.2112ZM98.5736 85.0528H100.583V85.4752H98.3624L98.5736 85.0528ZM98.5928 84.6048L99.124 84.7008C98.9747 84.9568 98.7997 85.2171 98.5992 85.4816C98.3987 85.7461 98.1725 86.0064 97.9208 86.2624C97.6691 86.5141 97.3896 86.7531 97.0824 86.9792C97.0568 86.9408 97.0227 86.9003 96.98 86.8576C96.9373 86.8149 96.8947 86.7723 96.852 86.7296C96.8093 86.6869 96.7667 86.6549 96.724 86.6336C97.0141 86.4331 97.2787 86.2176 97.5176 85.9872C97.7565 85.7525 97.9656 85.5179 98.1448 85.2832C98.3283 85.0443 98.4776 84.8181 98.5928 84.6048ZM100.378 85.0528H100.487L100.577 85.0208L100.91 85.2384C100.824 85.4005 100.728 85.5669 100.622 85.7376C100.515 85.9083 100.404 86.0704 100.289 86.224C100.174 86.3733 100.061 86.5077 99.9496 86.6272C99.9283 86.5931 99.8984 86.5568 99.86 86.5184C99.8259 86.48 99.7896 86.4437 99.7512 86.4096C99.7128 86.3712 99.6765 86.3392 99.6424 86.3136C99.7363 86.2112 99.8301 86.0939 99.924 85.9616C100.018 85.8251 100.105 85.6864 100.186 85.5456C100.267 85.4005 100.331 85.2683 100.378 85.1488V85.0528Z" fill="black"/>
</svg>
