<svg width="296" height="93" viewBox="0 0 296 93" fill="none" xmlns="http://www.w3.org/2000/svg">
<path d="M295.72 0.259766H0V78.2598H295.72V0.259766Z" fill="#C9CACA"/>
<path d="M103.13 23.8296C103.35 23.5496 103.43 23.0596 103.43 23.0596H90.0801C90.0801 23.0596 90.2401 23.6096 90.3801 23.8296H103.12H103.13Z" fill="#003477"/>
<path d="M102.361 24.9598C102.611 24.7398 102.861 24.2998 102.861 24.2998H90.6406C90.6406 24.2998 90.7806 24.6298 91.0806 24.9598H102.361Z" fill="#003477"/>
<path d="M101.39 25.9893C101.69 25.8293 101.94 25.4893 101.94 25.4893H91.4902C91.4902 25.4893 91.7402 25.7693 91.9802 25.9893H101.38H101.39Z" fill="#003477"/>
<path d="M100.17 26.9496C100.47 26.8396 100.81 26.5596 100.81 26.5596H92.6602C92.6602 26.5596 92.6601 26.6196 93.2401 26.9496H100.18H100.17Z" fill="#003477"/>
<path d="M94.1702 27.5596C94.1702 27.5596 95.0301 28.0596 96.7101 28.0596C98.3901 28.0596 99.4702 27.5596 99.4702 27.5596H94.1602H94.1702Z" fill="#003477"/>
<path d="M94.0305 28.6895C94.0305 28.6895 95.0506 28.7394 95.6606 29.2094C96.2406 29.7094 96.6906 30.5395 96.6906 30.5395C96.6906 30.5395 97.0505 29.7395 97.6305 29.3295C98.2105 28.8795 99.1505 28.6895 99.1505 28.6895H109.681L111.751 31.7595H102.291C102.291 31.7595 101.631 31.7894 100.631 32.3694C100.101 32.6694 99.7105 33.1995 99.7105 33.1995C99.7105 33.1995 99.6305 33.4495 99.5205 33.5795C99.4105 33.7195 99.3306 33.8295 99.1906 33.8795C99.0506 33.9395 99.0806 33.9095 99.0806 33.9095H94.1606C94.1606 33.9095 93.9605 33.8295 93.8605 33.6595C93.7505 33.4995 93.8306 33.5495 93.7206 33.4195C93.6406 33.2795 93.4405 32.9195 92.7005 32.4195C91.9305 31.9195 91.1805 31.8694 91.1805 31.8694H81.5605L83.6606 28.6895H94.0305V28.6895Z" fill="#003477"/>
<path d="M86.5898 33.0293V48.7293C86.5898 48.7293 86.6498 50.1193 87.8098 51.9893C88.9698 53.8693 90.6498 54.7293 90.6498 54.7293L91.9798 52.6593C91.9798 52.6593 90.8198 51.9693 89.9298 50.6393C89.0798 49.3193 89.0798 48.1793 89.0798 48.1793V33.0293H86.5898V33.0293Z" fill="#003477"/>
<path d="M104.4 32.9795V48.1295C104.4 48.1295 104.21 49.6495 103.49 50.7295C102.77 51.8295 101.58 52.7195 101.58 52.7195L102.86 54.7595C102.86 54.7595 104.79 53.3495 105.73 51.8595C106.67 50.3695 106.9 48.1295 106.9 48.1295V32.9795H104.41H104.4Z" fill="#003477"/>
<path d="M82.6504 33.0293V48.7893C82.6504 48.7893 82.8104 51.2193 84.3304 53.7693C85.8604 56.3093 88.6204 58.0793 88.6204 58.0793L89.9204 56.0093C89.9204 56.0093 88.1504 55.0693 86.7404 52.9093C85.3004 50.7293 85.2204 48.7393 85.2204 48.7393V33.0393H82.6504V33.0293Z" fill="#003477"/>
<path d="M94.0292 34.6895V51.3295C94.0292 51.3295 93.9692 51.3895 93.9492 51.6295C93.9192 51.8795 93.7592 52.0495 93.7592 52.0495L88.1992 61.2595H105.229L99.6692 51.8595L99.4992 51.4395L99.4392 50.9995V34.7195H97.3692V51.6194C97.3692 51.6194 97.3692 51.8594 97.4492 52.0594C97.4992 52.2594 97.6192 52.5495 97.6192 52.5495L101.039 58.1895H92.3592L95.7292 52.5795C95.7292 52.5795 95.8392 52.3895 95.9192 52.1095C95.9792 51.8595 95.9992 51.6194 95.9992 51.6194V34.6895H94.0092H94.0292Z" fill="#003477"/>
<path d="M108.24 32.9797V48.4597C108.24 48.4597 108.22 50.4497 106.75 52.7397C105.29 55.0397 103.6 55.9997 103.6 55.9997L104.85 58.0997C104.85 58.0997 107.39 56.4997 109 53.9497C110.58 51.4097 110.77 48.4497 110.77 48.4497V32.9697H108.25L108.24 32.9797Z" fill="#003477"/>
<path d="M90.0002 22.6097C90.0002 22.6097 89.1402 17.9397 92.5702 15.6097C92.5702 15.6097 94.1202 14.1797 96.6302 14.1797C99.3102 14.1797 100.86 15.5897 100.86 15.5897C104.59 18.3297 103.49 22.6097 103.49 22.6097H90.0002V22.6097Z" fill="#003477"/>
<path d="M206.739 23.8296C206.959 23.5496 207.039 23.0596 207.039 23.0596H193.689C193.689 23.0596 193.859 23.6096 193.999 23.8296H206.739Z" fill="#231815"/>
<path d="M205.96 24.9598C206.21 24.7398 206.46 24.2998 206.46 24.2998H194.24C194.24 24.2998 194.38 24.6298 194.68 24.9598H205.96V24.9598Z" fill="#231815"/>
<path d="M205 25.9893C205.3 25.8293 205.55 25.4893 205.55 25.4893H195.1C195.1 25.4893 195.35 25.7693 195.59 25.9893H204.99H205Z" fill="#231815"/>
<path d="M203.78 26.9496C204.08 26.8396 204.42 26.5596 204.42 26.5596H196.27C196.27 26.5596 196.27 26.6196 196.85 26.9496H203.79H203.78Z" fill="#231815"/>
<path d="M197.78 27.5596C197.78 27.5596 198.64 28.0596 200.32 28.0596C202 28.0596 203.08 27.5596 203.08 27.5596H197.77H197.78Z" fill="#231815"/>
<path d="M197.64 28.6895C197.64 28.6895 198.66 28.7394 199.27 29.2094C199.85 29.7094 200.3 30.5395 200.3 30.5395C200.3 30.5395 200.66 29.7395 201.24 29.3295C201.82 28.8795 202.76 28.6895 202.76 28.6895H213.29L215.36 31.7595H205.9C205.9 31.7595 205.24 31.7894 204.24 32.3694C203.71 32.6694 203.32 33.1995 203.32 33.1995C203.32 33.1995 203.24 33.4495 203.13 33.5795C203.02 33.7195 202.94 33.8295 202.8 33.8795C202.66 33.9395 202.69 33.9095 202.69 33.9095H197.77C197.77 33.9095 197.57 33.8295 197.47 33.6595C197.36 33.4995 197.44 33.5495 197.33 33.4195C197.25 33.2795 197.05 32.9195 196.31 32.4195C195.54 31.9195 194.79 31.8694 194.79 31.8694H185.17L187.27 28.6895H197.64V28.6895Z" fill="#231815"/>
<path d="M190.199 33.0293V48.7293C190.199 48.7293 190.259 50.1193 191.419 51.9893C192.579 53.8693 194.259 54.7293 194.259 54.7293L195.589 52.6593C195.589 52.6593 194.429 51.9693 193.539 50.6393C192.689 49.3193 192.689 48.1793 192.689 48.1793V33.0293H190.199V33.0293Z" fill="#231815"/>
<path d="M208.009 32.9795V48.1295C208.009 48.1295 207.819 49.6495 207.099 50.7295C206.379 51.8295 205.189 52.7195 205.189 52.7195L206.469 54.7595C206.469 54.7595 208.399 53.3495 209.339 51.8595C210.279 50.3695 210.509 48.1295 210.509 48.1295V32.9795H208.019H208.009Z" fill="#231815"/>
<path d="M186.25 33.0293V48.7893C186.25 48.7893 186.41 51.2193 187.93 53.7693C189.46 56.3093 192.22 58.0793 192.22 58.0793L193.52 56.0093C193.52 56.0093 191.75 55.0693 190.34 52.9093C188.9 50.7293 188.82 48.7393 188.82 48.7393V33.0393H186.25V33.0293Z" fill="#231815"/>
<path d="M197.641 34.6895V51.3295C197.641 51.3295 197.581 51.3895 197.561 51.6295C197.531 51.8795 197.371 52.0495 197.371 52.0495L191.811 61.2595H208.841L203.281 51.8595L203.111 51.4395L203.051 50.9995V34.7195H200.981V51.6194C200.981 51.6194 200.981 51.8594 201.061 52.0594C201.111 52.2594 201.231 52.5495 201.231 52.5495L204.651 58.1895H195.971L199.341 52.5795C199.341 52.5795 199.451 52.3895 199.531 52.1095C199.591 51.8595 199.611 51.6194 199.611 51.6194V34.6895H197.621H197.641Z" fill="#231815"/>
<path d="M211.849 32.9797V48.4597C211.849 48.4597 211.829 50.4497 210.359 52.7397C208.899 55.0397 207.209 55.9997 207.209 55.9997L208.459 58.0997C208.459 58.0997 210.999 56.4997 212.609 53.9497C214.189 51.4097 214.379 48.4497 214.379 48.4497V32.9697H211.859L211.849 32.9797Z" fill="#231815"/>
<path d="M193.6 22.6097C193.6 22.6097 192.74 17.9397 196.17 15.6097C196.17 15.6097 197.72 14.1797 200.23 14.1797C202.91 14.1797 204.46 15.5897 204.46 15.5897C208.19 18.3297 207.09 22.6097 207.09 22.6097H193.6Z" fill="#231815"/>
<path d="M90.4648 86.0784H96.1608V86.4944H90.4648V86.0784ZM91.9496 85.624H92.4232V86.8784H91.9496V85.624ZM94.1704 85.624H94.6504V86.8848H94.1704V85.624ZM93.7608 87.5056H95.9112V87.9152H93.7608V87.5056ZM90.3944 90.9232H96.2184V91.3392H90.3944V90.9232ZM91.1048 89.4832H95.54V91.064H95.0728V89.8736H94.1704V91.064H93.7544V89.8736H92.8584V91.064H92.4424V89.8736H91.5528V91.064H91.1048V89.4832ZM93.812 86.9296L94.2664 87.0256C94.1683 87.3968 94.0403 87.7552 93.8824 88.1008C93.7288 88.4421 93.556 88.7301 93.364 88.9648C93.3384 88.9392 93.3021 88.9115 93.2552 88.8816C93.2083 88.8475 93.1592 88.8155 93.108 88.7856C93.0611 88.7515 93.0184 88.7237 92.98 88.7024C93.1677 88.4805 93.332 88.2139 93.4728 87.9024C93.6179 87.5909 93.7309 87.2667 93.812 86.9296ZM94.2728 88.2032L94.6376 88.0112C94.74 88.1179 94.8403 88.2373 94.9384 88.3696C95.0365 88.5019 95.124 88.632 95.2008 88.76C95.2776 88.888 95.3373 89.0053 95.38 89.112L94.9832 89.3296C94.9448 89.2229 94.8872 89.1035 94.8104 88.9712C94.7379 88.8389 94.6547 88.7067 94.5608 88.5744C94.4669 88.4379 94.3709 88.3141 94.2728 88.2032ZM92.1224 87.0576H92.596V89.2656H92.1224V87.0576ZM90.932 87.2816H91.3864V89.1056H90.932V87.2816ZM97.7736 88.8176H101.793V89.2592H97.7736V88.8176ZM99.508 87.384H99.9944V89.0416H99.508V87.384ZM97.748 87.2112H102.113V89.5472H101.626V87.6464H97.748V87.2112ZM97.5048 87.2112H97.9848V90.4944C97.9848 90.6267 98.0061 90.7291 98.0488 90.8016C98.0915 90.8741 98.1725 90.9253 98.292 90.9552C98.4157 90.9808 98.5949 90.9936 98.8296 90.9936C98.8851 90.9936 98.9747 90.9936 99.0984 90.9936C99.2221 90.9936 99.3672 90.9936 99.5336 90.9936C99.7 90.9936 99.8728 90.9936 100.052 90.9936C100.235 90.9936 100.413 90.9936 100.583 90.9936C100.754 90.9936 100.905 90.9936 101.038 90.9936C101.174 90.9936 101.279 90.9936 101.351 90.9936C101.556 90.9936 101.712 90.9701 101.818 90.9232C101.925 90.872 102 90.7781 102.042 90.6416C102.089 90.5008 102.123 90.3003 102.145 90.04C102.209 90.0784 102.286 90.1147 102.375 90.1488C102.469 90.1787 102.55 90.2021 102.618 90.2192C102.584 90.5349 102.529 90.7824 102.452 90.9616C102.379 91.1365 102.258 91.2603 102.087 91.3328C101.921 91.4053 101.678 91.4416 101.358 91.4416C101.315 91.4416 101.23 91.4416 101.102 91.4416C100.978 91.4416 100.826 91.4416 100.647 91.4416C100.472 91.4416 100.289 91.4416 100.097 91.4416C99.9091 91.4416 99.7277 91.4416 99.5528 91.4416C99.3821 91.4416 99.2328 91.4416 99.1048 91.4416C98.9811 91.4416 98.9 91.4416 98.8616 91.4416C98.516 91.4416 98.2451 91.416 98.0488 91.3648C97.8525 91.3136 97.7117 91.2176 97.6264 91.0768C97.5453 90.9403 97.5048 90.744 97.5048 90.488V87.2112ZM98.5736 86.0528H100.583V86.4752H98.3624L98.5736 86.0528ZM98.5928 85.6048L99.124 85.7008C98.9747 85.9568 98.7997 86.2171 98.5992 86.4816C98.3987 86.7461 98.1725 87.0064 97.9208 87.2624C97.6691 87.5141 97.3896 87.7531 97.0824 87.9792C97.0568 87.9408 97.0227 87.9003 96.98 87.8576C96.9373 87.8149 96.8947 87.7723 96.852 87.7296C96.8093 87.6869 96.7667 87.6549 96.724 87.6336C97.0141 87.4331 97.2787 87.2176 97.5176 86.9872C97.7565 86.7525 97.9656 86.5179 98.1448 86.2832C98.3283 86.0443 98.4776 85.8181 98.5928 85.6048ZM100.378 86.0528H100.487L100.577 86.0208L100.91 86.2384C100.824 86.4005 100.728 86.5669 100.622 86.7376C100.515 86.9083 100.404 87.0704 100.289 87.224C100.174 87.3733 100.061 87.5077 99.9496 87.6272C99.9283 87.5931 99.8984 87.5568 99.86 87.5184C99.8259 87.48 99.7896 87.4437 99.7512 87.4096C99.7128 87.3712 99.6765 87.3392 99.6424 87.3136C99.7363 87.2112 99.8301 87.0939 99.924 86.9616C100.018 86.8251 100.105 86.6864 100.186 86.5456C100.267 86.4005 100.331 86.2683 100.378 86.1488V86.0528Z" fill="black"/>
<path d="M195.553 86.2704V87.6656H199.002V86.2704H195.553ZM195.092 85.8672H199.482V88.0688H195.092V85.8672ZM195.905 86.5456L196.225 86.4368C196.323 86.5819 196.41 86.7419 196.487 86.9168C196.568 87.0917 196.622 87.2432 196.647 87.3712L196.314 87.5056C196.289 87.3819 196.238 87.2283 196.161 87.0448C196.084 86.8613 195.999 86.6949 195.905 86.5456ZM194.983 88.5936H199.61V88.9904H194.983V88.5936ZM194.452 89.5664H200.154V89.9952H194.452V89.5664ZM197.05 86.0272H197.53V89.784H197.05V86.0272ZM198.311 86.4304L198.689 86.5712C198.599 86.7419 198.503 86.9189 198.401 87.1024C198.303 87.2859 198.211 87.4416 198.126 87.5696L197.818 87.4416C197.874 87.3477 197.931 87.2432 197.991 87.128C198.055 87.0085 198.115 86.8869 198.17 86.7632C198.226 86.6395 198.273 86.5285 198.311 86.4304ZM196.276 90.424L196.724 90.3856C196.767 90.552 196.799 90.7333 196.82 90.9296C196.846 91.1259 196.858 91.288 196.858 91.416L196.391 91.4736C196.391 91.3413 196.381 91.1771 196.359 90.9808C196.342 90.7803 196.314 90.5947 196.276 90.424ZM197.594 90.4368L198.042 90.3472C198.119 90.5051 198.192 90.68 198.26 90.872C198.333 91.064 198.384 91.2261 198.414 91.3584L197.934 91.4736C197.908 91.3371 197.861 91.1707 197.793 90.9744C197.729 90.7781 197.663 90.5989 197.594 90.4368ZM198.894 90.4112L199.335 90.2512C199.438 90.3579 199.544 90.4773 199.655 90.6096C199.766 90.7419 199.866 90.872 199.956 91C200.05 91.1237 200.127 91.2368 200.186 91.3392L199.719 91.5184C199.668 91.416 199.595 91.3008 199.502 91.1728C199.412 91.0491 199.314 90.9189 199.207 90.7824C199.105 90.6459 199 90.5221 198.894 90.4112ZM195.175 90.2512L195.636 90.3664C195.555 90.5755 195.45 90.7867 195.322 91C195.199 91.2133 195.06 91.3925 194.906 91.5376L194.465 91.3328C194.606 91.2048 194.74 91.0427 194.868 90.8464C194.996 90.6501 195.098 90.4517 195.175 90.2512ZM201.774 88.8176H205.793V89.2592H201.774V88.8176ZM203.508 87.384H203.994V89.0416H203.508V87.384ZM201.748 87.2112H206.113V89.5472H205.626V87.6464H201.748V87.2112ZM201.505 87.2112H201.985V90.4944C201.985 90.6267 202.006 90.7291 202.049 90.8016C202.091 90.8741 202.173 90.9253 202.292 90.9552C202.416 90.9808 202.595 90.9936 202.83 90.9936C202.885 90.9936 202.975 90.9936 203.098 90.9936C203.222 90.9936 203.367 90.9936 203.534 90.9936C203.7 90.9936 203.873 90.9936 204.052 90.9936C204.235 90.9936 204.413 90.9936 204.583 90.9936C204.754 90.9936 204.905 90.9936 205.038 90.9936C205.174 90.9936 205.279 90.9936 205.351 90.9936C205.556 90.9936 205.712 90.9701 205.818 90.9232C205.925 90.872 206 90.7781 206.042 90.6416C206.089 90.5008 206.123 90.3003 206.145 90.04C206.209 90.0784 206.286 90.1147 206.375 90.1488C206.469 90.1787 206.55 90.2021 206.618 90.2192C206.584 90.5349 206.529 90.7824 206.452 90.9616C206.379 91.1365 206.258 91.2603 206.087 91.3328C205.921 91.4053 205.678 91.4416 205.358 91.4416C205.315 91.4416 205.23 91.4416 205.102 91.4416C204.978 91.4416 204.826 91.4416 204.647 91.4416C204.472 91.4416 204.289 91.4416 204.097 91.4416C203.909 91.4416 203.728 91.4416 203.553 91.4416C203.382 91.4416 203.233 91.4416 203.105 91.4416C202.981 91.4416 202.9 91.4416 202.862 91.4416C202.516 91.4416 202.245 91.416 202.049 91.3648C201.853 91.3136 201.712 91.2176 201.626 91.0768C201.545 90.9403 201.505 90.744 201.505 90.488V87.2112ZM202.574 86.0528H204.583V86.4752H202.362L202.574 86.0528ZM202.593 85.6048L203.124 85.7008C202.975 85.9568 202.8 86.2171 202.599 86.4816C202.399 86.7461 202.173 87.0064 201.921 87.2624C201.669 87.5141 201.39 87.7531 201.082 87.9792C201.057 87.9408 201.023 87.9003 200.98 87.8576C200.937 87.8149 200.895 87.7723 200.852 87.7296C200.809 87.6869 200.767 87.6549 200.724 87.6336C201.014 87.4331 201.279 87.2176 201.518 86.9872C201.757 86.7525 201.966 86.5179 202.145 86.2832C202.328 86.0443 202.478 85.8181 202.593 85.6048ZM204.378 86.0528H204.487L204.577 86.0208L204.91 86.2384C204.824 86.4005 204.728 86.5669 204.622 86.7376C204.515 86.9083 204.404 87.0704 204.289 87.224C204.174 87.3733 204.061 87.5077 203.95 87.6272C203.928 87.5931 203.898 87.5568 203.86 87.5184C203.826 87.48 203.79 87.4437 203.751 87.4096C203.713 87.3712 203.677 87.3392 203.642 87.3136C203.736 87.2112 203.83 87.0939 203.924 86.9616C204.018 86.8251 204.105 86.6864 204.186 86.5456C204.267 86.4005 204.331 86.2683 204.378 86.1488V86.0528Z" fill="black"/>
</svg>
