<?xml version="1.0" encoding="UTF-8"?>
<svg id="Layer_1" xmlns="http://www.w3.org/2000/svg" version="1.1" viewBox="0 0 322 163">
  <!-- Generator: Adobe Illustrator 29.5.1, SVG Export Plug-In . SVG Version: 2.1.0 Build 141)  -->
  <defs>
    <style>
      .st0 {
        fill: #aa8420;
      }

      .st1 {
        font-family: Muli-SemiBold, Muli;
        font-size: 8px;
        font-weight: 600;
      }

      .st1, .st2 {
        fill: #a9abb3;
      }

      .st1, .st3 {
        display: none;
      }

      .st4 {
        fill: #fff;
      }

      .st5 {
        fill: #003477;
      }
    </style>
  </defs>
  <path class="st4" d="M306,8H8v139h298V8Z"/>
  <path class="st2" d="M82.75,88.25h-47.62v.59h47.62v-.59Z"/>
  <path class="st2" d="M161.93,88.25h-63.28v.59h63.28v-.59Z"/>
  <path class="st2" d="M26.25,27.69v-6.44h4.42v1.09h-3.12v1.52h2.69v1.09h-2.69v2.74h-1.3Z"/>
  <path class="st2" d="M31.65,21.25h1.3v3.49c0,.55.02.91.05,1.08.05.26.19.48.4.64.21.16.5.24.86.24s.65-.08.84-.23c.19-.15.3-.34.34-.56s.06-.58.06-1.09v-3.56h1.3v3.38c0,.77-.04,1.32-.11,1.64-.07.32-.2.59-.39.81s-.44.4-.76.53c-.32.13-.73.2-1.24.2-.62,0-1.08-.07-1.4-.21-.32-.14-.57-.33-.75-.55-.18-.23-.31-.46-.37-.71-.08-.37-.13-.91-.13-1.63v-3.47Z"/>
  <path class="st2" d="M38.1,27.69v-6.39h1.3v5.3h3.23v1.09h-4.54,0Z"/>
  <path class="st2" d="M43.52,27.69v-6.39h1.3v5.3h3.23v1.09h-4.54,0Z"/>
  <path class="st2" d="M51.16,27.69v-6.44h1.27l2.64,4.3v-4.3h1.21v6.44h-1.31l-2.6-4.2v4.2h-1.21Z"/>
  <path class="st2" d="M63.37,27.69h-1.41l-.56-1.46h-2.58l-.53,1.46h-1.38l2.51-6.44h1.38l2.58,6.44h0ZM60.98,25.14l-.89-2.39-.87,2.39h1.76Z"/>
  <path class="st2" d="M63.95,27.69v-6.44h1.95l1.17,4.39,1.16-4.39h1.95v6.44h-1.21v-5.07l-1.28,5.07h-1.25l-1.27-5.07v5.07h-1.22Z"/>
  <path class="st2" d="M71.38,27.69v-6.44h4.78v1.09h-3.48v1.43h3.23v1.08h-3.23v1.75h3.6v1.09h-4.9Z"/>
  <path class="st2" d="M25.82,36.07l.68-.09c.02.44.1.74.25.9s.35.24.61.24c.19,0,.35-.04.49-.13s.23-.21.29-.36c.06-.15.08-.39.08-.72v-3.95h.76v3.9c0,.48-.06.85-.17,1.11-.11.26-.3.46-.55.6s-.55.21-.88.21c-.5,0-.89-.14-1.15-.43-.26-.29-.39-.72-.38-1.29h-.03Z"/>
  <path class="st2" d="M29.78,35.62c0-.77.21-1.34.64-1.71.36-.31.79-.46,1.3-.46.57,0,1.04.19,1.4.56s.54.89.54,1.55c0,.53-.08.95-.24,1.26-.16.31-.39.54-.7.71-.31.17-.64.25-1,.25-.58,0-1.05-.19-1.41-.56s-.54-.91-.54-1.61h0ZM30.5,35.62c0,.53.12.93.35,1.19.23.26.52.4.88.4s.64-.13.87-.4.35-.67.35-1.21c0-.51-.12-.9-.35-1.17-.23-.26-.52-.4-.87-.4s-.64.13-.88.39c-.23.26-.35.66-.35,1.19h0Z"/>
  <path class="st2" d="M35.06,37.69h-.65v-5.73h.7v2.04c.3-.37.68-.56,1.14-.56.26,0,.5.05.72.15.23.1.42.25.56.43.15.19.26.41.35.67.08.26.12.54.12.84,0,.71-.18,1.26-.53,1.65-.35.39-.77.58-1.27.58s-.87-.2-1.15-.61v.54ZM35.06,35.58c0,.5.07.86.2,1.08.22.36.52.54.9.54.31,0,.57-.13.8-.4.22-.27.34-.67.34-1.19s-.11-.94-.32-1.2c-.21-.26-.47-.39-.78-.39s-.57.13-.8.4c-.22.27-.34.65-.34,1.16h0Z"/>
  <path class="st2" d="M42.34,37.69v-5.05h-1.89v-.68h4.54v.68h-1.89v5.05h-.76Z"/>
  <path class="st2" d="M45.3,32.78v-.81h.7v.81h-.7ZM45.3,37.7v-4.15h.7v4.15h-.7Z"/>
  <path class="st2" d="M48.53,37.06l.1.62c-.2.04-.38.06-.53.06-.25,0-.45-.04-.59-.12-.14-.08-.24-.19-.3-.32-.06-.13-.09-.41-.09-.83v-2.39h-.52v-.55h.52v-1.03l.7-.42v1.45h.71v.55h-.71v2.43c0,.2.01.33.04.39.03.06.07.1.12.14.06.03.14.05.24.05.08,0,.18,0,.31-.03h0Z"/>
  <path class="st2" d="M49.13,37.69v-5.73h.7v5.73h-.7Z"/>
  <path class="st2" d="M53.68,36.36l.73.09c-.11.42-.33.75-.64.99-.31.23-.71.35-1.19.35-.61,0-1.09-.19-1.44-.56-.35-.37-.53-.9-.53-1.57s.18-1.24.54-1.62c.36-.38.83-.58,1.4-.58s1.01.19,1.36.57c.35.38.53.91.53,1.59v.19h-3.09c.03.46.16.8.39,1.05.23.24.52.36.87.36.26,0,.48-.07.66-.2.18-.14.33-.35.43-.65h-.02ZM51.37,35.22h2.32c-.03-.35-.12-.61-.27-.79-.22-.27-.51-.41-.87-.41-.32,0-.59.11-.81.32-.22.22-.34.5-.37.87h0Z"/>
  <path class="st2" d="M25.95,45.85l.71-.06c.03.29.11.52.24.71.13.19.32.33.58.45.26.12.55.17.88.17.29,0,.54-.04.77-.13s.39-.2.49-.35.16-.31.16-.49-.05-.34-.16-.47c-.11-.13-.28-.25-.52-.34-.15-.06-.49-.15-1.02-.28-.53-.13-.89-.25-1.11-.36-.27-.14-.48-.32-.61-.53-.13-.21-.2-.45-.2-.71,0-.29.08-.56.25-.81s.4-.44.72-.57c.32-.13.67-.2,1.05-.2.42,0,.8.07,1.12.21s.57.34.75.6c.18.26.27.57.28.9l-.73.05c-.04-.36-.17-.64-.4-.82s-.56-.28-1-.28-.79.08-1,.25c-.21.17-.31.37-.31.61,0,.21.07.38.22.51s.53.27,1.14.41c.61.14,1.04.26,1.27.37.33.15.58.35.74.58.16.23.24.51.24.81s-.09.59-.26.86-.43.48-.75.63c-.32.15-.7.22-1.1.22-.52,0-.95-.08-1.3-.23-.35-.15-.62-.38-.82-.68-.2-.3-.3-.65-.31-1.03h-.01Z"/>
  <path class="st2" d="M34.09,46.17l.69.09c-.08.48-.27.85-.58,1.12-.31.27-.69.4-1.15.4-.57,0-1.02-.19-1.37-.56-.34-.37-.52-.9-.52-1.6,0-.45.07-.84.22-1.18s.38-.59.68-.76c.3-.17.63-.25.99-.25.45,0,.82.11,1.11.34.29.23.47.55.55.97l-.68.11c-.06-.28-.18-.49-.35-.63-.17-.14-.37-.21-.6-.21-.35,0-.64.13-.86.38s-.33.66-.33,1.21.11.96.32,1.21c.21.25.49.38.84.38.28,0,.51-.08.69-.25.19-.17.3-.43.35-.78h0Z"/>
  <path class="st2" d="M35.3,47.69v-5.73h.7v2.05c.33-.38.74-.57,1.24-.57.31,0,.57.06.8.18.23.12.39.29.49.5.1.21.15.52.15.93v2.63h-.7v-2.63c0-.35-.08-.61-.23-.77-.15-.16-.37-.24-.65-.24-.21,0-.4.05-.59.16s-.31.25-.39.44c-.08.19-.12.44-.12.77v2.27h-.7Z"/>
  <path class="st2" d="M39.41,45.62c0-.77.21-1.34.64-1.71.36-.31.79-.46,1.3-.46.57,0,1.04.19,1.4.56.36.37.54.89.54,1.55,0,.53-.08.95-.24,1.26-.16.31-.39.54-.7.71-.31.17-.64.25-1,.25-.58,0-1.05-.19-1.41-.56s-.54-.91-.54-1.61h.01ZM40.13,45.62c0,.53.12.93.35,1.19.23.26.52.4.88.4s.64-.13.87-.4.35-.67.35-1.21c0-.51-.12-.9-.35-1.17-.23-.26-.52-.4-.87-.4s-.64.13-.88.39c-.23.26-.35.66-.35,1.19h0Z"/>
  <path class="st2" d="M43.78,45.62c0-.77.21-1.34.64-1.71.36-.31.79-.46,1.3-.46.57,0,1.04.19,1.4.56s.54.89.54,1.55c0,.53-.08.95-.24,1.26-.16.31-.39.54-.7.71-.31.17-.64.25-1,.25-.58,0-1.05-.19-1.41-.56-.36-.37-.54-.91-.54-1.61h0ZM44.5,45.62c0,.53.12.93.35,1.19.23.26.52.4.88.4s.64-.13.87-.4.35-.67.35-1.21c0-.51-.12-.9-.35-1.17-.23-.26-.52-.4-.87-.4s-.64.13-.88.39c-.23.26-.35.66-.35,1.19h0Z"/>
  <path class="st2" d="M48.39,47.69v-5.73h.7v5.73h-.7Z"/>
  <path class="st2" d="M49.82,46.46l.7-.11c.04.28.15.49.33.64s.43.22.75.22.56-.07.72-.2.23-.29.23-.46c0-.16-.07-.28-.21-.38-.1-.06-.34-.14-.72-.24-.52-.13-.87-.24-1.07-.34-.2-.1-.35-.23-.45-.39-.1-.17-.15-.35-.15-.56,0-.18.04-.36.13-.51.08-.16.2-.29.35-.39.11-.08.26-.15.45-.21.19-.06.39-.08.61-.08.33,0,.61.05.86.14s.43.22.54.38.2.37.24.64l-.69.09c-.03-.21-.12-.38-.27-.5-.15-.12-.36-.18-.63-.18-.32,0-.55.05-.69.16-.14.11-.21.23-.21.38,0,.09.03.17.09.25.06.08.15.14.27.19.07.03.28.09.62.18.5.13.84.24,1.04.33.2.08.35.21.46.37s.17.36.17.6-.07.46-.21.66c-.14.2-.33.37-.59.48-.26.11-.55.17-.88.17-.54,0-.95-.11-1.23-.34-.28-.22-.46-.56-.54-1h-.02Z"/>
  <path class="st2" d="M53.5,47.79l1.66-5.92h.56l-1.66,5.92h-.57,0Z"/>
  <g class="st3">
    <path class="st2" d="M56.39,47.69v-5.73h.76v5.73h-.76Z"/>
    <path class="st2" d="M58.42,47.69v-5.73h2.16c.38,0,.67.02.87.05.28.05.52.14.71.27.19.13.34.32.46.55.12.24.17.5.17.78,0,.49-.16.9-.46,1.24-.31.34-.87.51-1.68.51h-1.47v2.33h-.76ZM59.18,44.69h1.48c.49,0,.84-.09,1.04-.27.21-.18.31-.44.31-.77,0-.24-.06-.44-.18-.62-.12-.18-.28-.28-.48-.34-.13-.03-.36-.05-.71-.05h-1.46v2.05Z"/>
    <path class="st2" d="M63.45,44.9c0-.95.25-1.69.77-2.23.51-.54,1.17-.81,1.98-.81.53,0,1,.13,1.43.38.42.25.75.6.97,1.06.22.46.33.96.33,1.54s-.12,1.1-.35,1.56c-.23.46-.57.81-1,1.04s-.89.35-1.39.35c-.54,0-1.02-.13-1.45-.39-.42-.26-.75-.62-.96-1.07-.21-.45-.33-.93-.33-1.43h0ZM64.23,44.91c0,.69.19,1.23.56,1.63.37.4.84.6,1.4.6s1.04-.2,1.41-.6c.37-.4.55-.97.55-1.71,0-.47-.08-.87-.24-1.22-.16-.35-.39-.62-.69-.81s-.64-.29-1.02-.29c-.54,0-1,.18-1.38.55-.38.37-.58.98-.58,1.85h0Z"/>
  </g>
  <path class="st2" d="M69.21,47.79l1.66-5.92h.56l-1.66,5.92h-.57,0Z"/>
  <path class="st2" d="M71.35,47.69l2.2-5.73h.82l2.34,5.73h-.86l-.67-1.73h-2.39l-.63,1.73h-.81ZM73,45.34h1.94l-.6-1.59c-.18-.48-.32-.88-.41-1.19-.07.37-.18.73-.31,1.09l-.63,1.68h.01Z"/>
  <path class="st2" d="M79.86,46.17l.69.09c-.08.48-.27.85-.58,1.12-.31.27-.69.4-1.15.4-.57,0-1.02-.19-1.37-.56-.34-.37-.52-.9-.52-1.6,0-.45.07-.84.22-1.18.15-.34.38-.59.68-.76.3-.17.63-.25.99-.25.45,0,.82.11,1.11.34.29.23.47.55.55.97l-.68.11c-.06-.28-.18-.49-.35-.63s-.37-.21-.6-.21c-.35,0-.64.13-.86.38s-.33.66-.33,1.21.11.96.32,1.21.49.38.84.38c.28,0,.51-.08.69-.25.19-.17.3-.43.35-.78h0Z"/>
  <path class="st2" d="M83.78,47.18c-.26.22-.51.38-.75.47-.24.09-.5.14-.78.14-.46,0-.81-.11-1.05-.33-.24-.22-.37-.51-.37-.85,0-.2.05-.39.14-.56.09-.17.21-.3.36-.4.15-.1.32-.18.51-.23.14-.04.35-.07.62-.11.57-.07.99-.15,1.25-.24v-.18c0-.29-.07-.49-.2-.61-.18-.16-.45-.24-.8-.24-.33,0-.57.06-.73.17-.16.12-.27.32-.35.62l-.69-.09c.06-.29.17-.53.31-.71s.35-.32.62-.42c.27-.1.58-.15.94-.15s.64.04.86.12c.22.08.38.19.49.31.1.13.18.29.22.48.02.12.04.34.04.65v.94c0,.65.02,1.07.04,1.24.03.17.09.34.18.5h-.73c-.07-.15-.12-.32-.14-.51h0ZM83.72,45.61c-.25.1-.64.19-1.15.27-.29.04-.49.09-.61.14-.12.05-.21.13-.28.23-.06.1-.1.21-.1.33,0,.19.07.34.21.47.14.12.35.19.62.19s.51-.06.72-.18c.21-.12.37-.28.46-.49.08-.16.11-.39.11-.7v-.26h.02Z"/>
  <path class="st2" d="M88.13,47.69v-.52c-.26.41-.65.62-1.16.62-.33,0-.63-.09-.91-.27s-.49-.44-.64-.76c-.15-.32-.23-.7-.23-1.13s.07-.79.21-1.13c.14-.34.35-.6.62-.78.28-.18.58-.27.93-.27.25,0,.47.05.67.16.2.11.35.24.48.41v-2.05h.7v5.73h-.67ZM85.91,45.62c0,.53.11.93.34,1.19.22.26.49.39.79.39s.57-.13.78-.38c.21-.25.32-.63.32-1.15,0-.57-.11-.98-.33-1.25s-.49-.4-.81-.4-.57.13-.78.38-.31.66-.31,1.21h0Z"/>
  <path class="st2" d="M92.65,46.36l.73.09c-.11.42-.33.75-.64.99-.31.23-.71.35-1.19.35-.61,0-1.09-.19-1.44-.56s-.53-.9-.53-1.57.18-1.24.54-1.62c.36-.38.83-.58,1.4-.58s1.01.19,1.36.57c.35.38.53.91.53,1.59v.19h-3.09c.03.46.16.8.39,1.05.23.24.52.36.87.36.26,0,.48-.07.66-.2.18-.14.33-.35.43-.65h-.02ZM90.34,45.22h2.32c-.03-.35-.12-.61-.27-.79-.22-.27-.51-.41-.87-.41-.32,0-.59.11-.81.32-.22.22-.34.5-.37.87h0Z"/>
  <path class="st2" d="M94.18,47.69v-4.15h.63v.58c.13-.2.3-.37.52-.49.22-.12.46-.19.74-.19.31,0,.56.06.76.19.2.13.34.31.42.54.33-.48.76-.73,1.28-.73.41,0,.73.11.95.34s.33.58.33,1.05v2.85h-.7v-2.61c0-.28-.02-.48-.07-.61-.04-.12-.13-.22-.25-.3-.12-.08-.26-.11-.42-.11-.29,0-.53.1-.73.29-.19.19-.29.5-.29.93v2.41h-.7v-2.7c0-.31-.06-.55-.17-.7-.11-.16-.3-.23-.56-.23-.2,0-.38.05-.55.16-.17.11-.29.26-.37.46-.08.2-.11.49-.11.87v2.15h-.71Z"/>
  <path class="st2" d="M100.77,42.78v-.81h.7v.81h-.7ZM100.77,47.7v-4.15h.7v4.15h-.7Z"/>
  <path class="st2" d="M105.17,46.17l.69.09c-.08.48-.27.85-.58,1.12s-.69.4-1.15.4c-.57,0-1.02-.19-1.37-.56-.35-.37-.52-.9-.52-1.6,0-.45.07-.84.22-1.18s.37-.59.68-.76c.31-.17.63-.25.99-.25.45,0,.82.11,1.11.34.29.23.47.55.55.97l-.68.11c-.07-.28-.18-.49-.35-.63-.17-.14-.37-.21-.6-.21-.35,0-.64.13-.86.38-.22.25-.33.66-.33,1.21s.11.96.32,1.21.49.38.84.38c.28,0,.51-.08.69-.25.18-.17.3-.43.35-.78h0Z"/>
  <path class="st2" d="M108.62,47.69v-5.73h1.97c.45,0,.79.03,1.02.08.33.08.61.21.84.41.3.25.53.58.68.98s.22.85.22,1.36c0,.43-.05.82-.15,1.16-.1.34-.23.61-.39.83-.16.22-.33.39-.52.52-.19.13-.42.22-.68.29s-.57.1-.92.1h-2.07ZM109.38,47.01h1.22c.38,0,.67-.04.89-.11s.39-.17.51-.3c.18-.18.32-.42.42-.72s.15-.67.15-1.1c0-.6-.1-1.06-.29-1.38s-.44-.54-.72-.65c-.2-.08-.53-.12-.98-.12h-1.2v4.38Z"/>
  <path class="st2" d="M117.07,46.36l.73.09c-.12.42-.33.75-.64.99-.31.23-.71.35-1.19.35-.61,0-1.09-.19-1.44-.56s-.53-.9-.53-1.57.18-1.24.54-1.62c.36-.38.83-.58,1.4-.58s1.01.19,1.36.57c.35.38.53.91.53,1.59v.19h-3.09c.03.46.15.8.39,1.05.23.24.52.36.87.36.26,0,.48-.07.66-.2.18-.14.33-.35.43-.65h-.02ZM114.76,45.22h2.32c-.03-.35-.12-.61-.27-.79-.22-.27-.51-.41-.87-.41-.32,0-.59.11-.81.32-.22.22-.34.5-.37.87h0Z"/>
  <path class="st2" d="M118.6,49.28v-5.74h.64v.54c.15-.21.32-.37.51-.47.19-.11.42-.16.69-.16.35,0,.67.09.94.27.27.18.47.44.61.77s.21.7.21,1.09c0,.42-.08.81-.23,1.15s-.37.6-.66.78-.6.27-.92.27c-.23,0-.45-.05-.63-.15-.19-.1-.34-.22-.46-.38v2.02h-.7ZM119.24,45.64c0,.53.11.93.32,1.18.22.25.48.38.79.38s.58-.13.8-.4.33-.67.33-1.23-.11-.92-.33-1.19c-.22-.26-.48-.39-.78-.39s-.56.14-.79.42c-.23.28-.35.69-.35,1.22h0Z"/>
  <path class="st2" d="M125.68,47.18c-.26.22-.51.38-.75.47s-.5.14-.78.14c-.46,0-.81-.11-1.05-.33-.25-.22-.37-.51-.37-.85,0-.2.05-.39.14-.56.09-.17.21-.3.36-.4.15-.1.32-.18.51-.23.14-.04.35-.07.62-.11.57-.07.99-.15,1.25-.24v-.18c0-.29-.07-.49-.2-.61-.18-.16-.45-.24-.8-.24-.33,0-.58.06-.73.17-.16.12-.27.32-.35.62l-.69-.09c.06-.29.17-.53.31-.71s.35-.32.62-.42c.27-.1.58-.15.94-.15s.64.04.86.12c.22.08.38.19.49.31.1.13.18.29.22.48.02.12.04.34.04.65v.94c0,.65.01,1.07.04,1.24.03.17.09.34.18.5h-.73c-.07-.15-.12-.32-.14-.51h.01ZM125.62,45.61c-.26.1-.64.19-1.15.27-.29.04-.49.09-.61.14-.12.05-.21.13-.28.23s-.1.21-.1.33c0,.19.07.34.21.47.14.12.35.19.62.19s.51-.06.72-.18c.21-.12.37-.28.46-.49.08-.16.11-.39.11-.7v-.26h.02Z"/>
  <path class="st2" d="M127.33,47.69v-4.15h.63v.63c.16-.29.31-.49.45-.58s.29-.14.45-.14c.24,0,.48.08.72.23l-.24.65c-.17-.1-.34-.15-.52-.15-.15,0-.29.05-.41.14-.12.09-.21.22-.26.38-.08.25-.12.52-.12.82v2.17h-.7Z"/>
  <path class="st2" d="M131.46,47.06l.1.62c-.2.04-.38.06-.53.06-.26,0-.45-.04-.59-.12-.14-.08-.24-.19-.3-.32-.06-.13-.09-.41-.09-.83v-2.39h-.52v-.55h.52v-1.03l.7-.42v1.45h.71v.55h-.71v2.43c0,.2.01.33.04.39.02.06.06.1.12.14.06.03.14.05.24.05.08,0,.18,0,.31-.03h0Z"/>
  <path class="st2" d="M132.07,47.69v-4.15h.63v.58c.13-.2.3-.37.52-.49.22-.12.46-.19.74-.19.31,0,.56.06.76.19.2.13.34.31.42.54.33-.48.76-.73,1.28-.73.41,0,.73.11.95.34s.33.58.33,1.05v2.85h-.7v-2.61c0-.28-.02-.48-.07-.61-.05-.13-.13-.22-.25-.3-.12-.08-.26-.11-.42-.11-.29,0-.53.1-.73.29-.2.19-.29.5-.29.93v2.41h-.7v-2.7c0-.31-.06-.55-.17-.7-.11-.15-.3-.23-.56-.23-.2,0-.38.05-.55.16s-.29.26-.37.46c-.08.2-.11.49-.11.87v2.15h-.71Z"/>
  <path class="st2" d="M141.5,46.36l.73.09c-.12.42-.33.75-.64.99-.31.24-.71.35-1.19.35-.61,0-1.09-.19-1.44-.56-.35-.37-.53-.9-.53-1.57s.18-1.24.54-1.62c.36-.38.83-.58,1.4-.58s1.01.19,1.36.57c.35.38.53.91.53,1.59v.19h-3.09c.03.46.15.8.39,1.05.24.25.52.36.87.36.26,0,.48-.07.66-.2.18-.13.33-.35.43-.65h-.02ZM139.19,45.22h2.32c-.03-.35-.12-.61-.27-.79-.22-.27-.51-.41-.87-.41-.32,0-.59.11-.81.32s-.34.5-.37.87h0Z"/>
  <path class="st2" d="M143.03,47.69v-4.15h.63v.59c.3-.46.74-.68,1.32-.68.25,0,.48.04.69.13.21.09.37.21.47.35.1.14.18.32.22.52.03.13.04.36.04.68v2.55h-.7v-2.52c0-.29-.03-.5-.08-.64s-.15-.25-.29-.34-.3-.13-.49-.13c-.3,0-.56.09-.78.29-.22.2-.33.55-.33,1.08v2.27h-.7Z"/>
  <path class="st2" d="M148.93,47.06l.1.62c-.2.04-.38.06-.53.06-.26,0-.45-.04-.59-.12-.14-.08-.24-.19-.3-.32-.06-.13-.09-.41-.09-.83v-2.39h-.52v-.55h.52v-1.03l.7-.42v1.45h.71v.55h-.71v2.43c0,.2,0,.33.04.39.03.06.06.1.12.14s.14.05.24.05c.08,0,.18,0,.31-.03h0Z"/>
  <path class="st2" d="M149.27,46.46l.7-.11c.04.28.15.49.33.64.18.15.43.22.75.22s.56-.07.72-.2c.16-.13.23-.29.23-.46,0-.16-.07-.28-.21-.38-.1-.06-.34-.14-.72-.24-.52-.13-.87-.24-1.07-.34-.2-.1-.35-.23-.45-.39-.1-.17-.15-.35-.15-.56,0-.18.04-.36.13-.51.08-.16.2-.29.35-.39.11-.08.26-.15.45-.21.19-.06.39-.08.61-.08.33,0,.61.05.86.14s.43.22.54.38.2.37.24.64l-.69.09c-.03-.21-.12-.38-.27-.5-.15-.12-.36-.18-.63-.18-.32,0-.55.05-.69.16-.14.11-.21.23-.21.38,0,.09.03.17.09.25.06.08.15.14.27.19.07.03.28.09.62.18.5.13.84.24,1.04.33.2.08.35.21.46.37.11.16.17.36.17.6s-.07.46-.21.66c-.14.2-.33.37-.59.48-.26.11-.55.17-.88.17-.54,0-.95-.11-1.23-.34-.28-.22-.46-.56-.54-1h-.02Z"/>
  <path class="st2" d="M152.94,47.79l1.66-5.92h.56l-1.66,5.92h-.57.01Z"/>
  <path class="st2" d="M155.84,47.69v-5.73h.76v5.73h-.76Z"/>
  <path class="st2" d="M157.77,47.69v-4.15h.63v.59c.3-.46.75-.68,1.32-.68.25,0,.48.04.69.13.21.09.37.21.47.35.1.14.18.32.22.52.03.13.04.36.04.68v2.55h-.7v-2.52c0-.29-.03-.5-.08-.64s-.15-.25-.29-.34c-.14-.09-.3-.13-.49-.13-.3,0-.56.09-.78.29-.22.2-.33.55-.33,1.08v2.27h-.7Z"/>
  <path class="st2" d="M161.86,46.46l.7-.11c.04.28.15.49.33.64.18.15.43.22.75.22s.56-.07.72-.2c.16-.13.23-.29.23-.46,0-.16-.07-.28-.21-.38-.1-.06-.34-.14-.72-.24-.52-.13-.87-.24-1.07-.34-.2-.1-.35-.23-.45-.39-.1-.16-.15-.35-.15-.56,0-.18.04-.36.13-.51.09-.15.2-.29.35-.39.11-.08.26-.15.45-.21.19-.06.39-.08.61-.08.33,0,.61.05.86.14s.43.22.54.38.2.37.24.64l-.69.09c-.03-.21-.12-.38-.27-.5-.15-.12-.36-.18-.63-.18-.32,0-.55.05-.69.16-.14.11-.21.23-.21.38,0,.09.03.17.09.25.06.08.15.14.27.19.07.03.28.09.62.18.5.13.84.24,1.04.33.2.09.35.21.46.37s.17.36.17.6-.07.46-.21.66c-.14.2-.33.37-.59.48-.26.11-.55.17-.88.17-.54,0-.95-.11-1.23-.34s-.46-.56-.54-1h-.02Z"/>
  <path class="st2" d="M167.59,47.06l.1.62c-.2.04-.38.06-.53.06-.25,0-.45-.04-.59-.12-.14-.08-.24-.19-.3-.32-.06-.13-.09-.41-.09-.83v-2.39h-.52v-.55h.52v-1.03l.7-.42v1.45h.71v.55h-.71v2.43c0,.2,0,.33.04.39.03.06.07.1.12.14.05.04.14.05.24.05.08,0,.18,0,.31-.03h0Z"/>
  <path class="st2" d="M168.21,42.78v-.81h.7v.81h-.7ZM168.21,47.7v-4.15h.7v4.15h-.7Z"/>
  <path class="st2" d="M171.44,47.06l.1.62c-.2.04-.38.06-.53.06-.26,0-.45-.04-.59-.12-.14-.08-.24-.19-.3-.32-.06-.13-.09-.41-.09-.83v-2.39h-.52v-.55h.52v-1.03l.7-.42v1.45h.71v.55h-.71v2.43c0,.2.01.33.04.39.02.06.06.1.12.14.06.03.14.05.24.05.08,0,.18,0,.31-.03h0Z"/>
  <path class="st2" d="M174.78,47.69v-.61c-.32.47-.76.7-1.32.7-.24,0-.47-.05-.69-.14s-.37-.21-.47-.35c-.1-.14-.18-.32-.22-.52-.03-.14-.04-.36-.04-.66v-2.57h.7v2.3c0,.37,0,.61.04.74.04.18.14.33.28.44s.32.16.53.16.41-.05.59-.16c.18-.11.32-.25.39-.44.07-.19.12-.46.12-.81v-2.22h.7v4.15h-.63.02Z"/>
  <path class="st2" d="M177.96,47.06l.1.62c-.2.04-.38.06-.53.06-.26,0-.45-.04-.59-.12-.14-.08-.24-.19-.3-.32-.06-.13-.09-.41-.09-.83v-2.39h-.52v-.55h.52v-1.03l.7-.42v1.45h.71v.55h-.71v2.43c0,.2.01.33.04.39.03.06.06.1.12.14s.14.05.24.05c.08,0,.18,0,.31-.03h0Z"/>
  <path class="st2" d="M181.42,46.36l.73.09c-.12.42-.33.75-.64.99-.31.24-.71.35-1.19.35-.61,0-1.09-.19-1.44-.56-.35-.37-.53-.9-.53-1.57s.18-1.24.54-1.62c.36-.38.83-.58,1.4-.58s1.01.19,1.36.57c.35.38.53.91.53,1.59v.19h-3.09c.03.46.15.8.39,1.05.24.25.52.36.87.36.26,0,.48-.07.66-.2.18-.13.33-.35.43-.65h-.02ZM179.11,45.22h2.32c-.03-.35-.12-.61-.27-.79-.22-.27-.51-.41-.87-.41-.32,0-.59.11-.81.32s-.34.5-.37.87h0Z"/>
  <path class="st2" d="M182.66,46.46l.7-.11c.04.28.15.49.33.64.18.15.43.22.75.22s.56-.07.72-.2.23-.29.23-.46c0-.16-.07-.28-.21-.38-.1-.06-.34-.14-.72-.24-.52-.13-.87-.24-1.07-.34-.2-.1-.35-.23-.45-.39-.1-.16-.15-.35-.15-.56,0-.18.04-.36.13-.51.09-.15.2-.29.35-.39.11-.08.26-.15.45-.21.19-.06.39-.08.61-.08.33,0,.61.05.86.14s.43.22.54.38.2.37.24.64l-.69.09c-.03-.21-.12-.38-.27-.5-.15-.12-.36-.18-.63-.18-.32,0-.55.05-.69.16-.14.11-.21.23-.21.38,0,.09.03.17.09.25.06.08.15.14.27.19.07.03.28.09.62.18.5.13.84.24,1.04.33s.35.21.46.37.17.36.17.6-.07.46-.21.66c-.14.2-.33.37-.59.48s-.55.17-.88.17c-.54,0-.95-.11-1.23-.34s-.46-.56-.54-1h-.02Z"/>
  <path class="st2" d="M186.34,47.79l1.66-5.92h.56l-1.66,5.92h-.57,0Z"/>
  <path class="st2" d="M188.48,47.69l2.2-5.73h.82l2.34,5.73h-.86l-.67-1.73h-2.39l-.63,1.73h-.81ZM190.13,45.34h1.94l-.6-1.59c-.18-.48-.32-.88-.41-1.19-.07.37-.18.73-.31,1.09l-.63,1.68h0Z"/>
  <path class="st2" d="M196.99,46.17l.69.09c-.08.48-.27.85-.58,1.12s-.69.4-1.15.4c-.57,0-1.02-.19-1.37-.56-.35-.37-.52-.9-.52-1.6,0-.45.07-.84.22-1.18.15-.34.37-.59.68-.76.31-.17.63-.25.99-.25.45,0,.82.11,1.11.34.29.23.47.55.55.97l-.68.11c-.07-.28-.18-.49-.35-.63s-.37-.21-.6-.21c-.35,0-.64.13-.86.38s-.33.66-.33,1.21.11.96.32,1.21c.21.25.49.38.84.38.28,0,.51-.08.69-.25.18-.17.3-.43.35-.78h0Z"/>
  <path class="st2" d="M200.91,47.18c-.26.22-.51.38-.75.47-.24.09-.5.14-.78.14-.46,0-.81-.11-1.05-.33-.24-.22-.37-.51-.37-.85,0-.2.05-.39.14-.56.09-.17.21-.3.36-.4.15-.1.32-.18.51-.23.14-.04.35-.07.62-.11.57-.07.99-.15,1.25-.24v-.18c0-.29-.07-.49-.2-.61-.18-.16-.45-.24-.8-.24-.33,0-.58.06-.73.17-.15.11-.27.32-.35.62l-.69-.09c.06-.29.17-.53.31-.71s.35-.32.62-.42c.27-.1.58-.15.94-.15s.64.04.86.12c.22.08.38.19.49.31s.18.29.22.48c.02.12.04.34.04.65v.94c0,.65.01,1.07.04,1.24.03.17.09.34.18.5h-.73c-.07-.15-.12-.32-.14-.51h0ZM200.85,45.61c-.25.1-.64.19-1.15.27-.29.04-.49.09-.61.14-.12.05-.21.13-.28.23-.07.1-.1.21-.1.33,0,.19.07.34.21.47s.35.19.62.19.51-.06.72-.18c.21-.12.37-.28.46-.49.08-.16.11-.39.11-.7v-.26h.02Z"/>
  <path class="st2" d="M205.26,47.69v-.52c-.26.41-.65.62-1.16.62-.33,0-.63-.09-.91-.27s-.49-.44-.64-.76c-.15-.32-.23-.7-.23-1.13s.07-.79.21-1.13c.14-.34.34-.6.62-.78s.58-.27.93-.27c.25,0,.47.05.67.16.2.11.35.24.48.41v-2.05h.7v5.73h-.67ZM203.04,45.62c0,.53.11.93.34,1.19.23.26.49.39.79.39s.57-.13.78-.38c.21-.25.32-.63.32-1.15,0-.57-.11-.98-.33-1.25s-.49-.4-.81-.4-.57.13-.78.38c-.21.25-.31.66-.31,1.21h0Z"/>
  <path class="st2" d="M209.78,46.36l.73.09c-.11.42-.33.75-.64.99-.31.24-.71.35-1.19.35-.61,0-1.09-.19-1.44-.56-.35-.37-.53-.9-.53-1.57s.18-1.24.54-1.62c.36-.38.83-.58,1.4-.58s1.01.19,1.36.57c.35.38.53.91.53,1.59v.19h-3.09c.03.46.16.8.39,1.05.23.25.52.36.87.36.26,0,.48-.07.66-.2.18-.13.33-.35.43-.65h-.02ZM207.47,45.22h2.32c-.03-.35-.12-.61-.27-.79-.22-.27-.51-.41-.87-.41-.32,0-.59.11-.81.32s-.34.5-.37.87h0Z"/>
  <path class="st2" d="M211.31,47.69v-4.15h.63v.58c.13-.2.3-.37.52-.49.22-.12.46-.19.74-.19.31,0,.56.06.76.19.2.13.33.31.42.54.33-.48.75-.73,1.28-.73.41,0,.73.11.95.34.22.23.33.58.33,1.05v2.85h-.7v-2.61c0-.28-.02-.48-.07-.61-.05-.13-.13-.22-.25-.3-.12-.08-.26-.11-.42-.11-.29,0-.53.1-.73.29-.2.19-.29.5-.29.93v2.41h-.7v-2.7c0-.31-.06-.55-.17-.7-.11-.15-.3-.23-.56-.23-.2,0-.38.05-.55.16-.17.11-.29.26-.37.46-.08.2-.11.49-.11.87v2.15h-.71Z"/>
  <path class="st2" d="M217.9,42.78v-.81h.7v.81h-.7ZM217.9,47.7v-4.15h.7v4.15h-.7Z"/>
  <path class="st2" d="M222.3,46.17l.69.09c-.08.48-.27.85-.58,1.12s-.69.4-1.15.4c-.57,0-1.02-.19-1.37-.56-.35-.37-.52-.9-.52-1.6,0-.45.07-.84.22-1.18.15-.34.37-.59.68-.76.3-.17.63-.25.99-.25.45,0,.82.11,1.11.34.29.23.47.55.55.97l-.68.11c-.07-.28-.18-.49-.35-.63-.17-.14-.37-.21-.6-.21-.35,0-.64.13-.86.38s-.33.66-.33,1.21.11.96.32,1.21c.21.25.49.38.84.38.28,0,.51-.08.69-.25.18-.17.3-.43.35-.78h0Z"/>
  <path class="st2" d="M225.75,47.69v-5.73h2.16c.38,0,.67.02.87.05.28.05.52.14.71.27.19.13.34.32.46.55.12.24.17.5.17.78,0,.49-.16.9-.46,1.24-.31.34-.87.51-1.68.51h-1.47v2.33h-.76ZM226.51,44.69h1.48c.49,0,.84-.09,1.04-.27.21-.18.31-.44.31-.77,0-.24-.06-.44-.18-.62-.12-.18-.28-.28-.48-.34-.13-.03-.36-.05-.71-.05h-1.46v2.05h0Z"/>
  <path class="st2" d="M230.92,47.69v-4.15h.63v.63c.16-.29.31-.49.45-.58s.29-.14.45-.14c.24,0,.48.08.72.23l-.24.65c-.17-.1-.34-.15-.52-.15-.15,0-.29.05-.41.14-.12.09-.21.22-.26.38-.08.25-.12.52-.12.82v2.17h-.7Z"/>
  <path class="st2" d="M233.25,45.62c0-.77.21-1.34.64-1.71.36-.31.79-.46,1.3-.46.57,0,1.04.19,1.4.56s.54.89.54,1.55c0,.53-.08.95-.24,1.26-.16.31-.39.54-.7.71-.31.17-.64.25-1,.25-.58,0-1.05-.19-1.41-.56s-.54-.91-.54-1.61h0ZM233.97,45.62c0,.53.12.93.35,1.19.23.26.52.4.88.4s.64-.13.87-.4c.23-.27.35-.67.35-1.21,0-.51-.12-.9-.35-1.17-.23-.27-.52-.4-.87-.4s-.64.13-.88.39c-.24.26-.35.66-.35,1.19h0Z"/>
  <path class="st2" d="M237.75,48.04l.68.1c.03.21.11.36.24.46.17.13.41.2.71.2.33,0,.58-.07.75-.2.17-.13.3-.31.36-.55.04-.14.05-.44.05-.9-.31.36-.69.54-1.15.54-.57,0-1.01-.21-1.32-.62-.31-.41-.47-.91-.47-1.48,0-.4.07-.76.21-1.1s.35-.59.62-.78c.27-.19.59-.27.96-.27.49,0,.89.2,1.21.59v-.5h.65v3.59c0,.65-.07,1.1-.2,1.37-.13.27-.34.48-.62.64-.28.16-.64.23-1.05.23-.49,0-.89-.11-1.2-.33-.31-.22-.45-.56-.44-1.01v.02ZM238.33,45.55c0,.54.11.94.32,1.19.21.25.49.38.81.38s.59-.12.81-.37.33-.64.33-1.17-.11-.89-.34-1.15c-.23-.26-.5-.39-.81-.39s-.58.13-.8.38-.33.63-.33,1.13h0Z"/>
  <path class="st2" d="M242.24,47.69v-4.15h.63v.63c.16-.29.31-.49.45-.58s.29-.14.45-.14c.24,0,.48.08.72.23l-.24.65c-.17-.1-.34-.15-.52-.15-.15,0-.29.05-.41.14-.12.09-.21.22-.26.38-.08.25-.12.52-.12.82v2.17h-.7Z"/>
  <path class="st2" d="M247.54,47.18c-.26.22-.51.38-.75.47-.24.09-.5.14-.78.14-.46,0-.81-.11-1.05-.33-.24-.22-.37-.51-.37-.85,0-.2.05-.39.14-.56.09-.17.21-.3.36-.4.15-.1.32-.18.51-.23.14-.04.35-.07.62-.11.57-.07.99-.15,1.25-.24v-.18c0-.29-.07-.49-.2-.61-.18-.16-.45-.24-.8-.24-.33,0-.57.06-.73.17-.16.12-.27.32-.35.62l-.69-.09c.06-.29.17-.53.31-.71s.35-.32.62-.42c.27-.1.58-.15.94-.15s.64.04.86.12c.22.08.38.19.49.31.1.13.18.29.22.48.02.12.04.34.04.65v.94c0,.65.02,1.07.04,1.24.03.17.09.34.18.5h-.73c-.07-.15-.12-.32-.14-.51h0ZM247.48,45.61c-.25.1-.64.19-1.15.27-.29.04-.49.09-.61.14s-.21.13-.28.23c-.06.1-.1.21-.1.33,0,.19.07.34.21.47.14.12.35.19.62.19s.51-.06.72-.18c.21-.12.37-.28.46-.49.08-.16.11-.39.11-.7v-.26h.02Z"/>
  <path class="st2" d="M249.2,47.69v-4.15h.63v.58c.13-.2.3-.37.52-.49.22-.12.46-.19.74-.19.31,0,.56.06.76.19.2.13.34.31.42.54.33-.48.76-.73,1.28-.73.41,0,.73.11.95.34.22.23.33.58.33,1.05v2.85h-.7v-2.61c0-.28-.02-.48-.07-.61-.04-.12-.13-.22-.25-.3-.12-.08-.26-.11-.42-.11-.29,0-.53.1-.73.29-.19.19-.29.5-.29.93v2.41h-.7v-2.7c0-.31-.06-.55-.17-.7-.11-.16-.3-.23-.56-.23-.2,0-.38.05-.55.16-.17.11-.29.26-.37.46-.08.2-.11.49-.11.87v2.15h-.71Z"/>
  <path class="st2" d="M255.5,46.46l.7-.11c.04.28.15.49.33.64s.43.22.75.22.56-.07.72-.2.23-.29.23-.46c0-.16-.07-.28-.21-.38-.1-.06-.34-.14-.72-.24-.52-.13-.87-.24-1.07-.34-.2-.1-.35-.23-.45-.39-.1-.17-.15-.35-.15-.56,0-.18.04-.36.13-.51.08-.16.2-.29.35-.39.11-.08.26-.15.45-.21.19-.06.39-.08.61-.08.33,0,.61.05.86.14s.43.22.54.38c.11.16.2.37.24.64l-.69.09c-.03-.21-.12-.38-.27-.5-.15-.12-.36-.18-.63-.18-.32,0-.55.05-.69.16-.14.11-.21.23-.21.38,0,.09.03.17.09.25.06.08.15.14.27.19.07.03.28.09.62.18.5.13.84.24,1.04.33.2.08.35.21.46.37.11.16.17.36.17.6s-.07.46-.21.66c-.14.2-.33.37-.59.48-.26.11-.55.17-.88.17-.54,0-.95-.11-1.23-.34-.28-.22-.46-.56-.54-1h-.02Z"/>
  <path class="st2" d="M259.18,47.79l1.66-5.92h.56l-1.66,5.92h-.57,0Z"/>
  <path class="st2" d="M261.91,47.69v-5.73h.76v5.05h2.82v.68h-3.58Z"/>
  <path class="st2" d="M268.93,47.18c-.26.22-.51.38-.75.47-.24.09-.5.14-.78.14-.46,0-.81-.11-1.05-.33-.24-.22-.37-.51-.37-.85,0-.2.05-.39.14-.56.09-.17.21-.3.36-.4.15-.1.32-.18.51-.23.14-.04.35-.07.62-.11.57-.07.99-.15,1.25-.24v-.18c0-.29-.07-.49-.2-.61-.18-.16-.45-.24-.8-.24-.33,0-.58.06-.73.17s-.27.32-.35.62l-.69-.09c.06-.29.17-.53.31-.71.14-.18.35-.32.62-.42.27-.1.58-.15.94-.15s.64.04.86.12c.22.08.38.19.49.31.11.12.18.29.22.48.02.12.04.34.04.65v.94c0,.65,0,1.07.04,1.24.03.17.09.34.18.5h-.73c-.07-.15-.12-.32-.14-.51h0ZM268.87,45.61c-.25.1-.64.19-1.15.27-.29.04-.49.09-.61.14s-.21.13-.28.23-.1.21-.1.33c0,.19.07.34.21.47.14.13.35.19.62.19s.51-.06.72-.18c.21-.12.37-.28.46-.49.08-.16.11-.39.11-.7v-.26h.02Z"/>
  <path class="st2" d="M271.24,47.69h-.65v-5.73h.7v2.04c.3-.37.68-.56,1.14-.56.25,0,.5.05.72.15s.42.25.56.43c.14.18.26.41.35.67.09.26.12.54.12.84,0,.71-.18,1.26-.53,1.65s-.77.58-1.27.58-.87-.2-1.15-.61v.54ZM271.24,45.58c0,.5.07.86.2,1.08.22.36.52.54.9.54.31,0,.57-.13.8-.4.23-.27.34-.67.34-1.19s-.11-.94-.32-1.2-.47-.39-.78-.39-.57.13-.8.4c-.23.27-.34.65-.34,1.16Z"/>
  <path class="st2" d="M274.68,46.46l.7-.11c.04.28.15.49.33.64.18.15.43.22.75.22s.56-.07.72-.2.23-.29.23-.46c0-.16-.07-.28-.21-.38-.1-.06-.34-.14-.72-.24-.52-.13-.87-.24-1.07-.34-.2-.1-.35-.23-.45-.39s-.15-.35-.15-.56c0-.18.04-.36.13-.51.09-.15.2-.29.35-.39.11-.08.26-.15.45-.21.19-.06.39-.08.61-.08.33,0,.61.05.86.14s.43.22.54.38.2.37.24.64l-.69.09c-.03-.21-.12-.38-.27-.5-.15-.12-.36-.18-.63-.18-.32,0-.55.05-.69.16-.14.11-.21.23-.21.38,0,.09.03.17.09.25.06.08.15.14.27.19.07.03.28.09.62.18.5.13.84.24,1.04.33.2.09.35.21.46.37.11.16.17.36.17.6s-.07.46-.21.66c-.14.2-.33.37-.59.48-.26.11-.55.17-.88.17-.54,0-.95-.11-1.23-.34s-.46-.56-.54-1h-.02Z"/>
  <path class="st2" d="M278.36,47.79l1.66-5.92h.56l-1.66,5.92h-.57,0Z"/>
  <path class="st2" d="M30.29,55.69l.76.19c-.16.62-.44,1.1-.86,1.42-.41.33-.92.49-1.51.49s-1.12-.13-1.51-.38c-.39-.25-.68-.62-.88-1.09-.2-.48-.3-.99-.3-1.54,0-.6.11-1.12.34-1.56.23-.44.55-.78.97-1.01s.88-.35,1.39-.35c.57,0,1.05.15,1.45.44.39.29.66.7.82,1.23l-.75.18c-.13-.42-.33-.72-.58-.91s-.57-.29-.95-.29c-.44,0-.81.11-1.1.32-.3.21-.5.49-.62.85-.12.36-.18.72-.18,1.1,0,.49.07.91.21,1.28.14.36.36.63.66.81s.62.27.97.27c.42,0,.78-.12,1.08-.37.29-.24.49-.61.6-1.09h-.01ZM34.65,56.36l.73.09c-.11.42-.33.75-.64.99-.31.23-.71.35-1.19.35-.61,0-1.09-.19-1.44-.56-.36-.37-.53-.9-.53-1.57s.18-1.24.54-1.62c.36-.39.83-.58,1.4-.58s1.01.19,1.36.57c.35.38.53.91.53,1.59v.19h-3.09c.03.46.15.8.39,1.05.23.24.52.36.87.36.26,0,.48-.07.66-.2.18-.14.33-.35.43-.65h-.02ZM32.34,55.22h2.32c-.03-.35-.12-.61-.27-.79-.22-.27-.51-.41-.87-.41-.32,0-.59.11-.81.32-.22.22-.34.51-.37.87h0ZM36.18,57.69v-4.15h.63v.59c.3-.46.74-.68,1.32-.68.25,0,.48.04.69.13.21.09.37.21.47.35.1.15.18.32.22.52.03.13.04.36.04.68v2.55h-.7v-2.52c0-.29-.03-.5-.08-.64-.05-.14-.15-.26-.29-.34-.14-.08-.3-.13-.49-.13-.3,0-.56.1-.78.29-.22.19-.33.55-.33,1.08v2.27h-.7ZM41.77,57.09c.08,0,.18,0,.31-.03l.1.62c-.2.04-.38.06-.53.06-.26,0-.45-.04-.59-.12-.14-.08-.24-.19-.3-.32s-.09-.41-.09-.83v-2.39h-.52v-.55h.52v-1.03l.7-.42v1.45h.71v.55h-.71v2.43c0,.2,0,.33.04.39.02.06.07.1.12.14.06.03.14.05.24.05h0ZM45.53,56.36l.73.09c-.11.42-.33.75-.64.99-.31.23-.71.35-1.19.35-.61,0-1.09-.19-1.44-.56-.36-.37-.53-.9-.53-1.57s.18-1.24.54-1.62c.36-.39.83-.58,1.4-.58s1.01.19,1.36.57c.35.38.53.91.53,1.59v.19h-3.09c.03.46.15.8.39,1.05.23.24.52.36.87.36.26,0,.48-.07.66-.2.18-.14.33-.35.43-.65h-.02ZM43.22,55.22h2.32c-.03-.35-.12-.61-.27-.79-.22-.27-.51-.41-.87-.41-.32,0-.59.11-.81.32-.22.22-.34.51-.37.87h0ZM47.05,57.69v-4.15h.63v.63c.16-.29.31-.49.45-.58s.29-.14.45-.14c.24,0,.48.08.72.23l-.24.65c-.17-.1-.34-.15-.52-.15-.15,0-.29.05-.41.14s-.21.22-.26.38c-.08.25-.12.52-.12.82v2.17h-.7ZM49.36,56.45l.7-.11c.04.28.15.49.33.64s.43.22.75.22.56-.07.72-.2.23-.29.23-.46c0-.16-.07-.28-.21-.38-.1-.06-.34-.14-.72-.24-.52-.13-.87-.24-1.07-.34-.2-.1-.35-.23-.45-.39-.1-.17-.15-.35-.15-.56,0-.18.04-.36.13-.51.08-.16.2-.29.35-.39.11-.08.26-.15.45-.21.19-.06.39-.08.61-.08.33,0,.61.05.86.14s.43.22.54.38c.11.16.2.37.24.64l-.69.09c-.03-.21-.12-.38-.27-.5-.15-.12-.36-.18-.63-.18-.32,0-.55.05-.69.16-.14.11-.21.23-.21.38,0,.09.03.17.09.25.06.08.15.14.27.19.07.03.28.09.62.18.5.13.84.24,1.04.33.2.08.35.21.46.37.11.16.17.36.17.6s-.07.46-.21.66c-.14.2-.33.37-.59.48-.26.11-.55.17-.88.17-.54,0-.95-.11-1.23-.34-.28-.22-.46-.56-.54-1h-.02ZM53.03,57.79l1.66-5.92h.56l-1.66,5.92h-.57.01ZM55.56,54.9c0-.95.26-1.69.77-2.23s1.17-.81,1.98-.81c.53,0,1.01.13,1.43.38s.75.6.97,1.06c.22.45.33.96.33,1.54s-.12,1.1-.35,1.56c-.23.46-.57.81-1,1.04-.43.24-.89.35-1.39.35-.54,0-1.02-.13-1.45-.39-.42-.26-.75-.62-.96-1.07-.22-.45-.33-.93-.33-1.43h0ZM56.34,54.91c0,.69.19,1.23.56,1.63.37.4.84.6,1.4.6s1.04-.2,1.41-.6c.37-.4.55-.97.55-1.71,0-.47-.08-.87-.24-1.22-.16-.35-.39-.62-.69-.81s-.64-.29-1.02-.29c-.54,0-1,.18-1.38.55-.39.37-.58.98-.58,1.85h-.01ZM62.01,57.69v-3.6h-.62v-.55h.62v-.44c0-.28.02-.49.07-.62.07-.18.19-.33.36-.44.17-.11.41-.17.72-.17.2,0,.42.02.66.07l-.11.61c-.15-.03-.28-.04-.41-.04-.21,0-.36.05-.45.14s-.13.26-.13.51v.38h.81v.55h-.81v3.6h-.71ZM64.17,57.69v-3.61h-.62v-.54h.62v-.4c0-.41.09-.73.27-.95.18-.22.46-.33.84-.33.26,0,.5.03.71.09l-.11.59c-.14-.02-.26-.04-.38-.04-.24,0-.41.05-.5.14-.09.1-.13.3-.13.61v.27h.8v.54h-.8v3.61h-.7v.02ZM66.21,52.77v-.81h.7v.81h-.7ZM66.21,57.69v-4.15h.7v4.15h-.7ZM70.61,56.17l.69.09c-.08.48-.27.85-.58,1.12s-.69.4-1.15.4c-.57,0-1.02-.19-1.37-.56-.35-.37-.52-.9-.52-1.6,0-.45.07-.84.22-1.18s.37-.59.68-.76c.3-.17.63-.25.99-.25.45,0,.82.11,1.11.34.29.23.47.55.55.97l-.68.11c-.07-.28-.18-.49-.35-.63-.17-.14-.37-.21-.6-.21-.35,0-.64.13-.86.38-.22.25-.33.66-.33,1.21s.11.96.32,1.21.49.38.84.38c.28,0,.51-.08.69-.25.18-.17.3-.43.35-.78h0ZM74.66,56.35l.73.09c-.11.42-.33.75-.64.99-.31.23-.71.35-1.19.35-.61,0-1.09-.19-1.44-.56-.36-.37-.53-.9-.53-1.57s.18-1.24.54-1.62c.36-.39.83-.58,1.4-.58s1.01.19,1.36.57c.35.38.53.91.53,1.59v.19h-3.09c.03.46.15.8.39,1.05.23.24.52.36.87.36.26,0,.48-.07.66-.2.18-.14.33-.35.43-.65h-.02ZM72.35,55.21h2.32c-.03-.35-.12-.61-.27-.79-.22-.27-.51-.41-.87-.41-.32,0-.59.11-.81.32-.22.22-.34.51-.37.87h0ZM75.91,56.44l.7-.11c.04.28.15.49.33.64.18.15.43.22.75.22s.56-.07.72-.2c.16-.13.23-.29.23-.46,0-.16-.07-.28-.21-.38-.1-.06-.34-.14-.72-.24-.52-.13-.87-.24-1.07-.34-.2-.1-.35-.23-.45-.39-.1-.17-.15-.35-.15-.56,0-.18.04-.36.13-.51.08-.16.2-.29.35-.39.11-.08.26-.15.45-.21.19-.06.39-.08.61-.08.33,0,.61.05.86.14s.43.22.54.38.2.37.24.64l-.69.09c-.03-.21-.12-.38-.27-.5-.15-.12-.36-.18-.63-.18-.32,0-.55.05-.69.16s-.21.23-.21.38c0,.09.03.17.09.25.06.08.15.14.27.19.07.03.28.09.62.18.5.13.84.24,1.04.33.2.08.35.21.46.37s.17.36.17.6-.07.46-.21.66c-.14.2-.33.37-.59.48s-.55.17-.88.17c-.54,0-.95-.11-1.23-.34-.28-.22-.46-.56-.54-1h-.02Z"/>
  <path class="st2" d="M27.66,77.69v-5.05h-1.89v-.68h4.54v.68h-1.89v5.05h-.76Z"/>
  <path class="st2" d="M30.24,74.35v-.8h.8v.8h-.8ZM30.24,77.7v-.8h.8v.8h-.8Z"/>
  <path class="st2" d="M35.82,76.77v-1.57h-1.56v-.66h1.56v-1.56h.66v1.56h1.56v.66h-1.56v1.57h-.66Z"/>
  <path class="st2" d="M39.83,74.59c-.29-.11-.51-.26-.65-.46-.14-.2-.21-.43-.21-.71,0-.42.15-.77.45-1.05.3-.28.7-.43,1.2-.43s.9.15,1.21.44c.31.29.46.64.46,1.06,0,.27-.07.5-.21.69-.14.19-.35.35-.63.46.35.11.62.3.8.55s.28.56.28.91c0,.49-.17.9-.52,1.23-.35.33-.8.5-1.37.5s-1.02-.17-1.37-.5c-.35-.33-.52-.75-.52-1.25,0-.37.09-.68.28-.94.19-.26.46-.42.81-.51h0ZM39.46,76.04c0,.2.05.39.14.58s.24.33.42.44.39.15.61.15c.34,0,.61-.11.83-.32.22-.21.33-.49.33-.82s-.11-.62-.34-.84-.51-.33-.85-.33-.61.11-.82.33c-.21.22-.33.49-.33.82h0ZM39.69,73.4c0,.27.09.49.26.66.17.17.4.26.68.26s.49-.08.67-.26.26-.38.26-.63-.09-.47-.27-.65c-.18-.18-.4-.26-.67-.26s-.49.09-.67.26c-.18.17-.27.38-.27.62h0Z"/>
  <path class="st2" d="M43.12,76.19l.74-.06c.05.36.18.63.38.81.2.18.44.27.72.27.34,0,.62-.13.86-.38.24-.25.35-.59.35-1.02s-.11-.72-.34-.95c-.23-.23-.52-.35-.88-.35-.23,0-.43.05-.61.15s-.33.24-.43.4l-.66-.09.55-2.94h2.85v.67h-2.29l-.31,1.54c.34-.24.71-.36,1.08-.36.5,0,.92.17,1.27.52.35.35.52.79.52,1.34s-.15.97-.45,1.34c-.37.46-.87.7-1.5.7-.52,0-.95-.15-1.28-.44-.33-.29-.52-.68-.56-1.16h-.01Z"/>
  <path class="st2" d="M51.18,77.02v.68h-3.79c0-.17.02-.33.08-.49.1-.26.25-.51.46-.76s.52-.54.92-.87c.62-.51,1.04-.92,1.26-1.21s.33-.58.33-.85-.1-.51-.3-.71c-.2-.2-.46-.29-.78-.29-.34,0-.61.1-.81.3-.2.2-.31.48-.31.84l-.72-.07c.05-.54.24-.95.56-1.23.32-.28.76-.42,1.3-.42s.98.15,1.3.46.48.68.48,1.13c0,.23-.05.45-.14.68-.09.23-.25.45-.47.7-.22.25-.58.58-1.08,1.01-.42.35-.69.59-.81.72-.12.13-.22.25-.3.38h2.82Z"/>
  <path class="st2" d="M56.65,77.69h-.7v-4.48c-.17.16-.39.32-.67.48-.27.16-.52.28-.74.36v-.68c.39-.18.74-.41,1.03-.67s.5-.52.62-.77h.45v5.75h.01Z"/>
  <path class="st2" d="M62.07,77.02v.68h-3.79c0-.17.02-.33.08-.49.1-.26.25-.51.46-.76.21-.25.52-.54.92-.87.62-.51,1.04-.92,1.26-1.21.22-.29.33-.58.33-.85s-.1-.51-.3-.71c-.2-.2-.46-.29-.78-.29-.34,0-.61.1-.81.3-.2.2-.31.48-.31.84l-.72-.07c.05-.54.24-.95.56-1.23.32-.28.76-.42,1.3-.42s.98.15,1.3.46c.32.31.48.68.48,1.13,0,.23-.05.45-.14.68-.09.23-.25.45-.47.7s-.58.58-1.08,1.01c-.42.35-.69.59-.81.72-.12.13-.22.25-.3.38h2.82Z"/>
  <path class="st2" d="M62.75,76.18l.7-.09c.08.4.22.69.41.86.19.18.43.26.71.26.33,0,.61-.11.84-.34.23-.23.34-.51.34-.85s-.11-.59-.32-.8-.48-.31-.8-.31c-.13,0-.3.03-.5.08l.08-.62h.11c.3,0,.57-.08.81-.23.24-.16.36-.4.36-.72,0-.26-.09-.47-.26-.64-.17-.17-.4-.25-.68-.25s-.5.09-.68.26c-.18.17-.3.43-.35.77l-.7-.12c.09-.47.28-.84.59-1.1.31-.26.68-.39,1.14-.39.31,0,.6.07.86.2.26.13.46.32.6.55.14.23.21.48.21.74s-.07.47-.2.68c-.13.21-.33.36-.59.48.34.08.6.24.79.49s.28.55.28.92c0,.5-.18.92-.55,1.27-.36.35-.83.52-1.38.52-.5,0-.92-.15-1.25-.45-.33-.3-.52-.69-.57-1.16h0Z"/>
  <path class="st2" d="M69.37,77.69v-1.37h-2.48v-.64l2.61-3.71h.57v3.71h.77v.64h-.77v1.37h-.7ZM69.37,75.67v-2.58l-1.79,2.58h1.79Z"/>
  <path class="st2" d="M76.28,77.69h-.7v-4.48c-.17.16-.39.32-.67.48-.28.16-.52.28-.74.36v-.68c.39-.18.74-.41,1.03-.67s.5-.52.62-.77h.45v5.75h.01Z"/>
  <path class="st2" d="M81.7,77.02v.68h-3.79c0-.17.02-.33.08-.49.1-.26.25-.51.46-.76.21-.25.52-.54.92-.87.62-.51,1.04-.92,1.26-1.21.22-.29.33-.58.33-.85s-.1-.51-.3-.71-.46-.29-.78-.29c-.34,0-.61.1-.81.3s-.31.48-.31.84l-.72-.07c.05-.54.24-.95.56-1.23.32-.28.76-.42,1.3-.42s.98.15,1.3.46c.32.31.48.68.48,1.13,0,.23-.05.45-.14.68-.09.23-.25.45-.47.7s-.58.58-1.08,1.01c-.42.35-.69.59-.81.72-.12.13-.22.25-.3.38h2.82Z"/>
  <path class="st2" d="M82.38,76.18l.7-.09c.08.4.22.69.41.86.19.17.43.26.71.26.33,0,.61-.11.84-.34.23-.23.34-.51.34-.85s-.11-.59-.32-.8-.48-.31-.8-.31c-.13,0-.3.03-.5.08l.08-.62h.11c.3,0,.57-.08.81-.23.24-.15.36-.4.36-.72,0-.26-.09-.47-.26-.64-.17-.17-.4-.25-.68-.25s-.5.09-.68.26-.3.43-.35.77l-.7-.12c.09-.47.28-.84.59-1.1.31-.26.68-.39,1.14-.39.31,0,.6.07.86.2.26.13.46.32.6.55.14.23.21.48.21.74s-.07.47-.2.68c-.13.21-.33.36-.59.48.34.08.6.24.79.49s.28.55.28.92c0,.5-.18.92-.55,1.27-.37.35-.83.52-1.38.52-.5,0-.92-.15-1.25-.45-.33-.3-.52-.69-.57-1.16h0Z"/>
  <path class="st2" d="M89,77.69v-1.37h-2.48v-.64l2.61-3.71h.57v3.71h.77v.64h-.77v1.37h-.7ZM89,75.67v-2.58l-1.79,2.58h1.79Z"/>
  <path class="st2" d="M95.74,77.69v-5.73h3.86v.68h-3.11v1.77h2.69v.68h-2.69v2.6h-.76.01Z"/>
  <path class="st2" d="M100.62,74.35v-.8h.8v.8h-.8ZM100.62,77.7v-.8h.8v.8h-.8Z"/>
  <path class="st2" d="M106.2,76.77v-1.57h-1.56v-.66h1.56v-1.56h.66v1.56h1.56v.66h-1.56v1.57h-.66Z"/>
  <path class="st2" d="M110.21,74.59c-.29-.11-.51-.26-.65-.46-.14-.2-.21-.43-.21-.71,0-.42.15-.77.45-1.05.3-.28.7-.43,1.2-.43s.9.15,1.21.44.46.64.46,1.06c0,.27-.07.5-.21.69s-.35.35-.63.46c.35.11.62.3.8.55s.28.56.28.91c0,.49-.17.9-.52,1.23-.35.33-.8.5-1.37.5s-1.02-.17-1.37-.5c-.35-.33-.52-.75-.52-1.25,0-.37.09-.68.28-.94.19-.26.46-.42.81-.51h-.01ZM109.84,76.04c0,.2.05.39.14.58.09.19.24.33.42.44s.39.15.61.15c.34,0,.61-.11.83-.32.22-.21.33-.49.33-.82s-.11-.62-.34-.84c-.23-.22-.51-.33-.85-.33s-.6.11-.82.33c-.22.22-.33.49-.33.82h0ZM110.07,73.4c0,.27.09.49.26.66s.4.26.68.26.49-.08.67-.26.26-.38.26-.63-.09-.47-.27-.65c-.18-.18-.4-.26-.67-.26s-.49.09-.67.26c-.18.17-.27.38-.27.62h.01Z"/>
  <path class="st2" d="M113.5,76.19l.74-.06c.05.36.18.63.38.81.2.18.44.27.72.27.34,0,.62-.13.86-.38.24-.25.35-.59.35-1.02s-.11-.72-.34-.95-.52-.35-.88-.35c-.23,0-.43.05-.61.15s-.33.24-.43.4l-.66-.09.55-2.94h2.85v.67h-2.29l-.31,1.54c.34-.24.7-.36,1.08-.36.5,0,.92.17,1.27.52s.52.79.52,1.34-.15.97-.45,1.34c-.37.46-.87.7-1.5.7-.52,0-.95-.15-1.28-.44s-.52-.68-.56-1.16h-.01Z"/>
  <path class="st2" d="M121.56,77.02v.68h-3.79c0-.17.02-.33.08-.49.1-.26.25-.51.46-.76s.52-.54.92-.87c.62-.51,1.04-.92,1.26-1.21s.33-.58.33-.85-.1-.51-.3-.71c-.2-.2-.46-.29-.78-.29-.34,0-.61.1-.81.3-.2.2-.31.48-.31.84l-.72-.07c.05-.54.24-.95.56-1.23.32-.28.76-.42,1.3-.42s.98.15,1.3.46.48.68.48,1.13c0,.23-.05.45-.14.68-.09.23-.25.45-.47.7s-.58.58-1.08,1.01c-.42.35-.69.59-.81.72-.12.13-.22.25-.3.38h2.82Z"/>
  <path class="st2" d="M127.04,77.69h-.7v-4.48c-.17.16-.39.32-.67.48-.28.16-.52.28-.74.36v-.68c.39-.18.74-.41,1.03-.67s.5-.52.62-.77h.45v5.75h.01Z"/>
  <path class="st2" d="M132.45,77.02v.68h-3.79c0-.17.02-.33.08-.49.1-.26.25-.51.46-.76.21-.25.52-.54.92-.87.62-.51,1.04-.92,1.26-1.21s.33-.58.33-.85-.1-.51-.3-.71c-.2-.2-.46-.29-.78-.29-.34,0-.61.1-.81.3-.2.2-.31.48-.31.84l-.72-.07c.05-.54.24-.95.56-1.23.32-.28.76-.42,1.3-.42s.98.15,1.3.46c.32.31.48.68.48,1.13,0,.23-.05.45-.14.68-.09.23-.25.45-.47.7-.22.25-.58.58-1.08,1.01-.42.35-.69.59-.81.72-.12.13-.22.25-.3.38h2.82Z"/>
  <path class="st2" d="M133.13,76.18l.7-.09c.08.4.22.69.41.86.19.18.43.26.71.26.33,0,.61-.11.84-.34.23-.23.34-.51.34-.85s-.11-.59-.32-.8c-.21-.21-.48-.31-.8-.31-.13,0-.3.03-.5.08l.08-.62h.11c.3,0,.57-.08.81-.23.24-.16.36-.4.36-.72,0-.26-.09-.47-.26-.64-.17-.17-.4-.25-.68-.25s-.5.09-.68.26c-.18.17-.3.43-.35.77l-.7-.12c.09-.47.28-.84.59-1.1.31-.26.68-.39,1.14-.39.31,0,.6.07.86.2s.46.32.6.55c.14.23.21.48.21.74s-.07.47-.2.68-.33.36-.59.48c.34.08.6.24.79.49s.28.55.28.92c0,.5-.18.92-.55,1.27-.37.35-.83.52-1.38.52-.5,0-.92-.15-1.25-.45-.33-.3-.52-.69-.57-1.16h0Z"/>
  <path class="st2" d="M139.75,77.69v-1.37h-2.48v-.64l2.61-3.71h.57v3.71h.77v.64h-.77v1.37h-.7ZM139.75,75.67v-2.58l-1.79,2.58h1.79Z"/>
  <path class="st2" d="M146.66,77.69h-.7v-4.48c-.17.16-.39.32-.67.48-.28.16-.52.28-.74.36v-.68c.39-.18.74-.41,1.03-.67.29-.26.5-.52.62-.77h.45v5.75h0Z"/>
  <path class="st2" d="M152.08,77.02v.68h-3.79c0-.17.02-.33.08-.49.1-.26.25-.51.46-.76.21-.25.52-.54.92-.87.62-.51,1.04-.92,1.26-1.21s.33-.58.33-.85-.1-.51-.3-.71c-.2-.2-.46-.29-.78-.29-.34,0-.61.1-.81.3-.2.2-.31.48-.31.84l-.72-.07c.05-.54.24-.95.56-1.23.32-.28.76-.42,1.3-.42s.98.15,1.3.46c.32.31.48.68.48,1.13,0,.23-.05.45-.14.68-.09.23-.25.45-.47.7s-.58.58-1.08,1.01c-.42.35-.69.59-.81.72-.12.13-.22.25-.3.38h2.82Z"/>
  <path class="st2" d="M152.76,76.18l.7-.09c.08.4.22.69.41.86.19.17.43.26.71.26.33,0,.61-.11.84-.34.23-.23.34-.51.34-.85s-.11-.59-.32-.8c-.21-.21-.48-.31-.8-.31-.13,0-.3.03-.5.08l.08-.62h.11c.3,0,.57-.08.81-.23s.36-.4.36-.72c0-.26-.09-.47-.26-.64-.17-.17-.4-.25-.68-.25s-.5.09-.68.26c-.18.17-.3.43-.35.77l-.7-.12c.09-.47.28-.84.59-1.1.31-.26.68-.39,1.14-.39.31,0,.6.07.86.2s.46.32.6.55c.14.23.21.48.21.74s-.07.47-.2.68-.33.36-.59.48c.34.08.6.24.79.49s.28.55.28.92c0,.5-.18.92-.55,1.27-.37.35-.83.52-1.38.52-.5,0-.92-.15-1.25-.45-.33-.3-.52-.69-.57-1.16h0Z"/>
  <path class="st2" d="M159.38,77.69v-1.37h-2.48v-.64l2.61-3.71h.57v3.71h.77v.64h-.77v1.37h-.7ZM159.38,75.67v-2.58l-1.79,2.58h1.79Z"/>
  <path class="st2" d="M26.22,87.69v-5.73h4.14v.68h-3.38v1.75h3.17v.67h-3.17v1.95h3.52v.68h-4.28Z"/>
  <path class="st2" d="M31.57,84.35v-.8h.8v.8h-.8ZM31.57,87.7v-.8h.8v.8h-.8Z"/>
  <path class="st2" d="M38.5,86.36l.73.09c-.11.42-.33.75-.64.99-.31.23-.71.35-1.19.35-.61,0-1.09-.19-1.44-.56-.36-.37-.53-.9-.53-1.57s.18-1.24.54-1.62c.36-.38.83-.58,1.4-.58s1.01.19,1.36.57c.35.38.53.91.53,1.59v.19h-3.09c.03.46.16.8.39,1.05s.52.36.87.36c.26,0,.48-.07.66-.2.18-.13.33-.35.43-.65h-.02ZM36.19,85.22h2.32c-.03-.35-.12-.61-.27-.79-.22-.27-.51-.41-.87-.41-.32,0-.59.11-.81.32-.22.21-.34.5-.37.87h0Z"/>
  <path class="st2" d="M40.03,87.69v-4.15h.63v.58c.13-.2.3-.37.52-.49.22-.12.46-.19.74-.19.31,0,.56.06.76.19.2.13.33.31.42.54.33-.48.75-.73,1.28-.73.41,0,.73.11.95.34.22.23.33.58.33,1.05v2.85h-.7v-2.61c0-.28-.02-.48-.07-.61-.05-.13-.13-.22-.25-.3-.12-.08-.26-.11-.42-.11-.29,0-.53.1-.73.29s-.29.5-.29.93v2.41h-.7v-2.7c0-.31-.06-.55-.17-.7-.11-.15-.3-.23-.56-.23-.2,0-.38.05-.55.16-.17.11-.29.26-.37.46-.08.2-.11.49-.11.87v2.15h-.71Z"/>
  <path class="st2" d="M49.32,87.18c-.26.22-.51.38-.75.47-.24.09-.5.14-.78.14-.46,0-.81-.11-1.05-.33-.25-.22-.37-.51-.37-.85,0-.2.05-.39.14-.56.09-.17.21-.3.36-.4.15-.1.32-.18.51-.23.14-.04.35-.07.62-.11.57-.07.99-.15,1.25-.24v-.18c0-.29-.07-.49-.2-.61-.18-.16-.45-.24-.8-.24-.33,0-.58.06-.73.17s-.27.32-.35.62l-.69-.09c.06-.29.17-.53.31-.71s.35-.32.62-.42.58-.15.94-.15.64.04.86.12c.22.08.38.19.49.31s.18.29.22.48c.02.12.04.34.04.65v.94c0,.65.01,1.07.04,1.24.03.17.09.34.18.5h-.73c-.07-.15-.12-.32-.14-.51h0ZM49.26,85.61c-.25.1-.64.19-1.15.27-.29.04-.49.09-.61.14-.12.05-.21.13-.28.23s-.1.21-.1.33c0,.19.07.34.21.47.14.13.35.19.62.19s.51-.06.72-.18c.21-.12.37-.28.46-.49.08-.16.11-.39.11-.7v-.26h.02Z"/>
  <path class="st2" d="M50.99,82.78v-.81h.7v.81h-.7ZM50.99,87.7v-4.15h.7v4.15h-.7Z"/>
  <path class="st2" d="M52.66,87.69v-5.73h.7v5.73h-.7Z"/>
  <path class="st2" d="M58.38,87.06c-.17.2-.36.35-.57.47-.21.12-.42.18-.63.18-.23,0-.46-.07-.68-.2-.22-.14-.4-.34-.53-.63-.13-.29-.21-.59-.21-.93,0-.41.11-.83.32-1.24.21-.42.48-.73.79-.94.31-.21.62-.31.92-.31.23,0,.44.06.65.18.21.12.38.3.53.54l.13-.61h.7l-.56,2.62c-.08.36-.12.57-.12.61,0,.07.03.13.08.18.05.05.12.08.19.08.14,0,.32-.08.54-.24.3-.21.53-.49.71-.84.17-.35.26-.71.26-1.08,0-.43-.11-.84-.33-1.22s-.55-.68-1-.91c-.45-.23-.93-.34-1.46-.34-.61,0-1.17.14-1.67.43s-.89.69-1.17,1.23c-.28.54-.42,1.1-.42,1.71s.14,1.19.42,1.65c.28.46.68.8,1.2,1.02.52.22,1.11.33,1.74.33.68,0,1.25-.11,1.71-.34.46-.23.81-.51,1.04-.84h.71c-.13.27-.36.55-.68.84-.32.28-.71.51-1.15.67-.44.16-.98.25-1.61.25-.58,0-1.11-.07-1.6-.22-.49-.15-.9-.37-1.25-.67-.35-.3-.6-.64-.78-1.03-.22-.49-.33-1.02-.33-1.59,0-.64.13-1.24.39-1.82.32-.71.77-1.25,1.35-1.62.58-.38,1.29-.56,2.13-.56.65,0,1.23.13,1.74.4.51.26.92.66,1.22,1.18.25.45.38.94.38,1.47,0,.75-.27,1.43-.8,2.01-.47.53-.99.79-1.55.79-.18,0-.33-.03-.44-.08-.11-.05-.19-.13-.24-.23-.03-.07-.06-.18-.07-.34h0ZM56.49,86c0,.36.08.63.25.83.17.2.36.3.58.3.15,0,.3-.04.46-.13.16-.09.32-.22.46-.39.15-.17.27-.39.36-.65.09-.26.14-.53.14-.79,0-.35-.09-.63-.26-.82-.17-.19-.39-.29-.64-.29-.17,0-.32.04-.47.13-.15.08-.29.22-.43.41-.14.19-.25.42-.33.68-.08.27-.12.51-.12.74v-.02Z"/>
  <path class="st2" d="M65.14,87.69v-.61c-.32.47-.76.7-1.32.7-.25,0-.47-.05-.69-.14-.21-.09-.37-.21-.47-.35-.1-.14-.18-.32-.22-.52-.03-.14-.04-.36-.04-.66v-2.57h.7v2.3c0,.37.01.61.04.74.04.18.14.33.28.44.14.11.32.16.53.16s.41-.05.59-.16c.18-.11.32-.25.39-.44.08-.19.12-.46.12-.81v-2.22h.7v4.15h-.63.02Z"/>
  <path class="st2" d="M66.51,86.46l.7-.11c.04.28.15.49.33.64.18.15.43.22.75.22s.56-.07.72-.2c.16-.13.23-.29.23-.46,0-.16-.07-.28-.21-.38-.1-.06-.34-.14-.72-.24-.52-.13-.87-.24-1.07-.34-.2-.1-.35-.23-.45-.39-.1-.17-.15-.35-.15-.56,0-.18.04-.36.13-.51.08-.16.2-.29.35-.39.11-.08.26-.15.45-.21.19-.06.39-.08.61-.08.33,0,.61.05.86.14.25.09.43.22.54.38.11.16.2.37.24.64l-.69.09c-.03-.21-.12-.38-.27-.5-.15-.12-.36-.18-.63-.18-.32,0-.55.05-.69.16s-.21.23-.21.38c0,.09.03.17.09.25.06.08.15.14.27.19.07.03.28.09.62.18.5.13.84.24,1.04.33.2.08.35.21.46.37.11.16.17.36.17.6s-.07.46-.21.66c-.14.2-.33.37-.59.48-.26.11-.55.17-.88.17-.54,0-.95-.11-1.23-.34-.28-.22-.46-.56-.54-1h-.02Z"/>
  <path class="st2" d="M72.24,87.06l.1.62c-.2.04-.38.06-.53.06-.26,0-.45-.04-.59-.12s-.24-.19-.3-.32c-.06-.13-.09-.41-.09-.83v-2.39h-.52v-.55h.52v-1.03l.7-.42v1.45h.71v.55h-.71v2.43c0,.2,0,.33.04.39.02.06.06.1.12.14.06.03.14.05.24.05.08,0,.18,0,.31-.03h0Z"/>
  <path class="st2" d="M73.06,87.69v-.8h.8v.8h-.8Z"/>
  <path class="st2" d="M75.01,87.69v-5.73h.7v2.05c.33-.38.74-.57,1.24-.57.31,0,.57.06.8.18.23.12.39.29.49.5.1.21.15.52.15.93v2.63h-.7v-2.63c0-.35-.08-.61-.23-.77-.15-.16-.37-.24-.65-.24-.21,0-.4.05-.59.16-.19.11-.31.25-.39.44-.08.19-.12.44-.12.77v2.27h-.7Z"/>
  <path class="st2" d="M79.38,87.69v-5.73h.7v3.27l1.66-1.69h.91l-1.59,1.54,1.75,2.61h-.87l-1.37-2.12-.5.48v1.65h-.7,0Z"/>
  <path class="st2" d="M88.67,87.69l-1.52-5.73h.78l.87,3.75c.09.39.17.78.24,1.17.15-.61.23-.96.26-1.06l1.09-3.87h.91l.82,2.9c.21.72.35,1.39.45,2.03.07-.36.17-.78.29-1.25l.9-3.68h.76l-1.57,5.73h-.73l-1.21-4.36c-.1-.36-.16-.59-.18-.67-.06.26-.12.49-.17.67l-1.21,4.36h-.78Z"/>
  <path class="st2" d="M95.11,84.35v-.8h.8v.8h-.8ZM95.11,87.7v-.8h.8v.8h-.8Z"/>
  <path class="st2" d="M99.94,87.69l-1.27-4.15h.73l.66,2.39.25.89s.08-.33.21-.86l.66-2.43h.72l.62,2.41.21.79.24-.8.71-2.4h.68l-1.3,4.15h-.73l-.66-2.48-.16-.71-.84,3.19h-.73Z"/>
  <path class="st2" d="M105.64,87.69l-1.27-4.15h.73l.66,2.39.25.89s.08-.33.21-.86l.66-2.43h.72l.62,2.41.21.79.24-.8.71-2.4h.68l-1.3,4.15h-.73l-.66-2.48-.16-.71-.84,3.19h-.73Z"/>
  <path class="st2" d="M111.34,87.69l-1.27-4.15h.73l.66,2.39.25.89s.08-.33.21-.86l.66-2.43h.72l.62,2.41.21.79.24-.8.71-2.4h.68l-1.3,4.15h-.73l-.66-2.48-.16-.71-.84,3.19h-.73Z"/>
  <path class="st2" d="M116.03,87.69v-.8h.8v.8h-.8Z"/>
  <path class="st2" d="M117.98,87.69v-5.73h.7v2.05c.33-.38.74-.57,1.24-.57.31,0,.57.06.8.18.23.12.39.29.49.5.1.21.15.52.15.93v2.63h-.7v-2.63c0-.35-.08-.61-.23-.77-.15-.16-.37-.24-.65-.24-.21,0-.4.05-.59.16-.19.11-.31.25-.39.44-.08.19-.12.44-.12.77v2.27h-.7Z"/>
  <path class="st2" d="M122.35,87.69v-5.73h.7v3.27l1.66-1.69h.91l-1.59,1.54,1.75,2.61h-.87l-1.37-2.12-.5.48v1.65h-.7.01Z"/>
  <path class="st2" d="M128.99,87.69v-.61c-.32.47-.76.7-1.32.7-.24,0-.47-.05-.69-.14-.21-.09-.37-.21-.47-.35s-.17-.32-.22-.52c-.03-.14-.04-.36-.04-.66v-2.57h.7v2.3c0,.37.01.61.04.74.04.18.14.33.28.44.14.11.32.16.53.16s.41-.05.59-.16c.19-.11.32-.25.39-.44.08-.19.12-.46.12-.81v-2.22h.7v4.15h-.63.02Z"/>
  <path class="st2" d="M130.36,86.46l.7-.11c.04.28.15.49.33.64.18.15.43.22.75.22s.56-.07.72-.2c.16-.13.23-.29.23-.46,0-.16-.07-.28-.21-.38-.1-.06-.34-.14-.72-.24-.52-.13-.87-.24-1.07-.34-.2-.1-.35-.23-.45-.39-.1-.17-.15-.35-.15-.56,0-.18.04-.36.13-.51.08-.16.2-.29.35-.39.11-.08.26-.15.45-.21.19-.06.39-.08.61-.08.33,0,.61.05.86.14.25.09.43.22.54.38.11.16.2.37.24.64l-.69.09c-.03-.21-.12-.38-.27-.5-.15-.12-.36-.18-.63-.18-.32,0-.55.05-.69.16-.14.11-.21.23-.21.38,0,.09.03.17.09.25.06.08.15.14.27.19.07.03.28.09.62.18.5.13.84.24,1.04.33.2.08.35.21.46.37.11.16.17.36.17.6s-.07.46-.21.66c-.14.2-.33.37-.59.48-.26.11-.55.17-.88.17-.54,0-.95-.11-1.23-.34-.28-.22-.46-.56-.54-1h-.02Z"/>
  <path class="st2" d="M136.09,87.06l.1.62c-.2.04-.38.06-.53.06-.25,0-.45-.04-.59-.12-.14-.08-.24-.19-.3-.32-.06-.13-.09-.41-.09-.83v-2.39h-.52v-.55h.52v-1.03l.7-.42v1.45h.71v.55h-.71v2.43c0,.2,0,.33.04.39s.07.1.12.14c.05.04.14.05.24.05.08,0,.18,0,.31-.03Z"/>
  <path class="st2" d="M136.91,87.69v-.8h.8v.8h-.8Z"/>
  <path class="st2" d="M141.7,86.36l.73.09c-.12.42-.33.75-.64.99-.31.23-.71.35-1.19.35-.61,0-1.09-.19-1.44-.56-.36-.37-.53-.9-.53-1.57s.18-1.24.54-1.62c.36-.38.83-.58,1.4-.58s1.01.19,1.36.57c.35.38.53.91.53,1.59v.19h-3.09c.03.46.15.8.39,1.05.23.24.52.36.87.36.26,0,.48-.07.66-.2.18-.14.33-.35.43-.65h-.02ZM139.39,85.22h2.32c-.03-.35-.12-.61-.27-.79-.22-.27-.51-.41-.87-.41-.32,0-.59.11-.81.32-.22.22-.34.5-.37.87h0Z"/>
  <path class="st2" d="M145.92,87.69v-.52c-.26.41-.65.62-1.16.62-.33,0-.63-.09-.91-.27s-.49-.44-.64-.76c-.15-.32-.23-.7-.23-1.13s.07-.79.21-1.13c.14-.34.34-.6.62-.78.28-.18.58-.27.93-.27.25,0,.47.05.67.16s.35.24.48.41v-2.05h.7v5.73h-.67ZM143.7,85.62c0,.53.11.93.34,1.19.22.26.49.39.79.39s.57-.13.78-.38.32-.63.32-1.15c0-.57-.11-.98-.33-1.25-.22-.27-.49-.4-.81-.4s-.57.13-.78.38c-.21.25-.31.66-.31,1.21h0Z"/>
  <path class="st2" d="M150.32,87.69v-.61c-.32.47-.76.7-1.32.7-.25,0-.47-.05-.69-.14-.21-.09-.37-.21-.47-.35-.1-.14-.18-.32-.22-.52-.03-.14-.04-.36-.04-.66v-2.57h.7v2.3c0,.37,0,.61.04.74.04.18.14.33.28.44.14.11.32.16.53.16s.41-.05.59-.16c.18-.11.32-.25.39-.44.08-.19.12-.46.12-.81v-2.22h.7v4.15h-.63.02Z"/>
  <path class="st2" d="M152.17,87.69v-.8h.8v.8h-.8Z"/>
  <path class="st2" d="M154.12,87.69v-5.73h.7v2.05c.33-.38.74-.57,1.24-.57.31,0,.57.06.8.18.23.12.39.29.49.5.1.21.15.52.15.93v2.63h-.7v-2.63c0-.35-.08-.61-.23-.77-.15-.16-.37-.24-.65-.24-.21,0-.4.05-.59.16-.19.11-.31.25-.39.44s-.12.44-.12.77v2.27h-.7Z"/>
  <path class="st2" d="M158.49,87.69v-5.73h.7v3.27l1.66-1.69h.91l-1.59,1.54,1.75,2.61h-.87l-1.37-2.12-.5.48v1.65h-.7.01Z"/>
  <path class="st5" d="M48.56,109.43h.78v-5.58h1.5v-.72h-3.78v.72h1.5v5.58Z"/>
  <path class="st5" d="M52.26,106.4h3v3.03h.79v-6.3h-.79v2.54h-3v-2.54h-.78v6.3h.78v-3.03Z"/>
  <path class="st5" d="M60.65,108.71h-2.6v-2.38h2.53v-.72h-2.53v-1.76h2.6v-.72h-3.38v6.3h3.38v-.72Z"/>
  <path class="st5" d="M64.92,106.4h3.01v3.03h.78v-6.3h-.78v2.54h-3.01v-2.54h-.78v6.3h.78v-3.03Z"/>
  <path class="st5" d="M72.79,102.99c-1.81,0-3.3,1.48-3.3,3.28s1.48,3.29,3.3,3.29,3.3-1.41,3.3-3.29-1.5-3.28-3.3-3.28ZM72.79,108.82c-1.36,0-2.52-1.11-2.52-2.55s1.04-2.55,2.52-2.55,2.52,1.16,2.52,2.55-1.15,2.55-2.52,2.55Z"/>
  <path class="st5" d="M77.65,104.73l4.73,4.96v-6.56h-.79v4.65l-4.73-4.95v6.6h.79v-4.7Z"/>
  <path class="st5" d="M86.34,109.56c1.76,0,2.98-1.33,2.98-3.06v-.25h-2.5v.72h1.63c-.03,1.03-1.09,1.87-2.07,1.87-1.36,0-2.45-1.25-2.45-2.58,0-1.41,1.1-2.56,2.52-2.56.77,0,1.53.41,1.98,1.03l.55-.53c-.62-.78-1.59-1.22-2.57-1.22-1.81,0-3.27,1.49-3.27,3.3s1.42,3.27,3.19,3.27h.01Z"/>
  <path class="st5" d="M97.22,109.43l-2.88-3.47,2.83-2.83h-1.02l-2.68,2.73v-2.73h-.78v6.3h.78v-2.63l.32-.3,2.37,2.93h1.06Z"/>
  <path class="st5" d="M100.64,109.56c1.82,0,3.3-1.41,3.3-3.29s-1.5-3.28-3.3-3.28-3.3,1.48-3.3,3.28,1.48,3.29,3.3,3.29ZM100.64,103.72c1.48,0,2.52,1.16,2.52,2.55s-1.16,2.55-2.52,2.55-2.52-1.11-2.52-2.55,1.04-2.55,2.52-2.55Z"/>
  <path class="st5" d="M105.5,104.73l4.73,4.96v-6.56h-.79v4.65l-4.73-4.95v6.6h.79v-4.7Z"/>
  <path class="st5" d="M114.19,109.56c1.76,0,2.98-1.33,2.98-3.06v-.25h-2.5v.72h1.63c-.03,1.03-1.09,1.87-2.07,1.87-1.36,0-2.45-1.25-2.45-2.58,0-1.41,1.1-2.56,2.52-2.56.77,0,1.53.41,1.98,1.03l.55-.53c-.62-.78-1.59-1.22-2.57-1.22-1.81,0-3.27,1.49-3.27,3.3s1.42,3.27,3.19,3.27h.01Z"/>
  <path class="st5" d="M48.32,116.87v-3.72h-.79v3.99c0,1.39.86,2.45,2.31,2.45s2.31-1.06,2.31-2.45v-3.99h-.79v3.72c0,1.03-.31,1.98-1.52,1.98s-1.52-.95-1.52-1.98Z"/>
  <path class="st5" d="M54.03,114.76l4.73,4.96v-6.56h-.78v4.65l-4.73-4.96v6.61h.78v-4.7Z"/>
  <path class="st5" d="M60.73,113.16h-.79v6.3h.79v-6.3Z"/>
  <path class="st5" d="M64.07,117.82l-1.88-4.66h-.86l2.74,6.63,2.74-6.63h-.87l-1.87,4.66Z"/>
  <path class="st5" d="M70.81,118.74h-2.6v-2.38h2.52v-.72h-2.52v-1.77h2.6v-.71h-3.39v6.3h3.39v-.72Z"/>
  <path class="st5" d="M75.31,114.95c0-.6-.3-1.2-.83-1.5-.5-.28-1.1-.29-1.66-.29h-.95v6.3h.79v-2.67h.33l1.86,2.67h.95l-1.99-2.74c.91-.11,1.51-.86,1.51-1.76h-.01ZM72.9,116.14h-.25v-2.28h.21c.78,0,1.71.14,1.71,1.13s-.87,1.15-1.67,1.15h0Z"/>
  <path class="st5" d="M78.17,118.86c-.68,0-1.23-.5-1.22-1.2l-.79.17c.13,1.01.93,1.76,1.95,1.76,1.13,0,2.01-.82,2.01-1.96,0-1.05-.67-1.55-1.56-1.9l-.45-.17c-.39-.15-.88-.41-.88-.9,0-.55.55-.89,1.05-.89s.78.2,1.01.59l.63-.38c-.34-.61-.92-.95-1.62-.95-.95,0-1.86.61-1.86,1.63,0,.88.65,1.29,1.37,1.6l.44.18c.54.23,1.09.52,1.09,1.2s-.48,1.23-1.16,1.23h-.01Z"/>
  <path class="st5" d="M81.82,113.16h-.79v6.3h.79v-6.3Z"/>
  <path class="st5" d="M83.99,119.46h.79v-5.59h1.49v-.71h-3.77v.71h1.49v5.59Z"/>
  <path class="st5" d="M87.23,113.16h-.91l2.06,3.56v2.74h.79v-2.74l2.05-3.56h-.9l-1.55,2.69-1.54-2.69Z"/>
  <path class="st5" d="M97.21,119.59c1.82,0,3.3-1.41,3.3-3.29s-1.5-3.28-3.3-3.28-3.3,1.48-3.3,3.28,1.48,3.29,3.3,3.29ZM97.21,113.75c1.48,0,2.51,1.16,2.51,2.55s-1.15,2.55-2.51,2.55-2.52-1.11-2.52-2.55,1.03-2.55,2.52-2.55Z"/>
  <path class="st5" d="M102.13,116.37h2.19v-.72h-2.19v-1.78h2.27v-.71h-3.05v6.3h.78v-3.09Z"/>
  <path class="st5" d="M109.96,115.73l-.45-.17c-.39-.15-.88-.41-.88-.9,0-.55.55-.89,1.05-.89s.78.2,1.01.59l.63-.38c-.34-.61-.92-.95-1.62-.95-.95,0-1.86.61-1.86,1.63,0,.88.65,1.29,1.37,1.6l.43.18c.55.23,1.09.52,1.09,1.2s-.48,1.23-1.16,1.23-1.23-.5-1.22-1.2l-.8.17c.13,1.01.93,1.76,1.95,1.76,1.13,0,2.01-.82,2.01-1.96,0-1.05-.67-1.55-1.56-1.9h.01Z"/>
  <path class="st5" d="M115.4,113.74c.59,0,1.21.22,1.66.62v-.91c-.48-.29-1.04-.43-1.59-.43-1.86,0-3.35,1.46-3.35,3.32s1.49,3.25,3.28,3.25c.55,0,1.17-.16,1.65-.44v-.93c-.47.42-1.06.65-1.68.65-1.4,0-2.47-1.18-2.47-2.56s1.08-2.58,2.49-2.58h.01Z"/>
  <path class="st5" d="M118.85,113.16h-.79v6.3h.79v-6.3Z"/>
  <path class="st5" d="M120.1,119.46h3.39v-.72h-2.6v-2.38h2.52v-.72h-2.52v-1.77h2.6v-.71h-3.39v6.3Z"/>
  <path class="st5" d="M129.2,117.81l-4.73-4.96v6.61h.78v-4.7l4.74,4.96v-6.56h-.79v4.65Z"/>
  <path class="st5" d="M130.84,116.34c0,1.82,1.49,3.25,3.28,3.25.55,0,1.17-.16,1.66-.44v-.93c-.47.42-1.06.65-1.68.65-1.41,0-2.47-1.18-2.47-2.56s1.08-2.58,2.49-2.58c.59,0,1.21.22,1.66.62v-.91c-.48-.29-1.03-.43-1.59-.43-1.86,0-3.35,1.46-3.35,3.32h0Z"/>
  <path class="st5" d="M140.18,113.87v-.71h-3.38v6.3h3.38v-.72h-2.6v-2.38h2.53v-.72h-2.53v-1.77h2.6Z"/>
  <path class="st5" d="M46.98,129.49h.84l.72-1.58h2.89l.72,1.58h.84l-3.01-6.57-3.01,6.57h.01ZM48.87,127.19l1.12-2.55,1.12,2.55h-2.24Z"/>
  <path class="st5" d="M58.26,127.84l-4.73-4.96v6.61h.79v-4.7l4.73,4.96v-6.56h-.79v4.65Z"/>
  <path class="st5" d="M61.49,123.19h-1.3v6.3h1.28c1.99,0,3.56-1.04,3.56-3.18s-1.6-3.12-3.54-3.12h0ZM61.25,128.77h-.28v-4.86h.28c1.61,0,2.99.59,2.99,2.43s-1.39,2.43-2.99,2.43Z"/>
  <path class="st5" d="M67.81,123.9h1.5v5.59h.78v-5.59h1.5v-.71h-3.78v.71Z"/>
  <path class="st5" d="M72.29,129.49h3.38v-.72h-2.6v-2.38h2.53v-.72h-2.53v-1.77h2.6v-.71h-3.38v6.3Z"/>
  <path class="st5" d="M76.38,126.37c0,1.82,1.49,3.25,3.28,3.25.55,0,1.17-.16,1.66-.44v-.93c-.47.42-1.06.65-1.68.65-1.4,0-2.47-1.18-2.47-2.56s1.08-2.58,2.49-2.58c.59,0,1.21.22,1.66.62v-.91c-.48-.29-1.04-.43-1.59-.43-1.86,0-3.35,1.45-3.35,3.32h0Z"/>
  <path class="st5" d="M86.06,125.72h-3v-2.54h-.79v6.31h.79v-3.03h3v3.03h.78v-6.31h-.78v2.54Z"/>
  <path class="st5" d="M92.72,127.84l-4.73-4.96v6.61h.78v-4.7l4.73,4.96v-6.56h-.78v4.65Z"/>
  <path class="st5" d="M97.57,123.05c-1.81,0-3.3,1.48-3.3,3.28s1.48,3.29,3.3,3.29,3.3-1.41,3.3-3.29-1.5-3.28-3.3-3.28ZM97.57,128.88c-1.36,0-2.52-1.11-2.52-2.55s1.04-2.55,2.52-2.55,2.52,1.16,2.52,2.55-1.15,2.55-2.52,2.55Z"/>
  <path class="st5" d="M102.5,123.19h-.79v6.3h2.7v-.72h-1.91v-5.58Z"/>
  <path class="st5" d="M107.88,123.05c-1.81,0-3.3,1.48-3.3,3.28s1.48,3.29,3.3,3.29,3.3-1.41,3.3-3.29-1.49-3.28-3.3-3.28ZM107.88,128.88c-1.36,0-2.52-1.11-2.52-2.55s1.04-2.55,2.52-2.55,2.52,1.16,2.52,2.55-1.15,2.55-2.52,2.55Z"/>
  <path class="st5" d="M115.26,127.03h1.63c-.03,1.03-1.09,1.87-2.07,1.87-1.36,0-2.45-1.25-2.45-2.57,0-1.41,1.1-2.56,2.52-2.56.77,0,1.53.41,1.98,1.03l.55-.53c-.62-.78-1.59-1.22-2.57-1.22-1.81,0-3.27,1.49-3.27,3.3s1.42,3.27,3.19,3.27,2.98-1.33,2.98-3.06v-.25h-2.5v.72h.01Z"/>
  <path class="st5" d="M120.42,125.88l-1.54-2.69h-.91l2.06,3.56v2.74h.79v-2.74l2.05-3.56h-.9l-1.55,2.69Z"/>
  <path class="st0" d="M38.22,107.71c.13-.16.18-.45.18-.45h-7.82s.1.32.18.45h7.46Z"/>
  <path class="st0" d="M37.76,108.37c.15-.13.29-.39.29-.39h-7.16s.08.2.26.39h6.61Z"/>
  <path class="st0" d="M37.2,108.97c.18-.1.32-.29.32-.29h-6.12s.15.16.29.29h5.51Z"/>
  <path class="st0" d="M36.49,109.54c.17-.07.37-.23.37-.23h-4.78s0,.04.34.23h4.07Z"/>
  <path class="st0" d="M32.97,109.89s.5.29,1.49.29,1.62-.29,1.62-.29h-3.11Z"/>
  <path class="st5" d="M32.89,110.56s.6.03.96.31c.34.29.6.78.6.78,0,0,.21-.47.55-.71.34-.26.89-.37.89-.37h6.17l1.21,1.8h-5.54s-.39.02-.97.36c-.31.18-.53.49-.53.49,0,0-.05.15-.11.22-.06.08-.11.15-.19.18-.08.03-.06,0-.06,0h-2.88s-.12-.05-.18-.14c-.07-.1-.02-.06-.08-.14-.05-.08-.16-.29-.6-.59-.45-.29-.89-.32-.89-.32h-5.63l1.23-1.86h6.07l-.02-.02Z"/>
  <path class="st5" d="M28.53,113.1v9.19s.03.81.71,1.91c.68,1.1,1.67,1.6,1.67,1.6l.78-1.21s-.68-.4-1.2-1.18c-.5-.78-.5-1.44-.5-1.44v-8.87h-1.46Z"/>
  <path class="st5" d="M38.96,113.07v8.87s-.11.89-.53,1.53c-.42.65-1.12,1.16-1.12,1.16l.75,1.2s1.13-.83,1.68-1.7c.55-.87.68-2.19.68-2.19v-8.87h-1.46Z"/>
  <path class="st5" d="M26.22,113.1v9.23s.1,1.43.99,2.92c.89,1.49,2.51,2.53,2.51,2.53l.76-1.21s-1.04-.55-1.86-1.82c-.85-1.28-.89-2.45-.89-2.45v-9.19h-1.51Z"/>
  <path class="st0" d="M32.89,114.07v9.75s-.04.03-.05.18c-.02.15-.11.24-.11.24l-3.25,5.39h9.98l-3.26-5.51-.1-.25-.03-.26v-9.54h-1.22v9.89s0,.14.05.26c.03.11.1.29.1.29l2.01,3.3h-5.08l1.98-3.29s.06-.11.11-.27c.03-.15.05-.29.05-.29v-9.91h-1.16l-.02.02Z"/>
  <path class="st5" d="M41.21,113.07v9.07s-.01,1.17-.87,2.51c-.86,1.34-1.85,1.91-1.85,1.91l.73,1.23s1.49-.94,2.43-2.43c.92-1.49,1.04-3.22,1.04-3.22v-9.07h-1.48Z"/>
  <path class="st0" d="M30.52,107s-.5-2.73,1.51-4.1c0,0,.91-.84,2.38-.84,1.57,0,2.48.82,2.48.82,2.19,1.6,1.54,4.11,1.54,4.11h-7.91Z"/>
  <text class="st1" transform="translate(55.81 47.75)"><tspan x="0" y="0">AIS</tspan></text>
  <g>
    <path class="st2" d="M60.22,46.34h-2.88l-.61,1.41h-.84l2.54-5.7h.7l2.54,5.7h-.84l-.61-1.41ZM59.94,45.68l-1.16-2.71-1.16,2.71h2.32Z"/>
    <path class="st2" d="M62.41,42.05h.82v5.7h-.82v-5.7Z"/>
    <path class="st2" d="M65.21,47.64c-.37-.12-.68-.29-.95-.53l.3-.61c.28.22.57.39.86.49.3.1.63.15,1.01.15.43,0,.76-.08.99-.24.23-.16.35-.39.35-.68,0-.25-.11-.43-.33-.56s-.56-.24-1.04-.35c-.45-.1-.82-.21-1.11-.33-.29-.12-.51-.29-.68-.5-.17-.21-.25-.48-.25-.81s.09-.62.26-.88c.18-.25.43-.45.75-.59.32-.14.69-.21,1.12-.21s.77.06,1.12.18c.35.12.64.3.88.52l-.3.61c-.26-.22-.53-.38-.81-.48s-.57-.16-.89-.16c-.41,0-.73.09-.97.26-.23.17-.35.41-.35.71,0,.26.1.45.31.58.21.13.53.25.99.36.47.11.86.22,1.15.34s.53.28.7.48c.18.2.26.46.26.78s-.09.62-.26.86c-.18.25-.43.44-.76.57-.33.14-.71.2-1.16.2s-.85-.06-1.21-.18Z"/>
  </g>
</svg>