<svg width="175" height="119" viewBox="0 0 175 119" fill="none" xmlns="http://www.w3.org/2000/svg">
<g clip-path="url(#clip0_80_2)">
<path d="M32.1997 42.9996C32.3997 42.6996 32.4997 42.0996 32.4997 42.0996H17.6997C17.6997 42.0996 17.8997 42.6996 17.9997 42.9996H32.0997H32.1997Z" fill="#A28038"/>
<path d="M31.2999 44.2996C31.5999 44.0996 31.8999 43.5996 31.8999 43.5996H18.3999C18.3999 43.5996 18.4999 43.9996 18.8999 44.2996H31.3999H31.2999Z" fill="#A28038"/>
<path d="M30.2998 45.4004C30.5998 45.2004 30.8998 44.9004 30.8998 44.9004H19.2998C19.2998 44.9004 19.5998 45.2004 19.8998 45.4004H30.2998Z" fill="#A28038"/>
<path d="M28.9001 46.4996C29.2001 46.3996 29.6001 46.0996 29.6001 46.0996H20.6001C20.6001 46.0996 20.6001 46.0996 21.2001 46.4996H28.9001Z" fill="#A28038"/>
<path d="M22.2998 47.2002C22.2998 47.2002 23.1998 47.7002 25.0998 47.7002C26.9998 47.7002 28.1998 47.2002 28.1998 47.2002H22.2998Z" fill="#A28038"/>
<path d="M22.0999 48.4004C22.0999 48.4004 23.1999 48.4004 23.8999 49.0004C24.4999 49.5004 24.9999 50.5004 24.9999 50.5004C24.9999 50.5004 25.3999 49.6004 25.9999 49.2004C26.5999 48.7004 27.6999 48.5004 27.6999 48.5004H39.3999L41.6999 51.9004H31.1999C31.1999 51.9004 30.4999 51.9004 29.3999 52.6004C28.7999 52.9004 28.3999 53.5004 28.3999 53.5004C28.3999 53.5004 28.3999 53.8004 28.1999 53.9004C28.0999 54.1004 27.9999 54.2004 27.7999 54.2004C27.5999 54.2004 27.6999 54.2004 27.6999 54.2004H22.1999C22.1999 54.2004 21.9999 54.2004 21.8999 53.9004C21.7999 53.7004 21.8999 53.8004 21.7999 53.6004C21.7999 53.5004 21.4999 53.1004 20.6999 52.5004C19.7999 51.9004 18.9999 51.9004 18.9999 51.9004H8.3999L10.6999 48.4004H22.1999H22.0999Z" fill="#0D386B"/>
<path d="M13.8998 53.2002V70.5002C13.8998 70.5002 13.8998 72.0002 15.2998 74.1002C16.5998 76.2002 18.3998 77.1002 18.3998 77.1002L19.8998 74.8002C19.8998 74.8002 18.5998 74.0002 17.5998 72.6002C16.5998 71.1002 16.5998 69.9002 16.5998 69.9002V53.2002H13.7998H13.8998Z" fill="#0D386B"/>
<path d="M33.6 53.2002V69.9002C33.6 69.9002 33.4 71.6002 32.6 72.8002C31.8 74.0002 30.5 75.0002 30.5 75.0002L31.9 77.3002C31.9 77.3002 34 75.7002 35.1 74.1002C36.1 72.4002 36.4 70.0002 36.4 70.0002V53.3002H33.6V53.2002Z" fill="#0D386B"/>
<path d="M9.5 53.2002V70.6002C9.5 70.6002 9.7 73.3002 11.4 76.1002C13.1 78.9002 16.2 80.9002 16.2 80.9002L17.6 78.6002C17.6 78.6002 15.6 77.6002 14.1 75.2002C12.5 72.8002 12.4 70.6002 12.4 70.6002V53.3002H9.5V53.2002Z" fill="#0D386B"/>
<path d="M22.0997 55V73.4C22.0997 73.4 22.0997 73.4 22.0997 73.7C22.0997 74 21.8997 74.2 21.8997 74.2L15.6997 84.4H34.5997L28.3997 74L28.1997 73.5V73V55H25.8997V73.7C25.8997 73.7 25.8997 74 25.8997 74.2C25.8997 74.4 26.0997 74.8 26.0997 74.8L29.8997 81H20.2997L23.9997 74.8C23.9997 74.8 24.0997 74.6 24.1997 74.3C24.1997 74 24.1997 73.8 24.1997 73.8V55.1H21.9997L22.0997 55Z" fill="#A28038"/>
<path d="M37.8998 53.1996V70.2996C37.8998 70.2996 37.8998 72.4996 36.2998 74.9996C34.6998 77.4996 32.7998 78.5996 32.7998 78.5996L34.1998 80.8996C34.1998 80.8996 36.9998 79.0996 38.7998 76.2996C40.5998 73.4996 40.7998 70.1996 40.7998 70.1996V53.0996H37.9998L37.8998 53.1996Z" fill="#0D386B"/>
<path d="M17.6999 41.7004C17.6999 41.7004 16.6999 36.5004 20.5999 34.0004C20.5999 34.0004 22.2999 32.4004 25.0999 32.4004C27.8999 32.4004 29.7999 34.0004 29.7999 34.0004C33.8999 37.0004 32.6999 41.8004 32.6999 41.8004H17.7999L17.6999 41.7004Z" fill="#A28038"/>
<path d="M49.2997 39.5998C49.7997 39.3998 50.0997 39.2998 50.2997 39.1998V44.0998H51.3997V43.5998H57.0997V44.0998H58.1997V39.0998C58.2997 39.0998 58.4997 39.2998 58.6997 39.2998C58.8997 39.2998 59.0997 39.3998 59.1997 39.4998L59.6997 38.4998C57.9997 38.1998 56.7997 37.5998 55.8997 36.6998H59.5997V35.6998H54.6997V34.6998C56.2997 34.5998 57.5997 34.3998 58.5997 34.1998L58.0997 33.2998C56.4997 33.6998 54.1997 33.7998 51.0997 33.7998C47.9997 33.7998 49.8997 33.7998 49.4997 33.7998L49.8997 34.8998C50.6997 34.8998 51.8997 34.8998 53.5997 34.8998V35.7998H48.7997V36.7998H52.3997C51.3997 37.6998 50.0997 38.2998 48.6997 38.5998L49.2997 39.5998ZM56.9997 42.6998H51.2997V41.6998H56.9997V42.6998ZM54.6997 36.7998C55.3997 37.7998 56.3997 38.4998 57.5997 38.8998H54.6997V36.7998ZM56.9997 39.8998V40.7998H51.2997V39.8998H56.9997ZM53.5997 36.7998V38.8998H50.9997C52.0997 38.3998 52.9997 37.6998 53.5997 36.7998Z" fill="#0D386B"/>
<path d="M66.4001 34.8996V35.4996H67.9001V36.5996H66.1001V37.5996H68.0001C67.7001 38.2996 66.8001 38.9996 65.6001 39.5996L66.3001 40.5996C66.8001 40.2996 67.2001 39.9996 67.4001 39.8996V42.4996C67.4001 42.9996 67.4001 43.3996 67.7001 43.5996C67.9001 43.7996 68.3001 43.8996 68.7001 43.8996H72.5001C73.1001 43.8996 73.5001 43.8996 73.7001 43.5996C73.9001 43.3996 74.1001 42.6996 74.2001 41.6996L73.1001 41.2996C73.1001 41.8996 73.0001 42.2996 72.9001 42.5996C72.9001 42.7996 72.6001 42.9996 72.3001 42.9996H68.9001C68.6001 42.9996 68.5001 42.8996 68.5001 42.5996V41.8996H72.2001V39.4996C72.7001 39.8996 73.2001 40.2996 74.0001 40.7996L74.5001 39.7996C73.3001 39.1996 72.5001 38.5996 72.2001 37.8996H74.4001V36.8996H72.3001V35.6996H74.2001V34.7996H72.3001V33.5996H71.3001V34.7996H69.2001V33.5996H68.1001V34.7996H66.6001V34.9996C66.1001 34.5996 65.6001 34.2996 64.9001 33.8996L64.1001 34.6996C64.6001 34.9996 65.2001 35.4996 65.8001 35.9996L66.5001 35.0996L66.4001 34.8996ZM69.0001 35.5996H71.1001V36.6996H69.0001V35.5996ZM69.3001 37.6996H70.9001C71.1001 38.0996 71.3001 38.4996 71.6001 38.6996H68.6001C68.9001 38.3996 69.1001 38.0996 69.3001 37.6996ZM68.4001 39.5996H71.1001V40.6996H68.4001V39.5996Z" fill="#0D386B"/>
<path d="M66.0997 37.6996C65.4997 37.1996 64.8997 36.8996 64.3997 36.5996L63.6997 37.4996C64.1997 37.7996 64.6997 38.1996 65.2997 38.6996L66.0997 37.6996Z" fill="#0D386B"/>
<path d="M66.0001 40.6L65.0001 40C64.8001 41.1 64.3001 42.1 63.6001 43.1L64.5001 44C65.2001 43 65.7001 41.8 66.0001 40.6Z" fill="#0D386B"/>
<path d="M86.6999 35.6002C85.7999 34.9002 85.0999 34.5002 84.5999 34.2002L83.8999 35.0002C84.3999 35.3002 85.0999 35.8002 85.9999 36.5002L86.6999 35.6002Z" fill="#0D386B"/>
<path d="M78.9998 41.9998C79.7998 40.9998 80.2998 40.1998 80.5998 39.3998V44.0998H81.6998V38.6998C81.8998 38.9998 82.0998 39.1998 82.2998 39.4998C82.4998 39.7998 82.7998 40.0998 82.9998 40.3998L83.6998 39.3998C83.2998 38.8998 82.5998 38.2998 81.6998 37.4998C81.6998 37.3998 83.4998 37.3998 83.4998 37.3998V36.3998H81.6998V34.7998C82.2998 34.6998 82.8998 34.4998 83.4998 34.2998L83.0998 33.2998C81.8998 33.7998 80.3998 34.0998 78.5998 34.0998L78.7998 35.0998C79.5998 35.0998 80.1998 34.9998 80.5998 34.8998V36.2998H78.3998V37.2998H80.4998C79.9998 38.5998 79.2998 39.7998 78.2998 40.8998L78.9998 41.8998V41.9998Z" fill="#0D386B"/>
<path d="M83.2998 41.5998L87.1998 40.9998V44.1998H88.2998V40.8998L89.2998 40.6998V39.5998L88.2998 39.7998V33.2998H87.1998V39.8998L83.2998 40.4998V41.5998Z" fill="#0D386B"/>
<path d="M86.4997 38.4C85.6997 37.7 84.8997 37.3 84.3997 37L83.6997 37.8C84.2997 38.2 84.9997 38.7 85.7997 39.3L86.4997 38.4Z" fill="#0D386B"/>
<path d="M93.1997 39.4004L93.4997 40.6004C93.8997 40.6004 94.3997 40.4004 94.9997 40.2004V42.5004C94.9997 42.7004 94.8997 42.9004 94.5997 42.9004H93.5997L93.8997 44.0004H94.7997C95.3997 44.0004 95.6997 44.0004 95.8997 43.7004C96.0997 43.5004 96.0997 43.2004 96.0997 42.6004V39.8004C96.7997 39.6004 97.1997 39.4004 97.3997 39.3004V38.2004C97.0997 38.3004 96.6997 38.5004 96.0997 38.7004V36.7004H97.4997V36.0004H99.9997V37.5004H97.6997V38.6004H102.3C102 39.6004 101.4 40.4004 100.6 41.0004C100.1 40.5004 99.4997 39.7004 98.9997 38.8004L97.9997 39.2004C98.5997 40.2004 99.0997 41.1004 99.6997 41.7004C98.5997 42.5004 97.4997 42.9004 96.3997 43.2004L96.9997 44.3004C98.0997 44.1004 99.2997 43.5004 100.5 42.6004C101.4 43.4004 102.3 44.0004 103.4 44.3004L104 43.2004C103 42.9004 102.2 42.5004 101.4 41.9004C101.8 41.5004 102.3 41.0004 102.7 40.3004C103.1 39.6004 103.4 39.1004 103.5 38.7004V37.7004H101.2V36.2004H103.9V35.1004H101.2V33.5004H99.9997V35.1004H97.4997V35.8004H96.0997V33.4004H94.9997V35.8004H93.2997V36.8004H94.9997V39.1004C94.3997 39.3004 93.7997 39.4004 93.1997 39.4004Z" fill="#0D386B"/>
<path d="M108 43.1004L108.9 44.2004C111.5 42.5004 113.1 40.3004 113.6 37.5004H113.8C114.6 40.6004 116 42.8004 118.1 44.2004L119 43.1004C117.8 42.3004 116.9 41.5004 116.3 40.4004C115.6 39.4004 115.2 38.4004 115.1 37.5004H118.8V36.3004H113.9C113.9 35.7004 113.9 34.7004 113.9 33.4004H112.7C112.7 34.6004 112.7 35.6004 112.5 36.3004H108.3V37.5004H112.3C112.1 38.6004 111.6 39.6004 110.9 40.7004C110.1 41.7004 109.2 42.5004 108.1 43.2004L108 43.1004Z" fill="#0D386B"/>
<path d="M124.1 39.0998H132.5V40.7998H133.5V38.1998H132.9V33.5998C133 33.5998 130.2 33.5998 130.2 33.5998V34.4998H132V35.0998H130.3V35.8998H132V36.5998H130.3V37.3998H131.9V38.1998H124.6V37.3998H126.3V36.5998H124.5V35.8998H126.3V35.0998H124.5V34.4998C125.4 34.4998 126.1 34.2998 126.5 34.1998L126 33.2998C125.3 33.4998 124.5 33.5998 123.4 33.5998V37.9998C123.5 37.9998 123 37.9998 123 37.9998V40.5998H124V38.8998L124.1 39.0998Z" fill="#0D386B"/>
<path d="M129.4 35.6C129.1 35.9 128.8 36.2 128.6 36.3C128.4 36.2 128.3 36 128.1 35.9C128 35.9 127.8 35.7 127.7 35.7L127.1 36.2C127.5 36.4 127.7 36.6 127.9 36.7C127.6 36.9 127.2 37 126.7 37.1L127.2 37.9C127.8 37.7 128.2 37.5 128.6 37.2C128.6 37.2 128.9 37.4 129.2 37.9L129.9 37.3C129.7 37.1 129.5 36.9 129.2 36.7C129.4 36.5 129.7 36.3 130 36L129.4 35.5V35.6Z" fill="#0D386B"/>
<path d="M127.8 42.8002C127.8 43.0002 127.7 43.2002 127.5 43.2002H125.9L126.2 44.1002H127.9C128.6 44.1002 129 43.7002 129 42.9002V42.4002H133.8V41.5002H129C130 41.2002 130.8 40.9002 131.5 40.5002V39.7002H125.1V40.5002H130C129.2 40.7002 128.5 40.9002 128 41.0002V41.5002H123V42.4002H128V42.9002L127.8 42.8002Z" fill="#0D386B"/>
<path d="M126.5 34.9L127.1 35.7C127.6 35.5 128.1 35.2 128.5 35C128.5 35 128.8 35.2 129.1 35.7L129.8 35.2C129.6 34.9 129.3 34.7 129.2 34.6C129.5 34.4 129.7 34.2 129.9 34L129.3 33.5C129.2 33.7 128.9 33.9 128.6 34.1C128.3 33.9 128 33.7 127.7 33.5L127.1 34C127.4 34.2 127.7 34.4 127.9 34.5C127.7 34.6 127.3 34.8 126.6 35L126.5 34.9Z" fill="#0D386B"/>
<path d="M52.2001 57.0996V49.5996H54.2001V48.5996H49.1001V49.5996H51.1001V57.0996H52.2001Z" fill="#0D386B"/>
<path d="M56.1 48.7002H55V57.2002H56.1V53.1002H60.2V57.2002H61.3V48.7002H60.2V52.1002H56.1V48.7002Z" fill="#0D386B"/>
<path d="M67.3998 56.1996H63.8998V52.9996H67.2998V51.9996H63.8998V49.5996H67.3998V48.5996H62.7998V57.0996H67.3998V56.0996V56.1996Z" fill="#0D386B"/>
<path d="M73.2001 48.7002H72.1001V57.2002H73.2001V53.1002H77.2001V57.2002H78.3001V48.7002H77.2001V52.1002H73.2001V48.7002Z" fill="#0D386B"/>
<path d="M83.7998 48.5C81.3998 48.5 79.2998 50.5 79.2998 52.9C79.2998 55.3 81.2998 57.3 83.7998 57.3C86.2998 57.3 88.2998 55.4 88.2998 52.9C88.2998 50.4 86.2998 48.5 83.7998 48.5ZM83.7998 56.3C81.9998 56.3 80.3998 54.8 80.3998 52.9C80.3998 51 81.7998 49.5 83.7998 49.5C85.7998 49.5 87.1998 51.1 87.1998 52.9C87.1998 54.7 85.5998 56.3 83.7998 56.3Z" fill="#0D386B"/>
<path d="M90.2997 50.7998L96.6997 57.4998V48.6998H95.5997V54.9998L89.1997 48.2998V57.1998H90.2997V50.8998V50.7998Z" fill="#0D386B"/>
<path d="M102.2 49.4C103.2 49.4 104.3 49.9 104.9 50.8L105.6 50.1C104.8 49.1 103.5 48.5 102.1 48.5C99.5997 48.5 97.6997 50.5 97.6997 52.9C97.6997 55.3 99.5997 57.3 102 57.3C104.4 57.3 106 55.5 106 53.2V52.9H102.6V53.9H104.8C104.8 55.3 103.3 56.4 102 56.4C100.7 56.4 98.6997 54.7 98.6997 52.9C98.6997 51.1 100.2 49.5 102.1 49.5L102.2 49.4Z" fill="#0D386B"/>
<path d="M116.8 57.0996L112.9 52.3996L116.7 48.5996H115.3L111.7 52.2996V48.5996H110.6V57.0996H111.7V53.5996L112.1 53.1996L115.3 57.0996H116.7H116.8Z" fill="#0D386B"/>
<path d="M116.9 52.9C116.9 55.4 118.9 57.3 121.4 57.3C123.9 57.3 125.8 55.4 125.8 52.9C125.8 50.4 123.8 48.5 121.4 48.5C119 48.5 116.9 50.5 116.9 52.9ZM121.4 49.5C123.4 49.5 124.8 51.1 124.8 52.9C124.8 54.7 123.2 56.3 121.4 56.3C119.6 56.3 118 54.8 118 52.9C118 51 119.4 49.5 121.4 49.5Z" fill="#0D386B"/>
<path d="M133.3 54.9002L126.9 48.2002V57.1002H128V50.8002L134.4 57.5002V48.7002H133.3V55.0002V54.9002Z" fill="#0D386B"/>
<path d="M139.7 57.2996C142.1 57.2996 143.7 55.4996 143.7 53.1996V52.8996H140.3V53.8996H142.5C142.5 55.2996 141 56.3996 139.7 56.3996C138.4 56.3996 136.4 54.6996 136.4 52.8996C136.4 51.0996 137.9 49.4996 139.8 49.4996C141.7 49.4996 141.9 49.9996 142.5 50.8996L143.2 50.1996C142.4 49.1996 141.1 48.5996 139.7 48.5996C137.2 48.5996 135.3 50.5996 135.3 52.9996C135.3 55.3996 137.2 57.3996 139.6 57.3996L139.7 57.2996Z" fill="#0D386B"/>
<path d="M52.7997 70.7996C54.7997 70.7996 55.8997 69.3996 55.8997 67.4996V62.0996H54.7997V67.0996C54.7997 68.4996 54.3997 69.7996 52.7997 69.7996C51.1997 69.7996 50.7997 68.4996 50.7997 67.0996V62.0996H49.6997V67.4996C49.6997 69.3996 50.8997 70.7996 52.7997 70.7996Z" fill="#0D386B"/>
<path d="M58.4999 64.2998L64.8999 70.9998V62.1998H63.7999V68.4998L57.3999 61.7998V70.6998H58.4999V64.3998V64.2998Z" fill="#0D386B"/>
<path d="M67.4999 62.0996H66.3999V70.5996H67.4999V62.0996Z" fill="#0D386B"/>
<path d="M71.9998 68.3996L69.4998 62.0996H68.2998L71.9998 70.9996L75.6998 62.0996H74.4998L71.9998 68.3996Z" fill="#0D386B"/>
<path d="M81.1 69.6996H77.6V66.4996H81V65.4996H77.6V63.0996H81.1V62.0996H76.5V70.5996H81.1V69.5996V69.6996Z" fill="#0D386B"/>
<path d="M87.2001 64.6002C87.2001 63.8002 86.8001 63.0002 86.1001 62.6002C85.4001 62.2002 84.6001 62.2002 83.9001 62.2002H82.6001V70.7002H83.7001V67.1002H84.1001L86.6001 70.7002H87.9001L85.2001 67.0002C86.4001 66.8002 87.2001 65.8002 87.2001 64.6002ZM84.0001 66.2002H83.7001V63.1002H84.0001C85.1001 63.1002 86.3001 63.3002 86.3001 64.6002C86.3001 65.9002 85.1001 66.1002 84.0001 66.1002V66.2002Z" fill="#0D386B"/>
<path d="M91.0998 69.7996C90.1998 69.7996 89.3998 69.0996 89.3998 68.1996L88.2998 68.3996C88.4998 69.7996 89.4998 70.7996 90.8998 70.7996C92.2998 70.7996 93.5998 69.6996 93.5998 68.1996C93.5998 66.6996 92.6998 66.0996 91.4998 65.6996L90.8998 65.4996C90.3998 65.2996 89.6998 64.9996 89.6998 64.2996C89.6998 63.5996 90.3998 63.0996 91.0998 63.0996C91.7998 63.0996 92.0998 63.3996 92.4998 63.8996L93.3998 63.3996C92.8998 62.5996 92.1998 62.0996 91.1998 62.0996C90.1998 62.0996 88.6998 62.8996 88.6998 64.2996C88.6998 65.6996 89.5998 65.9996 90.4998 66.4996L91.0998 66.6996C91.7998 66.9996 92.5998 67.3996 92.5998 68.2996C92.5998 69.1996 91.8998 69.9996 90.9998 69.9996L91.0998 69.7996Z" fill="#0D386B"/>
<path d="M95.9999 62.0996H94.8999V70.5996H95.9999V62.0996Z" fill="#0D386B"/>
<path d="M99.9999 70.5996V63.0996H102V62.0996H96.8999V63.0996H98.8999V70.5996H99.9999Z" fill="#0D386B"/>
<path d="M103.3 62.0996H102.1L104.9 66.8996V70.5996H106V66.8996L108.8 62.0996H107.6L105.5 65.6996L103.4 62.0996H103.3Z" fill="#0D386B"/>
<path d="M116.7 70.8C119.2 70.8 121.2 68.9 121.2 66.4C121.2 63.9 119.2 62 116.7 62C114.2 62 112.2 64 112.2 66.4C112.2 68.8 114.2 70.8 116.7 70.8ZM116.7 63C118.7 63 120.1 64.6 120.1 66.4C120.1 68.2 118.5 69.8 116.7 69.8C114.9 69.8 113.3 68.3 113.3 66.4C113.3 64.5 114.7 63 116.7 63Z" fill="#0D386B"/>
<path d="M123.4 66.4996H126.3V65.4996H123.4V63.0996H126.4V62.0996H122.3V70.5996H123.4V66.3996V66.4996Z" fill="#0D386B"/>
<path d="M134 65.6L133.4 65.4C132.9 65.2 132.2 64.9 132.2 64.2C132.2 63.5 132.9 63 133.6 63C134.3 63 134.7 63.3 135 63.8L135.8 63.3C135.3 62.5 134.6 62 133.6 62C132.6 62 131.1 62.8 131.1 64.2C131.1 65.6 132 65.9 133 66.4L133.6 66.6C134.3 66.9 135.1 67.3 135.1 68.2C135.1 69.1 134.4 69.9 133.5 69.9C132.6 69.9 131.8 69.2 131.9 68.3L130.8 68.5C131 69.9 132 70.9 133.4 70.9C134.8 70.9 136.1 69.8 136.1 68.3C136.1 66.8 135.2 66.2 134 65.7V65.6Z" fill="#0D386B"/>
<path d="M141.3 62.9004C142.1 62.9004 142.9 63.2004 143.5 63.7004V62.5004C142.9 62.1004 142.1 61.9004 141.4 61.9004C138.9 61.9004 136.9 63.9004 136.9 66.4004C136.9 68.9004 138.9 70.8004 141.3 70.8004C143.7 70.8004 142.9 70.6004 143.5 70.2004V69.0004C142.9 69.6004 142.1 69.9004 141.2 69.9004C139.3 69.9004 137.9 68.3004 137.9 66.5004C137.9 64.7004 139.4 63.0004 141.3 63.0004V62.9004Z" fill="#0D386B"/>
<path d="M145.9 62.0996H144.8V70.5996H145.9V62.0996Z" fill="#0D386B"/>
<path d="M147.6 70.6H152.2V69.6H148.7V66.4H152.1V65.4H148.7V63H152.2V62H147.6V70.5V70.6Z" fill="#0D386B"/>
<path d="M159.9 68.4002L153.5 61.7002V70.6002H154.6V64.3002L161 71.0002V62.2002H159.9V68.5002V68.4002Z" fill="#0D386B"/>
<path d="M162.1 66.4C162.1 68.8 164.1 70.8 166.5 70.8C168.9 70.8 168.1 70.6 168.7 70.2V69C168.1 69.6 167.3 69.9 166.4 69.9C164.5 69.9 163.1 68.3 163.1 66.5C163.1 64.7 164.6 63 166.5 63C168.4 63 168.1 63.3 168.7 63.8V62.6C168.1 62.2 167.3 62 166.6 62C164.1 62 162.1 64 162.1 66.5V66.4Z" fill="#0D386B"/>
<path d="M174.7 63.0996V62.0996H170.1V70.5996H174.7V69.5996H171.2V66.3996H174.6V65.3996H171.2V62.9996H174.7V63.0996Z" fill="#0D386B"/>
<path d="M48.9999 84.0998H50.0999L51.0999 81.9998H54.9999L55.9999 84.0998H57.0999L52.9999 75.2998L48.8999 84.0998H48.9999ZM51.4999 80.9998L52.9999 77.5998L54.4999 80.9998H51.4999Z" fill="#0D386B"/>
<path d="M64.1998 81.9002L57.7998 75.2002V84.1002H58.8998V77.8002L65.2998 84.5002V75.7002H64.1998V82.0002V81.9002Z" fill="#0D386B"/>
<path d="M68.4997 75.5996H66.6997V84.0996H68.3997C71.0997 84.0996 73.1997 82.6996 73.1997 79.7996C73.1997 76.8996 70.9997 75.5996 68.3997 75.5996H68.4997ZM68.1997 83.1996H67.7997V76.6996H68.1997C70.3997 76.6996 72.1997 77.4996 72.1997 79.9996C72.1997 82.4996 70.2997 83.2996 68.1997 83.2996V83.1996Z" fill="#0D386B"/>
<path d="M77.1001 76.5996H79.1001V84.0996H80.2001V76.5996H82.2001V75.5996H77.1001V76.5996Z" fill="#0D386B"/>
<path d="M83.1001 84.1H87.7001V83.1H84.2001V79.9H87.6001V78.9H84.2001V76.5H87.7001V75.5H83.1001V84V84.1Z" fill="#0D386B"/>
<path d="M88.6 79.9C88.6 82.4 90.6 84.3 93 84.3C95.4 84.3 94.6 84.1 95.2 83.7V82.5C94.6 83.1 93.8 83.4 92.9 83.4C91 83.4 89.6 81.8 89.6 80C89.6 78.2 91.1 76.5 93 76.5C94.9 76.5 94.6 76.8 95.2 77.3V76.1C94.6 75.7 93.8 75.5 93 75.5C90.5 75.5 88.5 77.5 88.5 80L88.6 79.9Z" fill="#0D386B"/>
<path d="M101.7 79.1002H97.6V75.7002H96.5V84.2002H97.6V80.1002H101.7V84.2002H102.8V75.7002H101.7V79.1002Z" fill="#0D386B"/>
<path d="M110.7 81.9002L104.3 75.2002V84.1002H105.4V77.8002L111.8 84.5002V75.7002H110.7V82.0002V81.9002Z" fill="#0D386B"/>
<path d="M117.2 75.5C114.8 75.5 112.7 77.5 112.7 79.9C112.7 82.3 114.7 84.3 117.2 84.3C119.7 84.3 121.7 82.4 121.7 79.9C121.7 77.4 119.7 75.5 117.2 75.5ZM117.2 83.3C115.4 83.3 113.8 81.8 113.8 79.9C113.8 78 115.2 76.5 117.2 76.5C119.2 76.5 120.6 78.1 120.6 79.9C120.6 81.7 119 83.3 117.2 83.3Z" fill="#0D386B"/>
<path d="M123.9 75.5996H122.8V84.0996H126.5V83.0996H123.9V75.5996Z" fill="#0D386B"/>
<path d="M131.1 75.5C128.7 75.5 126.6 77.5 126.6 79.9C126.6 82.3 128.6 84.3 131.1 84.3C133.6 84.3 135.5 82.4 135.5 79.9C135.5 77.4 133.5 75.5 131.1 75.5ZM131.1 83.3C129.3 83.3 127.7 81.8 127.7 79.9C127.7 78 129.1 76.5 131.1 76.5C133.1 76.5 134.5 78.1 134.5 79.9C134.5 81.7 132.9 83.3 131.1 83.3Z" fill="#0D386B"/>
<path d="M141.1 80.8H143.3C143.3 82.2 141.8 83.3 140.5 83.3C139.2 83.3 137.2 81.6 137.2 79.8C137.2 78 138.7 76.4 140.6 76.4C142.5 76.4 142.7 77 143.3 77.8L144 77.1C143.2 76.1 141.9 75.5 140.5 75.5C138.1 75.5 136.1 77.5 136.1 79.9C136.1 82.3 138 84.3 140.4 84.3C142.8 84.3 144.4 82.5 144.4 80.2V79.9H141V80.9L141.1 80.8Z" fill="#0D386B"/>
<path d="M148.1 79.3002L146 75.7002H144.8L147.6 80.5002V84.2002H148.7V80.5002L151.5 75.7002H150.3L148.2 79.3002H148.1Z" fill="#0D386B"/>
<path d="M42.7001 101.6H8.6001V90.7002H8.8001V101.3H42.4001V90.7002H42.6001V101.6H42.7001Z" fill="#231815"/>
<path d="M172.3 101.6H48.2998V90.7002H48.4998V101.3H171.9V90.7002H172.1V101.6H172.3Z" fill="#231815"/>
<path d="M133.7 26.9H133.5V16.3H48.5999V26.9H48.3999V16H133.7V26.9Z" fill="#231815"/>
<path d="M32.1997 42.9996C32.3997 42.6996 32.4997 42.0996 32.4997 42.0996H17.6997C17.6997 42.0996 17.8997 42.6996 17.9997 42.9996H32.0997H32.1997Z" fill="#A28038"/>
<path d="M31.2999 44.2996C31.5999 44.0996 31.8999 43.5996 31.8999 43.5996H18.3999C18.3999 43.5996 18.4999 43.9996 18.8999 44.2996H31.3999H31.2999Z" fill="#A28038"/>
<path d="M30.2998 45.3994C30.5998 45.1994 30.8998 44.8994 30.8998 44.8994H19.2998C19.2998 44.8994 19.5998 45.1994 19.8998 45.3994H30.2998Z" fill="#A28038"/>
<path d="M28.9001 46.4996C29.2001 46.3996 29.6001 46.0996 29.6001 46.0996H20.6001C20.6001 46.0996 20.6001 46.0996 21.2001 46.4996H28.9001Z" fill="#A28038"/>
<path d="M22.2998 47.2002C22.2998 47.2002 23.1998 47.7002 25.0998 47.7002C26.9998 47.7002 28.1998 47.2002 28.1998 47.2002H22.2998Z" fill="#A28038"/>
<path d="M22.0999 48.3994C22.0999 48.3994 23.1999 48.3994 23.8999 48.9994C24.4999 49.4994 24.9999 50.4994 24.9999 50.4994C24.9999 50.4994 25.3999 49.5994 25.9999 49.1994C26.5999 48.6994 27.6999 48.4994 27.6999 48.4994H39.3999L41.6999 51.8994H31.1999C31.1999 51.8994 30.4999 51.8994 29.3999 52.5994C28.7999 52.8994 28.3999 53.4994 28.3999 53.4994C28.3999 53.4994 28.3999 53.7994 28.1999 53.8994C28.0999 54.0994 27.9999 54.1994 27.7999 54.1994C27.5999 54.1994 27.6999 54.1994 27.6999 54.1994H22.1999C22.1999 54.1994 21.9999 54.1994 21.8999 53.8994C21.7999 53.6994 21.8999 53.7994 21.7999 53.5994C21.7999 53.4994 21.4999 53.0994 20.6999 52.4994C19.7999 51.8994 18.9999 51.8994 18.9999 51.8994H8.3999L10.6999 48.3994H22.1999H22.0999Z" fill="#0D386B"/>
<path d="M13.8998 53.2002V70.5002C13.8998 70.5002 13.8998 72.0002 15.2998 74.1002C16.5998 76.2002 18.3998 77.1002 18.3998 77.1002L19.8998 74.8002C19.8998 74.8002 18.5998 74.0002 17.5998 72.6002C16.5998 71.1002 16.5998 69.9002 16.5998 69.9002V53.2002H13.7998H13.8998Z" fill="#0D386B"/>
<path d="M33.6 53.2002V69.9002C33.6 69.9002 33.4 71.6002 32.6 72.8002C31.8 74.0002 30.5 75.0002 30.5 75.0002L31.9 77.3002C31.9 77.3002 34 75.7002 35.1 74.1002C36.1 72.4002 36.4 70.0002 36.4 70.0002V53.3002H33.6V53.2002Z" fill="#0D386B"/>
<path d="M9.5 53.2002V70.6002C9.5 70.6002 9.7 73.3002 11.4 76.1002C13.1 78.9002 16.2 80.9002 16.2 80.9002L17.6 78.6002C17.6 78.6002 15.6 77.6002 14.1 75.2002C12.5 72.8002 12.4 70.6002 12.4 70.6002V53.3002H9.5V53.2002Z" fill="#0D386B"/>
<path d="M22.0997 55V73.4C22.0997 73.4 22.0997 73.4 22.0997 73.7C22.0997 74 21.8997 74.2 21.8997 74.2L15.6997 84.4H34.5997L28.3997 74L28.1997 73.5V73V55H25.8997V73.7C25.8997 73.7 25.8997 74 25.8997 74.2C25.8997 74.4 26.0997 74.8 26.0997 74.8L29.8997 81H20.2997L23.9997 74.8C23.9997 74.8 24.0997 74.6 24.1997 74.3C24.1997 74 24.1997 73.8 24.1997 73.8V55.1H21.9997L22.0997 55Z" fill="#A28038"/>
<path d="M37.8998 53.1996V70.2996C37.8998 70.2996 37.8998 72.4996 36.2998 74.9996C34.6998 77.4996 32.7998 78.5996 32.7998 78.5996L34.1998 80.8996C34.1998 80.8996 36.9998 79.0996 38.7998 76.2996C40.5998 73.4996 40.7998 70.1996 40.7998 70.1996V53.0996H37.9998L37.8998 53.1996Z" fill="#0D386B"/>
<path d="M17.6999 41.6994C17.6999 41.6994 16.6999 36.4994 20.5999 33.9994C20.5999 33.9994 22.2999 32.3994 25.0999 32.3994C27.8999 32.3994 29.7999 33.9994 29.7999 33.9994C33.8999 36.9994 32.6999 41.7994 32.6999 41.7994H17.7999L17.6999 41.6994Z" fill="#A28038"/>
<path d="M49.2997 39.5998C49.7997 39.3998 50.0997 39.2998 50.2997 39.1998V44.0998H51.3997V43.5998H57.0997V44.0998H58.1997V39.0998C58.2997 39.0998 58.4997 39.2998 58.6997 39.2998C58.8997 39.2998 59.0997 39.3998 59.1997 39.4998L59.6997 38.4998C57.9997 38.1998 56.7997 37.5998 55.8997 36.6998H59.5997V35.6998H54.6997V34.6998C56.2997 34.5998 57.5997 34.3998 58.5997 34.1998L58.0997 33.2998C56.4997 33.6998 54.1997 33.7998 51.0997 33.7998C47.9997 33.7998 49.8997 33.7998 49.4997 33.7998L49.8997 34.8998C50.6997 34.8998 51.8997 34.8998 53.5997 34.8998V35.7998H48.7997V36.7998H52.3997C51.3997 37.6998 50.0997 38.2998 48.6997 38.5998L49.2997 39.5998ZM56.9997 42.6998H51.2997V41.6998H56.9997V42.6998ZM54.6997 36.7998C55.3997 37.7998 56.3997 38.4998 57.5997 38.8998H54.6997V36.7998ZM56.9997 39.8998V40.7998H51.2997V39.8998H56.9997ZM53.5997 36.7998V38.8998H50.9997C52.0997 38.3998 52.9997 37.6998 53.5997 36.7998Z" fill="#0D386B"/>
<path d="M66.4001 34.8996V35.4996H67.9001V36.5996H66.1001V37.5996H68.0001C67.7001 38.2996 66.8001 38.9996 65.6001 39.5996L66.3001 40.5996C66.8001 40.2996 67.2001 39.9996 67.4001 39.8996V42.4996C67.4001 42.9996 67.4001 43.3996 67.7001 43.5996C67.9001 43.7996 68.3001 43.8996 68.7001 43.8996H72.5001C73.1001 43.8996 73.5001 43.8996 73.7001 43.5996C73.9001 43.3996 74.1001 42.6996 74.2001 41.6996L73.1001 41.2996C73.1001 41.8996 73.0001 42.2996 72.9001 42.5996C72.9001 42.7996 72.6001 42.9996 72.3001 42.9996H68.9001C68.6001 42.9996 68.5001 42.8996 68.5001 42.5996V41.8996H72.2001V39.4996C72.7001 39.8996 73.2001 40.2996 74.0001 40.7996L74.5001 39.7996C73.3001 39.1996 72.5001 38.5996 72.2001 37.8996H74.4001V36.8996H72.3001V35.6996H74.2001V34.7996H72.3001V33.5996H71.3001V34.7996H69.2001V33.5996H68.1001V34.7996H66.6001V34.9996C66.1001 34.5996 65.6001 34.2996 64.9001 33.8996L64.1001 34.6996C64.6001 34.9996 65.2001 35.4996 65.8001 35.9996L66.5001 35.0996L66.4001 34.8996ZM69.0001 35.5996H71.1001V36.6996H69.0001V35.5996ZM69.3001 37.6996H70.9001C71.1001 38.0996 71.3001 38.4996 71.6001 38.6996H68.6001C68.9001 38.3996 69.1001 38.0996 69.3001 37.6996ZM68.4001 39.5996H71.1001V40.6996H68.4001V39.5996Z" fill="#0D386B"/>
<path d="M66.0997 37.6996C65.4997 37.1996 64.8997 36.8996 64.3997 36.5996L63.6997 37.4996C64.1997 37.7996 64.6997 38.1996 65.2997 38.6996L66.0997 37.6996Z" fill="#0D386B"/>
<path d="M66.0001 40.6L65.0001 40C64.8001 41.1 64.3001 42.1 63.6001 43.1L64.5001 44C65.2001 43 65.7001 41.8 66.0001 40.6Z" fill="#0D386B"/>
<path d="M86.6999 35.6002C85.7999 34.9002 85.0999 34.5002 84.5999 34.2002L83.8999 35.0002C84.3999 35.3002 85.0999 35.8002 85.9999 36.5002L86.6999 35.6002Z" fill="#0D386B"/>
<path d="M78.9998 41.9998C79.7998 40.9998 80.2998 40.1998 80.5998 39.3998V44.0998H81.6998V38.6998C81.8998 38.9998 82.0998 39.1998 82.2998 39.4998C82.4998 39.7998 82.7998 40.0998 82.9998 40.3998L83.6998 39.3998C83.2998 38.8998 82.5998 38.2998 81.6998 37.4998C81.6998 37.3998 83.4998 37.3998 83.4998 37.3998V36.3998H81.6998V34.7998C82.2998 34.6998 82.8998 34.4998 83.4998 34.2998L83.0998 33.2998C81.8998 33.7998 80.3998 34.0998 78.5998 34.0998L78.7998 35.0998C79.5998 35.0998 80.1998 34.9998 80.5998 34.8998V36.2998H78.3998V37.2998H80.4998C79.9998 38.5998 79.2998 39.7998 78.2998 40.8998L78.9998 41.8998V41.9998Z" fill="#0D386B"/>
<path d="M83.2998 41.5998L87.1998 40.9998V44.1998H88.2998V40.8998L89.2998 40.6998V39.5998L88.2998 39.7998V33.2998H87.1998V39.8998L83.2998 40.4998V41.5998Z" fill="#0D386B"/>
<path d="M86.4997 38.4C85.6997 37.7 84.8997 37.3 84.3997 37L83.6997 37.8C84.2997 38.2 84.9997 38.7 85.7997 39.3L86.4997 38.4Z" fill="#0D386B"/>
<path d="M93.1997 39.3994L93.4997 40.5994C93.8997 40.5994 94.3997 40.3994 94.9997 40.1994V42.4994C94.9997 42.6994 94.8997 42.8994 94.5997 42.8994H93.5997L93.8997 43.9994H94.7997C95.3997 43.9994 95.6997 43.9994 95.8997 43.6994C96.0997 43.4994 96.0997 43.1994 96.0997 42.5994V39.7994C96.7997 39.5994 97.1997 39.3994 97.3997 39.2994V38.1994C97.0997 38.2994 96.6997 38.4994 96.0997 38.6994V36.6994H97.4997V35.9994H99.9997V37.4994H97.6997V38.5994H102.3C102 39.5994 101.4 40.3994 100.6 40.9994C100.1 40.4994 99.4997 39.6994 98.9997 38.7994L97.9997 39.1994C98.5997 40.1994 99.0997 41.0994 99.6997 41.6994C98.5997 42.4994 97.4997 42.8994 96.3997 43.1994L96.9997 44.2994C98.0997 44.0994 99.2997 43.4994 100.5 42.5994C101.4 43.3994 102.3 43.9994 103.4 44.2994L104 43.1994C103 42.8994 102.2 42.4994 101.4 41.8994C101.8 41.4994 102.3 40.9994 102.7 40.2994C103.1 39.5994 103.4 39.0994 103.5 38.6994V37.6994H101.2V36.1994H103.9V35.0994H101.2V33.4994H99.9997V35.0994H97.4997V35.7994H96.0997V33.3994H94.9997V35.7994H93.2997V36.7994H94.9997V39.0994C94.3997 39.2994 93.7997 39.3994 93.1997 39.3994Z" fill="#0D386B"/>
<path d="M108 43.0994L108.9 44.1994C111.5 42.4994 113.1 40.2994 113.6 37.4994H113.8C114.6 40.5994 116 42.7994 118.1 44.1994L119 43.0994C117.8 42.2994 116.9 41.4994 116.3 40.3994C115.6 39.3994 115.2 38.3994 115.1 37.4994H118.8V36.2994H113.9C113.9 35.6994 113.9 34.6994 113.9 33.3994H112.7C112.7 34.5994 112.7 35.5994 112.5 36.2994H108.3V37.4994H112.3C112.1 38.5994 111.6 39.5994 110.9 40.6994C110.1 41.6994 109.2 42.4994 108.1 43.1994L108 43.0994Z" fill="#0D386B"/>
<path d="M124.1 39.0998H132.5V40.7998H133.5V38.1998H132.9V33.5998C133 33.5998 130.2 33.5998 130.2 33.5998V34.4998H132V35.0998H130.3V35.8998H132V36.5998H130.3V37.3998H131.9V38.1998H124.6V37.3998H126.3V36.5998H124.5V35.8998H126.3V35.0998H124.5V34.4998C125.4 34.4998 126.1 34.2998 126.5 34.1998L126 33.2998C125.3 33.4998 124.5 33.5998 123.4 33.5998V37.9998C123.5 37.9998 123 37.9998 123 37.9998V40.5998H124V38.8998L124.1 39.0998Z" fill="#0D386B"/>
<path d="M129.4 35.6C129.1 35.9 128.8 36.2 128.6 36.3C128.4 36.2 128.3 36 128.1 35.9C128 35.9 127.8 35.7 127.7 35.7L127.1 36.2C127.5 36.4 127.7 36.6 127.9 36.7C127.6 36.9 127.2 37 126.7 37.1L127.2 37.9C127.8 37.7 128.2 37.5 128.6 37.2C128.6 37.2 128.9 37.4 129.2 37.9L129.9 37.3C129.7 37.1 129.5 36.9 129.2 36.7C129.4 36.5 129.7 36.3 130 36L129.4 35.5V35.6Z" fill="#0D386B"/>
<path d="M127.8 42.8002C127.8 43.0002 127.7 43.2002 127.5 43.2002H125.9L126.2 44.1002H127.9C128.6 44.1002 129 43.7002 129 42.9002V42.4002H133.8V41.5002H129C130 41.2002 130.8 40.9002 131.5 40.5002V39.7002H125.1V40.5002H130C129.2 40.7002 128.5 40.9002 128 41.0002V41.5002H123V42.4002H128V42.9002L127.8 42.8002Z" fill="#0D386B"/>
<path d="M126.5 34.9L127.1 35.7C127.6 35.5 128.1 35.2 128.5 35C128.5 35 128.8 35.2 129.1 35.7L129.8 35.2C129.6 34.9 129.3 34.7 129.2 34.6C129.5 34.4 129.7 34.2 129.9 34L129.3 33.5C129.2 33.7 128.9 33.9 128.6 34.1C128.3 33.9 128 33.7 127.7 33.5L127.1 34C127.4 34.2 127.7 34.4 127.9 34.5C127.7 34.6 127.3 34.8 126.6 35L126.5 34.9Z" fill="#0D386B"/>
<path d="M52.2001 57.0996V49.5996H54.2001V48.5996H49.1001V49.5996H51.1001V57.0996H52.2001Z" fill="#0D386B"/>
<path d="M56.1 48.7002H55V57.2002H56.1V53.1002H60.2V57.2002H61.3V48.7002H60.2V52.1002H56.1V48.7002Z" fill="#0D386B"/>
<path d="M67.3998 56.1996H63.8998V52.9996H67.2998V51.9996H63.8998V49.5996H67.3998V48.5996H62.7998V57.0996H67.3998V56.0996V56.1996Z" fill="#0D386B"/>
<path d="M73.2001 48.7002H72.1001V57.2002H73.2001V53.1002H77.2001V57.2002H78.3001V48.7002H77.2001V52.1002H73.2001V48.7002Z" fill="#0D386B"/>
<path d="M83.7998 48.5C81.3998 48.5 79.2998 50.5 79.2998 52.9C79.2998 55.3 81.2998 57.3 83.7998 57.3C86.2998 57.3 88.2998 55.4 88.2998 52.9C88.2998 50.4 86.2998 48.5 83.7998 48.5ZM83.7998 56.3C81.9998 56.3 80.3998 54.8 80.3998 52.9C80.3998 51 81.7998 49.5 83.7998 49.5C85.7998 49.5 87.1998 51.1 87.1998 52.9C87.1998 54.7 85.5998 56.3 83.7998 56.3Z" fill="#0D386B"/>
<path d="M90.2997 50.7998L96.6997 57.4998V48.6998H95.5997V54.9998L89.1997 48.2998V57.1998H90.2997V50.8998V50.7998Z" fill="#0D386B"/>
<path d="M102.2 49.4C103.2 49.4 104.3 49.9 104.9 50.8L105.6 50.1C104.8 49.1 103.5 48.5 102.1 48.5C99.5997 48.5 97.6997 50.5 97.6997 52.9C97.6997 55.3 99.5997 57.3 102 57.3C104.4 57.3 106 55.5 106 53.2V52.9H102.6V53.9H104.8C104.8 55.3 103.3 56.4 102 56.4C100.7 56.4 98.6997 54.7 98.6997 52.9C98.6997 51.1 100.2 49.5 102.1 49.5L102.2 49.4Z" fill="#0D386B"/>
<path d="M116.8 57.0996L112.9 52.3996L116.7 48.5996H115.3L111.7 52.2996V48.5996H110.6V57.0996H111.7V53.5996L112.1 53.1996L115.3 57.0996H116.7H116.8Z" fill="#0D386B"/>
<path d="M116.9 52.9C116.9 55.4 118.9 57.3 121.4 57.3C123.9 57.3 125.8 55.4 125.8 52.9C125.8 50.4 123.8 48.5 121.4 48.5C119 48.5 116.9 50.5 116.9 52.9ZM121.4 49.5C123.4 49.5 124.8 51.1 124.8 52.9C124.8 54.7 123.2 56.3 121.4 56.3C119.6 56.3 118 54.8 118 52.9C118 51 119.4 49.5 121.4 49.5Z" fill="#0D386B"/>
<path d="M133.3 54.9002L126.9 48.2002V57.1002H128V50.8002L134.4 57.5002V48.7002H133.3V55.0002V54.9002Z" fill="#0D386B"/>
<path d="M139.7 57.2996C142.1 57.2996 143.7 55.4996 143.7 53.1996V52.8996H140.3V53.8996H142.5C142.5 55.2996 141 56.3996 139.7 56.3996C138.4 56.3996 136.4 54.6996 136.4 52.8996C136.4 51.0996 137.9 49.4996 139.8 49.4996C141.7 49.4996 141.9 49.9996 142.5 50.8996L143.2 50.1996C142.4 49.1996 141.1 48.5996 139.7 48.5996C137.2 48.5996 135.3 50.5996 135.3 52.9996C135.3 55.3996 137.2 57.3996 139.6 57.3996L139.7 57.2996Z" fill="#0D386B"/>
<path d="M52.7997 70.7996C54.7997 70.7996 55.8997 69.3996 55.8997 67.4996V62.0996H54.7997V67.0996C54.7997 68.4996 54.3997 69.7996 52.7997 69.7996C51.1997 69.7996 50.7997 68.4996 50.7997 67.0996V62.0996H49.6997V67.4996C49.6997 69.3996 50.8997 70.7996 52.7997 70.7996Z" fill="#0D386B"/>
<path d="M58.4999 64.2998L64.8999 70.9998V62.1998H63.7999V68.4998L57.3999 61.7998V70.6998H58.4999V64.3998V64.2998Z" fill="#0D386B"/>
<path d="M67.4999 62.0996H66.3999V70.5996H67.4999V62.0996Z" fill="#0D386B"/>
<path d="M71.9998 68.3996L69.4998 62.0996H68.2998L71.9998 70.9996L75.6998 62.0996H74.4998L71.9998 68.3996Z" fill="#0D386B"/>
<path d="M81.1 69.6996H77.6V66.4996H81V65.4996H77.6V63.0996H81.1V62.0996H76.5V70.5996H81.1V69.5996V69.6996Z" fill="#0D386B"/>
<path d="M87.2001 64.6002C87.2001 63.8002 86.8001 63.0002 86.1001 62.6002C85.4001 62.2002 84.6001 62.2002 83.9001 62.2002H82.6001V70.7002H83.7001V67.1002H84.1001L86.6001 70.7002H87.9001L85.2001 67.0002C86.4001 66.8002 87.2001 65.8002 87.2001 64.6002ZM84.0001 66.2002H83.7001V63.1002H84.0001C85.1001 63.1002 86.3001 63.3002 86.3001 64.6002C86.3001 65.9002 85.1001 66.1002 84.0001 66.1002V66.2002Z" fill="#0D386B"/>
<path d="M91.0998 69.7996C90.1998 69.7996 89.3998 69.0996 89.3998 68.1996L88.2998 68.3996C88.4998 69.7996 89.4998 70.7996 90.8998 70.7996C92.2998 70.7996 93.5998 69.6996 93.5998 68.1996C93.5998 66.6996 92.6998 66.0996 91.4998 65.6996L90.8998 65.4996C90.3998 65.2996 89.6998 64.9996 89.6998 64.2996C89.6998 63.5996 90.3998 63.0996 91.0998 63.0996C91.7998 63.0996 92.0998 63.3996 92.4998 63.8996L93.3998 63.3996C92.8998 62.5996 92.1998 62.0996 91.1998 62.0996C90.1998 62.0996 88.6998 62.8996 88.6998 64.2996C88.6998 65.6996 89.5998 65.9996 90.4998 66.4996L91.0998 66.6996C91.7998 66.9996 92.5998 67.3996 92.5998 68.2996C92.5998 69.1996 91.8998 69.9996 90.9998 69.9996L91.0998 69.7996Z" fill="#0D386B"/>
<path d="M95.9999 62.0996H94.8999V70.5996H95.9999V62.0996Z" fill="#0D386B"/>
<path d="M99.9999 70.5996V63.0996H102V62.0996H96.8999V63.0996H98.8999V70.5996H99.9999Z" fill="#0D386B"/>
<path d="M103.3 62.0996H102.1L104.9 66.8996V70.5996H106V66.8996L108.8 62.0996H107.6L105.5 65.6996L103.4 62.0996H103.3Z" fill="#0D386B"/>
<path d="M116.7 70.8C119.2 70.8 121.2 68.9 121.2 66.4C121.2 63.9 119.2 62 116.7 62C114.2 62 112.2 64 112.2 66.4C112.2 68.8 114.2 70.8 116.7 70.8ZM116.7 63C118.7 63 120.1 64.6 120.1 66.4C120.1 68.2 118.5 69.8 116.7 69.8C114.9 69.8 113.3 68.3 113.3 66.4C113.3 64.5 114.7 63 116.7 63Z" fill="#0D386B"/>
<path d="M123.4 66.4996H126.3V65.4996H123.4V63.0996H126.4V62.0996H122.3V70.5996H123.4V66.3996V66.4996Z" fill="#0D386B"/>
<path d="M134 65.6L133.4 65.4C132.9 65.2 132.2 64.9 132.2 64.2C132.2 63.5 132.9 63 133.6 63C134.3 63 134.7 63.3 135 63.8L135.8 63.3C135.3 62.5 134.6 62 133.6 62C132.6 62 131.1 62.8 131.1 64.2C131.1 65.6 132 65.9 133 66.4L133.6 66.6C134.3 66.9 135.1 67.3 135.1 68.2C135.1 69.1 134.4 69.9 133.5 69.9C132.6 69.9 131.8 69.2 131.9 68.3L130.8 68.5C131 69.9 132 70.9 133.4 70.9C134.8 70.9 136.1 69.8 136.1 68.3C136.1 66.8 135.2 66.2 134 65.7V65.6Z" fill="#0D386B"/>
<path d="M141.3 62.8994C142.1 62.8994 142.9 63.1994 143.5 63.6994V62.4994C142.9 62.0994 142.1 61.8994 141.4 61.8994C138.9 61.8994 136.9 63.8994 136.9 66.3994C136.9 68.8994 138.9 70.7994 141.3 70.7994C143.7 70.7994 142.9 70.5994 143.5 70.1994V68.9994C142.9 69.5994 142.1 69.8994 141.2 69.8994C139.3 69.8994 137.9 68.2994 137.9 66.4994C137.9 64.6994 139.4 62.9994 141.3 62.9994V62.8994Z" fill="#0D386B"/>
<path d="M145.9 62.0996H144.8V70.5996H145.9V62.0996Z" fill="#0D386B"/>
<path d="M147.6 70.6H152.2V69.6H148.7V66.4H152.1V65.4H148.7V63H152.2V62H147.6V70.5V70.6Z" fill="#0D386B"/>
<path d="M159.9 68.4002L153.5 61.7002V70.6002H154.6V64.3002L161 71.0002V62.2002H159.9V68.5002V68.4002Z" fill="#0D386B"/>
<path d="M162.1 66.4C162.1 68.8 164.1 70.8 166.5 70.8C168.9 70.8 168.1 70.6 168.7 70.2V69C168.1 69.6 167.3 69.9 166.4 69.9C164.5 69.9 163.1 68.3 163.1 66.5C163.1 64.7 164.6 63 166.5 63C168.4 63 168.1 63.3 168.7 63.8V62.6C168.1 62.2 167.3 62 166.6 62C164.1 62 162.1 64 162.1 66.5V66.4Z" fill="#0D386B"/>
<path d="M174.7 63.0996V62.0996H170.1V70.5996H174.7V69.5996H171.2V66.3996H174.6V65.3996H171.2V62.9996H174.7V63.0996Z" fill="#0D386B"/>
<path d="M48.9999 84.0998H50.0999L51.0999 81.9998H54.9999L55.9999 84.0998H57.0999L52.9999 75.2998L48.8999 84.0998H48.9999ZM51.4999 80.9998L52.9999 77.5998L54.4999 80.9998H51.4999Z" fill="#0D386B"/>
<path d="M64.1998 81.9002L57.7998 75.2002V84.1002H58.8998V77.8002L65.2998 84.5002V75.7002H64.1998V82.0002V81.9002Z" fill="#0D386B"/>
<path d="M68.4997 75.5996H66.6997V84.0996H68.3997C71.0997 84.0996 73.1997 82.6996 73.1997 79.7996C73.1997 76.8996 70.9997 75.5996 68.3997 75.5996H68.4997ZM68.1997 83.1996H67.7997V76.6996H68.1997C70.3997 76.6996 72.1997 77.4996 72.1997 79.9996C72.1997 82.4996 70.2997 83.2996 68.1997 83.2996V83.1996Z" fill="#0D386B"/>
<path d="M77.1001 76.5996H79.1001V84.0996H80.2001V76.5996H82.2001V75.5996H77.1001V76.5996Z" fill="#0D386B"/>
<path d="M83.1001 84.1H87.7001V83.1H84.2001V79.9H87.6001V78.9H84.2001V76.5H87.7001V75.5H83.1001V84V84.1Z" fill="#0D386B"/>
<path d="M88.6 79.9C88.6 82.4 90.6 84.3 93 84.3C95.4 84.3 94.6 84.1 95.2 83.7V82.5C94.6 83.1 93.8 83.4 92.9 83.4C91 83.4 89.6 81.8 89.6 80C89.6 78.2 91.1 76.5 93 76.5C94.9 76.5 94.6 76.8 95.2 77.3V76.1C94.6 75.7 93.8 75.5 93 75.5C90.5 75.5 88.5 77.5 88.5 80L88.6 79.9Z" fill="#0D386B"/>
<path d="M101.7 79.1002H97.6V75.7002H96.5V84.2002H97.6V80.1002H101.7V84.2002H102.8V75.7002H101.7V79.1002Z" fill="#0D386B"/>
<path d="M110.7 81.9002L104.3 75.2002V84.1002H105.4V77.8002L111.8 84.5002V75.7002H110.7V82.0002V81.9002Z" fill="#0D386B"/>
<path d="M117.2 75.5C114.8 75.5 112.7 77.5 112.7 79.9C112.7 82.3 114.7 84.3 117.2 84.3C119.7 84.3 121.7 82.4 121.7 79.9C121.7 77.4 119.7 75.5 117.2 75.5ZM117.2 83.3C115.4 83.3 113.8 81.8 113.8 79.9C113.8 78 115.2 76.5 117.2 76.5C119.2 76.5 120.6 78.1 120.6 79.9C120.6 81.7 119 83.3 117.2 83.3Z" fill="#0D386B"/>
<path d="M123.9 75.5996H122.8V84.0996H126.5V83.0996H123.9V75.5996Z" fill="#0D386B"/>
<path d="M131.1 75.5C128.7 75.5 126.6 77.5 126.6 79.9C126.6 82.3 128.6 84.3 131.1 84.3C133.6 84.3 135.5 82.4 135.5 79.9C135.5 77.4 133.5 75.5 131.1 75.5ZM131.1 83.3C129.3 83.3 127.7 81.8 127.7 79.9C127.7 78 129.1 76.5 131.1 76.5C133.1 76.5 134.5 78.1 134.5 79.9C134.5 81.7 132.9 83.3 131.1 83.3Z" fill="#0D386B"/>
<path d="M141.1 80.8H143.3C143.3 82.2 141.8 83.3 140.5 83.3C139.2 83.3 137.2 81.6 137.2 79.8C137.2 78 138.7 76.4 140.6 76.4C142.5 76.4 142.7 77 143.3 77.8L144 77.1C143.2 76.1 141.9 75.5 140.5 75.5C138.1 75.5 136.1 77.5 136.1 79.9C136.1 82.3 138 84.3 140.4 84.3C142.8 84.3 144.4 82.5 144.4 80.2V79.9H141V80.9L141.1 80.8Z" fill="#0D386B"/>
<path d="M148.1 79.3002L146 75.7002H144.8L147.6 80.5002V84.2002H148.7V80.5002L151.5 75.7002H150.3L148.2 79.3002H148.1Z" fill="#0D386B"/>
<path d="M42.7001 101.6H8.6001V90.7002H8.8001V101.3H42.4001V90.7002H42.6001V101.6H42.7001Z" fill="#231815"/>
<path d="M172.3 101.6H48.2998V90.7002H48.4998V101.3H171.9V90.7002H172.1V101.6H172.3Z" fill="#231815"/>
<path d="M133.7 26.9H133.5V16.3H48.5999V26.9H48.3999V16H133.7V26.9Z" fill="#231815"/>
<path d="M19.7998 111.799L19.3998 112.099C19.1998 111.699 18.9998 111.299 18.7998 110.999V115.799H18.2998V111.099C17.8998 111.999 17.4998 112.699 17.0998 113.199L16.7998 112.799C17.2998 112.199 17.8998 111.199 18.2998 109.899H16.9998V109.399H18.2998V107.399H18.7998V109.399H19.7998V109.899H18.7998V110.199C19.1998 110.699 19.5998 111.299 19.7998 111.799ZM25.0998 115.399L24.7998 115.799C23.7998 115.299 22.9998 114.799 22.3998 114.199C21.6998 114.899 20.7998 115.399 19.7998 115.799L19.4998 115.399C20.6998 114.899 21.4998 114.399 22.0998 113.799C21.6998 113.199 21.2998 112.399 20.8998 111.499L21.2998 111.299C21.6998 112.299 21.9998 112.999 22.3998 113.399C22.7998 112.799 23.1998 111.999 23.4998 111.199L23.8998 111.399C23.5998 112.299 23.1998 112.999 22.6998 113.699C23.1998 114.199 23.9998 114.799 25.0998 115.299V115.399ZM24.8998 108.999H19.9998V108.499H22.2998C22.2998 108.199 22.0998 107.899 21.8998 107.599L22.3998 107.399C22.4998 107.599 22.6998 107.999 22.8998 108.499H24.9998V108.999H24.8998ZM21.9998 109.599C21.4998 110.399 20.8998 111.099 20.2998 111.599L19.8998 111.199C20.3998 110.699 20.9998 110.099 21.4998 109.199L21.8998 109.499L21.9998 109.599ZM25.0998 111.299L24.6998 111.599C24.2998 110.999 23.7998 110.399 23.0998 109.699L23.4998 109.399C24.0998 109.999 24.6998 110.599 25.1998 111.299H25.0998Z" fill="#231815" stroke="#231815" stroke-width="0.1" stroke-miterlimit="10"/>
<path d="M28.1997 109.799C28.1997 109.999 27.9997 110.199 27.8997 110.599L27.5997 111.099V115.799H27.0997V111.899C26.8997 112.199 26.6997 112.499 26.3997 112.799L26.1997 112.299C26.7997 111.499 27.3997 110.599 27.6997 109.599L28.0997 109.799H28.1997ZM28.1997 107.699C27.5997 108.699 27.0997 109.399 26.4997 109.899L26.1997 109.499C26.7997 108.999 27.2997 108.299 27.6997 107.499L28.0997 107.699H28.1997ZM29.3997 114.199C29.0997 114.599 28.6997 115.099 28.1997 115.399L27.8997 115.099C28.3997 114.699 28.7997 114.299 29.0997 113.899L29.4997 114.099L29.3997 114.199ZM31.8997 113.599L31.4997 113.799C31.4997 113.699 31.3997 113.499 31.2997 113.399H30.2997V115.299C30.2997 115.499 30.2997 115.699 30.0997 115.699C29.9997 115.699 29.6997 115.799 29.1997 115.699L28.9997 115.199C29.3997 115.199 29.5997 115.199 29.6997 115.199C29.7997 115.199 29.7997 115.199 29.7997 115.099V113.499C29.3997 113.499 28.8997 113.499 28.1997 113.599V113.199C28.6997 112.999 29.1997 112.599 29.6997 112.199H28.2997L28.1997 111.899C28.7997 111.599 29.2997 111.199 29.5997 110.699H28.1997V110.299H31.5997V110.699H30.1997C29.8997 111.099 29.4997 111.499 28.9997 111.799C29.3997 111.799 29.7997 111.799 30.2997 111.799C30.5997 111.499 30.7997 111.299 30.7997 111.299L31.1997 111.499C30.4997 112.199 29.7997 112.799 29.0997 113.099C29.7997 113.099 30.3997 112.999 30.9997 112.899C30.8997 112.699 30.7997 112.499 30.6997 112.399L31.0997 112.199C31.3997 112.499 31.5997 112.999 31.7997 113.399L31.8997 113.599ZM31.5997 109.799H28.4997V108.099H28.9997V109.399H29.8997V107.599H30.3997V109.399H31.1997V108.099H31.6997V109.799H31.5997ZM31.6997 114.899L31.2997 115.099C31.0997 114.699 30.8997 114.399 30.6997 114.099L31.0997 113.899C31.2997 114.199 31.4997 114.499 31.6997 114.899ZM34.5997 115.499L34.2997 115.899C33.7997 115.499 33.2997 114.999 32.9997 114.499C32.6997 114.999 32.2997 115.399 31.7997 115.899L31.3997 115.599C31.9997 114.999 32.4997 114.499 32.6997 114.099C32.3997 113.499 32.1997 112.699 31.9997 111.799H32.3997C32.5997 112.599 32.6997 113.199 32.8997 113.599C33.1997 112.799 33.3997 111.499 33.4997 109.699H32.6997C32.3997 110.499 32.0997 111.099 31.7997 111.499L31.3997 111.299C31.9997 110.399 32.3997 109.099 32.6997 107.599H33.1997C33.0997 108.399 32.9997 108.899 32.8997 109.299H34.4997V109.799H33.9997C33.9997 111.799 33.5997 113.299 33.1997 114.199C33.3997 114.699 33.8997 115.099 34.4997 115.699L34.5997 115.499Z" fill="#231815" stroke="#231815" stroke-width="0.1" stroke-miterlimit="10"/>
<path d="M100.1 112.9H96.0999C95.5999 114.4 94.2999 115.3 92.1999 115.7L91.8999 115.3C93.8999 115 95.0999 114.2 95.5999 113H92.0999V112.5H92.9999V110.4H95.8999V109.5H96.3999V110.4H99.1999V112.5H100.1V113V112.9ZM95.8999 108.8H94.6999V109.8H94.1999V108.8H91.9999V108.3H94.1999V107.3H94.6999V108.3H95.8999V108.8ZM95.7999 110.8H93.3999V112.4H95.5999C95.5999 112 95.6999 111.4 95.7999 110.8ZM98.6999 112.4V110.8H96.3999C96.3999 111.3 96.3999 111.9 96.2999 112.4H98.7999H98.6999ZM100.2 108.8H97.9999V109.8H97.4999V108.8H96.2999V108.3H97.4999V107.3H97.9999V108.3H100.2V108.8ZM100.2 115.3L99.8999 115.7C98.8999 115 97.6999 114.3 96.2999 113.8L96.5999 113.4C97.7999 113.9 98.9999 114.5 100.2 115.3Z" fill="#231815" stroke="#231815" stroke-width="0.1" stroke-miterlimit="10"/>
<path d="M109.7 115.3L109.4 115.7C107.9 115.2 106.6 114.5 105.6 113.6C104.6 114.5 103.3 115.2 101.8 115.7L101.4 115.3C103 114.8 104.3 114.2 105.2 113.3C104.3 112.4 103.6 111.2 103.1 109.9L103.6 109.7C104.1 111 104.7 112.1 105.6 113C106.5 112 107.2 110.8 107.5 109.3H101.4V108.8H105.4C105.2 108.3 104.9 107.8 104.6 107.4L105.1 107.2C105.5 107.8 105.8 108.3 106 108.8H109.8V109.3H108.1C107.7 110.9 107 112.2 106 113.3C106.9 114.1 108.2 114.8 109.8 115.3H109.7Z" fill="#231815" stroke="#231815" stroke-width="0.1" stroke-miterlimit="10"/>
<path d="M119.2 112.9H115.3V114.9C115.3 115.1 115.3 115.3 115.1 115.4C114.9 115.5 114.6 115.6 113.9 115.6C113.2 115.6 113.6 115.6 113.4 115.6L113.2 115.1C113.5 115.1 113.7 115.1 114 115.1C114.4 115.1 114.6 115.1 114.7 115.1C114.8 115.1 114.8 115 114.8 114.9V112.9H110.9V112.4H114.8V111.8C115.6 111.3 116.3 110.9 116.8 110.5H112.5V110H117.6V110.5C117 111 116.2 111.5 115.3 112V112.4H119.2V112.9ZM118.8 110.5H118.3V108.8H111.8V110.5H111.3V108.3H114.9C114.9 108.1 114.7 107.8 114.4 107.5L114.9 107.3C115.1 107.6 115.3 107.9 115.5 108.3H118.8V110.5Z" fill="#231815" stroke="#231815" stroke-width="0.1" stroke-miterlimit="10"/>
<path d="M123.4 111.5L123 111.8C122.9 111.5 122.6 111 122.2 110.6V115.7H121.7V111.1C121.3 112 120.9 112.7 120.7 113.1L120.4 112.7C120.9 111.9 121.4 111 121.7 109.8H120.5V109.3H121.8V107.4H122.3V109.3H123.3V109.8H122.3C122.8 110.5 123.2 111 123.4 111.5ZM125.2 114C124.6 114.7 124 115.2 123.5 115.5L123.2 115.1C123.7 114.8 124.3 114.3 124.9 113.7L125.3 114H125.2ZM128.7 113.1H126.3V115.6H125.8V113.1H123.3V112.6H128.8V113.1H128.7ZM128.7 108H127V108.7H128.5V110.8H123.7V108.7H125.1V108H123.4V107.5H128.8V108H128.7ZM128.4 111.9H123.7V111.4H128.4V111.9ZM125 110.4V109.2H124.1V110.4H125ZM126.5 108.7V108H125.5V108.7H126.5ZM126.5 110.4V109.2H125.5V110.4H126.5ZM128.8 115.1L128.4 115.4C128 115 127.5 114.5 126.8 114L127.1 113.7C127.8 114.3 128.3 114.8 128.7 115.1H128.8ZM127.9 109.2H126.9V110.4H127.9V109.2Z" fill="#231815" stroke="#231815" stroke-width="0.1" stroke-miterlimit="10"/>
<path d="M80.3997 5.5H77.0997V8.3H76.5997V5.5H73.1997V1.7H76.5997V0H77.0997V1.7H80.3997V5.5ZM76.4997 4.9V2.1H73.5997V4.9H76.4997ZM79.8997 4.9V2.1H77.0997V4.9H79.8997Z" fill="#231815" stroke="#231815" stroke-width="0.1" stroke-miterlimit="10"/>
<path d="M90.3996 7.89981L90.0996 8.2998C88.5996 7.7998 87.2996 7.0998 86.2996 6.1998C85.2996 7.0998 83.9996 7.7998 82.4996 8.2998L82.0996 7.89981C83.6996 7.39981 84.9996 6.7998 85.8996 5.8998C84.9996 4.9998 84.2996 3.7998 83.7996 2.4998L84.2996 2.2998C84.7996 3.5998 85.3996 4.6998 86.2996 5.5998C87.1996 4.5998 87.8996 3.3998 88.1996 1.8998H82.0996V1.3998H86.0996C85.8996 0.899805 85.5996 0.399805 85.2996 -0.00019531L85.7996 -0.200195C86.1996 0.399805 86.4996 0.899805 86.6996 1.3998H90.4996V1.8998H88.7996C88.3996 3.4998 87.6996 4.7998 86.6996 5.8998C87.5996 6.6998 88.8996 7.39981 90.4996 7.89981H90.3996Z" fill="#231815" stroke="#231815" stroke-width="0.1" stroke-miterlimit="10"/>
<path d="M99.8996 5.6H95.9996V7.6C95.9996 7.8 95.9996 8 95.7996 8.1C95.5996 8.2 95.2996 8.3 94.5996 8.3C93.8996 8.3 94.2996 8.3 94.0996 8.3L93.8996 7.8C94.1996 7.8 94.3996 7.8 94.6996 7.8C95.0996 7.8 95.2996 7.8 95.3996 7.8C95.4996 7.8 95.4996 7.7 95.4996 7.6V5.6H91.5996V5.1H95.4996V4.5C96.2996 4 96.9996 3.6 97.4996 3.2H93.1996V2.7H98.2996V3.2C97.6996 3.7 96.8996 4.2 95.9996 4.7V5.1H99.8996V5.6ZM99.4996 3.2H98.9996V1.5H92.4996V3.2H91.9996V1H95.5996C95.5996 0.8 95.3996 0.5 95.0996 0.2L95.5996 0C95.7996 0.3 95.9996 0.6 96.1996 1H99.4996V3.2Z" fill="#231815" stroke="#231815" stroke-width="0.1" stroke-miterlimit="10"/>
<path d="M104 4.1L103.6 4.4C103.5 4.1 103.2 3.6 102.8 3.2V8.3H102.3V3.7C101.9 4.6 101.5 5.3 101.3 5.7L101 5.3C101.5 4.5 102 3.6 102.3 2.4H101.1V1.9H102.4V0H102.9V1.9H103.9V2.4H102.9C103.4 3.1 103.8 3.6 104 4.1ZM105.8 6.6C105.2 7.3 104.6 7.8 104.1 8.1L103.8 7.7C104.3 7.4 104.9 6.9 105.5 6.3L105.9 6.6H105.8ZM109.4 5.8H107V8.3H106.5V5.8H104V5.3H109.5V5.8H109.4ZM109.4 0.7H107.7V1.4H109.2V3.5H104.4V1.4H105.8V0.7H104.1V0.2H109.5V0.7H109.4ZM109 4.6H104.3V4.1H109V4.6ZM105.7 3V1.8H104.8V3H105.7ZM107.1 1.4V0.7H106.1V1.4H107.1ZM107.1 3V1.8H106.1V3H107.1ZM109.4 7.8L109 8.1C108.6 7.7 108.1 7.2 107.4 6.7L107.7 6.4C108.4 7 108.9 7.5 109.3 7.8H109.4ZM108.6 1.8H107.6V3H108.6V1.8Z" fill="#231815" stroke="#231815" stroke-width="0.1" stroke-miterlimit="10"/>
</g>
<defs>
<clipPath id="clip0_80_2">
<rect width="175" height="119" fill="white"/>
</clipPath>
</defs>
</svg>
