<svg width="175" height="119" viewBox="0 0 175 119" fill="none" xmlns="http://www.w3.org/2000/svg">
<path d="M34.4998 84.4L28.3998 74.1C28.3998 74.1 28.1998 73.9 28.1998 73.5V54.5H25.8998V74.1C26.0998 74.3 29.8998 80.9 29.8998 80.9H20.3998C20.3998 80.9 24.1998 74.3 24.3998 74.1V54.5H22.0998V73.5C22.0998 73.9 21.8998 74.1 21.8998 74.1L15.7998 84.4H34.4998Z" fill="#AA8420"/>
<path d="M32.6 41.1002C32.6 41.1002 33.8 36.3002 29.7 33.2002C29.7 33.2002 28.1 31.7002 24.9 31.7002C21.7 31.7002 20.5 33.2002 20.5 33.2002C16.7 35.8002 17.7 41.1002 17.7 41.1002H32.6Z" fill="#AA8420"/>
<path d="M18.0998 42.5002H32.0998C32.0998 42.2002 32.2998 42.0002 32.3998 41.7002H17.7998C17.7998 42.0002 17.9998 42.3002 18.0998 42.5002Z" fill="#AA8420"/>
<path d="M31.8998 43H18.2998C18.3998 43.3 18.5998 43.6 18.7998 43.8H31.4998C31.6998 43.5 31.7998 43.3 31.9998 43" fill="#AA8420"/>
<path d="M19.7002 44.9002H30.5002C30.7002 44.7002 30.9002 44.5002 31.1002 44.2002H19.2002C19.4002 44.4002 19.6002 44.7002 19.8002 44.9002" fill="#AA8420"/>
<path d="M20.9002 45.9004H29.4002C29.6002 45.9004 29.8002 45.6004 30.0002 45.4004H20.2002C20.4002 45.6004 20.6002 45.7004 20.8002 45.9004" fill="#AA8420"/>
<path d="M22.1001 46.5996C23.0001 46.9996 24.1001 47.2996 25.2001 47.2996C26.3001 47.2996 27.3001 47.0996 28.3001 46.5996H22.1001Z" fill="#AA8420"/>
<path d="M39.6999 47.5996H28.1999C28.1999 47.5996 27.0999 47.5996 26.2999 48.1996C25.5999 48.6996 25.1999 49.6996 25.1999 49.7996C25.1999 49.7996 24.6999 48.6996 24.0999 48.1996C23.1999 47.5996 22.1999 47.5996 22.1999 47.5996H10.6999L8.3999 51.2996H19.3999C19.6999 51.2996 20.2999 51.4996 20.7999 51.8996C21.5999 52.4996 21.7999 52.7996 21.9999 52.9996C22.0999 52.9996 22.2999 53.3996 22.2999 53.3996H27.9999C27.9999 53.3996 28.1999 53.0996 28.2999 52.9996C28.4999 52.7996 28.6999 52.4996 29.4999 51.8996C30.0999 51.4996 30.5999 51.2996 30.8999 51.2996H41.8999L39.5999 47.5996H39.6999Z" fill="#003477"/>
<path d="M9.5 52.5V70.6C9.7 72.5 10.3 73.8 11.3 75.6C13 78.4 16.1 80.4 16.1 80.4L17.5 78.1C17.5 78.1 15.5 77.1 14 74.6C13.7 74.1 13.4 73.7 13.2 73.2C13 72.8 12.8 72.4 12.7 72.1C12.7 71.8 12.5 71.6 12.5 71.4C12.5 71.1 12.4 70.8 12.4 70.5V52.5H9.5Z" fill="#003477"/>
<path d="M13.8001 52.5V70.7C13.8001 71 13.9001 71.2 14.0001 71.6C14.2001 72.2 14.5001 72.9 15.1001 73.7C16.4001 75.8 18.2001 76.8 18.2001 76.8L19.6001 74.5C19.6001 74.5 19.1001 74.2 18.5001 73.7C18.1001 73.3 17.7001 72.8 17.3001 72.3C16.9001 71.7 16.7001 71.1 16.5001 70.6C16.4001 70.2 16.4001 69.9 16.4001 69.7V52.5H13.6001H13.8001Z" fill="#003477"/>
<path d="M40.7998 52.5V70.6C40.5998 72.5 39.9998 73.8 38.9998 75.6C37.2998 78.4 34.1998 80.4 34.1998 80.4L32.7998 78.1C32.7998 78.1 34.7998 77.1 36.2998 74.6C36.5998 74.1 36.8998 73.7 37.0998 73.2C37.2998 72.8 37.3998 72.4 37.5998 72.1C37.5998 71.8 37.7998 71.6 37.7998 71.4C37.7998 71.1 37.7998 70.8 37.7998 70.5V52.5H40.6998H40.7998Z" fill="#003477"/>
<path d="M36.5002 52.5V70.7C36.5002 71 36.5002 71.2 36.3002 71.6C36.1002 72.2 35.8002 72.9 35.3002 73.7C34.0002 75.8 32.1002 76.8 32.1002 76.8L30.7002 74.5C30.7002 74.5 31.2002 74.2 31.8002 73.7C32.2002 73.3 32.6002 72.8 33.0002 72.3C33.4002 71.7 33.6002 71.1 33.8002 70.6C33.8002 70.2 33.8002 69.9 33.8002 69.7V52.5H36.6002H36.4002H36.5002Z" fill="#003477"/>
<path d="M52.1 56.8002V49.2002H54.1V48.2002H49V49.2002H51V56.8002H52.1Z" fill="#003477"/>
<path d="M55.9999 48.2002H54.8999V56.8002H55.9999V52.7002H60.0999V56.8002H61.1999V48.2002H60.0999V51.7002H55.9999V48.2002Z" fill="#003477"/>
<path d="M67.3002 55.8002H63.8002V52.6002H67.2002V51.6002H63.8002V49.2002H67.3002V48.2002H62.7002V56.8002H67.3002V55.8002Z" fill="#003477"/>
<path d="M73.1 48.2002H72V56.8002H73.1V52.7002H77.1V56.8002H78.2V48.2002H77.1V51.7002H73.1V48.2002Z" fill="#003477"/>
<path d="M83.7002 48C81.3002 48 79.2002 50 79.2002 52.5C79.2002 55 81.2002 57 83.7002 57C86.2002 57 88.2002 55.1 88.2002 52.5C88.2002 49.9 86.2002 48 83.7002 48ZM83.7002 55.9C81.9002 55.9 80.3002 54.4 80.3002 52.4C80.3002 50.4 81.7002 48.9 83.7002 48.9C85.7002 48.9 87.1002 50.5 87.1002 52.4C87.1002 54.3 85.5002 55.9 83.7002 55.9Z" fill="#003477"/>
<path d="M90.3002 50.3998L96.7002 57.1998V48.2998H95.6002V54.5998L89.2002 47.7998V56.7998H90.3002V50.3998Z" fill="#003477"/>
<path d="M102.2 49C103.2 49 104.3 49.6 104.9 50.4L105.6 49.7C104.8 48.6 103.4 48 102.1 48C99.6002 48 97.7002 50 97.7002 52.5C97.7002 55 99.6002 57 102 57C104.4 57 106 55.2 106 52.8V52.5H102.6V53.5H104.8C104.8 54.9 103.3 56.1 102 56.1C100.7 56.1 98.7002 54.4 98.7002 52.6C98.7002 50.8 100.2 49.1 102.1 49.1H102.2V49Z" fill="#003477"/>
<path d="M116.7 56.8002L112.8 52.1002L116.6 48.2002H115.2L111.6 51.9002V48.2002H110.5V56.8002H111.6V53.2002L112 52.8002L115.2 56.8002H116.7Z" fill="#003477"/>
<path d="M116.9 52.5C116.9 55 118.9 57 121.4 57C123.9 57 125.9 55.1 125.9 52.5C125.9 49.9 123.9 48 121.4 48C118.9 48 116.9 50 116.9 52.5ZM121.4 49C123.4 49 124.8 50.6 124.8 52.5C124.8 54.4 123.2 56 121.4 56C119.6 56 118 54.5 118 52.5C118 50.5 119.4 49 121.4 49Z" fill="#003477"/>
<path d="M126.8 56.7998H127.9V50.3998L134.3 57.1998V48.2998H133.2V54.5998L126.8 47.7998V56.7998Z" fill="#003477"/>
<path d="M139.6 56.9C142 56.9 143.6 55.1 143.6 52.7V52.4H140.2V53.4H142.4C142.4 54.8 140.9 56 139.6 56C138.3 56 136.3 54.3 136.3 52.5C136.3 50.7 137.8 49 139.7 49C141.6 49 141.8 49.6 142.4 50.4L143.1 49.7C142.3 48.6 141 48 139.6 48C137.2 48 135.2 50 135.2 52.5C135.2 55 137.1 57 139.5 57H139.6V56.9Z" fill="#003477"/>
<path d="M52.7001 70.6004C54.7001 70.6004 55.8001 69.2004 55.8001 67.3004V61.9004H54.7001V67.0004C54.7001 68.4004 54.3001 69.7004 52.7001 69.7004C51.1001 69.7004 50.7001 68.4004 50.7001 67.0004V61.9004H49.6001V67.3004C49.6001 69.2004 50.8001 70.6004 52.7001 70.6004Z" fill="#003477"/>
<path d="M58.3998 63.9998L64.7998 70.6998V61.7998H63.6998V68.0998L57.2998 61.2998V70.2998H58.3998V63.8998V63.9998Z" fill="#003477"/>
<path d="M67.3998 61.7998H66.2998V70.3998H67.3998V61.7998Z" fill="#003477"/>
<path d="M71.9998 68.2004L69.4998 61.9004H68.2998L71.9998 70.9004L75.6998 61.9004H74.4998L71.9998 68.2004Z" fill="#003477"/>
<path d="M81.1 69.3998H77.6V66.1998H81V65.1998H77.6V62.7998H81.1V61.7998H76.5V70.3998H81.1V69.3998Z" fill="#003477"/>
<path d="M87.1 64.3004C87.1 63.5004 86.7 62.7004 86 62.3004C85.3 61.9004 84.5 61.9004 83.8 61.9004H82.5V70.5004H83.6V66.9004H84L86.5 70.5004H87.8L85.1 66.8004C86.3 66.6004 87.1 65.6004 87.1 64.4004V64.3004ZM83.9 65.9004H83.6V62.8004H83.9C84.9 62.8004 86.2 63.0004 86.2 64.3004C86.2 65.6004 85 65.9004 83.9 65.9004Z" fill="#003477"/>
<path d="M91.0002 69.6002C90.1002 69.6002 89.3002 68.9002 89.3002 68.0002L88.2002 68.2002C88.4002 69.6002 89.4002 70.6002 90.8002 70.6002C92.2002 70.6002 93.5002 69.5002 93.5002 67.9002C93.5002 66.3002 92.6002 65.8002 91.4002 65.3002L90.8002 65.1002C90.3002 64.9002 89.6002 64.5002 89.6002 63.9002C89.6002 63.3002 90.4002 62.7002 91.0002 62.7002C91.6002 62.7002 92.0002 63.0002 92.4002 63.5002L93.3002 63.0002C92.8002 62.2002 92.1002 61.7002 91.1002 61.7002C90.1002 61.7002 88.6002 62.5002 88.6002 63.9002C88.6002 65.3002 89.5002 65.7002 90.4002 66.1002L91.0002 66.3002C91.7002 66.6002 92.5002 67.0002 92.5002 67.9002C92.5002 68.8002 91.8002 69.6002 90.9002 69.6002H91.0002Z" fill="#003477"/>
<path d="M95.8998 61.7998H94.7998V70.3998H95.8998V61.7998Z" fill="#003477"/>
<path d="M99.8998 70.3998V62.7998H101.9V61.7998H96.7998V62.7998H98.7998V70.3998H99.8998Z" fill="#003477"/>
<path d="M105.8 70.4004V66.7004L108.6 61.9004H107.4L105.3 65.6004L103.2 61.9004H102L104.8 66.7004V70.4004H105.9H105.8Z" fill="#003477"/>
<path d="M116.7 70.5996C119.2 70.5996 121.2 68.6996 121.2 66.0996C121.2 63.4996 119.2 61.5996 116.7 61.5996C114.2 61.5996 112.2 63.5996 112.2 66.0996C112.2 68.5996 114.2 70.5996 116.7 70.5996ZM116.7 62.5996C118.7 62.5996 120.1 64.1996 120.1 66.0996C120.1 67.9996 118.5 69.5996 116.7 69.5996C114.9 69.5996 113.3 68.0996 113.3 66.0996C113.3 64.0996 114.7 62.5996 116.7 62.5996Z" fill="#003477"/>
<path d="M123.4 66.1998H126.3V65.1998H123.4V62.7998H126.5V61.7998H122.4V70.3998H123.5V66.1998H123.4Z" fill="#003477"/>
<path d="M133.9 65.3002L133.3 65.1002C132.8 64.9002 132.1 64.5002 132.1 63.9002C132.1 63.3002 132.9 62.7002 133.5 62.7002C134.1 62.7002 134.5 63.0002 134.9 63.5002L135.8 63.0002C135.3 62.2002 134.6 61.7002 133.6 61.7002C132.6 61.7002 131.1 62.5002 131.1 63.9002C131.1 65.3002 132 65.7002 133 66.1002L133.6 66.3002C134.3 66.6002 135.1 67.0002 135.1 67.9002C135.1 68.8002 134.4 69.6002 133.5 69.6002C132.6 69.6002 131.8 68.9002 131.8 68.0002L130.7 68.2002C130.9 69.6002 131.9 70.6002 133.3 70.6002C134.7 70.6002 136 69.5002 136 67.9002C136 66.3002 135.1 65.8002 133.9 65.3002Z" fill="#003477"/>
<path d="M141.3 62.5996C142.1 62.5996 142.9 62.8996 143.5 63.3996V62.1996C142.9 61.7996 142.1 61.5996 141.3 61.5996C138.8 61.5996 136.8 63.5996 136.8 66.0996C136.8 68.5996 138.8 70.4996 141.2 70.4996C143.6 70.4996 142.8 70.2996 143.4 69.8996V68.5996C142.8 69.1996 142 69.4996 141.1 69.4996C139.2 69.4996 137.8 67.8996 137.8 65.9996C137.8 64.0996 139.3 62.4996 141.2 62.4996H141.3V62.5996Z" fill="#003477"/>
<path d="M145.9 61.7998H144.8V70.3998H145.9V61.7998Z" fill="#003477"/>
<path d="M147.6 70.3998H152.2V69.3998H148.7V66.1998H152.1V65.1998H148.7V62.7998H152.2V61.7998H147.6V70.3998Z" fill="#003477"/>
<path d="M159.9 68.2004L153.5 61.4004V70.4004H154.6V64.0004L161 70.7004V61.8004H159.9V68.1004V68.2004Z" fill="#003477"/>
<path d="M162.1 66.1996C162.1 68.6996 164.1 70.5996 166.5 70.5996C168.9 70.5996 168.1 70.3996 168.7 69.9996V68.6996C168.1 69.2996 167.3 69.5996 166.4 69.5996C164.5 69.5996 163.1 67.9996 163.1 66.0996C163.1 64.1996 164.6 62.5996 166.5 62.5996C168.4 62.5996 168.1 62.8996 168.7 63.3996V62.1996C168.1 61.7996 167.3 61.5996 166.6 61.5996C164.1 61.5996 162.1 63.5996 162.1 66.0996V66.1996Z" fill="#003477"/>
<path d="M174.7 62.7998V61.7998H170.1V70.3998H174.7V69.3998H171.2V66.1998H174.6V65.1998H171.2V62.7998H174.7Z" fill="#003477"/>
<path d="M48.8998 84.1002H49.9998L50.9998 81.9002H54.8998L55.8998 84.1002H56.9998L52.8998 75.2002L48.7998 84.1002H48.8998ZM51.3998 80.9002L52.8998 77.4002L54.3998 80.9002H51.3998Z" fill="#003477"/>
<path d="M64.1002 81.8L57.7002 75V84H58.8002V77.6L65.2002 84.4V75.5H64.1002V81.8Z" fill="#003477"/>
<path d="M68.5002 75.5H66.7002V84.1H68.4002C71.1002 84.1 73.2002 82.7 73.2002 79.8C73.2002 76.9 71.0002 75.6 68.4002 75.6H68.5002V75.5ZM68.1002 83.1H67.7002V76.5H68.1002C70.3002 76.5 72.1002 77.3 72.1002 79.8C72.1002 82.3 70.2002 83.1 68.1002 83.1Z" fill="#003477"/>
<path d="M77 76.5H79V84.1H80.1V76.5H82.1V75.5H77V76.5Z" fill="#003477"/>
<path d="M83.1001 84.1H87.7001V83.1H84.2001V79.9H87.6001V78.9H84.2001V76.5H87.7001V75.5H83.1001V84.1Z" fill="#003477"/>
<path d="M88.6 79.8002C88.6 82.3002 90.6 84.2002 93 84.2002C95.4 84.2002 94.6 84.0002 95.2 83.6002V82.3002C94.6 82.9002 93.8 83.2002 92.9 83.2002C91 83.2002 89.6 81.6002 89.6 79.7002C89.6 77.8002 91.1 76.2002 93 76.2002C94.9 76.2002 94.6 76.5002 95.2 77.0002V75.8002C94.6 75.4002 93.8 75.2002 93 75.2002C90.5 75.2002 88.5 77.2002 88.5 79.7002H88.6V79.8002Z" fill="#003477"/>
<path d="M101.6 78.9004H97.4999V75.4004H96.3999V84.0004H97.4999V79.9004H101.6V84.0004H102.7V75.4004H101.6V78.9004Z" fill="#003477"/>
<path d="M110.6 81.8L104.2 75V84H105.3V77.6L111.7 84.4V75.5H110.6V81.8Z" fill="#003477"/>
<path d="M117.2 75.2998C114.8 75.2998 112.7 77.2998 112.7 79.7998C112.7 82.2998 114.7 84.2998 117.2 84.2998C119.7 84.2998 121.7 82.3998 121.7 79.7998C121.7 77.1998 119.7 75.2998 117.2 75.2998ZM117.2 83.2998C115.4 83.2998 113.8 81.7998 113.8 79.7998C113.8 77.7998 115.2 76.2998 117.2 76.2998C119.2 76.2998 120.6 77.8998 120.6 79.7998C120.6 81.6998 119 83.2998 117.2 83.2998Z" fill="#003477"/>
<path d="M123.8 75.5H122.7V84.1H126.4V83.1H123.8V75.5Z" fill="#003477"/>
<path d="M131.1 75.2998C128.7 75.2998 126.6 77.2998 126.6 79.7998C126.6 82.2998 128.6 84.2998 131.1 84.2998C133.6 84.2998 135.6 82.3998 135.6 79.7998C135.6 77.1998 133.6 75.2998 131.1 75.2998ZM131.1 83.2998C129.3 83.2998 127.7 81.7998 127.7 79.7998C127.7 77.7998 129.1 76.2998 131.1 76.2998C133.1 76.2998 134.5 77.8998 134.5 79.7998C134.5 81.6998 132.9 83.2998 131.1 83.2998Z" fill="#003477"/>
<path d="M141.1 80.7002H143.3C143.3 82.1002 141.8 83.2002 140.5 83.2002C139.2 83.2002 137.2 81.5002 137.2 79.7002C137.2 77.9002 138.7 76.2002 140.6 76.2002C142.5 76.2002 142.7 76.8002 143.3 77.6002L144 76.9002C143.2 75.8002 141.8 75.2002 140.5 75.2002C138.1 75.2002 136.1 77.2002 136.1 79.7002C136.1 82.2002 138 84.2002 140.4 84.2002C142.8 84.2002 144.4 82.4002 144.4 80.0002V79.7002H141V80.7002H141.1Z" fill="#003477"/>
<path d="M148.1 79.2L146 75.5H144.8L147.6 80.3V84H148.7V80.3L151.5 75.5H150.3L148.2 79.2H148.1Z" fill="#003477"/>
<path d="M49.1999 38.9996C49.6999 38.7996 49.9999 38.6996 50.1999 38.5996V43.5996H51.2999V43.0996H56.9999V43.5996H58.0999V38.5996C58.2999 38.5996 58.3999 38.7996 58.5999 38.7996C58.7999 38.7996 58.9999 38.7996 59.0999 38.9996L59.5999 37.8996C57.8999 37.5996 56.6999 36.9996 55.7999 36.0996H59.4999V35.0996H54.6999V34.0996C56.1999 34.0996 57.4999 33.7996 58.5999 33.5996L58.0999 32.5996C56.4999 32.8996 54.1999 33.0996 51.1999 33.0996C48.1999 33.0996 49.9999 33.0996 49.5999 33.0996L49.9999 34.1996H53.6999V35.0996H48.9999V36.0996H52.4999C51.4999 36.9996 50.2999 37.5996 48.8999 37.8996L49.3999 38.8996H49.1999V38.9996ZM56.8999 42.0996H51.1999V41.0996H56.8999V42.0996ZM54.4999 36.1996C55.1999 37.1996 56.1999 37.8996 57.2999 38.2996H54.4999V36.1996ZM56.8999 39.2996V40.1996H51.1999V39.2996H56.8999ZM53.3999 36.1996V38.2996H50.7999C51.8999 37.7996 52.7999 37.0996 53.3999 36.1996Z" fill="#003477"/>
<path d="M65.7999 40.0004L64.7999 39.4004C64.5999 40.5004 64.0999 41.5004 63.3999 42.5004L64.2999 43.5004C64.9999 42.5004 65.3999 41.3004 65.7999 40.0004Z" fill="#003477"/>
<path d="M65.7999 37.1C65.1999 36.6 64.5999 36.3 64.0999 36L63.3999 36.9C63.8999 37.2 64.3999 37.6 64.9999 38.1L65.7999 37.1Z" fill="#003477"/>
<path d="M66.2001 34.2996V34.8996H67.7001V36.0996H65.9001V37.0996H67.7001C67.4001 37.7996 66.6001 38.4996 65.3001 39.0996L66.0001 40.0996C66.5001 39.7996 66.9001 39.4996 67.1001 39.3996V41.9996C67.1001 42.4996 67.1001 42.8996 67.4001 43.0996C67.6001 43.2996 67.9001 43.3996 68.4001 43.3996H72.1001C72.7001 43.3996 73.1001 43.3996 73.3001 43.0996C73.5001 42.8996 73.7001 42.1996 73.8001 41.1996L72.7001 40.7996C72.7001 41.3996 72.7001 41.7996 72.5001 42.0996C72.5001 42.2996 72.3001 42.4996 71.9001 42.4996H68.5001C68.2001 42.4996 68.1001 42.4996 68.1001 42.0996V41.3996H71.8001V38.9996C72.3001 39.3996 72.8001 39.7996 73.5001 40.2996L74.0001 39.2996C72.8001 38.6996 72.0001 38.0996 71.7001 37.3996H73.9001V36.3996H71.8001V35.1996H73.7001V34.2996H71.8001V33.0996H70.8001V34.2996H68.7001V33.0996H67.6001V34.2996H66.1001V34.4996C65.7001 34.1996 65.1001 33.7996 64.4001 33.2996L63.6001 34.1996C64.1001 34.4996 64.7001 34.9996 65.3001 35.5996L66.0001 34.6996L66.2001 34.2996ZM68.8001 34.9996H70.9001V36.0996H68.8001V34.9996ZM69.0001 37.0996H70.5001C70.7001 37.4996 71.0001 37.8996 71.2001 38.0996H68.3001C68.6001 37.7996 68.8001 37.4996 69.0001 37.0996ZM68.1001 38.9996H70.7001V40.0996H68.1001V38.9996Z" fill="#003477"/>
<path d="M86.3 34.9996C85.4 34.2996 84.7 33.8996 84.2 33.5996L83.5 34.3996C84 34.6996 84.7 35.1996 85.6 35.8996L86.3 34.9996Z" fill="#003477"/>
<path d="M86.0998 37.8004C85.2998 37.1004 84.4998 36.7004 83.9998 36.4004L83.2998 37.2004C83.8998 37.6004 84.5998 38.1004 85.3998 38.7004L86.0998 37.8004Z" fill="#003477"/>
<path d="M82.8999 40.9998L86.6999 40.3998V43.5998H87.7999V40.2998L88.7999 40.0998V39.0998L87.7999 39.2998V32.7998H86.6999V39.4998L82.8999 40.0998V41.1998V40.9998Z" fill="#003477"/>
<path d="M78.7001 41.4004C79.5001 40.4004 80.0001 39.6004 80.3001 38.8004V43.6004H81.4001V38.2004C81.6001 38.5004 81.8001 38.7004 82.0001 39.0004C82.2001 39.3004 82.5001 39.6004 82.7001 39.9004L83.3001 38.9004C82.9001 38.4004 82.2001 37.8004 81.4001 37.0004H83.1001V36.0004H81.4001V34.4004C82.0001 34.4004 82.6001 34.1004 83.1001 33.9004L82.7001 32.9004C81.5001 33.4004 80.0001 33.7004 78.3001 33.7004L78.5001 34.7004C79.3001 34.7004 79.9001 34.7004 80.3001 34.5004V36.0004H78.2001V37.0004H80.3001C79.8001 38.3004 79.1001 39.5004 78.1001 40.6004L78.7001 41.6004V41.4004Z" fill="#003477"/>
<path d="M92.7002 38.8002L93.0002 40.0002C93.4002 40.0002 93.9002 39.8002 94.5002 39.6002V42.0002C94.5002 42.2002 94.5002 42.4002 94.1002 42.4002H93.1002L93.4002 43.5002H94.3002C94.9002 43.5002 95.2002 43.5002 95.4002 43.2002C95.6002 43.0002 95.6002 42.7002 95.6002 42.1002V39.3002C96.3002 39.1002 96.7002 38.9002 96.9002 38.8002V37.7002C96.6002 37.7002 96.2002 38.0002 95.6002 38.2002V36.2002H97.0002V35.5002H99.5002V37.0002H97.2002V38.1002H101.8C101.5 39.1002 100.9 39.9002 100.1 40.5002C99.6002 40.0002 99.0002 39.2002 98.5002 38.3002L97.6002 38.7002C98.2002 39.7002 98.7002 40.6002 99.3002 41.2002C98.2002 42.0002 97.1002 42.4002 96.0002 42.7002L96.6002 43.7002C97.7002 43.5002 98.9002 42.9002 100.1 41.9002C101 42.7002 101.9 43.3002 102.9 43.6002L103.5 42.5002C102.5 42.2002 101.7 41.8002 100.9 41.1002C101.3 40.7002 101.7 40.2002 102.1 39.5002C102.5 38.8002 102.8 38.3002 102.9 37.9002V36.9002H100.6V35.4002H103.3V34.4002H100.6V32.8002H99.5002V34.4002H97.0002V35.1002H95.7002V32.7002H94.6002V35.1002H92.9002V36.1002H94.6002V38.4002C94.1002 38.6002 93.4002 38.7002 92.8002 38.8002H92.7002Z" fill="#003477"/>
<path d="M107.4 42.5002L108.3 43.6002C110.9 41.9002 112.4 39.6002 112.9 36.9002H113.1C113.9 40.0002 115.3 42.3002 117.3 43.6002L118.2 42.5002C117.1 41.7002 116.2 40.9002 115.5 39.8002C114.8 38.8002 114.4 37.8002 114.3 36.8002H118V35.6002H113.1V32.7002H111.9C111.9 33.9002 111.9 34.9002 111.7 35.6002H107.5V36.8002H111.5C111.3 37.9002 110.8 38.9002 110.1 40.0002C109.3 41.0002 108.4 41.8002 107.3 42.5002H107.4Z" fill="#003477"/>
<path d="M126.5 42.7002H125.3L125.5 43.7002H127.1C127.4 43.7002 127.6 43.7002 127.8 43.4002C127.8 43.4002 128 43.1002 128 42.8002V40.9002H132.4V39.9002H128V39.5002C129 39.1002 130 38.6002 130.8 38.2002V37.2002H124.1V38.2002H129.1C128.3 38.6002 127.6 38.9002 126.8 39.1002V39.9002H122.4V40.9002H126.8V42.5002C126.8 42.7002 126.8 42.8002 126.4 42.8002H126.5V42.7002Z" fill="#003477"/>
<path d="M128.2 34.4002C127.9 33.8002 127.6 33.2002 127.3 32.7002L126.4 33.1002C126.7 33.6002 127 34.2002 127.3 34.8002L128.3 34.3002L128.2 34.4002Z" fill="#003477"/>
<path d="M123.3 36.1996H131.6V37.5996H132.7V35.1996H130.4C130.7 34.5996 131.1 33.8996 131.4 33.0996L130.2 32.5996C129.8 33.6996 129.4 34.4996 129.1 35.1996H122.1V37.5996H123.2V36.0996L123.3 36.1996Z" fill="#003477"/>
<path d="M125.6 34.5996C125.3 33.9996 124.9 33.4996 124.6 33.0996L123.7 33.4996C124 33.9996 124.3 34.4996 124.6 35.0996L125.6 34.5996Z" fill="#003477"/>
<path d="M42.7001 101.6H8.6001V90.7002H8.8001V101.3H42.4001V90.7002H42.6001V101.6H42.7001Z" fill="#231815"/>
<path d="M174.7 101.6H48.2998V90.7002H48.4998V101.3H174.4V90.7002H174.6V101.6H174.7Z" fill="#231815"/>
<path d="M114.2 112.5H117.3V113.2H114.2V112.5Z" fill="#231815"/>
<path d="M63.8999 108H64.7999V115.1H68.6999V115.9H63.8999V108.1V108Z" fill="#231815"/>
<path d="M70.7 115.5C70.3 115.3 70 114.9 69.8 114.5C69.6 114.1 69.5 113.6 69.5 113C69.5 112.4 69.5 111.9 69.8 111.5C70 111.1 70.3 110.7 70.7 110.5C71.1 110.3 71.5 110.2 72.1 110.2C72.7 110.2 73.1 110.2 73.5 110.5C73.9 110.7 74.2 111.1 74.4 111.5C74.6 111.9 74.7 112.4 74.7 113C74.7 113.6 74.7 114.1 74.4 114.5C74.2 114.9 73.9 115.3 73.5 115.5C73.1 115.7 72.7 115.8 72.1 115.8C71.5 115.8 71.1 115.8 70.7 115.5ZM73.4 114.6C73.7 114.2 73.8 113.7 73.8 113C73.8 112.3 73.6 111.8 73.3 111.4C73 111 72.6 110.8 72.1 110.8C71.6 110.8 71.1 111 70.8 111.4C70.5 111.8 70.3 112.3 70.3 113C70.3 113.7 70.5 114.2 70.8 114.6C71.1 115 71.5 115.1 72.1 115.1C72.7 115.1 73.1 114.9 73.4 114.6Z" fill="#231815"/>
<path d="M80.9997 110.301V115.801C80.9997 116.601 80.7997 117.201 80.3997 117.701C79.9997 118.201 79.3997 118.301 78.4997 118.301C77.5997 118.301 76.8997 118.101 76.2997 117.701L76.4997 117.001C76.7997 117.201 77.1997 117.301 77.4997 117.401C77.7997 117.401 78.1997 117.401 78.4997 117.401C78.9997 117.401 79.3997 117.401 79.6997 117.001C79.9997 116.701 80.0997 116.301 80.0997 115.701V114.401C79.8997 114.701 79.6997 115.001 79.3997 115.201C79.0997 115.401 78.6997 115.501 78.1997 115.501C77.6997 115.501 77.2997 115.501 76.8997 115.201C76.4997 115.001 76.1997 114.701 75.9997 114.201C75.7997 113.801 75.6997 113.301 75.6997 112.801C75.6997 112.301 75.6997 111.801 75.9997 111.401C76.2997 111.001 76.4997 110.701 76.8997 110.401C77.2997 110.201 77.6997 110.101 78.1997 110.101C78.6997 110.101 78.9997 110.101 79.3997 110.401C79.6997 110.601 79.9997 110.901 80.0997 111.201V110.201H80.9997V110.301ZM79.6997 114.401C79.9997 114.001 80.1997 113.601 80.1997 112.901C80.1997 112.201 79.9997 111.801 79.6997 111.401C79.3997 111.001 78.9997 110.901 78.3997 110.901C77.7997 110.901 77.3997 111.101 77.0997 111.401C76.7997 111.801 76.5997 112.201 76.5997 112.901C76.5997 113.601 76.7997 114.001 77.0997 114.401C77.3997 114.801 77.7997 114.901 78.3997 114.901C78.9997 114.901 79.3997 114.701 79.6997 114.401Z" fill="#231815"/>
<path d="M83.7 115.5C83.3 115.3 83 114.9 82.8 114.5C82.6 114.1 82.5 113.6 82.5 113C82.5 112.4 82.5 111.9 82.8 111.5C83.1 111.1 83.3 110.7 83.7 110.5C84.1 110.3 84.5 110.2 85.1 110.2C85.7 110.2 86.1 110.2 86.5 110.5C86.9 110.7 87.2 111.1 87.4 111.5C87.6 111.9 87.7 112.4 87.7 113C87.7 113.6 87.7 114.1 87.4 114.5C87.2 114.9 86.9 115.3 86.5 115.5C86.1 115.7 85.6 115.8 85.1 115.8C84.6 115.8 84.1 115.8 83.7 115.5ZM86.3 114.6C86.6 114.2 86.7 113.7 86.7 113C86.7 112.3 86.5 111.8 86.2 111.4C85.9 111 85.5 110.8 85 110.8C84.5 110.8 84 111 83.7 111.4C83.4 111.8 83.2 112.3 83.2 113C83.2 113.7 83.4 114.2 83.7 114.6C84 115 84.4 115.1 85 115.1C85.6 115.1 86 114.9 86.3 114.6Z" fill="#231815"/>
<path d="M90.1997 111V114C90.1997 114.4 90.1997 114.7 90.3997 114.9C90.5997 115.1 90.7997 115.1 91.0997 115.1H91.6997V115.9C91.4997 115.9 91.1997 115.9 90.8997 115.9C90.3997 115.9 89.9997 115.7 89.6997 115.4C89.3997 115.1 89.2997 114.7 89.2997 114.1V110.9H88.1997V110.2H89.2997V108.8L90.1997 108.5V110.2H91.7997V110.9H90.1997V111Z" fill="#231815"/>
<path d="M97.7998 110.3L95.1998 116.3C94.8998 116.9 94.5998 117.4 94.1998 117.7C93.7998 118 93.2998 118.2 92.6998 118.3L92.4998 117.6C92.9998 117.6 93.3998 117.3 93.6998 117.1C93.9998 116.9 94.1998 116.6 94.3998 116.2L94.5998 115.7L92.2998 110.2H93.1998L95.0998 114.8L96.9998 110.2H97.8998L97.7998 110.3Z" fill="#231815"/>
<path d="M102.8 110.501C103.2 110.701 103.5 111.101 103.7 111.501C103.9 111.901 104 112.401 104 113.001C104 113.601 104 114.101 103.7 114.501C103.4 114.901 103.2 115.301 102.8 115.501C102.4 115.701 102 115.801 101.5 115.801C101 115.801 100.7 115.801 100.4 115.501C100.1 115.201 99.7998 115.001 99.6998 114.701V118.101H98.7998V110.201H99.5998V111.301C99.7998 110.901 100.1 110.601 100.4 110.401C100.7 110.201 101.1 110.101 101.6 110.101C102.1 110.101 102.5 110.101 102.9 110.501H102.8ZM102.7 114.601C103 114.201 103.2 113.701 103.2 113.001C103.2 112.301 103 111.801 102.7 111.401C102.4 111.001 102 110.801 101.5 110.801C101 110.801 100.5 111.001 100.2 111.301C99.8998 111.701 99.7998 112.201 99.7998 112.901C99.7998 113.601 99.9998 114.101 100.2 114.501C100.5 114.901 100.9 115.101 101.5 115.101C102.1 115.101 102.5 114.901 102.8 114.501H102.7V114.601Z" fill="#231815"/>
<path d="M110 113H105.9C105.9 113.7 106.1 114.2 106.4 114.6C106.7 114.9 107.2 115.1 107.8 115.1C108.4 115.1 109 114.9 109.6 114.4L109.9 115.1C109.7 115.3 109.3 115.5 109 115.6C108.6 115.6 108.2 115.8 107.8 115.8C106.9 115.8 106.3 115.6 105.8 115C105.3 114.5 105.1 113.8 105.1 112.9C105.1 112 105.1 111.8 105.4 111.4C105.7 111 105.9 110.6 106.3 110.4C106.7 110.2 107.1 110 107.6 110C108.1 110 108.9 110.2 109.3 110.7C109.7 111.2 109.9 111.8 109.9 112.7V112.9L110 113ZM106.6 111.3C106.3 111.6 106.1 112 106 112.5H109.2C109.2 112 109 111.6 108.7 111.3C108.4 111 108.1 110.9 107.6 110.9C107.1 110.9 106.8 110.9 106.5 111.3H106.6Z" fill="#231815"/>
<path d="M122 108H126.9V108.8H122.8V111.5H126.6V112.3H122.8V115.1H126.9V115.9H122V108.1V108Z" fill="#231815"/>
<path d="M133.1 112.3V115.8H132.2V112.4C132.2 111.9 132.1 111.5 131.9 111.3C131.7 111.1 131.4 110.9 130.9 110.9C130.4 110.9 130 111.1 129.7 111.4C129.4 111.7 129.2 112.1 129.2 112.7V115.9H128.3V110.4H129.1V111.4C129.4 111 129.6 110.8 130 110.6C130.3 110.4 130.7 110.3 131.2 110.3C132.5 110.3 133.2 111 133.2 112.5V112.3H133.1Z" fill="#231815"/>
<path d="M139.7 110.301V115.801C139.7 116.601 139.5 117.201 139.1 117.701C138.7 118.201 138.1 118.301 137.2 118.301C136.3 118.301 135.6 118.101 135 117.701V117.001C135.5 117.201 135.8 117.301 136.1 117.401C136.4 117.401 136.8 117.401 137.1 117.401C137.6 117.401 138 117.401 138.3 117.001C138.6 116.601 138.7 116.301 138.7 115.701V114.401C138.5 114.701 138.3 115.001 138 115.201C137.7 115.401 137.3 115.501 136.8 115.501C136.3 115.501 135.9 115.501 135.5 115.201C135.1 114.901 134.8 114.701 134.6 114.201C134.4 113.801 134.3 113.301 134.3 112.801C134.3 112.301 134.4 111.801 134.6 111.401C134.8 111.001 135.1 110.701 135.5 110.401C135.9 110.201 136.3 110.101 136.8 110.101C137.3 110.101 137.6 110.101 138 110.401C138.3 110.601 138.6 110.901 138.7 111.201V110.201H139.7V110.301ZM138.3 114.401C138.6 114.001 138.8 113.601 138.8 112.901C138.8 112.201 138.7 111.801 138.3 111.401C138 111.001 137.6 110.901 137 110.901C136.4 110.901 136 111.101 135.7 111.401C135.4 111.801 135.2 112.201 135.2 112.901C135.2 113.601 135.4 114.001 135.7 114.401C136 114.801 136.4 114.901 137 114.901C137.6 114.901 138 114.701 138.3 114.401Z" fill="#231815"/>
<path d="M141.4 107.7H142.3V115.8H141.4V107.7Z" fill="#231815"/>
<path d="M145 107.9V108.9H143.9V107.9H145ZM144 110.3H144.9V115.8H144V110.3Z" fill="#231815"/>
<path d="M146.3 115.2L146.6 114.5C146.9 114.7 147.2 114.9 147.5 115C147.8 115.1 148.1 115.2 148.5 115.2C148.9 115.2 149.2 115.2 149.4 115C149.6 114.8 149.7 114.7 149.7 114.4C149.7 114.1 149.7 114 149.5 113.9C149.3 113.8 149.1 113.7 148.8 113.6L147.9 113.4C147.4 113.4 147.1 113.1 146.8 112.8C146.6 112.5 146.4 112.2 146.4 111.9C146.4 111.6 146.6 111 147 110.7C147.4 110.4 147.9 110.2 148.5 110.2C149.1 110.2 149.3 110.2 149.6 110.4C149.9 110.4 150.2 110.7 150.5 110.9L150.2 111.6C149.7 111.2 149.1 110.9 148.5 110.9C147.9 110.9 147.8 110.9 147.6 111.1C147.4 111.3 147.3 111.5 147.3 111.7C147.3 111.9 147.3 112.1 147.5 112.2C147.6 112.2 147.9 112.4 148.2 112.5L149.1 112.7C149.6 112.7 150 113 150.2 113.2C150.4 113.4 150.6 113.8 150.6 114.2C150.6 114.6 150.4 115.1 150 115.3C149.6 115.6 149.1 115.7 148.4 115.7C147.7 115.7 146.7 115.5 146.2 115V115.2H146.3Z" fill="#231815"/>
<path d="M156.8 112.3V115.8H155.9V112.4C155.9 111.9 155.9 111.5 155.6 111.3C155.4 111.1 155.1 110.9 154.6 110.9C154.1 110.9 153.7 111.1 153.4 111.4C153.1 111.7 152.9 112.1 152.9 112.7V115.9H152V107.8H152.9V111.3C153.1 111 153.3 110.7 153.7 110.5C154 110.3 154.4 110.2 154.8 110.2C156.1 110.2 156.8 110.9 156.8 112.4V112.3Z" fill="#231815"/>
<path d="M133.7 26.5996H133.5V16.2996H48.5999V26.5996H48.3999V16.0996H133.7V26.5996Z" fill="#231815"/>
<path d="M42.7998 0.299805H43.6998V7.3998H47.5998V8.1998H42.7998V0.299805Z" fill="#231815"/>
<path d="M49.5999 7.8C49.1999 7.6 48.8999 7.2 48.6999 6.8C48.4999 6.4 48.3999 5.9 48.3999 5.3C48.3999 4.7 48.3999 4.2 48.6999 3.8C48.9999 3.4 49.1999 3 49.5999 2.8C49.9999 2.6 50.4999 2.5 50.9999 2.5C51.4999 2.5 51.9999 2.5 52.3999 2.8C52.7999 3.1 53.0999 3.4 53.2999 3.8C53.4999 4.2 53.5999 4.7 53.5999 5.3C53.5999 5.9 53.5999 6.4 53.2999 6.8C52.9999 7.2 52.7999 7.6 52.3999 7.8C51.9999 8 51.4999 8.2 50.9999 8.2C50.4999 8.2 49.9999 8.1 49.5999 7.8ZM52.1999 6.9C52.4999 6.5 52.5999 6 52.5999 5.3C52.5999 4.6 52.3999 4.1 52.0999 3.7C51.7999 3.3 51.3999 3.1 50.8999 3.1C50.3999 3.1 49.8999 3.3 49.5999 3.7C49.2999 4.1 49.0999 4.6 49.0999 5.3C49.0999 6 49.2999 6.5 49.5999 6.9C49.8999 7.3 50.2999 7.4 50.8999 7.4C51.4999 7.4 51.8999 7.2 52.1999 6.9Z" fill="#231815"/>
<path d="M59.8996 2.6V8.1C59.8996 8.9 59.6996 9.5 59.2996 10C58.8996 10.4 58.2996 10.6 57.3996 10.6C56.4996 10.6 55.7996 10.4 55.1996 10L55.3996 9.3C55.6996 9.5 56.0996 9.6 56.3996 9.7C56.6996 9.7 57.0996 9.8 57.3996 9.8C57.8996 9.8 58.2996 9.7 58.5996 9.4C58.8996 9.1 58.9996 8.7 58.9996 8.1V6.8C58.7996 7.2 58.5996 7.4 58.2996 7.6C57.9996 7.8 57.5996 7.9 57.0996 7.9C56.5996 7.9 56.1996 7.9 55.7996 7.6C55.3996 7.4 55.0996 7.1 54.8996 6.6C54.6996 6.2 54.5996 5.7 54.5996 5.2C54.5996 4.7 54.5996 4.2 54.8996 3.8C55.1996 3.4 55.3996 3.1 55.7996 2.8C56.1996 2.6 56.5996 2.5 57.0996 2.5C57.5996 2.5 57.8996 2.5 58.2996 2.8C58.5996 3 58.8996 3.3 58.9996 3.6V2.6H59.8996ZM58.4996 6.6C58.7996 6.2 58.9996 5.8 58.9996 5.1C58.9996 4.4 58.7996 4 58.4996 3.6C58.1996 3.2 57.7996 3.1 57.1996 3.1C56.5996 3.1 56.1996 3.3 55.8996 3.6C55.5996 4 55.3996 4.4 55.3996 5.1C55.3996 5.8 55.5996 6.2 55.8996 6.6C56.1996 7 56.5996 7.1 57.1996 7.1C57.7996 7.1 58.1996 6.9 58.4996 6.6Z" fill="#231815"/>
<path d="M62.4998 7.8C62.0998 7.6 61.7998 7.2 61.5998 6.8C61.3998 6.4 61.2998 5.9 61.2998 5.3C61.2998 4.7 61.2998 4.2 61.5998 3.8C61.8998 3.4 62.0998 3 62.4998 2.8C62.8998 2.6 63.2998 2.5 63.8998 2.5C64.4998 2.5 64.8998 2.5 65.2998 2.8C65.6998 3.1 65.9998 3.4 66.1998 3.8C66.3998 4.2 66.4998 4.7 66.4998 5.3C66.4998 5.9 66.4998 6.4 66.1998 6.8C65.9998 7.2 65.6998 7.6 65.2998 7.8C64.8998 8 64.3998 8.2 63.8998 8.2C63.3998 8.2 62.8998 8.1 62.4998 7.8ZM65.0998 6.9C65.3998 6.5 65.4998 6 65.4998 5.3C65.4998 4.6 65.2998 4.1 64.9998 3.7C64.6998 3.3 64.2998 3.1 63.7998 3.1C63.2998 3.1 62.7998 3.3 62.4998 3.7C62.1998 4.1 62.0998 4.6 62.0998 5.3C62.0998 6 62.0998 6.5 62.4998 6.9C62.7998 7.3 63.1998 7.4 63.7998 7.4C64.3998 7.4 64.7998 7.2 65.0998 6.9Z" fill="#231815"/>
<path d="M69.1 3.3V6.3C69.1 6.7 69.1 7 69.3 7.2C69.5 7.4 69.7 7.4 70 7.4H70.6V8.2C70.4 8.2 70.1 8.3 69.8 8.3C69.3 8.3 68.9 8.2 68.6 7.8C68.3 7.5 68.1 7.1 68.1 6.5V3.4H67V2.7H68.1V1.3L69 1V2.7H70.6V3.4H69H69.1V3.3Z" fill="#231815"/>
<path d="M76.6997 2.6L74.0997 8.6C73.7997 9.2 73.4997 9.7 73.0997 10C72.6997 10.3 72.1997 10.5 71.5997 10.6L71.3997 9.9C71.8997 9.8 72.2997 9.6 72.5997 9.4C72.8997 9.2 73.0997 8.9 73.2997 8.5L73.4997 8L71.1997 2.5H72.0997L73.9997 7.1L75.8997 2.5H76.7997L76.6997 2.6Z" fill="#231815"/>
<path d="M81.6997 2.8C82.0997 3 82.3997 3.4 82.5997 3.8C82.7997 4.2 82.8997 4.7 82.8997 5.3C82.8997 5.9 82.8997 6.4 82.5997 6.8C82.2997 7.2 82.0997 7.6 81.6997 7.8C81.2997 8 80.8997 8.2 80.3997 8.2C79.8997 8.2 79.5997 8.1 79.2997 7.9C78.9997 7.7 78.6997 7.4 78.5997 7.1V10.5H77.6997V2.6H78.5997V3.7C78.7997 3.3 79.0997 3 79.3997 2.8C79.6997 2.6 80.0997 2.5 80.5997 2.5C81.0997 2.5 81.4997 2.5 81.8997 2.9H81.6997V2.8ZM81.4997 6.9C81.7997 6.5 81.8997 6 81.8997 5.3C81.8997 4.6 81.8997 4.1 81.4997 3.7C81.0997 3.3 80.7997 3.1 80.2997 3.1C79.7997 3.1 79.2997 3.3 78.9997 3.6C78.6997 4 78.5997 4.5 78.5997 5.2C78.5997 5.9 78.7997 6.4 78.9997 6.8C79.2997 7.2 79.6997 7.4 80.2997 7.4C80.8997 7.4 81.2997 7.2 81.5997 6.8H81.4997V6.9Z" fill="#231815"/>
<path d="M88.9 5.2998H84.8C84.8 5.9998 85 6.49981 85.3 6.89981C85.6 7.29981 86.1 7.39981 86.7 7.39981C87.3 7.39981 87.9 7.1998 88.5 6.6998L88.8 7.39981C88.6 7.59981 88.2 7.79981 87.9 7.89981C87.5 7.89981 87.1 8.0998 86.7 8.0998C85.8 8.0998 85.2 7.7998 84.7 7.2998C84.2 6.7998 84 6.0998 84 5.1998C84 4.2998 84 4.0998 84.3 3.6998C84.5 3.2998 84.8 2.8998 85.2 2.6998C85.6 2.4998 86 2.2998 86.5 2.2998C87 2.2998 87.8 2.4998 88.2 2.9998C88.6 3.4998 88.8 4.0998 88.8 4.9998V5.1998L88.9 5.2998ZM85.4 3.4998C85.1 3.7998 84.9 4.1998 84.8 4.6998H88C88 4.1998 87.8 3.7998 87.5 3.4998C87.2 3.1998 86.9 3.0998 86.4 3.0998C85.9 3.0998 85.6 3.0998 85.3 3.4998H85.4Z" fill="#231815"/>
<path d="M93 4.7998H96.1V5.4998H93V4.7998Z" fill="#231815"/>
<path d="M102.2 7.7002C101.7 7.4002 101.2 6.9002 100.9 6.3002C100.6 5.7002 100.5 5.0002 100.5 4.2002C100.5 3.4002 100.7 2.7002 100.9 2.1002C101.2 1.5002 101.6 1.0002 102.2 0.700195C102.8 0.400195 103.4 0.200195 104.1 0.200195C104.8 0.200195 105.1 0.200195 105.6 0.400195C106 0.600195 106.4 0.800195 106.8 1.1002L106.5 1.8002C106.1 1.5002 105.8 1.2002 105.4 1.1002C105 1.0002 104.6 0.900195 104.2 0.900195C103.3 0.900195 102.7 1.2002 102.2 1.7002C101.7 2.3002 101.5 3.1002 101.5 4.1002C101.5 5.1002 101.7 5.9002 102.2 6.5002C102.7 7.1002 103.3 7.3002 104.2 7.3002C105.1 7.3002 105 7.3002 105.4 7.1002C105.8 6.9002 106.1 6.7002 106.5 6.4002L106.8 7.1002C106.5 7.4002 106.1 7.7002 105.6 7.8002C105.2 8.0002 104.7 8.0002 104.1 8.0002C103.5 8.0002 102.7 7.8002 102.2 7.5002V7.7002Z" fill="#231815"/>
<path d="M113 4.6V8.1H112.1V4.7C112.1 4.2 112.1 3.8 111.8 3.6C111.5 3.4 111.3 3.2 110.8 3.2C110.3 3.2 109.9 3.4 109.6 3.7C109.3 4 109.1 4.4 109.1 5V8.2H108.2V0H109.1V3.5C109.3 3.2 109.5 2.9 109.9 2.7C110.2 2.5 110.6 2.4 111 2.4C112.3 2.4 113 3.1 113 4.6Z" fill="#231815"/>
<path d="M115.6 0.200195V1.2002H114.5V0.200195H115.6ZM114.6 2.6002H115.5V8.1002H114.6V2.6002Z" fill="#231815"/>
<path d="M122 4.59961V8.09961H121.1V4.69961C121.1 4.19961 121.1 3.79961 120.8 3.59961C120.6 3.39961 120.3 3.19961 119.8 3.19961C119.3 3.19961 118.9 3.39961 118.6 3.69961C118.3 3.99961 118.1 4.39961 118.1 4.99961V8.19961H117.2V2.69961H118V3.69961C118.3 3.29961 118.5 3.09961 118.9 2.89961C119.2 2.69961 119.6 2.59961 120.1 2.59961C121.4 2.59961 122.1 3.29961 122.1 4.79961V4.59961H122Z" fill="#231815"/>
<path d="M128.3 5.2998H124.2C124.2 5.9998 124.4 6.49981 124.7 6.89981C125 7.29981 125.5 7.39981 126.1 7.39981C126.7 7.39981 127.3 7.1998 127.9 6.6998L128.2 7.39981C128 7.59981 127.7 7.79981 127.3 7.89981C126.9 7.99981 126.5 8.0998 126.1 8.0998C125.2 8.0998 124.6 7.7998 124.1 7.2998C123.6 6.7998 123.4 6.0998 123.4 5.1998C123.4 4.2998 123.4 4.0998 123.7 3.6998C123.9 3.2998 124.2 2.8998 124.6 2.6998C125 2.4998 125.4 2.2998 125.9 2.2998C126.4 2.2998 127.2 2.4998 127.6 2.9998C128 3.4998 128.2 4.0998 128.2 4.9998V5.1998L128.3 5.2998ZM124.8 3.4998C124.5 3.7998 124.3 4.1998 124.2 4.6998H127.4C127.4 4.1998 127.2 3.7998 126.9 3.4998C126.6 3.1998 126.3 3.0998 125.8 3.0998C125.3 3.0998 125 3.0998 124.7 3.4998H124.8Z" fill="#231815"/>
<path d="M129.3 7.4998L129.6 6.7998C129.9 6.9998 130.2 7.1998 130.5 7.2998C130.8 7.2998 131.1 7.2998 131.5 7.2998C131.9 7.2998 132.2 7.2998 132.4 7.0998C132.6 7.0998 132.7 6.7998 132.7 6.4998C132.7 6.1998 132.7 6.0998 132.5 5.9998C132.3 5.8998 132.1 5.7998 131.8 5.6998L130.9 5.4998C130.4 5.4998 130.1 5.1998 129.8 4.9998C129.6 4.6998 129.4 4.3998 129.4 3.9998C129.4 3.5998 129.6 3.0998 130 2.7998C130.4 2.4998 130.9 2.2998 131.5 2.2998C132.1 2.2998 132.3 2.2998 132.6 2.4998C132.9 2.4998 133.2 2.7998 133.5 2.9998L133.2 3.5998C132.7 3.1998 132.1 2.9998 131.5 2.9998C130.9 2.9998 130.8 2.9998 130.6 3.1998C130.4 3.1998 130.3 3.5998 130.3 3.7998C130.3 3.9998 130.3 4.1998 130.5 4.2998C130.6 4.2998 130.9 4.4998 131.2 4.5998L132.1 4.7998C132.6 4.7998 133 5.0998 133.2 5.2998C133.4 5.4998 133.6 5.8998 133.6 6.2998C133.6 6.6998 133.4 7.19981 133 7.39981C132.6 7.69981 132.1 7.7998 131.4 7.7998C130.7 7.7998 129.7 7.5998 129.2 7.0998V7.39981L129.3 7.4998Z" fill="#231815"/>
<path d="M139.8 5.2998H135.7C135.7 5.9998 135.9 6.49981 136.2 6.89981C136.5 7.19981 137 7.39981 137.6 7.39981C138.2 7.39981 138.8 7.1998 139.4 6.6998L139.7 7.39981C139.5 7.59981 139.1 7.79981 138.8 7.89981C138.4 7.89981 138 8.0998 137.6 8.0998C136.7 8.0998 136.1 7.7998 135.6 7.2998C135.1 6.7998 134.9 6.0998 134.9 5.1998C134.9 4.2998 135 4.0998 135.2 3.6998C135.4 3.2998 135.7 2.8998 136.1 2.6998C136.5 2.4998 137 2.2998 137.5 2.2998C138 2.2998 138.8 2.4998 139.2 2.9998C139.6 3.4998 139.8 4.0998 139.8 4.9998V5.1998V5.2998ZM136.3 3.4998C136 3.7998 135.8 4.1998 135.7 4.6998H138.9C138.9 4.1998 138.7 3.7998 138.4 3.4998C138.1 3.1998 137.8 3.0998 137.3 3.0998C136.8 3.0998 136.5 3.0998 136.2 3.4998H136.3Z" fill="#231815"/>
<path d="M6.1001 108H11.1001V108.7H7.0001V111.4H10.8001V112.2H7.0001V115H11.1001V115.7H6.1001V107.9V108Z" fill="#231815"/>
<path d="M20.3998 112.3V115.8H19.4998V112.4C19.4998 111.9 19.4998 111.5 19.1998 111.3C18.9998 111.1 18.6998 110.9 18.2998 110.9C17.8998 110.9 17.4998 111.1 17.1998 111.4C16.8998 111.7 16.7998 112.1 16.7998 112.7V115.9H15.8998V112.5C15.8998 112 15.8998 111.6 15.5998 111.4C15.3998 111.2 15.0998 111 14.6998 111C14.2998 111 13.8998 111.2 13.5998 111.5C13.2998 111.8 13.1998 112.2 13.1998 112.8V116H12.2998V110.4H13.0998V111.4C13.2998 111 13.5998 110.8 13.8998 110.6C14.1998 110.4 14.5998 110.3 14.9998 110.3C15.3998 110.3 15.7998 110.3 16.0998 110.6C16.3998 110.8 16.5998 111 16.6998 111.4C16.8998 111.1 17.0998 110.8 17.3998 110.6C17.6998 110.4 18.0998 110.3 18.4998 110.3C19.6998 110.3 20.2998 111 20.2998 112.5V112.3H20.3998Z" fill="#231815"/>
<path d="M26.2002 110.5C26.6002 110.7 26.9002 111.1 27.1002 111.5C27.3002 111.9 27.4002 112.4 27.4002 113C27.4002 113.6 27.3002 114.1 27.1002 114.5C26.9002 114.9 26.6002 115.3 26.2002 115.5C25.8002 115.7 25.4002 115.9 24.9002 115.9C24.4002 115.9 24.1002 115.9 23.8002 115.6C23.5002 115.3 23.2002 115.1 23.1002 114.8V115.8H22.2002V107.7H23.1002V111.2C23.3002 110.8 23.5002 110.6 23.8002 110.4C24.1002 110.2 24.5002 110.1 24.9002 110.1C25.3002 110.1 25.8002 110.1 26.2002 110.5ZM26.0002 114.6C26.3002 114.2 26.5002 113.7 26.5002 113C26.5002 112.3 26.4002 111.8 26.1002 111.4C25.8002 111 25.4002 110.9 24.8002 110.9C24.2002 110.9 23.8002 111.1 23.5002 111.4C23.2002 111.8 23.1002 112.3 23.1002 113C23.1002 113.7 23.2002 114.2 23.5002 114.6C23.8002 115 24.2002 115.2 24.8002 115.2C25.4002 115.2 25.8002 115 26.1002 114.6H26.0002Z" fill="#231815"/>
<path d="M28.7002 107.7H29.6002V115.8H28.7002V107.7Z" fill="#231815"/>
<path d="M36.0001 113H31.9001C31.9001 113.7 32.1001 114.2 32.4001 114.6C32.7001 115 33.2001 115.1 33.8001 115.1C34.4001 115.1 35.0001 114.9 35.6001 114.5L35.9001 115.1C35.7001 115.3 35.3001 115.5 35.0001 115.6C34.6001 115.6 34.2001 115.8 33.8001 115.8C32.9001 115.8 32.3001 115.5 31.8001 115C31.3001 114.5 31.1001 113.8 31.1001 112.9C31.1001 112 31.2001 111.8 31.4001 111.4C31.6001 111 31.9001 110.6 32.3001 110.4C32.7001 110.2 33.1001 110 33.7001 110C34.3001 110 35.0001 110.2 35.4001 110.7C35.8001 111.2 36.0001 111.8 36.0001 112.7V112.9V113ZM32.5001 111.3C32.2001 111.6 32.0001 112 31.9001 112.5H35.1001C35.1001 112 34.9001 111.6 34.6001 111.3C34.3001 111 34.0001 110.9 33.5001 110.9C33.0001 110.9 32.7001 110.9 32.4001 111.3H32.5001Z" fill="#231815"/>
<path d="M45.3002 112.3V115.8H44.4002V112.4C44.4002 111.9 44.4002 111.5 44.1002 111.3C43.9002 111.1 43.6002 110.9 43.2002 110.9C42.8002 110.9 42.4002 111.1 42.1002 111.4C41.8002 111.7 41.7002 112.1 41.7002 112.7V115.9H40.8002V112.5C40.8002 112 40.8002 111.6 40.5002 111.4C40.3002 111.2 40.0002 111 39.6002 111C39.2002 111 38.8002 111.2 38.5002 111.5C38.2002 111.8 38.1002 112.2 38.1002 112.8V116H37.2002V110.4H38.0002V111.4C38.2002 111 38.5002 110.8 38.8002 110.6C39.1002 110.4 39.5002 110.3 39.9002 110.3C40.3002 110.3 40.7002 110.3 41.0002 110.6C41.3002 110.8 41.5002 111 41.6002 111.4C41.8002 111.1 42.0002 110.8 42.3002 110.6C42.6002 110.4 43.0002 110.3 43.4002 110.3C44.6002 110.3 45.2002 111 45.2002 112.5V112.3H45.3002Z" fill="#231815"/>
</svg>
