<svg width="188" height="37" viewBox="0 0 188 37" fill="none" xmlns="http://www.w3.org/2000/svg">
<g clip-path="url(#clip0_1152_26)">
<path d="M16.8702 7.54141C17.0402 7.32141 17.1102 6.94141 17.1102 6.94141H6.66016C6.66016 6.94141 6.79016 7.37141 6.90016 7.54141H16.8702Z" fill="white"/>
<path d="M16.2696 8.43016C16.4596 8.26016 16.6596 7.91016 16.6596 7.91016H7.09961C7.09961 7.91016 7.20961 8.17016 7.44961 8.43016H16.2796H16.2696Z" fill="white"/>
<path d="M15.5095 9.22984C15.7495 9.09984 15.9395 8.83984 15.9395 8.83984H7.76953C7.76953 8.83984 7.95953 9.05984 8.15953 9.22984H15.5195H15.5095Z" fill="white"/>
<path d="M14.5597 9.99141C14.7897 9.90141 15.0597 9.69141 15.0597 9.69141H8.67969C8.67969 9.69141 8.67969 9.74141 9.12969 9.99141H14.5597Z" fill="white"/>
<path d="M9.85938 10.4609C9.85938 10.4609 10.5294 10.8509 11.8494 10.8509C13.1694 10.8509 14.0094 10.4609 14.0094 10.4609H9.85938Z" fill="white"/>
<path d="M9.76 11.3498C9.76 11.3498 10.56 11.3898 11.03 11.7598C11.48 12.1498 11.83 12.7998 11.83 12.7998C11.83 12.7998 12.11 12.1798 12.57 11.8498C13.02 11.4998 13.76 11.3498 13.76 11.3498H22L23.62 13.7498H16.22C16.22 13.7498 15.7 13.7698 14.92 14.2298C14.51 14.4598 14.2 14.8798 14.2 14.8798C14.2 14.8798 14.14 15.0698 14.05 15.1798C13.96 15.2898 13.9 15.3798 13.79 15.4198C13.68 15.4598 13.7 15.4398 13.7 15.4398H9.85C9.85 15.4398 9.69 15.3798 9.61 15.2398C9.52 15.1098 9.59 15.1598 9.5 15.0498C9.43 14.9398 9.28 14.6598 8.7 14.2698C8.09 13.8698 7.51 13.8298 7.51 13.8298H0L1.64 11.3398H9.76V11.3498Z" fill="white"/>
<path d="M3.92969 14.7383V27.0283C3.92969 27.0283 3.96969 28.1083 4.87969 29.5783C5.78969 31.0483 7.10969 31.7183 7.10969 31.7183L8.14969 30.0983C8.14969 30.0983 7.23969 29.5583 6.54969 28.5183C5.87969 27.4783 5.87969 26.5883 5.87969 26.5883V14.7383H3.92969Z" fill="white"/>
<path d="M17.8702 14.6992V26.5492C17.8702 26.5492 17.7202 27.7392 17.1502 28.5792C16.5902 29.4492 15.6602 30.1392 15.6602 30.1392L16.6602 31.7392C16.6602 31.7392 18.1702 30.6392 18.9102 29.4692C19.6502 28.2992 19.8202 26.5492 19.8202 26.5492V14.6992H17.8702Z" fill="white"/>
<path d="M0.839844 14.7383V27.0683C0.839844 27.0683 0.969844 28.9783 2.15984 30.9683C3.34984 32.9583 5.50984 34.3483 5.50984 34.3483L6.52984 32.7283C6.52984 32.7283 5.14984 31.9883 4.03984 30.2983C2.90984 28.5883 2.84984 27.0283 2.84984 27.0283V14.7383H0.839844Z" fill="white"/>
<path d="M9.75922 16.0391V29.0591C9.75922 29.0591 9.70922 29.0991 9.69922 29.2991C9.67922 29.4991 9.54922 29.6291 9.54922 29.6291L5.19922 36.8291H18.5292L14.1792 29.4691L14.0492 29.1391L13.9992 28.7991V16.0591H12.3792V29.2791C12.3792 29.2791 12.3792 29.4691 12.4492 29.6191C12.4892 29.7691 12.5792 30.0091 12.5792 30.0091L15.2592 34.4191H8.46922L11.1092 30.0291C11.1092 30.0291 11.1992 29.8791 11.2592 29.6691C11.2992 29.4691 11.3192 29.2791 11.3192 29.2791V16.0391H9.75922Z" fill="white"/>
<path d="M20.8802 14.6992V26.8092C20.8802 26.8092 20.8602 28.3692 19.7102 30.1592C18.5602 31.9592 17.2402 32.7092 17.2402 32.7092L18.2202 34.3492C18.2202 34.3492 20.2102 33.0892 21.4602 31.0992C22.6902 29.1092 22.8502 26.7992 22.8502 26.7992V14.6992H20.8802Z" fill="white"/>
<path d="M6.59984 6.59C6.59984 6.59 5.92983 2.94 8.60983 1.12C8.60983 1.12 9.81983 0 11.7898 0C13.8898 0 15.0998 1.1 15.0998 1.1C18.0198 3.24 17.1598 6.6 17.1598 6.6H6.59984V6.59Z" fill="white"/>
<path d="M53.4291 18.16V16.42H44.5991V14.66C47.4091 14.42 49.7691 14.11 51.6691 13.72L50.7691 12C47.9091 12.64 43.6991 12.96 38.1391 12.96C36.9691 12.96 35.9891 12.95 35.1891 12.92L35.8791 14.85C37.2391 14.85 39.4891 14.81 42.6291 14.72V16.42H34.0391V18.16H40.4991C38.6191 19.74 36.4091 20.83 33.8691 21.45L34.8791 23.31C35.7191 23.03 36.3091 22.81 36.6591 22.66V31.64H38.6091V30.68H48.8991V31.64H50.8391V22.56C51.1191 22.71 51.4291 22.84 51.7591 22.94C52.0891 23.04 52.3991 23.15 52.6791 23.27L53.5991 21.37C50.5891 20.77 48.2891 19.7 46.6991 18.17H53.4391L53.4291 18.16ZM42.6291 18.22V22.07H37.8591C39.8291 21.23 41.4191 19.95 42.6291 18.22ZM48.8891 28.93H38.5991V27.09H48.8891V28.93ZM48.8891 25.42H38.5991V23.83H48.8891V25.42ZM49.7691 22.07H44.5991V18.2C45.9091 19.94 47.6291 21.23 49.7691 22.07Z" fill="white"/>
<path d="M60.7988 29.6603L62.4688 31.3803C63.6688 29.4803 64.5588 27.4103 65.1288 25.1403L63.3088 24.0703C62.8588 26.0503 62.0288 27.9103 60.7988 29.6503V29.6603Z" fill="white"/>
<path d="M65.2582 19.948C64.1882 19.128 63.1582 18.448 62.1682 17.918L60.9082 19.488C61.7282 20.028 62.7082 20.788 63.8382 21.748L65.2582 19.948Z" fill="white"/>
<path d="M76.19 27.0916V22.8016C77.03 23.5516 78.09 24.3116 79.37 25.0816L80.27 23.2216C78.01 22.1116 76.6 20.9816 76.04 19.8516H80.04V18.0916H76.28V15.9316H79.73V14.2816H76.28V12.1016H74.39V14.2816H70.58V12.1016H68.67V14.2816H65.89V14.5516C65.07 13.9216 64.06 13.2316 62.88 12.4816L61.5 14.0316C62.43 14.6216 63.47 15.4316 64.61 16.4816L65.89 14.8916V16.0216H68.67V18.1116H65.47V19.8716H68.82C68.21 21.1816 66.74 22.3616 64.43 23.4116L65.62 25.1716C66.55 24.5816 67.19 24.1416 67.54 23.8516V28.5416C67.54 29.4916 67.71 30.1416 68.06 30.4916C68.42 30.8216 69.05 30.9916 69.94 30.9916H76.72C77.79 30.9916 78.51 30.8016 78.87 30.4216C79.25 30.0316 79.55 28.8716 79.77 26.9316L77.76 26.2016C77.66 27.3016 77.56 28.0816 77.45 28.5216C77.34 28.9516 76.99 29.1716 76.41 29.1716H70.2C69.71 29.1716 69.47 28.9316 69.47 28.4416V27.1016H76.2L76.19 27.0916ZM70.57 16.0416H74.38V18.0916H70.57V16.0416ZM71.03 19.8516H73.85C74.24 20.5916 74.67 21.2216 75.13 21.7316H69.8C70.32 21.1916 70.73 20.5616 71.03 19.8516ZM69.44 25.4416V23.3916H74.25V25.4416H69.44Z" fill="white"/>
<path d="M93.4886 19.5513V19.3612H96.6686V17.5613H93.4886V14.6112C94.5886 14.3912 95.6386 14.1013 96.6486 13.7513L95.9386 12.0312C93.6886 12.8813 91.0086 13.3813 87.8886 13.5413L88.3286 15.3012C89.7486 15.2112 90.8286 15.0913 91.5686 14.9513V17.5712H87.6786V19.3713H91.5086C90.6286 21.6913 89.3086 23.8412 87.5586 25.8412L88.7286 27.7213C90.0986 25.9313 91.0486 24.3713 91.5786 23.0312V31.6313L93.4986 31.5513V21.8412C93.8786 22.3412 94.2386 22.8112 94.6086 23.2412C95.0286 23.7112 95.4486 24.2512 95.8686 24.8312L97.0386 23.0312C96.2386 22.1712 95.0586 21.0113 93.4986 19.5613L93.4886 19.5513Z" fill="white"/>
<path d="M102.258 21.0817C100.728 19.9117 99.4282 19.0517 98.3882 18.5117L97.1582 19.9117C98.2582 20.5717 99.5282 21.4917 100.968 22.6917L102.268 21.0817H102.258Z" fill="white"/>
<path d="M102.658 16.0383C101.018 14.8383 99.7384 13.9883 98.8284 13.4883L97.5684 14.8683C98.5284 15.4583 99.7884 16.3683 101.338 17.6083L102.658 16.0383Z" fill="white"/>
<path d="M105.358 11.918H103.418V23.948L96.4082 24.988V26.938L103.418 25.868V31.628H105.358V25.618L107.248 25.308V23.398L105.358 23.718V11.918Z" fill="white"/>
<path d="M131.719 24.258C132.459 23.048 132.919 22.058 133.099 21.308V19.568H128.879V16.768H133.819V14.868H128.879V11.918H126.809V14.868H122.309V16.208H119.839V11.918H117.779V16.208H114.679V18.108H117.779V22.318C116.789 22.588 115.689 22.788 114.469 22.948L114.969 25.208C115.649 25.038 116.589 24.808 117.769 24.498V28.768C117.769 29.228 117.539 29.458 117.079 29.458L115.259 29.398L115.739 31.508H117.399C118.429 31.508 119.099 31.338 119.389 31.008C119.669 30.688 119.809 30.028 119.809 29.038V23.908C121.009 23.498 121.829 23.188 122.259 22.948V20.898C121.739 21.148 120.929 21.458 119.809 21.818V18.118H122.279L122.299 16.778H126.799V19.578H122.659V21.508H130.959C130.359 23.268 129.349 24.708 127.929 25.838C126.969 24.878 126.009 23.548 125.039 21.838L123.299 22.528C124.329 24.408 125.379 25.898 126.459 26.988C124.449 28.338 122.439 29.238 120.439 29.688L121.589 31.588C123.599 31.168 125.699 30.118 127.909 28.428C129.529 29.908 131.259 30.948 133.099 31.548L134.169 29.578C132.409 29.088 130.839 28.278 129.439 27.128C130.239 26.428 130.989 25.478 131.719 24.258Z" fill="white"/>
<path d="M156.099 24.7514C154.919 22.8814 154.159 21.1014 153.839 19.3914L160.539 19.4114V17.1914H151.669C151.779 16.0914 151.839 14.3414 151.839 11.9414H149.639C149.639 14.1714 149.549 15.9214 149.369 17.1914H141.799V19.4114H149.019C148.679 21.3814 147.809 23.2814 146.409 25.1214C144.989 26.9614 143.279 28.4514 141.309 29.5814L142.899 31.5714C147.589 28.4914 150.399 24.4314 151.329 19.3914H151.669C153.069 25.0114 155.649 29.0614 159.409 31.5314L161.019 29.6114C158.939 28.2414 157.309 26.6214 156.119 24.7614L156.099 24.7514Z" fill="white"/>
<path d="M174.5 15.2983C173.92 14.2683 173.32 13.3283 172.72 12.4883L171.02 13.2483C171.63 14.1083 172.19 15.0683 172.72 16.1383L174.5 15.2883V15.2983Z" fill="white"/>
<path d="M179.088 24.1605C180.978 23.4105 182.648 22.6105 184.118 21.7705V19.9805H171.958V21.7705H181.038C179.588 22.4505 178.208 22.9905 176.898 23.3805V24.8205H168.818V26.6005H176.898V29.4105C176.898 29.7605 176.678 29.9305 176.228 29.9305C175.478 29.9305 174.758 29.9005 174.098 29.8405L174.508 31.7105H177.398C177.888 31.7105 178.318 31.5105 178.678 31.1205C178.928 30.8705 179.068 30.5005 179.088 30.0105V26.5905H187.098V24.8105H179.088V24.1605Z" fill="white"/>
<path d="M179.259 14.9484C178.709 13.8284 178.139 12.8184 177.559 11.8984L175.859 12.6584C176.429 13.5884 176.959 14.6284 177.469 15.7884L179.249 14.9384L179.259 14.9484Z" fill="white"/>
<path d="M183.459 16.4886C184.079 15.4586 184.699 14.1786 185.309 12.6586L183.089 11.8086C182.389 13.7486 181.719 15.3086 181.069 16.4886H168.379V20.9086H170.419V18.2786H185.629V20.8286H187.669V16.4986H183.449L183.459 16.4886Z" fill="white"/>
</g>
<defs>
<clipPath id="clip0_1152_26">
<rect width="188" height="37" fill="white"/>
</clipPath>
</defs>
</svg>
