<svg width="175" height="119" viewBox="0 0 175 119" fill="none" xmlns="http://www.w3.org/2000/svg">
<path d="M32.2002 42.9996C32.4002 42.6996 32.5002 42.0996 32.5002 42.0996H17.7002C17.7002 42.0996 17.9002 42.6996 18.0002 42.9996H32.1002H32.2002Z" fill="#A28038"/>
<path d="M31.2999 44.2996C31.5999 44.0996 31.8999 43.5996 31.8999 43.5996H18.3999C18.3999 43.5996 18.4999 43.9996 18.8999 44.2996H31.3999H31.2999Z" fill="#A28038"/>
<path d="M30.2998 45.4004C30.5998 45.2004 30.8998 44.9004 30.8998 44.9004H19.2998C19.2998 44.9004 19.5998 45.2004 19.8998 45.4004H30.2998Z" fill="#A28038"/>
<path d="M28.9001 46.4996C29.2001 46.3996 29.6001 46.0996 29.6001 46.0996H20.6001C20.6001 46.0996 20.6001 46.0996 21.2001 46.4996H28.9001Z" fill="#A28038"/>
<path d="M22.2998 47.2002C22.2998 47.2002 23.1998 47.7002 25.0998 47.7002C26.9998 47.7002 28.1998 47.2002 28.1998 47.2002H22.2998Z" fill="#A28038"/>
<path d="M22.0999 48.4004C22.0999 48.4004 23.1999 48.4004 23.8999 49.0004C24.4999 49.5004 24.9999 50.5004 24.9999 50.5004C24.9999 50.5004 25.3999 49.6004 25.9999 49.2004C26.5999 48.7004 27.6999 48.5004 27.6999 48.5004H39.3999L41.6999 51.9004H31.1999C31.1999 51.9004 30.4999 51.9004 29.3999 52.6004C28.7999 52.9004 28.3999 53.5004 28.3999 53.5004C28.3999 53.5004 28.3999 53.8004 28.1999 53.9004C28.0999 54.1004 27.9999 54.2004 27.7999 54.2004C27.5999 54.2004 27.6999 54.2004 27.6999 54.2004H22.1999C22.1999 54.2004 21.9999 54.2004 21.8999 53.9004C21.7999 53.7004 21.8999 53.8004 21.7999 53.6004C21.7999 53.5004 21.4999 53.1004 20.6999 52.5004C19.7999 51.9004 18.9999 51.9004 18.9999 51.9004H8.3999L10.6999 48.4004H22.1999H22.0999Z" fill="#0D386B"/>
<path d="M13.8998 53.2002V70.5002C13.8998 70.5002 13.8998 72.0002 15.2998 74.1002C16.5998 76.2002 18.3998 77.1002 18.3998 77.1002L19.8998 74.8002C19.8998 74.8002 18.5998 74.0002 17.5998 72.6002C16.5998 71.1002 16.5998 69.9002 16.5998 69.9002V53.2002H13.7998H13.8998Z" fill="#0D386B"/>
<path d="M33.6 53.2002V69.9002C33.6 69.9002 33.4 71.6002 32.6 72.8002C31.8 74.0002 30.5 75.0002 30.5 75.0002L31.9 77.3002C31.9 77.3002 34 75.7002 35.1 74.1002C36.1 72.4002 36.4 70.0002 36.4 70.0002V53.3002H33.6V53.2002Z" fill="#0D386B"/>
<path d="M9.5 53.2002V70.6002C9.5 70.6002 9.7 73.3002 11.4 76.1002C13.1 78.9002 16.2 80.9002 16.2 80.9002L17.6 78.6002C17.6 78.6002 15.6 77.6002 14.1 75.2002C12.5 72.8002 12.4 70.6002 12.4 70.6002V53.3002H9.5V53.2002Z" fill="#0D386B"/>
<path d="M22.1002 55V73.4C22.1002 73.4 22.1002 73.4 22.1002 73.7C22.1002 74 21.9002 74.2 21.9002 74.2L15.7002 84.4H34.6002L28.4002 74L28.2002 73.5V73V55H25.9002V73.7C25.9002 73.7 25.9002 74 25.9002 74.2C25.9002 74.4 26.1002 74.8 26.1002 74.8L29.9002 81H20.3002L24.0002 74.8C24.0002 74.8 24.1002 74.6 24.2002 74.3C24.2002 74 24.2002 73.8 24.2002 73.8V55.1H22.0002L22.1002 55Z" fill="#A28038"/>
<path d="M37.8998 53.1996V70.2996C37.8998 70.2996 37.8998 72.4996 36.2998 74.9996C34.6998 77.4996 32.7998 78.5996 32.7998 78.5996L34.1998 80.8996C34.1998 80.8996 36.9998 79.0996 38.7998 76.2996C40.5998 73.4996 40.7998 70.1996 40.7998 70.1996V53.0996H37.9998L37.8998 53.1996Z" fill="#0D386B"/>
<path d="M17.6999 41.7004C17.6999 41.7004 16.6999 36.5004 20.5999 34.0004C20.5999 34.0004 22.2999 32.4004 25.0999 32.4004C27.8999 32.4004 29.7999 34.0004 29.7999 34.0004C33.8999 37.0004 32.6999 41.8004 32.6999 41.8004H17.7999L17.6999 41.7004Z" fill="#A28038"/>
<path d="M49.3002 39.5998C49.8002 39.3998 50.1002 39.2998 50.3002 39.1998V44.0998H51.4002V43.5998H57.1002V44.0998H58.2002V39.0998C58.3002 39.0998 58.5002 39.2998 58.7002 39.2998C58.9002 39.2998 59.1002 39.3998 59.2002 39.4998L59.7002 38.4998C58.0002 38.1998 56.8002 37.5998 55.9002 36.6998H59.6002V35.6998H54.7002V34.6998C56.3002 34.5998 57.6002 34.3998 58.6002 34.1998L58.1002 33.2998C56.5002 33.6998 54.2002 33.7998 51.1002 33.7998C48.0002 33.7998 49.9002 33.7998 49.5002 33.7998L49.9002 34.8998C50.7002 34.8998 51.9002 34.8998 53.6002 34.8998V35.7998H48.8002V36.7998H52.4002C51.4002 37.6998 50.1002 38.2998 48.7002 38.5998L49.3002 39.5998ZM57.0002 42.6998H51.3002V41.6998H57.0002V42.6998ZM54.7002 36.7998C55.4002 37.7998 56.4002 38.4998 57.6002 38.8998H54.7002V36.7998ZM57.0002 39.8998V40.7998H51.3002V39.8998H57.0002ZM53.6002 36.7998V38.8998H51.0002C52.1002 38.3998 53.0002 37.6998 53.6002 36.7998Z" fill="#0D386B"/>
<path d="M66.4001 34.8996V35.4996H67.9001V36.5996H66.1001V37.5996H68.0001C67.7001 38.2996 66.8001 38.9996 65.6001 39.5996L66.3001 40.5996C66.8001 40.2996 67.2001 39.9996 67.4001 39.8996V42.4996C67.4001 42.9996 67.4001 43.3996 67.7001 43.5996C67.9001 43.7996 68.3001 43.8996 68.7001 43.8996H72.5001C73.1001 43.8996 73.5001 43.8996 73.7001 43.5996C73.9001 43.3996 74.1001 42.6996 74.2001 41.6996L73.1001 41.2996C73.1001 41.8996 73.0001 42.2996 72.9001 42.5996C72.9001 42.7996 72.6001 42.9996 72.3001 42.9996H68.9001C68.6001 42.9996 68.5001 42.8996 68.5001 42.5996V41.8996H72.2001V39.4996C72.7001 39.8996 73.2001 40.2996 74.0001 40.7996L74.5001 39.7996C73.3001 39.1996 72.5001 38.5996 72.2001 37.8996H74.4001V36.8996H72.3001V35.6996H74.2001V34.7996H72.3001V33.5996H71.3001V34.7996H69.2001V33.5996H68.1001V34.7996H66.6001V34.9996C66.1001 34.5996 65.6001 34.2996 64.9001 33.8996L64.1001 34.6996C64.6001 34.9996 65.2001 35.4996 65.8001 35.9996L66.5001 35.0996L66.4001 34.8996ZM69.0001 35.5996H71.1001V36.6996H69.0001V35.5996ZM69.3001 37.6996H70.9001C71.1001 38.0996 71.3001 38.4996 71.6001 38.6996H68.6001C68.9001 38.3996 69.1001 38.0996 69.3001 37.6996ZM68.4001 39.5996H71.1001V40.6996H68.4001V39.5996Z" fill="#0D386B"/>
<path d="M66.1002 37.6996C65.5002 37.1996 64.9002 36.8996 64.4002 36.5996L63.7002 37.4996C64.2002 37.7996 64.7002 38.1996 65.3002 38.6996L66.1002 37.6996Z" fill="#0D386B"/>
<path d="M66.0001 40.6L65.0001 40C64.8001 41.1 64.3001 42.1 63.6001 43.1L64.5001 44C65.2001 43 65.7001 41.8 66.0001 40.6Z" fill="#0D386B"/>
<path d="M86.6999 35.6002C85.7999 34.9002 85.0999 34.5002 84.5999 34.2002L83.8999 35.0002C84.3999 35.3002 85.0999 35.8002 85.9999 36.5002L86.6999 35.6002Z" fill="#0D386B"/>
<path d="M78.9998 41.9998C79.7998 40.9998 80.2998 40.1998 80.5998 39.3998V44.0998H81.6998V38.6998C81.8998 38.9998 82.0998 39.1998 82.2998 39.4998C82.4998 39.7998 82.7998 40.0998 82.9998 40.3998L83.6998 39.3998C83.2998 38.8998 82.5998 38.2998 81.6998 37.4998C81.6998 37.3998 83.4998 37.3998 83.4998 37.3998V36.3998H81.6998V34.7998C82.2998 34.6998 82.8998 34.4998 83.4998 34.2998L83.0998 33.2998C81.8998 33.7998 80.3998 34.0998 78.5998 34.0998L78.7998 35.0998C79.5998 35.0998 80.1998 34.9998 80.5998 34.8998V36.2998H78.3998V37.2998H80.4998C79.9998 38.5998 79.2998 39.7998 78.2998 40.8998L78.9998 41.8998V41.9998Z" fill="#0D386B"/>
<path d="M83.2998 41.5998L87.1998 40.9998V44.1998H88.2998V40.8998L89.2998 40.6998V39.5998L88.2998 39.7998V33.2998H87.1998V39.8998L83.2998 40.4998V41.5998Z" fill="#0D386B"/>
<path d="M86.5002 38.4C85.7002 37.7 84.9002 37.3 84.4002 37L83.7002 37.8C84.3002 38.2 85.0002 38.7 85.8002 39.3L86.5002 38.4Z" fill="#0D386B"/>
<path d="M93.2002 39.4004L93.5002 40.6004C93.9002 40.6004 94.4002 40.4004 95.0002 40.2004V42.5004C95.0002 42.7004 94.9002 42.9004 94.6002 42.9004H93.6002L93.9002 44.0004H94.8002C95.4002 44.0004 95.7002 44.0004 95.9002 43.7004C96.1002 43.5004 96.1002 43.2004 96.1002 42.6004V39.8004C96.8002 39.6004 97.2002 39.4004 97.4002 39.3004V38.2004C97.1002 38.3004 96.7002 38.5004 96.1002 38.7004V36.7004H97.5002V36.0004H100V37.5004H97.7002V38.6004H102.3C102 39.6004 101.4 40.4004 100.6 41.0004C100.1 40.5004 99.5002 39.7004 99.0002 38.8004L98.0002 39.2004C98.6002 40.2004 99.1002 41.1004 99.7002 41.7004C98.6002 42.5004 97.5002 42.9004 96.4002 43.2004L97.0002 44.3004C98.1002 44.1004 99.3002 43.5004 100.5 42.6004C101.4 43.4004 102.3 44.0004 103.4 44.3004L104 43.2004C103 42.9004 102.2 42.5004 101.4 41.9004C101.8 41.5004 102.3 41.0004 102.7 40.3004C103.1 39.6004 103.4 39.1004 103.5 38.7004V37.7004H101.2V36.2004H103.9V35.1004H101.2V33.5004H100V35.1004H97.5002V35.8004H96.1002V33.4004H95.0002V35.8004H93.3002V36.8004H95.0002V39.1004C94.4002 39.3004 93.8002 39.4004 93.2002 39.4004Z" fill="#0D386B"/>
<path d="M108 43.1004L108.9 44.2004C111.5 42.5004 113.1 40.3004 113.6 37.5004H113.8C114.6 40.6004 116 42.8004 118.1 44.2004L119 43.1004C117.8 42.3004 116.9 41.5004 116.3 40.4004C115.6 39.4004 115.2 38.4004 115.1 37.5004H118.8V36.3004H113.9C113.9 35.7004 113.9 34.7004 113.9 33.4004H112.7C112.7 34.6004 112.7 35.6004 112.5 36.3004H108.3V37.5004H112.3C112.1 38.6004 111.6 39.6004 110.9 40.7004C110.1 41.7004 109.2 42.5004 108.1 43.2004L108 43.1004Z" fill="#0D386B"/>
<path d="M124.1 39.0998H132.5V40.7998H133.5V38.1998H132.9V33.5998C133 33.5998 130.2 33.5998 130.2 33.5998V34.4998H132V35.0998H130.3V35.8998H132V36.5998H130.3V37.3998H131.9V38.1998H124.6V37.3998H126.3V36.5998H124.5V35.8998H126.3V35.0998H124.5V34.4998C125.4 34.4998 126.1 34.2998 126.5 34.1998L126 33.2998C125.3 33.4998 124.5 33.5998 123.4 33.5998V37.9998C123.5 37.9998 123 37.9998 123 37.9998V40.5998H124V38.8998L124.1 39.0998Z" fill="#0D386B"/>
<path d="M129.4 35.6C129.1 35.9 128.8 36.2 128.6 36.3C128.4 36.2 128.3 36 128.1 35.9C128 35.9 127.8 35.7 127.7 35.7L127.1 36.2C127.5 36.4 127.7 36.6 127.9 36.7C127.6 36.9 127.2 37 126.7 37.1L127.2 37.9C127.8 37.7 128.2 37.5 128.6 37.2C128.6 37.2 128.9 37.4 129.2 37.9L129.9 37.3C129.7 37.1 129.5 36.9 129.2 36.7C129.4 36.5 129.7 36.3 130 36L129.4 35.5V35.6Z" fill="#0D386B"/>
<path d="M127.8 42.8002C127.8 43.0002 127.7 43.2002 127.5 43.2002H125.9L126.2 44.1002H127.9C128.6 44.1002 129 43.7002 129 42.9002V42.4002H133.8V41.5002H129C130 41.2002 130.8 40.9002 131.5 40.5002V39.7002H125.1V40.5002H130C129.2 40.7002 128.5 40.9002 128 41.0002V41.5002H123V42.4002H128V42.9002L127.8 42.8002Z" fill="#0D386B"/>
<path d="M126.5 34.9L127.1 35.7C127.6 35.5 128.1 35.2 128.5 35C128.5 35 128.8 35.2 129.1 35.7L129.8 35.2C129.6 34.9 129.3 34.7 129.2 34.6C129.5 34.4 129.7 34.2 129.9 34L129.3 33.5C129.2 33.7 128.9 33.9 128.6 34.1C128.3 33.9 128 33.7 127.7 33.5L127.1 34C127.4 34.2 127.7 34.4 127.9 34.5C127.7 34.6 127.3 34.8 126.6 35L126.5 34.9Z" fill="#0D386B"/>
<path d="M52.2001 57.0996V49.5996H54.2001V48.5996H49.1001V49.5996H51.1001V57.0996H52.2001Z" fill="#0D386B"/>
<path d="M56.1 48.7002H55V57.2002H56.1V53.1002H60.2V57.2002H61.3V48.7002H60.2V52.1002H56.1V48.7002Z" fill="#0D386B"/>
<path d="M67.3998 56.1996H63.8998V52.9996H67.2998V51.9996H63.8998V49.5996H67.3998V48.5996H62.7998V57.0996H67.3998V56.0996V56.1996Z" fill="#0D386B"/>
<path d="M73.2001 48.7002H72.1001V57.2002H73.2001V53.1002H77.2001V57.2002H78.3001V48.7002H77.2001V52.1002H73.2001V48.7002Z" fill="#0D386B"/>
<path d="M83.7998 48.5C81.3998 48.5 79.2998 50.5 79.2998 52.9C79.2998 55.3 81.2998 57.3 83.7998 57.3C86.2998 57.3 88.2998 55.4 88.2998 52.9C88.2998 50.4 86.2998 48.5 83.7998 48.5ZM83.7998 56.3C81.9998 56.3 80.3998 54.8 80.3998 52.9C80.3998 51 81.7998 49.5 83.7998 49.5C85.7998 49.5 87.1998 51.1 87.1998 52.9C87.1998 54.7 85.5998 56.3 83.7998 56.3Z" fill="#0D386B"/>
<path d="M90.3002 50.7998L96.7002 57.4998V48.6998H95.6002V54.9998L89.2002 48.2998V57.1998H90.3002V50.8998V50.7998Z" fill="#0D386B"/>
<path d="M102.2 49.4C103.2 49.4 104.3 49.9 104.9 50.8L105.6 50.1C104.8 49.1 103.5 48.5 102.1 48.5C99.6002 48.5 97.7002 50.5 97.7002 52.9C97.7002 55.3 99.6002 57.3 102 57.3C104.4 57.3 106 55.5 106 53.2V52.9H102.6V53.9H104.8C104.8 55.3 103.3 56.4 102 56.4C100.7 56.4 98.7002 54.7 98.7002 52.9C98.7002 51.1 100.2 49.5 102.1 49.5L102.2 49.4Z" fill="#0D386B"/>
<path d="M116.8 57.0996L112.9 52.3996L116.7 48.5996H115.3L111.7 52.2996V48.5996H110.6V57.0996H111.7V53.5996L112.1 53.1996L115.3 57.0996H116.7H116.8Z" fill="#0D386B"/>
<path d="M116.9 52.9C116.9 55.4 118.9 57.3 121.4 57.3C123.9 57.3 125.8 55.4 125.8 52.9C125.8 50.4 123.8 48.5 121.4 48.5C119 48.5 116.9 50.5 116.9 52.9ZM121.4 49.5C123.4 49.5 124.8 51.1 124.8 52.9C124.8 54.7 123.2 56.3 121.4 56.3C119.6 56.3 118 54.8 118 52.9C118 51 119.4 49.5 121.4 49.5Z" fill="#0D386B"/>
<path d="M133.3 54.9002L126.9 48.2002V57.1002H128V50.8002L134.4 57.5002V48.7002H133.3V55.0002V54.9002Z" fill="#0D386B"/>
<path d="M139.7 57.2996C142.1 57.2996 143.7 55.4996 143.7 53.1996V52.8996H140.3V53.8996H142.5C142.5 55.2996 141 56.3996 139.7 56.3996C138.4 56.3996 136.4 54.6996 136.4 52.8996C136.4 51.0996 137.9 49.4996 139.8 49.4996C141.7 49.4996 141.9 49.9996 142.5 50.8996L143.2 50.1996C142.4 49.1996 141.1 48.5996 139.7 48.5996C137.2 48.5996 135.3 50.5996 135.3 52.9996C135.3 55.3996 137.2 57.3996 139.6 57.3996L139.7 57.2996Z" fill="#0D386B"/>
<path d="M52.8002 70.7996C54.8002 70.7996 55.9002 69.3996 55.9002 67.4996V62.0996H54.8002V67.0996C54.8002 68.4996 54.4002 69.7996 52.8002 69.7996C51.2002 69.7996 50.8002 68.4996 50.8002 67.0996V62.0996H49.7002V67.4996C49.7002 69.3996 50.9002 70.7996 52.8002 70.7996Z" fill="#0D386B"/>
<path d="M58.4999 64.2998L64.8999 70.9998V62.1998H63.7999V68.4998L57.3999 61.7998V70.6998H58.4999V64.3998V64.2998Z" fill="#0D386B"/>
<path d="M67.4999 62.0996H66.3999V70.5996H67.4999V62.0996Z" fill="#0D386B"/>
<path d="M71.9998 68.3996L69.4998 62.0996H68.2998L71.9998 70.9996L75.6998 62.0996H74.4998L71.9998 68.3996Z" fill="#0D386B"/>
<path d="M81.1 69.6996H77.6V66.4996H81V65.4996H77.6V63.0996H81.1V62.0996H76.5V70.5996H81.1V69.5996V69.6996Z" fill="#0D386B"/>
<path d="M87.2001 64.6002C87.2001 63.8002 86.8001 63.0002 86.1001 62.6002C85.4001 62.2002 84.6001 62.2002 83.9001 62.2002H82.6001V70.7002H83.7001V67.1002H84.1001L86.6001 70.7002H87.9001L85.2001 67.0002C86.4001 66.8002 87.2001 65.8002 87.2001 64.6002ZM84.0001 66.2002H83.7001V63.1002H84.0001C85.1001 63.1002 86.3001 63.3002 86.3001 64.6002C86.3001 65.9002 85.1001 66.1002 84.0001 66.1002V66.2002Z" fill="#0D386B"/>
<path d="M91.0998 69.7996C90.1998 69.7996 89.3998 69.0996 89.3998 68.1996L88.2998 68.3996C88.4998 69.7996 89.4998 70.7996 90.8998 70.7996C92.2998 70.7996 93.5998 69.6996 93.5998 68.1996C93.5998 66.6996 92.6998 66.0996 91.4998 65.6996L90.8998 65.4996C90.3998 65.2996 89.6998 64.9996 89.6998 64.2996C89.6998 63.5996 90.3998 63.0996 91.0998 63.0996C91.7998 63.0996 92.0998 63.3996 92.4998 63.8996L93.3998 63.3996C92.8998 62.5996 92.1998 62.0996 91.1998 62.0996C90.1998 62.0996 88.6998 62.8996 88.6998 64.2996C88.6998 65.6996 89.5998 65.9996 90.4998 66.4996L91.0998 66.6996C91.7998 66.9996 92.5998 67.3996 92.5998 68.2996C92.5998 69.1996 91.8998 69.9996 90.9998 69.9996L91.0998 69.7996Z" fill="#0D386B"/>
<path d="M95.9999 62.0996H94.8999V70.5996H95.9999V62.0996Z" fill="#0D386B"/>
<path d="M99.9999 70.5996V63.0996H102V62.0996H96.8999V63.0996H98.8999V70.5996H99.9999Z" fill="#0D386B"/>
<path d="M103.3 62.0996H102.1L104.9 66.8996V70.5996H106V66.8996L108.8 62.0996H107.6L105.5 65.6996L103.4 62.0996H103.3Z" fill="#0D386B"/>
<path d="M116.7 70.8C119.2 70.8 121.2 68.9 121.2 66.4C121.2 63.9 119.2 62 116.7 62C114.2 62 112.2 64 112.2 66.4C112.2 68.8 114.2 70.8 116.7 70.8ZM116.7 63C118.7 63 120.1 64.6 120.1 66.4C120.1 68.2 118.5 69.8 116.7 69.8C114.9 69.8 113.3 68.3 113.3 66.4C113.3 64.5 114.7 63 116.7 63Z" fill="#0D386B"/>
<path d="M123.4 66.4996H126.3V65.4996H123.4V63.0996H126.4V62.0996H122.3V70.5996H123.4V66.3996V66.4996Z" fill="#0D386B"/>
<path d="M134 65.6L133.4 65.4C132.9 65.2 132.2 64.9 132.2 64.2C132.2 63.5 132.9 63 133.6 63C134.3 63 134.7 63.3 135 63.8L135.8 63.3C135.3 62.5 134.6 62 133.6 62C132.6 62 131.1 62.8 131.1 64.2C131.1 65.6 132 65.9 133 66.4L133.6 66.6C134.3 66.9 135.1 67.3 135.1 68.2C135.1 69.1 134.4 69.9 133.5 69.9C132.6 69.9 131.8 69.2 131.9 68.3L130.8 68.5C131 69.9 132 70.9 133.4 70.9C134.8 70.9 136.1 69.8 136.1 68.3C136.1 66.8 135.2 66.2 134 65.7V65.6Z" fill="#0D386B"/>
<path d="M141.3 62.9004C142.1 62.9004 142.9 63.2004 143.5 63.7004V62.5004C142.9 62.1004 142.1 61.9004 141.4 61.9004C138.9 61.9004 136.9 63.9004 136.9 66.4004C136.9 68.9004 138.9 70.8004 141.3 70.8004C143.7 70.8004 142.9 70.6004 143.5 70.2004V69.0004C142.9 69.6004 142.1 69.9004 141.2 69.9004C139.3 69.9004 137.9 68.3004 137.9 66.5004C137.9 64.7004 139.4 63.0004 141.3 63.0004V62.9004Z" fill="#0D386B"/>
<path d="M145.9 62.0996H144.8V70.5996H145.9V62.0996Z" fill="#0D386B"/>
<path d="M147.6 70.6H152.2V69.6H148.7V66.4H152.1V65.4H148.7V63H152.2V62H147.6V70.5V70.6Z" fill="#0D386B"/>
<path d="M159.9 68.4002L153.5 61.7002V70.6002H154.6V64.3002L161 71.0002V62.2002H159.9V68.5002V68.4002Z" fill="#0D386B"/>
<path d="M162.1 66.4C162.1 68.8 164.1 70.8 166.5 70.8C168.9 70.8 168.1 70.6 168.7 70.2V69C168.1 69.6 167.3 69.9 166.4 69.9C164.5 69.9 163.1 68.3 163.1 66.5C163.1 64.7 164.6 63 166.5 63C168.4 63 168.1 63.3 168.7 63.8V62.6C168.1 62.2 167.3 62 166.6 62C164.1 62 162.1 64 162.1 66.5V66.4Z" fill="#0D386B"/>
<path d="M174.7 63.0996V62.0996H170.1V70.5996H174.7V69.5996H171.2V66.3996H174.6V65.3996H171.2V62.9996H174.7V63.0996Z" fill="#0D386B"/>
<path d="M48.9999 84.0998H50.0999L51.0999 81.9998H54.9999L55.9999 84.0998H57.0999L52.9999 75.2998L48.8999 84.0998H48.9999ZM51.4999 80.9998L52.9999 77.5998L54.4999 80.9998H51.4999Z" fill="#0D386B"/>
<path d="M64.1998 81.9002L57.7998 75.2002V84.1002H58.8998V77.8002L65.2998 84.5002V75.7002H64.1998V82.0002V81.9002Z" fill="#0D386B"/>
<path d="M68.5002 75.5996H66.7002V84.0996H68.4002C71.1002 84.0996 73.2002 82.6996 73.2002 79.7996C73.2002 76.8996 71.0002 75.5996 68.4002 75.5996H68.5002ZM68.2002 83.1996H67.8002V76.6996H68.2002C70.4002 76.6996 72.2002 77.4996 72.2002 79.9996C72.2002 82.4996 70.3002 83.2996 68.2002 83.2996V83.1996Z" fill="#0D386B"/>
<path d="M77.1001 76.5996H79.1001V84.0996H80.2001V76.5996H82.2001V75.5996H77.1001V76.5996Z" fill="#0D386B"/>
<path d="M83.1001 84.1H87.7001V83.1H84.2001V79.9H87.6001V78.9H84.2001V76.5H87.7001V75.5H83.1001V84V84.1Z" fill="#0D386B"/>
<path d="M88.6 79.9C88.6 82.4 90.6 84.3 93 84.3C95.4 84.3 94.6 84.1 95.2 83.7V82.5C94.6 83.1 93.8 83.4 92.9 83.4C91 83.4 89.6 81.8 89.6 80C89.6 78.2 91.1 76.5 93 76.5C94.9 76.5 94.6 76.8 95.2 77.3V76.1C94.6 75.7 93.8 75.5 93 75.5C90.5 75.5 88.5 77.5 88.5 80L88.6 79.9Z" fill="#0D386B"/>
<path d="M101.7 79.1002H97.6V75.7002H96.5V84.2002H97.6V80.1002H101.7V84.2002H102.8V75.7002H101.7V79.1002Z" fill="#0D386B"/>
<path d="M110.7 81.9002L104.3 75.2002V84.1002H105.4V77.8002L111.8 84.5002V75.7002H110.7V82.0002V81.9002Z" fill="#0D386B"/>
<path d="M117.2 75.5C114.8 75.5 112.7 77.5 112.7 79.9C112.7 82.3 114.7 84.3 117.2 84.3C119.7 84.3 121.7 82.4 121.7 79.9C121.7 77.4 119.7 75.5 117.2 75.5ZM117.2 83.3C115.4 83.3 113.8 81.8 113.8 79.9C113.8 78 115.2 76.5 117.2 76.5C119.2 76.5 120.6 78.1 120.6 79.9C120.6 81.7 119 83.3 117.2 83.3Z" fill="#0D386B"/>
<path d="M123.9 75.5996H122.8V84.0996H126.5V83.0996H123.9V75.5996Z" fill="#0D386B"/>
<path d="M131.1 75.5C128.7 75.5 126.6 77.5 126.6 79.9C126.6 82.3 128.6 84.3 131.1 84.3C133.6 84.3 135.5 82.4 135.5 79.9C135.5 77.4 133.5 75.5 131.1 75.5ZM131.1 83.3C129.3 83.3 127.7 81.8 127.7 79.9C127.7 78 129.1 76.5 131.1 76.5C133.1 76.5 134.5 78.1 134.5 79.9C134.5 81.7 132.9 83.3 131.1 83.3Z" fill="#0D386B"/>
<path d="M141.1 80.8H143.3C143.3 82.2 141.8 83.3 140.5 83.3C139.2 83.3 137.2 81.6 137.2 79.8C137.2 78 138.7 76.4 140.6 76.4C142.5 76.4 142.7 77 143.3 77.8L144 77.1C143.2 76.1 141.9 75.5 140.5 75.5C138.1 75.5 136.1 77.5 136.1 79.9C136.1 82.3 138 84.3 140.4 84.3C142.8 84.3 144.4 82.5 144.4 80.2V79.9H141V80.9L141.1 80.8Z" fill="#0D386B"/>
<path d="M148.1 79.3002L146 75.7002H144.8L147.6 80.5002V84.2002H148.7V80.5002L151.5 75.7002H150.3L148.2 79.3002H148.1Z" fill="#0D386B"/>
<path d="M42.7001 101.6H8.6001V90.7002H8.8001V101.3H42.4001V90.7002H42.6001V101.6H42.7001Z" fill="#231815"/>
<path d="M172.3 101.6H48.2998V90.7002H48.4998V101.3H171.9V90.7002H172.1V101.6H172.3Z" fill="#231815"/>
<path d="M133.7 26.9H133.5V16.3H48.5999V26.9H48.3999V16H133.7V26.9Z" fill="#231815"/>
<path d="M63.8999 108H64.7999V115.1H68.6999V115.9H63.8999V108.1V108Z" fill="#231815"/>
<path d="M70.7 115.5C70.3 115.3 70 114.9 69.8 114.5C69.6 114.1 69.5 113.6 69.5 113C69.5 112.4 69.6 111.9 69.8 111.5C70 111.1 70.3 110.7 70.7 110.5C71.1 110.3 71.5 110.2 72.1 110.2C72.7 110.2 73.1 110.3 73.5 110.5C73.9 110.7 74.2 111.1 74.4 111.5C74.6 111.9 74.7 112.4 74.7 113C74.7 113.6 74.6 114.1 74.4 114.5C74.2 114.9 73.9 115.3 73.5 115.5C73.1 115.7 72.7 115.8 72.1 115.8C71.5 115.8 71.1 115.7 70.7 115.5ZM73.4 114.6C73.7 114.2 73.8 113.7 73.8 113C73.8 112.3 73.6 111.8 73.3 111.4C73 111 72.6 110.8 72.1 110.8C71.6 110.8 71.1 111 70.8 111.4C70.5 111.8 70.3 112.3 70.3 113C70.3 113.7 70.5 114.2 70.8 114.6C71.1 115 71.5 115.1 72.1 115.1C72.7 115.1 73.1 114.9 73.4 114.6Z" fill="#231815"/>
<path d="M81.0002 110.3V115.8C81.0002 116.6 80.8002 117.2 80.4002 117.7C80.0002 118.2 79.4002 118.3 78.5002 118.3C77.6002 118.3 76.9002 118.1 76.3002 117.7L76.5002 117C76.8002 117.2 77.2002 117.3 77.5002 117.4C77.8002 117.4 78.2002 117.5 78.5002 117.5C79.0002 117.5 79.4002 117.4 79.7002 117.1C80.0002 116.8 80.1002 116.4 80.1002 115.8V114.5C79.9002 114.8 79.7002 115.1 79.4002 115.3C79.1002 115.5 78.7002 115.6 78.2002 115.6C77.7002 115.6 77.3002 115.5 76.9002 115.3C76.5002 115.1 76.2002 114.8 76.0002 114.3C75.8002 113.9 75.7002 113.4 75.7002 112.9C75.7002 112.4 75.8002 111.9 76.0002 111.5C76.2002 111.1 76.5002 110.8 76.9002 110.5C77.3002 110.3 77.7002 110.2 78.2002 110.2C78.7002 110.2 79.0002 110.2 79.4002 110.5C79.7002 110.7 80.0002 111 80.1002 111.3V110.3H81.0002ZM79.7002 114.4C80.0002 114 80.2002 113.6 80.2002 112.9C80.2002 112.2 80.0002 111.8 79.7002 111.4C79.4002 111 79.0002 110.9 78.4002 110.9C77.8002 110.9 77.4002 111.1 77.1002 111.4C76.8002 111.8 76.6002 112.2 76.6002 112.9C76.6002 113.6 76.8002 114 77.1002 114.4C77.4002 114.8 77.8002 114.9 78.4002 114.9C79.0002 114.9 79.4002 114.7 79.7002 114.4Z" fill="#231815"/>
<path d="M83.7 115.5C83.3 115.3 83 114.9 82.8 114.5C82.6 114.1 82.5 113.6 82.5 113C82.5 112.4 82.6 111.9 82.8 111.5C83 111.1 83.3 110.7 83.7 110.5C84.1 110.3 84.5 110.2 85.1 110.2C85.7 110.2 86.1 110.3 86.5 110.5C86.9 110.7 87.2 111.1 87.4 111.5C87.6 111.9 87.7 112.4 87.7 113C87.7 113.6 87.6 114.1 87.4 114.5C87.2 114.9 86.9 115.3 86.5 115.5C86.1 115.7 85.6 115.8 85.1 115.8C84.6 115.8 84.1 115.7 83.7 115.5ZM86.3 114.6C86.6 114.2 86.7 113.7 86.7 113C86.7 112.3 86.5 111.8 86.2 111.4C85.9 111 85.5 110.8 85 110.8C84.5 110.8 84 111 83.7 111.4C83.4 111.8 83.2 112.3 83.2 113C83.2 113.7 83.4 114.2 83.7 114.6C84 115 84.4 115.1 85 115.1C85.6 115.1 86 114.9 86.3 114.6Z" fill="#231815"/>
<path d="M90.2002 111V114C90.2002 114.4 90.2002 114.7 90.4002 114.9C90.6002 115.1 90.8002 115.1 91.1002 115.1C91.4002 115.1 91.5002 115.1 91.7002 115.1V115.9C91.5002 115.9 91.2002 116 90.9002 116C90.4002 116 90.0002 115.8 89.7002 115.5C89.4002 115.2 89.3002 114.8 89.3002 114.2V111H88.2002V110.3H89.3002V108.9L90.2002 108.6V110.3H91.8002V111H90.2002Z" fill="#231815"/>
<path d="M97.7998 110.3L95.1998 116.3C94.8998 116.9 94.5998 117.4 94.1998 117.7C93.7998 118 93.2998 118.2 92.6998 118.3L92.4998 117.6C92.9998 117.5 93.3998 117.3 93.6998 117.1C93.9998 116.9 94.1998 116.6 94.3998 116.2L94.5998 115.7L92.2998 110.2H93.1998L95.0998 114.8L96.9998 110.2H97.8998L97.7998 110.3Z" fill="#231815"/>
<path d="M102.8 110.5C103.2 110.7 103.5 111.1 103.7 111.5C103.9 111.9 104 112.4 104 113C104 113.6 104 114.1 103.7 114.5C103.4 114.9 103.2 115.3 102.8 115.5C102.4 115.7 102 115.8 101.5 115.8C101 115.8 100.7 115.8 100.4 115.5C100.1 115.2 99.7998 115 99.6998 114.7V118.1H98.7998V111.7C98.7998 111.1 98.7998 110.6 98.7998 110.2H99.5998V111.3C99.7998 110.9 100.1 110.6 100.4 110.4C100.7 110.2 101.1 110.1 101.6 110.1C102.1 110.1 102.5 110.2 102.9 110.5H102.8ZM102.7 114.6C103 114.2 103.2 113.7 103.2 113C103.2 112.3 103 111.8 102.7 111.4C102.4 111 102 110.8 101.5 110.8C101 110.8 100.5 111 100.2 111.3C99.8998 111.7 99.7998 112.2 99.7998 112.9C99.7998 113.6 99.9998 114.1 100.2 114.5C100.5 114.9 100.9 115.1 101.5 115.1C102.1 115.1 102.5 114.9 102.8 114.5L102.7 114.6Z" fill="#231815"/>
<path d="M110 113H105.9C105.9 113.7 106.1 114.2 106.4 114.6C106.7 114.9 107.2 115.1 107.8 115.1C108.4 115.1 109 114.9 109.6 114.4L109.9 115.1C109.7 115.3 109.3 115.5 109 115.6C108.6 115.7 108.2 115.8 107.8 115.8C106.9 115.8 106.3 115.6 105.8 115C105.3 114.5 105.1 113.8 105.1 112.9C105.1 112 105.2 111.8 105.4 111.4C105.6 111 105.9 110.6 106.3 110.4C106.7 110.2 107.1 110 107.6 110C108.3 110 108.9 110.2 109.3 110.7C109.7 111.2 109.9 111.8 109.9 112.7V112.9L110 113ZM106.6 111.3C106.3 111.6 106.1 112 106 112.5H109.2C109.2 112 109 111.6 108.7 111.3C108.4 111 108.1 110.9 107.6 110.9C107.1 110.9 106.8 111 106.5 111.3H106.6Z" fill="#231815"/>
<path d="M114.2 112.5H117.3V113.2H114.2V112.5Z" fill="#231815"/>
<path d="M122 108H126.9V108.8H122.8V111.5H126.6V112.3H122.8V115.1H126.9V115.9H122V108.1V108Z" fill="#231815"/>
<path d="M133.1 112.3V115.8H132.2V112.4C132.2 111.9 132.1 111.5 131.9 111.3C131.7 111.1 131.4 110.9 130.9 110.9C130.4 110.9 130 111.1 129.7 111.4C129.4 111.7 129.2 112.1 129.2 112.7V115.9H128.3V111.9C128.3 111.3 128.3 110.8 128.3 110.4H129.1V111.4C129.4 111 129.6 110.8 130 110.6C130.3 110.4 130.7 110.3 131.2 110.3C132.5 110.3 133.2 111 133.2 112.5L133.1 112.3Z" fill="#231815"/>
<path d="M139.7 110.3V115.8C139.7 116.6 139.5 117.2 139.1 117.7C138.7 118.2 138.1 118.3 137.2 118.3C136.3 118.3 135.6 118.1 135 117.7V117C135.5 117.2 135.8 117.3 136.1 117.4C136.4 117.4 136.8 117.5 137.1 117.5C137.6 117.5 138 117.4 138.3 117.1C138.6 116.8 138.7 116.4 138.7 115.8V114.5C138.5 114.8 138.3 115.1 138 115.3C137.7 115.5 137.3 115.6 136.8 115.6C136.3 115.6 135.9 115.5 135.5 115.3C135.1 115.1 134.8 114.8 134.6 114.3C134.4 113.9 134.3 113.4 134.3 112.9C134.3 112.4 134.4 111.9 134.6 111.5C134.8 111.1 135.1 110.8 135.5 110.5C135.9 110.3 136.3 110.2 136.8 110.2C137.3 110.2 137.6 110.2 138 110.5C138.3 110.7 138.6 111 138.7 111.3V110.3H139.6H139.7ZM138.3 114.4C138.6 114 138.8 113.6 138.8 112.9C138.8 112.2 138.7 111.8 138.3 111.4C138 111 137.6 110.9 137 110.9C136.4 110.9 136 111.1 135.7 111.4C135.4 111.8 135.2 112.2 135.2 112.9C135.2 113.6 135.4 114 135.7 114.4C136 114.8 136.4 114.9 137 114.9C137.6 114.9 138 114.7 138.3 114.4Z" fill="#231815"/>
<path d="M141.4 107.7H142.3V115.8H141.4V107.7Z" fill="#231815"/>
<path d="M145 107.9V108.9H143.9V107.9H145ZM144 110.3H144.9V115.8H144V110.3Z" fill="#231815"/>
<path d="M146.3 115.2L146.6 114.5C146.9 114.7 147.2 114.9 147.5 115C147.8 115.1 148.1 115.2 148.5 115.2C148.9 115.2 149.2 115.2 149.4 115C149.6 114.8 149.7 114.7 149.7 114.4C149.7 114.1 149.7 114 149.5 113.9C149.3 113.8 149.1 113.7 148.8 113.6L147.9 113.4C147.4 113.4 147.1 113.1 146.8 112.8C146.6 112.5 146.4 112.2 146.4 111.9C146.4 111.6 146.6 111 147 110.7C147.4 110.4 147.9 110.2 148.5 110.2C149.1 110.2 149.3 110.2 149.6 110.4C149.9 110.5 150.2 110.7 150.5 110.9L150.2 111.6C149.7 111.2 149.1 110.9 148.5 110.9C147.9 110.9 147.8 110.9 147.6 111.1C147.4 111.3 147.3 111.5 147.3 111.7C147.3 111.9 147.3 112.1 147.5 112.2C147.6 112.3 147.9 112.4 148.2 112.5L149.1 112.7C149.6 112.8 150 113 150.2 113.2C150.4 113.4 150.6 113.8 150.6 114.2C150.6 114.6 150.4 115.1 150 115.3C149.6 115.6 149.1 115.7 148.4 115.7C147.7 115.7 146.7 115.5 146.2 115L146.3 115.2Z" fill="#231815"/>
<path d="M156.8 112.3V115.8H155.9V112.4C155.9 111.9 155.9 111.5 155.6 111.3C155.4 111.1 155.1 110.9 154.6 110.9C154.1 110.9 153.7 111.1 153.4 111.4C153.1 111.7 152.9 112.1 152.9 112.7V115.9H152V107.8H152.9V111.3C153.1 111 153.3 110.7 153.7 110.5C154 110.3 154.4 110.2 154.8 110.2C156.1 110.2 156.8 110.9 156.8 112.4V112.3Z" fill="#231815"/>
<path d="M93.5 4.7998H96.6V5.4998H93.5V4.7998Z" fill="#231815"/>
<path d="M43.2998 0.299805H44.1998V7.3998H48.0998V8.1998H43.2998V0.299805Z" fill="#231815"/>
<path d="M50.0999 7.8C49.6999 7.6 49.3999 7.2 49.1999 6.8C48.9999 6.4 48.8999 5.9 48.8999 5.3C48.8999 4.7 48.9999 4.2 49.1999 3.8C49.3999 3.4 49.6999 3 50.0999 2.8C50.4999 2.6 50.9999 2.5 51.4999 2.5C51.9999 2.5 52.4999 2.6 52.8999 2.8C53.2999 3 53.5999 3.4 53.7999 3.8C53.9999 4.2 54.0999 4.7 54.0999 5.3C54.0999 5.9 53.9999 6.4 53.7999 6.8C53.5999 7.2 53.2999 7.6 52.8999 7.8C52.4999 8 51.9999 8.2 51.4999 8.2C50.9999 8.2 50.4999 8.1 50.0999 7.8ZM52.6999 6.9C52.9999 6.5 53.0999 6 53.0999 5.3C53.0999 4.6 52.8999 4.1 52.5999 3.7C52.2999 3.3 51.8999 3.1 51.3999 3.1C50.8999 3.1 50.3999 3.3 50.0999 3.7C49.7999 4.1 49.5999 4.6 49.5999 5.3C49.5999 6 49.7999 6.5 50.0999 6.9C50.3999 7.3 50.7999 7.4 51.3999 7.4C51.9999 7.4 52.3999 7.2 52.6999 6.9Z" fill="#231815"/>
<path d="M60.3996 2.6V8.1C60.3996 8.9 60.1996 9.5 59.7996 10C59.3996 10.4 58.7996 10.6 57.8996 10.6C56.9996 10.6 56.2996 10.4 55.6996 10L55.8996 9.3C56.1996 9.5 56.5996 9.6 56.8996 9.7C57.1996 9.7 57.5996 9.8 57.8996 9.8C58.3996 9.8 58.7996 9.7 59.0996 9.4C59.3996 9.1 59.4996 8.7 59.4996 8.1V6.8C59.2996 7.2 59.0996 7.4 58.7996 7.6C58.4996 7.8 58.0996 7.9 57.5996 7.9C57.0996 7.9 56.6996 7.8 56.2996 7.6C55.8996 7.4 55.5996 7.1 55.3996 6.6C55.1996 6.2 55.0996 5.7 55.0996 5.2C55.0996 4.7 55.1996 4.2 55.3996 3.8C55.5996 3.4 55.8996 3.1 56.2996 2.8C56.6996 2.6 57.0996 2.5 57.5996 2.5C58.0996 2.5 58.3996 2.6 58.7996 2.8C59.0996 3 59.3996 3.3 59.4996 3.6V2.6H60.3996ZM58.9996 6.6C59.2996 6.2 59.4996 5.8 59.4996 5.1C59.4996 4.4 59.2996 4 58.9996 3.6C58.6996 3.2 58.2996 3.1 57.6996 3.1C57.0996 3.1 56.6996 3.3 56.3996 3.6C56.0996 4 55.8996 4.4 55.8996 5.1C55.8996 5.8 56.0996 6.2 56.3996 6.6C56.6996 7 57.0996 7.1 57.6996 7.1C58.2996 7.1 58.6996 6.9 58.9996 6.6Z" fill="#231815"/>
<path d="M62.9998 7.8C62.5998 7.6 62.2998 7.2 62.0998 6.8C61.8998 6.4 61.7998 5.9 61.7998 5.3C61.7998 4.7 61.8998 4.2 62.0998 3.8C62.2998 3.4 62.5998 3 62.9998 2.8C63.3998 2.6 63.7998 2.5 64.3998 2.5C64.9998 2.5 65.3998 2.6 65.7998 2.8C66.1998 3 66.4998 3.4 66.6998 3.8C66.8998 4.2 66.9998 4.7 66.9998 5.3C66.9998 5.9 66.8998 6.4 66.6998 6.8C66.4998 7.2 66.1998 7.6 65.7998 7.8C65.3998 8 64.8998 8.2 64.3998 8.2C63.8998 8.2 63.3998 8.1 62.9998 7.8ZM65.5998 6.9C65.8998 6.5 65.9998 6 65.9998 5.3C65.9998 4.6 65.7998 4.1 65.4998 3.7C65.1998 3.3 64.7998 3.1 64.2998 3.1C63.7998 3.1 63.2998 3.3 62.9998 3.7C62.6998 4.1 62.5998 4.6 62.5998 5.3C62.5998 6 62.6998 6.5 62.9998 6.9C63.2998 7.3 63.6998 7.4 64.2998 7.4C64.8998 7.4 65.2998 7.2 65.5998 6.9Z" fill="#231815"/>
<path d="M69.6 3.3V6.3C69.6 6.7 69.6 7 69.8 7.2C70 7.4 70.2 7.4 70.5 7.4C70.8 7.4 70.9 7.4 71.1 7.4V8.2C70.9 8.2 70.6 8.3 70.3 8.3C69.8 8.3 69.4 8.2 69.1 7.8C68.8 7.5 68.6 7.1 68.6 6.5V3.4H67.5V2.7H68.6V1.3L69.5 1V2.7H71.1V3.4H69.5L69.6 3.3Z" fill="#231815"/>
<path d="M77.1997 2.6L74.5997 8.6C74.2997 9.2 73.9997 9.7 73.5997 10C73.1997 10.3 72.6997 10.5 72.0997 10.6L71.8997 9.9C72.3997 9.8 72.7997 9.6 73.0997 9.4C73.3997 9.2 73.5997 8.9 73.7997 8.5L73.9997 8L71.6997 2.5H72.5997L74.4997 7.1L76.3997 2.5H77.2997L77.1997 2.6Z" fill="#231815"/>
<path d="M82.1997 2.8C82.5997 3 82.8997 3.4 83.0997 3.8C83.2997 4.2 83.3997 4.7 83.3997 5.3C83.3997 5.9 83.3997 6.4 83.0997 6.8C82.7997 7.2 82.5997 7.6 82.1997 7.8C81.7997 8 81.3997 8.2 80.8997 8.2C80.3997 8.2 80.0997 8.1 79.7997 7.9C79.4997 7.7 79.1997 7.4 79.0997 7.1V10.5H78.1997V4.1C78.1997 3.5 78.1997 3 78.1997 2.6H78.9997V3.7C79.1997 3.3 79.4997 3 79.7997 2.8C80.0997 2.6 80.4997 2.5 80.9997 2.5C81.4997 2.5 81.8997 2.6 82.2997 2.9L82.1997 2.8ZM81.9997 6.9C82.2997 6.5 82.4997 6 82.4997 5.3C82.4997 4.6 82.2997 4.1 81.9997 3.7C81.6997 3.3 81.2997 3.1 80.7997 3.1C80.2997 3.1 79.7997 3.3 79.4997 3.6C79.1997 4 79.0997 4.5 79.0997 5.2C79.0997 5.9 79.2997 6.4 79.4997 6.8C79.7997 7.2 80.1997 7.4 80.7997 7.4C81.3997 7.4 81.7997 7.2 82.0997 6.8L81.9997 6.9Z" fill="#231815"/>
<path d="M89.4 5.2998H85.3C85.3 5.9998 85.5 6.49981 85.8 6.89981C86.1 7.29981 86.6 7.39981 87.2 7.39981C87.8 7.39981 88.4 7.1998 89 6.6998L89.3 7.39981C89.1 7.59981 88.7 7.79981 88.4 7.89981C88 7.99981 87.6 8.0998 87.2 8.0998C86.3 8.0998 85.7 7.7998 85.2 7.2998C84.7 6.7998 84.5 6.0998 84.5 5.1998C84.5 4.2998 84.6 4.0998 84.8 3.6998C85 3.2998 85.3 2.8998 85.7 2.6998C86.1 2.4998 86.5 2.2998 87 2.2998C87.7 2.2998 88.3 2.4998 88.7 2.9998C89.1 3.4998 89.3 4.0998 89.3 4.9998V5.1998L89.4 5.2998ZM85.9 3.4998C85.6 3.7998 85.4 4.1998 85.3 4.6998H88.5C88.5 4.1998 88.3 3.7998 88 3.4998C87.7 3.1998 87.4 3.0998 86.9 3.0998C86.4 3.0998 86.1 3.1998 85.8 3.4998H85.9Z" fill="#231815"/>
<path d="M102.7 7.7002C102.2 7.4002 101.7 6.9002 101.4 6.3002C101.1 5.7002 101 5.0002 101 4.2002C101 3.4002 101.2 2.7002 101.4 2.1002C101.7 1.5002 102.1 1.0002 102.7 0.700195C103.3 0.400195 103.9 0.200195 104.6 0.200195C105.3 0.200195 105.6 0.200195 106.1 0.400195C106.6 0.600195 106.9 0.800195 107.3 1.1002L107 1.8002C106.6 1.5002 106.3 1.2002 105.9 1.1002C105.5 1.0002 105.1 0.900195 104.7 0.900195C103.8 0.900195 103.2 1.2002 102.7 1.7002C102.2 2.3002 102 3.1002 102 4.1002C102 5.1002 102.2 5.9002 102.7 6.5002C103.2 7.1002 103.8 7.3002 104.7 7.3002C105.6 7.3002 105.5 7.3002 105.9 7.1002C106.3 7.0002 106.6 6.7002 107 6.4002L107.3 7.1002C107 7.4002 106.6 7.7002 106.1 7.8002C105.6 8.0002 105.1 8.0002 104.6 8.0002C104.1 8.0002 103.2 7.8002 102.7 7.5002V7.7002Z" fill="#231815"/>
<path d="M113.5 4.6V8.1H112.6V4.7C112.6 4.2 112.6 3.8 112.3 3.6C112 3.4 111.8 3.2 111.3 3.2C110.8 3.2 110.4 3.4 110.1 3.7C109.8 4 109.6 4.4 109.6 5V8.2H108.7V0H109.6V3.5C109.8 3.2 110 2.9 110.4 2.7C110.7 2.5 111.1 2.4 111.5 2.4C112.8 2.4 113.5 3.1 113.5 4.6Z" fill="#231815"/>
<path d="M116.1 0.200195V1.2002H115V0.200195H116.1ZM115.1 2.6002H116V8.1002H115.1V2.6002Z" fill="#231815"/>
<path d="M122.5 4.59961V8.09961H121.6V4.69961C121.6 4.19961 121.5 3.79961 121.3 3.59961C121.1 3.39961 120.8 3.19961 120.3 3.19961C119.8 3.19961 119.4 3.39961 119.1 3.69961C118.8 3.99961 118.6 4.39961 118.6 4.99961V8.19961H117.7V4.19961C117.7 3.59961 117.7 3.09961 117.7 2.69961H118.5V3.69961C118.8 3.29961 119 3.09961 119.4 2.89961C119.7 2.69961 120.1 2.59961 120.6 2.59961C121.9 2.59961 122.6 3.29961 122.6 4.79961L122.5 4.59961Z" fill="#231815"/>
<path d="M128.8 5.2998H124.7C124.7 5.9998 124.9 6.49981 125.2 6.89981C125.5 7.29981 126 7.39981 126.6 7.39981C127.2 7.39981 127.8 7.1998 128.4 6.6998L128.7 7.39981C128.5 7.59981 128.1 7.79981 127.8 7.89981C127.4 7.99981 127 8.0998 126.6 8.0998C125.7 8.0998 125.1 7.7998 124.6 7.2998C124.1 6.7998 123.9 6.0998 123.9 5.1998C123.9 4.2998 124 4.0998 124.2 3.6998C124.4 3.2998 124.7 2.8998 125.1 2.6998C125.5 2.4998 125.9 2.2998 126.4 2.2998C127.1 2.2998 127.7 2.4998 128.1 2.9998C128.5 3.4998 128.7 4.0998 128.7 4.9998V5.1998L128.8 5.2998ZM125.4 3.4998C125.1 3.7998 124.9 4.1998 124.8 4.6998H128C128 4.1998 127.8 3.7998 127.5 3.4998C127.2 3.1998 126.9 3.0998 126.4 3.0998C125.9 3.0998 125.6 3.1998 125.3 3.4998H125.4Z" fill="#231815"/>
<path d="M129.8 7.50039L130.1 6.80039C130.4 7.00039 130.7 7.20039 131 7.30039C131.3 7.40039 131.6 7.40039 132 7.40039C132.4 7.40039 132.7 7.40039 132.9 7.20039C133.1 7.10039 133.2 6.90039 133.2 6.60039C133.2 6.30039 133.2 6.20039 133 6.10039C132.8 6.00039 132.6 5.90039 132.3 5.80039L131.4 5.60039C130.9 5.60039 130.6 5.30039 130.3 5.10039C130.1 4.80039 129.9 4.50039 129.9 4.10039C129.9 3.70039 130.1 3.20039 130.5 2.90039C130.9 2.60039 131.4 2.40039 132 2.40039C132.6 2.40039 132.8 2.40039 133.1 2.60039C133.4 2.70039 133.7 2.90039 134 3.10039L133.7 3.70039C133.2 3.30039 132.6 3.10039 132 3.10039C131.4 3.10039 131.3 3.10039 131.1 3.30039C130.9 3.40039 130.8 3.70039 130.8 3.90039C130.8 4.10039 130.8 4.30039 131 4.40039C131.1 4.50039 131.4 4.60039 131.7 4.70039L132.6 4.90039C133.1 5.00039 133.5 5.20039 133.7 5.40039C133.9 5.60039 134.1 6.00039 134.1 6.40039C134.1 6.80039 133.9 7.30039 133.5 7.50039C133.1 7.80039 132.6 7.90039 131.9 7.90039C131.2 7.90039 130.2 7.70039 129.7 7.20039L129.8 7.50039Z" fill="#231815"/>
<path d="M140.3 5.2998H136.2C136.2 5.9998 136.4 6.49981 136.7 6.89981C137 7.19981 137.5 7.39981 138.1 7.39981C138.7 7.39981 139.3 7.1998 139.9 6.6998L140.2 7.39981C140 7.59981 139.6 7.79981 139.3 7.89981C138.9 7.99981 138.5 8.0998 138.1 8.0998C137.2 8.0998 136.6 7.7998 136.1 7.2998C135.6 6.7998 135.4 6.0998 135.4 5.1998C135.4 4.2998 135.5 4.0998 135.7 3.6998C135.9 3.2998 136.2 2.8998 136.6 2.6998C137 2.4998 137.4 2.2998 137.9 2.2998C138.6 2.2998 139.2 2.4998 139.6 2.9998C140 3.4998 140.2 4.0998 140.2 4.9998V5.1998L140.3 5.2998ZM136.8 3.4998C136.5 3.7998 136.3 4.1998 136.2 4.6998H139.4C139.4 4.1998 139.2 3.7998 138.9 3.4998C138.6 3.1998 138.3 3.0998 137.8 3.0998C137.3 3.0998 137 3.1998 136.7 3.4998H136.8Z" fill="#231815"/>
<path d="M6.1001 108H11.1001V108.7H7.0001V111.4H10.8001V112.2H7.0001V115H11.1001V115.7H6.1001V107.9V108Z" fill="#231815"/>
<path d="M20.4003 112.3V115.8H19.5003V112.4C19.5003 111.9 19.5003 111.5 19.2003 111.3C19.0003 111.1 18.7003 110.9 18.3003 110.9C17.9003 110.9 17.5003 111.1 17.2003 111.4C16.9003 111.7 16.8003 112.1 16.8003 112.7V115.9H15.9003V112.5C15.9003 112 15.9003 111.6 15.6003 111.4C15.4003 111.2 15.1003 111 14.7003 111C14.3003 111 13.9003 111.2 13.6003 111.5C13.3003 111.8 13.2003 112.2 13.2003 112.8V116H12.3003V112C12.3003 111.4 12.3003 110.9 12.3003 110.4H13.1003V111.4C13.3003 111 13.6003 110.8 13.9003 110.6C14.2003 110.4 14.6003 110.3 15.0003 110.3C15.4003 110.3 15.8003 110.3 16.1003 110.6C16.4003 110.8 16.6003 111 16.7003 111.4C16.9003 111.1 17.1003 110.8 17.4003 110.6C17.7003 110.4 18.1003 110.3 18.5003 110.3C19.7003 110.3 20.3003 111 20.3003 112.5L20.4003 112.3Z" fill="#231815"/>
<path d="M26.2002 110.5C26.6002 110.7 26.9002 111.1 27.1002 111.5C27.3002 111.9 27.4002 112.4 27.4002 113C27.4002 113.6 27.3002 114.1 27.1002 114.5C26.9002 114.9 26.6002 115.3 26.2002 115.5C25.8002 115.7 25.4002 115.9 24.9002 115.9C24.4002 115.9 24.1002 115.9 23.8002 115.6C23.5002 115.3 23.2002 115.1 23.1002 114.8V115.8H22.2002V107.7H23.1002V111.2C23.3002 110.8 23.5002 110.6 23.8002 110.4C24.1002 110.2 24.5002 110.1 24.9002 110.1C25.3002 110.1 25.8002 110.2 26.2002 110.5ZM26.0002 114.6C26.3002 114.2 26.5002 113.7 26.5002 113C26.5002 112.3 26.4002 111.8 26.1002 111.4C25.8002 111 25.4002 110.9 24.8002 110.9C24.2002 110.9 23.8002 111.1 23.5002 111.4C23.2002 111.8 23.1002 112.3 23.1002 113C23.1002 113.7 23.2002 114.2 23.5002 114.6C23.8002 115 24.2002 115.2 24.8002 115.2C25.4002 115.2 25.8002 115 26.1002 114.6H26.0002Z" fill="#231815"/>
<path d="M28.7002 107.7H29.6002V115.8H28.7002V107.7Z" fill="#231815"/>
<path d="M36.0001 113H31.9001C31.9001 113.7 32.1001 114.2 32.4001 114.6C32.7001 115 33.2001 115.1 33.8001 115.1C34.4001 115.1 35.0001 114.9 35.6001 114.5L35.9001 115.1C35.7001 115.3 35.3001 115.5 35.0001 115.6C34.6001 115.7 34.2001 115.8 33.8001 115.8C32.9001 115.8 32.3001 115.5 31.8001 115C31.3001 114.5 31.1001 113.8 31.1001 112.9C31.1001 112 31.2001 111.8 31.4001 111.4C31.6001 111 31.9001 110.6 32.3001 110.4C32.7001 110.2 33.1001 110 33.7001 110C34.4001 110 35.0001 110.2 35.4001 110.7C35.8001 111.2 36.0001 111.8 36.0001 112.7V112.9V113ZM32.5001 111.3C32.2001 111.6 32.0001 112 31.9001 112.5H35.1001C35.1001 112 34.9001 111.6 34.6001 111.3C34.3001 111 34.0001 110.9 33.5001 110.9C33.0001 110.9 32.7001 111 32.4001 111.3H32.5001Z" fill="#231815"/>
<path d="M45.3002 112.3V115.8H44.4002V112.4C44.4002 111.9 44.4002 111.5 44.1002 111.3C43.9002 111.1 43.6002 110.9 43.2002 110.9C42.8002 110.9 42.4002 111.1 42.1002 111.4C41.8002 111.7 41.7002 112.1 41.7002 112.7V115.9H40.8002V112.5C40.8002 112 40.8002 111.6 40.5002 111.4C40.3002 111.2 40.0002 111 39.6002 111C39.2002 111 38.8002 111.2 38.5002 111.5C38.2002 111.8 38.1002 112.2 38.1002 112.8V116H37.2002V112C37.2002 111.4 37.2002 110.9 37.2002 110.4H38.0002V111.4C38.2002 111 38.5002 110.8 38.8002 110.6C39.1002 110.4 39.5002 110.3 39.9002 110.3C40.3002 110.3 40.7002 110.3 41.0002 110.6C41.3002 110.8 41.5002 111 41.6002 111.4C41.8002 111.1 42.0002 110.8 42.3002 110.6C42.6002 110.4 43.0002 110.3 43.4002 110.3C44.6002 110.3 45.2002 111 45.2002 112.5L45.3002 112.3Z" fill="#231815"/>
</svg>
