<svg width="175" height="119" viewBox="0 0 175 119" fill="none" xmlns="http://www.w3.org/2000/svg">
<g clip-path="url(#clip0_80_401)">
<path d="M34.4998 84.4L28.3998 74.1C28.3998 74.1 28.1998 73.9 28.1998 73.5V54.5H25.8998V74.1C26.0998 74.3 29.8998 80.9 29.8998 80.9H20.3998C20.3998 80.9 24.1998 74.3 24.3998 74.1V54.5H22.0998V73.5C22.0998 73.9 21.8998 74.1 21.8998 74.1L15.7998 84.4H34.4998Z" fill="#AA8420"/>
<path d="M32.6 41.1002C32.6 41.1002 33.8 36.3002 29.7 33.2002C29.7 33.2002 28.1 31.7002 24.9 31.7002C21.7 31.7002 20.5 33.2002 20.5 33.2002C16.7 35.8002 17.7 41.1002 17.7 41.1002H32.6Z" fill="#AA8420"/>
<path d="M18.0998 42.5002H32.0998C32.0998 42.2002 32.2998 42.0002 32.3998 41.7002H17.7998C17.7998 42.0002 17.9998 42.3002 18.0998 42.5002Z" fill="#AA8420"/>
<path d="M31.8998 43H18.2998C18.3998 43.3 18.5998 43.6 18.7998 43.8H31.4998C31.6998 43.5 31.7998 43.3 31.9998 43" fill="#AA8420"/>
<path d="M19.7002 44.9002H30.5002C30.7002 44.7002 30.9002 44.5002 31.1002 44.2002H19.2002C19.4002 44.4002 19.6002 44.7002 19.8002 44.9002" fill="#AA8420"/>
<path d="M20.9002 45.9004H29.4002C29.6002 45.9004 29.8002 45.6004 30.0002 45.4004H20.2002C20.4002 45.6004 20.6002 45.7004 20.8002 45.9004" fill="#AA8420"/>
<path d="M22.1001 46.5996C23.0001 46.9996 24.1001 47.2996 25.2001 47.2996C26.3001 47.2996 27.3001 47.0996 28.3001 46.5996H22.1001Z" fill="#AA8420"/>
<path d="M39.6999 47.5996H28.1999C28.1999 47.5996 27.0999 47.5996 26.2999 48.1996C25.5999 48.6996 25.1999 49.6996 25.1999 49.7996C25.1999 49.7996 24.6999 48.6996 24.0999 48.1996C23.1999 47.5996 22.1999 47.5996 22.1999 47.5996H10.6999L8.3999 51.2996H19.3999C19.6999 51.2996 20.2999 51.4996 20.7999 51.8996C21.5999 52.4996 21.7999 52.7996 21.9999 52.9996C22.0999 52.9996 22.2999 53.3996 22.2999 53.3996H27.9999C27.9999 53.3996 28.1999 53.0996 28.2999 52.9996C28.4999 52.7996 28.6999 52.4996 29.4999 51.8996C30.0999 51.4996 30.5999 51.2996 30.8999 51.2996H41.8999L39.5999 47.5996H39.6999Z" fill="#003477"/>
<path d="M9.5 52.5V70.6C9.7 72.5 10.3 73.8 11.3 75.6C13 78.4 16.1 80.4 16.1 80.4L17.5 78.1C17.5 78.1 15.5 77.1 14 74.6C13.7 74.1 13.4 73.7 13.2 73.2C13 72.8 12.8 72.4 12.7 72.1C12.7 71.8 12.5 71.6 12.5 71.4C12.5 71.1 12.4 70.8 12.4 70.5V52.5H9.5Z" fill="#003477"/>
<path d="M13.8001 52.5V70.7C13.8001 71 13.9001 71.2 14.0001 71.6C14.2001 72.2 14.5001 72.9 15.1001 73.7C16.4001 75.8 18.2001 76.8 18.2001 76.8L19.6001 74.5C19.6001 74.5 19.1001 74.2 18.5001 73.7C18.1001 73.3 17.7001 72.8 17.3001 72.3C16.9001 71.7 16.7001 71.1 16.5001 70.6C16.4001 70.2 16.4001 69.9 16.4001 69.7V52.5H13.6001H13.8001Z" fill="#003477"/>
<path d="M40.7998 52.5V70.6C40.5998 72.5 39.9998 73.8 38.9998 75.6C37.2998 78.4 34.1998 80.4 34.1998 80.4L32.7998 78.1C32.7998 78.1 34.7998 77.1 36.2998 74.6C36.5998 74.1 36.8998 73.7 37.0998 73.2C37.2998 72.8 37.3998 72.4 37.5998 72.1C37.5998 71.8 37.7998 71.6 37.7998 71.4C37.7998 71.1 37.7998 70.8 37.7998 70.5V52.5H40.6998H40.7998Z" fill="#003477"/>
<path d="M36.5002 52.5V70.7C36.5002 71 36.5002 71.2 36.3002 71.6C36.1002 72.2 35.8002 72.9 35.3002 73.7C34.0002 75.8 32.1002 76.8 32.1002 76.8L30.7002 74.5C30.7002 74.5 31.2002 74.2 31.8002 73.7C32.2002 73.3 32.6002 72.8 33.0002 72.3C33.4002 71.7 33.6002 71.1 33.8002 70.6C33.8002 70.2 33.8002 69.9 33.8002 69.7V52.5H36.6002H36.4002H36.5002Z" fill="#003477"/>
<path d="M52.1 56.8002V49.2002H54.1V48.2002H49V49.2002H51V56.8002H52.1Z" fill="#003477"/>
<path d="M55.9999 48.2002H54.8999V56.8002H55.9999V52.7002H60.0999V56.8002H61.1999V48.2002H60.0999V51.7002H55.9999V48.2002Z" fill="#003477"/>
<path d="M67.3002 55.8002H63.8002V52.6002H67.2002V51.6002H63.8002V49.2002H67.3002V48.2002H62.7002V56.8002H67.3002V55.8002Z" fill="#003477"/>
<path d="M73.1 48.2002H72V56.8002H73.1V52.7002H77.1V56.8002H78.2V48.2002H77.1V51.7002H73.1V48.2002Z" fill="#003477"/>
<path d="M83.7002 48C81.3002 48 79.2002 50 79.2002 52.5C79.2002 55 81.2002 57 83.7002 57C86.2002 57 88.2002 55.1 88.2002 52.5C88.2002 49.9 86.2002 48 83.7002 48ZM83.7002 55.9C81.9002 55.9 80.3002 54.4 80.3002 52.4C80.3002 50.4 81.7002 48.9 83.7002 48.9C85.7002 48.9 87.1002 50.5 87.1002 52.4C87.1002 54.3 85.5002 55.9 83.7002 55.9Z" fill="#003477"/>
<path d="M90.3002 50.3998L96.7002 57.1998V48.2998H95.6002V54.5998L89.2002 47.7998V56.7998H90.3002V50.3998Z" fill="#003477"/>
<path d="M102.2 49C103.2 49 104.3 49.6 104.9 50.4L105.6 49.7C104.8 48.6 103.4 48 102.1 48C99.6002 48 97.7002 50 97.7002 52.5C97.7002 55 99.6002 57 102 57C104.4 57 106 55.2 106 52.8V52.5H102.6V53.5H104.8C104.8 54.9 103.3 56.1 102 56.1C100.7 56.1 98.7002 54.4 98.7002 52.6C98.7002 50.8 100.2 49.1 102.1 49.1H102.2V49Z" fill="#003477"/>
<path d="M116.7 56.8002L112.8 52.1002L116.6 48.2002H115.2L111.6 51.9002V48.2002H110.5V56.8002H111.6V53.2002L112 52.8002L115.2 56.8002H116.7Z" fill="#003477"/>
<path d="M116.9 52.5C116.9 55 118.9 57 121.4 57C123.9 57 125.9 55.1 125.9 52.5C125.9 49.9 123.9 48 121.4 48C118.9 48 116.9 50 116.9 52.5ZM121.4 49C123.4 49 124.8 50.6 124.8 52.5C124.8 54.4 123.2 56 121.4 56C119.6 56 118 54.5 118 52.5C118 50.5 119.4 49 121.4 49Z" fill="#003477"/>
<path d="M126.8 56.7998H127.9V50.3998L134.3 57.1998V48.2998H133.2V54.5998L126.8 47.7998V56.7998Z" fill="#003477"/>
<path d="M139.6 56.9C142 56.9 143.6 55.1 143.6 52.7V52.4H140.2V53.4H142.4C142.4 54.8 140.9 56 139.6 56C138.3 56 136.3 54.3 136.3 52.5C136.3 50.7 137.8 49 139.7 49C141.6 49 141.8 49.6 142.4 50.4L143.1 49.7C142.3 48.6 141 48 139.6 48C137.2 48 135.2 50 135.2 52.5C135.2 55 137.1 57 139.5 57H139.6V56.9Z" fill="#003477"/>
<path d="M52.7001 70.6004C54.7001 70.6004 55.8001 69.2004 55.8001 67.3004V61.9004H54.7001V67.0004C54.7001 68.4004 54.3001 69.7004 52.7001 69.7004C51.1001 69.7004 50.7001 68.4004 50.7001 67.0004V61.9004H49.6001V67.3004C49.6001 69.2004 50.8001 70.6004 52.7001 70.6004Z" fill="#003477"/>
<path d="M58.3998 63.9998L64.7998 70.6998V61.7998H63.6998V68.0998L57.2998 61.2998V70.2998H58.3998V63.8998V63.9998Z" fill="#003477"/>
<path d="M67.3998 61.7998H66.2998V70.3998H67.3998V61.7998Z" fill="#003477"/>
<path d="M71.9998 68.2004L69.4998 61.9004H68.2998L71.9998 70.9004L75.6998 61.9004H74.4998L71.9998 68.2004Z" fill="#003477"/>
<path d="M81.1 69.3998H77.6V66.1998H81V65.1998H77.6V62.7998H81.1V61.7998H76.5V70.3998H81.1V69.3998Z" fill="#003477"/>
<path d="M87.1 64.3004C87.1 63.5004 86.7 62.7004 86 62.3004C85.3 61.9004 84.5 61.9004 83.8 61.9004H82.5V70.5004H83.6V66.9004H84L86.5 70.5004H87.8L85.1 66.8004C86.3 66.6004 87.1 65.6004 87.1 64.4004V64.3004ZM83.9 65.9004H83.6V62.8004H83.9C84.9 62.8004 86.2 63.0004 86.2 64.3004C86.2 65.6004 85 65.9004 83.9 65.9004Z" fill="#003477"/>
<path d="M91.0002 69.6002C90.1002 69.6002 89.3002 68.9002 89.3002 68.0002L88.2002 68.2002C88.4002 69.6002 89.4002 70.6002 90.8002 70.6002C92.2002 70.6002 93.5002 69.5002 93.5002 67.9002C93.5002 66.3002 92.6002 65.8002 91.4002 65.3002L90.8002 65.1002C90.3002 64.9002 89.6002 64.5002 89.6002 63.9002C89.6002 63.3002 90.4002 62.7002 91.0002 62.7002C91.6002 62.7002 92.0002 63.0002 92.4002 63.5002L93.3002 63.0002C92.8002 62.2002 92.1002 61.7002 91.1002 61.7002C90.1002 61.7002 88.6002 62.5002 88.6002 63.9002C88.6002 65.3002 89.5002 65.7002 90.4002 66.1002L91.0002 66.3002C91.7002 66.6002 92.5002 67.0002 92.5002 67.9002C92.5002 68.8002 91.8002 69.6002 90.9002 69.6002H91.0002Z" fill="#003477"/>
<path d="M95.8998 61.7998H94.7998V70.3998H95.8998V61.7998Z" fill="#003477"/>
<path d="M99.8998 70.3998V62.7998H101.9V61.7998H96.7998V62.7998H98.7998V70.3998H99.8998Z" fill="#003477"/>
<path d="M105.8 70.4004V66.7004L108.6 61.9004H107.4L105.3 65.6004L103.2 61.9004H102L104.8 66.7004V70.4004H105.9H105.8Z" fill="#003477"/>
<path d="M116.7 70.5996C119.2 70.5996 121.2 68.6996 121.2 66.0996C121.2 63.4996 119.2 61.5996 116.7 61.5996C114.2 61.5996 112.2 63.5996 112.2 66.0996C112.2 68.5996 114.2 70.5996 116.7 70.5996ZM116.7 62.5996C118.7 62.5996 120.1 64.1996 120.1 66.0996C120.1 67.9996 118.5 69.5996 116.7 69.5996C114.9 69.5996 113.3 68.0996 113.3 66.0996C113.3 64.0996 114.7 62.5996 116.7 62.5996Z" fill="#003477"/>
<path d="M123.4 66.1998H126.3V65.1998H123.4V62.7998H126.5V61.7998H122.4V70.3998H123.5V66.1998H123.4Z" fill="#003477"/>
<path d="M133.9 65.3002L133.3 65.1002C132.8 64.9002 132.1 64.5002 132.1 63.9002C132.1 63.3002 132.9 62.7002 133.5 62.7002C134.1 62.7002 134.5 63.0002 134.9 63.5002L135.8 63.0002C135.3 62.2002 134.6 61.7002 133.6 61.7002C132.6 61.7002 131.1 62.5002 131.1 63.9002C131.1 65.3002 132 65.7002 133 66.1002L133.6 66.3002C134.3 66.6002 135.1 67.0002 135.1 67.9002C135.1 68.8002 134.4 69.6002 133.5 69.6002C132.6 69.6002 131.8 68.9002 131.8 68.0002L130.7 68.2002C130.9 69.6002 131.9 70.6002 133.3 70.6002C134.7 70.6002 136 69.5002 136 67.9002C136 66.3002 135.1 65.8002 133.9 65.3002Z" fill="#003477"/>
<path d="M141.3 62.5996C142.1 62.5996 142.9 62.8996 143.5 63.3996V62.1996C142.9 61.7996 142.1 61.5996 141.3 61.5996C138.8 61.5996 136.8 63.5996 136.8 66.0996C136.8 68.5996 138.8 70.4996 141.2 70.4996C143.6 70.4996 142.8 70.2996 143.4 69.8996V68.5996C142.8 69.1996 142 69.4996 141.1 69.4996C139.2 69.4996 137.8 67.8996 137.8 65.9996C137.8 64.0996 139.3 62.4996 141.2 62.4996H141.3V62.5996Z" fill="#003477"/>
<path d="M145.9 61.7998H144.8V70.3998H145.9V61.7998Z" fill="#003477"/>
<path d="M147.6 70.3998H152.2V69.3998H148.7V66.1998H152.1V65.1998H148.7V62.7998H152.2V61.7998H147.6V70.3998Z" fill="#003477"/>
<path d="M159.9 68.2004L153.5 61.4004V70.4004H154.6V64.0004L161 70.7004V61.8004H159.9V68.1004V68.2004Z" fill="#003477"/>
<path d="M162.1 66.1996C162.1 68.6996 164.1 70.5996 166.5 70.5996C168.9 70.5996 168.1 70.3996 168.7 69.9996V68.6996C168.1 69.2996 167.3 69.5996 166.4 69.5996C164.5 69.5996 163.1 67.9996 163.1 66.0996C163.1 64.1996 164.6 62.5996 166.5 62.5996C168.4 62.5996 168.1 62.8996 168.7 63.3996V62.1996C168.1 61.7996 167.3 61.5996 166.6 61.5996C164.1 61.5996 162.1 63.5996 162.1 66.0996V66.1996Z" fill="#003477"/>
<path d="M174.7 62.7998V61.7998H170.1V70.3998H174.7V69.3998H171.2V66.1998H174.6V65.1998H171.2V62.7998H174.7Z" fill="#003477"/>
<path d="M48.8998 84.1002H49.9998L50.9998 81.9002H54.8998L55.8998 84.1002H56.9998L52.8998 75.2002L48.7998 84.1002H48.8998ZM51.3998 80.9002L52.8998 77.4002L54.3998 80.9002H51.3998Z" fill="#003477"/>
<path d="M64.1002 81.8L57.7002 75V84H58.8002V77.6L65.2002 84.4V75.5H64.1002V81.8Z" fill="#003477"/>
<path d="M68.5002 75.5H66.7002V84.1H68.4002C71.1002 84.1 73.2002 82.7 73.2002 79.8C73.2002 76.9 71.0002 75.6 68.4002 75.6H68.5002V75.5ZM68.1002 83.1H67.7002V76.5H68.1002C70.3002 76.5 72.1002 77.3 72.1002 79.8C72.1002 82.3 70.2002 83.1 68.1002 83.1Z" fill="#003477"/>
<path d="M77 76.5H79V84.1H80.1V76.5H82.1V75.5H77V76.5Z" fill="#003477"/>
<path d="M83.1001 84.1H87.7001V83.1H84.2001V79.9H87.6001V78.9H84.2001V76.5H87.7001V75.5H83.1001V84.1Z" fill="#003477"/>
<path d="M88.6 79.8002C88.6 82.3002 90.6 84.2002 93 84.2002C95.4 84.2002 94.6 84.0002 95.2 83.6002V82.3002C94.6 82.9002 93.8 83.2002 92.9 83.2002C91 83.2002 89.6 81.6002 89.6 79.7002C89.6 77.8002 91.1 76.2002 93 76.2002C94.9 76.2002 94.6 76.5002 95.2 77.0002V75.8002C94.6 75.4002 93.8 75.2002 93 75.2002C90.5 75.2002 88.5 77.2002 88.5 79.7002H88.6V79.8002Z" fill="#003477"/>
<path d="M101.6 78.9004H97.4999V75.4004H96.3999V84.0004H97.4999V79.9004H101.6V84.0004H102.7V75.4004H101.6V78.9004Z" fill="#003477"/>
<path d="M110.6 81.8L104.2 75V84H105.3V77.6L111.7 84.4V75.5H110.6V81.8Z" fill="#003477"/>
<path d="M117.2 75.2998C114.8 75.2998 112.7 77.2998 112.7 79.7998C112.7 82.2998 114.7 84.2998 117.2 84.2998C119.7 84.2998 121.7 82.3998 121.7 79.7998C121.7 77.1998 119.7 75.2998 117.2 75.2998ZM117.2 83.2998C115.4 83.2998 113.8 81.7998 113.8 79.7998C113.8 77.7998 115.2 76.2998 117.2 76.2998C119.2 76.2998 120.6 77.8998 120.6 79.7998C120.6 81.6998 119 83.2998 117.2 83.2998Z" fill="#003477"/>
<path d="M123.8 75.5H122.7V84.1H126.4V83.1H123.8V75.5Z" fill="#003477"/>
<path d="M131.1 75.2998C128.7 75.2998 126.6 77.2998 126.6 79.7998C126.6 82.2998 128.6 84.2998 131.1 84.2998C133.6 84.2998 135.6 82.3998 135.6 79.7998C135.6 77.1998 133.6 75.2998 131.1 75.2998ZM131.1 83.2998C129.3 83.2998 127.7 81.7998 127.7 79.7998C127.7 77.7998 129.1 76.2998 131.1 76.2998C133.1 76.2998 134.5 77.8998 134.5 79.7998C134.5 81.6998 132.9 83.2998 131.1 83.2998Z" fill="#003477"/>
<path d="M141.1 80.7002H143.3C143.3 82.1002 141.8 83.2002 140.5 83.2002C139.2 83.2002 137.2 81.5002 137.2 79.7002C137.2 77.9002 138.7 76.2002 140.6 76.2002C142.5 76.2002 142.7 76.8002 143.3 77.6002L144 76.9002C143.2 75.8002 141.8 75.2002 140.5 75.2002C138.1 75.2002 136.1 77.2002 136.1 79.7002C136.1 82.2002 138 84.2002 140.4 84.2002C142.8 84.2002 144.4 82.4002 144.4 80.0002V79.7002H141V80.7002H141.1Z" fill="#003477"/>
<path d="M148.1 79.2L146 75.5H144.8L147.6 80.3V84H148.7V80.3L151.5 75.5H150.3L148.2 79.2H148.1Z" fill="#003477"/>
<path d="M49.1999 38.9996C49.6999 38.7996 49.9999 38.6996 50.1999 38.5996V43.5996H51.2999V43.0996H56.9999V43.5996H58.0999V38.5996C58.2999 38.5996 58.3999 38.7996 58.5999 38.7996C58.7999 38.7996 58.9999 38.7996 59.0999 38.9996L59.5999 37.8996C57.8999 37.5996 56.6999 36.9996 55.7999 36.0996H59.4999V35.0996H54.6999V34.0996C56.1999 34.0996 57.4999 33.7996 58.5999 33.5996L58.0999 32.5996C56.4999 32.8996 54.1999 33.0996 51.1999 33.0996C48.1999 33.0996 49.9999 33.0996 49.5999 33.0996L49.9999 34.1996H53.6999V35.0996H48.9999V36.0996H52.4999C51.4999 36.9996 50.2999 37.5996 48.8999 37.8996L49.3999 38.8996H49.1999V38.9996ZM56.8999 42.0996H51.1999V41.0996H56.8999V42.0996ZM54.4999 36.1996C55.1999 37.1996 56.1999 37.8996 57.2999 38.2996H54.4999V36.1996ZM56.8999 39.2996V40.1996H51.1999V39.2996H56.8999ZM53.3999 36.1996V38.2996H50.7999C51.8999 37.7996 52.7999 37.0996 53.3999 36.1996Z" fill="#003477"/>
<path d="M65.7999 40.0004L64.7999 39.4004C64.5999 40.5004 64.0999 41.5004 63.3999 42.5004L64.2999 43.5004C64.9999 42.5004 65.3999 41.3004 65.7999 40.0004Z" fill="#003477"/>
<path d="M65.7999 37.1C65.1999 36.6 64.5999 36.3 64.0999 36L63.3999 36.9C63.8999 37.2 64.3999 37.6 64.9999 38.1L65.7999 37.1Z" fill="#003477"/>
<path d="M66.2001 34.2996V34.8996H67.7001V36.0996H65.9001V37.0996H67.7001C67.4001 37.7996 66.6001 38.4996 65.3001 39.0996L66.0001 40.0996C66.5001 39.7996 66.9001 39.4996 67.1001 39.3996V41.9996C67.1001 42.4996 67.1001 42.8996 67.4001 43.0996C67.6001 43.2996 67.9001 43.3996 68.4001 43.3996H72.1001C72.7001 43.3996 73.1001 43.3996 73.3001 43.0996C73.5001 42.8996 73.7001 42.1996 73.8001 41.1996L72.7001 40.7996C72.7001 41.3996 72.7001 41.7996 72.5001 42.0996C72.5001 42.2996 72.3001 42.4996 71.9001 42.4996H68.5001C68.2001 42.4996 68.1001 42.4996 68.1001 42.0996V41.3996H71.8001V38.9996C72.3001 39.3996 72.8001 39.7996 73.5001 40.2996L74.0001 39.2996C72.8001 38.6996 72.0001 38.0996 71.7001 37.3996H73.9001V36.3996H71.8001V35.1996H73.7001V34.2996H71.8001V33.0996H70.8001V34.2996H68.7001V33.0996H67.6001V34.2996H66.1001V34.4996C65.7001 34.1996 65.1001 33.7996 64.4001 33.2996L63.6001 34.1996C64.1001 34.4996 64.7001 34.9996 65.3001 35.5996L66.0001 34.6996L66.2001 34.2996ZM68.8001 34.9996H70.9001V36.0996H68.8001V34.9996ZM69.0001 37.0996H70.5001C70.7001 37.4996 71.0001 37.8996 71.2001 38.0996H68.3001C68.6001 37.7996 68.8001 37.4996 69.0001 37.0996ZM68.1001 38.9996H70.7001V40.0996H68.1001V38.9996Z" fill="#003477"/>
<path d="M86.3 34.9996C85.4 34.2996 84.7 33.8996 84.2 33.5996L83.5 34.3996C84 34.6996 84.7 35.1996 85.6 35.8996L86.3 34.9996Z" fill="#003477"/>
<path d="M86.0998 37.8004C85.2998 37.1004 84.4998 36.7004 83.9998 36.4004L83.2998 37.2004C83.8998 37.6004 84.5998 38.1004 85.3998 38.7004L86.0998 37.8004Z" fill="#003477"/>
<path d="M82.8999 40.9998L86.6999 40.3998V43.5998H87.7999V40.2998L88.7999 40.0998V39.0998L87.7999 39.2998V32.7998H86.6999V39.4998L82.8999 40.0998V41.1998V40.9998Z" fill="#003477"/>
<path d="M78.7001 41.4004C79.5001 40.4004 80.0001 39.6004 80.3001 38.8004V43.6004H81.4001V38.2004C81.6001 38.5004 81.8001 38.7004 82.0001 39.0004C82.2001 39.3004 82.5001 39.6004 82.7001 39.9004L83.3001 38.9004C82.9001 38.4004 82.2001 37.8004 81.4001 37.0004H83.1001V36.0004H81.4001V34.4004C82.0001 34.4004 82.6001 34.1004 83.1001 33.9004L82.7001 32.9004C81.5001 33.4004 80.0001 33.7004 78.3001 33.7004L78.5001 34.7004C79.3001 34.7004 79.9001 34.7004 80.3001 34.5004V36.0004H78.2001V37.0004H80.3001C79.8001 38.3004 79.1001 39.5004 78.1001 40.6004L78.7001 41.6004V41.4004Z" fill="#003477"/>
<path d="M92.7002 38.8002L93.0002 40.0002C93.4002 40.0002 93.9002 39.8002 94.5002 39.6002V42.0002C94.5002 42.2002 94.5002 42.4002 94.1002 42.4002H93.1002L93.4002 43.5002H94.3002C94.9002 43.5002 95.2002 43.5002 95.4002 43.2002C95.6002 43.0002 95.6002 42.7002 95.6002 42.1002V39.3002C96.3002 39.1002 96.7002 38.9002 96.9002 38.8002V37.7002C96.6002 37.7002 96.2002 38.0002 95.6002 38.2002V36.2002H97.0002V35.5002H99.5002V37.0002H97.2002V38.1002H101.8C101.5 39.1002 100.9 39.9002 100.1 40.5002C99.6002 40.0002 99.0002 39.2002 98.5002 38.3002L97.6002 38.7002C98.2002 39.7002 98.7002 40.6002 99.3002 41.2002C98.2002 42.0002 97.1002 42.4002 96.0002 42.7002L96.6002 43.7002C97.7002 43.5002 98.9002 42.9002 100.1 41.9002C101 42.7002 101.9 43.3002 102.9 43.6002L103.5 42.5002C102.5 42.2002 101.7 41.8002 100.9 41.1002C101.3 40.7002 101.7 40.2002 102.1 39.5002C102.5 38.8002 102.8 38.3002 102.9 37.9002V36.9002H100.6V35.4002H103.3V34.4002H100.6V32.8002H99.5002V34.4002H97.0002V35.1002H95.7002V32.7002H94.6002V35.1002H92.9002V36.1002H94.6002V38.4002C94.1002 38.6002 93.4002 38.7002 92.8002 38.8002H92.7002Z" fill="#003477"/>
<path d="M107.4 42.5002L108.3 43.6002C110.9 41.9002 112.4 39.6002 112.9 36.9002H113.1C113.9 40.0002 115.3 42.3002 117.3 43.6002L118.2 42.5002C117.1 41.7002 116.2 40.9002 115.5 39.8002C114.8 38.8002 114.4 37.8002 114.3 36.8002H118V35.6002H113.1V32.7002H111.9C111.9 33.9002 111.9 34.9002 111.7 35.6002H107.5V36.8002H111.5C111.3 37.9002 110.8 38.9002 110.1 40.0002C109.3 41.0002 108.4 41.8002 107.3 42.5002H107.4Z" fill="#003477"/>
<path d="M126.5 42.7002H125.3L125.5 43.7002H127.1C127.4 43.7002 127.6 43.7002 127.8 43.4002C127.8 43.4002 128 43.1002 128 42.8002V40.9002H132.4V39.9002H128V39.5002C129 39.1002 130 38.6002 130.8 38.2002V37.2002H124.1V38.2002H129.1C128.3 38.6002 127.6 38.9002 126.8 39.1002V39.9002H122.4V40.9002H126.8V42.5002C126.8 42.7002 126.8 42.8002 126.4 42.8002H126.5V42.7002Z" fill="#003477"/>
<path d="M128.2 34.4002C127.9 33.8002 127.6 33.2002 127.3 32.7002L126.4 33.1002C126.7 33.6002 127 34.2002 127.3 34.8002L128.3 34.3002L128.2 34.4002Z" fill="#003477"/>
<path d="M123.3 36.1996H131.6V37.5996H132.7V35.1996H130.4C130.7 34.5996 131.1 33.8996 131.4 33.0996L130.2 32.5996C129.8 33.6996 129.4 34.4996 129.1 35.1996H122.1V37.5996H123.2V36.0996L123.3 36.1996Z" fill="#003477"/>
<path d="M125.6 34.5996C125.3 33.9996 124.9 33.4996 124.6 33.0996L123.7 33.4996C124 33.9996 124.3 34.4996 124.6 35.0996L125.6 34.5996Z" fill="#003477"/>
<path d="M42.7001 101.6H8.6001V90.7002H8.8001V101.3H42.4001V90.7002H42.6001V101.6H42.7001Z" fill="#231815"/>
<path d="M174.7 101.6H48.2998V90.7002H48.4998V101.3H174.4V90.7002H174.6V101.6H174.7Z" fill="#231815"/>
<path d="M133.7 26.5996H133.5V16.2996H48.5999V26.5996H48.3999V16.0996H133.7V26.5996Z" fill="#231815"/>
<path d="M19.7998 111.8L19.3998 112.1C19.1998 111.7 18.9998 111.3 18.7998 111V115.8H18.2998V111.1C17.8998 112 17.4998 112.7 17.0998 113.2L16.7998 112.8C17.2998 112.2 17.8998 111.2 18.2998 109.9H16.9998V109.4H18.2998V107.4H18.7998V109.4H19.7998V109.9H18.7998V110.2C19.1998 110.7 19.5998 111.3 19.7998 111.8ZM25.0998 115.4L24.7998 115.8C23.7998 115.3 22.9998 114.8 22.3998 114.2C21.6998 114.9 20.7998 115.4 19.7998 115.8L19.4998 115.4C20.6998 114.9 21.4998 114.4 22.0998 113.8C21.6998 113.2 21.2998 112.4 20.8998 111.5L21.2998 111.3C21.6998 112.3 21.9998 113 22.3998 113.4C22.7998 112.8 23.1998 112 23.4998 111.2L23.8998 111.4C23.5998 112.3 23.1998 113 22.6998 113.7C23.1998 114.2 23.9998 114.8 25.0998 115.3V115.4ZM24.8998 109H19.9998V108.5H22.2998C22.2998 108.2 22.0998 107.9 21.8998 107.6L22.3998 107.4C22.4998 107.6 22.6998 108 22.8998 108.5H24.9998V109H24.8998ZM21.9998 109.6C21.4998 110.4 20.8998 111.1 20.2998 111.6L19.8998 111.2C20.3998 110.7 20.9998 110.1 21.4998 109.2L21.8998 109.5L21.9998 109.6ZM25.0998 111.3L24.6998 111.6C24.2998 111 23.7998 110.4 23.0998 109.7L23.4998 109.4C24.0998 110 24.6998 110.6 25.1998 111.3H25.0998Z" fill="#231815" stroke="#231815" stroke-width="0.1" stroke-miterlimit="10"/>
<path d="M28.1997 109.8C28.1997 110 27.9997 110.2 27.8997 110.6L27.5997 111.1V115.8H27.0997V111.9C26.8997 112.2 26.6997 112.5 26.3997 112.8L26.1997 112.3C26.7997 111.5 27.3997 110.6 27.6997 109.6L28.0997 109.8H28.1997ZM28.1997 107.7C27.5997 108.7 27.0997 109.4 26.4997 109.9L26.1997 109.5C26.7997 109 27.2997 108.3 27.6997 107.5L28.0997 107.7H28.1997ZM29.3997 114.2C29.0997 114.6 28.6997 115.1 28.1997 115.4L27.8997 115.1C28.3997 114.7 28.7997 114.3 29.0997 113.9L29.4997 114.1L29.3997 114.2ZM31.8997 113.6L31.4997 113.8C31.4997 113.7 31.3997 113.5 31.2997 113.4H30.2997V115.3C30.2997 115.5 30.2997 115.7 30.0997 115.7C29.9997 115.7 29.6997 115.8 29.1997 115.7L28.9997 115.2C29.3997 115.2 29.5997 115.2 29.6997 115.2C29.7997 115.2 29.7997 115.2 29.7997 115.1V113.5C29.3997 113.5 28.8997 113.5 28.1997 113.6V113.2C28.6997 113 29.1997 112.6 29.6997 112.2H28.2997L28.1997 111.9C28.7997 111.6 29.2997 111.2 29.5997 110.7H28.1997V110.3H31.5997V110.7H30.1997C29.8997 111.1 29.4997 111.5 28.9997 111.8C29.3997 111.8 29.7997 111.8 30.2997 111.8C30.5997 111.5 30.7997 111.3 30.7997 111.3L31.1997 111.5C30.4997 112.2 29.7997 112.8 29.0997 113.1C29.7997 113.1 30.3997 113 30.9997 112.9C30.8997 112.7 30.7997 112.5 30.6997 112.4L31.0997 112.2C31.3997 112.5 31.5997 113 31.7997 113.4L31.8997 113.6ZM31.5997 109.8H28.4997V108.1H28.9997V109.4H29.8997V107.6H30.3997V109.4H31.1997V108.1H31.6997V109.8H31.5997ZM31.6997 114.9L31.2997 115.1C31.0997 114.7 30.8997 114.4 30.6997 114.1L31.0997 113.9C31.2997 114.2 31.4997 114.5 31.6997 114.9ZM34.5997 115.5L34.2997 115.9C33.7997 115.5 33.2997 115 32.9997 114.5C32.6997 115 32.2997 115.4 31.7997 115.9L31.3997 115.6C31.9997 115 32.4997 114.5 32.6997 114.1C32.3997 113.5 32.1997 112.7 31.9997 111.8H32.3997C32.5997 112.6 32.6997 113.2 32.8997 113.6C33.1997 112.8 33.3997 111.5 33.4997 109.7H32.6997C32.3997 110.5 32.0997 111.1 31.7997 111.5L31.3997 111.3C31.9997 110.4 32.3997 109.1 32.6997 107.6H33.1997C33.0997 108.4 32.9997 108.9 32.8997 109.3H34.4997V109.8H33.9997C33.9997 111.8 33.5997 113.3 33.1997 114.2C33.3997 114.7 33.8997 115.1 34.4997 115.7L34.5997 115.5Z" fill="#231815" stroke="#231815" stroke-width="0.1" stroke-miterlimit="10"/>
<path d="M100.1 112.9H96.0999C95.5999 114.4 94.2999 115.3 92.1999 115.7L91.8999 115.3C93.8999 115 95.0999 114.2 95.5999 113H92.0999V112.5H92.9999V110.4H95.8999V109.5H96.3999V110.4H99.1999V112.5H100.1V113V112.9ZM95.8999 108.8H94.6999V109.8H94.1999V108.8H91.9999V108.3H94.1999V107.3H94.6999V108.3H95.8999V108.8ZM95.7999 110.8H93.3999V112.4H95.5999C95.5999 112 95.6999 111.4 95.7999 110.8ZM98.6999 112.4V110.8H96.3999C96.3999 111.3 96.3999 111.9 96.2999 112.4H98.7999H98.6999ZM100.2 108.8H97.9999V109.8H97.4999V108.8H96.2999V108.3H97.4999V107.3H97.9999V108.3H100.2V108.8ZM100.2 115.3L99.8999 115.7C98.8999 115 97.6999 114.3 96.2999 113.8L96.5999 113.4C97.7999 113.9 98.9999 114.5 100.2 115.3Z" fill="#231815" stroke="#231815" stroke-width="0.1" stroke-miterlimit="10"/>
<path d="M109.7 115.3L109.4 115.7C107.9 115.2 106.6 114.5 105.6 113.6C104.6 114.5 103.3 115.2 101.8 115.7L101.4 115.3C103 114.8 104.3 114.2 105.2 113.3C104.3 112.4 103.6 111.2 103.1 109.9L103.6 109.7C104.1 111 104.7 112.1 105.6 113C106.5 112 107.2 110.8 107.5 109.3H101.4V108.8H105.4C105.2 108.3 104.9 107.8 104.6 107.4L105.1 107.2C105.5 107.8 105.8 108.3 106 108.8H109.8V109.3H108.1C107.7 110.9 107 112.2 106 113.3C106.9 114.1 108.2 114.8 109.8 115.3H109.7Z" fill="#231815" stroke="#231815" stroke-width="0.1" stroke-miterlimit="10"/>
<path d="M119.2 112.9H115.3V114.9C115.3 115.1 115.3 115.3 115.1 115.4C114.9 115.5 114.6 115.6 113.9 115.6C113.2 115.6 113.6 115.6 113.4 115.6L113.2 115.1C113.5 115.1 113.7 115.1 114 115.1C114.4 115.1 114.6 115.1 114.7 115.1C114.8 115.1 114.8 115 114.8 114.9V112.9H110.9V112.4H114.8V111.8C115.6 111.3 116.3 110.9 116.8 110.5H112.5V110H117.6V110.5C117 111 116.2 111.5 115.3 112V112.4H119.2V112.9ZM118.8 110.5H118.3V108.8H111.8V110.5H111.3V108.3H114.9C114.9 108.1 114.7 107.8 114.4 107.5L114.9 107.3C115.1 107.6 115.3 107.9 115.5 108.3H118.8V110.5Z" fill="#231815" stroke="#231815" stroke-width="0.1" stroke-miterlimit="10"/>
<path d="M123.8 111.8L123.5 112.2C123.2 111.8 122.9 111.4 122.5 110.9V115.7H122V110.8C121.6 111.8 121.1 112.6 120.8 113.1L120.5 112.7C121.1 111.9 121.6 110.9 122.1 109.7H120.7V109.2H122.1V107.4H122.6V109.2H123.9V109.7H122.6V110.3C123.1 110.8 123.6 111.3 124 111.9L123.8 111.8ZM125.2 111.7C124.7 112.9 124.2 113.9 123.6 114.7L123.2 114.4C123.7 113.6 124.2 112.6 124.7 111.4L125.1 111.6L125.2 111.7ZM128.7 110.7H126.4V115.1C126.4 115.3 126.4 115.5 126.2 115.6C126.1 115.7 125.8 115.8 125.3 115.8C124.8 115.8 124.9 115.8 124.7 115.8L124.5 115.3C124.7 115.3 124.9 115.3 125.1 115.3C125.5 115.3 125.7 115.3 125.7 115.3C125.7 115.3 125.8 115.3 125.8 115.1V110.8H123.4V110.3H128.6V110.8L128.7 110.7ZM128.5 108.1H123.9V107.6H128.5V108.1ZM128.9 114.6L128.4 114.8C128.1 113.8 127.7 112.8 127.1 111.7L127.5 111.5C128 112.4 128.5 113.5 128.8 114.6H128.9Z" fill="#231815" stroke="#231815" stroke-width="0.1" stroke-miterlimit="10"/>
<path d="M80.4002 5.5H77.1002V8.3H76.6002V5.5H73.2002V1.7H76.6002V0H77.1002V1.7H80.4002V5.5ZM76.5002 4.9V2.1H73.6002V4.9H76.5002ZM79.9002 4.9V2.1H77.1002V4.9H79.9002Z" fill="#231815" stroke="#231815" stroke-width="0.1" stroke-miterlimit="10"/>
<path d="M90.4001 7.89981L90.1001 8.2998C88.6001 7.7998 87.3001 7.0998 86.3001 6.1998C85.3001 7.0998 84.0001 7.7998 82.5001 8.2998L82.1001 7.89981C83.7001 7.39981 85.0001 6.7998 85.9001 5.8998C85.0001 4.9998 84.3001 3.7998 83.8001 2.4998L84.3001 2.2998C84.8001 3.5998 85.4001 4.6998 86.3001 5.5998C87.2001 4.5998 87.9001 3.3998 88.2001 1.8998H82.1001V1.3998H86.1001C85.9001 0.899805 85.6001 0.399805 85.3001 -0.00019531L85.8001 -0.200195C86.2001 0.399805 86.5001 0.899805 86.7001 1.3998H90.5001V1.8998H88.8001C88.4001 3.4998 87.7001 4.7998 86.7001 5.8998C87.6001 6.6998 88.9001 7.39981 90.5001 7.89981H90.4001Z" fill="#231815" stroke="#231815" stroke-width="0.1" stroke-miterlimit="10"/>
<path d="M99.9001 5.6H96.0001V7.6C96.0001 7.8 96.0001 8 95.8001 8.1C95.6001 8.2 95.3001 8.3 94.6001 8.3C93.9001 8.3 94.3001 8.3 94.1001 8.3L93.9001 7.8C94.2001 7.8 94.4001 7.8 94.7001 7.8C95.1001 7.8 95.3001 7.8 95.4001 7.8C95.5001 7.8 95.5001 7.7 95.5001 7.6V5.6H91.6001V5.1H95.5001V4.5C96.3001 4 97.0001 3.6 97.5001 3.2H93.2001V2.7H98.3001V3.2C97.7001 3.7 96.9001 4.2 96.0001 4.7V5.1H99.9001V5.6ZM99.5001 3.2H99.0001V1.5H92.5001V3.2H92.0001V1H95.6001C95.6001 0.8 95.4001 0.5 95.1001 0.2L95.6001 0C95.8001 0.3 96.0001 0.6 96.2001 1H99.5001V3.2Z" fill="#231815" stroke="#231815" stroke-width="0.1" stroke-miterlimit="10"/>
<path d="M104.5 4.4L104.2 4.8C103.9 4.4 103.6 4 103.2 3.5V8.3H102.7V3.4C102.3 4.4 101.9 5.2 101.5 5.7L101.2 5.3C101.8 4.5 102.3 3.5 102.8 2.3H101.4V1.8H102.8V0H103.3V1.8H104.6V2.3H103.3V2.9C103.8 3.4 104.3 3.9 104.7 4.5L104.5 4.4ZM105.8 4.3C105.3 5.5 104.8 6.5 104.2 7.3L103.8 7C104.3 6.2 104.8 5.2 105.3 4L105.7 4.2L105.8 4.3ZM109.4 3.3H107.1V7.7C107.1 7.9 107.1 8.1 106.9 8.2C106.8 8.3 106.5 8.4 106 8.4C105.5 8.4 105.6 8.4 105.4 8.4L105.2 7.9C105.4 7.9 105.6 7.9 105.8 7.9C106.2 7.9 106.4 7.9 106.4 7.9C106.4 7.9 106.5 7.9 106.5 7.7V3.3H104.1V2.8H109.3V3.3H109.4ZM109.1 0.7H104.5V0.2H109.1V0.7ZM109.5 7.2L109 7.4C108.7 6.4 108.3 5.4 107.7 4.3L108.1 4.1C108.6 5 109.1 6.1 109.4 7.2H109.5Z" fill="#231815" stroke="#231815" stroke-width="0.1" stroke-miterlimit="10"/>
</g>
<defs>
<clipPath id="clip0_80_401">
<rect width="175" height="119" fill="white"/>
</clipPath>
</defs>
</svg>
