<svg width="420" height="51" viewBox="0 0 420 51" fill="none" xmlns="http://www.w3.org/2000/svg">
<path d="M43.3996 50.6001H36.0996V0.600098H43.3996V0.800098H36.2996V50.3001H43.3996V50.5001V50.6001Z" fill="#231815"/>
<path d="M382.3 50.6002H375V50.4002H382.1V0.900195H375V0.700195H382.3V50.7002V50.6002Z" fill="#231815"/>
<path d="M51.0004 43.0001H52.9004V50.2001H53.9004V43.0001H55.8004V42.1001H50.9004V43.0001H51.0004Z" fill="#003477"/>
<path d="M61.6002 45.3H57.7002V42H56.7002V50.1H57.7002V46.2H61.6002V50.1H62.6002V42H61.6002V45.3Z" fill="#003477"/>
<path d="M64.2002 50.2001H68.6002V49.3001H65.2002V46.2001H68.5002V45.3001H65.2002V43.0001H68.6002V42.1001H64.2002V50.2001Z" fill="#003477"/>
<path d="M77.9 45.3H74V42H73V50.1H74V46.2H77.9V50.1H78.9V42H77.9V45.3Z" fill="#003477"/>
<path d="M84.2004 41.8999C81.9004 41.8999 79.9004 43.7999 79.9004 46.0999C79.9004 48.3999 81.8004 50.2999 84.2004 50.2999C86.6004 50.2999 88.5004 48.4999 88.5004 46.0999C88.5004 43.6999 86.6004 41.8999 84.2004 41.8999ZM84.2004 49.3999C82.4004 49.3999 81.0004 47.9999 81.0004 46.0999C81.0004 44.1999 82.3004 42.7999 84.2004 42.7999C86.1004 42.7999 87.4004 44.2999 87.4004 46.0999C87.4004 47.8999 85.9004 49.3999 84.2004 49.3999Z" fill="#003477"/>
<path d="M95.6 48.1002L89.5 41.7002V50.2002H90.5V44.1002L96.6 50.5002V42.0002H95.6V48.0002V48.1002Z" fill="#003477"/>
<path d="M102.4 46.9998H104.5C104.5 48.2998 103.1 49.3998 101.8 49.3998C100.5 49.3998 98.5996 47.7998 98.5996 46.0998C98.5996 44.3998 99.9996 42.7998 101.8 42.7998C103.6 42.7998 103.8 43.2998 104.4 44.0998L105.1 43.3998C104.3 42.3998 103.1 41.7998 101.8 41.7998C99.4996 41.7998 97.5996 43.6998 97.5996 46.0998C97.5996 48.4998 99.3996 50.2998 101.7 50.2998C104 50.2998 105.6 48.5998 105.6 46.2998V45.9998H102.4V46.8998V46.9998Z" fill="#003477"/>
<path d="M115.8 42.1H114.5L111 45.6V42.1H110V50.2H111V46.8L111.4 46.4L114.5 50.2H115.9L112.2 45.7L115.9 42L115.8 42.1Z" fill="#003477"/>
<path d="M120.2 41.8999C117.9 41.8999 115.9 43.7999 115.9 46.0999C115.9 48.3999 117.8 50.2999 120.2 50.2999C122.6 50.2999 124.5 48.4999 124.5 46.0999C124.5 43.6999 122.6 41.8999 120.2 41.8999ZM120.2 49.3999C118.4 49.3999 117 47.9999 117 46.0999C117 44.1999 118.3 42.7999 120.2 42.7999C122.1 42.7999 123.4 44.2999 123.4 46.0999C123.4 47.8999 121.9 49.3999 120.2 49.3999Z" fill="#003477"/>
<path d="M131.6 48.1002L125.5 41.7002V50.2002H126.5V44.1002L132.6 50.5002V42.0002H131.6V48.0002V48.1002Z" fill="#003477"/>
<path d="M138.4 46.9998H140.5C140.5 48.2998 139.1 49.3998 137.8 49.3998C136.5 49.3998 134.6 47.7998 134.6 46.0998C134.6 44.3998 136 42.7998 137.8 42.7998C139.6 42.7998 139.8 43.2998 140.4 44.0998L141.1 43.3998C140.3 42.3998 139 41.7998 137.8 41.7998C135.5 41.7998 133.6 43.6998 133.6 46.0998C133.6 48.4998 135.4 50.2998 137.7 50.2998C140 50.2998 141.6 48.5998 141.6 46.2998V45.9998H138.4V46.8998V46.9998Z" fill="#003477"/>
<path d="M150.8 46.9001C150.8 48.2001 150.4 49.5001 148.8 49.5001C147.2 49.5001 146.8 48.3001 146.8 46.9001V42.1001H145.8V47.2001C145.8 49.0001 146.9 50.4001 148.8 50.4001C150.7 50.4001 151.8 49.0001 151.8 47.2001V42.1001H150.8V46.9001Z" fill="#003477"/>
<path d="M159.3 48.1002L153.2 41.7002V50.2002H154.2V44.1002L160.3 50.5002V42.0002H159.3V48.0002V48.1002Z" fill="#003477"/>
<path d="M162.9 42.1001H161.9V50.2001H162.9V42.1001Z" fill="#003477"/>
<path d="M167.2 48.1001L164.8 42.1001H163.7L167.3 50.7001L170.8 42.1001H169.7L167.3 48.1001H167.2Z" fill="#003477"/>
<path d="M171.5 50.2001H175.9V49.3001H172.5V46.2001H175.8V45.3001H172.5V43.0001H175.9V42.1001H171.5V50.2001Z" fill="#003477"/>
<path d="M181.7 44.4C181.7 43.6 181.3 42.9 180.6 42.4C180 42 179.2 42 178.5 42H177.3V50.1H178.3V46.7H178.7L181.1 50.1H182.3L179.7 46.6C180.9 46.5 181.7 45.5 181.7 44.3V44.4ZM178.6 45.9H178.3V42.9H178.6C179.6 42.9 180.8 43.1 180.8 44.4C180.8 45.7 179.7 45.9 178.6 45.9Z" fill="#003477"/>
<path d="M185.9 45.3999L185.3 45.1999C184.8 44.9999 184.2 44.6999 184.2 43.9999C184.2 43.2999 184.9 42.7999 185.6 42.7999C186.3 42.7999 186.6 43.0999 186.9 43.5999L187.7 43.0999C187.3 42.2999 186.5 41.8999 185.6 41.8999C184.7 41.8999 183.2 42.6999 183.2 43.9999C183.2 45.2999 184 45.6999 185 46.0999L185.6 46.2999C186.3 46.5999 187 46.9999 187 47.8999C187 48.7999 186.4 49.4999 185.5 49.4999C184.6 49.4999 183.9 48.7999 183.9 47.8999L182.9 48.0999C183.1 49.3999 184.1 50.3999 185.4 50.3999C186.7 50.3999 188 49.2999 188 47.8999C188 46.4999 187.1 45.8999 186 45.3999H185.9Z" fill="#003477"/>
<path d="M190.1 42.1001H189.1V50.2001H190.1V42.1001Z" fill="#003477"/>
<path d="M191 43.0001H192.9V50.2001H193.9V43.0001H195.8V42.1001H190.9V43.0001H191Z" fill="#003477"/>
<path d="M199.1 45.5L197.1 42H195.9L198.6 46.6V50.1H199.6V46.6L202.2 42H201L199 45.5H199.1Z" fill="#003477"/>
<path d="M210 41.8999C207.7 41.8999 205.7 43.7999 205.7 46.0999C205.7 48.3999 207.6 50.2999 210 50.2999C212.4 50.2999 214.3 48.4999 214.3 46.0999C214.3 43.6999 212.4 41.8999 210 41.8999ZM210 49.3999C208.2 49.3999 206.8 47.9999 206.8 46.0999C206.8 44.1999 208.1 42.7999 210 42.7999C211.9 42.7999 213.2 44.2999 213.2 46.0999C213.2 47.8999 211.7 49.3999 210 49.3999Z" fill="#003477"/>
<path d="M215.4 50.2001H216.4V46.2001H219.2V45.3001H216.4V43.0001H219.3V42.1001H215.4V50.2001Z" fill="#003477"/>
<path d="M226.5 45.3999L225.9 45.1999C225.4 44.9999 224.8 44.6999 224.8 43.9999C224.8 43.2999 225.5 42.7999 226.2 42.7999C226.9 42.7999 227.2 43.0999 227.5 43.5999L228.3 43.0999C227.9 42.2999 227.1 41.8999 226.2 41.8999C225.3 41.8999 223.8 42.6999 223.8 43.9999C223.8 45.2999 224.6 45.6999 225.6 46.0999L226.2 46.2999C226.9 46.5999 227.6 46.9999 227.6 47.8999C227.6 48.7999 227 49.4999 226.1 49.4999C225.2 49.4999 224.5 48.7999 224.5 47.8999L223.5 48.0999C223.7 49.3999 224.7 50.3999 226 50.3999C227.3 50.3999 228.6 49.2999 228.6 47.8999C228.6 46.4999 227.7 45.8999 226.6 45.3999H226.5Z" fill="#003477"/>
<path d="M229.3 46.1999C229.3 48.5999 231.2 50.3999 233.5 50.3999C235.8 50.3999 235 50.1999 235.6 49.7999V48.5999C235 49.0999 234.2 49.3999 233.4 49.3999C231.6 49.3999 230.2 47.8999 230.2 46.0999C230.2 44.2999 231.6 42.7999 233.4 42.7999C235.2 42.7999 235 43.0999 235.6 43.5999V42.3999C235 41.9999 234.3 41.8999 233.5 41.8999C231.1 41.8999 229.2 43.7999 229.2 46.1999H229.3Z" fill="#003477"/>
<path d="M238 42.1001H237V50.2001H238V42.1001Z" fill="#003477"/>
<path d="M239.6 50.2001H244V49.3001H240.6V46.2001H243.9V45.3001H240.6V43.0001H244V42.1001H239.6V50.2001Z" fill="#003477"/>
<path d="M251.4 48.1002L245.3 41.7002V50.2002H246.3V44.1002L252.4 50.5002V42.0002H251.4V48.0002V48.1002Z" fill="#003477"/>
<path d="M253.5 46.1999C253.5 48.5999 255.4 50.3999 257.8 50.3999C260.2 50.3999 259.3 50.1999 259.9 49.7999V48.5999C259.3 49.0999 258.5 49.3999 257.7 49.3999C255.9 49.3999 254.5 47.8999 254.5 46.0999C254.5 44.2999 255.9 42.7999 257.7 42.7999C259.5 42.7999 259.3 43.0999 259.8 43.5999V42.3999C259.2 41.9999 258.5 41.8999 257.8 41.8999C255.4 41.8999 253.5 43.7999 253.5 46.1999Z" fill="#003477"/>
<path d="M261.2 50.2001H265.6V49.3001H262.2V46.2001H265.5V45.3001H262.2V43.0001H265.6V42.1001H261.2V50.2001Z" fill="#003477"/>
<path d="M269.3 50.2002H270.4L271.3 48.2002H275L275.9 50.2002H277L273.1 41.7002L269.2 50.2002H269.3ZM271.8 47.2002L273.2 43.9002L274.7 47.2002H271.8Z" fill="#003477"/>
<path d="M283.9 48.1002L277.8 41.7002V50.2002H278.8V44.1002L284.9 50.5002V42.0002H283.9V48.0002V48.1002Z" fill="#003477"/>
<path d="M288.1 42.1001H286.4V50.2001H288C290.6 50.2001 292.6 48.9001 292.6 46.1001C292.6 43.3001 290.5 42.1001 288 42.1001H288.1ZM287.8 49.3001H287.4V43.0001H287.8C289.9 43.0001 291.7 43.8001 291.7 46.1001C291.7 48.4001 289.9 49.2001 287.8 49.2001V49.3001Z" fill="#003477"/>
<path d="M296.2 43.0001H298.1V50.2001H299.1V43.0001H301V42.1001H296.1V43.0001H296.2Z" fill="#003477"/>
<path d="M302 50.2001H306.4V49.3001H303V46.2001H306.3V45.3001H303V43.0001H306.4V42.1001H302V50.2001Z" fill="#003477"/>
<path d="M307.3 46.1999C307.3 48.5999 309.2 50.3999 311.5 50.3999C313.8 50.3999 313 50.1999 313.6 49.7999V48.5999C313 49.0999 312.2 49.3999 311.4 49.3999C309.6 49.3999 308.2 47.8999 308.2 46.0999C308.2 44.2999 309.6 42.7999 311.4 42.7999C313.2 42.7999 313 43.0999 313.5 43.5999V42.3999C312.9 41.9999 312.2 41.8999 311.5 41.8999C309.1 41.8999 307.2 43.7999 307.2 46.1999H307.3Z" fill="#003477"/>
<path d="M319.8 45.3H315.9V42H314.9V50.1H315.9V46.2H319.8V50.1H320.8V42H319.8V45.3Z" fill="#003477"/>
<path d="M328.5 48.1002L322.4 41.7002V50.2002H323.4V44.1002L329.5 50.5002V42.0002H328.5V48.0002V48.1002Z" fill="#003477"/>
<path d="M334.7 41.8999C332.4 41.8999 330.4 43.7999 330.4 46.0999C330.4 48.3999 332.3 50.2999 334.7 50.2999C337.1 50.2999 339 48.4999 339 46.0999C339 43.6999 337.1 41.8999 334.7 41.8999ZM334.7 49.3999C332.9 49.3999 331.5 47.9999 331.5 46.0999C331.5 44.1999 332.8 42.7999 334.7 42.7999C336.6 42.7999 337.9 44.2999 337.9 46.0999C337.9 47.8999 336.4 49.3999 334.7 49.3999Z" fill="#003477"/>
<path d="M341.1 42.1001H340.1V50.2001H343.6V49.3001H341.1V42.1001Z" fill="#003477"/>
<path d="M348 41.8999C345.7 41.8999 343.7 43.7999 343.7 46.0999C343.7 48.3999 345.6 50.2999 348 50.2999C350.4 50.2999 352.3 48.4999 352.3 46.0999C352.3 43.6999 350.4 41.8999 348 41.8999ZM348 49.3999C346.2 49.3999 344.8 47.9999 344.8 46.0999C344.8 44.1999 346.1 42.7999 348 42.7999C349.9 42.7999 351.2 44.2999 351.2 46.0999C351.2 47.8999 349.7 49.3999 348 49.3999Z" fill="#003477"/>
<path d="M357.6 46.9998H359.7C359.7 48.2998 358.3 49.3998 357 49.3998C355.7 49.3998 353.8 47.7998 353.8 46.0998C353.8 44.3998 355.2 42.7998 357 42.7998C358.8 42.7998 359 43.2998 359.6 44.0998L360.3 43.3998C359.5 42.3998 358.2 41.7998 357 41.7998C354.7 41.7998 352.8 43.6998 352.8 46.0998C352.8 48.4998 354.6 50.2998 356.9 50.2998C359.2 50.2998 360.8 48.5998 360.8 46.2998V45.9998H357.6V46.8998V46.9998Z" fill="#003477"/>
<path d="M366.3 42.1001L364.3 45.6001L362.3 42.1001H361.1L363.8 46.7001V50.2001H364.8V46.7001L367.5 42.1001H366.3Z" fill="#003477"/>
<path d="M213.9 7.7001C214.1 7.5001 214.1 7.1001 214.1 7.1001H204.3C204.3 7.1001 204.4 7.5001 204.5 7.7001H213.8H213.9Z" fill="#AA8420"/>
<path d="M213.3 8.5C213.5 8.3 213.7 8 213.7 8H204.8C204.8 8 204.8 8.2 205.1 8.5H213.3Z" fill="#AA8420"/>
<path d="M212.6 9.2999C212.8 9.1999 213 8.8999 213 8.8999H205.4C205.4 8.8999 205.6 9.0999 205.8 9.2999H212.7H212.6Z" fill="#AA8420"/>
<path d="M211.8 10.0002C212 10.0002 212.3 9.7002 212.3 9.7002H206.3C206.3 9.7002 206.3 9.7002 206.7 10.0002H211.8Z" fill="#AA8420"/>
<path d="M207.4 10.3999C207.4 10.3999 208 10.7999 209.3 10.7999C210.6 10.7999 211.3 10.3999 211.3 10.3999H207.4Z" fill="#AA8420"/>
<path d="M207.3 11.2001C207.3 11.2001 208.1 11.2001 208.5 11.6001C208.9 12.0001 209.3 12.6001 209.3 12.6001C209.3 12.6001 209.6 12.0001 210 11.7001C210.4 11.4001 211.1 11.2001 211.1 11.2001H218.8L220.3 13.4001H213.4C213.4 13.4001 212.9 13.4001 212.2 13.8001C211.8 14.0001 211.5 14.4001 211.5 14.4001C211.5 14.4001 211.5 14.6001 211.4 14.7001C211.4 14.8001 211.3 14.9001 211.2 14.9001H207.6C207.6 14.9001 207.5 14.9001 207.4 14.7001C207.4 14.6001 207.4 14.7001 207.3 14.5001C207.3 14.4001 207.1 14.1001 206.5 13.8001C205.9 13.4001 205.4 13.4001 205.4 13.4001H198.4L199.9 11.1001H207.5L207.3 11.2001Z" fill="#003477"/>
<path d="M201.8 14.3999V25.8999C201.8 25.8999 201.8 26.8999 202.7 28.2999C203.5 29.6999 204.8 30.2999 204.8 30.2999L205.8 28.7999C205.8 28.7999 204.9 28.2999 204.3 27.2999C203.7 26.2999 203.7 25.4999 203.7 25.4999V14.3999H201.9H201.8Z" fill="#003477"/>
<path d="M214.8 14.3999V25.4999C214.8 25.4999 214.7 26.5999 214.1 27.3999C213.6 28.1999 212.7 28.8999 212.7 28.8999L213.6 30.3999C213.6 30.3999 215 29.3999 215.7 28.2999C216.4 27.1999 216.5 25.5999 216.5 25.5999V14.4999H214.7L214.8 14.3999Z" fill="#003477"/>
<path d="M198.9 14.3998V25.8998C198.9 25.8998 199 27.6998 200.1 29.4998C201.2 31.3998 203.2 32.6998 203.2 32.6998L204.2 31.1998C204.2 31.1998 202.9 30.4998 201.9 28.8998C200.8 27.2998 200.8 25.7998 200.8 25.7998V14.2998H198.9V14.3998Z" fill="#003477"/>
<path d="M207.2 15.6001V27.8001C207.2 27.8001 207.2 27.8001 207.2 28.0001C207.2 28.2001 207.1 28.3001 207.1 28.3001L203 35.0001H215.5L211.4 28.1001V27.8001C211.3 27.8001 211.2 27.5001 211.2 27.5001V15.6001H209.7V28.0001C209.7 28.0001 209.7 28.2001 209.7 28.3001C209.7 28.4001 209.8 28.7001 209.8 28.7001L212.3 32.8001H205.9L208.4 28.7001C208.4 28.7001 208.4 28.6001 208.5 28.4001C208.5 28.2001 208.5 28.0001 208.5 28.0001V15.6001H207H207.2Z" fill="#AA8420"/>
<path d="M217.6 14.3999V25.6999C217.6 25.6999 217.6 27.0999 216.5 28.7999C215.4 30.4999 214.2 31.1999 214.2 31.1999L215.1 32.6999C215.1 32.6999 217 31.4999 218.1 29.6999C219.3 27.7999 219.4 25.6999 219.4 25.6999V14.3999H217.5H217.6Z" fill="#003477"/>
<path d="M204.3 6.8001C204.3 6.8001 203.7 3.4001 206.2 1.7001C206.2 1.7001 207.3 0.600098 209.2 0.600098C211.1 0.600098 212.3 1.6001 212.3 1.6001C215 3.6001 214.2 6.7001 214.2 6.7001H204.3V6.8001Z" fill="#AA8420"/>
<path d="M4.2002 36.2002V36.9002H0.200195V36.2002H1.8002V30.8002L0.300195 31.7002V30.9002L2.1002 29.7002H2.6002V36.1002H4.2002V36.2002Z" fill="#AA8420"/>
<path d="M10.3996 36.1998V36.8998H5.79961V36.2998L8.29961 33.4998C8.59961 33.0998 8.89961 32.7998 8.99961 32.4998C9.09961 32.1998 9.19961 31.8998 9.19961 31.5998C9.19961 31.2998 9.09961 30.8998 8.89961 30.6998C8.69961 30.4998 8.39961 30.3998 7.89961 30.3998C7.19961 30.3998 6.49961 30.6998 5.89961 31.1998L5.59961 30.5998C5.89961 30.2998 6.19961 30.0998 6.69961 29.9998C7.09961 29.7998 7.59961 29.7998 7.99961 29.7998C8.69961 29.7998 9.19961 29.9998 9.59961 30.2998C9.99961 30.5998 10.1996 31.0998 10.1996 31.6998C10.1996 32.2998 10.1996 32.4998 9.89961 32.8998C9.69961 33.2998 9.39961 33.6998 8.99961 34.1998L6.99961 36.3998H10.4996L10.3996 36.1998Z" fill="#AA8420"/>
<path d="M391.6 32.5998C391.9 32.7998 392.2 32.9998 392.4 33.3998C392.6 33.7998 392.7 34.0998 392.7 34.5998C392.7 35.0998 392.6 35.3998 392.4 35.7998C392.2 36.1998 391.9 36.3998 391.6 36.5998C391.2 36.7998 390.8 36.8998 390.3 36.8998C389.8 36.8998 389.4 36.8998 389 36.6998C388.6 36.4998 388.2 36.2998 387.9 36.0998L388.2 35.4998C388.9 35.9998 389.5 36.2998 390.2 36.2998C390.9 36.2998 391.1 36.1998 391.4 35.8998C391.7 35.5998 391.8 35.1998 391.8 34.6998C391.8 34.1998 391.7 33.7998 391.4 33.5998C391.1 33.2998 390.7 33.1998 390.3 33.1998C389.6 33.1998 389.1 33.4998 388.7 33.9998H388.1V29.7998H392.4V30.4998H389V32.9998C389.4 32.5998 389.9 32.3998 390.5 32.3998C391.1 32.3998 391.3 32.3998 391.7 32.6998L391.6 32.5998Z" fill="#AA8420"/>
<path d="M394.3 35.9001C393.9 35.3001 393.7 34.4001 393.7 33.2001C393.7 32.0001 393.9 31.1001 394.3 30.5001C394.7 29.9001 395.3 29.6001 396.2 29.6001C397.1 29.6001 397.6 29.9001 398.1 30.5001C398.5 31.1001 398.7 32.0001 398.7 33.2001C398.7 34.4001 398.5 35.3001 398.1 35.9001C397.7 36.5001 397.1 36.8001 396.2 36.8001C395.3 36.8001 394.8 36.5001 394.3 35.9001ZM397.4 35.4001C397.7 34.9001 397.8 34.2001 397.8 33.2001C397.8 32.2001 397.7 31.4001 397.4 31.0001C397.1 30.5001 396.7 30.3001 396.1 30.3001C395.5 30.3001 395.1 30.5001 394.9 31.0001C394.6 31.5001 394.5 32.2001 394.5 33.2001C394.5 34.2001 394.6 35.0001 394.9 35.4001C395.2 35.9001 395.6 36.1001 396.1 36.1001C396.6 36.1001 397.1 35.9001 397.3 35.4001H397.4Z" fill="#AA8420"/>
<path d="M16.0996 18.4005C15.3996 18.7005 14.5996 18.9005 13.7996 19.0005V20.7005H15.8996V21.4005H13.7996V23.4005C14.5996 23.2005 15.3996 22.9005 15.9996 22.7005V23.5005C14.9996 23.9005 13.8996 24.2005 12.7996 24.5005L12.5996 23.8005C12.7996 23.8005 12.8996 23.8005 12.9996 23.8005V18.6005C13.9996 18.5005 14.8996 18.3005 15.6996 18.0005L16.0996 18.6005V18.4005ZM19.3996 23.2005C19.3996 23.4005 19.3996 23.6005 19.1996 23.7005C18.9996 23.8005 18.8996 23.9005 18.7996 23.9005C18.5996 23.9005 18.3996 23.9005 18.0996 23.9005C17.7996 23.9005 17.6996 23.9005 17.5996 23.9005L17.2996 23.1005C17.4996 23.1005 17.7996 23.1005 18.3996 23.1005C18.9996 23.1005 18.5996 23.1005 18.5996 22.9005V18.7005H16.9996V24.7005H16.2996V18.0005H19.3996V23.1005V23.2005Z" fill="black"/>
<path d="M24.8992 20.1003H21.7992V21.2003C21.7992 22.7003 21.5992 24.0003 21.2992 24.9003L20.6992 24.5003C20.9992 23.7003 21.0992 22.8003 21.0992 21.7003V18.0003H24.8992V20.1003ZM24.1992 19.4003V18.6003H21.7992V19.4003H24.1992ZM24.8992 23.7003C24.8992 23.9003 24.8992 24.1003 24.6992 24.1003C24.4992 24.1003 24.3992 24.2003 24.0992 24.1003L23.8992 23.5003C23.8992 23.5003 23.8992 23.5003 23.9992 23.5003C24.1992 23.5003 24.1992 23.5003 24.1992 23.3003V21.7003H23.6992V24.6003H23.0992V21.7003H22.6992V24.1003H22.0992V21.0003H23.1992V20.3003H23.7992V21.0003H24.8992V23.5003V23.7003ZM26.0992 23.3003H25.3992V18.3003H26.0992V23.3003ZM27.3992 24.1003C27.3992 24.4003 27.3992 24.6003 27.1992 24.7003C26.9992 24.7003 26.7992 24.8003 26.3992 24.8003C25.9992 24.8003 25.9992 24.8003 25.8992 24.8003L25.6992 24.1003C25.8992 24.1003 26.0992 24.1003 26.2992 24.1003C26.4992 24.1003 26.5992 24.1003 26.6992 24.1003C26.6992 24.1003 26.6992 24.1003 26.6992 23.9003V17.8003H27.3992V24.1003Z" fill="black"/>
<path d="M20.5996 31.4H14.6996V31.1H17.4996C17.4996 30.9 17.2996 30.8 17.1996 30.7L17.4996 30.5C17.5996 30.7 17.6996 30.9 17.7996 31.1H20.4996V31.4H20.5996ZM20.5996 35.9C20.5996 36.2 20.5996 36.4 20.3996 36.5C20.2996 36.6 20.0996 36.7 19.9996 36.7H17.6996C17.4996 36.7 17.3996 36.7 17.2996 36.5C17.1996 36.4 17.0996 36.2 17.0996 36V35.8L14.5996 36V35.7L17.0996 35.5V35.1L14.9996 35.3V35L17.0996 34.8V34.4C16.5996 34.4 16.0996 34.4 15.4996 34.4V34.1C16.8996 34.1 18.2996 34.1 19.2996 33.8L19.4996 34.1C18.8996 34.2 18.1996 34.3 17.3996 34.4V34.8L19.9996 34.6V34.9L17.3996 35.1V35.5L20.3996 35.3V35.6L17.3996 35.8V36.1C17.3996 36.1 17.3996 36.2 17.3996 36.3C17.3996 36.3 17.4996 36.3 17.5996 36.3H19.6996C19.9996 36.3 20.0996 36.1 20.0996 35.7H20.3996L20.5996 35.9ZM20.4996 34.3H20.0996V33.6H15.0996V34.3H14.6996V33.3H20.4996V34.3ZM19.8996 32.9H15.1996V31.9H19.8996V32.9ZM19.5996 32.6V32.2H15.6996V32.6H19.5996Z" fill="#AA8420" stroke="#AA8420" stroke-width="0.1" stroke-miterlimit="10"/>
<path d="M23.7 34.3001C23.3 35.1001 22.6 35.8001 21.8 36.4001L21.5 36.1001C22.3 35.5001 22.9 34.9001 23.3 34.1001L23.6 34.3001H23.7ZM27.6 33.5001H24.8V36.8001H24.4V33.5001H21.6V33.1001H24.4V30.6001H24.8V33.1001H27.6V33.5001ZM23.3 32.5001L23 32.7001C22.8 32.3001 22.5 31.8001 22.1 31.3001L22.4 31.1001C22.8 31.6001 23.1 32.0001 23.3 32.5001ZM27.6 36.1001L27.3 36.4001C26.9 35.7001 26.3 35.0001 25.5 34.4001L25.8 34.2001C26.4 34.7001 27 35.4001 27.6 36.2001V36.1001ZM27 31.1001C26.7 31.7001 26.4 32.2001 26.1 32.6001L25.7 32.4001C26 32.1001 26.3 31.6001 26.6 30.9001L26.9 31.1001H27Z" fill="#AA8420" stroke="#AA8420" stroke-width="0.1" stroke-miterlimit="10"/>
<path d="M388.7 22.8001C388.6 23.5001 388.4 24.2001 388.2 24.7001L387.6 24.5001C387.8 23.9001 388 23.3001 388.1 22.7001H388.7V22.8001ZM390.6 19.2001C390 20.3001 389.4 21.1001 388.8 21.8001C389 21.8001 389.3 21.7001 389.7 21.6001C389.7 21.5001 389.7 21.3001 389.5 21.2001L390 21.0001C390.2 21.4001 390.4 21.9001 390.5 22.3001L390 22.5001C390 22.3001 390 22.2001 390 22.1001C389.4 22.3001 388.8 22.4001 388 22.5001V21.9001C388.3 21.5001 388.8 21.0001 389.2 20.3001C388.9 20.3001 388.5 20.4001 388 20.5001V20.0001C388.4 19.4001 388.9 18.6001 389.3 17.6001L389.9 17.8001C389.6 18.5001 389.2 19.1001 388.8 19.8001C389.1 19.8001 389.4 19.8001 389.6 19.7001C389.8 19.5001 389.9 19.2001 390.1 18.9001L390.7 19.1001L390.6 19.2001ZM389.8 24.4001H389.2C389.2 24.0001 389.2 23.4001 389 22.8001H389.6C389.7 23.3001 389.8 23.8001 389.8 24.4001ZM390.7 23.4001L390.2 23.6001C390.2 23.3001 390 23.0001 389.9 22.7001L390.4 22.5001C390.5 22.8001 390.6 23.1001 390.7 23.4001ZM392.1 21.5001C392.1 22.5001 391.7 23.5001 390.7 24.5001L390.2 24.1001C390.9 23.5001 391.3 22.9001 391.5 22.2001H390.7V21.6001H392.2L392.1 21.5001ZM394.8 23.9001L394.3 24.5001C393.8 24.1001 393.4 23.6001 392.9 22.8001V24.0001C392.9 24.2001 392.9 24.4001 392.6 24.5001C392.4 24.6001 392 24.7001 391.5 24.7001L391.3 24.0001C391.7 24.0001 391.9 24.0001 392 24.0001C392.1 24.0001 392.2 24.0001 392.2 23.9001V21.0001H390.7V18.4001H391.7C391.8 18.2001 392 17.9001 392.1 17.7001L392.8 17.9001C392.8 18.1001 392.6 18.3001 392.5 18.5001H394.3V21.1001H392.9V21.7001C392.9 21.8001 393 22.0001 393.2 22.1001C393.4 21.9001 393.7 21.7001 394 21.3001L394.5 21.7001C394.2 22.0001 393.9 22.3001 393.5 22.6001C393.8 23.0001 394.2 23.4001 394.7 23.9001H394.8ZM393.6 19.4001V18.9001H391.4V19.4001H393.6ZM393.6 20.4001V19.9001H391.4V20.4001H393.6Z" fill="black"/>
<path d="M402.699 24.5002H395.699V23.8002H398.599V17.7002H399.299V20.1002H402.299V20.8002H399.299V23.8002H402.699V24.5002Z" fill="black"/>
<path d="M403.399 30.8001C403.399 31.1001 403.199 31.5001 403.099 31.8001L402.899 32.3001V36.8001H402.599V33.0001C402.399 33.4001 402.199 33.7001 401.999 33.9001L401.699 33.6001C402.299 32.9001 402.699 31.9001 403.099 30.6001H403.399V30.8001ZM407.899 36.3001L407.699 36.6001C407.299 36.4001 406.799 36.0001 406.299 35.5001C406.299 35.7001 406.299 35.8001 406.299 35.9001C406.299 36.2001 406.299 36.4001 406.199 36.5001C406.199 36.6001 405.999 36.7001 405.899 36.8001C405.799 36.8001 405.499 36.8001 405.199 36.8001C404.899 36.8001 404.999 36.8001 404.899 36.8001V36.5001C405.399 36.5001 405.699 36.5001 405.799 36.5001C405.899 36.5001 405.999 36.3001 405.999 36.0001C405.999 35.7001 405.999 35.7001 405.999 35.5001C405.399 35.9001 404.599 36.3001 403.499 36.7001L403.299 36.4001C404.399 36.1001 405.299 35.7001 405.899 35.2001C405.899 35.2001 405.899 35.0001 405.699 34.8001C405.099 35.2001 404.399 35.6001 403.499 35.8001L403.299 35.5001C404.299 35.2001 404.999 34.9001 405.599 34.5001C405.599 34.4001 405.399 34.3001 405.299 34.2001C404.799 34.5001 404.199 34.7001 403.399 34.9001L403.199 34.6001C403.999 34.5001 404.699 34.2001 405.299 33.8001H403.899V32.6001C403.799 32.7001 403.599 32.8001 403.499 32.9001L403.299 32.6001C404.099 32.0001 404.699 31.5001 404.999 30.9001L405.299 31.1001C405.299 31.2001 405.199 31.3001 405.099 31.4001H406.799V31.7001C406.599 31.9001 406.399 32.2001 406.199 32.4001H407.499V33.7001H405.899C405.799 33.8001 405.699 33.9001 405.599 34.0001C405.799 34.3001 405.999 34.5001 406.199 34.9001C406.599 34.7001 406.999 34.4001 407.499 34.0001L407.799 34.2001C407.399 34.5001 406.999 34.8001 406.499 35.1001C406.999 35.7001 407.599 36.1001 408.099 36.4001L407.899 36.3001ZM406.299 31.5001H404.799C404.499 31.8001 404.299 32.0001 403.999 32.2001H405.699C405.999 31.9001 406.199 31.7001 406.299 31.5001ZM405.499 33.3001V32.6001H404.199V33.3001H405.499ZM407.099 33.3001V32.6001H405.799V33.3001H407.099Z" fill="#AA8420" stroke="#AA8420" stroke-width="0.1" stroke-miterlimit="10"/>
<path d="M414.899 33.1001H411.999C411.499 33.5001 410.999 33.7001 410.499 33.9001H411.599C412.299 33.9001 412.699 33.9001 412.699 33.9001C412.999 33.8001 413.199 33.6001 413.599 33.4001L413.899 33.6001C412.699 34.3001 411.599 34.8001 410.399 35.1001C411.599 35.1001 412.799 35.1001 413.899 34.9001C413.699 34.7001 413.599 34.6001 413.399 34.4001L413.699 34.2001C414.199 34.6001 414.599 35.1001 414.899 35.5001L414.599 35.7001C414.399 35.5001 414.299 35.3001 414.199 35.2001C413.499 35.2001 412.799 35.3001 412.099 35.3001V36.3001C412.099 36.5001 412.099 36.6001 411.899 36.7001C411.799 36.7001 411.599 36.8001 411.199 36.8001C410.799 36.8001 410.999 36.8001 410.999 36.8001V36.4001C410.999 36.4001 411.199 36.4001 411.299 36.4001C411.499 36.4001 411.599 36.4001 411.599 36.4001C411.599 36.4001 411.599 36.4001 411.599 36.3001V35.3001C410.999 35.3001 410.199 35.3001 409.199 35.3001V35.0001C410.099 34.8001 410.999 34.5001 411.899 34.1001C411.399 34.1001 410.799 34.1001 410.199 34.1001C409.599 34.1001 409.799 34.1001 409.699 34.1001V33.8001C410.199 33.6001 410.799 33.3001 411.299 33.0001H408.699V32.7001H411.599V32.1001H409.399V31.8001H411.599V31.3001H408.999V31.0001H411.599V30.6001H411.999V31.0001H414.499V31.3001H411.999V31.8001H414.099V32.1001H411.999V32.7001H414.799V33.0001L414.899 33.1001ZM410.899 35.8001C410.499 36.1001 409.899 36.5001 409.099 36.8001L408.899 36.5001C409.599 36.2001 410.199 35.9001 410.699 35.6001L410.999 35.9001L410.899 35.8001ZM414.799 36.5001L414.599 36.8001C414.099 36.4001 413.499 36.1001 412.799 35.8001L412.999 35.5001C413.699 35.8001 414.299 36.1001 414.799 36.5001Z" fill="#AA8420" stroke="#AA8420" stroke-width="0.1" stroke-miterlimit="10"/>
</svg>
