<svg width="270" height="32" viewBox="0 0 270 32" fill="none" xmlns="http://www.w3.org/2000/svg">
<path d="M68.1 6.3999C68.3 6.1999 68.3 5.8999 68.3 5.8999H59.5C59.5 5.8999 59.6 6.2999 59.7 6.3999H68.1Z" fill="#A68238"/>
<path d="M67.5998 7.09995C67.7998 6.89995 67.8998 6.69995 67.8998 6.69995H59.7998C59.7998 6.69995 59.7998 6.89995 60.0998 7.09995H67.5998Z" fill="#A68238"/>
<path d="M67 7.8C67.2 7.7 67.4 7.5 67.4 7.5H60.5C60.5 7.5 60.7 7.7 60.8 7.8H67Z" fill="#A68238"/>
<path d="M66.0996 8.49995C66.2996 8.49995 66.4996 8.19995 66.4996 8.19995H61.0996C61.0996 8.19995 61.0996 8.19995 61.4996 8.49995H66.0996Z" fill="#A68238"/>
<path d="M62.2002 8.8999C62.2002 8.8999 62.8002 9.1999 63.9002 9.1999C65.0002 9.1999 65.7002 8.8999 65.7002 8.8999H62.2002Z" fill="#A68238"/>
<path d="M62.1 9.5999C62.1 9.5999 62.8 9.5999 63.2 9.8999C63.6 10.1999 63.9 10.7999 63.9 10.7999C63.9 10.7999 64.1 10.2999 64.5 9.9999C64.9 9.6999 65.5 9.5999 65.5 9.5999H72.5L73.9 11.5999H67.6C67.6 11.5999 67.2 11.5999 66.5 11.9999C66.2 12.1999 65.9 12.5999 65.9 12.5999C65.9 12.5999 65.9 12.7999 65.8 12.7999C65.8 12.7999 65.7 12.9999 65.6 12.9999H62.3C62.3 12.9999 62.2 12.9999 62.1 12.7999C62 12.5999 62.1 12.7999 62.1 12.5999C62.1 12.5999 61.9 12.2999 61.4 11.8999C60.9 11.5999 60.4 11.4999 60.4 11.4999H54L55.4 9.3999H62.3L62.1 9.5999Z" fill="#003873"/>
<path d="M57.2002 12.5V22.9C57.2002 22.9 57.2002 23.8 58.0002 25.1C58.8002 26.3 59.9002 26.9 59.9002 26.9L60.8002 25.5C60.8002 25.5 60.0002 25 59.5002 24.2C58.9002 23.3 58.9002 22.6 58.9002 22.6V12.6H57.2002V12.5Z" fill="#003873"/>
<path d="M68.9996 12.4999V22.4999C68.9996 22.4999 68.8996 23.4999 68.3996 24.1999C67.8996 24.8999 67.0996 25.4999 67.0996 25.4999L67.8996 26.7999C67.8996 26.7999 69.1996 25.8999 69.7996 24.8999C70.3996 23.8999 70.5996 22.3999 70.5996 22.3999V12.3999H68.8996L68.9996 12.4999Z" fill="#003873"/>
<path d="M54.5 12.4999V22.8999C54.5 22.8999 54.6 24.4999 55.6 26.1999C56.6 27.8999 58.4 29.0999 58.4 29.0999L59.3 27.6999C59.3 27.6999 58.1 27.0999 57.2 25.5999C56.2 24.1999 56.2 22.7999 56.2 22.7999V12.3999H54.5V12.4999Z" fill="#003873"/>
<path d="M62.0998 13.6001V24.6001C62.0998 24.6001 62.0998 24.6001 62.0998 24.8001C62.0998 25.0001 61.9998 25.1001 61.9998 25.1001L58.2998 31.2001H69.5998L65.8998 25.0001V24.7001C65.7998 24.7001 65.6998 24.4001 65.6998 24.4001V13.6001H64.2998V24.8001C64.2998 24.8001 64.2998 25.0001 64.2998 25.1001C64.2998 25.2001 64.3998 25.4001 64.3998 25.4001L66.6998 29.1001H60.9998L63.1998 25.4001C63.1998 25.4001 63.1998 25.3001 63.2998 25.1001C63.2998 24.9001 63.2998 24.8001 63.2998 24.8001V13.6001H61.9998H62.0998Z" fill="#A68238"/>
<path d="M71.5004 12.5V22.7C71.5004 22.7 71.5004 24 70.5004 25.5C69.5004 27 68.4004 27.7 68.4004 27.7L69.2004 29.1C69.2004 29.1 70.9004 28 72.0004 26.3C73.0004 24.6 73.2004 22.7 73.2004 22.7V12.5H71.5004Z" fill="#003873"/>
<path d="M59.3996 5.6001C59.3996 5.6001 58.7996 2.5001 61.0996 1.0001C61.0996 1.0001 62.0996 0.100098 63.7996 0.100098C65.4996 0.100098 66.5996 1.0001 66.5996 1.0001C69.0996 2.8001 68.2996 5.6001 68.2996 5.6001H59.3996Z" fill="#A68238"/>
<path d="M79.9 6.0001C80.3 5.9001 80.5 5.8001 80.7 5.7001V9.7001H81.6V9.3001H86.1V9.7001H87V5.7001C87.1 5.7001 87.3 5.8001 87.4 5.9001C87.6 5.9001 87.7 5.9001 87.8 6.1001L88.2 5.3001C86.9 5.0001 85.9 4.6001 85.1 3.9001H88.1V3.1001H84.2V2.3001C85.4 2.2001 86.5 2.1001 87.3 1.9001L86.9 1.1001C85.6 1.4001 83.8 1.5001 81.3 1.5001C78.8 1.5001 80.4 1.5001 80 1.5001L80.3 2.3001C80.9 2.3001 81.9 2.3001 83.3 2.3001V3.1001H79.5V3.9001H82.4C81.6 4.6001 80.6 5.1001 79.5 5.4001L79.9 6.2001V6.0001ZM86.1 8.5001H81.6V7.7001H86.1V8.5001ZM84.2 3.8001C84.8 4.6001 85.5 5.1001 86.5 5.5001H84.2V3.8001ZM86.1 6.3001V7.0001H81.6V6.3001H86.1ZM83.3 3.8001V5.5001H81.2C82.1 5.1001 82.8 4.6001 83.3 3.8001Z" fill="#003873"/>
<path d="M93.2998 4.59995C92.7998 4.19995 92.3998 3.89995 91.8998 3.69995L91.2998 4.39995C91.6998 4.59995 92.0998 4.99995 92.5998 5.39995L93.1998 4.59995H93.2998Z" fill="#003873"/>
<path d="M93.6002 2.29995V2.79995H94.8002V3.69995H93.4002V4.49995H94.9002C94.6002 5.09995 94.0002 5.59995 93.0002 6.09995L93.5002 6.89995C93.9002 6.59995 94.2002 6.39995 94.3002 6.29995V8.39995C94.3002 8.79995 94.3002 9.09995 94.5002 9.29995C94.7002 9.49995 94.9002 9.49995 95.3002 9.49995H98.3002C98.8002 9.49995 99.1002 9.49995 99.3002 9.29995C99.5002 9.09995 99.6002 8.59995 99.7002 7.79995L98.8002 7.49995C98.8002 7.99995 98.8002 8.29995 98.7002 8.49995C98.7002 8.69995 98.5002 8.79995 98.2002 8.79995H95.4002C95.2002 8.79995 95.1002 8.69995 95.1002 8.49995V7.89995H98.1002V5.99995C98.5002 6.29995 98.9002 6.69995 99.5002 6.99995L99.9002 6.19995C98.9002 5.69995 98.3002 5.19995 98.0002 4.69995H99.8002V3.89995H98.1002V2.89995H99.6002V2.19995H98.1002V1.19995H97.3002V2.19995H95.6002V1.19995H94.8002V2.19995H93.6002C93.2002 1.99995 92.8002 1.69995 92.3002 1.39995L91.7002 2.09995C92.1002 2.39995 92.6002 2.69995 93.1002 3.19995L93.7002 2.49995L93.6002 2.29995ZM95.6002 2.79995H97.3002V3.69995H95.6002V2.79995ZM95.8002 4.49995H97.0002C97.2002 4.79995 97.4002 5.09995 97.6002 5.29995H95.2002C95.4002 5.09995 95.6002 4.79995 95.7002 4.49995H95.8002ZM95.1002 6.09995H97.2002V6.99995H95.1002V6.09995Z" fill="#003873"/>
<path d="M93.1998 6.8999L92.3998 6.3999C92.1998 7.2999 91.7998 8.0999 91.2998 8.8999L91.9998 9.6999C92.4998 8.8999 92.8998 7.8999 93.1998 6.8999Z" fill="#003873"/>
<path d="M107 7.7L110.1 7.2V9.7H111V7.1H111.8V6.1H111C111 6.2 111 1 111 1H110.1V6.3L107 6.8V7.7Z" fill="#003873"/>
<path d="M109.8 2.79995C109.1 2.29995 108.5 1.89995 108.1 1.69995L107.5 2.29995C107.9 2.59995 108.5 2.99995 109.2 3.49995L109.8 2.79995Z" fill="#003873"/>
<path d="M103.6 8.0001C104.2 7.2001 104.6 6.5001 104.9 5.9001V9.7001H105.7V5.4001C105.9 5.6001 106 5.8001 106.2 6.0001C106.4 6.2001 106.6 6.4001 106.8 6.7001L107.3 5.9001C107 5.5001 106.4 5.0001 105.7 4.4001H107.1V3.6001H105.7V2.3001C106.2 2.3001 106.7 2.1001 107.1 1.9001L106.8 1.1001C105.8 1.5001 104.6 1.7001 103.2 1.8001L103.4 2.6001C104 2.6001 104.5 2.6001 104.8 2.4001V3.6001H103.1V4.4001H104.8C104.4 5.4001 103.8 6.4001 103 7.3001L103.5 8.1001L103.6 8.0001Z" fill="#003873"/>
<path d="M109.6 5.1C108.9 4.6 108.4 4.2 107.9 4L107.4 4.6C107.9 4.9 108.4 5.3 109.1 5.8L109.7 5.1H109.6Z" fill="#003873"/>
<path d="M123.2 9.7L123.7 8.8C122.9 8.6 122.2 8.2 121.6 7.7C121.9 7.4 122.3 7 122.6 6.4C122.9 5.9 123.1 5.4 123.2 5.1V4.3H121.3V3.1H123.5V2.3H121.3V1H120.4V2.3H118.4V2.9H117.3V1H116.4V2.9H115V3.7H116.4V5.6C116 5.7 115.5 5.8 114.9 5.9L115.1 6.9C115.4 6.9 115.8 6.7 116.3 6.6V8.5C116.3 8.7 116.2 8.8 116 8.8H115.2L115.4 9.7H116.1C116.6 9.7 116.9 9.7 117 9.5C117.1 9.4 117.2 9.1 117.2 8.6V6.3C117.7 6.1 118.1 6 118.3 5.9V5C118.1 5.1 117.7 5.2 117.2 5.4V3.8H118.3V3.2H120.3V4.4H118.5V5.3H122.2C121.9 6.1 121.5 6.7 120.9 7.2C120.5 6.8 120 6.2 119.6 5.4L118.8 5.7C119.3 6.5 119.7 7.2 120.2 7.7C119.3 8.3 118.4 8.7 117.5 8.9L118 9.7C118.9 9.5 119.8 9 120.8 8.3C121.5 9 122.3 9.4 123.1 9.7H123.2Z" fill="#003873"/>
<path d="M126.8 8.8L127.5 9.7C129.6 8.3 130.8 6.5 131.2 4.3H131.4C132 6.8 133.2 8.6 134.8 9.7L135.5 8.9C134.6 8.3 133.9 7.6 133.3 6.7C132.8 5.9 132.4 5.1 132.3 4.3H135.3V3.3H131.4C131.4 2.8 131.4 2 131.4 1H130.4C130.4 2 130.4 2.8 130.3 3.3H126.9V4.3H130.1C129.9 5.2 129.6 6 128.9 6.8C128.3 7.6 127.5 8.3 126.6 8.8H126.8Z" fill="#003873"/>
<path d="M141.6 2.3L142.1 2.9C142.5 2.7 142.9 2.5 143.2 2.3C143.2 2.3 143.4 2.5 143.7 2.8L144.3 2.4C144.1 2.2 143.9 2 143.8 1.9C144 1.8 144.2 1.6 144.4 1.4L143.9 1C143.8 1.2 143.6 1.3 143.3 1.5C143.1 1.3 142.8 1.1 142.6 1L142.1 1.4C142.4 1.6 142.6 1.7 142.7 1.8C142.5 1.9 142.2 2 141.7 2.2L141.6 2.3Z" fill="#003873"/>
<path d="M143.9 2.80005C143.7 3.10005 143.5 3.30005 143.3 3.40005C143.2 3.30005 143 3.20005 142.9 3.10005C142.8 3.10005 142.7 3.00005 142.6 2.90005L142.1 3.30005C142.4 3.50005 142.6 3.70005 142.7 3.70005C142.5 3.80005 142.2 3.90005 141.7 4.00005L142.1 4.60005C142.5 4.40005 142.9 4.30005 143.2 4.10005C143.2 4.10005 143.4 4.30005 143.7 4.60005L144.3 4.20005C144.1 4.00005 143.9 3.90005 143.8 3.70005C144 3.60005 144.2 3.40005 144.4 3.20005L143.9 2.80005Z" fill="#003873"/>
<path d="M139.7 5.7H146.4V7.1H147.2V5H146.7V1.3H144.5V2H146V2.5H144.6V3.1H145.9V3.6H144.6V4.2H145.9V4.8H140.1V4.2H141.5V3.6H140.1V3.1H141.5V2.5H140.1V2C140.8 2 141.4 1.9 141.7 1.7L141.3 1C140.7 1.1 140.1 1.2 139.3 1.3V4.9C139.4 4.9 138.9 4.9 138.9 4.9V7H139.7V5.6V5.7Z" fill="#003873"/>
<path d="M142.7 8.7C142.7 8.9 142.7 9 142.4 9H141.1L141.3 9.7H142.7C143.3 9.7 143.5 9.4 143.5 8.7V8.3H147.3V7.5H143.5C144.3 7.3 145 7 145.5 6.7V6H140.3V6.7H144.2C143.6 6.9 143 7 142.6 7.1V7.5H138.6V8.3H142.6V8.7H142.7Z" fill="#003873"/>
<path d="M81.2996 20.1H82.0996V14.1H83.6996V13.3H79.5996V14.1H81.1996V20.1H81.2996Z" fill="#003873"/>
<path d="M85.3 16.8999H88.5V20.1999H89.3V13.3999H88.5V16.0999H85.3V13.3999H84.5V20.1999H85.3V16.8999Z" fill="#003873"/>
<path d="M94.4002 19.4H91.6002V16.8H94.3002V16H91.6002V14.1H94.4002V13.3H90.7002V20.1H94.4002V19.3V19.4Z" fill="#003873"/>
<path d="M99.0002 16.8999H102.2V20.1999H103V13.3999H102.2V16.0999H99.0002V13.3999H98.2002V20.1999H99.0002V16.8999Z" fill="#003873"/>
<path d="M107.5 13.2C105.6 13.2 103.9 14.8 103.9 16.8C103.9 18.8 105.5 20.3 107.5 20.3C109.5 20.3 111.1 18.8 111.1 16.8C111.1 14.8 109.5 13.2 107.5 13.2ZM107.5 19.5C106 19.5 104.8 18.3 104.8 16.7C104.8 15.1 105.9 13.9 107.5 13.9C109.1 13.9 110.2 15.2 110.2 16.7C110.2 18.2 109 19.5 107.5 19.5Z" fill="#003873"/>
<path d="M117 18.4L111.9 13V20.1H112.7V15L117.8 20.3V13.2H117V18.2V18.4Z" fill="#003873"/>
<path d="M122.6 17.5001H124.4C124.4 18.6001 123.2 19.5001 122.2 19.5001C121.2 19.5001 119.6 18.2001 119.6 16.7001C119.6 15.2001 120.8 13.9001 122.3 13.9001C123.8 13.9001 124 14.3001 124.4 15.0001L125 14.4001C124.3 13.6001 123.3 13.1001 122.2 13.1001C120.2 13.1001 118.7 14.7001 118.7 16.7001C118.7 18.7001 120.2 20.2001 122.1 20.2001C124 20.2001 125.3 18.8001 125.3 16.9001V16.6001H122.6V17.4001V17.5001Z" fill="#003873"/>
<path d="M128.9 13.3V20.1H129.8V17.3L130.1 17L132.7 20.2H133.8L130.7 16.4L133.8 13.4H132.7L129.8 16.4V13.4H128.9V13.3Z" fill="#003873"/>
<path d="M137.5 13.2C135.6 13.2 133.9 14.8 133.9 16.8C133.9 18.8 135.5 20.3 137.5 20.3C139.5 20.3 141.1 18.8 141.1 16.8C141.1 14.8 139.5 13.2 137.5 13.2ZM137.5 19.5C136 19.5 134.8 18.3 134.8 16.7C134.8 15.1 135.9 13.9 137.5 13.9C139.1 13.9 140.2 15.2 140.2 16.7C140.2 18.2 139 19.5 137.5 19.5Z" fill="#003873"/>
<path d="M147 18.4L141.9 13V20.1H142.7V15L147.8 20.3V13.2H147V18.2V18.4Z" fill="#003873"/>
<path d="M152.7 17.5001H154.5C154.5 18.6001 153.3 19.5001 152.3 19.5001C151.3 19.5001 149.7 18.2001 149.7 16.7001C149.7 15.2001 150.9 13.9001 152.4 13.9001C153.9 13.9001 154.1 14.3001 154.5 15.0001L155.1 14.4001C154.4 13.6001 153.4 13.1001 152.3 13.1001C150.3 13.1001 148.8 14.7001 148.8 16.7001C148.8 18.7001 150.3 20.2001 152.2 20.2001C154.1 20.2001 155.4 18.8001 155.4 16.9001V16.6001H152.7V17.4001V17.5001Z" fill="#003873"/>
<path d="M163.9 17.6V13.3H163.1V17.3C163.1 18.4 162.8 19.4 161.5 19.4C160.2 19.4 159.9 18.4 159.9 17.3V13.3H159V17.6C159 19.1 159.9 20.2 161.5 20.2C163.1 20.2 164 19.1 164 17.6H163.9Z" fill="#003873"/>
<path d="M165.9 15.0999L171 20.3999V13.2999H170.2V18.2999L165.1 12.8999V19.9999H166V14.8999L165.9 15.0999Z" fill="#003873"/>
<path d="M173.1 13.3H172.3V20.1H173.1V13.3Z" fill="#003873"/>
<path d="M178.8 13.3L176.8 18.3L174.8 13.3H173.9L176.9 20.5L179.9 13.3H179H178.8Z" fill="#003873"/>
<path d="M184 19.4H181.2V16.8H183.9V16H181.2V14.1H184V13.3H180.3V20.1H184V19.3V19.4Z" fill="#003873"/>
<path d="M186 17.2999H186.4L188.4 20.1999H189.4L187.2 17.1999C188.2 17.0999 188.8 16.2999 188.8 15.2999C188.8 14.2999 188.5 13.9999 187.9 13.6999C187.4 13.3999 186.7 13.3999 186.1 13.3999H185.1V20.1999H186V17.2999ZM186 14.0999H186.2C187 14.0999 188.1 14.2999 188.1 15.2999C188.1 16.2999 187.2 16.4999 186.3 16.4999H186V13.9999V14.0999Z" fill="#003873"/>
<path d="M191.9 19.5C191.2 19.5 190.6 19 190.6 18.2L189.7 18.4C189.8 19.5 190.7 20.3 191.8 20.3C192.9 20.3 194 19.4 194 18.2C194 17 193.3 16.5 192.3 16.2L191.8 16C191.4 15.8 190.9 15.6 190.9 15C190.9 14.4 191.5 14 192 14C192.5 14 192.8 14.2 193.1 14.6L193.8 14.2C193.4 13.5 192.8 13.2 192 13.2C191.2 13.2 190 13.9 190 15C190 16.1 190.7 16.4 191.5 16.7L192 16.9C192.6 17.1 193.2 17.5 193.2 18.2C193.2 18.9 192.7 19.5 191.9 19.5Z" fill="#003873"/>
<path d="M195.9 13.3H195.1V20.1H195.9V13.3Z" fill="#003873"/>
<path d="M196.6 14.1H198.2V20.1H199V14.1H200.6V13.3H196.5V14.1H196.6Z" fill="#003873"/>
<path d="M203.4 16.2L201.7 13.3H200.7L202.9 17.1V20.1H203.7V17.1L205.9 13.3H204.9L203.2 16.2H203.4Z" fill="#003873"/>
<path d="M212.5 13.2C210.5 13.2 208.9 14.8 208.9 16.8C208.9 18.8 210.5 20.3 212.5 20.3C214.5 20.3 216.1 18.8 216.1 16.8C216.1 14.8 214.5 13.2 212.5 13.2ZM212.5 19.5C211 19.5 209.8 18.3 209.8 16.7C209.8 15.1 210.9 13.9 212.5 13.9C214.1 13.9 215.2 15.2 215.2 16.7C215.2 18.2 214 19.5 212.5 19.5Z" fill="#003873"/>
<path d="M220.2 14.1V13.3H216.9V20.1H217.8V16.8H220.2V16H217.8V14.1H220.2Z" fill="#003873"/>
<path d="M82.5004 26.8999L82.0004 26.6999C81.6004 26.4999 81.0004 26.2999 81.0004 25.6999C81.0004 25.0999 81.6004 24.6999 82.1004 24.6999C82.6004 24.6999 82.9004 24.8999 83.2004 25.2999L83.9004 24.8999C83.5004 24.1999 82.9004 23.8999 82.1004 23.8999C81.3004 23.8999 80.1004 24.5999 80.1004 25.6999C80.1004 26.7999 80.8004 27.0999 81.6004 27.3999L82.1004 27.5999C82.7004 27.7999 83.3004 28.1999 83.3004 28.8999C83.3004 29.5999 82.8004 30.1999 82.1004 30.1999C81.4004 30.1999 80.8004 29.6999 80.8004 28.8999L79.9004 29.0999C80.0004 30.1999 80.9004 30.9999 82.0004 30.9999C83.1004 30.9999 84.2004 30.0999 84.2004 28.8999C84.2004 27.6999 83.5004 27.1999 82.5004 26.8999Z" fill="#003873"/>
<path d="M84.9004 27.5999C84.9004 29.5999 86.5004 31.0999 88.4004 31.0999C90.3004 31.0999 89.7004 30.8999 90.2004 30.5999V29.5999C89.7004 30.0999 89.0004 30.2999 88.4004 30.2999C86.9004 30.2999 85.7004 28.9999 85.7004 27.4999C85.7004 25.9999 86.9004 24.6999 88.4004 24.6999C89.9004 24.6999 89.7004 24.8999 90.2004 25.3999V24.3999C89.7004 24.0999 89.1004 23.8999 88.5004 23.8999C86.5004 23.8999 84.9004 25.4999 84.9004 27.4999V27.5999Z" fill="#003873"/>
<path d="M92.1002 24.2H91.2002V31H92.1002V24.2Z" fill="#003873"/>
<path d="M93.5 31.0001H97.2V30.2001H94.4V27.6001H97.1V26.8001H94.4V24.9001H97.2V24.1001H93.5V30.9001V31.0001Z" fill="#003873"/>
<path d="M103.3 29.2001L98.2002 23.8V30.9H99.0002V25.8L104.1 31.2001V24.1H103.3V29.1V29.2001Z" fill="#003873"/>
<path d="M105.1 27.5999C105.1 29.5999 106.7 31.0999 108.6 31.0999C110.5 31.0999 109.9 30.8999 110.4 30.5999V29.5999C109.9 30.0999 109.2 30.2999 108.6 30.2999C107.1 30.2999 105.9 28.9999 105.9 27.4999C105.9 25.9999 107.1 24.6999 108.6 24.6999C110.1 24.6999 109.9 24.8999 110.4 25.3999V24.3999C109.9 24.0999 109.3 23.8999 108.7 23.8999C106.7 23.8999 105.1 25.4999 105.1 27.4999V27.5999Z" fill="#003873"/>
<path d="M111.5 31.0001H115.2V30.2001H112.4V27.6001H115.1V26.8001H112.4V24.9001H115.2V24.1001H111.5V30.9001V31.0001Z" fill="#003873"/>
<path d="M118.3 30.9999H119.2L120 29.2999H123.1L123.9 30.9999H124.8L121.6 23.8999L118.4 30.9999H118.3ZM120.3 28.4999L121.5 25.6999L122.7 28.4999H120.3Z" fill="#003873"/>
<path d="M130.5 29.2001L125.4 23.8V30.9H126.2V25.8L131.3 31.2001V24.1H130.5V29.1V29.2001Z" fill="#003873"/>
<path d="M133.9 24.2H132.5V31H133.9C136.1 31 137.7 29.9 137.7 27.6C137.7 25.3 136 24.2 133.9 24.2ZM133.7 30.2H133.4V25H133.7C135.4 25 136.9 25.6 136.9 27.6C136.9 29.6 135.4 30.2 133.7 30.2Z" fill="#003873"/>
<path d="M140.8 24.9001H142.4V30.9001H143.2V24.9001H144.8V24.1001H140.7V24.9001H140.8Z" fill="#003873"/>
<path d="M145.6 31.0001H149.2V30.2001H146.4V27.6001H149.1V26.8001H146.4V24.9001H149.2V24.1001H145.6V30.9001V31.0001Z" fill="#003873"/>
<path d="M150 27.5999C150 29.5999 151.6 31.0999 153.6 31.0999C155.6 31.0999 154.9 30.8999 155.4 30.5999V29.5999C154.9 30.0999 154.2 30.2999 153.6 30.2999C152.1 30.2999 150.9 28.9999 150.9 27.4999C150.9 25.9999 152.1 24.6999 153.6 24.6999C155.1 24.6999 154.9 24.8999 155.4 25.3999V24.3999C154.9 24.0999 154.3 23.8999 153.7 23.8999C151.7 23.8999 150.1 25.4999 150.1 27.4999L150 27.5999Z" fill="#003873"/>
<path d="M160.5 26.9H157.3V24.2H156.5V31H157.3V27.7H160.5V31H161.4V24.2H160.5V26.9Z" fill="#003873"/>
<path d="M167.6 29.2001L162.5 23.8V30.9H163.4V25.8L168.5 31.2001V24.1H167.7V29.1L167.6 29.2001Z" fill="#003873"/>
<path d="M172.9 24C171 24 169.3 25.6 169.3 27.5C169.3 29.4 170.9 31.1 172.9 31.1C174.9 31.1 176.5 29.6 176.5 27.5C176.5 25.4 174.9 24 172.9 24ZM172.9 30.3C171.4 30.3 170.2 29.1 170.2 27.5C170.2 25.9 171.3 24.7 172.9 24.7C174.5 24.7 175.6 25.9 175.6 27.5C175.6 29.1 174.4 30.3 172.9 30.3Z" fill="#003873"/>
<path d="M178.2 24.2H177.3V31H180.2V30.2H178.1V24.2H178.2Z" fill="#003873"/>
<path d="M184 24C182.1 24 180.4 25.6 180.4 27.5C180.4 29.4 182 31.1 184 31.1C186 31.1 187.6 29.6 187.6 27.5C187.6 25.4 186 24 184 24ZM184 30.3C182.5 30.3 181.3 29.1 181.3 27.5C181.3 25.9 182.4 24.7 184 24.7C185.6 24.7 186.7 25.9 186.7 27.5C186.7 29.1 185.5 30.3 184 30.3Z" fill="#003873"/>
<path d="M192 28.2999H193.8C193.8 29.3999 192.6 30.2999 191.6 30.2999C190.6 30.2999 189 28.8999 189 27.4999C189 26.0999 190.2 24.6999 191.7 24.6999C193.2 24.6999 193.3 25.0999 193.8 25.7999L194.4 25.1999C193.7 24.3999 192.7 23.8999 191.6 23.8999C189.6 23.8999 188.1 25.4999 188.1 27.4999C188.1 29.4999 189.6 30.9999 191.5 30.9999C193.4 30.9999 194.7 29.5999 194.7 27.6999V27.3999H192V28.1999V28.2999Z" fill="#003873"/>
<path d="M197.6 27.1L195.9 24.2H194.9L197.1 28V31H197.9V28L200.1 24.2H199.1L197.4 27.1H197.6Z" fill="#003873"/>
<path d="M42.8 31.2H35.5V0H42.8V0.2H35.7V30.9H42.8V31.1V31.2Z" fill="#231815"/>
<path d="M233.8 31.2H226.5V31H233.6V0.2H226.5V0H233.8V31.2Z" fill="#231815"/>
<path d="M10.5998 23.7999C10.8998 24.0999 10.9998 24.5 10.9998 24.9C10.9998 25.3 10.7998 25.9999 10.2998 26.2999C9.7998 26.6999 9.1998 26.7999 8.3998 26.7999C7.5998 26.7999 6.9998 26.5999 6.4998 26.2999C5.9998 25.9999 5.7998 25.5 5.7998 24.9C5.7998 24.3 5.8998 24.0999 6.1998 23.7999C6.4998 23.4999 6.7998 23.3 7.2998 23.2C6.8998 23.1 6.4998 22.9 6.2998 22.6C6.0998 22.3 5.9998 22 5.9998 21.6C5.9998 21.2 6.0998 20.9 6.2998 20.6C6.4998 20.3 6.7998 20.1 7.0998 19.9C7.3998 19.7 7.8998 19.7 8.3998 19.7C8.8998 19.7 9.2998 19.7 9.5998 19.9C9.9998 20.1 10.2998 20.3 10.3998 20.6C10.5998 20.9 10.6998 21.2 10.6998 21.6C10.6998 22 10.5998 22.3 10.2998 22.6C10.0998 22.9 9.6998 23.1 9.2998 23.2C9.7998 23.3 10.0998 23.5 10.3998 23.9L10.5998 23.7999ZM9.6998 25.9C9.9998 25.7 10.0998 25.3 10.0998 24.9C10.0998 24.5 9.8998 24.2 9.5998 24C9.2998 23.8 8.8998 23.6 8.2998 23.6C7.7998 23.6 7.3998 23.8 6.9998 24C6.6998 24.2 6.4998 24.5 6.4998 24.9C6.4998 25.3 6.6998 25.7 6.9998 25.9C7.2998 26.1 7.6998 26.2 8.2998 26.2C8.8998 26.2 9.2998 26.1 9.5998 25.9H9.6998ZM7.2998 22.5C7.5998 22.7 7.9998 22.9 8.3998 22.9C8.8998 22.9 9.2998 22.7 9.4998 22.5C9.7998 22.3 9.8998 22 9.8998 21.6C9.8998 21.2 9.7998 20.9 9.4998 20.7C9.1998 20.5 8.7998 20.4 8.3998 20.4C7.9998 20.4 7.4998 20.5 7.2998 20.7C6.9998 20.9 6.8998 21.2 6.8998 21.6C6.8998 22 6.9998 22.3 7.2998 22.5Z" fill="#AA8420"/>
<path d="M243.2 25.4H242.1V27H241.3V25.4H238V24.8L241.4 19.8H242.1V24.7001H243.2V25.4ZM241.3 24.7001V21.2001L238.9 24.7001H241.3Z" fill="#AA8420"/>
<path d="M244.7 26C244.3 25.4 244.1 24.4999 244.1 23.2999C244.1 22.0999 244.3 21.2 244.7 20.6C245.1 20 245.7 19.7 246.6 19.7C247.5 19.7 248 20 248.5 20.6C248.9 21.2 249.1 22.0999 249.1 23.2999C249.1 24.4999 248.9 25.4 248.5 26C248.1 26.6 247.5 26.9 246.6 26.9C245.7 26.9 245.2 26.6 244.7 26ZM247.8 25.5C248.1 25 248.2 24.2999 248.2 23.2999C248.2 22.2999 248.1 21.5 247.8 21.1C247.5 20.6 247.1 20.4 246.5 20.4C245.9 20.4 245.5 20.6 245.3 21.1C245 21.6 244.9 22.2999 244.9 23.2999C244.9 24.2999 245 25.1 245.3 25.5C245.6 26 246 26.2 246.5 26.2C247 26.2 247.5 26 247.7 25.5H247.8Z" fill="#AA8420"/>
<path d="M16.0996 8.4C15.3996 8.7 14.5996 8.9 13.7996 9V10.7H15.8996V11.4H13.7996V13.4C14.5996 13.2 15.3996 12.9 15.9996 12.7V13.5C14.9996 13.9 13.8996 14.2 12.7996 14.5L12.5996 13.8C12.7996 13.8 12.8996 13.8 12.9996 13.8V8.6C13.9996 8.5 14.8996 8.3 15.6996 8L16.0996 8.6V8.4ZM19.3996 13.2C19.3996 13.4 19.3996 13.6 19.1996 13.7C18.9996 13.8 18.8996 13.9 18.7996 13.9C18.5996 13.9 18.3996 13.9 18.0996 13.9C17.7996 13.9 17.6996 13.9 17.5996 13.9L17.2996 13.1C17.4996 13.1 17.7996 13.1 18.3996 13.1C18.9996 13.1 18.5996 13.1 18.5996 12.9V8.7H16.9996V14.7H16.2996V8H19.3996V13.1V13.2Z" fill="black"/>
<path d="M24.8992 10.2H21.7992V11.3C21.7992 12.8 21.5992 14.1 21.2992 15L20.6992 14.6C20.9992 13.8 21.0992 12.9 21.0992 11.8V8.10005H24.8992V10.2ZM24.1992 9.50005V8.70005H21.7992V9.50005H24.1992ZM24.8992 13.7C24.8992 13.9 24.8992 14.1 24.6992 14.1C24.4992 14.1 24.3992 14.2 24.0992 14.1L23.8992 13.5C23.8992 13.5 23.8992 13.5 23.9992 13.5C24.1992 13.5 24.1992 13.5 24.1992 13.3V11.7H23.6992V14.6H23.0992V11.7H22.6992V14.1H22.0992V11H23.1992V10.3H23.7992V11H24.8992V13.5V13.7ZM26.0992 13.4H25.3992V8.40005H26.0992V13.4ZM27.3992 14.1C27.3992 14.4 27.3992 14.6 27.1992 14.7C26.9992 14.7 26.7992 14.8 26.3992 14.8C25.9992 14.8 25.9992 14.8 25.8992 14.8L25.6992 14.1C25.8992 14.1 26.0992 14.1 26.2992 14.1C26.4992 14.1 26.5992 14.1 26.6992 14.1C26.6992 14.1 26.6992 14.1 26.6992 13.9V7.80005H27.3992V14.1Z" fill="black"/>
<path d="M20.5996 21.4999H14.6996V21.1999H17.4996C17.4996 20.9999 17.2996 20.8999 17.1996 20.7999L17.4996 20.5999C17.5996 20.7999 17.6996 20.9999 17.7996 21.1999H20.4996V21.4999H20.5996ZM20.5996 25.9999C20.5996 26.2999 20.5996 26.4999 20.3996 26.5999C20.2996 26.6999 20.0996 26.7999 19.9996 26.7999H17.6996C17.4996 26.7999 17.3996 26.7999 17.2996 26.5999C17.1996 26.4999 17.0996 26.2999 17.0996 26.0999V25.8999L14.5996 26.0999V25.7999L17.0996 25.5999V25.1999L14.9996 25.3999V25.0999L17.0996 24.8999V24.4999C16.5996 24.4999 16.0996 24.4999 15.4996 24.4999V24.1999C16.8996 24.1999 18.2996 24.1999 19.2996 23.8999L19.4996 24.1999C18.8996 24.2999 18.1996 24.3999 17.3996 24.4999V24.8999L19.9996 24.6999V24.9999L17.3996 25.1999V25.5999L20.3996 25.3999V25.6999L17.3996 25.8999V26.1999C17.3996 26.1999 17.3996 26.2999 17.3996 26.3999C17.3996 26.3999 17.4996 26.3999 17.5996 26.3999H19.6996C19.9996 26.3999 20.0996 26.1999 20.0996 25.7999H20.3996L20.5996 25.9999ZM20.4996 24.2999H20.0996V23.5999H15.0996V24.2999H14.6996V23.2999H20.4996V24.2999ZM19.8996 22.9999H15.1996V21.9999H19.8996V22.9999ZM19.5996 22.6999V22.2999H15.6996V22.6999H19.5996Z" fill="#AA8420" stroke="#AA8420" stroke-width="0.1" stroke-miterlimit="10"/>
<path d="M23.7 24.4C23.3 25.2 22.6 25.9 21.8 26.5L21.5 26.2C22.3 25.6 22.9 25 23.3 24.2L23.6 24.4H23.7ZM27.6 23.6H24.8V26.9H24.4V23.6H21.6V23.2H24.4V20.7H24.8V23.2H27.6V23.6ZM23.3 22.5L23 22.7C22.8 22.3 22.5 21.7999 22.1 21.2999L22.4 21.1C22.8 21.6 23.1 22 23.3 22.5ZM27.6 26.2L27.3 26.5C26.9 25.8 26.3 25.1 25.5 24.5L25.8 24.2999C26.4 24.7999 27 25.4999 27.6 26.2999V26.2ZM27 21.2C26.7 21.8 26.4 22.3 26.1 22.7L25.7 22.5C26 22.2 26.3 21.7 26.6 21L26.9 21.2H27Z" fill="#AA8420" stroke="#AA8420" stroke-width="0.1" stroke-miterlimit="10"/>
<path d="M239.2 12.9C239.1 13.6 238.9 14.3 238.7 14.8L238.1 14.6C238.3 14 238.5 13.4 238.6 12.8H239.2V12.9ZM241.1 9.29995C240.5 10.4 239.9 11.2 239.3 11.9C239.5 11.9 239.8 11.8 240.2 11.7C240.2 11.6 240.2 11.4 240 11.3L240.5 11.1C240.7 11.5 240.9 12 241 12.4L240.5 12.6C240.5 12.4 240.5 12.3 240.5 12.2C239.9 12.4 239.3 12.5 238.5 12.6V12C238.8 11.6 239.3 11.1 239.7 10.4C239.4 10.4 239 10.5 238.5 10.6V10.1C238.9 9.49995 239.4 8.69995 239.8 7.69995L240.4 7.89995C240.1 8.59995 239.7 9.19995 239.3 9.89995C239.6 9.89995 239.9 9.89995 240.1 9.79995C240.3 9.59995 240.4 9.29995 240.6 8.99995L241.2 9.19995L241.1 9.29995ZM240.2 14.4H239.6C239.6 14 239.6 13.4 239.4 12.8H240C240.1 13.3 240.2 13.8 240.2 14.4ZM241.1 13.5L240.6 13.7C240.6 13.4 240.4 13.1 240.3 12.8L240.8 12.6C240.9 12.9 241 13.2 241.1 13.5ZM242.5 11.6C242.5 12.6 242.1 13.6 241.1 14.6L240.6 14.2C241.3 13.6 241.7 13 241.9 12.3H241.1V11.7H242.6L242.5 11.6ZM245.2 14L244.7 14.6C244.2 14.2 243.8 13.7 243.3 12.9V14.1C243.3 14.3 243.3 14.5 243 14.6C242.8 14.7 242.4 14.8 241.9 14.8L241.7 14.1C242.1 14.1 242.3 14.1 242.4 14.1C242.5 14.1 242.6 14.1 242.6 14V11.1H241.1V8.49995H242.1C242.2 8.29995 242.4 7.99995 242.5 7.79995L243.2 7.99995C243.2 8.19995 243 8.39995 242.9 8.59995H244.7V11.2H243.3V11.8C243.3 11.9 243.4 12.1 243.6 12.2C243.8 12 244.1 11.8 244.4 11.4L244.9 11.8C244.6 12.1 244.3 12.4 243.9 12.7C244.2 13.1 244.6 13.5 245.1 14H245.2ZM244 9.49995V8.99995H241.8V9.49995H244ZM244 10.5V9.99995H241.8V10.5H244Z" fill="black"/>
<path d="M253.1 14.6H246.1V13.9H249V7.80005H249.7V10.2H252.7V10.9H249.7V13.9H253.1V14.6Z" fill="black"/>
<path d="M253.899 20.9C253.899 21.2 253.699 21.6 253.599 21.9L253.399 22.4V26.9H253.099V23.1C252.899 23.5 252.699 23.8 252.499 24L252.199 23.7C252.799 23 253.199 22 253.599 20.7H253.899V20.9ZM258.299 26.2999L258.099 26.6C257.699 26.4 257.199 26 256.699 25.5C256.699 25.7 256.699 25.8 256.699 25.9C256.699 26.2 256.699 26.4 256.599 26.5C256.599 26.6 256.399 26.6999 256.299 26.7999C256.199 26.7999 255.899 26.7999 255.599 26.7999C255.299 26.7999 255.399 26.7999 255.299 26.7999V26.5C255.799 26.5 256.099 26.5 256.199 26.5C256.299 26.5 256.399 26.3 256.399 26C256.399 25.7 256.399 25.7 256.399 25.5C255.799 25.9 254.999 26.3 253.899 26.7L253.699 26.4C254.799 26.1 255.699 25.7 256.299 25.2C256.299 25.2 256.299 24.9999 256.099 24.7999C255.499 25.1999 254.799 25.5999 253.899 25.7999L253.699 25.5C254.699 25.2 255.399 24.9 255.999 24.5C255.999 24.4 255.799 24.3 255.699 24.2C255.199 24.5 254.599 24.7 253.799 24.9L253.599 24.6C254.399 24.5 255.099 24.1999 255.699 23.7999H254.299V22.6C254.199 22.7 253.999 22.8 253.899 22.9L253.699 22.6C254.499 22 255.099 21.5 255.399 20.9L255.699 21.1C255.699 21.2 255.599 21.3 255.499 21.4H257.199V21.7C256.999 21.9 256.799 22.2 256.599 22.4H257.899V23.7H256.299C256.199 23.8 256.099 23.9 255.999 24C256.199 24.3 256.399 24.5 256.599 24.9C256.999 24.7 257.399 24.4 257.899 24L258.199 24.2C257.799 24.5 257.399 24.8 256.899 25.1C257.399 25.7 257.999 26.1 258.499 26.4L258.299 26.2999ZM256.799 21.6H255.299C254.999 21.9 254.799 22.0999 254.499 22.2999H256.199C256.499 21.9999 256.699 21.8 256.799 21.6ZM255.899 23.2999V22.6H254.599V23.2999H255.899ZM257.599 23.2999V22.6H256.299V23.2999H257.599Z" fill="#AA8420" stroke="#AA8420" stroke-width="0.1" stroke-miterlimit="10"/>
<path d="M265.3 23.2H262.4C261.9 23.6 261.4 23.8 260.9 24H262C262.7 24 263.1 24 263.1 24C263.4 23.9 263.6 23.7 264 23.5L264.3 23.7C263.1 24.4 262 24.9 260.8 25.2C262 25.2 263.2 25.2 264.3 25C264.1 24.8 264 24.7 263.8 24.5L264.1 24.2999C264.6 24.6999 265 25.2 265.3 25.6L265 25.7999C264.8 25.5999 264.7 25.3999 264.6 25.2999C263.9 25.2999 263.2 25.4 262.5 25.4V26.4C262.5 26.6 262.5 26.6999 262.3 26.7999C262.2 26.7999 262 26.9 261.6 26.9C261.2 26.9 261.4 26.9 261.4 26.9V26.5C261.4 26.5 261.6 26.5 261.7 26.5C261.9 26.5 262 26.5 262 26.5C262 26.5 262 26.5 262 26.4V25.4C261.4 25.4 260.6 25.4 259.6 25.4V25.1C260.5 24.9 261.4 24.6 262.3 24.2C261.8 24.2 261.2 24.2 260.6 24.2C260 24.2 260.2 24.2 260.1 24.2V23.9C260.6 23.7 261.2 23.4 261.7 23.1H259.1V22.7999H262V22.2H259.8V21.9H262V21.4H259.4V21.1H262V20.7H262.4V21.1H264.9V21.4H262.4V21.9H264.5V22.2H262.4V22.7999H265.2V23.1L265.3 23.2ZM261.3 25.9C260.9 26.2 260.3 26.6 259.5 26.9L259.3 26.6C260 26.3 260.6 26 261.1 25.7L261.4 26L261.3 25.9ZM265.2 26.6L265 26.9C264.5 26.5 263.9 26.2 263.2 25.9L263.4 25.6C264.1 25.9 264.7 26.2 265.2 26.6Z" fill="#AA8420" stroke="#AA8420" stroke-width="0.1" stroke-miterlimit="10"/>
</svg>
