<svg width="225" height="89" viewBox="0 0 225 89" fill="none" xmlns="http://www.w3.org/2000/svg">
<path d="M43.3996 88.2H36.0996V0H43.3996V0.2H36.2996V88H43.3996V88.2Z" fill="#231815"/>
<path d="M187.5 88.2H180.2V88H187.3V0.2H180.2V0H187.5V88.2Z" fill="#231815"/>
<path d="M68.6002 61.3998H69.6002V54.1998H71.5002V53.2998H66.7002V54.1998H68.6002V61.3998Z" fill="#003477"/>
<path d="M73.2998 57.5999H77.0998V61.4999H78.0998V53.3999H77.0998V56.6999H73.2998V53.3999H72.2998V61.4999H73.2998V57.5999Z" fill="#003477"/>
<path d="M84.0998 60.4999H80.7998V57.4999H83.9998V56.5999H80.7998V54.2999H84.0998V53.3999H79.7998V61.4999H84.0998V60.5999V60.4999Z" fill="#003477"/>
<path d="M89.5996 57.5999H93.3996V61.4999H94.3996V53.3999H93.3996V56.6999H89.5996V53.3999H88.5996V61.4999H89.5996V57.5999Z" fill="#003477"/>
<path d="M99.6004 61.6002C101.9 61.6002 103.8 59.8002 103.8 57.4002C103.8 55.0002 101.9 53.2002 99.6004 53.2002C97.3004 53.2002 95.4004 55.1002 95.4004 57.4002C95.4004 59.7002 97.3004 61.6002 99.6004 61.6002ZM99.6004 54.1002C101.5 54.1002 102.8 55.6002 102.8 57.4002C102.8 59.2002 101.3 60.7002 99.6004 60.7002C97.9004 60.7002 96.4004 59.3002 96.4004 57.4002C96.4004 55.5002 97.7004 54.1002 99.6004 54.1002Z" fill="#003477"/>
<path d="M105.9 55.4L112 61.7V53.3H111V59.3L104.9 53V61.5H105.9V55.5V55.4Z" fill="#003477"/>
<path d="M117 61.6001C119.3 61.6001 120.8 59.9001 120.8 57.7001V57.4001H117.6V58.3001H119.7C119.7 59.6001 118.3 60.7001 117.1 60.7001C115.9 60.7001 114 59.1001 114 57.4001C114 55.7001 115.4 54.1001 117.2 54.1001C119 54.1001 119.2 54.6001 119.7 55.4001L120.4 54.7001C119.6 53.7001 118.4 53.1001 117.1 53.1001C114.8 53.1001 112.9 55.0001 112.9 57.3001C112.9 59.6001 114.7 61.5001 117 61.5001V61.6001Z" fill="#003477"/>
<path d="M126.1 58.1L126.5 57.7L129.5 61.5H130.9L127.2 57.1L130.8 53.5H129.5L126.1 57V53.5H125.1V61.6H126.1V58.2V58.1Z" fill="#003477"/>
<path d="M135.3 61.6002C137.6 61.6002 139.5 59.8002 139.5 57.4002C139.5 55.0002 137.6 53.2002 135.3 53.2002C133 53.2002 131.1 55.1002 131.1 57.4002C131.1 59.7002 133 61.6002 135.3 61.6002ZM135.3 54.1002C137.2 54.1002 138.5 55.6002 138.5 57.4002C138.5 59.2002 137 60.7002 135.3 60.7002C133.6 60.7002 132.1 59.3002 132.1 57.4002C132.1 55.5002 133.4 54.1002 135.3 54.1002Z" fill="#003477"/>
<path d="M141.5 55.4L147.6 61.7V53.3H146.6V59.3L140.5 53V61.5H141.5V55.5V55.4Z" fill="#003477"/>
<path d="M152.7 61.6001C155 61.6001 156.5 59.9001 156.5 57.7001V57.4001H153.3V58.3001H155.4C155.4 59.6001 154 60.7001 152.8 60.7001C151.6 60.7001 149.7 59.1001 149.7 57.4001C149.7 55.7001 151.1 54.1001 152.9 54.1001C154.7 54.1001 154.9 54.6001 155.4 55.4001L156.1 54.7001C155.3 53.7001 154.1 53.1001 152.8 53.1001C150.5 53.1001 148.6 55.0001 148.6 57.3001C148.6 59.6001 150.4 61.5001 152.7 61.5001V61.6001Z" fill="#003477"/>
<path d="M57.3004 71.0002C57.3004 72.3002 56.9004 73.5002 55.4004 73.5002C53.9004 73.5002 53.4004 72.3002 53.4004 71.0002V66.2002H52.4004V71.3002C52.4004 73.1002 53.5004 74.4002 55.4004 74.4002C57.3004 74.4002 58.4004 73.0002 58.4004 71.3002V66.2002H57.4004V71.0002H57.3004Z" fill="#003477"/>
<path d="M66.8002 66.1999H65.8002V72.1999L59.7002 65.8999V74.3999H60.7002V68.3999L66.8002 74.6999V66.2999V66.1999Z" fill="#003477"/>
<path d="M69.2998 66.2002H68.2998V74.3002H69.2998V66.2002Z" fill="#003477"/>
<path d="M71.1996 66.2002H70.0996L73.5996 74.7002L77.0996 66.2002H75.9996L73.5996 72.2002L71.1996 66.2002Z" fill="#003477"/>
<path d="M82.3 67.1002V66.2002H78V74.3002H82.3V73.4002H79V70.4002H82.2V69.5002H79V67.2002H82.3V67.1002Z" fill="#003477"/>
<path d="M87.9996 68.5002C87.9996 67.7002 87.5996 67.0002 86.8996 66.6002C86.2996 66.2002 85.4996 66.2002 84.7996 66.2002H83.5996V74.3002H84.5996V70.9002H84.9996L87.3996 74.3002H88.5996L85.9996 70.8002C87.1996 70.7002 87.8996 69.7002 87.8996 68.5002H87.9996ZM84.8996 70.0002H84.5996V67.1002H84.8996C85.8996 67.1002 87.0996 67.3002 87.0996 68.6002C87.0996 69.9002 85.9996 70.1002 84.9996 70.1002L84.8996 70.0002Z" fill="#003477"/>
<path d="M91.6996 73.5001C90.7996 73.5001 90.0996 72.9001 90.0996 72.0001L89.0996 72.2001C89.2996 73.5001 90.2996 74.5001 91.5996 74.5001C92.8996 74.5001 94.1996 73.4001 94.1996 72.0001C94.1996 70.6001 93.2996 70.0001 92.1996 69.6001L91.5996 69.4001C91.0996 69.2001 90.4996 68.9001 90.4996 68.2001C90.4996 67.5001 91.1996 67.0001 91.7996 67.0001C92.3996 67.0001 92.7996 67.3001 93.0996 67.8001L93.8996 67.3001C93.4996 66.5001 92.6996 66.1001 91.7996 66.1001C90.8996 66.1001 89.3996 66.9001 89.3996 68.2001C89.3996 69.5001 90.1996 69.9001 91.1996 70.3001L91.7996 70.5001C92.4996 70.8001 93.1996 71.2001 93.1996 72.0001C93.1996 72.8001 92.5996 73.6001 91.6996 73.6001V73.5001Z" fill="#003477"/>
<path d="M96.2998 66.2002H95.2998V74.3002H96.2998V66.2002Z" fill="#003477"/>
<path d="M102 66.2002H97.2002V67.1002H99.1002V74.3002H100.1V67.1002H102V66.2002Z" fill="#003477"/>
<path d="M105.8 74.3002V70.8002L108.4 66.2002H107.2L105.2 69.6002L103.2 66.2002H102.1L104.7 70.8002V74.3002H105.7H105.8Z" fill="#003477"/>
<path d="M116.1 66C113.8 66 111.9 67.9 111.9 70.2C111.9 72.5 113.8 74.4 116.1 74.4C118.4 74.4 120.3 72.6 120.3 70.2C120.3 67.8 118.4 66 116.1 66ZM116.1 73.5C114.3 73.5 112.9 72.1 112.9 70.2C112.9 68.3 114.2 66.9 116.1 66.9C118 66.9 119.3 68.4 119.3 70.2C119.3 72 117.8 73.5 116.1 73.5Z" fill="#003477"/>
<path d="M122.4 70.3002H125.2V69.4002H122.4V67.1002H125.3V66.2002H121.4V74.3002H122.4V70.3002Z" fill="#003477"/>
<path d="M131.9 73.5001C131 73.5001 130.3 72.9001 130.3 72.0001L129.3 72.2001C129.5 73.5001 130.5 74.5001 131.8 74.5001C133.1 74.5001 134.4 73.4001 134.4 72.0001C134.4 70.6001 133.5 70.0001 132.4 69.6001L131.8 69.4001C131.3 69.2001 130.7 68.9001 130.7 68.2001C130.7 67.5001 131.4 67.0001 132 67.0001C132.6 67.0001 133 67.3001 133.3 67.8001L134.1 67.3001C133.7 66.5001 132.9 66.1001 132 66.1001C131.1 66.1001 129.6 66.9001 129.6 68.2001C129.6 69.5001 130.4 69.9001 131.4 70.3001L132 70.5001C132.7 70.8001 133.4 71.2001 133.4 72.0001C133.4 72.8001 132.8 73.6001 131.9 73.6001V73.5001Z" fill="#003477"/>
<path d="M139.4 66.8999C140.2 66.8999 140.9 67.1999 141.5 67.6999V66.4999C140.9 66.0999 140.2 65.8999 139.5 65.8999C137.1 65.8999 135.2 67.7999 135.2 70.0999C135.2 72.3999 137.1 74.2999 139.4 74.2999C141.7 74.2999 140.9 74.0999 141.5 73.6999V72.4999C140.9 72.9999 140.1 73.2999 139.3 73.2999C137.5 73.2999 136.1 71.7999 136.1 69.9999C136.1 68.1999 137.5 66.6999 139.3 66.6999L139.4 66.8999Z" fill="#003477"/>
<path d="M143.8 66.2002H142.8V74.3002H143.8V66.2002Z" fill="#003477"/>
<path d="M149.7 73.3998H146.4V70.3998H149.6V69.4998H146.4V67.1998H149.7V66.2998H145.4V74.3998H149.7V73.4998V73.3998Z" fill="#003477"/>
<path d="M151 74.2999H152V68.2999L158.1 74.5999V66.1999H157.1V72.1999L151 65.8999V74.3999V74.2999Z" fill="#003477"/>
<path d="M159.1 70.2999C159.1 72.5999 161 74.4999 163.3 74.4999C165.6 74.4999 164.8 74.2999 165.4 73.8999V72.6999C164.8 73.1999 164 73.4999 163.2 73.4999C161.4 73.4999 160 71.9999 160 70.1999C160 68.3999 161.4 66.8999 163.2 66.8999C165 66.8999 164.8 67.1999 165.3 67.6999V66.4999C164.7 66.0999 164 65.8999 163.3 65.8999C160.9 65.8999 159 67.7999 159 70.0999L159.1 70.2999Z" fill="#003477"/>
<path d="M171.1 67.1002V66.2002H166.8V74.3002H171.1V73.4002H167.8V70.4002H171V69.5002H167.8V67.2002H171.1V67.1002Z" fill="#003477"/>
<path d="M63.0996 87.1002H64.1996L65.0996 85.1002H68.7996L69.6996 87.1002H70.7996L66.8996 78.7002L63.0996 87.1002ZM65.4996 84.2002L66.8996 80.9002L68.2996 84.2002H65.3996H65.4996Z" fill="#003477"/>
<path d="M77.5004 85.0002L71.4004 78.7002V87.2002H72.4004V81.2002L78.5004 87.5002V79.1002H77.5004V85.1002V85.0002Z" fill="#003477"/>
<path d="M81.7 79H80V87.1H81.6C84.2 87.1 86.2 85.8 86.2 83C86.2 80.2 84.2 79 81.7 79ZM81.4 86.2H81.1V80H81.4C83.5 80 85.2 80.8 85.2 83.1C85.2 85.4 83.4 86.2 81.4 86.2Z" fill="#003477"/>
<path d="M89.7998 80.0001H91.6998V87.2001H92.6998V80.0001H94.5998V79.1001H89.7998V80.0001Z" fill="#003477"/>
<path d="M95.5 87.1001H99.8V86.2001H96.5V83.2001H99.7V82.3001H96.5V80.0001H99.8V79.1001H95.5V87.2001V87.1001Z" fill="#003477"/>
<path d="M100.7 83.1002C100.7 85.4002 102.6 87.3002 104.9 87.3002C107.2 87.3002 106.4 87.1002 107 86.7002V85.5002C106.4 86.0002 105.6 86.3002 104.8 86.3002C103 86.3002 101.6 84.8002 101.6 83.0002C101.6 81.2002 103 79.7002 104.8 79.7002C106.6 79.7002 106.3 80.0002 106.9 80.5002V79.3002C106.3 78.9002 105.6 78.7002 104.9 78.7002C102.5 78.7002 100.6 80.6002 100.6 82.9002L100.7 83.1002Z" fill="#003477"/>
<path d="M113.1 82.3001H109.3V79.1001H108.3V87.2001H109.3V83.3001H113.1V87.2001H114.1V79.1001H113.1V82.3001Z" fill="#003477"/>
<path d="M121.7 85.0002L115.6 78.7002V87.2002H116.6V81.2002L122.7 87.5002V79.1002H121.7V85.1002V85.0002Z" fill="#003477"/>
<path d="M127.9 78.8999C125.6 78.8999 123.7 80.7999 123.7 83.0999C123.7 85.3999 125.6 87.2999 127.9 87.2999C130.2 87.2999 132.1 85.4999 132.1 83.0999C132.1 80.6999 130.2 78.8999 127.9 78.8999ZM127.9 86.2999C126.1 86.2999 124.7 84.8999 124.7 82.9999C124.7 81.0999 126 79.6999 127.9 79.6999C129.8 79.6999 131.1 81.1999 131.1 82.9999C131.1 84.7999 129.6 86.2999 127.9 86.2999Z" fill="#003477"/>
<path d="M134.2 79H133.2V87.1H136.7V86.2H134.3V79H134.2Z" fill="#003477"/>
<path d="M141.1 78.8999C138.8 78.8999 136.9 80.7999 136.9 83.0999C136.9 85.3999 138.8 87.2999 141.1 87.2999C143.4 87.2999 145.3 85.4999 145.3 83.0999C145.3 80.6999 143.4 78.8999 141.1 78.8999ZM141.1 86.2999C139.3 86.2999 137.9 84.8999 137.9 82.9999C137.9 81.0999 139.2 79.6999 141.1 79.6999C143 79.6999 144.3 81.1999 144.3 82.9999C144.3 84.7999 142.8 86.2999 141.1 86.2999Z" fill="#003477"/>
<path d="M150.5 83.9998H152.6C152.6 85.2998 151.2 86.3998 150 86.3998C148.8 86.3998 146.9 84.7998 146.9 83.0998C146.9 81.3998 148.3 79.7998 150.1 79.7998C151.9 79.7998 152.1 80.2998 152.6 81.0998L153.3 80.3998C152.5 79.3998 151.3 78.7998 150 78.7998C147.7 78.7998 145.8 80.6998 145.8 82.9998C145.8 85.2998 147.6 87.1998 149.9 87.1998C152.2 87.1998 153.7 85.4998 153.7 83.2998V82.9998H150.5V83.8998V83.9998Z" fill="#003477"/>
<path d="M157.1 82.5001L155.1 79.1001H153.9L156.5 83.7001V87.2001H157.5V83.7001L160.1 79.1001H158.9L156.9 82.5001H157.1Z" fill="#003477"/>
<path d="M118 9.5998C118.2 9.2998 118.3 8.7998 118.3 8.7998H105.1C105.1 8.7998 105.3 9.3998 105.4 9.5998H118Z" fill="#AA8420"/>
<path d="M117.3 10.7C117.5 10.5 117.8 10 117.8 10H105.7C105.7 10 105.8 10.3 106.1 10.7H117.3Z" fill="#AA8420"/>
<path d="M116.3 11.7002C116.6 11.5002 116.8 11.2002 116.8 11.2002H106.4C106.4 11.2002 106.6 11.5002 106.9 11.7002H116.2H116.3Z" fill="#AA8420"/>
<path d="M115.1 12.6998C115.4 12.5998 115.7 12.2998 115.7 12.2998H107.6C107.6 12.2998 107.6 12.2998 108.2 12.6998H115.1Z" fill="#AA8420"/>
<path d="M109.1 13.2998C109.1 13.2998 109.9 13.7998 111.6 13.7998C113.3 13.7998 114.3 13.2998 114.3 13.2998H109H109.1Z" fill="#AA8420"/>
<path d="M109 14.3999C109 14.3999 110 14.3999 110.6 14.8999C111.2 15.3999 111.6 16.1999 111.6 16.1999C111.6 16.1999 112 15.3999 112.5 14.9999C113.1 14.5999 114 14.3999 114 14.3999H124.4L126.5 17.3999H117.1C117.1 17.3999 116.4 17.3999 115.5 17.9999C115 18.2999 114.6 18.7999 114.6 18.7999C114.6 18.7999 114.6 18.9999 114.4 19.1999C114.3 19.2999 114.2 19.3999 114.1 19.4999C114 19.4999 114 19.4999 114 19.4999H109.1C109.1 19.4999 108.9 19.4999 108.8 19.2999C108.7 19.0999 108.8 19.1999 108.7 19.0999C108.7 18.9999 108.4 18.5999 107.7 18.0999C106.9 17.5999 106.2 17.5999 106.2 17.5999H96.7002L98.8002 14.4999H109.1L109 14.3999Z" fill="#003477"/>
<path d="M101.6 18.7002V34.3002C101.6 34.3002 101.6 35.7002 102.8 37.5002C103.9 39.4002 105.6 40.2002 105.6 40.2002L106.9 38.2002C106.9 38.2002 105.7 37.5002 104.9 36.2002C104.1 34.9002 104.1 33.8002 104.1 33.8002V18.8002H101.6V18.7002Z" fill="#003477"/>
<path d="M119.3 18.6001V33.6001C119.3 33.6001 119.1 35.1001 118.4 36.2001C117.7 37.3001 116.5 38.2001 116.5 38.2001L117.8 40.2001C117.8 40.2001 119.7 38.8001 120.6 37.3001C121.5 35.8001 121.8 33.6001 121.8 33.6001V18.6001H119.3Z" fill="#003477"/>
<path d="M97.7002 18.7002V34.3002C97.7002 34.3002 97.9002 36.7002 99.4002 39.2002C100.9 41.7002 103.7 43.5002 103.7 43.5002L105 41.5002C105 41.5002 103.2 40.6002 101.8 38.4002C100.4 36.2002 100.3 34.3002 100.3 34.3002V18.7002H97.7002Z" fill="#003477"/>
<path d="M109 20.3002V36.8002C109 36.8002 109 36.8002 109 37.1002C109 37.3002 108.8 37.5002 108.8 37.5002L103.3 46.6002H120.2L114.7 37.3002L114.5 36.9002V36.5002V20.4002H112.4V37.1002C112.4 37.1002 112.4 37.3002 112.4 37.5002C112.4 37.7002 112.6 38.0002 112.6 38.0002L116 43.6002H107.4L110.7 38.0002C110.7 38.0002 110.8 37.8002 110.9 37.5002C110.9 37.3002 110.9 37.0002 110.9 37.0002V20.2002H108.9L109 20.3002Z" fill="#AA8420"/>
<path d="M123.1 18.6V34C123.1 34 123.1 36 121.6 38.2C120.2 40.5 118.5 41.4 118.5 41.4L119.7 43.5C119.7 43.5 122.2 41.9 123.8 39.4C125.4 36.9 125.6 33.9 125.6 33.9V18.5H123.1V18.6Z" fill="#003477"/>
<path d="M105 8.4001C105 8.4001 104.2 3.8001 107.6 1.5001C107.6 1.5001 109.1 0.100098 111.6 0.100098C114.1 0.100098 115.8 1.5001 115.8 1.5001C119.5 4.2001 118.4 8.5001 118.4 8.5001H105V8.4001Z" fill="#AA8420"/>
<path d="M4.2002 50.5V51.2H0.200195V50.5H1.8002V45.1L0.300195 46V45.2L2.1002 44H2.6002V50.4H4.2002V50.5Z" fill="#AA8420"/>
<path d="M10.0998 48.2001C10.3998 48.5001 10.4998 48.9001 10.4998 49.3001C10.4998 49.7001 10.2998 50.4001 9.7998 50.7001C9.2998 51.1001 8.6998 51.2001 7.8998 51.2001C7.0998 51.2001 6.4998 51.0001 5.9998 50.7001C5.4998 50.4001 5.2998 49.9001 5.2998 49.3001C5.2998 48.7001 5.3998 48.5001 5.6998 48.2001C5.9998 47.9001 6.2998 47.7001 6.7998 47.6001C6.3998 47.5001 5.9998 47.3001 5.7998 47.0001C5.5998 46.7001 5.4998 46.4001 5.4998 46.0001C5.4998 45.6001 5.4998 45.3001 5.7998 45.0001C5.9998 44.7001 6.2998 44.5001 6.5998 44.3001C6.9998 44.1001 7.3998 44.1001 7.7998 44.1001C8.1998 44.1001 8.6998 44.1001 9.0998 44.3001C9.4998 44.5001 9.6998 44.7001 9.8998 45.0001C10.0998 45.3001 10.1998 45.6001 10.1998 46.0001C10.1998 46.4001 10.0998 46.7001 9.8998 47.0001C9.6998 47.3001 9.2998 47.5001 8.8998 47.6001C9.3998 47.7001 9.6998 47.9001 9.9998 48.3001L10.0998 48.2001ZM9.2998 50.3001C9.5998 50.1001 9.6998 49.7001 9.6998 49.3001C9.6998 48.9001 9.4998 48.6001 9.1998 48.4001C8.8998 48.2001 8.4998 48.0001 7.8998 48.0001C7.3998 48.0001 6.9998 48.2001 6.5998 48.4001C6.2998 48.6001 6.0998 48.9001 6.0998 49.3001C6.0998 49.7001 6.2998 50.1001 6.4998 50.3001C6.7998 50.5001 7.1998 50.6001 7.7998 50.6001C8.3998 50.6001 8.7998 50.5001 9.0998 50.3001H9.2998ZM6.7998 46.9001C7.0998 47.1001 7.4998 47.3001 7.8998 47.3001C8.3998 47.3001 8.7998 47.1001 9.0998 46.9001C9.3998 46.7001 9.4998 46.4001 9.4998 46.0001C9.4998 45.6001 9.3998 45.3001 9.0998 45.1001C8.7998 44.9001 8.3998 44.8001 7.8998 44.8001C7.3998 44.8001 6.9998 44.9001 6.7998 45.1001C6.4998 45.3001 6.3998 45.6001 6.3998 46.0001C6.3998 46.4001 6.4998 46.7001 6.7998 46.9001Z" fill="#AA8420"/>
<path d="M197.5 48.2001C197.8 48.5001 197.9 48.9001 197.9 49.3001C197.9 49.7001 197.7 50.4001 197.2 50.7001C196.7 51.1001 196.1 51.2001 195.3 51.2001C194.5 51.2001 193.9 51.0001 193.4 50.7001C192.9 50.4001 192.7 49.9001 192.7 49.3001C192.7 48.7001 192.8 48.5001 193.1 48.2001C193.4 47.9001 193.7 47.7001 194.2 47.6001C193.8 47.5001 193.4 47.3001 193.2 47.0001C193 46.7001 192.9 46.4001 192.9 46.0001C192.9 45.6001 193 45.3001 193.2 45.0001C193.4 44.7001 193.7 44.5001 194 44.3001C194.3 44.1001 194.8 44.1001 195.2 44.1001C195.6 44.1001 196.1 44.1001 196.4 44.3001C196.8 44.5001 197.1 44.7001 197.2 45.0001C197.4 45.3001 197.5 45.6001 197.5 46.0001C197.5 46.4001 197.4 46.7001 197.2 47.0001C197 47.3001 196.6 47.5001 196.2 47.6001C196.7 47.7001 197 47.9001 197.3 48.3001L197.5 48.2001ZM196.6 50.3001C196.9 50.1001 197 49.7001 197 49.3001C197 48.9001 196.8 48.6001 196.5 48.4001C196.2 48.2001 195.8 48.0001 195.2 48.0001C194.7 48.0001 194.3 48.2001 193.9 48.4001C193.6 48.6001 193.4 48.9001 193.4 49.3001C193.4 49.7001 193.5 50.1001 193.8 50.3001C194.1 50.5001 194.5 50.6001 195.1 50.6001C195.7 50.6001 196.1 50.5001 196.4 50.3001H196.6ZM194.1 46.9001C194.4 47.1001 194.8 47.3001 195.2 47.3001C195.7 47.3001 196.1 47.1001 196.4 46.9001C196.7 46.7001 196.8 46.4001 196.8 46.0001C196.8 45.6001 196.7 45.3001 196.4 45.1001C196.1 44.9001 195.7 44.8001 195.2 44.8001C194.7 44.8001 194.3 44.9001 194.1 45.1001C193.8 45.3001 193.7 45.6001 193.7 46.0001C193.7 46.4001 193.8 46.7001 194.1 46.9001Z" fill="#AA8420"/>
<path d="M199.4 50.4001C199 49.8001 198.8 48.9001 198.8 47.7001C198.8 46.5001 199 45.6001 199.4 45.0001C199.8 44.4001 200.4 44.1001 201.3 44.1001C202.2 44.1001 202.7 44.4001 203.2 45.0001C203.6 45.6001 203.8 46.5001 203.8 47.7001C203.8 48.9001 203.6 49.8001 203.2 50.4001C202.8 51.0001 202.2 51.3001 201.3 51.3001C200.4 51.3001 199.9 51.0001 199.4 50.4001ZM202.6 49.9001C202.9 49.4001 203 48.7001 203 47.7001C203 46.7001 202.9 45.9001 202.6 45.5001C202.3 45.0001 201.9 44.8001 201.3 44.8001C200.7 44.8001 200.3 45.0001 200.1 45.5001C199.8 46.0001 199.7 46.7001 199.7 47.7001C199.7 48.7001 199.8 49.5001 200.1 49.9001C200.4 50.4001 200.8 50.6001 201.3 50.6001C201.8 50.6001 202.3 50.4001 202.5 49.9001H202.6Z" fill="#AA8420"/>
<path d="M15.5996 32.9005C14.8996 33.2005 14.0996 33.4005 13.2996 33.5005V35.2005H15.3996V35.9005H13.2996V37.9005C14.0996 37.7005 14.8996 37.4005 15.4996 37.2005V38.0005C14.4996 38.4005 13.3996 38.7005 12.2996 39.0005L12.0996 38.3005C12.2996 38.3005 12.3996 38.3005 12.4996 38.3005V33.1005C13.4996 33.0005 14.3996 32.8005 15.1996 32.5005L15.5996 33.1005V32.9005ZM18.9996 37.7005C18.9996 37.9005 18.9996 38.1005 18.7996 38.2005C18.5996 38.3005 18.4996 38.4005 18.3996 38.4005C18.2996 38.4005 17.9996 38.4005 17.6996 38.4005C17.3996 38.4005 17.2996 38.4005 17.1996 38.4005L16.8996 37.6005C17.0996 37.6005 17.3996 37.6005 17.9996 37.6005C18.5996 37.6005 18.1996 37.6005 18.1996 37.4005V33.2005H16.5996V39.2005H15.8996V32.5005H18.9996V37.6005V37.7005Z" fill="black"/>
<path d="M24.3992 34.6003H21.2992V35.7003C21.2992 37.2003 21.0992 38.5003 20.7992 39.4003L20.1992 39.0003C20.4992 38.2003 20.5992 37.3003 20.5992 36.2003V32.5003H24.3992V34.6003ZM23.6992 34.0003V33.2003H21.2992V34.0003H23.6992ZM24.3992 38.2003C24.3992 38.4003 24.3992 38.6003 24.1992 38.6003C23.9992 38.6003 23.8992 38.7003 23.5992 38.6003L23.3992 38.0003C23.3992 38.0003 23.3992 38.0003 23.4992 38.0003C23.6992 38.0003 23.6992 38.0003 23.6992 37.8003V36.2003H23.1992V39.1003H22.5992V36.2003H22.1992V38.6003H21.5992V35.5003H22.6992V34.8003H23.2992V35.5003H24.3992V38.0003V38.2003ZM25.5992 37.9003H24.8992V32.9003H25.5992V37.9003ZM26.9992 38.6003C26.9992 38.9003 26.9992 39.1003 26.7992 39.2003C26.5992 39.2003 26.3992 39.3003 25.9992 39.3003C25.5992 39.3003 25.5992 39.3003 25.4992 39.3003L25.2992 38.6003C25.4992 38.6003 25.6992 38.6003 25.8992 38.6003C26.0992 38.6003 26.1992 38.6003 26.2992 38.6003C26.3992 38.6003 26.2992 38.6003 26.2992 38.4003V32.3003H26.9992V38.6003Z" fill="black"/>
<path d="M19.9 45.9H14V45.6H16.8C16.8 45.4 16.6 45.3 16.5 45.2L16.8 45C16.9 45.2 17 45.4 17.1 45.6H19.8V45.9H19.9ZM20 50.4C20 50.7 20 50.9 19.8 51C19.7 51.1 19.5 51.2 19.4 51.2H17.1C16.9 51.2 16.8 51.2 16.7 51C16.6 50.9 16.5 50.7 16.5 50.5V50.3L14 50.5V50.2L16.5 50V49.6L14.4 49.8V49.5L16.5 49.3V48.9C16 48.9 15.5 48.9 14.9 48.9V48.6C16.3 48.6 17.7 48.6 18.7 48.3L18.9 48.6C18.3 48.7 17.6 48.8 16.8 48.9V49.3L19.4 49.1V49.4L16.8 49.6V50L19.8 49.8V50.1L16.8 50.3V50.6C16.8 50.6 16.8 50.7 16.8 50.8C16.8 50.8 16.9 50.8 17 50.8H19.1C19.4 50.8 19.5 50.6 19.5 50.2H19.8L20 50.4ZM19.8 48.7H19.4V48H14.4V48.7H14V47.7H19.8V48.7ZM19.3 47.4H14.6V46.4H19.3V47.4ZM18.9 47.1V46.7H15V47.1H18.9Z" fill="#AA8420" stroke="#AA8420" stroke-width="0.1" stroke-miterlimit="10"/>
<path d="M22.9998 48.8001C22.5998 49.6001 21.8998 50.3001 21.0998 50.9001L20.7998 50.6001C21.5998 50.0001 22.1998 49.4001 22.5998 48.6001L22.8998 48.8001H22.9998ZM26.8998 48.0001H24.0998V51.3001H23.6998V48.0001H20.8998V47.6001H23.6998V45.1001H24.0998V47.6001H26.8998V48.0001ZM22.6998 46.9001L22.3998 47.1001C22.1998 46.7001 21.8998 46.2001 21.4998 45.7001L21.7998 45.5001C22.1998 46.0001 22.4998 46.4001 22.6998 46.9001ZM26.9998 50.6001L26.6998 50.9001C26.2998 50.2001 25.6998 49.5001 24.8998 48.9001L25.1998 48.7001C25.7998 49.2001 26.3998 49.9001 26.9998 50.7001V50.6001ZM26.2998 45.6001C25.9998 46.2001 25.6998 46.7001 25.3998 47.1001L24.9998 46.9001C25.2998 46.6001 25.5998 46.1001 25.8998 45.4001L26.1998 45.6001H26.2998Z" fill="#AA8420" stroke="#AA8420" stroke-width="0.1" stroke-miterlimit="10"/>
<path d="M193.9 37.4002C193.8 38.1002 193.6 38.8002 193.4 39.3002L192.8 39.1002C193 38.5002 193.2 37.9002 193.3 37.3002H193.9V37.4002ZM195.8 33.8002C195.2 34.9002 194.6 35.7002 194 36.4002C194.2 36.4002 194.5 36.3002 194.9 36.2002C194.9 36.1002 194.9 35.9002 194.7 35.8002L195.2 35.6002C195.4 36.0002 195.6 36.5002 195.7 36.9002L195.2 37.1002C195.2 36.9002 195.2 36.8002 195.2 36.7002C194.6 36.9002 194 37.0002 193.2 37.1002V36.5002C193.5 36.1002 194 35.6002 194.4 34.9002C194.1 34.9002 193.7 35.0002 193.2 35.1002V34.6002C193.6 34.0002 194.1 33.2002 194.5 32.2002L195.1 32.4002C194.8 33.1002 194.4 33.7002 194 34.4002C194.3 34.4002 194.6 34.4002 194.8 34.3002C195 34.1002 195.1 33.8002 195.3 33.5002L195.9 33.7002L195.8 33.8002ZM195 39.0002H194.4C194.4 38.6002 194.4 38.0002 194.2 37.4002H194.8C194.9 37.9002 195 38.4002 195 39.0002ZM195.9 38.0002L195.4 38.2002C195.4 37.9002 195.2 37.6002 195.1 37.3002L195.6 37.1002C195.7 37.4002 195.8 37.7002 195.9 38.0002ZM197.2 36.2002C197.2 37.2002 196.8 38.2002 195.8 39.2002L195.3 38.8002C196 38.2002 196.4 37.6002 196.6 36.9002H195.8V36.3002H197.3L197.2 36.2002ZM200 38.5002L199.5 39.1002C199 38.7002 198.6 38.2002 198.1 37.4002V38.6002C198.1 38.8002 198.1 39.0002 197.8 39.1002C197.6 39.2002 197.2 39.3002 196.7 39.3002L196.5 38.6002C196.9 38.6002 197.1 38.6002 197.2 38.6002C197.3 38.6002 197.4 38.6002 197.4 38.5002V35.6002H195.9V33.0002H196.9C197 32.8002 197.2 32.5002 197.3 32.3002L198 32.5002C198 32.7002 197.8 32.9002 197.7 33.1002H199.5V35.7002H198.1V36.3002C198.1 36.4002 198.2 36.6002 198.4 36.7002C198.6 36.5002 198.9 36.3002 199.2 35.9002L199.7 36.3002C199.4 36.6002 199.1 36.9002 198.7 37.2002C199 37.6002 199.4 38.0002 199.9 38.5002H200ZM198.8 34.0002V33.5002H196.6V34.0002H198.8ZM198.8 35.1002V34.6002H196.6V35.1002H198.8Z" fill="black"/>
<path d="M207.899 39.1003H200.899V38.4003H203.799V32.3003H204.499V34.7003H207.499V35.4003H204.499V38.4003H207.899V39.1003Z" fill="black"/>
<path d="M208.8 45.3001C208.8 45.6001 208.6 46.0001 208.5 46.3001L208.3 46.8001V51.3001H208V47.5001C207.8 47.9001 207.6 48.2001 207.4 48.4001L207.1 48.1001C207.7 47.4001 208.1 46.4001 208.5 45.1001H208.8V45.3001ZM213.2 50.7001L213 51.0001C212.6 50.8001 212.1 50.4001 211.6 49.9001C211.6 50.1001 211.6 50.2001 211.6 50.3001C211.6 50.6001 211.6 50.8001 211.5 50.9001C211.5 51.0001 211.3 51.1001 211.2 51.2001C211.1 51.2001 210.8 51.2001 210.5 51.2001C210.2 51.2001 210.3 51.2001 210.2 51.2001V50.9001C210.7 50.9001 211 50.9001 211.1 50.9001C211.2 50.9001 211.3 50.7001 211.3 50.4001C211.3 50.1001 211.3 50.1001 211.3 49.9001C210.7 50.3001 209.9 50.7001 208.8 51.1001L208.6 50.8001C209.7 50.5001 210.6 50.1001 211.2 49.6001C211.2 49.6001 211.2 49.4001 211 49.2001C210.4 49.6001 209.7 50.0001 208.8 50.2001L208.6 49.9001C209.6 49.6001 210.3 49.3001 210.9 48.9001C210.9 48.8001 210.7 48.7001 210.6 48.6001C210.1 48.9001 209.5 49.1001 208.7 49.3001L208.5 49.0001C209.3 48.9001 210 48.6001 210.6 48.2001H209.2V47.0001C209.1 47.1001 208.9 47.2001 208.8 47.3001L208.6 47.0001C209.4 46.4001 210 45.9001 210.3 45.3001L210.6 45.5001C210.6 45.6001 210.5 45.7001 210.4 45.8001H212.1V46.1001C211.9 46.3001 211.7 46.6001 211.5 46.8001H212.8V48.1001H211.2C211.1 48.2001 211 48.3001 210.9 48.4001C211.1 48.7001 211.3 48.9001 211.5 49.3001C211.9 49.1001 212.3 48.8001 212.8 48.4001L213.1 48.6001C212.7 48.9001 212.3 49.2001 211.8 49.5001C212.3 50.1001 212.9 50.5001 213.4 50.8001L213.2 50.7001ZM211.6 45.9001H210.1C209.8 46.2001 209.6 46.4001 209.3 46.6001H211C211.2 46.3001 211.5 46.1001 211.6 45.9001ZM210.8 47.7001V47.0001H209.5V47.7001H210.8ZM212.5 47.7001V47.0001H211.2V47.7001H212.5Z" fill="#AA8420" stroke="#AA8420" stroke-width="0.1" stroke-miterlimit="10"/>
<path d="M220.2 47.6001H217.3C216.8 48.0001 216.3 48.2001 215.8 48.4001H216.9C217.6 48.4001 218 48.4001 218 48.4001C218.3 48.3001 218.5 48.1001 218.9 47.9001L219.2 48.1001C218 48.8001 216.9 49.3001 215.7 49.6001C216.9 49.6001 218.1 49.6001 219.2 49.4001C219 49.2001 218.9 49.1001 218.7 48.9001L219 48.7001C219.5 49.1001 219.9 49.6001 220.2 50.0001L219.9 50.2001C219.7 50.0001 219.6 49.8001 219.5 49.7001C218.8 49.7001 218.1 49.8001 217.4 49.8001V50.8001C217.4 51.0001 217.4 51.1001 217.2 51.2001C217.1 51.2001 216.9 51.3001 216.5 51.3001C216.1 51.3001 216.3 51.3001 216.3 51.3001V50.9001C216.3 50.9001 216.5 50.9001 216.6 50.9001C216.8 50.9001 216.9 50.9001 216.9 50.9001C216.9 50.9001 216.9 50.9001 216.9 50.8001V49.8001C216.3 49.8001 215.5 49.8001 214.5 49.8001V49.5001C215.4 49.3001 216.3 49.0001 217.2 48.6001C216.7 48.6001 216.1 48.6001 215.5 48.6001C214.9 48.6001 215.1 48.6001 215 48.6001V48.3001C215.5 48.1001 216.1 47.8001 216.6 47.5001H214V47.2001H216.9V46.6001H214.7V46.3001H216.9V45.8001H214.3V45.5001H216.9V45.1001H217.3V45.5001H219.8V45.8001H217.3V46.3001H219.4V46.6001H217.3V47.2001H220.1V47.5001L220.2 47.6001ZM216.2 50.2001C215.8 50.5001 215.2 50.9001 214.4 51.2001L214.2 50.9001C214.9 50.6001 215.5 50.3001 216 50.0001L216.3 50.3001L216.2 50.2001ZM220.1 50.9001L219.9 51.2001C219.4 50.8001 218.8 50.5001 218.1 50.2001L218.3 49.9001C219 50.2001 219.6 50.5001 220.1 50.9001Z" fill="#AA8420" stroke="#AA8420" stroke-width="0.1" stroke-miterlimit="10"/>
</svg>
