<svg width="196" height="71" viewBox="0 0 196 71" fill="none" xmlns="http://www.w3.org/2000/svg">
<g clip-path="url(#clip0_86_4656)">
<path d="M46.5998 70.3H39.2998V0H46.5998V0.2H39.4998V70H46.5998V70.2V70.3Z" fill="#231815"/>
<path d="M157.8 70.3H150.5V70.1H157.6V0.2H150.5V0H157.8V70.3Z" fill="#231815"/>
<path d="M4.1002 40.8H5.5002V48H4.8002V41.5H3.7002L4.1002 40.8Z" fill="#AA8420"/>
<path d="M9.00039 43H8.30039C8.30039 42.3 8.60039 41.7 9.00039 41.2C9.50039 40.8 10.0004 40.5 10.6004 40.5C11.2004 40.5 11.8004 40.7 12.2004 41.1C12.6004 41.5 12.8004 42 12.8004 42.6C12.8004 43.2 12.7004 43.5 12.4004 43.8C12.2004 44.2 11.8004 44.6 11.3004 45.1L9.50039 47H12.8004V47.7H7.90039L10.6004 44.7C11.1004 44.2 11.4004 43.8 11.6004 43.5C11.8004 43.2 11.9004 42.9 11.9004 42.5C11.9004 42.1 11.7004 41.8 11.4004 41.5C11.1004 41.2 10.7004 41.1 10.3004 41.1C9.90039 41.1 9.50039 41.2 9.20039 41.6C8.90039 41.9 8.70039 42.3 8.70039 42.9L9.00039 43Z" fill="#AA8420"/>
<path d="M167.5 40.6001V41.3001H164.9L164.5 43.3001C164.8 43.3001 165.1 43.2001 165.4 43.2001C166 43.2001 166.6 43.4001 167 43.9001C167.4 44.3001 167.6 44.9001 167.6 45.6001C167.6 46.3001 167.4 46.9001 166.9 47.4001C166.4 47.9001 165.8 48.1001 165.1 48.1001C164.4 48.1001 164 47.9001 163.6 47.6001C163.2 47.3001 163 46.8001 162.9 46.2001H163.6C163.6 46.6001 163.9 46.9001 164.1 47.1001C164.4 47.3001 164.7 47.4001 165 47.4001C165.3 47.4001 165.9 47.2001 166.2 46.9001C166.5 46.6001 166.7 46.1001 166.7 45.6001C166.7 45.1001 166.6 44.7001 166.3 44.4001C166 44.1001 165.6 43.9001 165.1 43.9001C164.6 43.9001 164.1 44.0001 163.5 44.3001L164.2 40.7001H167.3L167.5 40.6001Z" fill="#AA8420"/>
<path d="M170.9 47.9001C170.1 47.9001 169.5 47.6001 169.1 46.9001C168.7 46.2001 168.5 45.3 168.5 44.1C168.5 42.9 168.7 41.9 169.1 41.3C169.5 40.7 170.1 40.3 170.9 40.3C171.7 40.3 172.3 40.6 172.7 41.3C173.1 41.9 173.4 42.9 173.4 44.1C173.4 45.3 173.2 46.3001 172.7 46.9001C172.2 47.6001 171.6 47.9001 170.9 47.9001ZM170.9 41.1C170.3 41.1 169.9 41.4001 169.6 41.9001C169.3 42.4001 169.1 43.2001 169.1 44.2001C169.1 46.3001 169.7 47.3 170.9 47.3C172.1 47.3 171.9 47 172.2 46.5C172.5 46 172.7 45.2001 172.7 44.2001C172.7 43.2001 172.5 42.4001 172.2 41.9001C171.9 41.4001 171.4 41.1 170.9 41.1Z" fill="#AA8420"/>
<path d="M107.4 49.6L101.6 39.9C101.6 39.9 101.4 39.7 101.4 39.3V21.4H99.1996V39.9C99.3996 40.1 103 46.3 103 46.3H93.9996C93.9996 46.3 97.5996 40.1 97.7996 39.9V21.4H95.5996V39.3C95.5996 39.7 95.3996 39.9 95.3996 39.9L89.5996 49.6H107.3H107.4Z" fill="#AA8420"/>
<path d="M105.6 8.9C105.6 8.9 106.7 4.4 102.8 1.4C102.8 1.4 101.3 0 98.2996 0C95.2996 0 94.0996 1.4 94.0996 1.4C90.4996 3.9 91.4996 8.9 91.4996 8.9H105.6Z" fill="#AA8420"/>
<path d="M91.9002 10.1H105.2C105.3 9.90005 105.4 9.60005 105.5 9.30005H91.7002C91.7002 9.60005 91.9002 9.80005 92.0002 10.1" fill="#AA8420"/>
<path d="M105 10.6H92.0996C92.1996 10.9 92.3996 11.1 92.4996 11.4H104.5C104.7 11.2 104.8 10.9 104.9 10.6" fill="#AA8420"/>
<path d="M93.3998 12.5H103.6C103.8 12.3 104 12.1 104.1 11.9H92.7998C92.9998 12.1 93.0998 12.3 93.2998 12.5" fill="#AA8420"/>
<path d="M94.4998 13.4H102.5C102.7 13.3 102.9 13.1 103.1 12.9H93.7998C93.9998 13.1 94.1998 13.2 94.3998 13.4H94.4998Z" fill="#AA8420"/>
<path d="M95.7002 14C96.6002 14.4 97.6002 14.6 98.6002 14.6C99.6002 14.6 100.6 14.4 101.5 14H95.7002Z" fill="#AA8420"/>
<path d="M112.3 15H101.4C101.4 15 100.4 15 99.6 15.6C99 16 98.5 17 98.5 17.1C98.5 17.1 98 16.1 97.4 15.6C96.6 15 95.6 15 95.6 15H84.7L82.5 18.5H92.5C92.5 18.5 92.8 18.5 93 18.5C93.3 18.5 93.8 18.7 94.4 19.1C95.1 19.6 95.3 19.9 95.5 20.1L95.8 20.5H101.2C101.2 20.5 101.4 20.2 101.5 20.1C101.7 19.9 101.9 19.6 102.6 19.1C103.1 18.7 103.6 18.6 103.9 18.5C104.1 18.5 104.4 18.5 104.4 18.5H114.4L112.2 15H112.3Z" fill="#003477"/>
<path d="M83.7002 19.6V36.2C83.7002 36.4 83.7002 36.5 83.7002 36.7C83.9002 38.5 84.4002 39.7 85.4002 41.5C87.0002 44.2 89.9002 46 89.9002 46L91.3002 43.8C91.3002 43.8 89.4002 42.8 88.0002 40.5C87.7002 40 87.4002 39.6 87.2002 39.2C87.0002 38.8 86.9002 38.5 86.8002 38.1C86.8002 37.9 86.6002 37.6 86.6002 37.4C86.6002 37.1 86.5002 36.9 86.5002 36.6V36.1V19.5H83.8002L83.7002 19.6Z" fill="#003477"/>
<path d="M87.7998 19.6V36.1C87.7998 36.3 87.7998 36.4 87.7998 36.5C87.7998 36.5 87.7998 36.6 87.7998 36.7C87.7998 37 87.8998 37.2 87.9998 37.5C88.1998 38.1 88.4998 38.7 88.9998 39.5C90.1998 41.5 91.9998 42.4 91.9998 42.4L93.3998 40.3C93.3998 40.3 92.9998 40.1 92.3998 39.5C91.9998 39.2 91.5998 38.7 91.1998 38.1C90.7998 37.5 90.5998 37 90.4998 36.5C90.3998 36.1 90.3998 35.9 90.3998 35.7V19.5H87.7998V19.6Z" fill="#003477"/>
<path d="M113.4 19.6V36.2C113.4 36.4 113.4 36.5 113.4 36.7C113.2 38.5 112.7 39.7 111.7 41.5C110.1 44.2 107.2 46 107.2 46L105.8 43.8C105.8 43.8 107.6 42.8 109.1 40.5C109.4 40 109.7 39.6 109.9 39.2C110.1 38.8 110.2 38.5 110.4 38.1C110.4 37.9 110.6 37.6 110.6 37.4C110.6 37.1 110.7 36.9 110.7 36.6V36.1V19.5H113.4V19.6Z" fill="#003477"/>
<path d="M109.3 19.6V36.1C109.3 36.3 109.3 36.4 109.3 36.5C109.3 36.5 109.3 36.6 109.3 36.7C109.3 37 109.2 37.2 109.1 37.5C108.9 38.1 108.6 38.7 108.1 39.5C106.9 41.5 105.1 42.4 105.1 42.4L103.7 40.3C103.7 40.3 104.1 40.1 104.7 39.5C105.1 39.2 105.5 38.7 105.9 38.1C106.3 37.5 106.5 37 106.6 36.5C106.7 36.1 106.7 35.9 106.7 35.7V19.5H109.3V19.6Z" fill="#003477"/>
<path d="M73 62.4H66.3V57.2H64.5V70.0999H66.3V63.9H73V70.0999H74.8V57.2H73V62.4Z" fill="#003477"/>
<path d="M91.1 57.2H88.8L82.8 62.7999V57.2H81V70.0999H82.8V64.6999L83.5 64.0999L88.8 70.0999H91.2L84.8 63L91.1 57.2Z" fill="#003477"/>
<path d="M104.5 64.8C104.5 66.9 103.8 68.8 101.1 68.8C98.4004 68.8 97.7004 66.9 97.7004 64.8V57.2H95.9004V65.3C95.9004 68.1 97.8004 70.3 101.1 70.3C104.4 70.3 106.3 68.1 106.3 65.3V57.2H104.5V64.8Z" fill="#003477"/>
<path d="M117.1 62.5L116.1 62.1C115.2 61.8 114.1 61.3 114.1 60.3C114.1 59.3 115.3 58.5 116.4 58.5C117.5 58.5 118.1 58.9 118.7 59.7L120.1 58.9C119.3 57.7 118 57 116.5 57C115 57 112.3 58.2 112.3 60.3C112.3 62.4 113.8 62.9 115.4 63.6L116.4 64C117.6 64.5 118.8 65.1 118.8 66.4C118.8 67.7 117.7 68.9 116.2 68.9C114.7 68.9 113.5 67.9 113.5 66.5L111.7 66.8C112 68.9 113.8 70.4 116.1 70.4C118.4 70.4 120.6 68.7 120.6 66.4C120.6 64.1 119.1 63.2 117.1 62.5Z" fill="#003477"/>
<path d="M125 57.2V58.7H128.3V70.0999H130.1V58.7H133.5V57.2H125Z" fill="#003477"/>
<path d="M16.0996 30.1C15.3996 30.4 14.5996 30.6 13.7996 30.7V32.4H15.8996V33.0999H13.7996V35.0999C14.5996 34.8999 15.3996 34.6 15.9996 34.4V35.2C14.9996 35.6 13.8996 35.9 12.7996 36.2L12.5996 35.5C12.7996 35.5 12.8996 35.5 12.9996 35.5V30.2999C13.9996 30.1999 14.8996 30 15.6996 29.7L16.0996 30.2999V30.1ZM19.3996 34.9C19.3996 35.1 19.3996 35.3 19.1996 35.4C18.9996 35.5 18.8996 35.5999 18.7996 35.5999C18.6996 35.5999 18.3996 35.5999 18.0996 35.5999C17.7996 35.5999 17.6996 35.5999 17.5996 35.5999L17.2996 34.7999C17.4996 34.7999 17.7996 34.7999 18.3996 34.7999C18.9996 34.7999 18.5996 34.7999 18.5996 34.5999V30.4H16.9996V36.4H16.2996V29.7H19.3996V34.7999V34.9Z" fill="black"/>
<path d="M24.8992 31.8H21.7992V32.9C21.7992 34.4 21.5992 35.7 21.2992 36.6L20.6992 36.2C20.9992 35.4 21.0992 34.5 21.0992 33.4V29.7H24.8992V31.8ZM24.1992 31.2V30.4H21.7992V31.2H24.1992ZM24.8992 35.4C24.8992 35.6 24.8992 35.8 24.6992 35.8C24.4992 35.8 24.3992 35.9 24.0992 35.8L23.8992 35.2C23.8992 35.2 23.8992 35.2 23.9992 35.2C24.1992 35.2 24.1992 35.2 24.1992 35V33.4H23.6992V36.3H23.0992V33.4H22.6992V35.8H22.0992V32.7H23.1992V32H23.7992V32.7H24.8992V35.2V35.4ZM26.0992 35H25.3992V30H26.0992V35ZM27.3992 35.8C27.3992 36.1 27.3992 36.3 27.1992 36.4C26.9992 36.4 26.7992 36.5 26.3992 36.5C25.9992 36.5 25.9992 36.5 25.8992 36.5L25.6992 35.8C25.8992 35.8 26.0992 35.8 26.2992 35.8C26.4992 35.8 26.5992 35.8 26.6992 35.8C26.7992 35.8 26.6992 35.8 26.6992 35.6V29.5H27.3992V35.8Z" fill="black"/>
<path d="M21.0996 43H15.1996V42.7H17.9996C17.9996 42.5 17.7996 42.4 17.6996 42.3L17.9996 42.1C18.0996 42.3 18.1996 42.5 18.2996 42.7H20.9996V43H21.0996ZM21.0996 47.4C21.0996 47.7 21.0996 47.9 20.8996 48C20.7996 48.1 20.5996 48.2 20.4996 48.2H18.1996C17.9996 48.2 17.8996 48.2 17.7996 48C17.6996 47.9 17.5996 47.7 17.5996 47.5V47.3L15.0996 47.5V47.2L17.5996 47V46.6L15.4996 46.8V46.5L17.5996 46.3V45.9C17.0996 45.9 16.5996 45.9 15.9996 45.9V45.6C17.3996 45.6 18.7996 45.6 19.7996 45.3L19.9996 45.6C19.3996 45.7 18.6996 45.8 17.8996 45.9V46.3L20.4996 46.1V46.4L17.8996 46.6V47L20.8996 46.8V47.1L17.8996 47.3V47.6C17.8996 47.6 17.8996 47.7 17.8996 47.8C17.8996 47.8 17.9996 47.8 18.0996 47.8H20.1996C20.4996 47.8 20.5996 47.6 20.5996 47.2H20.8996L21.0996 47.4ZM20.9996 45.8H20.5996V45.1H15.5996V45.8H15.1996V44.8H20.9996V45.8ZM20.4996 44.4H15.7996V43.4H20.4996V44.4ZM20.0996 44.1V43.7H16.1996V44.1H20.0996Z" fill="#AA8420" stroke="#AA8420" stroke-width="0.1" stroke-miterlimit="10"/>
<path d="M24.2 45.9C23.8 46.7 23.1 47.4 22.3 48L22 47.7C22.8 47.1 23.4 46.5 23.8 45.7L24.1 45.9H24.2ZM28.1 45H25.3V48.3H24.9V45H22.1V44.6H24.9V42.1H25.3V44.6H28.1V45ZM23.9 44L23.6 44.2C23.4 43.8 23.1 43.3 22.7 42.8L23 42.6C23.4 43.1 23.7 43.5 23.9 44ZM28.1 47.6L27.8 47.9C27.4 47.2 26.8 46.5 26 45.9L26.3 45.7C26.9 46.2 27.5 46.9 28.1 47.7V47.6ZM27.5 42.7C27.2 43.3 26.9 43.8 26.6 44.2L26.2 44C26.5 43.7 26.8 43.2 27.1 42.5L27.4 42.7H27.5Z" fill="#AA8420" stroke="#AA8420" stroke-width="0.1" stroke-miterlimit="10"/>
<path d="M164.1 34.6C164 35.3 163.8 36 163.6 36.5L163 36.3C163.2 35.7 163.4 35.1 163.5 34.5H164.1V34.6ZM166 31C165.4 32.1 164.8 32.9 164.2 33.6C164.4 33.6 164.7 33.5 165.1 33.4C165.1 33.3 165.1 33.1 164.9 33L165.4 32.8C165.6 33.2 165.8 33.7 165.9 34.1L165.4 34.3C165.4 34.1 165.4 34 165.4 33.9C164.8 34.1 164.2 34.2 163.4 34.3V33.7C163.7 33.3 164.2 32.8 164.6 32.1C164.3 32.1 163.9 32.2 163.4 32.3V31.8C163.8 31.2 164.3 30.4 164.7 29.4L165.3 29.6C165 30.3 164.6 30.9 164.2 31.6C164.5 31.6 164.8 31.6 165 31.5C165.2 31.3 165.3 31 165.5 30.7L166.1 30.9L166 31ZM165.2 36.2H164.6C164.6 35.8 164.6 35.2 164.4 34.6H165C165.1 35.1 165.2 35.6 165.2 36.2ZM166.1 35.2L165.6 35.4C165.6 35.1 165.4 34.8 165.3 34.5L165.8 34.3C165.9 34.6 166 34.9 166.1 35.2ZM167.4 33.3C167.4 34.3 167 35.3 166 36.3L165.5 35.9C166.2 35.3 166.6 34.7 166.8 34H166V33.4H167.5L167.4 33.3ZM170.2 35.7L169.7 36.3C169.2 35.9 168.8 35.4 168.3 34.6V35.8C168.3 36 168.3 36.2 168 36.3C167.8 36.4 167.4 36.5 166.9 36.5L166.7 35.8C167.1 35.8 167.3 35.8 167.4 35.8C167.5 35.8 167.6 35.8 167.6 35.7V32.8H166.1V30.2H167.1C167.2 30 167.4 29.7 167.5 29.5L168.2 29.7C168.2 29.9 168 30.1 167.9 30.3H169.7V32.9H168.3V33.5C168.3 33.6 168.4 33.8 168.6 33.9C168.8 33.7 169.1 33.5 169.4 33.1L169.9 33.5C169.6 33.8 169.3 34.1 168.9 34.4C169.2 34.8 169.6 35.2 170.1 35.7H170.2ZM169 31.2V30.7H166.8V31.2H169ZM169 32.3V31.8H166.8V32.3H169Z" fill="black"/>
<path d="M178.1 36.3H171.1V35.6H174V29.5H174.7V31.9H177.7V32.6H174.7V35.6H178.1V36.3Z" fill="black"/>
<path d="M177.099 41.9001C177.099 42.2001 176.899 42.6001 176.799 42.9001L176.599 43.4001V47.9001H176.299V44.1001C176.099 44.5001 175.899 44.8001 175.699 45.0001L175.399 44.7001C175.999 44.0001 176.399 43.0001 176.799 41.7001H177.099V41.9001ZM181.599 47.3001L181.399 47.6001C180.999 47.4001 180.499 47.0001 179.999 46.5001C179.999 46.7001 179.999 46.8001 179.999 46.9001C179.999 47.2001 179.999 47.4001 179.899 47.5001C179.899 47.6001 179.699 47.7001 179.599 47.8001C179.499 47.8001 179.199 47.8001 178.899 47.8001C178.599 47.8001 178.699 47.8001 178.599 47.8001V47.5001C179.099 47.5001 179.399 47.5001 179.499 47.5001C179.599 47.5001 179.699 47.3001 179.699 47.0001C179.699 46.7001 179.699 46.7001 179.699 46.5001C179.099 46.9001 178.299 47.3001 177.199 47.7001L176.999 47.4001C178.099 47.1001 178.999 46.7001 179.599 46.2001C179.599 46.2001 179.599 46.0001 179.399 45.8001C178.799 46.2001 178.099 46.6001 177.199 46.8001L176.999 46.5001C177.999 46.2001 178.699 45.9001 179.299 45.5001C179.299 45.4001 179.099 45.3001 178.999 45.2001C178.499 45.5001 177.899 45.7001 177.099 45.9001L176.899 45.6001C177.699 45.5001 178.399 45.2001 178.999 44.8001H177.599V43.6001C177.499 43.7001 177.299 43.8001 177.199 43.9001L176.999 43.6001C177.799 43.0001 178.399 42.5001 178.699 41.9001L178.999 42.1001C178.999 42.2001 178.899 42.3001 178.799 42.4001H180.499V42.7001C180.299 42.9001 180.099 43.2001 179.899 43.4001H181.199V44.7001H179.599C179.499 44.8001 179.399 44.9001 179.299 45.0001C179.499 45.3001 179.699 45.5001 179.899 45.9001C180.299 45.7001 180.699 45.4001 181.199 45.0001L181.499 45.2001C181.099 45.5001 180.699 45.8001 180.199 46.1001C180.699 46.7001 181.299 47.1001 181.799 47.4001L181.599 47.3001ZM179.999 42.6001H178.499C178.199 42.9001 177.999 43.1001 177.699 43.3001H179.399C179.599 43.0001 179.899 42.8001 179.999 42.6001ZM179.199 44.3001V43.6001H177.899V44.3001H179.199ZM180.799 44.3001V43.6001H179.499V44.3001H180.799Z" fill="#AA8420" stroke="#AA8420" stroke-width="0.1" stroke-miterlimit="10"/>
<path d="M188.599 44.2001H185.699C185.199 44.6001 184.699 44.8001 184.199 45.0001H185.299C185.999 45.0001 186.399 45.0001 186.399 45.0001C186.699 44.9001 186.899 44.7001 187.299 44.5001L187.599 44.7001C186.399 45.4001 185.299 45.9001 184.099 46.2001C185.299 46.2001 186.499 46.2001 187.599 46.0001C187.399 45.8001 187.299 45.7001 187.099 45.5001L187.399 45.3001C187.899 45.7001 188.299 46.2001 188.599 46.6001L188.299 46.8001C188.099 46.6001 187.999 46.4001 187.899 46.3001C187.199 46.3001 186.499 46.4001 185.799 46.4001V47.4001C185.799 47.6001 185.799 47.7001 185.599 47.8001C185.499 47.8001 185.299 47.9001 184.899 47.9001C184.499 47.9001 184.699 47.9001 184.699 47.9001V47.5001C184.699 47.5001 184.899 47.5001 184.999 47.5001C185.199 47.5001 185.299 47.5001 185.299 47.5001C185.299 47.5001 185.299 47.5001 185.299 47.4001V46.4001C184.699 46.4001 183.899 46.4001 182.899 46.4001V46.1001C183.799 45.9001 184.699 45.6001 185.599 45.2001C185.099 45.2001 184.499 45.2001 183.899 45.2001C183.299 45.2001 183.499 45.2001 183.399 45.2001V44.9001C183.899 44.7001 184.499 44.4001 184.999 44.1001H182.399V43.8001H185.299V43.2001H183.099V42.9001H185.299V42.4001H182.699V42.1001H185.299V41.7001H185.699V42.1001H188.199V42.4001H185.699V42.9001H187.799V43.2001H185.699V43.8001H188.499V44.1001L188.599 44.2001ZM184.599 46.9001C184.199 47.2001 183.599 47.6001 182.799 47.9001L182.599 47.6001C183.299 47.3001 183.899 47.0001 184.399 46.7001L184.699 47.0001L184.599 46.9001ZM188.499 47.6001L188.299 47.9001C187.799 47.5001 187.199 47.2001 186.499 46.9001L186.699 46.6001C187.399 46.9001 187.999 47.2001 188.499 47.6001Z" fill="#AA8420" stroke="#AA8420" stroke-width="0.1" stroke-miterlimit="10"/>
</g>
<defs>
<clipPath id="clip0_86_4656">
<rect width="196" height="71" fill="white"/>
</clipPath>
</defs>
</svg>
