<svg width="266" height="62" viewBox="0 0 266 62" fill="none" xmlns="http://www.w3.org/2000/svg">
<g clip-path="url(#clip0_85_4389)">
<path d="M93.2998 12.7C93.5998 12.3 93.6998 11.7 93.6998 11.7H76.2998C76.2998 11.7 76.4998 12.4 76.6998 12.7H93.2998Z" fill="#AA8420"/>
<path d="M92.2996 14.1C92.5996 13.8 92.9996 13.2 92.9996 13.2H77.0996C77.0996 13.2 77.2996 13.6 77.6996 14.1H92.3996H92.2996Z" fill="#AA8420"/>
<path d="M91.1002 15.4999C91.5002 15.2999 91.8002 14.8999 91.8002 14.8999H78.2002C78.2002 14.8999 78.5002 15.2999 78.9002 15.4999H91.1002Z" fill="#AA8420"/>
<path d="M89.5002 16.7C89.9002 16.6 90.3002 16.2 90.3002 16.2H79.7002C79.7002 16.2 79.7002 16.2 80.5002 16.7H89.5002Z" fill="#AA8420"/>
<path d="M81.5996 17.5C81.5996 17.5 82.6996 18.1 84.8996 18.1C87.0996 18.1 88.4996 17.5 88.4996 17.5H81.5996Z" fill="#AA8420"/>
<path d="M81.4998 19C81.4998 19 82.7998 19 83.5998 19.7C84.3998 20.3 84.8998 21.4 84.8998 21.4C84.8998 21.4 85.3998 20.4 86.0998 19.8C86.8998 19.2 88.0998 19 88.0998 19H101.8L104.5 23H92.1998C92.1998 23 91.2998 23 89.9998 23.8C89.2998 24.2 88.7998 24.9 88.7998 24.9C88.7998 24.9 88.7998 25.2 88.5998 25.4C88.4998 25.6 88.2998 25.7 88.1998 25.8C87.9998 25.8 88.0998 25.8 88.0998 25.8H81.6998C81.6998 25.8 81.3998 25.7 81.2998 25.5C81.1998 25.3 81.2998 25.4 81.0998 25.2C80.9998 25 80.6998 24.6 79.7998 23.9C78.7998 23.2 77.7998 23.2 77.7998 23.2H65.2998L67.9998 19.1H81.4998V19Z" fill="#003477"/>
<path d="M71.7998 24.7V45.2C71.7998 45.2 71.7998 47 73.3998 49.4C74.8998 51.9 77.0998 53 77.0998 53L78.7998 50.2999C78.7998 50.2999 77.2998 49.4 76.0998 47.7C74.9998 46 74.9998 44.5 74.9998 44.5V24.7999H71.7998V24.7Z" fill="#003477"/>
<path d="M94.9998 24.6001V44.3001C94.9998 44.3001 94.7998 46.3001 93.7998 47.7001C92.8998 49.1001 91.2998 50.3001 91.2998 50.3001L92.9998 53.0001C92.9998 53.0001 95.4998 51.2001 96.6998 49.2001C97.8998 47.2001 98.1998 44.3001 98.1998 44.3001V24.6001H94.9998Z" fill="#003477"/>
<path d="M66.5996 24.7V45.2C66.5996 45.2 66.7996 48.4 68.7996 51.7C70.7996 55 74.3996 57.2999 74.3996 57.2999L76.0996 54.5999C76.0996 54.5999 73.7996 53.3999 71.9996 50.5999C70.0996 47.7999 69.9996 45.2 69.9996 45.2V24.7H66.5996Z" fill="#003477"/>
<path d="M81.5 26.8V48.5C81.5 48.5 81.5 48.5001 81.4 48.9001C81.4 49.2001 81.2 49.4001 81.2 49.4001L74 61.4001H96.2L89 49.2001L88.8 48.7001V48.1V26.9H86.1V48.9001C86.1 48.9001 86.1 49.2 86.2 49.5C86.2 49.8 86.4 50.2001 86.4 50.2001L90.9 57.5H79.6L84 50.2001C84 50.2001 84.1 50 84.2 49.6C84.2 49.3 84.3 49 84.3 49V27H81.7L81.5 26.8Z" fill="#AA8420"/>
<path d="M100 24.6V44.8C100 44.8 100 47.4 98.1 50.4C96.2 53.4 94 54.6 94 54.6L95.6 57.3C95.6 57.3 98.9 55.2 101 51.9C103.1 48.6 103.3 44.7 103.3 44.7V24.5H100V24.6Z" fill="#003477"/>
<path d="M76.2003 11.1001C76.2003 11.1001 75.1003 5.0001 79.5003 2.0001C79.5003 2.0001 81.5004 0.100098 84.8004 0.100098C88.1004 0.100098 90.3004 1.9001 90.3004 1.9001C95.2004 5.5001 93.7003 11.0001 93.7003 11.0001H76.1003L76.2003 11.1001Z" fill="#AA8420"/>
<path d="M130 24.7V23.1H122.1V21.5C124.6 21.3 126.8 21 128.5 20.7L127.7 19.2C125.1 19.8 121.3 20.1 116.3 20.1C111.3 20.1 114.4 20.1 113.6 20.1L114.2 21.7999C115.4 21.7999 117.5 21.8 120.3 21.7V23.2H112.6V24.7999H118.4C116.7 26.1999 114.7 27.1999 112.4 27.7999L113.3 29.5C114.1 29.3 114.6 29 114.9 28.9V37H116.7V36.0999H126V37H127.8V28.7999C128 28.8999 128.3 29 128.6 29.1C128.9 29.1 129.2 29.3 129.4 29.4L130.2 27.7C127.5 27.2 125.4 26.1999 124 24.7999H130.1L130 24.7ZM116 28.2C117.8 27.4 119.2 26.3 120.3 24.7V28.2H116ZM125.9 34.4H116.6V32.7H125.9V34.4ZM125.9 31.2H116.6V29.7999H125.9V31.2ZM126.7 28.2H122.1V24.7C123.3 26.3 124.8 27.4 126.7 28.2Z" fill="#003477"/>
<path d="M139.6 26.3C138.6 25.6 137.7 24.9 136.8 24.5L135.7 25.9C136.4 26.4 137.3 27.1 138.3 27.9L139.6 26.3Z" fill="#003477"/>
<path d="M150.6 34.0001C150.5 34.4001 150.2 34.6001 149.7 34.6001H144.1C143.7 34.6001 143.4 34.4001 143.4 33.9001V32.7001H149.5V28.8001C150.3 29.5001 151.2 30.2001 152.4 30.8001L153.2 29.1001C151.2 28.1001 149.9 27.1001 149.4 26.1001H153V24.5001H149.6V22.6001H152.7V21.1001H149.6V19.1001H147.9V21.1001H144.5V19.1001H142.8V21.1001H140.3V21.3001C139.6 20.7001 138.7 20.1001 137.6 19.4001L136.4 20.8001C137.2 21.3001 138.2 22.1001 139.2 23.0001L140.4 21.6001V22.6001H142.9V24.5001H140V26.1001H143C142.4 27.3001 141.1 28.3001 139.1 29.3001L140.2 30.9001C141 30.4001 141.6 30.0001 141.9 29.7001V33.9001C141.9 34.7001 142.1 35.3001 142.4 35.7001C142.7 36.0001 143.3 36.2001 144.1 36.2001H150.2C151.2 36.2001 151.8 36.0001 152.1 35.7001C152.4 35.4001 152.7 34.3001 152.9 32.6001L151.1 31.9001C151.1 32.9001 150.9 33.6001 150.8 34.0001H150.6ZM144.4 22.8001H147.8V24.6001H144.4V22.8001ZM144.9 26.2001H147.4C147.8 26.9001 148.1 27.4001 148.5 27.9001H143.7C144.2 27.4001 144.5 26.9001 144.8 26.2001H144.9ZM143.4 29.4001H147.7V31.3001H143.4V29.4001Z" fill="#003477"/>
<path d="M139.5 31L137.9 30C137.5 31.8 136.8 33.5 135.6 35L137.1 36.5C138.2 34.8 139 32.9 139.5 30.9V31Z" fill="#003477"/>
<path d="M171.9 27.3C170.5 26.3 169.4 25.5 168.4 25L167.3 26.3C168.3 26.9 169.4 27.7 170.7 28.8L171.9 27.3Z" fill="#003477"/>
<path d="M172.2 22.8C170.7 21.7 169.6 20.9 168.8 20.5L167.7 21.7C168.6 22.2 169.7 23.1 171.1 24.2L172.3 22.8H172.2Z" fill="#003477"/>
<path d="M164 26V25.8H166.9V24.2001H164V21.6C165 21.4 165.9 21.1 166.8 20.8L166.2 19.3C164.2 20.1 161.8 20.5001 159 20.7001L159.4 22.3C160.7 22.3 161.6 22.1 162.3 22V24.4H158.8V26H162.2C161.4 28.1 160.2 30 158.6 31.8L159.7 33.5C160.9 31.9 161.8 30.5 162.3 29.3V37H164V28.2001C164.3 28.6001 164.7 29.1 165 29.5C165.4 29.9 165.8 30.4 166.1 30.9L167.2 29.3C166.5 28.5 165.4 27.5001 164 26.2001V26Z" fill="#003477"/>
<path d="M172.9 36.8001H174.7V31.4001L176.4 31.1001V29.4001L174.7 29.7001V19.1001H172.9V29.9001L166.6 30.8001V32.6001L172.9 31.6001V36.8001Z" fill="#003477"/>
<path d="M191.1 25.8001C192.4 30.8001 194.7 34.5001 198.1 36.7001L199.6 35.0001C197.7 33.8001 196.3 32.3001 195.2 30.6001C194.1 28.9001 193.5 27.3001 193.2 25.8001H199.2V23.8001H191.2C191.3 22.8001 191.4 21.2001 191.4 19.1001H189.4C189.4 21.1001 189.4 22.7001 189.2 23.8001H182.4V25.8001H188.9C188.6 27.6001 187.8 29.3001 186.6 30.9001C185.3 32.6001 183.8 33.9001 182 34.9001L183.4 36.7001C187.6 33.9001 190.1 30.3001 191 25.7001H191.3L191.1 25.8001Z" fill="#003477"/>
<path d="M124.7 47.7001H116.4V41.3H114.2V57.2001H116.4V49.6H124.7V57.2001H126.9V41.3H124.7V47.7001Z" fill="#003477"/>
<path d="M147.2 41.3H144.4L137 48.2001V41.3H134.8V57.2001H137V50.6L137.9 49.8L144.5 57.2001H147.5L139.5 48.5L147.3 41.4001L147.2 41.3Z" fill="#003477"/>
<path d="M163.7 50.7001C163.7 53.3001 162.8 55.7001 159.5 55.7001C156.2 55.7001 155.3 53.3001 155.3 50.7001V41.3H153.1V51.3C153.1 54.8 155.5 57.5 159.5 57.5C163.5 57.5 165.9 54.8 165.9 51.3V41.3H163.7V50.7001Z" fill="#003477"/>
<path d="M179.4 47.8001L178.2 47.4001C177.1 47.0001 175.8 46.4001 175.8 45.1001C175.8 43.8001 177.3 42.9001 178.7 42.9001C180.1 42.9001 180.9 43.4001 181.5 44.4001L183.2 43.5001C182.2 42.0001 180.6 41.1001 178.7 41.1001C176.8 41.1001 173.6 42.6001 173.6 45.2001C173.6 47.8001 175.4 48.4001 177.4 49.2001L178.6 49.7001C180.1 50.3001 181.6 51.0001 181.6 52.7001C181.6 54.4001 180.3 55.8001 178.4 55.8001C176.5 55.8001 175 54.5001 175 52.8001L172.8 53.2001C173.2 55.8001 175.4 57.7001 178.2 57.7001C181 57.7001 183.8 55.6001 183.8 52.7001C183.8 49.8001 181.9 48.8001 179.5 47.9001L179.4 47.8001Z" fill="#003477"/>
<path d="M189.2 41.3V43.1H193.3V57.2001H195.5V43.1H199.6V41.3H189.1H189.2Z" fill="#003477"/>
<path d="M54.8996 61.4001H47.5996V0.100098H54.8996V0.400098H47.7996V61.2001H54.8996V61.4001Z" fill="#231815"/>
<path d="M216.6 61.4001H209.3V61.2001H216.4V0.400098H209.3V0.100098H216.6V61.4001Z" fill="#231815"/>
<path d="M16.8 38.4001C17.1 38.7001 17.2 39.1 17.2 39.5C17.2 39.9 17 40.6001 16.5 40.9001C16 41.2001 15.4 41.4001 14.6 41.4001C13.8 41.4001 13.2 41.2001 12.7 40.9001C12.2 40.5001 12 40.1 12 39.5C12 38.9 12.1 38.7001 12.4 38.4001C12.7 38.1001 13 37.9 13.5 37.8C13.1 37.7 12.7 37.5001 12.5 37.2001C12.3 36.9001 12.2 36.6001 12.2 36.2001C12.2 35.8001 12.2 35.5001 12.5 35.2001C12.7 34.9001 13 34.7 13.3 34.5C13.6 34.3 14.1 34.3 14.5 34.3C14.9 34.3 15.4 34.3 15.7 34.5C16.1 34.7 16.3 34.9001 16.5 35.2001C16.7 35.5001 16.8 35.8001 16.8 36.2001C16.8 36.6001 16.7 36.9001 16.5 37.2001C16.3 37.5001 15.9 37.7 15.5 37.8C16 37.9 16.3 38.1 16.6 38.5L16.8 38.4001ZM16 40.5C16.3 40.3 16.4 39.9 16.4 39.5C16.4 39.1 16.2 38.8 15.9 38.6C15.6 38.4 15.2 38.2001 14.6 38.2001C14.1 38.2001 13.7 38.4 13.3 38.6C13 38.8 12.8 39.1 12.8 39.5C12.8 39.9 13 40.3 13.2 40.5C13.5 40.7 13.9 40.8 14.5 40.8C15.1 40.8 15.5 40.7 15.8 40.5H16ZM13.5 37.1C13.8 37.3 14.2 37.5 14.6 37.5C15.1 37.5 15.5 37.3 15.7 37.1C16 36.9 16.1 36.6001 16.1 36.2001C16.1 35.8001 16 35.5 15.7 35.3C15.4 35.1 15 35 14.6 35C14.2 35 13.7 35.1 13.4 35.3C13.1 35.5 13 35.8001 13 36.2001C13 36.6001 13.1 36.9 13.4 37.1H13.5Z" fill="#AA8420"/>
<path d="M233.5 39.8999H232.4V41.3999H231.6V39.8999H228.3V39.2999L231.7 34.3999H232.4V39.2999H233.5V39.9999V39.8999ZM231.6 39.1999V35.6999L229.2 39.1999H231.6Z" fill="#AA8420"/>
<path d="M235 40.6C234.6 40 234.4 39.1001 234.4 37.9001C234.4 36.7001 234.6 35.8001 235 35.2001C235.4 34.6001 236 34.3 236.9 34.3C237.8 34.3 238.3 34.6001 238.8 35.2001C239.2 35.8001 239.4 36.7001 239.4 37.9001C239.4 39.1001 239.2 40 238.8 40.6C238.4 41.2 237.8 41.5 236.9 41.5C236 41.5 235.5 41.2 235 40.6ZM238.1 40.1C238.4 39.6 238.5 38.9001 238.5 37.9001C238.5 36.9001 238.4 36.1001 238.1 35.7001C237.8 35.2001 237.4 35 236.8 35C236.2 35 235.8 35.2001 235.6 35.7001C235.3 36.2001 235.2 36.9001 235.2 37.9001C235.2 38.9001 235.3 39.7 235.6 40.1C235.9 40.6 236.3 40.8 236.8 40.8C237.3 40.8 237.8 40.6 238 40.1H238.1Z" fill="#AA8420"/>
<path d="M13.5804 23.0081H17.3724V23.8841H13.5804V23.0081ZM13.5804 26.8001H17.4324V27.6641H13.5804V26.8001ZM22.0524 19.6601H22.9644V26.8241C22.9644 27.0801 22.9284 27.2921 22.8564 27.4601C22.7924 27.6201 22.6644 27.7401 22.4724 27.8201C22.2804 27.9001 22.0244 27.9521 21.7044 27.9761C21.3924 28.0001 21.0124 28.0121 20.5644 28.0121C20.5484 27.9161 20.5204 27.8121 20.4804 27.7001C20.4484 27.5801 20.4084 27.4641 20.3604 27.3521C20.3124 27.2321 20.2644 27.1281 20.2164 27.0401C20.5764 27.0481 20.9044 27.0561 21.2004 27.0641C21.5044 27.0641 21.7084 27.0641 21.8124 27.0641C21.9084 27.0561 21.9724 27.0361 22.0044 27.0041C22.0364 26.9721 22.0524 26.9081 22.0524 26.8121V19.6601ZM13.1364 19.9001L14.0364 20.2361V28.6961H13.1364V19.9001ZM16.8084 18.8441L17.5764 19.5881C17.2164 19.7561 16.8164 19.9241 16.3764 20.0921C15.9444 20.2521 15.4964 20.4041 15.0324 20.5481C14.5684 20.6921 14.1164 20.8281 13.6764 20.9561C13.6524 20.8441 13.6084 20.7161 13.5444 20.5721C13.4884 20.4281 13.4284 20.3041 13.3644 20.2001C13.7724 20.0801 14.1884 19.9441 14.6124 19.7921C15.0444 19.6401 15.4484 19.4801 15.8244 19.3121C16.2084 19.1441 16.5364 18.9881 16.8084 18.8441ZM18.1764 19.6601H22.5564V20.5601H19.0884V29.8121H18.1764V19.6601ZM31.6644 20.0681H32.5164V26.8241H31.6644V20.0681ZM34.0644 19.0481H34.9404V28.6601C34.9404 28.9561 34.9004 29.1761 34.8204 29.3201C34.7404 29.4721 34.6124 29.5881 34.4364 29.6681C34.2524 29.7401 33.9964 29.7881 33.6684 29.8121C33.3484 29.8361 32.9644 29.8481 32.5164 29.8481C32.4924 29.7201 32.4524 29.5641 32.3964 29.3801C32.3404 29.2041 32.2804 29.0481 32.2164 28.9121C32.5684 28.9201 32.8964 28.9241 33.2004 28.9241C33.5044 28.9241 33.7084 28.9241 33.8124 28.9241C33.9084 28.9161 33.9724 28.8961 34.0044 28.8641C34.0444 28.8321 34.0644 28.7641 34.0644 28.6601V19.0481ZM28.0524 22.6001H28.8324V29.8361H28.0524V22.6001ZM30.0804 23.8961H30.8364V27.5801C30.8364 27.7641 30.8164 27.9161 30.7764 28.0361C30.7364 28.1481 30.6524 28.2361 30.5244 28.3001C30.3964 28.3721 30.2324 28.4161 30.0324 28.4321C29.8404 28.4481 29.6004 28.4561 29.3124 28.4561C29.3044 28.3441 29.2764 28.2201 29.2284 28.0841C29.1804 27.9401 29.1244 27.8161 29.0604 27.7121C29.2764 27.7201 29.4604 27.7241 29.6124 27.7241C29.7724 27.7241 29.8804 27.7241 29.9364 27.7241C30.0004 27.7161 30.0404 27.7041 30.0564 27.6881C30.0724 27.6641 30.0804 27.6241 30.0804 27.5681V23.8961ZM25.1724 19.5041H25.9884V23.5601C25.9884 24.0081 25.9764 24.4961 25.9524 25.0241C25.9284 25.5441 25.8804 26.0761 25.8084 26.6201C25.7364 27.1641 25.6284 27.6961 25.4844 28.2161C25.3484 28.7281 25.1644 29.2001 24.9324 29.6321C24.8924 29.5761 24.8284 29.5121 24.7404 29.4401C24.6604 29.3761 24.5764 29.3121 24.4884 29.2481C24.4004 29.1921 24.3204 29.1481 24.2484 29.1161C24.4644 28.7161 24.6324 28.2841 24.7524 27.8201C24.8804 27.3481 24.9724 26.8641 25.0284 26.3681C25.0924 25.8721 25.1324 25.3841 25.1484 24.9041C25.1644 24.4241 25.1724 23.9761 25.1724 23.5601V19.5041ZM25.6164 19.5041H30.7884V22.6601H25.6164V21.8441H29.9364V20.3201H25.6164V19.5041ZM26.2044 23.8961H30.4644V24.6641H26.9004V28.5401H26.2044V23.8961Z" fill="black"/>
<path d="M23.354 35.952H28.664V36.288H23.354V35.952ZM25.748 35.454H26.222V36.168H25.748V35.454ZM23.474 40.026L28.4 39.702L28.43 40.008L23.504 40.338L23.474 40.026ZM23.762 39.348L28.046 39.066L28.076 39.354L23.792 39.642L23.762 39.348ZM27.302 38.34L27.566 38.592C27.354 38.648 27.114 38.7 26.846 38.748C26.578 38.792 26.296 38.832 26 38.868C25.704 38.9 25.402 38.93 25.094 38.958C24.79 38.982 24.494 39.002 24.206 39.018C24.202 38.978 24.19 38.932 24.17 38.88C24.154 38.828 24.138 38.786 24.122 38.754C24.398 38.738 24.686 38.716 24.986 38.688C25.286 38.66 25.58 38.63 25.868 38.598C26.156 38.562 26.422 38.522 26.666 38.478C26.914 38.434 27.126 38.388 27.302 38.34ZM25.586 38.766H26.03V40.386C26.03 40.486 26.06 40.55 26.12 40.578C26.18 40.61 26.312 40.626 26.516 40.626C26.552 40.626 26.616 40.626 26.708 40.626C26.8 40.626 26.906 40.626 27.026 40.626C27.146 40.626 27.266 40.626 27.386 40.626C27.51 40.626 27.622 40.626 27.722 40.626C27.826 40.626 27.904 40.626 27.956 40.626C28.052 40.626 28.126 40.614 28.178 40.59C28.23 40.566 28.266 40.52 28.286 40.452C28.31 40.38 28.326 40.276 28.334 40.14C28.382 40.172 28.442 40.2 28.514 40.224C28.59 40.244 28.658 40.26 28.718 40.272C28.698 40.452 28.664 40.592 28.616 40.692C28.572 40.792 28.502 40.86 28.406 40.896C28.31 40.936 28.172 40.956 27.992 40.956C27.96 40.956 27.894 40.956 27.794 40.956C27.694 40.956 27.576 40.956 27.44 40.956C27.308 40.956 27.174 40.956 27.038 40.956C26.906 40.956 26.79 40.956 26.69 40.956C26.59 40.956 26.524 40.956 26.492 40.956C26.256 40.956 26.072 40.94 25.94 40.908C25.812 40.88 25.72 40.824 25.664 40.74C25.612 40.66 25.586 40.542 25.586 40.386V38.766ZM23.438 37.974H28.58V38.928H28.166V38.304H23.84V38.964H23.438V37.974ZM24.608 36.9V37.374H27.422V36.9H24.608ZM24.164 36.612H27.896V37.662H24.164V36.612ZM29.348 37.77H34.646V38.22H29.348V37.77ZM31.754 35.466H32.228V40.98H31.754V35.466ZM33.878 35.754L34.364 35.952C34.268 36.12 34.164 36.296 34.052 36.48C33.94 36.664 33.826 36.84 33.71 37.008C33.594 37.176 33.486 37.322 33.386 37.446L33.002 37.266C33.102 37.134 33.206 36.98 33.314 36.804C33.422 36.628 33.526 36.448 33.626 36.264C33.726 36.08 33.81 35.91 33.878 35.754ZM29.696 35.982L30.104 35.808C30.224 35.948 30.34 36.102 30.452 36.27C30.564 36.438 30.664 36.604 30.752 36.768C30.844 36.932 30.914 37.078 30.962 37.206L30.518 37.404C30.478 37.276 30.414 37.13 30.326 36.966C30.242 36.802 30.144 36.634 30.032 36.462C29.924 36.29 29.812 36.13 29.696 35.982ZM31.532 37.992L31.922 38.148C31.786 38.404 31.626 38.656 31.442 38.904C31.262 39.152 31.066 39.388 30.854 39.612C30.646 39.836 30.43 40.04 30.206 40.224C29.986 40.408 29.766 40.568 29.546 40.704C29.518 40.668 29.484 40.626 29.444 40.578C29.408 40.53 29.368 40.484 29.324 40.44C29.284 40.396 29.246 40.358 29.21 40.326C29.43 40.21 29.65 40.068 29.87 39.9C30.09 39.728 30.302 39.538 30.506 39.33C30.714 39.122 30.906 38.906 31.082 38.682C31.258 38.454 31.408 38.224 31.532 37.992ZM32.432 37.968C32.56 38.192 32.714 38.416 32.894 38.64C33.074 38.864 33.27 39.078 33.482 39.282C33.694 39.486 33.912 39.672 34.136 39.84C34.364 40.008 34.588 40.15 34.808 40.266C34.768 40.294 34.726 40.332 34.682 40.38C34.642 40.424 34.602 40.47 34.562 40.518C34.522 40.566 34.49 40.61 34.466 40.65C34.242 40.518 34.016 40.36 33.788 40.176C33.564 39.988 33.346 39.784 33.134 39.564C32.922 39.34 32.722 39.108 32.534 38.868C32.35 38.624 32.188 38.378 32.048 38.13L32.432 37.968Z" fill="#AA8420"/>
<path d="M229.237 26.616C229.229 26.552 229.205 26.472 229.165 26.376C229.133 26.272 229.097 26.168 229.057 26.064C229.025 25.952 228.989 25.86 228.949 25.788C229.085 25.764 229.225 25.684 229.369 25.548C229.513 25.404 229.677 25.22 229.861 24.996C229.957 24.884 230.101 24.704 230.293 24.456C230.493 24.208 230.709 23.912 230.941 23.568C231.181 23.224 231.425 22.852 231.673 22.452C231.921 22.052 232.149 21.648 232.357 21.24L233.113 21.696C232.641 22.512 232.121 23.312 231.553 24.096C230.993 24.872 230.429 25.552 229.861 26.136V26.16C229.861 26.16 229.829 26.176 229.765 26.208C229.701 26.232 229.629 26.268 229.549 26.316C229.469 26.364 229.397 26.416 229.333 26.472C229.269 26.52 229.237 26.568 229.237 26.616ZM229.237 26.616L229.201 25.884L229.633 25.572L232.909 24.984C232.893 25.104 232.885 25.24 232.885 25.392C232.893 25.536 232.901 25.652 232.909 25.74C232.157 25.892 231.549 26.02 231.085 26.124C230.629 26.22 230.277 26.3 230.029 26.364C229.789 26.42 229.613 26.468 229.501 26.508C229.389 26.54 229.301 26.576 229.237 26.616ZM229.165 23.724C229.149 23.66 229.121 23.576 229.081 23.472C229.049 23.368 229.013 23.26 228.973 23.148C228.941 23.036 228.905 22.944 228.865 22.872C228.977 22.848 229.085 22.768 229.189 22.632C229.301 22.496 229.421 22.328 229.549 22.128C229.613 22.032 229.709 21.872 229.837 21.648C229.973 21.416 230.121 21.144 230.281 20.832C230.441 20.52 230.597 20.188 230.749 19.836C230.909 19.476 231.049 19.116 231.169 18.756L232.009 19.152C231.809 19.64 231.581 20.132 231.325 20.628C231.077 21.116 230.813 21.584 230.533 22.032C230.261 22.48 229.985 22.88 229.705 23.232V23.256C229.705 23.256 229.677 23.272 229.621 23.304C229.573 23.336 229.509 23.376 229.429 23.424C229.357 23.472 229.293 23.524 229.237 23.58C229.189 23.628 229.165 23.676 229.165 23.724ZM229.165 23.724L229.141 23.052L229.573 22.776L231.817 22.548C231.793 22.668 231.773 22.8 231.757 22.944C231.749 23.088 231.745 23.204 231.745 23.292C231.233 23.356 230.817 23.412 230.497 23.46C230.185 23.5 229.941 23.536 229.765 23.568C229.589 23.6 229.457 23.628 229.369 23.652C229.281 23.676 229.213 23.7 229.165 23.724ZM228.949 28.152C229.285 28.064 229.669 27.964 230.101 27.852C230.533 27.74 230.989 27.616 231.469 27.48C231.957 27.344 232.449 27.208 232.945 27.072L233.077 27.84C232.381 28.048 231.689 28.252 231.001 28.452C230.313 28.652 229.693 28.84 229.141 29.016L228.949 28.152ZM233.497 21.6L239.137 20.76L239.281 21.552L233.641 22.416L233.497 21.6ZM233.257 24.18L239.473 23.028L239.617 23.82L233.401 24.996L233.257 24.18ZM235.309 18.696H236.197C236.197 19.64 236.217 20.544 236.257 21.408C236.305 22.272 236.377 23.084 236.473 23.844C236.577 24.596 236.697 25.28 236.833 25.896C236.977 26.504 237.141 27.032 237.325 27.48C237.509 27.92 237.713 28.26 237.937 28.5C238.169 28.732 238.417 28.848 238.681 28.848C238.785 28.848 238.869 28.812 238.933 28.74C239.005 28.66 239.061 28.524 239.101 28.332C239.141 28.132 239.169 27.856 239.185 27.504C239.273 27.608 239.381 27.704 239.509 27.792C239.637 27.872 239.753 27.936 239.857 27.984C239.809 28.432 239.737 28.78 239.641 29.028C239.545 29.284 239.413 29.464 239.245 29.568C239.077 29.672 238.857 29.724 238.585 29.724C238.185 29.724 237.825 29.588 237.505 29.316C237.193 29.052 236.917 28.672 236.677 28.176C236.437 27.672 236.229 27.084 236.053 26.412C235.885 25.732 235.745 24.98 235.633 24.156C235.529 23.332 235.449 22.46 235.393 21.54C235.345 20.62 235.317 19.672 235.309 18.696ZM236.749 19.44L237.277 18.936C237.477 19.024 237.685 19.128 237.901 19.248C238.125 19.368 238.333 19.492 238.525 19.62C238.725 19.74 238.889 19.856 239.017 19.968L238.489 20.532C238.297 20.356 238.033 20.168 237.697 19.968C237.369 19.76 237.053 19.584 236.749 19.44ZM238.945 24.612L239.701 24.972C239.261 25.66 238.717 26.296 238.069 26.88C237.429 27.456 236.713 27.968 235.921 28.416C235.137 28.864 234.309 29.24 233.437 29.544C233.381 29.432 233.297 29.304 233.185 29.16C233.081 29.024 232.977 28.904 232.873 28.8C233.729 28.536 234.541 28.2 235.309 27.792C236.085 27.384 236.785 26.912 237.409 26.376C238.033 25.832 238.545 25.244 238.945 24.612ZM245.941 22.608H250.873V23.508H245.941V22.608ZM240.913 28.284H251.701V29.184H240.913V28.284ZM245.425 18.9H246.373V28.764H245.425V18.9Z" fill="black"/>
<path d="M245.826 35.966L246.264 36.044C246.108 36.328 245.912 36.616 245.676 36.908C245.444 37.2 245.168 37.472 244.848 37.724C244.808 37.676 244.756 37.628 244.692 37.58C244.628 37.528 244.568 37.488 244.512 37.46C244.72 37.316 244.908 37.158 245.076 36.986C245.244 36.814 245.39 36.642 245.514 36.47C245.642 36.294 245.746 36.126 245.826 35.966ZM245.862 36.344H247.308V36.698H245.58L245.862 36.344ZM245.436 37.472V38.156H248.1V37.472H245.436ZM245.022 37.142H248.532V38.486H245.022V37.142ZM246.54 37.28H246.948V38.3H246.54V37.28ZM246.558 38.186L246.912 38.33C246.748 38.482 246.554 38.628 246.33 38.768C246.11 38.908 245.876 39.036 245.628 39.152C245.384 39.268 245.146 39.368 244.914 39.452C244.898 39.424 244.874 39.39 244.842 39.35C244.81 39.31 244.776 39.272 244.74 39.236C244.708 39.196 244.678 39.164 244.65 39.14C244.882 39.068 245.116 38.984 245.352 38.888C245.592 38.792 245.816 38.684 246.024 38.564C246.236 38.444 246.414 38.318 246.558 38.186ZM245.928 38.828L246.228 38.642C246.456 38.806 246.64 38.99 246.78 39.194C246.924 39.398 247.03 39.608 247.098 39.824C247.166 40.036 247.202 40.24 247.206 40.436C247.21 40.628 247.184 40.8 247.128 40.952C247.072 41.104 246.992 41.218 246.888 41.294C246.8 41.366 246.712 41.414 246.624 41.438C246.536 41.466 246.432 41.482 246.312 41.486C246.248 41.486 246.174 41.484 246.09 41.48C246.01 41.476 245.928 41.472 245.844 41.468C245.84 41.416 245.83 41.352 245.814 41.276C245.798 41.204 245.772 41.138 245.736 41.078C245.832 41.09 245.922 41.098 246.006 41.102C246.094 41.106 246.166 41.108 246.222 41.108C246.298 41.108 246.364 41.102 246.42 41.09C246.48 41.078 246.536 41.05 246.588 41.006C246.68 40.938 246.742 40.824 246.774 40.664C246.81 40.5 246.808 40.312 246.768 40.1C246.728 39.884 246.64 39.666 246.504 39.446C246.368 39.222 246.176 39.016 245.928 38.828ZM246.468 39.068L246.738 39.254C246.602 39.382 246.43 39.512 246.222 39.644C246.018 39.776 245.804 39.9 245.58 40.016C245.356 40.128 245.142 40.222 244.938 40.298C244.91 40.254 244.874 40.202 244.83 40.142C244.79 40.082 244.748 40.032 244.704 39.992C244.904 39.932 245.116 39.852 245.34 39.752C245.564 39.652 245.776 39.542 245.976 39.422C246.18 39.302 246.344 39.184 246.468 39.068ZM246.78 39.716L247.08 39.926C246.912 40.102 246.702 40.28 246.45 40.46C246.198 40.636 245.932 40.8 245.652 40.952C245.372 41.104 245.102 41.228 244.842 41.324C244.814 41.272 244.776 41.214 244.728 41.15C244.684 41.086 244.638 41.034 244.59 40.994C244.782 40.93 244.982 40.852 245.19 40.76C245.398 40.668 245.6 40.564 245.796 40.448C245.996 40.332 246.18 40.212 246.348 40.088C246.52 39.964 246.664 39.84 246.78 39.716ZM248.394 38.666L248.712 38.936C248.556 39.072 248.382 39.21 248.19 39.35C247.998 39.486 247.822 39.602 247.662 39.698L247.398 39.458C247.502 39.39 247.614 39.31 247.734 39.218C247.858 39.126 247.978 39.032 248.094 38.936C248.21 38.84 248.31 38.75 248.394 38.666ZM247.224 38.252C247.308 38.632 247.422 38.994 247.566 39.338C247.71 39.678 247.886 39.98 248.094 40.244C248.306 40.504 248.544 40.71 248.808 40.862C248.776 40.89 248.74 40.926 248.7 40.97C248.66 41.01 248.622 41.052 248.586 41.096C248.554 41.14 248.526 41.182 248.502 41.222C248.226 41.042 247.98 40.806 247.764 40.514C247.548 40.222 247.366 39.89 247.218 39.518C247.07 39.146 246.948 38.75 246.852 38.33L247.224 38.252ZM247.164 36.344H247.26L247.344 36.32L247.62 36.512C247.524 36.676 247.41 36.844 247.278 37.016C247.15 37.184 247.028 37.326 246.912 37.442C246.88 37.402 246.838 37.356 246.786 37.304C246.734 37.252 246.69 37.212 246.654 37.184C246.75 37.08 246.846 36.958 246.942 36.818C247.038 36.674 247.112 36.542 247.164 36.422V36.344ZM244.398 35.99L244.812 36.104C244.7 36.452 244.566 36.796 244.41 37.136C244.258 37.476 244.092 37.798 243.912 38.102C243.732 38.402 243.542 38.668 243.342 38.9C243.33 38.864 243.31 38.818 243.282 38.762C243.254 38.702 243.224 38.644 243.192 38.588C243.16 38.528 243.132 38.48 243.108 38.444C243.284 38.24 243.452 38.008 243.612 37.748C243.772 37.484 243.918 37.202 244.05 36.902C244.186 36.602 244.302 36.298 244.398 35.99ZM243.912 37.46L244.332 37.046L244.344 37.058V41.48H243.912V37.46ZM251.766 39.842H252.21V41.474H251.766V39.842ZM251.478 38L251.886 38.198C251.722 38.35 251.544 38.504 251.352 38.66C251.164 38.816 250.99 38.946 250.83 39.05L250.512 38.876C250.62 38.8 250.732 38.712 250.848 38.612C250.968 38.508 251.084 38.402 251.196 38.294C251.308 38.186 251.402 38.088 251.478 38ZM252.702 38.318L253.104 38.54C252.9 38.704 252.674 38.876 252.426 39.056C252.182 39.232 251.934 39.4 251.682 39.56C251.434 39.72 251.198 39.86 250.974 39.98L250.68 39.776C250.9 39.652 251.134 39.506 251.382 39.338C251.63 39.17 251.87 38.996 252.102 38.816C252.334 38.636 252.534 38.47 252.702 38.318ZM249.924 38.87L250.218 38.612C250.37 38.68 250.53 38.762 250.698 38.858C250.866 38.95 251.026 39.044 251.178 39.14C251.33 39.232 251.456 39.32 251.556 39.404L251.238 39.692C251.146 39.608 251.026 39.518 250.878 39.422C250.73 39.322 250.572 39.224 250.404 39.128C250.24 39.028 250.08 38.942 249.924 38.87ZM252.918 39.248L253.23 39.008C253.406 39.1 253.586 39.208 253.77 39.332C253.954 39.452 254.128 39.576 254.292 39.704C254.456 39.828 254.59 39.944 254.694 40.052L254.364 40.316C254.264 40.212 254.134 40.096 253.974 39.968C253.814 39.84 253.642 39.714 253.458 39.59C253.274 39.462 253.094 39.348 252.918 39.248ZM252.804 40.454L253.14 40.214C253.308 40.29 253.486 40.378 253.674 40.478C253.862 40.578 254.04 40.68 254.208 40.784C254.376 40.888 254.516 40.986 254.628 41.078L254.274 41.348C254.17 41.26 254.036 41.162 253.872 41.054C253.708 40.946 253.532 40.84 253.344 40.736C253.156 40.628 252.976 40.534 252.804 40.454ZM249.39 39.722C249.67 39.722 249.99 39.72 250.35 39.716C250.714 39.708 251.102 39.702 251.514 39.698C251.93 39.69 252.356 39.682 252.792 39.674C253.232 39.666 253.668 39.656 254.1 39.644L254.076 39.998C253.652 40.006 253.226 40.016 252.798 40.028C252.374 40.04 251.958 40.05 251.55 40.058C251.146 40.066 250.762 40.074 250.398 40.082C250.038 40.09 249.714 40.096 249.426 40.1L249.39 39.722ZM250.746 40.22L251.16 40.376C251.024 40.504 250.868 40.63 250.692 40.754C250.52 40.878 250.34 40.994 250.152 41.102C249.968 41.21 249.788 41.302 249.612 41.378C249.588 41.35 249.554 41.316 249.51 41.276C249.47 41.24 249.428 41.202 249.384 41.162C249.34 41.126 249.3 41.096 249.264 41.072C249.532 40.968 249.8 40.842 250.068 40.694C250.336 40.542 250.562 40.384 250.746 40.22ZM251.766 35.954H252.216V38.084H251.766V35.954ZM249.69 36.398H254.376V36.746H249.69V36.398ZM250.02 37.13H254.022V37.472H250.02V37.13ZM249.372 37.862H254.646V38.222H249.372V37.862Z" fill="#AA8420"/>
</g>
<defs>
<clipPath id="clip0_85_4389">
<rect width="266" height="62" fill="white"/>
</clipPath>
</defs>
</svg>
