<svg width="206" height="86" viewBox="0 0 206 86" fill="none" xmlns="http://www.w3.org/2000/svg">
<g clip-path="url(#clip0_83_3309)">
<path d="M44.5002 86.0001H37.2002V0.600098H44.5002V0.800098H37.4002V85.7001H44.5002V85.9001V86.0001Z" fill="#231815"/>
<path d="M168 86.0001H160.7V85.8001H167.8V0.800098H160.7V0.600098H168V86.0001Z" fill="#231815"/>
<path d="M5.4002 51.7999V52.4999H0.900195V51.8999L3.4002 49.0999C3.7002 48.6999 4.0002 48.3999 4.1002 48.0999C4.2002 47.7999 4.3002 47.4999 4.3002 47.1999C4.3002 46.8999 4.2002 46.4999 4.0002 46.2999C3.8002 46.0999 3.4002 45.9999 3.0002 45.9999C2.3002 45.9999 1.6002 46.2999 1.0002 46.7999L0.700195 46.1999C1.0002 45.8999 1.3002 45.6999 1.8002 45.5999C2.3002 45.4999 2.7002 45.3999 3.1002 45.3999C3.7002 45.3999 4.3002 45.5999 4.6002 45.8999C5.0002 46.1999 5.2002 46.6999 5.2002 47.2999C5.2002 47.8999 5.2002 48.0999 4.9002 48.4999C4.7002 48.8999 4.4002 49.2999 4.0002 49.7999L2.0002 51.9999H5.5002L5.4002 51.7999Z" fill="#AA8420"/>
<path d="M7.19961 51.6C6.79961 51 6.59961 50.1001 6.59961 48.9001C6.59961 47.7001 6.79961 46.8001 7.19961 46.2001C7.59961 45.6001 8.19961 45.3 9.09961 45.3C9.99961 45.3 10.4996 45.6001 10.9996 46.2001C11.3996 46.8001 11.5996 47.7001 11.5996 48.9001C11.5996 50.1001 11.3996 51 10.9996 51.6C10.5996 52.2 9.99961 52.5 9.09961 52.5C8.19961 52.5 7.69961 52.2 7.19961 51.6ZM10.2996 51.1C10.5996 50.6 10.6996 49.9001 10.6996 48.9001C10.6996 47.9001 10.5996 47.1001 10.2996 46.7001C9.99961 46.2001 9.59961 46 8.99961 46C8.39961 46 7.99961 46.2001 7.79961 46.7001C7.49961 47.2001 7.39961 47.9001 7.39961 48.9001C7.39961 49.9001 7.49961 50.7 7.79961 51.1C8.09961 51.6 8.49961 51.8 8.99961 51.8C9.49961 51.8 9.99961 51.6 10.2996 51.1Z" fill="#AA8420"/>
<path d="M178 49.4999C178.3 49.7999 178.4 50.1999 178.4 50.5999C178.4 50.9999 178.2 51.6999 177.7 51.9999C177.2 52.3999 176.6 52.4999 175.8 52.4999C175 52.4999 174.4 52.2999 173.9 51.9999C173.4 51.6999 173.2 51.1999 173.2 50.5999C173.2 49.9999 173.3 49.7999 173.6 49.4999C173.9 49.1999 174.2 48.9999 174.7 48.8999C174.3 48.7999 173.9 48.5999 173.7 48.2999C173.5 47.9999 173.4 47.6999 173.4 47.2999C173.4 46.8999 173.5 46.5999 173.7 46.2999C173.9 45.9999 174.2 45.7999 174.5 45.5999C174.8 45.3999 175.3 45.3999 175.7 45.3999C176.1 45.3999 176.6 45.3999 176.9 45.5999C177.3 45.7999 177.6 45.9999 177.7 46.2999C177.9 46.5999 178 46.8999 178 47.2999C178 47.6999 177.9 47.9999 177.7 48.2999C177.5 48.5999 177.1 48.7999 176.7 48.8999C177.2 48.9999 177.5 49.1999 177.8 49.5999L178 49.4999ZM177.1 51.4999C177.4 51.2999 177.5 50.8999 177.5 50.4999C177.5 50.0999 177.3 49.7999 177 49.5999C176.7 49.3999 176.3 49.1999 175.7 49.1999C175.2 49.1999 174.8 49.3999 174.4 49.5999C174.1 49.7999 173.9 50.0999 173.9 50.4999C173.9 50.8999 174 51.2999 174.3 51.4999C174.6 51.6999 175 51.7999 175.6 51.7999C176.2 51.7999 176.6 51.6999 176.9 51.4999H177.1ZM174.7 48.0999C175 48.2999 175.4 48.4999 175.8 48.4999C176.3 48.4999 176.7 48.2999 177 48.0999C177.3 47.8999 177.4 47.5999 177.4 47.1999C177.4 46.7999 177.3 46.4999 177 46.2999C176.7 46.0999 176.3 45.9999 175.8 45.9999C175.3 45.9999 174.9 46.0999 174.7 46.2999C174.4 46.4999 174.3 46.7999 174.3 47.1999C174.3 47.5999 174.4 47.8999 174.7 48.0999Z" fill="#AA8420"/>
<path d="M183.3 48.3C183.6 48.5 183.9 48.8 184.1 49.1C184.3 49.4 184.4 49.8 184.4 50.3C184.4 50.8 184.3 51.1 184.1 51.5C183.9 51.8 183.6 52.1 183.3 52.3C182.9 52.5 182.5 52.6 182 52.6C181.5 52.6 181.1 52.6 180.7 52.4C180.3 52.2 179.9 52 179.6 51.8L179.9 51.2C180.6 51.7 181.2 52 181.9 52C182.6 52 182.8 51.9 183.1 51.6C183.4 51.3 183.5 50.9 183.5 50.4C183.5 49.9 183.4 49.6 183.1 49.3C182.8 49 182.5 48.9 182 48.9C181.3 48.9 180.8 49.2 180.4 49.7H179.8V45.5H184.1V46.2H180.7V48.7C181.1 48.3 181.6 48.1 182.2 48.1C182.8 48.1 183 48.1 183.4 48.4L183.3 48.3Z" fill="#AA8420"/>
<path d="M108.9 8.7001C109.1 8.5001 109.1 8.1001 109.1 8.1001H97.9004C97.9004 8.1001 98.0004 8.6001 98.1004 8.7001H108.8H108.9Z" fill="#AA8420"/>
<path d="M108.2 9.6C108.4 9.4 108.6 9 108.6 9H98.4004C98.4004 9 98.5004 9.3 98.8004 9.6H108.2Z" fill="#AA8420"/>
<path d="M107.4 10.5001C107.6 10.4001 107.9 10.1001 107.9 10.1001H99.2002C99.2002 10.1001 99.4002 10.3001 99.6002 10.5001H107.5H107.4Z" fill="#AA8420"/>
<path d="M106.4 11.3C106.6 11.2 106.9 11 106.9 11H100.1C100.1 11 100.1 11 100.6 11.3H106.4Z" fill="#AA8420"/>
<path d="M101.4 11.8C101.4 11.8 102.1 12.2 103.5 12.2C104.9 12.2 105.8 11.8 105.8 11.8H101.4Z" fill="#AA8420"/>
<path d="M101.3 12.8C101.3 12.8 102.2 12.8 102.7 13.2C103.2 13.6 103.6 14.3 103.6 14.3C103.6 14.3 103.9 13.6 104.4 13.3C104.9 12.9 105.7 12.8 105.7 12.8H114.5L116.2 15.4H108.3C108.3 15.4 107.7 15.4 106.9 15.9C106.5 16.1 106.1 16.6 106.1 16.6C106.1 16.6 106.1 16.8 105.9 16.9C105.9 17 105.7 17.1 105.6 17.1H101.5C101.5 17.1 101.3 17.1 101.3 16.9C101.3 16.8 101.3 16.9 101.2 16.7C101.2 16.6 101 16.3 100.3 15.9C99.7004 15.5 99.0004 15.4 99.0004 15.4H90.9004L92.7004 12.7H101.4L101.3 12.8Z" fill="#003477"/>
<path d="M95 16.4V29.5C95 29.5 95 30.7001 96 32.2001C97 33.8001 98.4 34.5 98.4 34.5L99.5 32.8C99.5 32.8 98.5 32.2 97.8 31.1C97.1 30 97.1 29 97.1 29V16.3H95V16.4Z" fill="#003477"/>
<path d="M109.9 16.3999V29.0999C109.9 29.0999 109.7 30.3999 109.1 31.2999C108.5 32.1999 107.5 32.9999 107.5 32.9999L108.6 34.6999C108.6 34.6999 110.2 33.4999 111 32.2999C111.8 31.0999 112 29.1999 112 29.1999V16.4999H109.9V16.3999Z" fill="#003477"/>
<path d="M91.6996 16.3999V29.5999C91.6996 29.5999 91.7996 31.5999 93.0996 33.7999C94.3996 35.8999 96.6996 37.3999 96.6996 37.3999L97.7996 35.6999C97.7996 35.6999 96.2996 34.8999 95.0996 33.0999C93.8996 31.2999 93.7996 29.5999 93.7996 29.5999V16.4999H91.5996L91.6996 16.3999Z" fill="#003477"/>
<path d="M101.3 17.8001V31.7001C101.3 31.7001 101.3 31.7001 101.3 31.9001C101.3 32.1001 101.1 32.3001 101.1 32.3001L96.4004 40.0001H110.7L106 32.1001V31.7001C105.9 31.7001 105.8 31.3001 105.8 31.3001V17.7001H104.1V31.8001C104.1 31.8001 104.1 32.0001 104.1 32.2001C104.1 32.4001 104.2 32.6001 104.2 32.6001L107.1 37.3001H99.8004L102.6 32.6001C102.6 32.6001 102.6 32.4001 102.8 32.2001C102.8 32.0001 102.8 31.8001 102.8 31.8001V17.6001H101.1L101.3 17.8001Z" fill="#AA8420"/>
<path d="M113.2 16.3999V29.3999C113.2 29.3999 113.2 31.0999 112 32.9999C110.8 34.8999 109.4 35.6999 109.4 35.6999L110.4 37.4999C110.4 37.4999 112.5 36.1999 113.9 33.9999C115.2 31.8999 115.4 29.3999 115.4 29.3999V16.3999H113.3H113.2Z" fill="#003477"/>
<path d="M97.8998 7.7001C97.8998 7.7001 97.1998 3.8001 99.9998 1.8001C99.9998 1.8001 101.3 0.600098 103.4 0.600098C105.5 0.600098 106.9 1.8001 106.9 1.8001C110 4.1001 109.1 7.7001 109.1 7.7001H97.7998H97.8998Z" fill="#AA8420"/>
<path d="M67.1004 64H67.9004V58H69.5004V57.2H65.4004V58H67.0004V64H67.1004Z" fill="#003477"/>
<path d="M75.2004 64V57.2H74.4004V60H71.2004V57.2H70.4004V64H71.2004V60.7H74.4004V64H75.2004Z" fill="#003477"/>
<path d="M80.2 57.9001V57.1001H76.5V63.9001H80.2V63.1001H77.4V60.5001H80.1V59.7001H77.4V57.8001H80.2V57.9001Z" fill="#003477"/>
<path d="M83.9004 57.1001V63.9001H84.7004V60.6001H87.9004V63.9001H88.7004V57.1001H87.9004V59.9001H84.7004V57.1001H83.9004Z" fill="#003477"/>
<path d="M93.3002 64.1C95.3002 64.1 96.9002 62.6 96.9002 60.5C96.9002 58.4 95.3002 57 93.3002 57C91.3002 57 89.7002 58.6 89.7002 60.5C89.7002 62.4 91.3002 64.1 93.3002 64.1ZM93.3002 57.8C94.9002 57.8 96.0002 59.1 96.0002 60.6C96.0002 62.1 94.8002 63.4 93.3002 63.4C91.8002 63.4 90.6002 62.2 90.6002 60.6C90.6002 59 91.7002 57.8 93.3002 57.8Z" fill="#003477"/>
<path d="M97.7002 64H98.5002V58.9001L103.6 64.3001V57.2001H102.8V62.2001L97.7002 56.8V63.9001V64Z" fill="#003477"/>
<path d="M107.9 64.0999C109.8 64.0999 111.1 62.6999 111.1 60.7999V60.4999H108.4V61.2999H110.2C110.2 62.3999 109 63.2999 108 63.2999C107 63.2999 105.3 61.8999 105.3 60.4999C105.3 59.0999 106.5 57.6999 108 57.6999C109.5 57.6999 109.7 58.0999 110.1 58.7999L110.7 58.1999C110 57.3999 109 56.8999 107.9 56.8999C105.9 56.8999 104.4 58.4999 104.4 60.4999C104.4 62.4999 105.9 63.9999 107.8 63.9999L107.9 64.0999Z" fill="#003477"/>
<path d="M115.7 61.1001L116 60.8001L118.6 64.0001H119.7L116.6 60.2001L119.7 57.1001H118.6L115.7 60.1001V57.1001H114.9V63.9001H115.7V61.0001V61.1001Z" fill="#003477"/>
<path d="M119.8 60.5C119.8 62.5 121.4 64.1 123.4 64.1C125.4 64.1 127 62.6 127 60.5C127 58.4 125.4 57 123.4 57C121.4 57 119.8 58.6 119.8 60.5ZM126.1 60.5C126.1 62 124.9 63.3 123.4 63.3C121.9 63.3 120.7 62.1 120.7 60.5C120.7 58.9 121.8 57.7 123.4 57.7C125 57.7 126.1 59 126.1 60.5Z" fill="#003477"/>
<path d="M128.7 58.9001L133.8 64.3001V57.2001H133V62.2001L127.9 56.8V63.9001H128.7V58.8V58.9001Z" fill="#003477"/>
<path d="M134.6 60.5999C134.6 62.4999 136.1 64.0999 138 64.0999C139.9 64.0999 141.2 62.6999 141.2 60.7999V60.4999H138.5V61.2999H140.3C140.3 62.3999 139.1 63.2999 138.1 63.2999C137.1 63.2999 135.5 61.8999 135.5 60.4999C135.5 59.0999 136.7 57.6999 138.2 57.6999C139.7 57.6999 139.8 58.0999 140.3 58.7999L140.9 58.1999C140.2 57.3999 139.2 56.8999 138.1 56.8999C136.1 56.8999 134.6 58.4999 134.6 60.4999V60.5999Z" fill="#003477"/>
<path d="M57.6004 72C57.6004 73.1 57.3004 74.1 55.9004 74.1C54.5004 74.1 54.3004 73.1 54.3004 72V68H53.4004V72.3C53.4004 73.8 54.3004 75 55.9004 75C57.5004 75 58.4004 73.8 58.4004 72.3V68H57.5004V72H57.6004Z" fill="#003477"/>
<path d="M65.5996 68.0001H64.6996V73.0001L59.5996 67.6001V74.7001H60.3996V69.6001L65.4996 75.0001V67.9001L65.5996 68.0001Z" fill="#003477"/>
<path d="M67.7004 68H66.9004V74.8H67.7004V68Z" fill="#003477"/>
<path d="M69.3004 68H68.4004L71.4004 75.2L74.4004 68H73.5004L71.5004 73L69.5004 68H69.3004Z" fill="#003477"/>
<path d="M78.6004 68.8V68H74.9004V74.8H78.6004V74H75.8004V71.4H78.5004V70.6H75.8004V68.7H78.6004V68.8Z" fill="#003477"/>
<path d="M83.4998 69.9C83.4998 69.3 83.1998 68.6 82.5998 68.3C82.0998 68 81.3998 68 80.7998 68H79.7998V74.8H80.5998V71.9H80.8998L82.8998 74.8H83.8998L81.7998 71.8C82.7998 71.7 83.3998 70.9 83.3998 69.9H83.4998ZM80.8998 71.2H80.5998V68.7H80.7998C81.5998 68.7 82.5998 68.9 82.5998 69.9C82.5998 70.9 81.6998 71.1 80.7998 71.1L80.8998 71.2Z" fill="#003477"/>
<path d="M86.4998 74.1C85.7998 74.1 85.1998 73.6 85.1998 72.8L84.2998 73C84.3998 74.1 85.2998 74.9 86.3998 74.9C87.4998 74.9 88.5998 74 88.5998 72.8C88.5998 71.6 87.8998 71.1 86.8998 70.7L86.3998 70.5C85.9998 70.3 85.3998 70.1 85.3998 69.5C85.3998 68.9 85.9998 68.5 86.4998 68.5C86.9998 68.5 87.2998 68.7 87.5998 69.1L88.2998 68.7C87.8998 68 87.2998 67.7 86.4998 67.7C85.6998 67.7 84.4998 68.4 84.4998 69.5C84.4998 70.6 85.1998 70.9 85.9998 71.2L86.4998 71.4C87.0998 71.6 87.6998 72 87.6998 72.7C87.6998 73.4 87.1998 74 86.3998 74L86.4998 74.1Z" fill="#003477"/>
<path d="M90.5002 68H89.7002V74.8H90.5002V68Z" fill="#003477"/>
<path d="M95.3002 68H91.2002V68.8H92.8002V74.8H93.6002V68.8H95.2002V68H95.3002Z" fill="#003477"/>
<path d="M98.4998 74.8V71.8L100.7 68H99.6998L97.9998 70.9L96.2998 68H95.2998L97.4998 71.8V74.8H98.2998H98.4998Z" fill="#003477"/>
<path d="M107.1 67.8C105.2 67.8 103.5 69.4 103.5 71.4C103.5 73.4 105.1 74.9 107.1 74.9C109.1 74.9 110.7 73.4 110.7 71.4C110.7 69.4 109.1 67.8 107.1 67.8ZM107.1 74.1C105.6 74.1 104.4 72.9 104.4 71.3C104.4 69.7 105.5 68.5 107.1 68.5C108.7 68.5 109.8 69.8 109.8 71.3C109.8 72.8 108.6 74.1 107.1 74.1Z" fill="#003477"/>
<path d="M114.9 68.8V68H111.6V74.8H112.4V71.5H114.8V70.7H112.4V68.8H114.8H114.9Z" fill="#003477"/>
<path d="M120.5 74.1C119.8 74.1 119.2 73.6 119.2 72.8L118.3 73C118.4 74.1 119.3 74.9 120.4 74.9C121.5 74.9 122.6 74 122.6 72.8C122.6 71.6 121.9 71.1 120.9 70.7L120.4 70.5C120 70.3 119.5 70.1 119.5 69.5C119.5 68.9 120.1 68.5 120.6 68.5C121.1 68.5 121.4 68.7 121.7 69.1L122.4 68.7C122 68 121.4 67.7 120.6 67.7C119.8 67.7 118.6 68.4 118.6 69.5C118.6 70.6 119.3 70.9 120.1 71.2L120.6 71.4C121.2 71.6 121.8 72 121.8 72.7C121.8 73.4 121.3 74 120.5 74V74.1Z" fill="#003477"/>
<path d="M126.8 68.6C127.4 68.6 128.1 68.8 128.6 69.3V68.3C128.1 68 127.5 67.8 126.9 67.8C124.9 67.8 123.3 69.4 123.3 71.4C123.3 73.4 124.9 74.9 126.9 74.9C128.9 74.9 128.2 74.7 128.7 74.4V73.4C128.2 73.9 127.5 74.1 126.9 74.1C125.4 74.1 124.2 72.8 124.2 71.3C124.2 69.8 125.4 68.5 126.9 68.5L126.8 68.6Z" fill="#003477"/>
<path d="M130.5 68H129.6V74.8H130.5V68Z" fill="#003477"/>
<path d="M135.6 73.9999H132.8V71.3999H135.5V70.5999H132.8V68.6999H135.6V67.8999H131.9V74.6999H135.6V73.8999V73.9999Z" fill="#003477"/>
<path d="M136.6 74.8001H137.4V69.7001L142.5 75.1001V68.0001H141.6V73.0001L136.5 67.6001V74.7001L136.6 74.8001Z" fill="#003477"/>
<path d="M143.5 71.4C143.5 73.4 145.1 74.9 147.1 74.9C149.1 74.9 148.4 74.7 148.9 74.4V73.4C148.4 73.8 147.7 74.1 147.1 74.1C145.6 74.1 144.4 72.8 144.4 71.3C144.4 69.8 145.6 68.5 147.1 68.5C148.6 68.5 148.4 68.7 148.9 69.2V68.2C148.4 67.9 147.8 67.7 147.2 67.7C145.2 67.7 143.6 69.3 143.6 71.3L143.5 71.4Z" fill="#003477"/>
<path d="M153.6 68.8V68H149.9V74.8H153.6V74H150.8V71.4H153.5V70.6H150.8V68.7H153.6V68.8Z" fill="#003477"/>
<path d="M62.4004 85.6H63.3004L64.1004 83.9H67.2004L68.0004 85.6H68.9004L65.7004 78.5L62.5004 85.6H62.4004ZM64.5004 83.2L65.7004 80.4L66.9004 83.2H64.5004Z" fill="#003477"/>
<path d="M74.6 83.9L69.5 78.5V85.6H70.3V80.5L75.4 85.9V78.8H74.6V83.8V83.9Z" fill="#003477"/>
<path d="M78.1002 78.8H76.7002V85.6H78.1002C80.3002 85.6 81.9002 84.5 81.9002 82.2C81.9002 79.9 80.2002 78.8 78.1002 78.8ZM77.8002 84.9H77.5002V79.6H77.8002C79.5002 79.6 81.0002 80.2 81.0002 82.2C81.0002 84.2 79.5002 84.8 77.8002 84.8V84.9Z" fill="#003477"/>
<path d="M84.9004 79.6H86.5004V85.6H87.4004V79.6H89.0004V78.8H84.9004V79.6Z" fill="#003477"/>
<path d="M89.7998 85.6H93.4998V84.8H90.6998V82.2H93.3998V81.4H90.6998V79.5H93.4998V78.7H89.7998V85.5V85.6Z" fill="#003477"/>
<path d="M94.2002 82.3001C94.2002 84.3001 95.8002 85.8001 97.7002 85.8001C99.6002 85.8001 99.0002 85.6001 99.5002 85.3001V84.3001C99.0002 84.7001 98.3002 85.0001 97.7002 85.0001C96.2002 85.0001 95.0002 83.7001 95.0002 82.2001C95.0002 80.7001 96.2002 79.4001 97.7002 79.4001C99.2002 79.4001 99.0002 79.6001 99.5002 80.1001V79.1001C99.0002 78.8001 98.4002 78.6001 97.8002 78.6001C95.8002 78.6001 94.2002 80.2001 94.2002 82.2001V82.3001Z" fill="#003477"/>
<path d="M104.7 81.6H101.5V78.8H100.7V85.6H101.5V82.3H104.7V85.6H105.5V78.8H104.7V81.6Z" fill="#003477"/>
<path d="M111.9 83.9L106.8 78.5V85.6H107.7V80.5L112.8 85.9V78.8H111.9V83.8V83.9Z" fill="#003477"/>
<path d="M117.1 78.7C115.1 78.7 113.5 80.3 113.5 82.3C113.5 84.3 115.1 85.8 117.1 85.8C119.1 85.8 120.7 84.3 120.7 82.3C120.7 80.3 119.1 78.7 117.1 78.7ZM117.1 85C115.6 85 114.4 83.8 114.4 82.2C114.4 80.6 115.5 79.4 117.1 79.4C118.7 79.4 119.8 80.7 119.8 82.2C119.8 83.7 118.6 85 117.1 85Z" fill="#003477"/>
<path d="M122.5 78.8H121.7V85.6H124.6V84.8H122.5V78.8Z" fill="#003477"/>
<path d="M128.3 78.7C126.4 78.7 124.7 80.3 124.7 82.3C124.7 84.3 126.3 85.8 128.3 85.8C130.3 85.8 131.9 84.3 131.9 82.3C131.9 80.3 130.3 78.7 128.3 78.7ZM128.3 85C126.8 85 125.6 83.8 125.6 82.2C125.6 80.6 126.7 79.4 128.3 79.4C129.9 79.4 131 80.7 131 82.2C131 83.7 129.8 85 128.3 85Z" fill="#003477"/>
<path d="M136.3 83.0001H138.1C138.1 84.1001 136.9 85.0001 135.9 85.0001C134.9 85.0001 133.3 83.6001 133.3 82.2001C133.3 80.8001 134.5 79.4001 136 79.4001C137.5 79.4001 137.7 79.8001 138.1 80.5001L138.7 79.9001C138 79.1001 137 78.6001 135.9 78.6001C133.9 78.6001 132.4 80.2001 132.4 82.2001C132.4 84.2001 133.9 85.7001 135.8 85.7001C137.7 85.7001 139 84.3001 139 82.4001V82.1001H136.3V82.9001V83.0001Z" fill="#003477"/>
<path d="M141.8 81.7L140.1 78.8H139.1L141.3 82.7V85.7H142.2V82.7L144.4 78.8H143.4L141.7 81.7H141.8Z" fill="#003477"/>
<path d="M69.8996 49.9C70.2996 49.8 70.4996 49.7 70.6996 49.6V53.6H71.5996V53.2H76.1996V53.6H77.0996V49.6C77.1996 49.6 77.3996 49.7 77.4996 49.8C77.6996 49.8 77.7996 49.8 77.8996 50L78.2996 49.2C76.9996 48.9 75.8996 48.5 75.1996 47.8H78.1996V47H74.2996V46.2C75.4996 46.1 76.5996 46 77.3996 45.8L76.9996 45C75.6996 45.3 73.8996 45.4 71.3996 45.4C68.8996 45.4 70.4996 45.4 70.0996 45.4L70.3996 46.2C70.9996 46.2 71.9996 46.2 73.3996 46.2V47H69.5996V47.8H72.4996C71.6996 48.5 70.6996 49 69.5996 49.3L70.0996 50.1L69.8996 49.9ZM76.0996 52.4H71.4996V51.6H76.0996V52.4ZM74.1996 47.6C74.7996 48.4 75.4996 48.9 76.4996 49.3H74.1996V47.6ZM76.0996 50.1V50.8H71.4996V50.1H76.0996ZM73.2996 47.6V49.3H71.1996C72.0996 48.9 72.7996 48.4 73.2996 47.6Z" fill="#003477"/>
<path d="M88.9002 51.1999C88.9002 51.6999 88.9002 51.9999 88.8002 52.1999C88.8002 52.3999 88.6002 52.4999 88.3002 52.4999H85.5002C85.3002 52.4999 85.2002 52.3999 85.2002 52.1999V51.5999H88.2002V49.6999C88.6002 49.9999 89.0002 50.3999 89.6002 50.6999L90.0002 49.8999C89.0002 49.3999 88.4002 48.8999 88.1002 48.3999H89.9002V47.5999H88.2002V46.5999H89.7002V45.8999H88.2002V44.8999H87.4002V45.8999H85.7002V44.8999H84.8002V45.8999H83.6002C83.2002 45.6999 82.8002 45.3999 82.3002 45.0999L81.7002 45.7999C82.1002 46.0999 82.6002 46.3999 83.1002 46.8999L83.7002 46.1999V46.6999H84.9002V47.5999H83.5002V48.3999H85.0002C84.7002 48.9999 84.1002 49.4999 83.0002 49.9999L83.5002 50.7999C83.9002 50.4999 84.2002 50.2999 84.3002 50.1999V52.2999C84.3002 52.6999 84.3002 52.9999 84.5002 53.1999C84.7002 53.2999 84.9002 53.3999 85.3002 53.3999H88.3002C88.8002 53.3999 89.1002 53.3999 89.3002 53.1999C89.5002 52.9999 89.6002 52.4999 89.7002 51.5999L88.8002 51.2999L88.9002 51.1999ZM85.7002 46.6999H87.4002V47.5999H85.7002V46.6999ZM85.9002 48.3999H87.1002C87.3002 48.6999 87.5002 48.9999 87.7002 49.1999H85.3002C85.5002 48.9999 85.7002 48.6999 85.9002 48.3999ZM85.2002 49.8999H87.3002V50.7999H85.2002V49.8999Z" fill="#003477"/>
<path d="M83.2998 48.4C82.7998 48 82.3998 47.7 81.8998 47.5L81.2998 48.2C81.6998 48.4 82.0998 48.8 82.5998 49.2L83.1998 48.4H83.2998Z" fill="#003477"/>
<path d="M83.3004 50.7L82.5004 50.2C82.3004 51.1 81.9004 51.9 81.4004 52.7L82.1004 53.5C82.6004 52.7 83.0004 51.7 83.3004 50.7Z" fill="#003477"/>
<path d="M99.7004 48.9001C99.0004 48.4001 98.5004 48 98.0004 47.8L97.4004 48.4001C97.9004 48.7001 98.5004 49.1 99.1004 49.6L99.7004 48.9001Z" fill="#003477"/>
<path d="M93.7002 51.7999C94.3002 50.9999 94.7002 50.2999 95.0002 49.6999V53.4999H95.9002V49.1999C96.1002 49.3999 96.2002 49.5999 96.4002 49.7999C96.6002 49.9999 96.8002 50.1999 97.0002 50.4999L97.5002 49.6999C97.1002 49.2999 96.6002 48.7999 95.9002 48.1999H97.3002V47.3999H95.9002V46.0999C96.4002 45.9999 96.9002 45.8999 97.3002 45.6999L97.0002 44.8999C96.0002 45.2999 94.8002 45.4999 93.4002 45.5999L93.6002 46.3999C94.2002 46.3999 94.7002 46.3999 95.0002 46.1999V47.3999H93.3002V48.1999H95.0002C94.6002 49.1999 94.0002 50.1999 93.2002 51.0999L93.7002 51.8999V51.7999Z" fill="#003477"/>
<path d="M99.8 46.7001C99.1 46.2001 98.5 45.8001 98.1 45.6001L97.5 46.2001C97.9 46.5001 98.5 46.9001 99.2 47.4001L99.8 46.7001Z" fill="#003477"/>
<path d="M97.0996 51.5L100.2 51V53.5H101.1V50.7999H101.9V49.7999H101.1C101.1 49.8999 101.1 44.7 101.1 44.7H100.2V50L97.0996 50.5V51.4V51.5Z" fill="#003477"/>
<path d="M105 49.7L105.2 50.7C105.5 50.7 105.9 50.5 106.4 50.4V52.2999C106.4 52.4999 106.4 52.5999 106.1 52.5999H105.3L105.5 53.5H106.2C106.7 53.5 107 53.4999 107.1 53.2999C107.2 53.1999 107.3 52.9 107.3 52.4V50.0999C107.8 49.8999 108.2 49.8 108.4 49.7V48.7999C108.2 48.8999 107.8 49 107.3 49.2V47.5999H108.4V47H110.4V48.2H108.6V49H112.3C112 49.8 111.6 50.4 111 50.9C110.6 50.5 110.1 49.8999 109.7 49.0999L108.9 49.4C109.4 50.2 109.8 50.9 110.3 51.4C109.4 52 108.5 52.3999 107.6 52.5999L108.1 53.4C109 53.2 109.9 52.8 110.9 52C111.6 52.7 112.4 53.1 113.2 53.4L113.7 52.5C112.9 52.3 112.2 51.9 111.6 51.4C111.9 51.1 112.3 50.6999 112.6 50.0999C112.9 49.5999 113.1 49.0999 113.2 48.7999V48H111.3V46.7999H113.5V46H111.3V44.7H110.4V46H108.4V46.5999H107.3V44.7H106.4V46.5999H105V47.5H106.4V49.4C106 49.5 105.5 49.6 104.9 49.7H105Z" fill="#003477"/>
<path d="M116.9 52.6999L117.6 53.5999C119.7 52.1999 120.9 50.3999 121.3 48.1999H121.5C122.1 50.6999 123.3 52.4999 124.9 53.5999L125.6 52.7999C124.7 52.1999 124 51.4999 123.4 50.5999C122.9 49.7999 122.5 48.9999 122.4 48.1999H125.4V47.1999H121.5C121.5 46.6999 121.5 45.8999 121.5 44.8999H120.5C120.5 45.8999 120.5 46.6999 120.4 47.1999H117V48.1999H120.2C120 49.0999 119.7 49.8999 119 50.6999C118.4 51.4999 117.6 52.1999 116.7 52.6999H116.9Z" fill="#003477"/>
<path d="M133.7 46.0999C133.5 45.5999 133.2 45.1 132.9 44.7L132.1 45.0999C132.4 45.4999 132.6 46 132.8 46.5L133.6 46.0999H133.7Z" fill="#003477"/>
<path d="M129.7 47.5999H136.6V48.7999H137.5V46.7999H135.6C135.9 46.2999 136.2 45.7999 136.4 45.0999L135.4 44.7C135.1 45.6 134.8 46.2999 134.5 46.7999H128.7V48.7999H129.6V47.5999H129.7Z" fill="#003477"/>
<path d="M131.6 46.1999C131.3 45.6999 131.1 45.2999 130.8 44.8999L130 45.1999C130.3 45.5999 130.5 45.9999 130.8 46.4999L131.6 46.0999V46.1999Z" fill="#003477"/>
<path d="M132.3 52.9C132 52.9 131.6 52.9 131.3 52.9L131.5 53.8H132.8C133 53.8 133.2 53.8 133.4 53.5C133.5 53.4 133.6 53.2 133.6 53V51.5H137.2V50.7H133.6V50.4C134.4 50.1 135.2 49.7 135.9 49.3V48.5H130.4V49.3H134.5C133.8 49.6 133.2 49.8 132.6 50V50.7H128.9V51.5H132.6V52.8C132.6 53 132.5 53 132.3 53V52.9Z" fill="#003477"/>
<path d="M16.5996 34.2001C15.8996 34.5001 15.0996 34.7 14.2996 34.8V36.5H16.3996V37.2001H14.2996V39.2001C15.0996 39.0001 15.8996 38.7 16.4996 38.5V39.3C15.4996 39.7 14.3996 40 13.2996 40.3L13.0996 39.6C13.2996 39.6 13.3996 39.6 13.4996 39.6V34.4001C14.4996 34.3001 15.3996 34.1 16.1996 33.8L16.5996 34.4001V34.2001ZM19.9996 39C19.9996 39.2 19.9996 39.4 19.7996 39.5C19.5996 39.6 19.4996 39.7001 19.3996 39.7001C19.2996 39.7001 18.9996 39.7001 18.6996 39.7001C18.3996 39.7001 18.2996 39.7001 18.1996 39.7001L17.8996 38.9001C18.0996 38.9001 18.3996 38.9001 18.9996 38.9001C19.5996 38.9001 19.1996 38.9001 19.1996 38.7001V34.5H17.5996V40.5H16.8996V33.8H19.9996V38.9001V39Z" fill="black"/>
<path d="M25.3992 35.9001H22.2992V37.0001C22.2992 38.5001 22.0992 39.8001 21.7992 40.7001L21.1992 40.3001C21.4992 39.5001 21.5992 38.6001 21.5992 37.5001V33.8001H25.3992V35.9001ZM24.6992 35.2001V34.4001H22.2992V35.2001H24.6992ZM25.3992 39.5001C25.3992 39.7001 25.3992 39.9001 25.1992 39.9001C24.9992 39.9001 24.8992 40.0001 24.5992 39.9001L24.3992 39.3001C24.3992 39.3001 24.3992 39.3001 24.4992 39.3001C24.6992 39.3001 24.6992 39.3001 24.6992 39.1001V37.5001H24.1992V40.4001H23.5992V37.5001H23.1992V39.9001H22.5992V36.8001H23.6992V36.1001H24.2992V36.8001H25.3992V39.3001V39.5001ZM26.5992 39.1001H25.8992V34.1001H26.5992V39.1001ZM27.9992 39.9001C27.9992 40.2001 27.9992 40.4001 27.7992 40.5001C27.5992 40.5001 27.3992 40.6001 26.9992 40.6001C26.5992 40.6001 26.5992 40.6001 26.4992 40.6001L26.2992 39.9001C26.4992 39.9001 26.6992 39.9001 26.8992 39.9001C27.0992 39.9001 27.1992 39.9001 27.2992 39.9001C27.3992 39.9001 27.2992 39.9001 27.2992 39.7001V33.6001H27.9992V39.9001Z" fill="black"/>
<path d="M20.9 47.2001H15V46.9001H17.8C17.8 46.7001 17.6 46.6 17.5 46.5L17.8 46.3C17.9 46.5 18 46.7001 18.1 46.9001H20.8V47.2001H20.9ZM21 51.7001C21 52.0001 21 52.2 20.8 52.3C20.7 52.4 20.5 52.5 20.4 52.5H18.1C17.9 52.5 17.8 52.5 17.7 52.3C17.6 52.2 17.5 52 17.5 51.8V51.6L15 51.8V51.5L17.5 51.3V50.9001L15.4 51.1V50.8L17.5 50.6V50.2001C17 50.2001 16.5 50.2001 15.9 50.2001V49.9001C17.3 49.9001 18.7 49.9 19.7 49.6L19.9 49.9001C19.3 50.0001 18.6 50.1001 17.8 50.2001V50.6L20.4 50.4001V50.7001L17.8 50.9001V51.3L20.8 51.1V51.4001L17.8 51.6V51.9001C17.8 51.9001 17.8 52 17.8 52.1C17.8 52.1 17.9 52.1 18 52.1H20.1C20.4 52.1 20.5 51.9 20.5 51.5H20.8L21 51.7001ZM20.8 50H20.4V49.3H15.4V50H15V49H20.8V50ZM20.3 48.6H15.6V47.6H20.3V48.6ZM19.9 48.3V47.9001H16V48.3H19.9Z" fill="#AA8420" stroke="#AA8420" stroke-width="0.1" stroke-miterlimit="10"/>
<path d="M23.9998 50.1C23.5998 50.9 22.8998 51.6001 22.0998 52.2001L21.7998 51.9001C22.5998 51.3001 23.1998 50.7001 23.5998 49.9001L23.8998 50.1H23.9998ZM27.8998 49.2001H25.0998V52.5H24.6998V49.2001H21.8998V48.8H24.6998V46.3H25.0998V48.8H27.8998V49.2001ZM23.6998 48.2001L23.3998 48.4001C23.1998 48.0001 22.8998 47.5 22.4998 47L22.7998 46.8C23.1998 47.3 23.4998 47.7001 23.6998 48.2001ZM27.9998 51.9001L27.6998 52.2001C27.2998 51.5001 26.6998 50.8001 25.8998 50.2001L26.1998 50C26.7998 50.5 27.3998 51.2 27.9998 52V51.9001ZM27.2998 46.9001C26.9998 47.5001 26.6998 48.0001 26.3998 48.4001L25.9998 48.2001C26.2998 47.9001 26.5998 47.4001 26.8998 46.7001L27.1998 46.9001H27.2998Z" fill="#AA8420" stroke="#AA8420" stroke-width="0.1" stroke-miterlimit="10"/>
<path d="M174.499 38.7C174.399 39.4 174.199 40.1 173.999 40.6L173.399 40.4C173.599 39.8 173.799 39.2 173.899 38.6H174.499V38.7ZM176.299 35.1C175.699 36.2 175.099 37 174.499 37.7C174.699 37.7 174.999 37.6 175.399 37.5C175.399 37.4 175.399 37.2 175.199 37.1L175.699 36.9C175.899 37.3 176.099 37.8 176.199 38.2L175.699 38.4C175.699 38.2 175.699 38.1 175.699 38C175.099 38.2 174.499 38.3 173.699 38.4V37.8C173.999 37.4 174.499 36.9 174.899 36.2C174.599 36.2 174.199 36.3 173.699 36.4V35.9C174.099 35.3 174.599 34.5 174.999 33.5L175.599 33.7C175.299 34.4 174.899 35 174.499 35.7C174.799 35.7 175.099 35.7 175.299 35.6C175.499 35.4 175.599 35.1 175.799 34.8L176.399 35L176.299 35.1ZM175.499 40.3H174.899C174.899 39.9 174.899 39.3 174.699 38.7H175.299C175.399 39.2 175.499 39.7 175.499 40.3ZM176.399 39.3L175.899 39.5C175.899 39.2 175.699 38.9 175.599 38.6L176.099 38.4C176.199 38.7 176.299 39 176.399 39.3ZM177.799 37.4C177.799 38.4 177.399 39.4 176.399 40.4L175.899 40C176.599 39.4 176.999 38.8 177.199 38.1H176.399V37.5H177.899L177.799 37.4ZM180.499 39.8L179.999 40.4C179.499 40 179.099 39.5 178.599 38.7V39.9C178.599 40.1 178.599 40.3 178.299 40.4C178.099 40.5 177.699 40.6 177.199 40.6L176.999 39.9C177.399 39.9 177.599 39.9 177.699 39.9C177.799 39.9 177.899 39.9 177.899 39.8V36.9H176.399V34.3H177.399C177.499 34.1 177.699 33.8 177.799 33.6L178.499 33.8C178.499 34 178.299 34.2 178.199 34.4H179.999V37H178.599V37.6C178.599 37.7 178.699 37.9 178.899 38C179.099 37.8 179.399 37.6 179.699 37.2L180.199 37.6C179.899 37.9 179.599 38.2 179.199 38.5C179.499 38.9 179.899 39.3 180.399 39.8H180.499ZM179.299 35.3V34.8H177.099V35.3H179.299ZM179.299 36.3V35.8H177.099V36.3H179.299Z" fill="black"/>
<path d="M188.399 40.4001H181.399V39.7001H184.299V33.6001H184.999V36.0001H187.999V36.7001H184.999V39.7001H188.399V40.4001Z" fill="black"/>
<path d="M189.3 46.5C189.3 46.8 189.1 47.2 189 47.5L188.8 48V52.5H188.5V48.7001C188.3 49.1001 188.1 49.4 187.9 49.6L187.6 49.3C188.2 48.6 188.6 47.6 189 46.3H189.3V46.5ZM193.8 52L193.6 52.3C193.2 52.1 192.7 51.7001 192.2 51.2001C192.2 51.4001 192.2 51.5 192.2 51.6C192.2 51.9 192.2 52.1001 192.1 52.2001C192.1 52.3001 191.9 52.4 191.8 52.5C191.7 52.5 191.4 52.5 191.1 52.5C190.8 52.5 190.9 52.5 190.8 52.5V52.2001C191.3 52.2001 191.6 52.2001 191.7 52.2001C191.8 52.2001 191.9 52.0001 191.9 51.7001C191.9 51.4001 191.9 51.4001 191.9 51.2001C191.3 51.6001 190.5 52.0001 189.4 52.4001L189.2 52.1C190.3 51.8 191.2 51.4001 191.8 50.9001C191.8 50.9001 191.8 50.7 191.6 50.5C191 50.9 190.3 51.3 189.4 51.5L189.2 51.2001C190.2 50.9001 190.9 50.6001 191.5 50.2001C191.5 50.1001 191.3 50.0001 191.2 49.9001C190.7 50.2001 190.1 50.4 189.3 50.6L189.1 50.3C189.9 50.2 190.6 49.9 191.2 49.5H189.8V48.3C189.7 48.4 189.5 48.5 189.4 48.6L189.2 48.3C190 47.7 190.6 47.2 190.9 46.6L191.2 46.8C191.2 46.9 191.1 47 191 47.1H192.7V47.4001C192.5 47.6001 192.3 47.9 192.1 48.1H193.4V49.4001H191.8C191.7 49.5001 191.6 49.6001 191.5 49.7001C191.7 50.0001 191.9 50.2 192.1 50.6C192.5 50.4 192.9 50.1001 193.4 49.7001L193.7 49.9001C193.3 50.2001 192.9 50.5 192.4 50.8C192.9 51.4 193.5 51.8 194 52.1L193.8 52ZM192.2 47.2001H190.7C190.4 47.5001 190.2 47.7001 189.9 47.9001H191.6C191.8 47.6001 192.1 47.4001 192.2 47.2001ZM191.3 49V48.3H190V49H191.3ZM193 49V48.3H191.7V49H193Z" fill="#AA8420" stroke="#AA8420" stroke-width="0.1" stroke-miterlimit="10"/>
<path d="M200.7 48.8H197.8C197.3 49.2 196.8 49.4 196.3 49.6H197.4C198.1 49.6 198.5 49.6 198.5 49.6C198.8 49.5 199 49.3 199.4 49.1L199.7 49.3C198.5 50 197.4 50.5 196.2 50.8C197.4 50.8 198.6 50.8 199.7 50.6C199.5 50.4 199.4 50.3 199.2 50.1L199.5 49.9001C200 50.3001 200.4 50.8001 200.7 51.2001L200.4 51.4001C200.2 51.2001 200.1 51.0001 200 50.9001C199.3 50.9001 198.6 51 197.9 51V52C197.9 52.2 197.9 52.3001 197.7 52.4001C197.6 52.4001 197.4 52.5 197 52.5C196.6 52.5 196.8 52.5 196.8 52.5V52.1C196.8 52.1 197 52.1 197.1 52.1C197.3 52.1 197.4 52.1 197.4 52.1C197.4 52.1 197.4 52.1 197.4 52V51C196.8 51 196 51 195 51V50.7001C195.9 50.5001 196.8 50.2 197.7 49.8C197.2 49.8 196.6 49.8 196 49.8C195.4 49.8 195.6 49.8 195.5 49.8V49.5C196 49.3 196.6 49.0001 197.1 48.7001H194.5V48.4001H197.4V47.8H195.2V47.5H197.4V47H194.8V46.7001H197.4V46.3H197.8V46.7001H200.3V47H197.8V47.5H199.9V47.8H197.8V48.4001H200.6V48.7001L200.7 48.8ZM196.7 51.5C196.3 51.8 195.7 52.2 194.9 52.5L194.7 52.2001C195.4 51.9001 196 51.6 196.5 51.3L196.8 51.6L196.7 51.5ZM200.6 52.2001L200.4 52.5C199.9 52.1 199.3 51.8 198.6 51.5L198.8 51.2001C199.5 51.5001 200.1 51.8001 200.6 52.2001Z" fill="#AA8420" stroke="#AA8420" stroke-width="0.1" stroke-miterlimit="10"/>
</g>
<defs>
<clipPath id="clip0_83_3309">
<rect width="206" height="86" fill="white"/>
</clipPath>
</defs>
</svg>
