<svg width="244" height="76" viewBox="0 0 244 76" fill="none" xmlns="http://www.w3.org/2000/svg">
<path d="M44.0998 75.0999H36.7998V0.399902H44.0998V0.599902H36.9998V74.7999H44.0998V74.9999V75.0999Z" fill="#231815"/>
<path d="M205.9 75.1H198.6V74.9H205.7V0.7H198.6V0.5H205.9V75.2V75.1Z" fill="#231815"/>
<path d="M205.9 75.1H198.6V74.9H205.7V0.7H198.6V0.5H205.9V75.2V75.1Z" fill="#231815"/>
<path d="M4.90039 46.2V46.9H0.900391V46.2H2.50039V40.7999L1.00039 41.7V40.9L2.80039 39.7H3.30039V46.0999H4.90039V46.2Z" fill="#AA8420"/>
<path d="M10.8 43.9001C11.1 44.2001 11.2 44.6 11.2 45C11.2 45.4 11 46.1001 10.5 46.4001C10 46.8001 9.4 46.9001 8.6 46.9001C7.8 46.9001 7.2 46.7001 6.7 46.4001C6.2 46.1001 6 45.6 6 45C6 44.4 6.1 44.2001 6.4 43.9001C6.7 43.6001 7 43.4 7.5 43.3C7.1 43.2 6.7 43.0001 6.5 42.7001C6.3 42.4001 6.2 42.1001 6.2 41.7001C6.2 41.3001 6.3 41.0001 6.5 40.7001C6.7 40.4001 7 40.2 7.3 40C7.7 39.8 8.1 39.8 8.6 39.8C9.1 39.8 9.5 39.8 9.8 40C10.2 40.2 10.5 40.4001 10.6 40.7001C10.8 41.0001 10.9 41.3001 10.9 41.7001C10.9 42.1001 10.8 42.4001 10.5 42.7001C10.3 43.0001 9.9 43.2 9.5 43.3C10 43.4 10.3 43.6 10.6 44L10.8 43.9001ZM9.9 46C10.2 45.8 10.3 45.4 10.3 45C10.3 44.6 10.1 44.3 9.8 44.1C9.5 43.9 9.1 43.7001 8.5 43.7001C8 43.7001 7.6 43.9 7.2 44.1C6.9 44.3 6.7 44.6 6.7 45C6.7 45.4 6.9 45.8 7.2 46C7.5 46.2 7.9 46.3 8.5 46.3C9.1 46.3 9.5 46.2 9.8 46H9.9ZM7.5 42.6C7.8 42.8 8.2 43 8.6 43C9.1 43 9.5 42.8 9.7 42.6C10 42.4 10.1 42.1001 10.1 41.7001C10.1 41.3001 10 41 9.7 40.8C9.4 40.6 9 40.5 8.6 40.5C8.2 40.5 7.7 40.6 7.5 40.8C7.2 41 7.1 41.3001 7.1 41.7001C7.1 42.1001 7.2 42.4 7.5 42.6Z" fill="#AA8420"/>
<path d="M215.9 43.9001C216.2 44.2001 216.3 44.6 216.3 45C216.3 45.4 216.1 46.1001 215.6 46.4001C215.1 46.8001 214.5 46.9001 213.7 46.9001C212.9 46.9001 212.3 46.7001 211.8 46.4001C211.3 46.1001 211.1 45.6 211.1 45C211.1 44.4 211.2 44.2001 211.5 43.9001C211.8 43.6001 212.1 43.4 212.6 43.3C212.2 43.2 211.8 43.0001 211.6 42.7001C211.4 42.4001 211.3 42.1001 211.3 41.7001C211.3 41.3001 211.3 41.0001 211.6 40.7001C211.8 40.4001 212.1 40.2 212.4 40C212.8 39.8 213.2 39.8 213.6 39.8C214 39.8 214.5 39.8 214.8 40C215.2 40.2 215.4 40.4001 215.6 40.7001C215.8 41.0001 215.9 41.3001 215.9 41.7001C215.9 42.1001 215.8 42.4001 215.6 42.7001C215.4 43.0001 215 43.2 214.6 43.3C215.1 43.4 215.4 43.6 215.7 44L215.9 43.9001ZM215 46C215.3 45.8 215.4 45.4 215.4 45C215.4 44.6 215.2 44.3 214.9 44.1C214.6 43.9 214.2 43.7001 213.6 43.7001C213.1 43.7001 212.7 43.9 212.3 44.1C212 44.3 211.8 44.6 211.8 45C211.8 45.4 212 45.8 212.3 46C212.6 46.2 213 46.3 213.6 46.3C214.2 46.3 214.6 46.2 214.9 46H215ZM212.6 42.6C212.9 42.8 213.3 43 213.7 43C214.2 43 214.6 42.8 214.8 42.6C215.1 42.4 215.2 42.1001 215.2 41.7001C215.2 41.3001 215.1 41 214.8 40.8C214.5 40.6 214.1 40.5 213.7 40.5C213.3 40.5 212.8 40.6 212.5 40.8C212.2 41 212.1 41.3001 212.1 41.7001C212.1 42.1001 212.2 42.4 212.5 42.6H212.6Z" fill="#AA8420"/>
<path d="M217.9 46.1C217.5 45.5 217.3 44.6001 217.3 43.4001C217.3 42.2001 217.5 41.3001 217.9 40.7001C218.3 40.1001 218.9 39.8 219.8 39.8C220.7 39.8 221.2 40.1001 221.7 40.7001C222.1 41.3001 222.3 42.2001 222.3 43.4001C222.3 44.6001 222.1 45.5 221.7 46.1C221.3 46.7 220.7 47 219.8 47C218.9 47 218.4 46.7 217.9 46.1ZM221 45.6C221.3 45.1 221.4 44.4001 221.4 43.4001C221.4 42.4001 221.3 41.6001 221 41.2001C220.7 40.7001 220.3 40.5 219.7 40.5C219.1 40.5 218.7 40.7001 218.5 41.2001C218.2 41.7001 218.1 42.4001 218.1 43.4001C218.1 44.4001 218.2 45.2 218.5 45.6C218.8 46.1 219.2 46.3 219.7 46.3C220.2 46.3 220.7 46.1 220.9 45.6H221Z" fill="#AA8420"/>
<path d="M126.9 8.5999C127.1 8.3999 127.1 7.8999 127.1 7.8999H115.9C115.9 7.8999 116 8.3999 116.2 8.5999H126.9Z" fill="#AA8420"/>
<path d="M126.2 9.4999C126.4 9.2999 126.6 8.8999 126.6 8.8999H116.3C116.3 8.8999 116.4 9.1999 116.7 9.4999H126.2Z" fill="#AA8420"/>
<path d="M125.4 10.4C125.7 10.3 125.9 10 125.9 10H117.1C117.1 10 117.3 10.2 117.5 10.4H125.4Z" fill="#AA8420"/>
<path d="M124.4 11.1999C124.6 11.1999 124.9 10.8999 124.9 10.8999H118.1C118.1 10.8999 118.1 10.8999 118.6 11.1999H124.4Z" fill="#AA8420"/>
<path d="M119.4 11.7C119.4 11.7 120.1 12.1 121.5 12.1C122.9 12.1 123.8 11.7 123.8 11.7H119.3H119.4Z" fill="#AA8420"/>
<path d="M119.2 12.7C119.2 12.7 120.1 12.7 120.6 13.1C121.1 13.5 121.5 14.2 121.5 14.2C121.5 14.2 121.8 13.5 122.3 13.2C122.8 12.8 123.6 12.7 123.6 12.7H132.5L134.2 15.3H126.3C126.3 15.3 125.7 15.3 124.9 15.8C124.5 16 124.1 16.5 124.1 16.5C124.1 16.5 124.1 16.7 123.9 16.8C123.9 16.9 123.7 17 123.6 17.1H119.5C119.5 17.1 119.3 17.1 119.3 16.9C119.3 16.8 119.3 16.9 119.2 16.7C119.2 16.6 119 16.3 118.3 15.9C117.7 15.5 117 15.4 117 15.4H108.9L110.7 12.7H119.4H119.2Z" fill="#003477"/>
<path d="M113 16.3V29.5C113 29.5 113 30.7001 114 32.2001C115 33.8001 116.4 34.5 116.4 34.5L117.5 32.8C117.5 32.8 116.5 32.2 115.8 31.1C115.1 30 115.1 29 115.1 29V16.3H113Z" fill="#003477"/>
<path d="M127.9 16.3V29C127.9 29 127.7 30.3001 127.1 31.2001C126.5 32.1001 125.5 32.9001 125.5 32.9001L126.6 34.6C126.6 34.6 128.2 33.4001 129 32.2001C129.8 31.0001 130 29.1 130 29.1V16.4H127.9V16.3Z" fill="#003477"/>
<path d="M109.7 16.3V29.5C109.7 29.5 109.8 31.6001 111.1 33.7001C112.4 35.8001 114.7 37.3 114.7 37.3L115.8 35.6C115.8 35.6 114.3 34.8 113.1 33C111.9 31.2 111.8 29.5 111.8 29.5V16.3H109.6H109.7Z" fill="#003477"/>
<path d="M119.2 17.7001V31.7001C119.2 31.7001 119.2 31.7001 119.2 32.0001C119.2 32.2001 119 32.3001 119 32.3001L114.3 40.0001H128.6L123.9 32.1001V31.7001C123.8 31.7001 123.7 31.3001 123.7 31.3001V17.6001H122V31.8001C122 31.8001 122 32.0001 122 32.2001C122 32.4001 122.1 32.6001 122.1 32.6001L125 37.3001H117.7L120.5 32.6001C120.5 32.6001 120.5 32.4001 120.7 32.2001C120.7 32.0001 120.7 31.8001 120.7 31.8001V17.6001H119L119.2 17.7001Z" fill="#AA8420"/>
<path d="M131.2 16.3V29.3C131.2 29.3 131.2 31.0001 130 32.9001C128.8 34.8001 127.3 35.6 127.3 35.6L128.3 37.4001C128.3 37.4001 130.4 36.0001 131.8 33.9001C133.1 31.8001 133.3 29.3 133.3 29.3V16.3H131.2Z" fill="#003477"/>
<path d="M115.9 7.6C115.9 7.6 115.2 3.7 118.1 1.7C118.1 1.7 119.4 0.5 121.5 0.5C123.6 0.5 125 1.7 125 1.7C128.1 4 127.2 7.6 127.2 7.6H115.9Z" fill="#AA8420"/>
<path d="M50.5996 57.8H52.1996V63.9H53.0996V57.8H54.6996V57H50.5996V57.8Z" fill="#003477"/>
<path d="M59.5004 59.8H56.2004V57H55.4004V63.8H56.2004V60.5H59.5004V63.8H60.3004V57H59.5004V59.8Z" fill="#003477"/>
<path d="M65.4002 63.1H62.6002V60.5H65.3002V59.7H62.6002V57.8H65.4002V57H61.7002V63.8H65.4002V63V63.1Z" fill="#003477"/>
<path d="M73.3002 59.8H70.1002V57H69.2002V63.8H70.1002V60.5H73.3002V63.8H74.1002V57H73.3002V59.8Z" fill="#003477"/>
<path d="M82.1004 60.4001C82.1004 58.4001 80.5004 56.8 78.5004 56.8C76.5004 56.8 74.9004 58.4001 74.9004 60.4001C74.9004 62.4001 76.5004 64 78.5004 64C80.5004 64 82.1004 62.5001 82.1004 60.4001ZM78.5004 63.2001C77.0004 63.2001 75.8004 62.0001 75.8004 60.4001C75.8004 58.8001 76.9004 57.6 78.5004 57.6C80.1004 57.6 81.2004 58.9001 81.2004 60.4001C81.2004 61.9001 80.0004 63.2001 78.5004 63.2001Z" fill="#003477"/>
<path d="M83.8004 58.7999L88.9004 64.1999V57.0999H88.0004V62.0999L82.9004 56.7V63.9H83.7004V58.7999H83.8004Z" fill="#003477"/>
<path d="M93.3998 57.6999C94.1998 57.6999 95.0998 58.1999 95.5998 58.7999L96.1998 58.1999C95.4998 57.3999 94.4998 56.8999 93.3998 56.8999C91.3998 56.8999 89.7998 58.4999 89.7998 60.4999C89.7998 62.4999 91.2998 64.0999 93.2998 64.0999C95.2998 64.0999 96.4998 62.6999 96.4998 60.7999V60.4999H93.7998V61.2999H95.5998C95.5998 62.3999 94.3998 63.2999 93.3998 63.2999C92.3998 63.2999 90.6998 61.8999 90.6998 60.4999C90.6998 59.0999 91.8998 57.6999 93.3998 57.6999Z" fill="#003477"/>
<path d="M100.1 57V63.8H100.9V61L101.2 60.7L103.8 63.9H105L101.9 60.1L105 57H103.9L101 60V57H100.2H100.1Z" fill="#003477"/>
<path d="M105.2 60.4001C105.2 62.4001 106.8 64 108.8 64C110.8 64 112.4 62.5001 112.4 60.4001C112.4 58.3001 110.8 56.8 108.8 56.8C106.8 56.8 105.2 58.4001 105.2 60.4001ZM108.8 57.7001C110.4 57.7001 111.5 59 111.5 60.5C111.5 62 110.3 63.3 108.8 63.3C107.3 63.3 106.1 62.1 106.1 60.5C106.1 58.9 107.2 57.7001 108.8 57.7001Z" fill="#003477"/>
<path d="M114 58.7999L119.1 64.1999V57.0999H118.3V62.0999L113.2 56.7V63.9H114.1V58.7999H114Z" fill="#003477"/>
<path d="M124 61.2001H125.8C125.8 62.3001 124.6 63.2001 123.6 63.2001C122.6 63.2001 120.9 61.8001 120.9 60.4001C120.9 59.0001 122.1 57.6 123.6 57.6C125.1 57.6 125.3 58.1001 125.8 58.7001L126.4 58.1C125.7 57.3 124.7 56.8 123.6 56.8C121.6 56.8 120 58.4001 120 60.4001C120 62.4001 121.5 64 123.5 64C125.5 64 126.7 62.6001 126.7 60.7001V60.4001H124V61.2001Z" fill="#003477"/>
<path d="M135.3 61.3V57H134.5V61C134.5 62.1 134.2 63.1 132.8 63.1C131.4 63.1 131.2 62.1 131.2 61V57H130.3V61.3C130.3 62.8 131.2 64 132.8 64C134.4 64 135.3 62.8 135.3 61.3Z" fill="#003477"/>
<path d="M142.4 57.0001H141.5V62.0001L136.4 56.6001V63.8001H137.2V58.7001L142.3 64.1001V57.0001H142.4Z" fill="#003477"/>
<path d="M144.6 57H143.7V63.8H144.6V57Z" fill="#003477"/>
<path d="M151.2 57H150.3L148.3 62.1L146.3 57H145.4L148.4 64.2L151.4 57H151.2Z" fill="#003477"/>
<path d="M155.5 57.8V57H151.8V63.8H155.5V63H152.7V60.4H155.4V59.6H152.7V57.7H155.5V57.8Z" fill="#003477"/>
<path d="M157.5 61.0001H157.9L159.9 63.9001H160.9L158.7 60.9001C159.7 60.8001 160.3 60.0001 160.3 59.0001C160.3 58.0001 160 57.7001 159.4 57.4001C158.9 57.1001 158.2 57.1001 157.6 57.1001H156.6V63.9001H157.4V61.0001H157.5ZM157.5 57.8001H157.7C158.5 57.8001 159.6 57.9001 159.6 59.0001C159.6 60.1001 158.7 60.2001 157.8 60.2001H157.5V57.7001V57.8001Z" fill="#003477"/>
<path d="M163.5 63.2001C162.8 63.2001 162.2 62.7001 162.2 61.9001L161.3 62.1C161.4 63.2 162.3 64 163.4 64C164.5 64 165.6 63.1001 165.6 61.9001C165.6 60.7001 164.9 60.2 163.9 59.8L163.4 59.6C163 59.4 162.4 59.2 162.4 58.6C162.4 58 163 57.6 163.6 57.6C164.2 57.6 164.4 57.8001 164.7 58.2001L165.4 57.8C165 57.1 164.4 56.8 163.6 56.8C162.8 56.8 161.6 57.5 161.6 58.6C161.6 59.7 162.3 60 163.1 60.3L163.6 60.5C164.2 60.7 164.8 61.1 164.8 61.8C164.8 62.5 164.3 63.1 163.5 63.1V63.2001Z" fill="#003477"/>
<path d="M167.4 57H166.6V63.8H167.4V57Z" fill="#003477"/>
<path d="M170.7 63.9V57.8H172.3V57H168.2V57.8H169.8V63.9H170.6H170.7Z" fill="#003477"/>
<path d="M174.6 63.9H175.5V60.9L177.7 57H176.7L175 59.9L173.3 57H172.3L174.5 60.9V63.9H174.6Z" fill="#003477"/>
<path d="M184.1 56.8999C182.1 56.8999 180.5 58.4999 180.5 60.4999C180.5 62.4999 182.1 64.0999 184.1 64.0999C186.1 64.0999 187.7 62.5999 187.7 60.4999C187.7 58.3999 186.1 56.8999 184.1 56.8999ZM184.1 63.1999C182.6 63.1999 181.4 61.9999 181.4 60.3999C181.4 58.7999 182.5 57.5999 184.1 57.5999C185.7 57.5999 186.8 58.8999 186.8 60.3999C186.8 61.8999 185.6 63.1999 184.1 63.1999Z" fill="#003477"/>
<path d="M191.9 57.8V57H188.6V63.8H189.4V60.4H191.8V59.6H189.4V57.7H191.9V57.8Z" fill="#003477"/>
<path d="M63.8002 70.7L63.3002 70.5C62.9002 70.3 62.4002 70 62.4002 69.5C62.4002 69 63.0002 68.5 63.5002 68.5C64.0002 68.5 64.3002 68.7 64.6002 69.2L65.3002 68.8C64.9002 68.1 64.3002 67.8 63.5002 67.8C62.7002 67.8 61.5002 68.5 61.5002 69.6C61.5002 70.7 62.2002 71 63.0002 71.3L63.5002 71.5C64.1002 71.7 64.7002 72.1 64.7002 72.8C64.7002 73.5 64.2002 74.1 63.4002 74.1C62.6002 74.1 62.1002 73.6 62.1002 72.8L61.2002 73C61.4002 74.1 62.2002 74.9 63.3002 74.9C64.4002 74.9 65.5002 74 65.5002 72.8C65.5002 71.6 64.8002 71.1 63.8002 70.7Z" fill="#003477"/>
<path d="M66.0996 71.4C66.0996 73.4 67.6996 74.9 69.6996 74.9C71.6996 74.9 70.9996 74.7 71.4996 74.4V73.4C70.9996 73.8 70.2996 74.1 69.6996 74.1C68.1996 74.1 66.9996 72.8 66.9996 71.3C66.9996 69.8 68.1996 68.5 69.6996 68.5C71.1996 68.5 70.9996 68.7 71.4996 69.2V68.2C70.9996 67.9 70.3996 67.7 69.7996 67.7C67.7996 67.7 66.1996 69.3 66.1996 71.3L66.0996 71.4Z" fill="#003477"/>
<path d="M73.4 67.8999H72.5V74.6999H73.4V67.8999Z" fill="#003477"/>
<path d="M74.7998 74.7999H78.4998V73.9999H75.6998V71.3999H78.3998V70.5999H75.6998V68.6999H78.4998V67.8999H74.7998V74.6999V74.7999Z" fill="#003477"/>
<path d="M84.6996 73.0001L79.5996 67.6001V74.8001H80.4996V69.7001L85.5996 75.1001V68.0001H84.6996V73.0001Z" fill="#003477"/>
<path d="M86.4004 71.4C86.4004 73.4 88.0004 74.9 90.0004 74.9C92.0004 74.9 91.3004 74.7 91.8004 74.4V73.4C91.3004 73.8 90.6004 74.1 90.0004 74.1C88.5004 74.1 87.3004 72.8 87.3004 71.3C87.3004 69.8 88.5004 68.5 90.0004 68.5C91.5004 68.5 91.3004 68.7 91.8004 69.2V68.2C91.3004 67.9 90.7004 67.7 90.1004 67.7C88.1004 67.7 86.5004 69.3 86.5004 71.3L86.4004 71.4Z" fill="#003477"/>
<path d="M92.9004 74.7999H96.6004V73.9999H93.8004V71.3999H96.5004V70.5999H93.8004V68.6999H96.6004V67.8999H92.9004V74.6999V74.7999Z" fill="#003477"/>
<path d="M99.6996 74.8H100.6L101.4 73.1H104.5L105.3 74.8H106.2L102.9 67.7L99.5996 74.8H99.6996ZM101.8 72.3L103 69.5L104.2 72.3H101.8Z" fill="#003477"/>
<path d="M112 73.0001L106.9 67.6001V74.8001H107.7V69.7001L112.8 75.1001V68.0001H112V73.0001Z" fill="#003477"/>
<path d="M115.5 67.9H114.1V74.7H115.5C117.7 74.7 119.4 73.6 119.4 71.2C119.4 68.8 117.7 67.8 115.6 67.8L115.5 67.9ZM115.2 74H114.9V68.7H115.2C116.9 68.7 118.4 69.3 118.4 71.3C118.4 73.3 116.9 73.9 115.2 73.9V74Z" fill="#003477"/>
<path d="M122.3 68.6999H123.9V74.7999H124.8V68.6999H126.4V67.8999H122.3V68.6999Z" fill="#003477"/>
<path d="M127.2 74.7999H130.9V73.9999H128.1V71.3999H130.8V70.5999H128.1V68.6999H130.9V67.8999H127.2V74.6999V74.7999Z" fill="#003477"/>
<path d="M131.6 71.4C131.6 73.4 133.2 74.9 135.2 74.9C137.2 74.9 136.5 74.7 137 74.4V73.4C136.5 73.8 135.9 74.1 135.2 74.1C133.7 74.1 132.5 72.8 132.5 71.3C132.5 69.8 133.7 68.5 135.2 68.5C136.7 68.5 136.5 68.7 137 69.2V68.2C136.5 67.9 135.9 67.7 135.3 67.7C133.3 67.7 131.7 69.3 131.7 71.3L131.6 71.4Z" fill="#003477"/>
<path d="M142.1 70.6999H138.9V67.8999H138.1V74.6999H138.9V71.3999H142.1V74.6999H143V67.8999H142.1V70.6999Z" fill="#003477"/>
<path d="M149.3 73.0001L144.2 67.6001V74.8001H145.1V69.7001L150.2 75.1001V68.0001H149.3V73.0001Z" fill="#003477"/>
<path d="M154.6 67.8C152.6 67.8 151 69.4 151 71.4C151 73.4 152.6 75 154.6 75C156.6 75 158.2 73.5 158.2 71.4C158.2 69.3 156.6 67.8 154.6 67.8ZM154.6 74.1C153.1 74.1 151.9 72.9 151.9 71.3C151.9 69.7 153 68.5 154.6 68.5C156.2 68.5 157.3 69.8 157.3 71.3C157.3 72.8 156.1 74.1 154.6 74.1Z" fill="#003477"/>
<path d="M160 67.9H159.1V74.7H162V73.9H159.9V67.8L160 67.9Z" fill="#003477"/>
<path d="M165.8 67.8C163.8 67.8 162.2 69.4 162.2 71.4C162.2 73.4 163.8 75 165.8 75C167.8 75 169.4 73.5 169.4 71.4C169.4 69.3 167.8 67.8 165.8 67.8ZM165.8 74.1C164.3 74.1 163.1 72.9 163.1 71.3C163.1 69.7 164.2 68.5 165.8 68.5C167.4 68.5 168.5 69.8 168.5 71.3C168.5 72.8 167.3 74.1 165.8 74.1Z" fill="#003477"/>
<path d="M173.8 72.1H175.6C175.6 73.2 174.4 74.1 173.4 74.1C172.4 74.1 170.7 72.7 170.7 71.3C170.7 69.9 171.9 68.5 173.4 68.5C174.9 68.5 175.1 68.9 175.5 69.6L176.1 69C175.4 68.2 174.4 67.7 173.3 67.7C171.3 67.7 169.7 69.3 169.7 71.3C169.7 73.3 171.2 74.9 173.2 74.9C175.2 74.9 176.4 73.5 176.4 71.6V71.3H173.7V72.1H173.8Z" fill="#003477"/>
<path d="M179.4 70.7999L177.7 67.8999H176.7L178.9 71.7999V74.7999H179.7V71.7999L181.9 67.8999H180.9L179.2 70.7999H179.4Z" fill="#003477"/>
<path d="M88.0002 49.5C88.4002 49.4 88.6002 49.3 88.8002 49.2V53.2H89.7002V52.8H94.3002V53.2H95.2002V49.2C95.3002 49.2 95.5002 49.3 95.6002 49.4C95.8002 49.4 95.9002 49.4 96.0002 49.5L96.4002 48.7C95.1002 48.4 94.0002 48 93.3002 47.3H96.3002V46.5H92.4002V45.7C93.6002 45.6 94.7002 45.5 95.5002 45.3L95.1002 44.5C93.8002 44.8 92.0002 44.9 89.5002 44.9C87.0002 44.9 88.5002 44.9 88.2002 44.9L88.5002 45.7C89.1002 45.7 90.1002 45.7 91.5002 45.7V46.5H87.7002V47.3H90.6002C89.8002 48 88.8002 48.5 87.7002 48.7L88.1002 49.5H88.0002ZM94.2002 52H89.6002V51.2H94.2002V52ZM92.3002 47.3C92.9002 48.1 93.6002 48.6 94.6002 49H92.3002V47.3ZM94.2002 49.8V50.5H89.6002V49.8H94.2002ZM91.4002 47.3V49H89.3002C90.2002 48.6 90.9002 48.1 91.4002 47.3Z" fill="#003477"/>
<path d="M101.3 50.3L100.5 49.8C100.3 50.7 99.9004 51.5 99.4004 52.3L100.1 53.1C100.6 52.3 101 51.3 101.3 50.3Z" fill="#003477"/>
<path d="M101.4 48.0001C100.9 47.6001 100.5 47.3001 100 47.1001L99.4004 47.8001C99.8004 48.0001 100.2 48.4001 100.7 48.8001L101.3 48.0001H101.4Z" fill="#003477"/>
<path d="M101.7 45.7999V46.2999H102.9V47.2H101.5V48H103C102.7 48.6 102.1 49.0999 101.1 49.5999L101.6 50.4C102 50.1 102.3 49.8999 102.4 49.7999V51.9C102.4 52.3 102.4 52.5999 102.6 52.7999C102.8 52.9999 103 53 103.4 53H106.4C106.9 53 107.2 52.9999 107.3 52.7999C107.5 52.5999 107.6 52.0999 107.7 51.2999L106.8 51C106.8 51.5 106.8 51.8 106.7 52C106.7 52.2 106.5 52.2999 106.2 52.2999H103.4C103.2 52.2999 103.1 52.2 103.1 52V51.4H106.1V49.5C106.5 49.8 106.9 50.2 107.5 50.5L107.9 49.7C106.9 49.2 106.3 48.7 106 48.2H107.8V47.4H106.1V46.4H107.6V45.7H106.1V44.7H105.3V45.7H103.6V44.7H102.8V45.7H101.6C101.2 45.5 100.8 45.2 100.3 44.9L99.7002 45.5999C100.1 45.8999 100.6 46.2 101.1 46.7L101.7 46V45.7999ZM103.7 46.2999H105.4V47.2H103.7V46.2999ZM103.9 48H105.1C105.3 48.3 105.5 48.5999 105.7 48.7999H103.3C103.5 48.5999 103.7 48.3 103.8 48H103.9ZM103.2 49.5H105.3V50.4H103.2V49.5Z" fill="#003477"/>
<path d="M117.9 46.2999C117.2 45.7999 116.6 45.4 116.2 45.2L115.6 45.7999C116 46.0999 116.6 46.5 117.3 47L117.9 46.2999Z" fill="#003477"/>
<path d="M119.1 44.4999H118.2V49.7999L115.1 50.2999V51.1999L118.2 50.6999V53.1999H119.1V50.4999H119.9V49.4999H119.1C119.1 49.5999 119.1 44.3999 119.1 44.3999V44.4999Z" fill="#003477"/>
<path d="M117.7 48.4999C117 47.9999 116.5 47.5999 116 47.3999L115.4 47.9999C115.9 48.2999 116.5 48.6999 117.1 49.1999L117.7 48.4999Z" fill="#003477"/>
<path d="M113.9 53.2001V48.9001C114.1 49.1001 114.2 49.3001 114.4 49.5001C114.6 49.7001 114.8 50.0001 115 50.2001L115.5 49.4001C115.2 49.0001 114.6 48.5001 113.9 47.9001H115.3V47.1001H113.9V45.8001C114.4 45.8001 114.9 45.6001 115.3 45.4001L115 44.6001C114 45.0001 112.8 45.2001 111.4 45.3001L111.6 46.1001C112.2 46.1001 112.7 46.0001 113 45.9001V47.1001H111.3V47.9001H113C112.6 48.9001 112 49.9001 111.2 50.8001L111.7 51.6001C112.3 50.8001 112.7 50.1001 113 49.5001V53.3001H113.8L113.9 53.2001Z" fill="#003477"/>
<path d="M123.1 49.3999L123.3 50.3999C123.6 50.3999 124 50.1999 124.5 50.0999V51.9999C124.5 52.1999 124.5 52.2999 124.2 52.2999H123.4L123.6 53.1999H124.3C124.8 53.1999 125.1 53.1999 125.2 52.9999C125.3 52.8999 125.4 52.5999 125.4 52.0999V49.7999C125.9 49.5999 126.3 49.4999 126.5 49.3999V48.4999C126.3 48.5999 125.9 48.6999 125.4 48.8999V47.2999H126.5V46.6999H128.5V47.8999H126.7V48.6999H130.4C130.1 49.4999 129.7 50.0999 129.1 50.5999C128.7 50.1999 128.2 49.5999 127.8 48.7999L127 49.0999C127.5 49.8999 127.9 50.5999 128.4 51.0999C127.5 51.6999 126.6 52.0999 125.7 52.2999L126.2 53.0999C127.1 52.8999 128 52.4999 129 51.6999C129.7 52.2999 130.5 52.7999 131.3 53.0999L131.8 52.1999C131 51.9999 130.3 51.5999 129.7 51.0999C130.1 50.7999 130.4 50.3999 130.7 49.7999C131 49.2999 131.2 48.7999 131.3 48.4999V47.6999H129.4V46.4999H131.6V45.6999H129.4V44.3999H128.5V45.6999H126.5V46.2999H125.4V44.3999H124.5V46.2999H123.1V47.0999H124.5V48.9999C124.1 49.0999 123.6 49.1999 123 49.2999L123.1 49.3999Z" fill="#003477"/>
<path d="M141.5 50.2C141 49.4 140.6 48.6 140.5 47.8H143.5V46.8H139.6C139.6 46.3 139.6 45.5 139.6 44.5H138.6C138.6 45.5 138.6 46.3 138.5 46.8H135.1V47.8H138.3C138.1 48.7 137.8 49.5 137.1 50.3C136.5 51.1 135.7 51.8 134.8 52.3L135.5 53.2C137.6 51.8 138.8 50 139.2 47.8H139.3C139.9 50.3 141.1 52.1 142.7 53.2L143.4 52.4C142.5 51.8 141.8 51.1 141.2 50.2H141.5Z" fill="#003477"/>
<path d="M147.8 47.2999H154.5V48.3999H155.4V46.4999H153.6C153.9 46.0999 154.1 45.4999 154.4 44.7999L153.4 44.3999C153.1 45.2999 152.8 45.8999 152.5 46.3999H146.9V48.2999H147.8V47.0999V47.2999Z" fill="#003477"/>
<path d="M150.4 52.3999C150.1 52.3999 149.8 52.3999 149.5 52.3999L149.7 53.1999H151C151.2 53.1999 151.4 53.1999 151.6 52.8999C151.7 52.7999 151.8 52.5999 151.8 52.3999V50.8999H155.3V50.0999H151.8V49.7999C152.6 49.4999 153.4 49.0999 154 48.6999V47.8999H148.7V48.6999H152.7C152.1 48.9999 151.5 49.1999 150.9 49.3999V49.9999H147.4V50.7999H150.9V51.9999C150.9 52.0999 150.8 52.1999 150.6 52.1999L150.4 52.3999Z" fill="#003477"/>
<path d="M149.6 46C149.4 45.5 149.1 45.1 148.8 44.8L148.1 45.1C148.4 45.5 148.6 45.9001 148.8 46.4001L149.6 46Z" fill="#003477"/>
<path d="M151.7 45.8C151.5 45.3 151.2 44.9 151 44.5L150.2 44.8C150.4 45.2 150.7 45.7 150.9 46.2L151.7 45.8Z" fill="#003477"/>
<path d="M16.5996 28.4999C15.8996 28.7999 15.0996 28.9999 14.2996 29.0999V30.7999H16.3996V31.4999H14.2996V33.4999C15.0996 33.2999 15.8996 32.9999 16.4996 32.7999V33.5999C15.4996 33.9999 14.3996 34.2999 13.2996 34.5999L13.0996 33.8999C13.2996 33.8999 13.3996 33.8999 13.4996 33.8999V28.6999C14.4996 28.5999 15.3996 28.3999 16.1996 28.0999L16.5996 28.6999V28.4999ZM19.9996 33.2999C19.9996 33.4999 19.9996 33.6999 19.7996 33.7999C19.5996 33.8999 19.4996 33.9999 19.3996 33.9999C19.2996 33.9999 18.9996 33.9999 18.6996 33.9999C18.3996 33.9999 18.2996 33.9999 18.1996 33.9999L17.8996 33.1999C18.0996 33.1999 18.3996 33.1999 18.9996 33.1999C19.5996 33.1999 19.1996 33.1999 19.1996 32.9999V28.7999H17.5996V34.7999H16.8996V28.0999H19.9996V33.1999V33.2999Z" fill="black"/>
<path d="M25.3992 30.1999H22.2992V31.2999C22.2992 32.7999 22.0992 34.0999 21.7992 34.9999L21.1992 34.5999C21.4992 33.7999 21.5992 32.8999 21.5992 31.7999V28.0999H25.3992V30.1999ZM24.6992 29.4999V28.6999H22.2992V29.4999H24.6992ZM25.3992 33.7999C25.3992 33.9999 25.3992 34.1999 25.1992 34.1999C24.9992 34.1999 24.8992 34.2999 24.5992 34.1999L24.3992 33.5999C24.3992 33.5999 24.3992 33.5999 24.4992 33.5999C24.6992 33.5999 24.6992 33.5999 24.6992 33.3999V31.7999H24.1992V34.6999H23.5992V31.7999H23.1992V34.1999H22.5992V31.0999H23.6992V30.3999H24.2992V31.0999H25.3992V33.5999V33.7999ZM26.5992 33.3999H25.8992V28.3999H26.5992V33.3999ZM27.9992 34.1999C27.9992 34.4999 27.9992 34.6999 27.7992 34.7999C27.5992 34.7999 27.3992 34.8999 26.9992 34.8999C26.5992 34.8999 26.5992 34.8999 26.4992 34.8999L26.2992 34.1999C26.4992 34.1999 26.6992 34.1999 26.8992 34.1999C27.0992 34.1999 27.1992 34.1999 27.2992 34.1999C27.3992 34.1999 27.2992 34.1999 27.2992 33.9999V27.8999H27.9992V34.1999Z" fill="black"/>
<path d="M20.9 41.4999H15V41.1999H17.8C17.8 40.9999 17.6 40.8999 17.5 40.7999L17.8 40.5999C17.9 40.7999 18 40.9999 18.1 41.1999H20.8V41.4999H20.9ZM21 45.9999C21 46.2999 21 46.4999 20.8 46.5999C20.7 46.6999 20.5 46.7999 20.4 46.7999H18.1C17.9 46.7999 17.8 46.7999 17.7 46.5999C17.6 46.4999 17.5 46.2999 17.5 46.0999V45.8999L15 46.0999V45.7999L17.5 45.5999V45.1999L15.4 45.3999V45.0999L17.5 44.8999V44.4999C17 44.4999 16.5 44.4999 15.9 44.4999V44.1999C17.3 44.1999 18.7 44.1999 19.7 43.8999L19.9 44.1999C19.3 44.2999 18.6 44.3999 17.8 44.4999V44.8999L20.4 44.6999V44.9999L17.8 45.1999V45.5999L20.8 45.3999V45.6999L17.8 45.8999V46.1999C17.8 46.1999 17.8 46.2999 17.8 46.3999C17.8 46.3999 17.9 46.3999 18 46.3999H20.1C20.4 46.3999 20.5 46.1999 20.5 45.7999H20.8L21 45.9999ZM20.8 44.2999H20.4V43.5999H15.4V44.2999H15V43.2999H20.8V44.2999ZM20.3 42.9999H15.6V41.9999H20.3V42.9999ZM19.9 42.6999V42.2999H16V42.6999H19.9Z" fill="#AA8420" stroke="#AA8420" stroke-width="0.1" stroke-miterlimit="10"/>
<path d="M23.9998 44.4C23.5998 45.2 22.8998 45.9 22.0998 46.5L21.7998 46.2C22.5998 45.6 23.1998 45 23.5998 44.2L23.8998 44.4H23.9998ZM27.8998 43.5999H25.0998V46.9H24.6998V43.5999H21.8998V43.2H24.6998V40.7H25.0998V43.2H27.8998V43.5999ZM23.6998 42.5L23.3998 42.7C23.1998 42.3 22.8998 41.7999 22.4998 41.2999L22.7998 41.0999C23.1998 41.5999 23.4998 42 23.6998 42.5ZM27.9998 46.2L27.6998 46.5C27.2998 45.8 26.6998 45.1 25.8998 44.5L26.1998 44.2999C26.7998 44.7999 27.3998 45.4999 27.9998 46.2999V46.2ZM27.2998 41.2C26.9998 41.8 26.6998 42.3 26.3998 42.7L25.9998 42.5C26.2998 42.2 26.5998 41.7 26.8998 41L27.1998 41.2H27.2998Z" fill="#AA8420" stroke="#AA8420" stroke-width="0.1" stroke-miterlimit="10"/>
<path d="M214.299 33.7999C213.299 34.1999 212.399 34.5999 211.599 34.7999L211.399 34.1999C212.099 33.9999 212.999 33.6999 214.099 33.1999L214.299 33.7999ZM214.199 29.4999C213.699 30.5999 213.099 31.4999 212.499 32.3999C212.799 32.3999 213.299 32.0999 213.899 31.8999L214.099 32.5999C213.299 32.8999 212.499 33.1999 211.699 33.3999L211.499 32.7999C211.999 32.2999 212.399 31.6999 212.799 30.9999C212.399 30.9999 212.099 31.1999 211.699 31.1999L211.499 30.5999C211.999 29.8999 212.499 29.0999 212.899 27.9999L213.499 28.1999C213.199 28.9999 212.899 29.6999 212.399 30.2999C212.599 30.2999 212.899 30.2999 213.199 30.0999C213.399 29.8999 213.499 29.5999 213.599 29.1999L214.199 29.4999ZM218.399 33.3999C218.299 34.3999 217.899 34.8999 217.399 34.8999C216.899 34.8999 216.999 34.8999 216.799 34.5999C216.599 34.3999 216.399 34.1999 216.199 33.7999C215.599 34.1999 214.899 34.4999 214.099 34.8999L213.699 34.2999C214.599 33.9999 215.299 33.5999 215.899 33.1999C215.699 32.6999 215.599 32.1999 215.499 31.6999L214.099 31.8999V31.1999L215.499 30.9999C215.499 30.5999 215.499 30.2999 215.499 30.0999H214.399C214.399 30.1999 214.399 29.5999 214.399 29.5999H215.499C215.499 29.4999 215.499 27.8999 215.499 27.8999H216.199C216.199 28.1999 216.199 28.6999 216.199 29.3999L218.099 29.1999V29.7999L216.199 30.0999C216.199 30.3999 216.199 30.6999 216.199 30.9999L218.299 30.6999V31.3999C218.399 31.3999 216.199 31.6999 216.199 31.6999C216.199 32.0999 216.299 32.4999 216.399 32.8999C216.699 32.5999 216.999 32.2999 217.399 31.7999L217.899 32.0999C217.599 32.5999 217.099 33.0999 216.699 33.4999C216.799 33.6999 216.999 33.8999 217.099 33.9999C217.199 34.0999 217.299 34.1999 217.399 34.1999C217.399 34.1999 217.399 34.0999 217.499 33.7999C217.499 33.5999 217.599 33.3999 217.599 33.0999L218.199 33.3999H218.399ZM217.799 28.5999L217.399 29.0999C217.099 28.7999 216.799 28.5999 216.399 28.4999L216.799 27.9999C217.199 28.1999 217.499 28.3999 217.799 28.6999V28.5999Z" fill="black"/>
<path d="M226.399 34.6999H219.399V33.9999H222.299V27.8999H222.999V30.2999H225.999V30.9999H222.999V33.9999H226.399V34.6999Z" fill="black"/>
<path d="M227.3 40.7999C227.3 41.0999 227.1 41.4999 227 41.7999L226.8 42.2999V46.7999H226.5V42.9999C226.3 43.3999 226.1 43.6999 225.9 43.8999L225.6 43.5999C226.2 42.8999 226.6 41.8999 227 40.5999H227.3V40.7999ZM231.8 46.2999L231.6 46.5999C231.2 46.3999 230.7 45.9999 230.2 45.4999C230.2 45.6999 230.2 45.7999 230.2 45.8999C230.2 46.1999 230.2 46.3999 230.1 46.4999C230.1 46.5999 229.9 46.6999 229.8 46.7999C229.7 46.7999 229.4 46.7999 229.1 46.7999C228.8 46.7999 228.9 46.7999 228.8 46.7999V46.4999C229.3 46.4999 229.6 46.4999 229.7 46.4999C229.8 46.4999 229.9 46.2999 229.9 45.9999C229.9 45.6999 229.9 45.6999 229.9 45.4999C229.3 45.8999 228.5 46.2999 227.4 46.6999L227.2 46.3999C228.3 46.0999 229.2 45.6999 229.8 45.1999C229.8 45.1999 229.8 44.9999 229.6 44.7999C229 45.1999 228.3 45.5999 227.4 45.7999L227.2 45.4999C228.2 45.1999 228.9 44.8999 229.5 44.4999C229.5 44.3999 229.3 44.2999 229.2 44.1999C228.7 44.4999 228.1 44.6999 227.3 44.8999L227.1 44.5999C227.9 44.4999 228.6 44.1999 229.2 43.7999H227.8V42.5999C227.7 42.6999 227.5 42.7999 227.4 42.8999L227.2 42.5999C228 41.9999 228.6 41.4999 228.9 40.8999L229.2 41.0999C229.2 41.1999 229.1 41.2999 229 41.3999H230.7V41.6999C230.5 41.8999 230.3 42.1999 230.1 42.3999H231.4V43.6999H229.8C229.7 43.7999 229.6 43.8999 229.5 43.9999C229.7 44.2999 229.9 44.4999 230.1 44.8999C230.5 44.6999 230.9 44.3999 231.4 43.9999L231.7 44.1999C231.3 44.4999 230.9 44.7999 230.4 45.0999C230.9 45.6999 231.5 46.0999 232 46.3999L231.8 46.2999ZM230.2 41.4999H228.7C228.4 41.7999 228.2 41.9999 227.9 42.1999H229.6C229.8 41.8999 230.1 41.6999 230.2 41.4999ZM229.3 43.2999V42.5999H228V43.2999H229.3ZM231 43.2999V42.5999H229.7V43.2999H231Z" fill="#AA8420" stroke="#AA8420" stroke-width="0.1" stroke-miterlimit="10"/>
<path d="M238.7 43.0999H235.8C235.3 43.4999 234.8 43.6999 234.3 43.8999H235.4C236.1 43.8999 236.5 43.8999 236.5 43.8999C236.8 43.7999 237 43.5999 237.4 43.3999L237.7 43.5999C236.5 44.2999 235.4 44.7999 234.2 45.0999C235.4 45.0999 236.6 45.0999 237.7 44.8999C237.5 44.6999 237.4 44.5999 237.2 44.3999L237.5 44.1999C238 44.5999 238.4 45.0999 238.7 45.4999L238.4 45.6999C238.2 45.4999 238.1 45.2999 238 45.1999C237.3 45.1999 236.6 45.2999 235.9 45.2999V46.2999C235.9 46.4999 235.9 46.5999 235.7 46.6999C235.6 46.6999 235.4 46.7999 235 46.7999C234.6 46.7999 234.8 46.7999 234.8 46.7999V46.3999C234.8 46.3999 235 46.3999 235.1 46.3999C235.3 46.3999 235.4 46.3999 235.4 46.3999C235.4 46.3999 235.4 46.3999 235.4 46.2999V45.2999C234.8 45.2999 234 45.2999 233 45.2999V44.9999C233.9 44.7999 234.8 44.4999 235.7 44.0999C235.2 44.0999 234.6 44.0999 234 44.0999C233.4 44.0999 233.6 44.0999 233.5 44.0999V43.7999C234 43.5999 234.6 43.2999 235.1 42.9999H232.5V42.6999H235.4V42.0999H233.2V41.7999H235.4V41.2999H232.8V40.9999H235.4V40.5999H235.8V40.9999H238.3V41.2999H235.8V41.7999H237.9V42.0999H235.8V42.6999H238.6V42.9999L238.7 43.0999ZM234.7 45.7999C234.3 46.0999 233.7 46.4999 232.9 46.7999L232.7 46.4999C233.4 46.1999 234 45.8999 234.5 45.5999L234.8 45.8999L234.7 45.7999ZM238.6 46.4999L238.4 46.7999C237.9 46.3999 237.3 46.0999 236.6 45.7999L236.8 45.4999C237.5 45.7999 238.1 46.0999 238.6 46.4999Z" fill="#AA8420" stroke="#AA8420" stroke-width="0.1" stroke-miterlimit="10"/>
</svg>
