<svg width="358" height="74" viewBox="0 0 358 74" fill="none" xmlns="http://www.w3.org/2000/svg">
<g clip-path="url(#clip0_82_2238)">
<path d="M97.3 15C97.6 14.6 97.8 13.8 97.8 13.8H77C77 13.8 77.3 14.7 77.5 15H97.3Z" fill="#A68238"/>
<path d="M96.1004 16.8C96.5004 16.5 96.9004 15.8 96.9004 15.8H77.9004C77.9004 15.8 78.1004 16.3 78.6004 16.8H96.1004Z" fill="#A68238"/>
<path d="M94.5998 18.4001C95.0998 18.1001 95.4998 17.6001 95.4998 17.6001H79.2998C79.2998 17.6001 79.6998 18.0001 80.0998 18.4001H94.6998H94.5998Z" fill="#A68238"/>
<path d="M92.7 19.9C93.2 19.7 93.7 19.3 93.7 19.3H81C81 19.3 81 19.3 81.9 19.9H92.7Z" fill="#A68238"/>
<path d="M83.2998 20.8C83.2998 20.8 84.5998 21.6 87.2998 21.6C89.9998 21.6 91.5998 20.8 91.5998 20.8H83.2998Z" fill="#A68238"/>
<path d="M83.0996 22.6001C83.0996 22.6001 84.6996 22.6001 85.5996 23.4001C86.4996 24.2001 87.1996 25.5001 87.1996 25.5001C87.1996 25.5001 87.7996 24.3001 88.6996 23.6001C89.5996 22.9001 91.0996 22.6001 91.0996 22.6001H107.5L110.7 27.4001H95.9996C95.9996 27.4001 94.9996 27.4001 93.3996 28.4001C92.5996 28.9001 91.9996 29.7001 91.9996 29.7001C91.9996 29.7001 91.8996 30.1001 91.6996 30.3001C91.4996 30.5001 91.3996 30.7001 91.1996 30.8001C90.9996 30.8001 90.9996 30.8001 90.9996 30.8001H83.2996C83.2996 30.8001 82.9996 30.7001 82.7996 30.4001C82.5996 30.1001 82.7996 30.2001 82.5996 30.0001C82.4996 29.8001 82.1996 29.2001 80.9996 28.5001C79.7996 27.7001 78.5996 27.6001 78.5996 27.6001H63.5996L66.8996 22.6001H82.9996H83.0996Z" fill="#003873"/>
<path d="M71.5996 29.3V53.7001C71.5996 53.7001 71.5996 55.9 73.4996 58.8C75.2996 61.7 77.8996 63.1 77.8996 63.1L79.9996 59.9001C79.9996 59.9001 78.1996 58.8 76.7996 56.8C75.4996 54.7 75.4996 53 75.4996 53V29.4H71.5996V29.3Z" fill="#003873"/>
<path d="M99.3004 29.2V52.7999C99.3004 52.7999 99.0004 55.1999 97.9004 56.7999C96.8004 58.4999 94.9004 59.9 94.9004 59.9L96.9004 63.0999C96.9004 63.0999 99.9004 60.8999 101.4 58.5999C102.9 56.2999 103.2 52.7999 103.2 52.7999V29.2H99.3004Z" fill="#003873"/>
<path d="M65.4004 29.3V53.8C65.4004 53.8 65.6004 57.6 68.0004 61.5C70.4004 65.4 74.7004 68.2 74.7004 68.2L76.7004 65C76.7004 65 73.9004 63.5001 71.8004 60.2001C69.6004 56.8001 69.4004 53.7001 69.4004 53.7001V29.3H65.4004Z" fill="#003873"/>
<path d="M83.0996 31.8999V57.7999C83.0996 57.7999 83.0996 57.7999 82.9996 58.2999C82.9996 58.6999 82.6996 58.9999 82.6996 58.9999L74.0996 73.2999H100.6L91.9996 58.6999L91.6996 57.9999V57.2999V31.9999H88.4996V58.2999C88.4996 58.2999 88.4996 58.6999 88.5996 58.9999C88.5996 59.2999 88.8996 59.7999 88.8996 59.7999L94.1996 68.5999H80.6996L85.8996 59.8999C85.8996 59.8999 86.0996 59.5999 86.1996 59.1999C86.1996 58.7999 86.2996 58.3999 86.2996 58.3999V32.0999H83.1996L83.0996 31.8999Z" fill="#A68238"/>
<path d="M105.2 29.2V53.2999C105.2 53.2999 105.2 56.4 102.9 60C100.6 63.6 98 65.0999 98 65.0999L99.9 68.4C99.9 68.4 103.9 65.9 106.4 61.9C108.8 57.9 109.2 53.2999 109.2 53.2999V29.2H105.3H105.2Z" fill="#003873"/>
<path d="M76.8996 13.1C76.8996 13.1 75.5996 5.8 80.8996 2.2C80.8996 2.2 83.2996 0 87.1996 0C91.0996 0 93.7996 2.2 93.7996 2.2C99.5996 6.4 97.8996 13.1 97.8996 13.1H76.8996Z" fill="#A68238"/>
<path d="M121.3 10.0999C122 9.8999 122.4 9.6999 122.7 9.5999V16.5999H124.2V15.8999H132.2V16.5999H133.7V9.4999C133.9 9.5999 134.2 9.6999 134.4 9.7999C134.6 9.8999 134.9 9.9999 135.1 10.0999L135.8 8.5999C133.5 8.0999 131.7 7.2999 130.4 6.0999H135.6V4.7999H128.7V3.3999C130.9 3.1999 132.7 2.9999 134.2 2.6999L133.5 1.3999C131.3 1.8999 128 2.1999 123.7 2.1999C119.4 2.1999 122 2.1999 121.4 2.1999L121.9 3.6999C123 3.6999 124.7 3.6999 127.1 3.6999V4.9999H120.4V6.3999H125.4C123.9 7.5999 122.2 8.4999 120.2 8.9999L121 10.4999L121.3 10.0999ZM132.1 14.4999H124.1V13.0999H132.1V14.4999ZM128.8 6.1999C129.8 7.4999 131.1 8.5999 132.8 9.1999H128.8V6.1999ZM132.1 10.4999V11.6999H124.1V10.4999H132.1ZM127.3 6.1999V9.1999H123.6C125.1 8.4999 126.4 7.4999 127.3 6.1999Z" fill="#003873"/>
<path d="M144.7 11.6L143.3 10.8C142.9 12.3 142.3 13.8 141.4 15.1L142.7 16.4C143.6 14.9 144.3 13.3 144.8 11.6H144.7Z" fill="#003873"/>
<path d="M145.3 3.6V4.5H147.5V6.1H145V7.5H147.6C147.1 8.5 146 9.4 144.2 10.2L145.1 11.6C145.8 11.1 146.3 10.8 146.6 10.6V14.2C146.6 14.9 146.7 15.4 147 15.7C147.3 16 147.8 16.1 148.5 16.1H153.8C154.6 16.1 155.2 16 155.5 15.7C155.8 15.4 156 14.5 156.2 13L154.6 12.4C154.6 13.3 154.4 13.9 154.4 14.2C154.4 14.5 154 14.7 153.6 14.7H148.8C148.4 14.7 148.2 14.5 148.2 14.1V13.1H153.4V9.8C154 10.4 154.9 11 155.9 11.6L156.6 10.2C154.8 9.3 153.7 8.5 153.3 7.6H156.4V6.2H153.5V4.5H156.2V3.2H153.5V1.5H152V3.2H149V1.5H147.5V3.2H145.3V3.4C144.7 2.9 143.9 2.4 143 1.8L141.9 3C142.6 3.5 143.4 4.1 144.3 4.9L145.3 3.7V3.6ZM148.9 4.5H151.9V6.1H148.9V4.5ZM149.3 7.4H151.5C151.8 8 152.1 8.5 152.5 8.9H148.4C148.8 8.5 149.1 8 149.4 7.4H149.3ZM148.1 10.2H151.8V11.8H148.1V10.2Z" fill="#003873"/>
<path d="M144.8 7.4999C144 6.8999 143.2 6.2999 142.4 5.8999L141.4 7.0999C142 7.4999 142.8 8.0999 143.7 8.8999L144.8 7.4999Z" fill="#003873"/>
<path d="M163 13.5C164.1 12.1 164.8 10.9 165.2 9.90005V16.6H166.7V9.00005C167 9.40005 167.3 9.80005 167.6 10.1C167.9 10.5 168.2 10.9 168.6 11.3L169.5 9.90005C168.9 9.20005 168 8.30005 166.8 7.20005V7.00005H169.3V5.60005H166.8V3.30005C167.6 3.10005 168.5 2.90005 169.2 2.60005L168.6 1.30005C166.9 2.00005 164.8 2.30005 162.4 2.50005L162.7 3.90005C163.8 3.90005 164.7 3.70005 165.2 3.60005V5.60005H162.2V7.00005H165.2C164.5 8.80005 163.5 10.5 162.1 12L163 13.5Z" fill="#003873"/>
<path d="M173.5 8.3999C172.3 7.4999 171.3 6.7999 170.5 6.3999L169.5 7.4999C170.4 7.9999 171.3 8.6999 172.5 9.6999L173.5 8.4999V8.3999Z" fill="#003873"/>
<path d="M173.8 4.5C172.5 3.6 171.5 2.9 170.8 2.5L169.8 3.6C170.6 4.1 171.5 4.8 172.7 5.7L173.7 4.5H173.8Z" fill="#003873"/>
<path d="M169 12.9L174.4 12.1V16.6H175.9V11.9L177.4 11.7V10.2L175.9 10.4V1.30005H174.4V10.6L169 11.4V12.9Z" fill="#003873"/>
<path d="M182.9 9.90005L183.3 11.7C183.8 11.6 184.6 11.4 185.5 11.2V14.5C185.5 14.9 185.3 15 185 15H183.6L184 16.6H185.3C186.1 16.6 186.6 16.5 186.9 16.2C187.1 15.9 187.2 15.4 187.2 14.7V10.7C188.1 10.4 188.8 10.1 189.1 10V8.40005C188.7 8.60005 188.1 8.80005 187.2 9.10005V6.20005H189.1V5.20005H192.6V7.40005H189.4V8.90005H195.8C195.3 10.3 194.6 11.4 193.4 12.3C192.6 11.5 191.9 10.5 191.2 9.20005L189.9 9.70005C190.7 11.2 191.5 12.3 192.3 13.2C190.7 14.3 189.2 15 187.6 15.3L188.5 16.8C190.1 16.5 191.7 15.7 193.4 14.4C194.7 15.6 196 16.3 197.4 16.8L198.2 15.3C196.8 14.9 195.6 14.3 194.5 13.4C195.1 12.9 195.7 12.1 196.3 11.2C196.9 10.3 197.2 9.50005 197.4 8.90005V7.50005H194.1V5.30005H197.9V3.80005H194.1V1.30005H192.5V3.60005H189V4.60005H187.1V1.30005H185.5V4.60005H183.1V6.10005H185.5V9.40005C184.7 9.60005 183.9 9.80005 182.9 9.90005Z" fill="#003873"/>
<path d="M203.7 15.0001L204.9 16.5001C208.5 14.1001 210.7 11.0001 211.5 7.0001H211.8C212.9 11.4001 214.9 14.5001 217.8 16.4001L219 14.9001C217.4 13.8001 216.1 12.6001 215.2 11.1001C214.3 9.7001 213.7 8.3001 213.4 6.9001H218.6V5.2001H211.7C211.7 4.3001 211.8 3.0001 211.8 1.1001H210.1C210.1 2.8001 210.1 4.2001 209.9 5.2001H204V6.9001H209.6C209.3 8.4001 208.7 9.9001 207.6 11.3001C206.5 12.7001 205.2 13.9001 203.6 14.8001L203.7 15.0001Z" fill="#003873"/>
<path d="M231.5 14.7001C231.5 15.0001 231.3 15.2001 231 15.2001H228.8L229.2 16.4001H231.6C232.6 16.4001 233.1 15.8001 233.1 14.7001V14.0001H239.8V12.7001H233.1C234.5 12.3001 235.7 11.8001 236.6 11.3001V10.1001H227.5V11.3001H234.3C233.1 11.6001 232.2 11.9001 231.5 12.0001V12.7001H224.5V14.0001H231.5V14.7001Z" fill="#003873"/>
<path d="M226.3 9.4H238V11.8H239.5V8.1H238.6L238.8 1.7H234.8V3H237.4V3.9H235V5H237.4V5.9H235.1V7H237.4V8.1H227.2V7H229.6V5.9H227.1V5H229.6V3.9H227.1V3.1C228.4 3.1 229.3 2.9 229.9 2.7L229.2 1.5C228.2 1.8 227 1.9 225.6 2L225.8 8.2H225V11.9H226.4V9.5L226.3 9.4Z" fill="#003873"/>
<path d="M229.7 3.50005L230.5 4.60005C231.2 4.30005 231.9 4.00005 232.4 3.60005C232.5 3.60005 232.8 3.90005 233.2 4.50005L234.2 3.80005C233.8 3.40005 233.6 3.10005 233.3 2.90005C233.7 2.60005 234 2.40005 234.3 2.00005L233.5 1.30005C233.3 1.60005 233 1.90005 232.5 2.20005C232.1 1.90005 231.6 1.60005 231.2 1.30005L230.3 2.10005C230.8 2.40005 231.1 2.70005 231.4 2.90005C231.1 3.10005 230.5 3.30005 229.6 3.60005L229.7 3.50005Z" fill="#003873"/>
<path d="M233.7 4.5C233.3 5 232.9 5.3 232.6 5.5C232.4 5.3 232.1 5.1 231.9 5C231.7 4.9 231.5 4.8 231.3 4.6L230.5 5.3C231 5.7 231.4 5.9 231.6 6.1C231.2 6.3 230.7 6.5 229.9 6.7L230.6 7.8C231.4 7.5 232 7.2 232.5 6.9C232.5 6.9 232.9 7.2 233.4 7.9L234.4 7.1C234.1 6.8 233.8 6.5 233.5 6.2C233.8 6 234.2 5.6 234.6 5.2L233.7 4.5Z" fill="#003873"/>
<path d="M125.3 34.8999V24.2999H128.1V22.8999H120.9V24.2999H123.7V34.8999H125.2H125.3Z" fill="#003873"/>
<path d="M130.8 22.8999H129.3V34.7999H130.8V29.0999H136.5V34.7999H138V22.8999H136.5V27.6999H130.8V22.8999Z" fill="#003873"/>
<path d="M146.7 33.4999H141.8V28.9999H146.6V27.5999H141.8V24.2999H146.7V22.8999H140.3V34.7999H146.7V33.3999V33.4999Z" fill="#003873"/>
<path d="M154.8 22.8999H153.3V34.7999H154.8V29.0999H160.5V34.7999H162V22.8999H160.5V27.6999H154.8V22.8999Z" fill="#003873"/>
<path d="M169.7 22.7C166.3 22.7 163.5 25.4999 163.5 28.9C163.5 32.3 166.3 35.0999 169.7 35.0999C173.1 35.0999 176 32.4 176 28.9C176 25.4 173.2 22.7 169.7 22.7ZM169.7 33.7C167.1 33.7 164.9 31.6 164.9 28.9C164.9 26.1999 166.9 24.1 169.7 24.1C172.5 24.1 174.5 26.3 174.5 28.9C174.5 31.4999 172.3 33.7 169.7 33.7Z" fill="#003873"/>
<path d="M178.9 25.9L187.9 35.3V22.9H186.4V31.7001L177.4 22.3V34.8H178.9V25.9Z" fill="#003873"/>
<path d="M189.3 28.9001C189.3 32.2001 192 35.1001 195.3 35.1001C198.6 35.1001 201 32.6001 201 29.3001V28.8001H196.3V30.2001H199.4C199.4 32.2001 197.3 33.7001 195.5 33.7001C193.7 33.7001 190.9 31.3001 190.9 28.8001C190.9 26.3001 193 23.9001 195.7 23.9001C198.4 23.9001 198.6 24.7001 199.5 25.9001L200.5 24.9001C199.3 23.4001 197.5 22.6001 195.6 22.6001C192.2 22.6001 189.4 25.4001 189.4 28.8001L189.3 28.9001Z" fill="#003873"/>
<path d="M216 34.8999L210.5 28.2999L215.9 22.8999H214L208.9 28.0999V22.8999H207.4V34.7999H208.9V29.7999L209.5 29.1999L214 34.7999H216V34.8999Z" fill="#003873"/>
<path d="M216.2 28.9C216.2 32.4 219 35.0999 222.4 35.0999C225.8 35.0999 228.6 32.4 228.6 28.9C228.6 25.4 225.8 22.7 222.4 22.7C219 22.7 216.2 25.4999 216.2 28.9ZM222.4 24.1C225.2 24.1 227.2 26.3 227.2 28.9C227.2 31.4999 225 33.7 222.4 33.7C219.8 33.7 217.6 31.6 217.6 28.9C217.6 26.1999 219.6 24.1 222.4 24.1Z" fill="#003873"/>
<path d="M239.1 31.7001L230.1 22.3V34.8H231.6V25.9L240.6 35.3V22.9H239.1V31.7001Z" fill="#003873"/>
<path d="M248.1 35.1001C251.4 35.1001 253.8 32.6001 253.8 29.3001V28.8001H249.1V30.2001H252.2C252.2 32.2001 250.1 33.7001 248.3 33.7001C246.5 33.7001 243.7 31.3001 243.7 28.8001C243.7 26.3001 245.8 23.9001 248.5 23.9001C251.2 23.9001 251.4 24.7001 252.3 25.9001L253.3 24.9001C252.1 23.4001 250.3 22.6001 248.4 22.6001C245 22.6001 242.2 25.4001 242.2 28.8001C242.2 32.2001 244.9 35.0001 248.2 35.0001L248.1 35.1001Z" fill="#003873"/>
<path d="M126.2 54.0999C128.9 54.0999 130.6 52.0999 130.6 49.4999V41.8999H129.1V48.9999C129.1 50.8999 128.5 52.7999 126.2 52.7999C123.9 52.7999 123.3 50.9999 123.3 48.9999V41.8999H121.8V49.4999C121.8 52.0999 123.4 54.0999 126.2 54.0999Z" fill="#003873"/>
<path d="M134.2 44.9001L143.2 54.3V41.9001H141.7V50.7001L132.7 41.3V53.8H134.2V44.9001Z" fill="#003873"/>
<path d="M146.8 41.8999H145.3V53.7999H146.8V41.8999Z" fill="#003873"/>
<path d="M153.2 50.6999L149.6 41.8999H148L153.2 54.4999L158.4 41.8999H156.8L153.2 50.6999Z" fill="#003873"/>
<path d="M165.9 52.4999H161V47.9999H165.8V46.5999H161V43.2999H165.9V41.8999H159.5V53.7999H165.9V52.3999V52.4999Z" fill="#003873"/>
<path d="M174.5 45.2999C174.5 44.1999 173.9 42.9999 172.9 42.4999C171.9 41.9999 170.8 41.8999 169.7 41.8999H167.9V53.7999H169.4V48.7999H170L173.5 53.7999H175.3L171.5 48.5999C173.2 48.3999 174.4 46.9999 174.4 45.2999H174.5ZM169.9 47.5999H169.4V43.2999H169.8C171.3 43.2999 173 43.5999 173 45.3999C173 47.1999 171.4 47.5999 169.8 47.5999H169.9Z" fill="#003873"/>
<path d="M179.9 52.7001C178.6 52.7001 177.6 51.7001 177.6 50.4001L176.1 50.7001C176.3 52.6001 177.9 54.0001 179.8 54.0001C181.7 54.0001 183.6 52.4001 183.6 50.3001C183.6 48.2001 182.3 47.4001 180.6 46.7001L179.8 46.4001C179.1 46.1001 178.1 45.6001 178.1 44.7001C178.1 43.8001 179.1 43.0001 180.1 43.0001C181.1 43.0001 181.6 43.4001 182 44.1001L183.2 43.4001C182.5 42.2001 181.5 41.6001 180.1 41.6001C178.7 41.6001 176.6 42.8001 176.6 44.7001C176.6 46.6001 177.8 47.1001 179.2 47.7001L180 48.0001C181 48.4001 182.1 49.0001 182.1 50.3001C182.1 51.6001 181.2 52.6001 179.9 52.6001V52.7001Z" fill="#003873"/>
<path d="M186.8 41.8999H185.3V53.7999H186.8V41.8999Z" fill="#003873"/>
<path d="M192.4 53.8999V43.2999H195.2V41.8999H188V43.2999H190.8V53.8999H192.3H192.4Z" fill="#003873"/>
<path d="M197 41.8999H195.3L199.2 48.5999V53.7999H200.7V48.5999L204.6 41.8999H202.9L200 46.9999L197.1 41.8999H197Z" fill="#003873"/>
<path d="M215.9 54.0999C219.3 54.0999 222.2 51.4 222.2 47.9C222.2 44.4 219.4 41.7 215.9 41.7C212.4 41.7 209.7 44.5 209.7 47.9C209.7 51.3 212.5 54.0999 215.9 54.0999ZM215.9 43.0999C218.7 43.0999 220.7 45.3 220.7 47.9C220.7 50.5 218.5 52.7 215.9 52.7C213.3 52.7 211.1 50.6 211.1 47.9C211.1 45.2 213.1 43.0999 215.9 43.0999Z" fill="#003873"/>
<path d="M225.3 48H229.4V46.6H225.3V43.2001H229.6V41.8H223.8V53.7001H225.3V47.8V48Z" fill="#003873"/>
<path d="M240.1 46.7999L239.3 46.5C238.6 46.2 237.6 45.6999 237.6 44.7999C237.6 43.8999 238.6 43.0999 239.6 43.0999C240.6 43.0999 241.1 43.5 241.5 44.2L242.7 43.5C242.1 42.3 241 41.7 239.6 41.7C238.2 41.7 236.1 42.8999 236.1 44.7999C236.1 46.6999 237.3 47.1999 238.7 47.7999L239.5 48.0999C240.5 48.4999 241.6 49.1 241.6 50.4C241.6 51.7 240.7 52.7 239.4 52.7C238.1 52.7 237.1 51.7 237.1 50.4L235.6 50.7C235.8 52.6 237.4 54 239.3 54C241.2 54 243.1 52.3999 243.1 50.2999C243.1 48.1999 241.8 47.4 240.1 46.7V46.7999Z" fill="#003873"/>
<path d="M250.4 43C251.5 43 252.7 43.4 253.5 44.2V42.5C252.6 41.9 251.5 41.7 250.5 41.7C247 41.7 244.1 44.5 244.1 48C244.1 51.5 246.9 54.2 250.3 54.2C253.7 54.2 252.5 53.9 253.4 53.4V51.5999C252.5 52.3999 251.4 52.7999 250.2 52.7999C247.5 52.7999 245.5 50.6 245.5 48C245.5 45.4 247.6 43.0999 250.2 43.0999L250.4 43Z" fill="#003873"/>
<path d="M256.9 41.8999H255.4V53.7999H256.9V41.8999Z" fill="#003873"/>
<path d="M259.3 53.8999H265.7V52.4999H260.8V47.9999H265.6V46.5999H260.8V43.2999H265.7V41.8999H259.3V53.7999V53.8999Z" fill="#003873"/>
<path d="M276.5 50.7001L267.5 41.3V53.8H269V44.9001L278 54.3V41.9001H276.5V50.7001Z" fill="#003873"/>
<path d="M279.6 47.9001C279.6 51.3001 282.4 54.1001 285.8 54.1001C289.2 54.1001 288 53.8001 288.9 53.3001V51.5001C288 52.3001 286.9 52.7001 285.7 52.7001C283 52.7001 281 50.5001 281 47.8001C281 45.1001 283 42.9001 285.7 42.9001C288.4 42.9001 288 43.3001 288.9 44.1001V42.4001C288 41.8001 286.9 41.6001 285.9 41.6001C282.4 41.6001 279.5 44.4001 279.5 47.9001H279.6Z" fill="#003873"/>
<path d="M297.3 43.2999V41.8999H290.9V53.7999H297.3V52.3999H292.4V47.8999H297.2V46.4999H292.4V43.1999H297.3V43.2999Z" fill="#003873"/>
<path d="M120.8 72.8001H122.4L123.8 69.8001H129.3L130.7 72.8001H132.3L126.6 60.3L120.9 72.8001H120.8ZM124.4 68.5L126.5 63.7001L128.6 68.5H124.4Z" fill="#003873"/>
<path d="M142.2 69.7L133.2 60.3V72.8001H134.7V63.9001L143.7 73.3001V60.9001H142.2V69.7Z" fill="#003873"/>
<path d="M148.3 60.8999H145.8V72.7999H148.2C152 72.7999 155 70.7999 155 66.7999C155 62.7999 152 60.8999 148.3 60.8999ZM147.8 71.4999H147.3V62.2999H147.8C150.8 62.2999 153.5 63.3999 153.5 66.8999C153.5 70.3999 150.9 71.4999 147.8 71.4999Z" fill="#003873"/>
<path d="M160.3 62.2999H163.1V72.8999H164.6V62.2999H167.4V60.8999H160.2V62.2999H160.3Z" fill="#003873"/>
<path d="M168.8 72.8001H175.2V71.4001H170.3V66.9001H175.1V65.5H170.3V62.2001H175.2V60.8H168.8V72.7V72.8001Z" fill="#003873"/>
<path d="M176.5 66.9C176.5 70.3 179.3 73.0999 182.7 73.0999C186.1 73.0999 184.9 72.8 185.8 72.3V70.5C184.9 71.3 183.8 71.6999 182.6 71.6999C179.9 71.6999 177.9 69.5 177.9 66.9C177.9 64.3 179.9 62 182.6 62C185.3 62 184.9 62.4 185.8 63.2V61.5C184.9 60.9 183.8 60.7 182.8 60.7C179.3 60.7 176.5 63.5 176.5 67V66.9Z" fill="#003873"/>
<path d="M194.8 65.6999H189.1V60.8999H187.6V72.7999H189.1V67.0999H194.8V72.7999H196.3V60.8999H194.8V65.6999Z" fill="#003873"/>
<path d="M207.4 69.7L198.4 60.3V72.8001H199.9V63.9001L208.9 73.3001V60.9001H207.4V69.7Z" fill="#003873"/>
<path d="M216.6 60.6001C213.2 60.6001 210.4 63.4001 210.4 66.8001C210.4 70.2001 213.2 73.0001 216.6 73.0001C220 73.0001 222.9 70.3001 222.9 66.8001C222.9 63.3001 220.1 60.6001 216.6 60.6001ZM216.6 71.7001C214 71.7001 211.8 69.6001 211.8 66.9001C211.8 64.2001 213.8 62.1001 216.6 62.1001C219.4 62.1001 221.4 64.3001 221.4 66.9001C221.4 69.5001 219.2 71.7001 216.6 71.7001Z" fill="#003873"/>
<path d="M226 60.9001H224.5V72.8001H229.6V71.4001H226V60.8V60.9001Z" fill="#003873"/>
<path d="M236.1 60.6001C232.7 60.6001 229.8 63.4001 229.8 66.8001C229.8 70.2001 232.6 73.0001 236.1 73.0001C239.6 73.0001 242.3 70.3001 242.3 66.8001C242.3 63.3001 239.5 60.6001 236.1 60.6001ZM236.1 71.7001C233.5 71.7001 231.3 69.6001 231.3 66.9001C231.3 64.2001 233.3 62.1001 236.1 62.1001C238.9 62.1001 240.9 64.3001 240.9 66.9001C240.9 69.5001 238.7 71.7001 236.1 71.7001Z" fill="#003873"/>
<path d="M250.1 68.1999H253.2C253.2 70.0999 251.1 71.6999 249.3 71.6999C247.5 71.6999 244.7 69.3 244.7 66.8C244.7 64.3 246.8 62 249.5 62C252.2 62 252.4 62.8 253.3 64L254.3 63C253.1 61.5 251.3 60.7 249.4 60.7C246 60.7 243.2 63.5 243.2 67C243.2 70.5 245.9 73.1999 249.2 73.1999C252.5 73.1999 254.8 70.7 254.8 67.4V66.9H250.1V68.3V68.1999Z" fill="#003873"/>
<path d="M259.9 65.9999L257 60.8999H255.3L259.2 67.6999V72.8999H260.7V67.6999L264.6 60.8999H262.9L260 65.9999H259.9Z" fill="#003873"/>
<path d="M50.2002 73.3H40.7002V0H50.2002V0.2H40.9002V73H50.2002V73.2V73.3Z" fill="#231815"/>
<path d="M318.3 73.3H308.8V73.1H318.1V0.2H308.8V0H318.3V73.3Z" fill="#231815"/>
<path d="M4.2002 43.6001V44.3001H0.200195V43.6001H1.8002V38.2001L0.300195 39.1001V38.3001L2.1002 37.1001H2.6002V43.5001H4.2002V43.6001Z" fill="#AA8420"/>
<path d="M6.1 43.4001C5.7 42.8001 5.5 41.9001 5.5 40.7001C5.5 39.5001 5.7 38.6001 6.1 38.0001C6.5 37.4001 7.1 37.1001 7.9 37.1001C8.7 37.1001 9.3 37.4001 9.8 38.0001C10.2 38.6001 10.4 39.5001 10.4 40.7001C10.4 41.9001 10.2 42.8001 9.8 43.4001C9.4 44.0001 8.8 44.3001 7.9 44.3001C7 44.3001 6.5 44.0001 6.1 43.4001ZM9.2 42.9001C9.5 42.4001 9.6 41.7001 9.6 40.7001C9.6 39.7001 9.5 38.9001 9.2 38.5001C8.9 38.0001 8.5 37.8001 7.9 37.8001C7.3 37.8001 6.9 38.0001 6.7 38.5001C6.4 39.0001 6.3 39.7001 6.3 40.7001C6.3 41.7001 6.4 42.5001 6.7 42.9001C7 43.4001 7.4 43.6001 7.9 43.6001C8.4 43.6001 8.9 43.4001 9.2 42.9001Z" fill="#AA8420"/>
<path d="M330.9 42.7H329.8V44.2H329V42.7H325.7V42.0999L329.1 37.2H329.8V42.0999H330.9V42.7999V42.7ZM329 42V38.5L326.6 42H329Z" fill="#AA8420"/>
<path d="M335.7 40.1C336 40.3 336.3 40.6001 336.5 40.9001C336.7 41.2001 336.8 41.6 336.8 42.1C336.8 42.6 336.7 42.9 336.5 43.3C336.3 43.6 336 43.9 335.7 44.1C335.3 44.3 334.9 44.4001 334.4 44.4001C333.9 44.4001 333.5 44.4001 333.1 44.2001C332.7 44.0001 332.3 43.8 332 43.6L332.3 43C333 43.6 333.6 43.8 334.3 43.8C335 43.8 335.2 43.7001 335.5 43.4001C335.8 43.1001 335.9 42.7001 335.9 42.2001C335.9 41.7001 335.8 41.4 335.5 41.1C335.2 40.8 334.8 40.7001 334.4 40.7001C333.7 40.7001 333.2 41 332.8 41.5H332.2V37.3H336.5V38H333.1V40.5C333.5 40.1 334 39.9001 334.6 39.9001C335.2 39.9001 335.4 39.9001 335.8 40.2001L335.7 40.1Z" fill="#AA8420"/>
<path d="M15.5996 25.9C14.8996 26.2 14.0996 26.4 13.2996 26.5V28.2H15.3996V28.9H13.2996V30.9C14.0996 30.7 14.8996 30.4 15.4996 30.2V31C14.4996 31.4 13.3996 31.7 12.2996 32L12.0996 31.3C12.2996 31.3 12.3996 31.3 12.4996 31.3V26.1C13.4996 26 14.3996 25.8 15.1996 25.5L15.5996 26.1V25.9ZM18.9996 30.8C18.9996 31 18.9996 31.2 18.7996 31.3C18.5996 31.4 18.4996 31.5 18.3996 31.5C18.2996 31.5 17.9996 31.5 17.6996 31.5C17.3996 31.5 17.2996 31.5 17.1996 31.5L16.8996 30.7C17.0996 30.7 17.3996 30.7 17.9996 30.7C18.5996 30.7 18.1996 30.7 18.1996 30.5V26.3H16.5996V32.3H15.8996V25.6H18.9996V30.7V30.8Z" fill="black"/>
<path d="M24.3992 27.6999H21.2992V28.7999C21.2992 30.2999 21.0992 31.5999 20.7992 32.4999L20.1992 32.0999C20.4992 31.2999 20.5992 30.3999 20.5992 29.2999V25.5999H24.3992V27.6999ZM23.6992 26.9999V26.1999H21.2992V26.9999H23.6992ZM24.3992 31.1999C24.3992 31.3999 24.3992 31.5999 24.1992 31.5999C23.9992 31.5999 23.8992 31.6999 23.5992 31.5999L23.3992 30.9999C23.3992 30.9999 23.3992 30.9999 23.4992 30.9999C23.6992 30.9999 23.6992 30.9999 23.6992 30.7999V29.1999H23.1992V32.0999H22.5992V29.1999H22.1992V31.5999H21.5992V28.4999H22.6992V27.7999H23.2992V28.4999H24.3992V30.9999V31.1999ZM25.5992 30.8999H24.8992V25.8999H25.5992V30.8999ZM26.9992 31.6999C26.9992 31.9999 26.9992 32.1999 26.7992 32.2999C26.5992 32.2999 26.3992 32.3999 25.9992 32.3999C25.5992 32.3999 25.5992 32.3999 25.4992 32.3999L25.2992 31.6999C25.4992 31.6999 25.6992 31.6999 25.8992 31.6999C26.0992 31.6999 26.1992 31.6999 26.2992 31.6999C26.3992 31.6999 26.2992 31.6999 26.2992 31.4999V25.3999H26.9992V31.6999Z" fill="black"/>
<path d="M19.9 38.9999H14V38.6999H16.8C16.8 38.4999 16.6 38.3999 16.5 38.2999L16.8 38.0999C16.9 38.2999 17 38.4999 17.1 38.6999H19.8V38.9999H19.9ZM20 43.4999C20 43.7999 20 43.9999 19.8 44.0999C19.7 44.1999 19.5 44.2999 19.4 44.2999H17.1C16.9 44.2999 16.8 44.2999 16.7 44.0999C16.6 43.9999 16.5 43.7999 16.5 43.5999V43.3999L14 43.5999V43.2999L16.5 43.0999V42.6999L14.4 42.8999V42.5999L16.5 42.3999V41.9999C16 41.9999 15.5 41.9999 14.9 41.9999V41.6999C16.3 41.6999 17.7 41.6999 18.7 41.3999L18.9 41.6999C18.3 41.7999 17.6 41.8999 16.8 41.9999V42.3999L19.4 42.1999V42.4999L16.8 42.6999V43.0999L19.8 42.8999V43.1999L16.8 43.3999V43.6999C16.8 43.6999 16.8 43.7999 16.8 43.8999C16.8 43.8999 16.9 43.8999 17 43.8999H19.1C19.4 43.8999 19.5 43.6999 19.5 43.2999H19.8L20 43.4999ZM19.8 41.7999H19.4V41.0999H14.4V41.7999H14V40.7999H19.8V41.7999ZM19.3 40.3999H14.6V39.3999H19.3V40.3999ZM18.9 40.0999V39.6999H15V40.0999H18.9Z" fill="#AA8420" stroke="#AA8420" stroke-width="0.1" stroke-miterlimit="10"/>
<path d="M22.9998 41.8999C22.5998 42.6999 21.8998 43.3999 21.0998 43.9999L20.7998 43.6999C21.5998 43.0999 22.1998 42.4999 22.5998 41.6999L22.8998 41.8999H22.9998ZM26.8998 40.9999H24.0998V44.2999H23.6998V40.9999H20.8998V40.5999H23.6998V38.0999H24.0998V40.5999H26.8998V40.9999ZM22.6998 39.9999L22.3998 40.1999C22.1998 39.7999 21.8998 39.2999 21.4998 38.7999L21.7998 38.5999C22.1998 39.0999 22.4998 39.4999 22.6998 39.9999ZM26.9998 43.5999L26.6998 43.8999C26.2998 43.1999 25.6998 42.4999 24.8998 41.8999L25.1998 41.6999C25.7998 42.1999 26.3998 42.8999 26.9998 43.6999V43.5999ZM26.2998 38.6999C25.9998 39.2999 25.6998 39.7999 25.3998 40.1999L24.9998 39.9999C25.2998 39.6999 25.5998 39.1999 25.8998 38.4999L26.1998 38.6999H26.2998Z" fill="#AA8420" stroke="#AA8420" stroke-width="0.1" stroke-miterlimit="10"/>
<path d="M328.7 31.2999C327.7 31.6999 326.8 32.0999 326 32.2999L325.8 31.6999C326.5 31.4999 327.4 31.1999 328.5 30.6999L328.7 31.2999ZM328.6 26.8999C328.1 27.9999 327.5 28.8999 326.9 29.7999C327.2 29.7999 327.7 29.4999 328.3 29.2999L328.5 29.9999C327.7 30.2999 326.9 30.5999 326.1 30.7999L325.9 30.1999C326.4 29.6999 326.8 29.0999 327.2 28.3999C326.8 28.3999 326.5 28.5999 326.1 28.5999L325.9 27.9999C326.4 27.2999 326.9 26.4999 327.3 25.3999L327.9 25.5999C327.6 26.3999 327.3 27.0999 326.8 27.6999C327 27.6999 327.3 27.6999 327.6 27.4999C327.8 27.2999 327.9 26.9999 328 26.5999L328.6 26.8999ZM332.9 30.8999C332.8 31.8999 332.4 32.3999 331.9 32.3999C331.4 32.3999 331.5 32.3999 331.3 32.0999C331.1 31.8999 330.9 31.6999 330.7 31.2999C330.1 31.6999 329.4 31.9999 328.6 32.3999L328.2 31.7999C329.1 31.4999 329.8 31.0999 330.4 30.6999C330.2 30.1999 330.1 29.6999 330 29.1999L328.6 29.3999V28.6999L330 28.4999C330 28.0999 330 27.7999 330 27.5999H328.9C328.9 27.6999 328.9 27.0999 328.9 27.0999H330C330 26.9999 330 25.3999 330 25.3999H330.7C330.7 25.6999 330.7 26.1999 330.7 26.8999L332.6 26.6999V27.2999L330.7 27.5999C330.7 27.8999 330.7 28.1999 330.7 28.4999L332.8 28.1999V28.8999C332.9 28.8999 330.7 29.1999 330.7 29.1999C330.7 29.5999 330.8 29.9999 330.9 30.3999C331.2 30.0999 331.5 29.7999 331.9 29.2999L332.4 29.5999C332.1 30.0999 331.6 30.5999 331.2 30.9999C331.3 31.1999 331.5 31.3999 331.6 31.4999C331.7 31.5999 331.8 31.6999 331.9 31.6999C331.9 31.6999 331.9 31.5999 332 31.2999C332 31.0999 332.1 30.8999 332.1 30.5999L332.7 30.8999H332.9ZM332.3 26.0999L331.9 26.5999C331.6 26.2999 331.3 26.0999 330.9 25.9999L331.3 25.4999C331.7 25.6999 332 25.8999 332.3 26.1999V26.0999Z" fill="black"/>
<path d="M340.8 32.1999H333.8V31.4999H336.7V25.3999H337.4V27.7999H340.4V28.4999H337.4V31.4999H340.8V32.1999Z" fill="black"/>
<path d="M341.7 38.2999C341.7 38.5999 341.5 38.9999 341.4 39.2999L341.2 39.7999V44.2999H340.9V40.4999C340.7 40.8999 340.5 41.1999 340.3 41.3999L340 41.0999C340.6 40.3999 341 39.3999 341.4 38.0999H341.7V38.2999ZM346.2 43.7999L346 44.0999C345.6 43.8999 345.1 43.4999 344.6 42.9999C344.6 43.1999 344.6 43.2999 344.6 43.3999C344.6 43.6999 344.6 43.8999 344.5 43.9999C344.5 44.0999 344.3 44.1999 344.2 44.2999C344.1 44.2999 343.8 44.2999 343.5 44.2999C343.2 44.2999 343.3 44.2999 343.2 44.2999V43.9999C343.7 43.9999 344 43.9999 344.1 43.9999C344.2 43.9999 344.3 43.7999 344.3 43.4999C344.3 43.1999 344.3 43.1999 344.3 42.9999C343.7 43.3999 342.9 43.7999 341.8 44.1999L341.6 43.8999C342.7 43.5999 343.6 43.1999 344.2 42.6999C344.2 42.6999 344.2 42.4999 344 42.2999C343.4 42.6999 342.7 43.0999 341.8 43.2999L341.6 42.9999C342.6 42.6999 343.3 42.3999 343.9 41.9999C343.9 41.8999 343.7 41.7999 343.6 41.6999C343.1 41.9999 342.5 42.1999 341.7 42.3999L341.5 42.0999C342.3 41.9999 343 41.6999 343.6 41.2999H342.2V40.0999C342.1 40.1999 341.9 40.2999 341.8 40.3999L341.6 40.0999C342.4 39.4999 343 38.9999 343.3 38.3999L343.6 38.5999C343.6 38.6999 343.5 38.7999 343.4 38.8999H345.1V39.1999C344.9 39.3999 344.7 39.6999 344.5 39.8999H345.8V41.1999H344.2C344.1 41.2999 344 41.3999 343.9 41.4999C344.1 41.7999 344.3 41.9999 344.5 42.3999C344.9 42.1999 345.3 41.8999 345.8 41.4999L346.1 41.6999C345.7 41.9999 345.3 42.2999 344.8 42.5999C345.3 43.1999 345.9 43.5999 346.4 43.8999L346.2 43.7999ZM344.6 38.9999H343.1C342.8 39.2999 342.6 39.4999 342.3 39.6999H344C344.2 39.3999 344.5 39.1999 344.6 38.9999ZM343.8 40.6999V39.9999H342.5V40.6999H343.8ZM345.4 40.6999V39.9999H344.1V40.6999H345.4Z" fill="#AA8420" stroke="#AA8420" stroke-width="0.1" stroke-miterlimit="10"/>
<path d="M353.1 40.5999H350.2C349.7 40.9999 349.2 41.1999 348.7 41.3999H349.8C350.5 41.3999 350.9 41.3999 350.9 41.3999C351.2 41.2999 351.4 41.0999 351.8 40.8999L352.1 41.0999C350.9 41.7999 349.8 42.2999 348.6 42.5999C349.8 42.5999 351 42.5999 352.1 42.3999C351.9 42.1999 351.8 42.0999 351.6 41.8999L351.9 41.6999C352.4 42.0999 352.8 42.5999 353.1 42.9999L352.8 43.1999C352.6 42.9999 352.5 42.7999 352.4 42.6999C351.7 42.6999 351 42.7999 350.3 42.7999V43.7999C350.3 43.9999 350.3 44.0999 350.1 44.1999C350 44.1999 349.8 44.2999 349.4 44.2999C349 44.2999 349.2 44.2999 349.2 44.2999V43.8999C349.2 43.8999 349.4 43.8999 349.5 43.8999C349.7 43.8999 349.8 43.8999 349.8 43.8999C349.8 43.8999 349.8 43.8999 349.8 43.7999V42.7999C349.2 42.7999 348.4 42.7999 347.4 42.7999V42.4999C348.3 42.2999 349.2 41.9999 350.1 41.5999C349.6 41.5999 349 41.5999 348.4 41.5999C347.8 41.5999 348 41.5999 347.9 41.5999V41.2999C348.4 41.0999 349 40.7999 349.5 40.4999H346.9V40.1999H349.8V39.5999H347.6V39.2999H349.8V38.7999H347.2V38.4999H349.8V38.0999H350.2V38.4999H352.7V38.7999H350.2V39.2999H352.3V39.5999H350.2V40.1999H353V40.4999L353.1 40.5999ZM349.2 43.2999C348.8 43.5999 348.2 43.9999 347.4 44.2999L347.2 43.9999C347.9 43.6999 348.5 43.3999 349 43.0999L349.3 43.3999L349.2 43.2999ZM353 43.9999L352.8 44.2999C352.3 43.8999 351.7 43.5999 351 43.2999L351.2 42.9999C351.9 43.2999 352.5 43.5999 353 43.9999Z" fill="#AA8420" stroke="#AA8420" stroke-width="0.1" stroke-miterlimit="10"/>
</g>
<defs>
<clipPath id="clip0_82_2238">
<rect width="358" height="74" fill="white"/>
</clipPath>
</defs>
</svg>
