<svg width="200" height="29" viewBox="0 0 200 29" fill="none" xmlns="http://www.w3.org/2000/svg">
<g clip-path="url(#clip0_86_4581)">
<path d="M46.5998 28.4H39.2998V0H46.5998V0.2H39.4998V28.1H46.5998V28.3V28.4Z" fill="#231815"/>
<path d="M161.1 28.4H153.8V28.2H160.9V0.3H153.8V0H161.1V28.3V28.4Z" fill="#231815"/>
<path d="M11.7002 22.1C12.6002 22.5 13.1002 23.2 13.1002 24C13.1002 24.8 12.9002 25.2 12.4002 25.6C11.9002 26 11.4002 26.2 10.6002 26.2C9.8002 26.2 9.3002 26 8.9002 25.6C8.5002 25.2 8.2002 24.7 8.2002 24.1C8.2002 23.5 8.7002 22.6 9.6002 22.2C8.9002 21.8 8.5002 21.3 8.5002 20.6C8.5002 19.9 8.7002 19.6999 9.1002 19.2999C9.5002 18.8999 10.0002 18.7 10.6002 18.7C11.2002 18.7 11.7002 18.9 12.1002 19.2C12.5002 19.6 12.7002 20 12.7002 20.5C12.7002 21 12.4002 21.6 11.7002 22V22.1ZM12.3002 24C12.3002 23.6 12.1002 23.2 11.8002 22.9C11.5002 22.6 11.1002 22.4 10.6002 22.4C10.1002 22.4 9.7002 22.6 9.4002 22.9C9.1002 23.2 8.9002 23.6 8.9002 24C8.9002 24.4 9.1002 24.8 9.4002 25.1C9.7002 25.4 10.1002 25.5 10.6002 25.5C11.1002 25.5 11.5002 25.4 11.8002 25.1C12.1002 24.8 12.3002 24.4 12.3002 24ZM12.0002 20.5C12.0002 20.2 11.9002 19.9 11.6002 19.7C11.4002 19.5 11.0002 19.4 10.6002 19.4C10.2002 19.4 9.9002 19.5 9.6002 19.7C9.3002 19.9 9.2002 20.2 9.2002 20.5C9.2002 20.8 9.3002 21.1 9.6002 21.4C9.9002 21.7 10.2002 21.7999 10.6002 21.7999C11.0002 21.7999 11.3002 21.7 11.5002 21.4C11.8002 21.2 11.9002 20.8 11.9002 20.5H12.0002Z" fill="#AA8420"/>
<path d="M170.2 18.8H170.3V23.8H171.2V24.5H170.3V26.2001H169.6V24.5H166.2L170.2 18.8ZM169.6 23.8V20.8L167.5 23.8H169.6Z" fill="#AA8420"/>
<path d="M174.2 26.2999C173.4 26.2999 172.8 25.9999 172.4 25.2999C172 24.5999 171.8 23.7 171.8 22.5C171.8 21.3 172 20.3 172.4 19.7C172.8 19.1 173.4 18.7 174.2 18.7C175 18.7 175.6 19 176 19.7C176.4 20.4 176.7 21.3 176.7 22.5C176.7 23.7 176.5 24.5999 176 25.2999C175.5 25.8999 174.9 26.2999 174.2 26.2999ZM174.2 19.4C173.6 19.4 173.2 19.7 172.9 20.2C172.6 20.7 172.4 21.5 172.4 22.5C172.4 24.6 173 25.6 174.2 25.6C175.4 25.6 175.2 25.2999 175.5 24.7999C175.8 24.2999 176 23.5 176 22.5C176 21.5 175.8 20.7 175.5 20.2C175.2 19.7 174.7 19.4 174.2 19.4Z" fill="#AA8420"/>
<path d="M67.3996 5.80005C67.4996 5.60005 67.5996 5.30005 67.5996 5.30005H59.5996C59.5996 5.30005 59.5996 5.60005 59.7996 5.80005H67.4996H67.3996Z" fill="#AA8420"/>
<path d="M66.8998 6.49998C67.0998 6.39998 67.1998 6.09998 67.1998 6.09998H59.7998C59.7998 6.09998 59.7998 6.29998 60.0998 6.49998H66.8998Z" fill="#AA8420"/>
<path d="M66.2998 7.10005C66.4998 7.00005 66.5998 6.80005 66.5998 6.80005H60.2998C60.2998 6.80005 60.3998 7.00005 60.5998 7.10005H66.2998Z" fill="#AA8420"/>
<path d="M65.5996 7.7C65.7996 7.7 65.9996 7.5 65.9996 7.5H61.0996C61.0996 7.5 61.0996 7.5 61.3996 7.7H65.5996Z" fill="#AA8420"/>
<path d="M62 8.09998C62 8.09998 62.5 8.39997 63.5 8.39997C64.5 8.39997 65.2 8.09998 65.2 8.09998H62Z" fill="#AA8420"/>
<path d="M61.9004 8.69995C61.9004 8.69995 62.5004 8.69995 62.9004 8.99995C63.2004 9.29995 63.5004 9.79995 63.5004 9.79995C63.5004 9.79995 63.7004 9.29995 64.1004 9.09995C64.4004 8.79995 65.0004 8.69995 65.0004 8.69995H71.3004L72.5004 10.5H66.8004C66.8004 10.5 66.4004 10.5 65.8004 10.9C65.5004 11.1 65.2004 11.4 65.2004 11.4C65.2004 11.4 65.2004 11.6 65.1004 11.6C65.1004 11.6 65.0004 11.7 64.9004 11.8H61.9004C61.9004 11.8 61.8004 11.8 61.7004 11.6C61.7004 11.6 61.7004 11.6 61.7004 11.5C61.7004 11.5 61.5004 11.2 61.1004 10.9C60.6004 10.6 60.2004 10.6 60.2004 10.6H54.4004L55.7004 8.69995H61.9004Z" fill="#003477"/>
<path d="M57.4004 11.4V20.9C57.4004 20.9 57.4004 21.7 58.1004 22.9C58.8004 24 59.8004 24.6 59.8004 24.6L60.6004 23.4C60.6004 23.4 59.9004 23 59.4004 22.2C58.9004 21.4 58.9004 20.7 58.9004 20.7V11.6H57.4004V11.4Z" fill="#003477"/>
<path d="M68.0998 11.3V20.4C68.0998 20.4 67.9998 21.3 67.4998 22C67.0998 22.7 66.2998 23.2 66.2998 23.2L67.0998 24.4C67.0998 24.4 68.2998 23.5 68.7998 22.6C69.3998 21.7 69.4998 20.4 69.4998 20.4V11.3H67.9998H68.0998Z" fill="#003477"/>
<path d="M55 11.4V20.9C55 20.9 55 22.4 56 23.9C56.9 25.4 58.6 26.5 58.6 26.5L59.4 25.3C59.4 25.3 58.3 24.7 57.5 23.4C56.6 22.1 56.6 20.9 56.6 20.9V11.4H55.1H55Z" fill="#003477"/>
<path d="M61.9 12.4V22.4C61.9 22.4 61.9 22.4 61.9 22.6C61.9 22.7 61.8 22.8 61.8 22.8L58.5 28.3H68.8L65.5 22.6V22.4L65.4 22.1V12.3H64.2V22.5C64.2 22.5 64.2 22.6 64.2 22.8C64.2 22.9 64.3 23.1 64.3 23.1L66.4 26.5H61.2L63.2 23.1C63.2 23.1 63.2 23 63.3 22.8C63.3 22.7 63.3 22.5 63.3 22.5V12.3H62.1L61.9 12.4Z" fill="#AA8420"/>
<path d="M70.3996 11.3V20.6C70.3996 20.6 70.3996 21.8 69.4996 23.2C68.5996 24.6 67.5996 25.2 67.5996 25.2L68.3996 26.5C68.3996 26.5 69.8996 25.5 70.8996 24C71.7996 22.5 71.9996 20.7 71.9996 20.7V11.4H70.4996L70.3996 11.3Z" fill="#003477"/>
<path d="M59.4999 5.1C59.4999 5.1 58.9999 2.3 60.9999 0.9C60.9999 0.9 61.8999 0 63.3999 0C64.8999 0 65.9999 0.9 65.9999 0.9C68.1999 2.5 67.5999 5.1 67.5999 5.1H59.4999Z" fill="#AA8420"/>
<path d="M85.5004 16.2H79.5004V11.6H77.9004V23.1H79.5004V17.6H85.5004V23.1H87.1004V11.6H85.5004V16.2Z" fill="#003477"/>
<path d="M101.8 11.6H99.7002L94.3002 16.6V11.6H92.7002V23.1H94.3002V18.3L94.9002 17.8L99.7002 23.1H101.8L96.0002 16.8L101.7 11.6H101.8Z" fill="#003477"/>
<path d="M113.7 18.3C113.7 20.2 113.1 21.9 110.7 21.9C108.3 21.9 107.6 20.2 107.6 18.3V11.5H106V18.8C106 21.3 107.7 23.3 110.6 23.3C113.5 23.3 115.2 21.4 115.2 18.8V11.5H113.6V18.3H113.7Z" fill="#003477"/>
<path d="M125 16.3L124.1 16C123.3 15.7 122.3 15.3 122.3 14.4C122.3 13.5 123.4 12.8 124.4 12.8C125.4 12.8 126 13.2 126.4 13.9L127.7 13.2C127 12.1 125.9 11.5 124.5 11.5C123.1 11.5 120.8 12.6 120.8 14.5C120.8 16.4 122.1 16.8 123.5 17.4L124.4 17.7C125.5 18.1 126.6 18.6 126.6 19.9C126.6 21.2 125.6 22.1 124.3 22.1C123 22.1 121.8 21.2 121.9 19.9L120.3 20.2C120.6 22 122.2 23.4 124.2 23.4C126.2 23.4 128.2 21.9 128.2 19.8C128.2 17.7 126.9 17 125.1 16.3H125Z" fill="#003477"/>
<path d="M132.1 11.6V12.9H135.1V23.1H136.7V12.9H139.7V11.6H132.1Z" fill="#003477"/>
<path d="M167.299 12.7C167.199 13.4 166.999 14.1 166.799 14.6L166.199 14.4C166.399 13.8 166.599 13.2 166.699 12.6H167.299V12.7ZM169.199 9.1C168.599 10.2 167.999 11 167.399 11.7C167.599 11.7 167.899 11.6 168.299 11.5C168.299 11.4 168.299 11.2 168.099 11.1L168.599 10.9C168.799 11.3 168.999 11.8 169.099 12.2L168.599 12.4C168.599 12.2 168.599 12.1 168.599 12C167.999 12.2 167.399 12.3 166.599 12.4V11.8C166.899 11.4 167.399 10.9 167.799 10.2C167.499 10.2 167.099 10.3 166.599 10.4V9.9C166.999 9.3 167.499 8.5 167.899 7.5L168.499 7.7C168.199 8.4 167.799 9 167.399 9.7C167.699 9.7 167.999 9.7 168.199 9.6C168.399 9.4 168.499 9.1 168.699 8.8L169.299 9L169.199 9.1ZM168.399 14.3H167.799C167.799 13.9 167.799 13.3 167.599 12.7H168.199C168.299 13.2 168.399 13.7 168.399 14.3ZM169.299 13.3L168.799 13.5C168.799 13.2 168.599 12.9 168.499 12.6L168.999 12.4C169.099 12.7 169.199 13 169.299 13.3ZM170.599 11.4C170.599 12.4 170.199 13.4 169.199 14.4L168.699 14C169.399 13.4 169.799 12.8 169.999 12.1H169.199V11.5H170.699L170.599 11.4ZM173.399 13.8L172.899 14.4C172.399 14 171.999 13.5 171.499 12.7V13.9C171.499 14.1 171.499 14.3 171.199 14.4C170.899 14.5 170.599 14.6 170.099 14.6L169.899 13.9C170.299 13.9 170.499 13.9 170.599 13.9C170.699 13.9 170.799 13.9 170.799 13.8V10.9H169.299V8.3H170.299C170.399 8.1 170.599 7.8 170.699 7.6L171.399 7.8C171.399 8 171.199 8.2 171.099 8.4H172.899V11H171.499V11.6C171.499 11.7 171.599 11.9 171.799 12C171.999 11.8 172.299 11.6 172.599 11.2L173.099 11.6C172.799 11.9 172.499 12.2 172.099 12.5C172.399 12.9 172.799 13.3 173.299 13.8H173.399ZM172.199 9.3V8.8H169.999V9.3H172.199ZM172.199 10.4V9.9H169.999V10.4H172.199Z" fill="black"/>
<path d="M181.199 14.4H174.199V13.7H177.099V7.59998H177.799V9.99998H180.799V10.7H177.799V13.7H181.199V14.4Z" fill="black"/>
<path d="M15.0996 7.7999C14.3996 8.0999 13.5996 8.2999 12.7996 8.3999V10.0999H14.8996V10.7999H12.7996V12.7999C13.5996 12.5999 14.3996 12.2999 14.9996 12.0999V12.8999C13.9996 13.2999 12.8996 13.5999 11.7996 13.8999L11.5996 13.1999C11.7996 13.1999 11.8996 13.1999 11.9996 13.1999V7.9999C12.9996 7.8999 13.8996 7.6999 14.6996 7.3999L15.0996 7.9999V7.7999ZM18.4996 12.5999C18.4996 12.7999 18.4996 12.9999 18.2996 13.0999C18.0996 13.1999 17.9996 13.2999 17.8996 13.2999C17.7996 13.2999 17.4996 13.2999 17.1996 13.2999C16.8996 13.2999 16.7996 13.2999 16.6996 13.2999L16.3996 12.4999C16.5996 12.4999 16.8996 12.4999 17.4996 12.4999C18.0996 12.4999 17.6996 12.4999 17.6996 12.2999V8.0999H16.0996V14.0999H15.3996V7.3999H18.4996V12.4999V12.5999Z" fill="black"/>
<path d="M23.8992 9.49995H20.7992V10.6C20.7992 12.1 20.5992 13.4 20.2992 14.3L19.6992 13.9C19.9992 13.1 20.0992 12.2 20.0992 11.1V7.39995H23.8992V9.49995ZM23.1992 8.89995V8.09995H20.7992V8.89995H23.1992ZM23.8992 13.1C23.8992 13.3 23.8992 13.5 23.6992 13.5C23.4992 13.5 23.3992 13.6 23.0992 13.5L22.8992 12.9C22.8992 12.9 22.8992 12.9 22.9992 12.9C23.1992 12.9 23.1992 12.9 23.1992 12.7V11.1H22.6992V14H22.0992V11.1H21.6992V13.5H21.0992V10.4H22.1992V9.69995H22.7992V10.4H23.8992V12.9V13.1ZM25.0992 12.8H24.3992V7.79995H25.0992V12.8ZM26.4992 13.5C26.4992 13.8 26.4992 14 26.2992 14.1C26.0992 14.2 25.8992 14.2 25.4992 14.2C25.0992 14.2 25.0992 14.2 24.9992 14.2L24.7992 13.5C24.9992 13.5 25.1992 13.5 25.3992 13.5C25.5992 13.5 25.6992 13.5 25.7992 13.5C25.8992 13.5 25.7992 13.5 25.7992 13.3V7.19995H26.4992V13.5Z" fill="black"/>
<path d="M20.0992 20.6999H14.1992V20.3999H16.9992C16.9992 20.1999 16.7992 20.0999 16.6992 19.9999L16.9992 19.7999C17.0992 19.9999 17.1992 20.1999 17.2992 20.3999H19.9992V20.6999H20.0992ZM20.1992 25.1999C20.1992 25.4999 20.1992 25.6999 19.9992 25.7999C19.8992 25.8999 19.6992 25.9999 19.5992 25.9999H17.2992C17.0992 25.9999 16.9992 25.9999 16.8992 25.7999C16.7992 25.6999 16.6992 25.4999 16.6992 25.2999V25.0999L14.1992 25.2999V24.9999L16.6992 24.7999V24.3999L14.5992 24.5999V24.2999L16.6992 24.0999V23.6999C16.1992 23.6999 15.6992 23.6999 15.0992 23.6999V23.3999C16.4992 23.3999 17.8992 23.3999 18.8992 23.0999L19.0992 23.3999C18.4992 23.4999 17.7992 23.5999 16.9992 23.6999V24.0999L19.5992 23.8999V24.1999L16.9992 24.3999V24.7999L19.9992 24.5999V24.8999L16.9992 25.0999V25.3999C16.9992 25.3999 16.9992 25.4999 16.9992 25.5999C16.9992 25.5999 17.0992 25.5999 17.1992 25.5999H19.2992C19.5992 25.5999 19.6992 25.3999 19.6992 24.9999H19.9992L20.1992 25.1999ZM19.9992 23.4999H19.5992V22.7999H14.5992V23.4999H14.1992V22.4999H19.9992V23.4999ZM19.4992 22.0999H14.7992V21.0999H19.4992V22.0999ZM19.0992 21.8999V21.4999H15.1992V21.8999H19.0992Z" fill="#AA8420" stroke="#AA8420" stroke-width="0.1" stroke-miterlimit="10"/>
<path d="M23.199 23.5999C22.799 24.3999 22.099 25.0999 21.299 25.6999L20.999 25.3999C21.799 24.7999 22.399 24.1999 22.799 23.3999L23.099 23.5999H23.199ZM27.099 22.6999H24.299V25.9999H23.899V22.6999H21.099V22.2999H23.899V19.7999H24.299V22.2999H27.099V22.6999ZM22.899 21.6999L22.599 21.8999C22.399 21.4999 22.099 20.9999 21.699 20.4999L21.999 20.2999C22.399 20.7999 22.699 21.1999 22.899 21.6999ZM27.099 25.3999L26.799 25.6999C26.399 24.9999 25.799 24.2999 24.999 23.6999L25.299 23.4999C25.899 23.9999 26.499 24.6999 27.099 25.4999V25.3999ZM26.499 20.3999C26.199 20.9999 25.899 21.4999 25.599 21.8999L25.199 21.6999C25.499 21.3999 25.799 20.8999 26.099 20.1999L26.399 20.3999H26.499Z" fill="#AA8420" stroke="#AA8420" stroke-width="0.1" stroke-miterlimit="10"/>
<path d="M180.8 20.2C180.8 20.5 180.6 20.9 180.5 21.2L180.3 21.7V26.2H180V22.4C179.8 22.8 179.6 23.1 179.4 23.3L179.1 23C179.7 22.3 180.1 21.3 180.5 20H180.8V20.2ZM185.2 25.7L185 26C184.6 25.8 184.1 25.4 183.6 24.9C183.6 25.1 183.6 25.2 183.6 25.3C183.6 25.6 183.6 25.8 183.5 25.9C183.5 26 183.3 26.1 183.2 26.2C183.1 26.2 182.8 26.2 182.5 26.2C182.2 26.2 182.3 26.2 182.2 26.2V25.9C182.7 25.9 183 25.9 183.1 25.9C183.2 25.9 183.3 25.7 183.3 25.4C183.3 25.1 183.3 25.1 183.3 24.9C182.7 25.3 181.9 25.7 180.8 26.1L180.6 25.8C181.7 25.5 182.6 25.1 183.2 24.6C183.2 24.6 183.2 24.4 183 24.2C182.4 24.6 181.7 25 180.8 25.2L180.6 24.9C181.6 24.6 182.3 24.3 182.9 23.9C182.9 23.8 182.7 23.7 182.6 23.6C182.1 23.9 181.5 24.1 180.7 24.3L180.5 24C181.3 23.9 182 23.6 182.6 23.2H181.2V22C181.1 22.1 180.9 22.2 180.8 22.3L180.6 22C181.4 21.4 182 20.9 182.3 20.3L182.6 20.5C182.6 20.6 182.5 20.7 182.4 20.8H184.1V21.1C183.9 21.3 183.7 21.6 183.5 21.8H184.8V23.1H183.2C183.1 23.2 183 23.3 182.9 23.4C183.1 23.7 183.3 23.9 183.5 24.3C183.9 24.1 184.3 23.8 184.8 23.4L185.1 23.6C184.7 23.9 184.3 24.2 183.8 24.5C184.3 25.1 184.9 25.5 185.4 25.8L185.2 25.7ZM183.7 20.9H182.2C181.9 21.2 181.7 21.4 181.4 21.6H183.1C183.3 21.3 183.6 21.1 183.7 20.9ZM182.8 22.7V22H181.5V22.7H182.8ZM184.5 22.7V22H183.2V22.7H184.5Z" fill="#AA8420" stroke="#AA8420" stroke-width="0.1" stroke-miterlimit="10"/>
<path d="M192.2 22.5H189.3C188.8 22.9 188.3 23.1 187.8 23.3H188.9C189.6 23.3 190 23.3 190 23.3C190.3 23.2 190.5 23 190.9 22.8L191.2 23C190 23.7 188.9 24.2 187.7 24.5C188.9 24.5 190.1 24.5 191.2 24.3C191 24.1 190.9 24 190.7 23.8L191 23.6C191.5 24 191.9 24.5 192.2 24.9L191.9 25.1C191.7 24.9 191.6 24.7 191.5 24.6C190.8 24.6 190.1 24.7 189.4 24.7V25.7C189.4 25.9 189.4 26 189.2 26.1C189.1 26.1 188.9 26.2 188.5 26.2C188.1 26.2 188.3 26.2 188.3 26.2V25.8C188.3 25.8 188.5 25.8 188.6 25.8C188.8 25.8 188.9 25.8 188.9 25.8C188.9 25.8 188.9 25.8 188.9 25.7V24.7C188.3 24.7 187.5 24.7 186.5 24.7V24.4C187.4 24.2 188.3 23.9 189.2 23.5C188.7 23.5 188.1 23.5 187.5 23.5C186.9 23.5 187.1 23.5 187 23.5V23.2C187.5 23 188.1 22.7 188.6 22.4H186V22.1H188.9V21.5H186.7V21.2H188.9V20.7H186.3V20.4H188.9V20H189.3V20.4H191.8V20.7H189.3V21.2H191.4V21.5H189.3V22.1H192.1V22.4L192.2 22.5ZM188.2 25.2C187.8 25.5 187.2 25.9 186.4 26.2L186.2 25.9C186.9 25.6 187.5 25.3 188 25L188.3 25.3L188.2 25.2ZM192.1 25.9L191.9 26.2C191.4 25.8 190.8 25.5 190.1 25.2L190.3 24.9C191 25.2 191.6 25.5 192.1 25.9Z" fill="#AA8420" stroke="#AA8420" stroke-width="0.1" stroke-miterlimit="10"/>
</g>
<defs>
<clipPath id="clip0_86_4581">
<rect width="200" height="29" fill="white"/>
</clipPath>
</defs>
</svg>
