<svg width="399" height="31" viewBox="0 0 399 31" fill="none" xmlns="http://www.w3.org/2000/svg">
<path d="M42.3996 30.6H35.0996V0H42.3996V0.2H35.2996V30.3H42.3996V30.5V30.6Z" fill="#231815"/>
<path d="M362.1 30.6H354.8V30.4H361.9V0.2H354.8V0H362.1V30.6Z" fill="#231815"/>
<path d="M68.6996 17.4001H70.3996V23.9001H71.2996V17.4001H72.9996V16.6001H68.5996V17.4001H68.6996Z" fill="#003477"/>
<path d="M78.1998 19.5H74.6998V16.5H73.7998V23.8H74.6998V20.3H78.1998V23.8H79.0998V16.5H78.1998V19.5Z" fill="#003477"/>
<path d="M80.5 23.9002H84.4V23.1002H81.4V20.3002H84.3V19.5002H81.4V17.5002H84.4V16.7002H80.5V24.0002V23.9002Z" fill="#003477"/>
<path d="M92.9 19.5H89.4V16.5H88.5V23.8H89.4V20.3H92.9V23.8H93.8V16.5H92.9V19.5Z" fill="#003477"/>
<path d="M98.5998 16.3999C96.4998 16.3999 94.7998 18.0999 94.7998 20.1999C94.7998 22.2999 96.4998 23.9999 98.5998 23.9999C100.7 23.9999 102.4 22.3999 102.4 20.1999C102.4 17.9999 100.7 16.3999 98.5998 16.3999ZM98.5998 23.0999C96.9998 23.0999 95.6998 21.7999 95.6998 20.0999C95.6998 18.3999 96.8998 17.0999 98.5998 17.0999C100.3 17.0999 101.5 18.4999 101.5 20.0999C101.5 21.6999 100.2 23.0999 98.5998 23.0999Z" fill="#003477"/>
<path d="M108.8 21.9001L103.3 16.1001V23.8001H104.2V18.4001L109.7 24.2001V16.6001H108.8V22.0001V21.9001Z" fill="#003477"/>
<path d="M114.8 20.9999H116.7C116.7 22.1999 115.4 23.1999 114.3 23.1999C113.2 23.1999 111.5 21.6999 111.5 20.1999C111.5 18.6999 112.8 17.1999 114.4 17.1999C116 17.1999 116.2 17.6999 116.7 18.3999L117.3 17.7999C116.6 16.8999 115.5 16.3999 114.3 16.3999C112.2 16.3999 110.5 18.0999 110.5 20.1999C110.5 22.2999 112.2 23.9999 114.2 23.9999C116.2 23.9999 117.7 22.4999 117.7 20.3999V20.0999H114.8V20.8999V20.9999Z" fill="#003477"/>
<path d="M126.9 16.5H125.7L122.6 19.7V16.5H121.7V23.8H122.6V20.7L123 20.4L125.8 23.8H127L123.7 19.8L127 16.5H126.9Z" fill="#003477"/>
<path d="M130.9 16.3999C128.8 16.3999 127.1 18.0999 127.1 20.1999C127.1 22.2999 128.8 23.9999 130.9 23.9999C133 23.9999 134.7 22.3999 134.7 20.1999C134.7 17.9999 133 16.3999 130.9 16.3999ZM130.9 23.0999C129.3 23.0999 128 21.7999 128 20.0999C128 18.3999 129.2 17.0999 130.9 17.0999C132.6 17.0999 133.8 18.4999 133.8 20.0999C133.8 21.6999 132.5 23.0999 130.9 23.0999Z" fill="#003477"/>
<path d="M141.1 21.9001L135.6 16.1001V23.8001H136.5V18.4001L142 24.2001V16.6001H141.1V22.0001V21.9001Z" fill="#003477"/>
<path d="M147.2 20.9999H149.1C149.1 22.1999 147.8 23.1999 146.7 23.1999C145.6 23.1999 143.9 21.6999 143.9 20.1999C143.9 18.6999 145.2 17.1999 146.8 17.1999C148.4 17.1999 148.6 17.6999 149.1 18.3999L149.7 17.7999C149 16.8999 147.9 16.3999 146.7 16.3999C144.6 16.3999 142.9 18.0999 142.9 20.1999C142.9 22.2999 144.6 23.9999 146.6 23.9999C148.6 23.9999 150.1 22.4999 150.1 20.3999V20.0999H147.2V20.8999V20.9999Z" fill="#003477"/>
<path d="M158.3 20.9001C158.3 22.1001 157.9 23.2001 156.5 23.2001C155.1 23.2001 154.7 22.1001 154.7 20.9001V16.6001H153.8V21.2001C153.8 22.8001 154.8 24.0001 156.5 24.0001C158.2 24.0001 159.2 22.8001 159.2 21.2001V16.6001H158.3V20.9001Z" fill="#003477"/>
<path d="M166 21.9001L160.5 16.1001V23.8001H161.4V18.4001L166.9 24.2001V16.6001H166V22.0001V21.9001Z" fill="#003477"/>
<path d="M169.2 16.5H168.3V23.8H169.2V16.5Z" fill="#003477"/>
<path d="M173 22.0001L170.8 16.6001H169.8L173 24.3001L176.2 16.6001H175.2L173 22.0001Z" fill="#003477"/>
<path d="M176.9 23.9002H180.8V23.1002H177.8V20.3002H180.7V19.5002H177.8V17.5002H180.8V16.7002H176.9V24.0002V23.9002Z" fill="#003477"/>
<path d="M186.1 18.6C186.1 17.9 185.7 17.2 185.1 16.8C184.5 16.5 183.8 16.5 183.2 16.5H182.1V23.8H183V20.7H183.4L185.5 23.8H186.6L184.3 20.6C185.4 20.5 186.1 19.6 186.1 18.6ZM183.3 20H183V17.4H183.2C184.1 17.4 185.2 17.6 185.2 18.7C185.2 19.8 184.2 20 183.3 20Z" fill="#003477"/>
<path d="M189.9 19.4999L189.4 19.2999C188.9 19.0999 188.4 18.7999 188.4 18.1999C188.4 17.5999 189 17.1999 189.6 17.1999C190.2 17.1999 190.5 17.3999 190.8 17.8999L191.5 17.4999C191.1 16.7999 190.4 16.3999 189.6 16.3999C188.8 16.3999 187.5 17.0999 187.5 18.2999C187.5 19.4999 188.3 19.7999 189.1 20.1999L189.6 20.3999C190.2 20.6999 190.9 20.9999 190.9 21.7999C190.9 22.5999 190.3 23.1999 189.6 23.1999C188.9 23.1999 188.2 22.5999 188.2 21.7999L187.3 21.9999C187.4 23.1999 188.4 24.0999 189.6 24.0999C190.8 24.0999 191.9 23.0999 191.9 21.7999C191.9 20.4999 191.1 19.9999 190.1 19.5999L189.9 19.4999Z" fill="#003477"/>
<path d="M193.6 16.5H192.7V23.8H193.6V16.5Z" fill="#003477"/>
<path d="M194.4 17.4001H196.1V23.9001H197V17.4001H198.7V16.6001H194.3V17.4001H194.4Z" fill="#003477"/>
<path d="M201.7 19.7001L199.9 16.6001H198.9L201.3 20.7001V23.9001H202.2V20.7001L204.6 16.6001H203.6L201.8 19.7001H201.7Z" fill="#003477"/>
<path d="M211.5 16.3999C209.4 16.3999 207.7 18.0999 207.7 20.1999C207.7 22.2999 209.4 23.9999 211.5 23.9999C213.6 23.9999 215.3 22.3999 215.3 20.1999C215.3 17.9999 213.6 16.3999 211.5 16.3999ZM211.5 23.0999C209.9 23.0999 208.6 21.7999 208.6 20.0999C208.6 18.3999 209.8 17.0999 211.5 17.0999C213.2 17.0999 214.4 18.4999 214.4 20.0999C214.4 21.6999 213.1 23.0999 211.5 23.0999Z" fill="#003477"/>
<path d="M216.3 23.9001H217.2V20.3001H219.7V19.5001H217.2V17.4001H219.8V16.6001H216.3V23.9001Z" fill="#003477"/>
<path d="M226.3 19.4999L225.8 19.2999C225.3 19.0999 224.8 18.7999 224.8 18.1999C224.8 17.5999 225.4 17.1999 226 17.1999C226.6 17.1999 226.9 17.3999 227.2 17.8999L227.9 17.4999C227.5 16.7999 226.8 16.3999 226 16.3999C225.2 16.3999 223.8 17.0999 223.8 18.2999C223.8 19.4999 224.6 19.7999 225.4 20.1999L225.9 20.3999C226.5 20.6999 227.2 20.9999 227.2 21.7999C227.2 22.5999 226.6 23.1999 225.9 23.1999C225.2 23.1999 224.5 22.5999 224.5 21.7999L223.6 21.9999C223.7 23.1999 224.7 24.0999 225.9 24.0999C227.1 24.0999 228.2 23.0999 228.2 21.7999C228.2 20.4999 227.4 19.9999 226.4 19.5999L226.3 19.4999Z" fill="#003477"/>
<path d="M228.8 20.1998C228.8 22.2998 230.5 23.9998 232.6 23.9998C234.7 23.9998 234 23.7998 234.5 23.4998V22.3998C234 22.8998 233.3 23.1998 232.6 23.1998C231 23.1998 229.7 21.7998 229.7 20.1998C229.7 18.5998 230.9 17.1998 232.6 17.1998C234.3 17.1998 234 17.3998 234.5 17.8998V16.7998C233.9 16.4998 233.3 16.2998 232.7 16.2998C230.6 16.2998 228.8 17.9998 228.8 20.1998Z" fill="#003477"/>
<path d="M236.6 16.5H235.7V23.8H236.6V16.5Z" fill="#003477"/>
<path d="M238.1 23.9002H242V23.1002H239V20.3002H241.9V19.5002H239V17.5002H242V16.7002H238.1V24.0002V23.9002Z" fill="#003477"/>
<path d="M248.7 21.9001L243.2 16.1001V23.8001H244.1V18.4001L249.6 24.2001V16.6001H248.7V22.0001V21.9001Z" fill="#003477"/>
<path d="M250.6 20.1998C250.6 22.2998 252.3 23.9998 254.4 23.9998C256.5 23.9998 255.8 23.7998 256.3 23.4998V22.3998C255.8 22.8998 255.1 23.1998 254.4 23.1998C252.8 23.1998 251.5 21.7998 251.5 20.1998C251.5 18.5998 252.7 17.1998 254.4 17.1998C256.1 17.1998 255.8 17.3998 256.3 17.8998V16.7998C255.8 16.4998 255.1 16.2998 254.5 16.2998C252.3 16.2998 250.6 17.9998 250.6 20.1998Z" fill="#003477"/>
<path d="M257.5 23.9002H261.4V23.1002H258.4V20.3002H261.3V19.5002H258.4V17.5002H261.4V16.7002H257.5V24.0002V23.9002Z" fill="#003477"/>
<path d="M264.8 23.8998H265.8L266.6 22.0998H270L270.8 23.8998H271.8L268.3 16.2998L264.8 23.8998ZM267 21.1998L268.3 18.1998L269.6 21.1998H267Z" fill="#003477"/>
<path d="M277.9 21.9001L272.4 16.1001V23.8001H273.3V18.4001L278.8 24.2001V16.6001H277.9V22.0001V21.9001Z" fill="#003477"/>
<path d="M281.6 16.5H280.1V23.8H281.6C283.9 23.8 285.7 22.6 285.7 20.1C285.7 17.6 283.8 16.5 281.6 16.5ZM281.3 23H281V17.3H281.3C283.2 17.3 284.8 18 284.8 20.1C284.8 22.2 283.2 22.9 281.3 22.9V23Z" fill="#003477"/>
<path d="M288.9 17.4001H290.6V23.9001H291.5V17.4001H293.2V16.6001H288.8V17.4001H288.9Z" fill="#003477"/>
<path d="M294.1 23.9002H298V23.1002H295V20.3002H297.9V19.5002H295V17.5002H298V16.7002H294.1V24.0002V23.9002Z" fill="#003477"/>
<path d="M298.9 20.1998C298.9 22.2998 300.6 23.9998 302.7 23.9998C304.8 23.9998 304.1 23.7998 304.6 23.4998V22.3998C304.1 22.8998 303.4 23.1998 302.7 23.1998C301.1 23.1998 299.8 21.7998 299.8 20.1998C299.8 18.5998 301 17.1998 302.7 17.1998C304.4 17.1998 304.1 17.3998 304.6 17.8998V16.7998C304.1 16.4998 303.4 16.2998 302.8 16.2998C300.7 16.2998 298.9 17.9998 298.9 20.1998Z" fill="#003477"/>
<path d="M310.1 19.5H306.6V16.5H305.7V23.8H306.6V20.3H310.1V23.8H311V16.5H310.1V19.5Z" fill="#003477"/>
<path d="M317.9 21.9001L312.4 16.1001V23.8001H313.3V18.4001L318.8 24.2001V16.6001H317.9V22.0001V21.9001Z" fill="#003477"/>
<path d="M323.5 16.3999C321.4 16.3999 319.7 18.0999 319.7 20.1999C319.7 22.2999 321.4 23.9999 323.5 23.9999C325.6 23.9999 327.3 22.3999 327.3 20.1999C327.3 17.9999 325.6 16.3999 323.5 16.3999ZM323.5 23.0999C321.9 23.0999 320.6 21.7999 320.6 20.0999C320.6 18.3999 321.8 17.0999 323.5 17.0999C325.2 17.0999 326.4 18.4999 326.4 20.0999C326.4 21.6999 325.1 23.0999 323.5 23.0999Z" fill="#003477"/>
<path d="M329.2 16.5H328.3V23.8H331.4V23H329.2V16.5Z" fill="#003477"/>
<path d="M335.4 16.3999C333.3 16.3999 331.6 18.0999 331.6 20.1999C331.6 22.2999 333.3 23.9999 335.4 23.9999C337.5 23.9999 339.2 22.3999 339.2 20.1999C339.2 17.9999 337.5 16.3999 335.4 16.3999ZM335.4 23.0999C333.8 23.0999 332.5 21.7999 332.5 20.0999C332.5 18.3999 333.7 17.0999 335.4 17.0999C337.1 17.0999 338.3 18.4999 338.3 20.0999C338.3 21.6999 337 23.0999 335.4 23.0999Z" fill="#003477"/>
<path d="M344 20.9999H345.9C345.9 22.1999 344.6 23.1999 343.5 23.1999C342.4 23.1999 340.7 21.6999 340.7 20.1999C340.7 18.6999 342 17.1999 343.6 17.1999C345.2 17.1999 345.4 17.6999 345.9 18.3999L346.5 17.7999C345.8 16.8999 344.7 16.3999 343.5 16.3999C341.4 16.3999 339.7 18.0999 339.7 20.1999C339.7 22.2999 341.4 23.9999 343.4 23.9999C345.4 23.9999 346.9 22.4999 346.9 20.3999V20.0999H344V20.8999V20.9999Z" fill="#003477"/>
<path d="M351.8 16.5L350 19.6L348.2 16.5H347.2L349.6 20.6V23.8H350.5V20.6L352.9 16.5H351.9H351.8Z" fill="#003477"/>
<path d="M58.1996 6.2998C58.2996 6.0998 58.3996 5.7998 58.3996 5.7998H49.5996C49.5996 5.7998 49.6996 6.1998 49.7996 6.2998H58.1996Z" fill="#AA8420"/>
<path d="M57.7 7.1002C57.9 6.9002 58 6.7002 58 6.7002H50C50 6.7002 50 6.9002 50.3 7.1002H57.7Z" fill="#AA8420"/>
<path d="M57 7.8C57.2 7.7 57.4 7.5 57.4 7.5H50.5C50.5 7.5 50.7 7.7 50.8 7.8H57Z" fill="#AA8420"/>
<path d="M56.2002 8.4002C56.4002 8.4002 56.6002 8.2002 56.6002 8.2002H51.2002C51.2002 8.2002 51.2002 8.2002 51.6002 8.4002H56.2002Z" fill="#AA8420"/>
<path d="M52.2998 8.7998C52.2998 8.7998 52.8998 9.0998 53.9998 9.0998C55.0998 9.0998 55.7998 8.7998 55.7998 8.7998H52.2998Z" fill="#AA8420"/>
<path d="M52.1998 9.4998C52.1998 9.4998 52.8998 9.4998 53.2998 9.7998C53.6998 10.0998 53.9998 10.6998 53.9998 10.6998C53.9998 10.6998 54.1998 10.1998 54.5998 9.8998C54.9998 9.5998 55.5998 9.4998 55.5998 9.4998H62.4998L63.8998 11.4998H57.6998C57.6998 11.4998 57.2998 11.4998 56.5998 11.8998C56.2998 12.0998 55.9998 12.4998 55.9998 12.4998C55.9998 12.4998 55.9998 12.6998 55.8998 12.6998C55.8998 12.6998 55.7998 12.8998 55.6998 12.8998H52.4998C52.4998 12.8998 52.3998 12.8998 52.2998 12.6998C52.2998 12.5998 52.2998 12.6998 52.2998 12.4998C52.2998 12.4998 52.0998 12.1998 51.5998 11.7998C51.0998 11.4998 50.5998 11.3998 50.5998 11.3998H44.2998L45.6998 9.2998H52.4998L52.1998 9.4998Z" fill="#003477"/>
<path d="M47.2998 12.3999V22.6999C47.2998 22.6999 47.2998 23.5999 48.0998 24.7999C48.8998 25.9999 49.9998 26.5999 49.9998 26.5999L50.8998 25.1999C50.8998 25.1999 50.0998 24.6999 49.5998 23.8999C48.9998 22.9999 48.9998 22.2999 48.9998 22.2999V12.3999H47.3998H47.2998Z" fill="#003477"/>
<path d="M59.0002 12.3998V22.3998C59.0002 22.3998 58.9002 23.3998 58.4002 24.0998C57.9002 24.7998 57.2002 25.3998 57.2002 25.3998L58.0002 26.6998C58.0002 26.6998 59.3002 25.7998 59.9002 24.7998C60.5002 23.7998 60.7002 22.2998 60.7002 22.2998V12.2998H59.1002L59.0002 12.3998Z" fill="#003477"/>
<path d="M44.7002 12.3999V22.7999C44.7002 22.7999 44.8002 24.3999 45.8002 26.0999C46.8002 27.7999 48.6002 28.8999 48.6002 28.8999L49.5002 27.4999C49.5002 27.4999 48.3002 26.8999 47.4002 25.4999C46.4002 24.0999 46.4002 22.7999 46.4002 22.7999V12.4999H44.7002V12.3999Z" fill="#003477"/>
<path d="M52.2 13.5V24.4C52.2 24.4 52.2 24.4 52.2 24.6C52.2 24.8 52.1 24.9 52.1 24.9L48.5 31H59.7L56 24.8V24.5C55.9 24.5 55.9 24.2 55.9 24.2V13.5H54.5V24.6C54.5 24.6 54.5 24.8 54.5 24.9C54.5 25 54.6 25.2 54.6 25.2L56.8 28.9H51.1L53.3 25.2C53.3 25.2 53.3 25.1 53.4 24.9C53.4 24.7 53.4 24.6 53.4 24.6V13.5H52.1H52.2Z" fill="#AA8420"/>
<path d="M61.5004 12.3999V22.5999C61.5004 22.5999 61.5004 23.8999 60.5004 25.3999C59.5004 26.8999 58.4004 27.4999 58.4004 27.4999L59.2004 28.8999C59.2004 28.8999 60.9004 27.8999 61.9004 26.1999C62.9004 24.4999 63.1004 22.5999 63.1004 22.5999V12.3999H61.4004H61.5004Z" fill="#003477"/>
<path d="M49.5002 5.5C49.5002 5.5 48.9002 2.4 51.2002 0.9C51.2002 0.9 52.2002 0 53.9002 0C55.6002 0 56.7002 0.9 56.7002 0.9C59.2002 2.7 58.4002 5.5 58.4002 5.5H49.5002Z" fill="#AA8420"/>
<path d="M10.0998 23.4999C10.3998 23.7999 10.4998 24.1999 10.4998 24.5999C10.4998 24.9999 10.2998 25.6999 9.7998 25.9999C9.2998 26.3999 8.6998 26.4999 7.8998 26.4999C7.0998 26.4999 6.4998 26.2999 5.9998 25.9999C5.4998 25.6999 5.2998 25.1999 5.2998 24.5999C5.2998 23.9999 5.3998 23.7999 5.6998 23.4999C5.9998 23.1999 6.2998 22.9999 6.7998 22.8999C6.3998 22.7999 5.9998 22.5999 5.7998 22.2999C5.5998 21.9999 5.4998 21.6999 5.4998 21.2999C5.4998 20.8999 5.4998 20.5999 5.7998 20.2999C5.9998 19.9999 6.2998 19.7999 6.5998 19.5999C6.9998 19.3999 7.3998 19.3999 7.7998 19.3999C8.1998 19.3999 8.6998 19.3999 9.0998 19.5999C9.4998 19.7999 9.6998 19.9999 9.8998 20.2999C10.0998 20.5999 10.1998 20.8999 10.1998 21.2999C10.1998 21.6999 10.0998 21.9999 9.8998 22.2999C9.6998 22.5999 9.2998 22.7999 8.8998 22.8999C9.3998 22.9999 9.6998 23.1999 9.9998 23.5999L10.0998 23.4999ZM9.2998 25.5999C9.5998 25.3999 9.6998 24.9999 9.6998 24.5999C9.6998 24.1999 9.4998 23.8999 9.1998 23.6999C8.8998 23.4999 8.4998 23.2999 7.8998 23.2999C7.3998 23.2999 6.9998 23.4999 6.5998 23.6999C6.2998 23.8999 6.0998 24.1999 6.0998 24.5999C6.0998 24.9999 6.2998 25.3999 6.4998 25.5999C6.7998 25.7999 7.1998 25.8999 7.7998 25.8999C8.3998 25.8999 8.7998 25.7999 9.0998 25.5999H9.2998ZM6.7998 22.1999C7.0998 22.3999 7.4998 22.5999 7.8998 22.5999C8.3998 22.5999 8.7998 22.3999 9.0998 22.1999C9.3998 21.9999 9.4998 21.6999 9.4998 21.2999C9.4998 20.8999 9.3998 20.5999 9.0998 20.3999C8.7998 20.1999 8.3998 20.0999 7.8998 20.0999C7.3998 20.0999 6.9998 20.1999 6.7998 20.3999C6.4998 20.5999 6.3998 20.8999 6.3998 21.2999C6.3998 21.6999 6.4998 21.9999 6.7998 22.1999Z" fill="#AA8420"/>
<path d="M371.5 24.8998H370.4V26.4998H369.6V24.8998H366.3V24.2998L369.7 19.2998H370.4V24.1998H371.5V24.8998ZM369.6 24.1998V20.6998L367.2 24.1998H369.6Z" fill="#AA8420"/>
<path d="M373 25.5002C372.6 24.9002 372.4 24.0002 372.4 22.8002C372.4 21.6002 372.6 20.7002 373 20.1002C373.4 19.5002 374 19.2002 374.9 19.2002C375.8 19.2002 376.3 19.5002 376.8 20.1002C377.2 20.7002 377.4 21.6002 377.4 22.8002C377.4 24.0002 377.2 24.9002 376.8 25.5002C376.4 26.1002 375.8 26.4002 374.9 26.4002C374 26.4002 373.5 26.1002 373 25.5002ZM376.1 25.0002C376.4 24.5002 376.5 23.8002 376.5 22.8002C376.5 21.8002 376.4 21.0002 376.1 20.6002C375.8 20.1002 375.4 19.9002 374.8 19.9002C374.2 19.9002 373.8 20.1002 373.6 20.6002C373.3 21.1002 373.2 21.8002 373.2 22.8002C373.2 23.8002 373.3 24.6002 373.6 25.0002C373.9 25.5002 374.3 25.7002 374.8 25.7002C375.3 25.7002 375.8 25.5002 376 25.0002H376.1Z" fill="#AA8420"/>
<path d="M16.0996 8.00059C15.3996 8.30059 14.5996 8.50059 13.7996 8.60059V10.3006H15.8996V11.0006H13.7996V13.0006C14.5996 12.8006 15.3996 12.5006 15.9996 12.3006V13.1006C14.9996 13.5006 13.8996 13.8006 12.7996 14.1006L12.5996 13.4006C12.7996 13.4006 12.8996 13.4006 12.9996 13.4006V8.20059C13.9996 8.10059 14.8996 7.90059 15.6996 7.60059L16.0996 8.20059V8.00059ZM19.3996 12.8006C19.3996 13.0006 19.3996 13.2006 19.1996 13.3006C18.9996 13.4006 18.8996 13.5006 18.7996 13.5006C18.5996 13.5006 18.3996 13.5006 18.0996 13.5006C17.7996 13.5006 17.6996 13.5006 17.5996 13.5006L17.2996 12.7006C17.4996 12.7006 17.7996 12.7006 18.3996 12.7006C18.9996 12.7006 18.5996 12.7006 18.5996 12.5006V8.30059H16.9996V14.3006H16.2996V7.60059H19.3996V12.7006V12.8006Z" fill="black"/>
<path d="M24.8992 9.70039H21.7992V10.8004C21.7992 12.3004 21.5992 13.6004 21.2992 14.5004L20.6992 14.1004C20.9992 13.3004 21.0992 12.4004 21.0992 11.3004V7.60039H24.8992V9.70039ZM24.1992 9.00039V8.20039H21.7992V9.00039H24.1992ZM24.8992 13.3004C24.8992 13.5004 24.8992 13.7004 24.6992 13.7004C24.4992 13.7004 24.3992 13.8004 24.0992 13.7004L23.8992 13.1004C23.8992 13.1004 23.8992 13.1004 23.9992 13.1004C24.1992 13.1004 24.1992 13.1004 24.1992 12.9004V11.3004H23.6992V14.2004H23.0992V11.3004H22.6992V13.7004H22.0992V10.6004H23.1992V9.90039H23.7992V10.6004H24.8992V13.1004V13.3004ZM26.0992 12.9004H25.3992V7.90039H26.0992V12.9004ZM27.3992 13.7004C27.3992 14.0004 27.3992 14.2004 27.1992 14.3004C26.9992 14.3004 26.7992 14.4004 26.3992 14.4004C25.9992 14.4004 25.9992 14.4004 25.8992 14.4004L25.6992 13.7004C25.8992 13.7004 26.0992 13.7004 26.2992 13.7004C26.4992 13.7004 26.5992 13.7004 26.6992 13.7004C26.6992 13.7004 26.6992 13.7004 26.6992 13.5004V7.40039H27.3992V13.7004Z" fill="black"/>
<path d="M20.5996 21.0001H14.6996V20.7001H17.4996C17.4996 20.5001 17.2996 20.4001 17.1996 20.3001L17.4996 20.1001C17.5996 20.3001 17.6996 20.5001 17.7996 20.7001H20.4996V21.0001H20.5996ZM20.5996 25.5001C20.5996 25.8001 20.5996 26.0001 20.3996 26.1001C20.2996 26.2001 20.0996 26.3001 19.9996 26.3001H17.6996C17.4996 26.3001 17.3996 26.3001 17.2996 26.1001C17.1996 26.0001 17.0996 25.8001 17.0996 25.6001V25.4001L14.5996 25.6001V25.3001L17.0996 25.1001V24.7001L14.9996 24.9001V24.6001L17.0996 24.4001V24.0001C16.5996 24.0001 16.0996 24.0001 15.4996 24.0001V23.7001C16.8996 23.7001 18.2996 23.7001 19.2996 23.4001L19.4996 23.7001C18.8996 23.8001 18.1996 23.9001 17.3996 24.0001V24.4001L19.9996 24.2001V24.5001L17.3996 24.7001V25.1001L20.3996 24.9001V25.2001L17.3996 25.4001V25.7001C17.3996 25.7001 17.3996 25.8001 17.3996 25.9001C17.3996 25.9001 17.4996 25.9001 17.5996 25.9001H19.6996C19.9996 25.9001 20.0996 25.7001 20.0996 25.3001H20.3996L20.5996 25.5001ZM20.4996 23.9001H20.0996V23.2001H15.0996V23.9001H14.6996V22.9001H20.4996V23.9001ZM19.8996 22.5001H15.1996V21.5001H19.8996V22.5001ZM19.5996 22.2001V21.8001H15.6996V22.2001H19.5996Z" fill="#AA8420" stroke="#AA8420" stroke-width="0.1" stroke-miterlimit="10"/>
<path d="M23.7 23.9002C23.3 24.7002 22.6 25.4002 21.8 26.0002L21.5 25.7002C22.3 25.1002 22.9 24.5002 23.3 23.7002L23.6 23.9002H23.7ZM27.6 23.1002H24.8V26.4002H24.4V23.1002H21.6V22.7002H24.4V20.2002H24.8V22.7002H27.6V23.1002ZM23.3 22.1002L23 22.3002C22.8 21.9002 22.5 21.4002 22.1 20.9002L22.4 20.7002C22.8 21.2002 23.1 21.6002 23.3 22.1002ZM27.6 25.7002L27.3 26.0002C26.9 25.3002 26.3 24.6002 25.5 24.0002L25.8 23.8002C26.4 24.3002 27 25.0002 27.6 25.8002V25.7002ZM27 20.7002C26.7 21.3002 26.4 21.8002 26.1 22.2002L25.7 22.0002C26 21.7002 26.3 21.2002 26.6 20.5002L26.9 20.7002H27Z" fill="#AA8420" stroke="#AA8420" stroke-width="0.1" stroke-miterlimit="10"/>
<path d="M367.499 12.4002C367.399 13.1002 367.199 13.8002 366.999 14.3002L366.399 14.1002C366.599 13.5002 366.799 12.9002 366.899 12.3002H367.499V12.4002ZM369.299 8.8002C368.699 9.9002 368.099 10.7002 367.499 11.4002C367.699 11.4002 367.999 11.3002 368.399 11.2002C368.399 11.1002 368.399 10.9002 368.199 10.8002L368.699 10.6002C368.899 11.0002 369.099 11.5002 369.199 11.9002L368.699 12.1002C368.699 11.9002 368.699 11.8002 368.699 11.7002C368.099 11.9002 367.499 12.0002 366.699 12.1002V11.5002C366.999 11.1002 367.499 10.6002 367.899 9.9002C367.599 9.9002 367.199 10.0002 366.699 10.1002V9.6002C367.099 9.0002 367.599 8.2002 367.999 7.2002L368.599 7.4002C368.299 8.1002 367.899 8.7002 367.499 9.4002C367.799 9.4002 368.099 9.4002 368.299 9.3002C368.499 9.1002 368.599 8.8002 368.799 8.5002L369.399 8.7002L369.299 8.8002ZM368.499 14.0002H367.899C367.899 13.6002 367.899 13.0002 367.699 12.4002H368.299C368.399 12.9002 368.499 13.4002 368.499 14.0002ZM369.399 13.0002L368.899 13.2002C368.899 12.9002 368.699 12.6002 368.599 12.3002L369.099 12.1002C369.199 12.4002 369.299 12.7002 369.399 13.0002ZM370.799 11.1002C370.799 12.1002 370.399 13.1002 369.399 14.1002L368.899 13.7002C369.599 13.1002 369.999 12.5002 370.199 11.8002H369.399V11.2002H370.899L370.799 11.1002ZM373.499 13.5002L372.999 14.1002C372.499 13.7002 372.099 13.2002 371.599 12.4002V13.6002C371.599 13.8002 371.599 14.0002 371.299 14.1002C371.099 14.2002 370.699 14.3002 370.199 14.3002L369.999 13.6002C370.399 13.6002 370.599 13.6002 370.699 13.6002C370.799 13.6002 370.899 13.6002 370.899 13.5002V10.6002H369.399V8.0002H370.399C370.499 7.8002 370.699 7.5002 370.799 7.3002L371.499 7.5002C371.499 7.7002 371.299 7.9002 371.199 8.1002H372.999V10.7002H371.599V11.3002C371.599 11.4002 371.699 11.6002 371.899 11.7002C372.099 11.5002 372.399 11.3002 372.699 10.9002L373.199 11.3002C372.899 11.6002 372.599 11.9002 372.199 12.2002C372.499 12.6002 372.899 13.0002 373.399 13.5002H373.499ZM372.299 9.0002V8.5002H370.099V9.0002H372.299ZM372.299 10.0002V9.5002H370.099V10.0002H372.299Z" fill="black"/>
<path d="M381.399 14.1003H374.399V13.4003H377.299V7.30029H377.999V9.70029H380.999V10.4003H377.999V13.4003H381.399V14.1003Z" fill="black"/>
<path d="M382.199 20.4002C382.199 20.7002 381.999 21.1002 381.899 21.4002L381.699 21.9002V26.4002H381.399V22.6002C381.199 23.0002 380.999 23.3002 380.799 23.5002L380.499 23.2002C381.099 22.5002 381.499 21.5002 381.899 20.2002H382.199V20.4002ZM386.599 25.9002L386.399 26.2002C385.999 26.0002 385.499 25.6002 384.999 25.1002C384.999 25.3002 384.999 25.4002 384.999 25.5002C384.999 25.8002 384.999 26.0002 384.899 26.1002C384.899 26.2002 384.699 26.3002 384.599 26.4002C384.499 26.4002 384.199 26.4002 383.899 26.4002C383.599 26.4002 383.699 26.4002 383.599 26.4002V26.1002C384.099 26.1002 384.399 26.1002 384.499 26.1002C384.599 26.1002 384.699 25.9002 384.699 25.6002C384.699 25.3002 384.699 25.3002 384.699 25.1002C384.099 25.5002 383.299 25.9002 382.199 26.3002L381.999 26.0002C383.099 25.7002 383.999 25.3002 384.599 24.8002C384.599 24.8002 384.599 24.6002 384.399 24.4002C383.799 24.8002 383.099 25.2002 382.199 25.4002L381.999 25.1002C382.999 24.8002 383.699 24.5002 384.299 24.1002C384.299 24.0002 384.099 23.9002 383.999 23.8002C383.499 24.1002 382.899 24.3002 382.099 24.5002L381.899 24.2002C382.699 24.1002 383.399 23.8002 383.999 23.4002H382.599V22.2002C382.499 22.3002 382.299 22.4002 382.199 22.5002L381.999 22.2002C382.799 21.6002 383.399 21.1002 383.699 20.5002L383.999 20.7002C383.999 20.8002 383.899 20.9002 383.799 21.0002H385.499V21.3002C385.299 21.5002 385.099 21.8002 384.899 22.0002H386.199V23.3002H384.599C384.499 23.4002 384.399 23.5002 384.299 23.6002C384.499 23.9002 384.699 24.1002 384.899 24.5002C385.299 24.3002 385.699 24.0002 386.199 23.6002L386.499 23.8002C386.099 24.1002 385.699 24.4002 385.199 24.7002C385.699 25.3002 386.299 25.7002 386.799 26.0002L386.599 25.9002ZM385.099 21.1002H383.599C383.299 21.4002 383.099 21.6002 382.799 21.8002H384.499C384.799 21.5002 384.999 21.3002 385.099 21.1002ZM384.199 22.9002V22.2002H382.899V22.9002H384.199ZM385.899 22.9002V22.2002H384.599V22.9002H385.899Z" fill="#AA8420" stroke="#AA8420" stroke-width="0.1" stroke-miterlimit="10"/>
<path d="M393.599 22.7002H390.699C390.199 23.1002 389.699 23.3002 389.199 23.5002H390.299C390.999 23.5002 391.399 23.5002 391.399 23.5002C391.699 23.4002 391.899 23.2002 392.299 23.0002L392.599 23.2002C391.399 23.9002 390.299 24.4002 389.099 24.7002C390.299 24.7002 391.499 24.7002 392.599 24.5002C392.399 24.3002 392.299 24.2002 392.099 24.0002L392.399 23.8002C392.899 24.2002 393.299 24.7002 393.599 25.1002L393.299 25.3002C393.099 25.1002 392.999 24.9002 392.899 24.8002C392.199 24.8002 391.499 24.9002 390.799 24.9002V25.9002C390.799 26.1002 390.799 26.2002 390.599 26.3002C390.499 26.3002 390.299 26.4002 389.899 26.4002C389.499 26.4002 389.699 26.4002 389.699 26.4002V26.0002C389.699 26.0002 389.899 26.0002 389.999 26.0002C390.199 26.0002 390.299 26.0002 390.299 26.0002C390.299 26.0002 390.299 26.0002 390.299 25.9002V24.9002C389.699 24.9002 388.899 24.9002 387.899 24.9002V24.6002C388.799 24.4002 389.699 24.1002 390.599 23.7002C390.099 23.7002 389.499 23.7002 388.899 23.7002C388.299 23.7002 388.499 23.7002 388.399 23.7002V23.4002C388.899 23.2002 389.499 22.9002 389.999 22.6002H387.399V22.3002H390.299V21.7002H388.099V21.4002H390.299V20.9002H387.699V20.6002H390.299V20.2002H390.699V20.6002H393.199V20.9002H390.699V21.4002H392.799V21.7002H390.699V22.3002H393.499V22.6002L393.599 22.7002ZM389.599 25.4002C389.199 25.7002 388.599 26.1002 387.799 26.4002L387.599 26.1002C388.299 25.8002 388.899 25.5002 389.399 25.2002L389.699 25.5002L389.599 25.4002ZM393.499 26.1002L393.299 26.4002C392.799 26.0002 392.199 25.7002 391.499 25.4002L391.699 25.1002C392.399 25.4002 392.999 25.7002 393.499 26.1002Z" fill="#AA8420" stroke="#AA8420" stroke-width="0.1" stroke-miterlimit="10"/>
</svg>
