<svg width="215" height="22" viewBox="0 0 215 22" fill="none" xmlns="http://www.w3.org/2000/svg">
<path d="M45 20.8H38V0H45V0.3H38.3V20.6H45V20.8Z" fill="#231815"/>
<path d="M173.8 20.8H166.8V20.6H173.5V0.3H166.8V0H173.8V20.7V20.8Z" fill="#231815"/>
<path d="M10.3996 18.9V19.6H5.79961V19L8.29961 16.2C8.59961 15.8 8.89961 15.5 8.99961 15.2C9.19961 14.9 9.19961 14.6 9.19961 14.3C9.19961 14 9.09961 13.6 8.89961 13.4C8.69961 13.2 8.29961 13.1 7.89961 13.1C7.19961 13.1 6.49961 13.4 5.89961 13.9L5.59961 13.3C5.89961 13 6.19961 12.8 6.69961 12.7C7.09961 12.5 7.59961 12.5 7.99961 12.5C8.69961 12.5 9.19961 12.7 9.59961 13C9.99961 13.3 10.1996 13.8 10.1996 14.4C10.1996 15 10.1996 15.2 9.89961 15.6C9.69961 16 9.39961 16.4 8.99961 16.9L6.99961 19.1H10.4996L10.3996 18.9Z" fill="#AA8420"/>
<path d="M187.2 18.9V19.6H182.6V19L185.1 16.2C185.4 15.8 185.7 15.5 185.8 15.2C185.9 14.9 186 14.6 186 14.3C186 14 185.9 13.6 185.7 13.4C185.5 13.2 185.1 13.1 184.7 13.1C184 13.1 183.3 13.4 182.7 13.9L182.4 13.3C182.7 13 183 12.8 183.5 12.7C183.9 12.5 184.4 12.5 184.8 12.5C185.4 12.5 186 12.7 186.4 13C186.8 13.3 187 13.8 187 14.4C187 15 187 15.2 186.7 15.6C186.5 16 186.2 16.4 185.8 16.9L183.8 19.1H187.3L187.2 18.9Z" fill="#AA8420"/>
<path d="M188.9 18.7C188.5 18.1 188.3 17.2 188.3 16C188.3 14.8 188.5 13.9 188.9 13.3C189.3 12.7 189.9 12.4 190.7 12.4C191.5 12.4 192.1 12.7 192.6 13.3C193 13.9 193.2 14.8 193.2 16C193.2 17.2 193 18.1 192.6 18.7C192.2 19.3 191.6 19.6 190.7 19.6C189.8 19.6 189.3 19.3 188.9 18.7ZM192 18.2C192.3 17.7 192.4 17 192.4 16C192.4 15 192.3 14.2 192 13.8C191.7 13.4 191.3 13.1 190.7 13.1C190.1 13.1 189.7 13.3 189.5 13.8C189.2 14.3 189.1 15 189.1 16C189.1 17 189.2 17.8 189.5 18.2C189.8 18.7 190.2 18.9 190.7 18.9C191.2 18.9 191.7 18.7 191.9 18.2H192Z" fill="#AA8420"/>
<path d="M63.3998 8.50002H52.9998V0.400024H50.2998V20.3H52.9998V10.7H63.3998V20.3H66.0998V0.400024H63.3998V8.40002V8.50002Z" fill="#003477"/>
<path d="M91.6 0.400024H88L78.7 9.00002V0.400024H76V20.3H78.7V12L79.8 11.1L88 20.4H91.7L81.7 9.40002L91.6 0.400024Z" fill="#003477"/>
<path d="M112.3 12.2C112.3 15.4 111.2 18.5 107 18.5C102.8 18.5 101.7 15.5 101.7 12.2V0.400024H99V13C99 17.4 102 20.7 107 20.7C112 20.7 115 17.3 115 13V0.400024H112.3V12.2Z" fill="#003477"/>
<path d="M131.9 8.59998L130.3 7.99998C128.9 7.49998 127.3 6.69998 127.3 5.19998C127.3 3.69998 129.2 2.39998 131 2.39998C132.8 2.39998 133.7 2.99998 134.5 4.29998L136.7 3.09998C135.5 1.19998 133.5 0.0999756 131.1 0.0999756C128.7 0.0999756 124.7 1.99998 124.7 5.29998C124.7 8.59998 127 9.39998 129.5 10.3L131 10.9C132.9 11.6 134.8 12.5 134.8 14.7C134.8 16.9 133.1 18.6 130.8 18.6C128.5 18.6 126.5 17 126.6 14.8L123.8 15.3C124.3 18.5 127 20.9 130.6 20.9C134.2 20.9 137.6 18.3 137.6 14.7C137.6 11.1 135.3 9.79998 132.2 8.69998L131.9 8.59998Z" fill="#003477"/>
<path d="M144.3 0.400024V2.70002H149.5V20.3H152.2V2.70002H157.4V0.400024H144.3Z" fill="#003477"/>
<path d="M15.4004 1.39995C14.7004 1.69995 13.9004 1.89995 13.1004 1.99995V3.69995H15.2004V4.39995H13.1004V6.39995C13.9004 6.19995 14.7004 5.89995 15.3004 5.69995V6.49995C14.3004 6.89995 13.2004 7.19995 12.1004 7.49995L11.9004 6.79995C12.1004 6.79995 12.2004 6.79995 12.3004 6.79995V1.29995C13.3004 1.19995 14.2004 0.999951 15.0004 0.699951L15.4004 1.29995V1.39995ZM18.8004 6.19995C18.8004 6.39995 18.8004 6.59995 18.6004 6.69995C18.4004 6.79995 18.3004 6.89995 18.2004 6.89995C18.1004 6.89995 17.8004 6.89995 17.5004 6.89995C17.2004 6.89995 17.1004 6.89995 17.0004 6.89995L16.7004 6.09995C16.9004 6.09995 17.2004 6.09995 17.8004 6.09995C18.4004 6.09995 18.0004 6.09995 18.0004 5.89995V1.69995H16.4004V7.69995H15.7004V0.999951H18.8004V6.09995V6.19995Z" fill="black"/>
<path d="M24.2 3.09993H21.1V4.19993C21.1 5.69993 20.9 6.99993 20.6 7.89993L20 7.49993C20.3 6.69993 20.4 5.79993 20.4 4.69993V0.999927H24.2V3.09993ZM23.5 2.39993V1.59993H21.1V2.39993H23.5ZM24.2 6.69993C24.2 6.89993 24.2 7.09993 24 7.09993C23.8 7.09993 23.7 7.19993 23.4 7.09993L23.2 6.49993C23.2 6.49993 23.2 6.49993 23.3 6.49993C23.5 6.49993 23.5 6.49993 23.5 6.29993V4.69993H23V7.59993H22.4V4.69993H22V7.09993H21.4V3.99993H22.5V3.29993H23.1V3.99993H24.2V6.49993V6.69993ZM25.4 6.29993H24.7V1.29993H25.4V6.29993ZM26.8 7.09993C26.8 7.39993 26.8 7.59993 26.6 7.69993C26.4 7.79993 26.2 7.79993 25.8 7.79993C25.4 7.79993 25.4 7.79993 25.3 7.79993L25.1 7.09993C25.3 7.09993 25.5 7.09993 25.7 7.09993C25.9 7.09993 26 7.09993 26.1 7.09993C26.2 7.09993 26.1 7.09993 26.1 6.89993V0.799927H26.8V7.09993Z" fill="black"/>
<path d="M20.4 14.1999H14.5V13.8999H17.3C17.3 13.6999 17.1 13.5999 17 13.4999L17.3 13.2999C17.4 13.4999 17.5 13.6999 17.6 13.8999H20.3V14.1999H20.4ZM20.5 18.6999C20.5 18.9999 20.5 19.1999 20.3 19.2999C20.2 19.3999 20 19.4999 19.9 19.4999H17.6C17.4 19.4999 17.3 19.4999 17.2 19.2999C17.1 19.1999 17 18.9999 17 18.7999V18.5999L14.5 18.7999V18.4999L17 18.2999V17.8999L14.9 18.0999V17.7999L17 17.5999V17.1999C16.5 17.1999 16 17.1999 15.4 17.1999V16.8999C16.8 16.8999 18.2 16.8999 19.2 16.5999L19.4 16.8999C18.8 16.9999 18.1 17.0999 17.3 17.1999V17.5999L19.9 17.3999V17.6999L17.3 17.8999V18.2999L20.3 18.0999V18.3999L17.3 18.5999V18.8999C17.3 18.8999 17.3 18.9999 17.3 19.0999C17.3 19.0999 17.4 19.0999 17.5 19.0999H19.6C19.9 19.0999 20 18.8999 20 18.4999H20.3L20.5 18.6999ZM20.3 16.9999H19.9V16.2999H14.9V16.9999H14.5V15.9999H20.3V16.9999ZM19.8 15.6999H15.1V14.6999H19.8V15.6999ZM19.4 15.3999V14.9999H15.5V15.3999H19.4Z" fill="#AA8420" stroke="#AA8420" stroke-width="0.1" stroke-miterlimit="10"/>
<path d="M23.4998 17.0999C23.0998 17.8999 22.3998 18.5999 21.5998 19.1999L21.2998 18.8999C22.0998 18.2999 22.6998 17.6999 23.0998 16.8999L23.3998 17.0999H23.4998ZM27.3998 16.2999H24.5998V19.5999H24.1998V16.2999H21.3998V15.8999H24.1998V13.3999H24.5998V15.8999H27.3998V16.2999ZM23.1998 15.1999L22.8998 15.3999C22.6998 14.9999 22.3998 14.4999 21.9998 13.9999L22.2998 13.7999C22.6998 14.2999 22.9998 14.6999 23.1998 15.1999ZM27.3998 18.8999L27.0998 19.1999C26.6998 18.4999 26.0998 17.7999 25.2998 17.1999L25.5998 16.9999C26.1998 17.4999 26.7998 18.1999 27.3998 18.9999V18.8999ZM26.7998 13.8999C26.4998 14.4999 26.1998 14.9999 25.8998 15.3999L25.4998 15.1999C25.7998 14.8999 26.0998 14.3999 26.3998 13.6999L26.6998 13.8999H26.7998Z" fill="#AA8420" stroke="#AA8420" stroke-width="0.1" stroke-miterlimit="10"/>
<path d="M183.8 5.89995C183.7 6.59995 183.5 7.29995 183.3 7.79995L182.7 7.59995C182.9 6.99995 183.1 6.39995 183.2 5.79995H183.8V5.89995ZM185.7 2.29995C185.1 3.39995 184.5 4.19995 183.9 4.89995C184.1 4.89995 184.4 4.79995 184.8 4.69995C184.8 4.59995 184.8 4.39995 184.6 4.29995L185.1 4.09995C185.3 4.49995 185.5 4.99995 185.6 5.39995L185.1 5.59995C185.1 5.39995 185.1 5.29995 185.1 5.19995C184.5 5.39995 183.9 5.49995 183.1 5.59995V4.99995C183.4 4.59995 183.9 4.09995 184.3 3.39995C184 3.39995 183.6 3.49995 183.1 3.59995V3.09995C183.5 2.49995 184 1.69995 184.4 0.699951L185 0.899951C184.7 1.59995 184.3 2.19995 183.9 2.89995C184.2 2.89995 184.5 2.89995 184.7 2.79995C184.9 2.59995 185 2.29995 185.2 1.99995L185.8 2.19995L185.7 2.29995ZM184.9 7.39995H184.3C184.3 6.99995 184.3 6.39995 184.1 5.79995H184.7C184.8 6.29995 184.9 6.79995 184.9 7.39995ZM185.8 6.49995L185.3 6.69995C185.3 6.39995 185.1 6.09995 185 5.79995L185.5 5.59995C185.6 5.89995 185.7 6.19995 185.8 6.49995ZM187.2 4.59995C187.2 5.59995 186.8 6.59995 185.8 7.59995L185.3 7.19995C186 6.59995 186.4 5.99995 186.6 5.29995H185.8V4.69995H187.3L187.2 4.59995ZM189.9 6.99995L189.4 7.59995C188.9 7.19995 188.5 6.69995 188 5.89995V7.09995C188 7.29995 188 7.49995 187.7 7.59995C187.4 7.69995 187.1 7.79995 186.6 7.79995L186.4 7.09995C186.8 7.09995 187 7.09995 187.1 7.09995C187.2 7.09995 187.3 7.09995 187.3 6.99995V4.09995H185.8V1.39995H186.8C186.9 1.19995 187.1 0.899951 187.2 0.699951L187.9 0.899951C187.9 1.09995 187.7 1.29995 187.6 1.49995H189.4V4.09995H188V4.69995C188 4.79995 188.1 4.99995 188.3 5.09995C188.5 4.89995 188.8 4.69995 189.1 4.29995L189.6 4.69995C189.3 4.99995 189 5.29995 188.6 5.59995C188.9 5.99995 189.3 6.39995 189.8 6.89995L189.9 6.99995ZM188.7 2.49995V1.99995H186.5V2.49995H188.7ZM188.7 3.49995V2.99995H186.5V3.49995H188.7Z" fill="black"/>
<path d="M197.8 7.59993H190.8V6.89993H193.7V0.799927H194.4V3.19993H197.4V3.89993H194.4V6.89993H197.8V7.59993Z" fill="black"/>
<path d="M198.2 13.4999C198.2 13.7999 198 14.1999 197.9 14.4999L197.7 14.9999V19.4999H197.4V15.6999C197.2 16.0999 197 16.3999 196.8 16.5999L196.5 16.2999C197.1 15.5999 197.5 14.5999 197.9 13.2999H198.2V13.4999ZM202.6 18.8999L202.4 19.1999C202 18.9999 201.5 18.5999 201 18.0999C201 18.2999 201 18.3999 201 18.4999C201 18.7999 201 18.9999 200.9 19.0999C200.9 19.1999 200.7 19.2999 200.6 19.3999C200.5 19.3999 200.2 19.3999 199.9 19.3999C199.6 19.3999 199.7 19.3999 199.6 19.3999V19.0999C200.1 19.0999 200.4 19.0999 200.5 19.0999C200.6 19.0999 200.7 18.8999 200.7 18.5999C200.7 18.2999 200.7 18.2999 200.7 18.0999C200.1 18.4999 199.3 18.8999 198.2 19.2999L198 18.9999C199.1 18.6999 200 18.2999 200.6 17.7999C200.6 17.7999 200.6 17.5999 200.4 17.3999C199.8 17.7999 199.1 18.1999 198.2 18.3999L198 18.0999C199 17.7999 199.7 17.4999 200.3 17.0999C200.3 16.9999 200.1 16.8999 200 16.7999C199.5 17.0999 198.9 17.2999 198.1 17.4999L197.9 17.1999C198.7 17.0999 199.4 16.7999 200 16.3999H198.6V15.1999C198.5 15.2999 198.3 15.3999 198.2 15.4999L198 15.1999C198.8 14.5999 199.4 14.0999 199.7 13.4999L200 13.6999C200 13.7999 199.9 13.8999 199.8 13.9999H201.5V14.2999C201.3 14.4999 201.1 14.7999 200.9 14.9999H202.2V16.2999H200.6C200.5 16.3999 200.4 16.4999 200.3 16.5999C200.5 16.8999 200.7 17.0999 200.9 17.4999C201.3 17.2999 201.7 16.9999 202.2 16.5999L202.5 16.7999C202.1 17.0999 201.7 17.3999 201.2 17.6999C201.7 18.2999 202.3 18.6999 202.8 18.9999L202.6 18.8999ZM201.1 14.1999H199.6C199.3 14.4999 199.1 14.6999 198.8 14.8999H200.5C200.7 14.5999 201 14.3999 201.1 14.1999ZM200.2 15.8999V15.1999H198.9V15.8999H200.2ZM201.9 15.8999V15.1999H200.6V15.8999H201.9Z" fill="#AA8420" stroke="#AA8420" stroke-width="0.1" stroke-miterlimit="10"/>
<path d="M209.6 15.7999H206.7C206.2 16.1999 205.7 16.3999 205.2 16.5999H206.3C207 16.5999 207.4 16.5999 207.4 16.5999C207.7 16.4999 207.9 16.2999 208.3 16.0999L208.6 16.2999C207.4 16.9999 206.3 17.4999 205.1 17.7999C206.3 17.7999 207.5 17.7999 208.6 17.5999C208.4 17.3999 208.3 17.2999 208.1 17.0999L208.4 16.8999C208.9 17.2999 209.3 17.7999 209.6 18.1999L209.3 18.3999C209.1 18.1999 209 17.9999 208.9 17.8999C208.2 17.8999 207.5 17.9999 206.8 17.9999V18.9999C206.8 19.1999 206.8 19.2999 206.6 19.3999C206.5 19.3999 206.3 19.4999 205.9 19.4999C205.5 19.4999 205.7 19.4999 205.7 19.4999V19.0999C205.7 19.0999 205.9 19.0999 206 19.0999C206.2 19.0999 206.3 19.0999 206.3 19.0999C206.3 19.0999 206.3 19.0999 206.3 18.9999V17.9999C205.7 17.9999 204.9 17.9999 203.9 17.9999V17.6999C204.8 17.4999 205.7 17.1999 206.6 16.7999C206.1 16.7999 205.5 16.7999 204.9 16.7999C204.3 16.7999 204.5 16.7999 204.4 16.7999V16.4999C204.9 16.2999 205.5 15.9999 206 15.6999H203.4V15.3999H206.3V14.7999H204.1V14.4999H206.3V13.9999H203.7V13.6999H206.3V13.2999H206.7V13.6999H209.2V13.9999H206.7V14.4999H208.8V14.7999H206.7V15.3999H209.5V15.6999L209.6 15.7999ZM205.6 18.3999C205.2 18.6999 204.6 19.0999 203.8 19.3999L203.6 19.0999C204.3 18.7999 204.9 18.4999 205.4 18.1999L205.7 18.4999L205.6 18.3999ZM209.5 19.0999L209.3 19.3999C208.8 18.9999 208.2 18.6999 207.5 18.3999L207.7 18.0999C208.4 18.3999 209 18.6999 209.5 19.0999Z" fill="#AA8420" stroke="#AA8420" stroke-width="0.1" stroke-miterlimit="10"/>
</svg>
