<svg width="201" height="71" viewBox="0 0 201 71" fill="none" xmlns="http://www.w3.org/2000/svg">
<path d="M46.5998 70.3H39.2998V0H46.5998V0.2H39.4998V70H46.5998V70.2V70.3Z" fill="#231815"/>
<path d="M162.8 70.3H155.5V70.1H162.6V0.2H155.5V0H162.8V70.3Z" fill="#231815"/>
<path d="M4.1002 40.8H5.5002V48H4.8002V41.5H3.7002L4.1002 40.8Z" fill="#AA8420"/>
<path d="M9.00039 43H8.30039C8.30039 42.3 8.60039 41.7 9.00039 41.2C9.50039 40.8 10.0004 40.5 10.6004 40.5C11.2004 40.5 11.8004 40.7 12.2004 41.1C12.6004 41.5 12.8004 42 12.8004 42.6C12.8004 43.2 12.7004 43.5 12.4004 43.8C12.2004 44.2 11.8004 44.6 11.3004 45.1L9.50039 47H12.8004V47.7H7.90039L10.6004 44.7C11.1004 44.2 11.4004 43.8 11.6004 43.5C11.8004 43.2 11.9004 42.9 11.9004 42.5C11.9004 42.1 11.7004 41.8 11.4004 41.5C11.1004 41.2 10.7004 41.1 10.3004 41.1C9.90039 41.1 9.50039 41.2 9.20039 41.6C8.90039 41.9 8.70039 42.3 8.70039 42.9L9.00039 43Z" fill="#AA8420"/>
<path d="M172.6 40.6001V41.3001H170L169.6 43.3001C169.9 43.3001 170.2 43.2001 170.5 43.2001C171.1 43.2001 171.6 43.4001 172.1 43.9001C172.5 44.3001 172.7 44.9001 172.7 45.6001C172.7 46.3001 172.5 46.9001 172 47.4001C171.5 47.9001 170.9 48.1001 170.2 48.1001C169.5 48.1001 169.1 47.9001 168.7 47.6001C168.3 47.3001 168.1 46.8001 168 46.2001H168.7C168.7 46.6001 169 46.9001 169.2 47.1001C169.5 47.3001 169.8 47.4001 170.1 47.4001C170.4 47.4001 171 47.2001 171.3 46.9001C171.6 46.6001 171.8 46.1001 171.8 45.6001C171.8 45.1001 171.6 44.7001 171.4 44.4001C171.1 44.1001 170.7 43.9001 170.2 43.9001C169.7 43.9001 169.2 44.0001 168.6 44.3001L169.3 40.7001H172.4L172.6 40.6001Z" fill="#AA8420"/>
<path d="M175.9 47.9001C175.1 47.9001 174.5 47.6001 174.1 46.9001C173.7 46.2001 173.5 45.3 173.5 44.1C173.5 42.9 173.7 41.9 174.1 41.3C174.5 40.7 175.1 40.3 175.9 40.3C176.7 40.3 177.3 40.6 177.7 41.3C178.2 41.9 178.4 42.9 178.4 44.1C178.4 45.3 178.2 46.3001 177.7 46.9001C177.3 47.6001 176.6 47.9001 175.9 47.9001ZM176 41.1C175.4 41.1 175 41.4001 174.7 41.9001C174.4 42.4001 174.2 43.2001 174.2 44.2001C174.2 46.3001 174.8 47.3 176 47.3C177.2 47.3 177 47 177.3 46.5C177.6 46 177.8 45.2001 177.8 44.2001C177.8 43.2001 177.6 42.4001 177.3 41.9001C177 41.4001 176.5 41.1 176 41.1Z" fill="#AA8420"/>
<path d="M81.3996 60.5999V59.4H75.2996V58.0999C77.1996 57.8999 78.8996 57.7 80.1996 57.4L79.5996 56.2C77.5996 56.7 74.6996 56.9 70.8996 56.9C67.0996 56.9 69.3996 56.9 68.8996 56.9L69.3996 58.2999C70.2996 58.2999 71.8996 58.2999 74.0996 58.2999V59.5H68.1996V60.7H72.6996C71.3996 61.8 69.8996 62.5999 68.0996 63.0999L68.7996 64.5C69.3996 64.3 69.7996 64.1 69.9996 64V70.5H71.2996V69.8H78.3996V70.5H79.6996V64C79.8996 64.1 80.0996 64.2 80.2996 64.3C80.4996 64.3 80.6996 64.5 80.8996 64.5L81.4996 63.0999C79.3996 62.6999 77.7996 61.8999 76.6996 60.7999H81.3996V60.5999ZM70.5996 63.4C71.9996 62.8 73.0996 61.8999 73.8996 60.5999V63.4H70.5996ZM71.0996 64.6999H78.1996V65.9H71.0996V64.6999ZM78.1996 68.4H71.0996V67.0999H78.1996V68.4ZM78.7996 63.4H75.1996V60.5999C76.0996 61.8999 77.2996 62.8 78.7996 63.4Z" fill="#003477"/>
<path d="M96.3002 67.0999V64C96.9002 64.5 97.6002 65.0999 98.5002 65.6999L99.1002 64.3C97.5002 63.5 96.6002 62.7 96.2002 61.9H99.0002V60.5999H96.4002V59H98.8002V57.7999H96.4002V56.2H95.1002V57.7999H92.5002V56.2H91.2002V57.7999H89.3002V58C88.7002 57.5 88.0002 57 87.2002 56.5L86.2002 57.5999C86.8002 57.9999 87.6002 58.6 88.4002 59.4L89.3002 58.2V59H91.2002V60.5H89.0002V61.7999H91.3002C90.9002 62.7999 89.9002 63.6 88.3002 64.4L89.1002 65.6999C89.8002 65.2999 90.2002 65 90.4002 64.8V68.1999C90.4002 68.8999 90.5002 69.3999 90.8002 69.5999C91.0002 69.7999 91.5002 70 92.1002 70H96.8002C97.5002 70 98.0002 69.8999 98.3002 69.5999C98.6002 69.2999 98.8002 68.4999 98.9002 67.0999L97.5002 66.5999C97.5002 67.3999 97.4002 67.9 97.3002 68.3C97.3002 68.6 97.0002 68.8 96.6002 68.8H92.3002C92.0002 68.8 91.8002 68.6 91.8002 68.3V67.3H96.5002L96.3002 67.0999ZM92.5002 59.0999H95.1002V60.5999H92.5002V59.0999ZM92.8002 61.7999H94.7002C95.0002 62.2999 95.3002 62.8 95.6002 63.2H91.9002C92.3002 62.8 92.5002 62.3999 92.7002 61.7999H92.8002ZM91.7002 65.9V64.4H95.0002V65.9H91.7002Z" fill="#003477"/>
<path d="M85.7002 68.9L86.9002 70.1C87.7002 68.7 88.3002 67.2 88.7002 65.6L87.4002 64.8C87.1002 66.2 86.5002 67.6 85.7002 68.8V68.9Z" fill="#003477"/>
<path d="M88.7998 61.9C88.0998 61.3 87.2998 60.8 86.6998 60.4L85.7998 61.5C86.3998 61.9 86.9998 62.4 87.7998 63.1L88.7998 61.8V61.9Z" fill="#003477"/>
<path d="M113.6 62.7001C112.5 61.9001 111.7 61.2 110.9 60.8L110.1 61.8C110.9 62.3 111.7 62.9 112.7 63.8L113.6 62.6V62.7001Z" fill="#003477"/>
<path d="M115.7 56.1H114.4V64.8L109.6 65.6V67L114.4 66.2V70.4H115.7V66.1L117 65.9V64.5L115.7 64.7V56.2V56.1Z" fill="#003477"/>
<path d="M113.8 59.1C112.7 58.2 111.8 57.6 111.1 57.3L110.2 58.3C110.9 58.7 111.7 59.4 112.8 60.3L113.7 59.2001L113.8 59.1Z" fill="#003477"/>
<path d="M107.5 61.6C107.5 61.5 109.7 61.5 109.7 61.5V60.2001H107.5V58.1C108.3 57.9 109 57.7 109.7 57.5L109.2 56.3C107.7 56.9 105.8 57.3001 103.6 57.4001L103.9 58.7001C104.9 58.7001 105.6 58.5001 106.1 58.4001V60.3H103.4V61.6H106.1C105.5 63.3 104.6 64.8001 103.4 66.3001L104.2 67.7C105.1 66.4 105.8 65.3001 106.2 64.3001V70.5H107.5V63.4001C107.8 63.8001 108 64.1001 108.3 64.4001C108.6 64.7001 108.9 65.1 109.2 65.5L110 64.2C109.4 63.6 108.6 62.7001 107.5 61.7001V61.6Z" fill="#003477"/>
<path d="M131.4 65.4C130.6 64.1 130.1 62.8 129.8 61.5H134.4V59.9H128.3C128.3 59.1 128.4 57.8 128.4 56.1H126.9C126.9 57.7 126.9 59 126.7 59.9H121.5V61.5H126.5C126.3 62.9 125.7 64.3 124.7 65.6C123.7 66.9 122.5 68 121.2 68.8L122.3 70.2C125.5 68 127.5 65 128.1 61.4H128.3C129.3 65.5 131.1 68.4 133.6 70.2L134.7 68.8C133.3 67.8 132.1 66.6 131.3 65.3L131.4 65.4Z" fill="#003477"/>
<path d="M109.8 49.2L104.3 39.5999C104.3 39.5999 104.1 39.4 104.1 39V21.2H102V39.5999C102.2 39.7999 105.6 46 105.6 46H96.9998C96.9998 46 100.5 39.7999 100.6 39.5999V21.2H98.4998V39C98.4998 39.4 98.2998 39.5999 98.2998 39.5999L92.7998 49.2H109.7H109.8Z" fill="#AA8420"/>
<path d="M108 8.8C108 8.8 109 4.3 105.3 1.4C105.3 1.4 103.8 0 101 0C98.2004 0 97.0004 1.4 97.0004 1.4C93.6004 3.9 94.5004 8.8 94.5004 8.8H108Z" fill="#AA8420"/>
<path d="M94.9998 9.99995H107.7C107.7 9.69995 107.9 9.49995 108 9.19995H94.7998C94.7998 9.49995 94.9998 9.69995 95.0998 9.99995" fill="#AA8420"/>
<path d="M107.4 10.5H95.0996C95.1996 10.8 95.3996 11 95.4996 11.3H106.9C107.1 11.1 107.2 10.8 107.3 10.5" fill="#AA8420"/>
<path d="M96.4004 12.4H106.2C106.4 12.2 106.6 12 106.7 11.8H95.9004C96.1004 12 96.2004 12.2 96.4004 12.4Z" fill="#AA8420"/>
<path d="M97.5004 13.3H105.1C105.3 13.2 105.5 13 105.7 12.8H96.9004C97.1004 13 97.3004 13.1 97.5004 13.3Z" fill="#AA8420"/>
<path d="M98.5996 13.9C99.4996 14.3 100.4 14.5 101.4 14.5C102.4 14.5 103.3 14.3 104.2 13.9H98.6996H98.5996Z" fill="#AA8420"/>
<path d="M114.5 14.9H104.1C104.1 14.9 103.1 14.9 102.4 15.5C101.8 15.9 101.4 16.9 101.4 17C101.4 17 101 16 100.4 15.5C99.6002 14.9 98.7002 14.9 98.7002 14.9H88.3002L86.2002 18.4H95.7002C95.7002 18.4 96.0002 18.4 96.2002 18.4C96.5002 18.4 97.0002 18.6 97.5002 19C98.2002 19.5 98.4002 19.8 98.6002 20L98.9002 20.4H104.1C104.1 20.4 104.3 20.1 104.4 20C104.6 19.8 104.8 19.6 105.5 19C106 18.6 106.5 18.5 106.8 18.4C107 18.4 107.3 18.4 107.3 18.4H116.8L114.7 14.9H114.5Z" fill="#003477"/>
<path d="M87.2002 19.4V35.9C87.2002 36.1 87.2002 36.2 87.2002 36.4C87.4002 38.1 87.9002 39.4 88.9002 41.1C90.4002 43.8 93.2002 45.6 93.2002 45.6L94.5002 43.4C94.5002 43.4 92.7002 42.4 91.3002 40.2C91.0002 39.7 90.7002 39.3 90.5002 38.9C90.3002 38.5 90.2002 38.2 90.1002 37.8C90.1002 37.6 89.9002 37.3 89.9002 37.1C89.9002 36.8 89.9002 36.6 89.8002 36.3V35.8V19.4H87.2002Z" fill="#003477"/>
<path d="M91.0996 19.4V35.8C91.0996 36 91.0996 36.1 91.0996 36.2C91.0996 36.2 91.0996 36.3 91.0996 36.4C91.0996 36.7 91.0996 36.9 91.2996 37.2C91.4996 37.7 91.7996 38.4 92.1996 39.2C93.3996 41.2 95.0996 42.1 95.0996 42.1L96.3996 40C96.3996 40 95.9996 39.8 95.4996 39.2C95.1996 38.9 94.6996 38.4 94.3996 37.9C94.0996 37.3 93.7996 36.8 93.6996 36.4C93.6996 36 93.5996 35.8 93.5996 35.6V19.5H91.0996V19.4Z" fill="#003477"/>
<path d="M115.5 19.4V35.9C115.5 36.1 115.5 36.2 115.5 36.4C115.3 38.1 114.8 39.4 113.8 41.1C112.3 43.8 109.5 45.6 109.5 45.6L108.2 43.4C108.2 43.4 110 42.4 111.4 40.2C111.7 39.7 112 39.3 112.2 38.9C112.4 38.5 112.5 38.2 112.6 37.8C112.6 37.6 112.7 37.3 112.8 37.1C112.8 36.8 112.8 36.6 112.9 36.3V35.8V19.4H115.5Z" fill="#003477"/>
<path d="M111.5 19.4V35.8C111.5 36 111.5 36.1 111.5 36.2C111.5 36.2 111.5 36.3 111.5 36.4C111.5 36.7 111.4 36.9 111.3 37.2C111.1 37.7 110.8 38.4 110.4 39.2C109.2 41.2 107.6 42.1 107.6 42.1L106.3 40C106.3 40 106.7 39.8 107.2 39.2C107.6 38.9 108 38.4 108.3 37.9C108.6 37.3 108.9 36.8 109 36.4C109 36 109.1 35.8 109.1 35.6V19.5H111.6L111.5 19.4Z" fill="#003477"/>
<path d="M16.0996 30.1C15.3996 30.4 14.5996 30.6 13.7996 30.7V32.4H15.8996V33.0999H13.7996V35.0999C14.5996 34.8999 15.3996 34.6 15.9996 34.4V35.2C14.9996 35.6 13.8996 35.9 12.7996 36.2L12.5996 35.5C12.7996 35.5 12.8996 35.5 12.9996 35.5V30.2999C13.9996 30.1999 14.8996 30 15.6996 29.7L16.0996 30.2999V30.1ZM19.3996 34.9C19.3996 35.1 19.3996 35.3 19.1996 35.4C18.9996 35.5 18.8996 35.5999 18.7996 35.5999C18.6996 35.5999 18.3996 35.5999 18.0996 35.5999C17.7996 35.5999 17.6996 35.5999 17.5996 35.5999L17.2996 34.7999C17.4996 34.7999 17.7996 34.7999 18.3996 34.7999C18.9996 34.7999 18.5996 34.7999 18.5996 34.5999V30.4H16.9996V36.4H16.2996V29.7H19.3996V34.7999V34.9Z" fill="black"/>
<path d="M24.8992 31.8H21.7992V32.9C21.7992 34.4 21.5992 35.7 21.2992 36.6L20.6992 36.2C20.9992 35.4 21.0992 34.5 21.0992 33.4V29.7H24.8992V31.8ZM24.1992 31.2V30.4H21.7992V31.2H24.1992ZM24.8992 35.4C24.8992 35.6 24.8992 35.8 24.6992 35.8C24.4992 35.8 24.3992 35.9 24.0992 35.8L23.8992 35.2C23.8992 35.2 23.8992 35.2 23.9992 35.2C24.1992 35.2 24.1992 35.2 24.1992 35V33.4H23.6992V36.3H23.0992V33.4H22.6992V35.8H22.0992V32.7H23.1992V32H23.7992V32.7H24.8992V35.2V35.4ZM26.0992 35H25.3992V30H26.0992V35ZM27.3992 35.8C27.3992 36.1 27.3992 36.3 27.1992 36.4C26.9992 36.4 26.7992 36.5 26.3992 36.5C25.9992 36.5 25.9992 36.5 25.8992 36.5L25.6992 35.8C25.8992 35.8 26.0992 35.8 26.2992 35.8C26.4992 35.8 26.5992 35.8 26.6992 35.8C26.7992 35.8 26.6992 35.8 26.6992 35.6V29.5H27.3992V35.8Z" fill="black"/>
<path d="M21.0996 43H15.1996V42.7H17.9996C17.9996 42.5 17.7996 42.4 17.6996 42.3L17.9996 42.1C18.0996 42.3 18.1996 42.5 18.2996 42.7H20.9996V43H21.0996ZM21.0996 47.4C21.0996 47.7 21.0996 47.9 20.8996 48C20.7996 48.1 20.5996 48.2 20.4996 48.2H18.1996C17.9996 48.2 17.8996 48.2 17.7996 48C17.6996 47.9 17.5996 47.7 17.5996 47.5V47.3L15.0996 47.5V47.2L17.5996 47V46.6L15.4996 46.8V46.5L17.5996 46.3V45.9C17.0996 45.9 16.5996 45.9 15.9996 45.9V45.6C17.3996 45.6 18.7996 45.6 19.7996 45.3L19.9996 45.6C19.3996 45.7 18.6996 45.8 17.8996 45.9V46.3L20.4996 46.1V46.4L17.8996 46.6V47L20.8996 46.8V47.1L17.8996 47.3V47.6C17.8996 47.6 17.8996 47.7 17.8996 47.8C17.8996 47.8 17.9996 47.8 18.0996 47.8H20.1996C20.4996 47.8 20.5996 47.6 20.5996 47.2H20.8996L21.0996 47.4ZM20.9996 45.8H20.5996V45.1H15.5996V45.8H15.1996V44.8H20.9996V45.8ZM20.4996 44.4H15.7996V43.4H20.4996V44.4ZM20.0996 44.1V43.7H16.1996V44.1H20.0996Z" fill="#AA8420" stroke="#AA8420" stroke-width="0.1" stroke-miterlimit="10"/>
<path d="M24.2 45.9C23.8 46.7 23.1 47.4 22.3 48L22 47.7C22.8 47.1 23.4 46.5 23.8 45.7L24.1 45.9H24.2ZM28.1 45H25.3V48.3H24.9V45H22.1V44.6H24.9V42.1H25.3V44.6H28.1V45ZM23.9 44L23.6 44.2C23.4 43.8 23.1 43.3 22.7 42.8L23 42.6C23.4 43.1 23.7 43.5 23.9 44ZM28.1 47.6L27.8 47.9C27.4 47.2 26.8 46.5 26 45.9L26.3 45.7C26.9 46.2 27.5 46.9 28.1 47.7V47.6ZM27.5 42.7C27.2 43.3 26.9 43.8 26.6 44.2L26.2 44C26.5 43.7 26.8 43.2 27.1 42.5L27.4 42.7H27.5Z" fill="#AA8420" stroke="#AA8420" stroke-width="0.1" stroke-miterlimit="10"/>
<path d="M171.4 35.4C170.4 35.8 169.5 36.2 168.7 36.4L168.5 35.8C169.2 35.6 170.1 35.3 171.2 34.8L171.4 35.4ZM171.3 31.1C170.8 32.2 170.2 33.1 169.6 34C169.9 34 170.4 33.7 171 33.5L171.2 34.2C170.4 34.5 169.6 34.8 168.8 35L168.6 34.4C169.1 33.9 169.5 33.3 169.9 32.6C169.5 32.6 169.2 32.8 168.8 32.8L168.6 32.2C169.1 31.5 169.6 30.7 170 29.6L170.6 29.8C170.3 30.6 170 31.3 169.5 31.9C169.7 31.9 170 31.9 170.3 31.7C170.5 31.5 170.6 31.2 170.7 30.8L171.3 31.1ZM175.5 35.1C175.4 36.1 175 36.6 174.5 36.6C174 36.6 174.1 36.6 173.9 36.3C173.7 36.1 173.5 35.9 173.3 35.5C172.7 35.9 172 36.2 171.2 36.6L170.8 36C171.7 35.7 172.4 35.3 173 34.9C172.8 34.4 172.7 33.9 172.6 33.4L171.2 33.6V32.9L172.6 32.7C172.6 32.3 172.6 32 172.6 31.8H171.5C171.5 31.9 171.5 31.3 171.5 31.3H172.6C172.6 31.2 172.6 29.6 172.6 29.6H173.3C173.3 29.9 173.3 30.4 173.3 31.1L175.2 30.9V31.5L173.3 31.8C173.3 32.1 173.3 32.4 173.3 32.7L175.4 32.4V33.1C175.5 33.1 173.3 33.4 173.3 33.4C173.3 33.8 173.4 34.2 173.5 34.6C173.8 34.3 174.1 34 174.5 33.5L175 33.8C174.7 34.3 174.2 34.8 173.8 35.2C173.9 35.4 174.1 35.6 174.2 35.7C174.3 35.8 174.4 35.9 174.5 35.9C174.5 35.9 174.5 35.8 174.6 35.5C174.6 35.3 174.7 35.1 174.7 34.8L175.3 35.1H175.5ZM174.9 30.2L174.5 30.7C174.2 30.4 173.9 30.2 173.5 30.1L173.9 29.6C174.3 29.8 174.6 30 174.9 30.3V30.2Z" fill="black"/>
<path d="M183.5 36.3H176.5V35.6H179.4V29.5H180.1V31.9H183.1V32.6H180.1V35.6H183.5V36.3Z" fill="black"/>
<path d="M183.099 42.2C183.099 42.5 182.899 42.9 182.799 43.2L182.599 43.7V48.2H182.299V44.4C182.099 44.8 181.899 45.1 181.699 45.3L181.399 45C181.999 44.3 182.399 43.3 182.799 42H183.099V42.2ZM187.599 47.7L187.399 48C186.999 47.8 186.499 47.4 185.999 46.9C185.999 47.1 185.999 47.2 185.999 47.3C185.999 47.6 185.999 47.8 185.899 47.9C185.899 48 185.699 48.1 185.599 48.2C185.499 48.2 185.199 48.2 184.899 48.2C184.599 48.2 184.699 48.2 184.599 48.2V47.9C185.099 47.9 185.399 47.9 185.499 47.9C185.599 47.9 185.699 47.7 185.699 47.4C185.699 47.1 185.699 47.1 185.699 46.9C185.099 47.3 184.299 47.7 183.199 48.1L182.999 47.8C184.099 47.5 184.999 47.1 185.599 46.6C185.599 46.6 185.599 46.4 185.399 46.2C184.799 46.6 184.099 47 183.199 47.2L182.999 46.9C183.999 46.6 184.699 46.3 185.299 45.9C185.299 45.8 185.099 45.7 184.999 45.6C184.499 45.9 183.899 46.1 183.099 46.3L182.899 46C183.699 45.9 184.399 45.6 184.999 45.2H183.599V44C183.499 44.1 183.299 44.2 183.199 44.3L182.999 44C183.799 43.4 184.399 42.9 184.699 42.3L184.999 42.5C184.999 42.6 184.899 42.7 184.799 42.8H186.499V43.1C186.299 43.3 186.099 43.6 185.899 43.8H187.199V45.1H185.599C185.499 45.2 185.399 45.3 185.299 45.4C185.499 45.7 185.699 45.9 185.899 46.3C186.299 46.1 186.699 45.8 187.199 45.4L187.499 45.6C187.099 45.9 186.699 46.2 186.199 46.5C186.699 47.1 187.299 47.5 187.799 47.8L187.599 47.7ZM185.999 42.9H184.499C184.199 43.2 183.999 43.4 183.699 43.6H185.399C185.599 43.3 185.899 43.1 185.999 42.9ZM185.199 44.7V44H183.899V44.7H185.199ZM186.799 44.7V44H185.499V44.7H186.799Z" fill="#AA8420" stroke="#AA8420" stroke-width="0.1" stroke-miterlimit="10"/>
<path d="M194.599 44.5H191.699C191.199 44.9 190.699 45.1 190.199 45.3H191.299C191.999 45.3 192.399 45.3 192.399 45.3C192.699 45.2 192.899 45 193.299 44.8L193.599 45C192.399 45.7 191.299 46.2 190.099 46.5C191.299 46.5 192.499 46.5 193.599 46.3C193.399 46.1 193.299 46 193.099 45.8L193.399 45.6C193.899 46 194.299 46.5 194.599 46.9L194.299 47.1C194.099 46.9 193.999 46.7 193.899 46.6C193.199 46.6 192.499 46.7 191.799 46.7V47.7C191.799 47.9 191.799 48 191.599 48.1C191.499 48.1 191.299 48.2 190.899 48.2C190.499 48.2 190.699 48.2 190.699 48.2V47.8C190.699 47.8 190.899 47.8 190.999 47.8C191.199 47.8 191.299 47.8 191.299 47.8C191.299 47.8 191.299 47.8 191.299 47.7V46.7C190.699 46.7 189.899 46.7 188.899 46.7V46.4C189.799 46.2 190.699 45.9 191.599 45.5C191.099 45.5 190.499 45.5 189.899 45.5C189.299 45.5 189.499 45.5 189.399 45.5V45.2C189.899 45 190.499 44.7 190.999 44.4H188.399V44.1H191.299V43.5H189.099V43.2H191.299V42.7H188.699V42.4H191.299V42H191.699V42.4H194.199V42.7H191.699V43.2H193.799V43.5H191.699V44.1H194.499V44.4L194.599 44.5ZM190.599 47.2C190.199 47.5 189.599 47.9 188.799 48.2L188.599 47.9C189.299 47.6 189.899 47.3 190.399 47L190.699 47.3L190.599 47.2ZM194.499 47.9L194.299 48.2C193.799 47.8 193.199 47.5 192.499 47.2L192.699 46.9C193.399 47.2 193.999 47.5 194.499 47.9Z" fill="#AA8420" stroke="#AA8420" stroke-width="0.1" stroke-miterlimit="10"/>
</svg>
