<svg width="417" height="31" viewBox="0 0 417 31" fill="none" xmlns="http://www.w3.org/2000/svg">
<path d="M42.8 30.8H35.5V0.300049H42.8V0.500049H35.7V30.6H42.8V30.8Z" fill="#231815"/>
<path d="M380.4 30.8H373.1V30.6H380.2V0.500049H373.1V0.300049H380.4V30.9V30.8Z" fill="#231815"/>
<path d="M10.5998 22.7999C10.8998 23.0999 10.9998 23.5 10.9998 23.9C10.9998 24.3 10.7998 24.9999 10.2998 25.2999C9.7998 25.6999 9.1998 25.7999 8.3998 25.7999C7.5998 25.7999 6.9998 25.5999 6.4998 25.2999C5.9998 24.9999 5.7998 24.5 5.7998 23.9C5.7998 23.3 5.8998 23.0999 6.1998 22.7999C6.4998 22.4999 6.7998 22.3 7.2998 22.2C6.8998 22.1 6.4998 21.9 6.2998 21.6C6.0998 21.3 5.9998 21 5.9998 20.6C5.9998 20.2 6.0998 19.9 6.2998 19.6C6.4998 19.3 6.7998 19.1 7.0998 18.9C7.3998 18.7 7.8998 18.7 8.3998 18.7C8.8998 18.7 9.2998 18.7 9.5998 18.9C9.9998 19.1 10.2998 19.3 10.3998 19.6C10.5998 19.9 10.6998 20.2 10.6998 20.6C10.6998 21 10.5998 21.3 10.2998 21.6C10.0998 21.9 9.6998 22.1 9.2998 22.2C9.7998 22.3 10.0998 22.5 10.3998 22.9L10.5998 22.7999ZM9.6998 24.7999C9.9998 24.5999 10.0998 24.1999 10.0998 23.7999C10.0998 23.3999 9.8998 23.1 9.5998 22.9C9.2998 22.7 8.8998 22.5 8.2998 22.5C7.7998 22.5 7.3998 22.7 6.9998 22.9C6.6998 23.1 6.4998 23.3999 6.4998 23.7999C6.4998 24.1999 6.6998 24.5999 6.9998 24.7999C7.2998 24.9999 7.6998 25.1 8.2998 25.1C8.8998 25.1 9.2998 24.9999 9.5998 24.7999H9.6998ZM7.2998 21.5C7.5998 21.7 7.9998 21.9 8.3998 21.9C8.8998 21.9 9.2998 21.7 9.4998 21.5C9.7998 21.3 9.8998 21 9.8998 20.6C9.8998 20.2 9.7998 19.9 9.4998 19.7C9.1998 19.5 8.7998 19.4 8.3998 19.4C7.9998 19.4 7.4998 19.5 7.2998 19.7C6.9998 19.9 6.8998 20.2 6.8998 20.6C6.8998 21 6.9998 21.3 7.2998 21.5Z" fill="#AA8420"/>
<path d="M389.9 23.7999H388.8V25.4H388V23.7999H384.7V23.2L388.1 18.2H388.8V23.1H389.9V23.7999ZM388 23.2V19.7L385.6 23.2H388Z" fill="#AA8420"/>
<path d="M391.4 24.5C391 23.9 390.8 22.9999 390.8 21.7999C390.8 20.5999 391 19.7 391.4 19.1C391.8 18.5 392.4 18.2 393.2 18.2C394 18.2 394.6 18.5 395.1 19.1C395.5 19.7 395.7 20.5999 395.7 21.7999C395.7 22.9999 395.5 23.9 395.1 24.5C394.7 25.1 394.1 25.4 393.2 25.4C392.3 25.4 391.8 25.1 391.4 24.5ZM394.5 24C394.8 23.5 394.9 22.7999 394.9 21.7999C394.9 20.7999 394.8 20 394.5 19.6C394.2 19.1 393.8 18.9 393.2 18.9C392.6 18.9 392.2 19.1 392 19.6C391.8 20.1 391.6 20.7999 391.6 21.7999C391.6 22.7999 391.7 23.6 392 24C392.3 24.5 392.7 24.7 393.2 24.7C393.7 24.7 394.2 24.5 394.4 24H394.5Z" fill="#AA8420"/>
<path d="M67.4996 6.5C67.5996 6.3 67.6996 6 67.6996 6H59.0996C59.0996 6 59.1996 6.3 59.2996 6.5H67.4996Z" fill="#A68238"/>
<path d="M67.0004 7.20005C67.2004 7.10005 67.3004 6.80005 67.3004 6.80005H59.4004C59.4004 6.80005 59.4004 7.00005 59.7004 7.20005H67.0004Z" fill="#A68238"/>
<path d="M66.3 7.9001C66.5 7.8001 66.7 7.6001 66.7 7.6001H60C60 7.6001 60.2 7.8001 60.3 7.9001H66.4H66.3Z" fill="#A68238"/>
<path d="M65.6002 8.50005C65.8002 8.50005 66.0002 8.30005 66.0002 8.30005H60.7002C60.7002 8.30005 60.7002 8.30005 61.1002 8.50005H65.6002Z" fill="#A68238"/>
<path d="M61.7002 8.8999C61.7002 8.8999 62.2002 9.1999 63.3002 9.1999C64.4002 9.1999 65.1002 8.8999 65.1002 8.8999H61.7002Z" fill="#A68238"/>
<path d="M61.6002 9.6C61.6002 9.6 62.3002 9.6 62.7002 9.9C63.1002 10.2 63.4002 10.8 63.4002 10.8C63.4002 10.8 63.6002 10.3 64.0002 10C64.4002 9.7 65.0002 9.6 65.0002 9.6H71.8002L73.1002 11.6H67.0002C67.0002 11.6 66.6002 11.6 65.9002 12C65.6002 12.2 65.3002 12.5 65.3002 12.5C65.3002 12.5 65.3002 12.7 65.2002 12.7C65.1002 12.7 65.1002 12.9 65.0002 12.9H61.8002C61.8002 12.9 61.7002 12.9 61.6002 12.7C61.6002 12.6 61.6002 12.7 61.6002 12.5C61.6002 12.5 61.4002 12.2 60.9002 11.9C60.4002 11.6 59.9002 11.5 59.9002 11.5H53.7002L55.0002 9.5H61.7002L61.6002 9.6Z" fill="#003873"/>
<path d="M56.7998 12.3999V22.4999C56.7998 22.4999 56.7998 23.3999 57.5998 24.5999C58.3998 25.7999 59.3998 26.3999 59.3998 26.3999L60.2998 25.0999C60.2998 25.0999 59.4998 24.6999 58.9998 23.7999C58.4998 22.8999 58.4998 22.1999 58.4998 22.1999V12.3999H56.8998H56.7998Z" fill="#003873"/>
<path d="M68.3 12.3999V22.1999C68.3 22.1999 68.2 23.1999 67.7 23.8999C67.2 24.5999 66.5 25.1999 66.5 25.1999L67.3 26.4999C67.3 26.4999 68.5 25.5999 69.1 24.5999C69.7 23.5999 69.9 22.1999 69.9 22.1999V12.3999H68.3Z" fill="#003873"/>
<path d="M54.2998 12.3999V22.5999C54.2998 22.5999 54.3998 24.1999 55.3998 25.7999C56.3998 27.3999 58.1998 28.5999 58.1998 28.5999L58.9998 27.2999C58.9998 27.2999 57.8998 26.6999 56.9998 25.2999C56.0998 23.8999 55.9998 22.5999 55.9998 22.5999V12.4999H54.2998V12.3999Z" fill="#003873"/>
<path d="M61.6004 13.4999V24.1999C61.6004 24.1999 61.6004 24.1999 61.6004 24.3999C61.6004 24.5999 61.5004 24.6999 61.5004 24.6999L57.9004 30.5999H68.9004L65.3004 24.4999V24.1999C65.2004 24.1999 65.1004 23.8999 65.1004 23.8999V13.3999H63.8004V24.2999C63.8004 24.2999 63.8004 24.3999 63.8004 24.5999C63.8004 24.6999 63.9004 24.8999 63.9004 24.8999L66.1004 28.4999H60.5004L62.7004 24.8999C62.7004 24.8999 62.7004 24.7999 62.8004 24.5999C62.8004 24.3999 62.8004 24.2999 62.8004 24.2999V13.3999H61.5004L61.6004 13.4999Z" fill="#A68238"/>
<path d="M70.7998 12.4V22.4C70.7998 22.4 70.7998 23.7 69.7998 25.2C68.8998 26.7 67.7998 27.3 67.7998 27.3L68.5998 28.6C68.5998 28.6 70.1998 27.6 71.2998 25.9C72.2998 24.3 72.3998 22.3 72.3998 22.3V12.3H70.7998V12.4Z" fill="#003873"/>
<path d="M59 5.70005C59 5.70005 58.5 2.70005 60.7 1.20005C60.7 1.20005 61.7 0.300049 63.3 0.300049C64.9 0.300049 66 1.20005 66 1.20005C68.4 3.00005 67.7 5.70005 67.7 5.70005H59Z" fill="#A68238"/>
<path d="M79.5004 24H81.2004V30.5H82.1004V24H83.8004V23.2H79.4004V24H79.5004Z" fill="#003477"/>
<path d="M88.9996 26.1H85.4996V23.2H84.5996V30.5H85.4996V27H88.9996V30.5H89.8996V23.2H88.9996V26.1Z" fill="#003477"/>
<path d="M91.2998 30.5H95.1998V29.7001H92.1998V26.9H95.0998V26.1H92.1998V24.1H95.1998V23.3H91.2998V30.6V30.5Z" fill="#003477"/>
<path d="M103.6 26.1H100.1V23.2H99.2002V30.5H100.1V27H103.6V30.5H104.5V23.2H103.6V26.1Z" fill="#003477"/>
<path d="M109.3 23C107.2 23 105.5 24.7 105.5 26.8C105.5 28.9 107.2 30.6 109.3 30.6C111.4 30.6 113.1 29 113.1 26.8C113.1 24.6 111.4 23 109.3 23ZM109.3 29.8C107.7 29.8 106.4 28.5 106.4 26.8C106.4 25.1 107.6 23.9 109.3 23.9C111 23.9 112.2 25.2 112.2 26.8C112.2 28.4 110.9 29.8 109.3 29.8Z" fill="#003477"/>
<path d="M119.5 28.5999L114 22.8999V30.4999H114.9V25.0999L120.4 30.7999V23.1999H119.5V28.5999Z" fill="#003477"/>
<path d="M125.5 27.6H127.4C127.4 28.8 126.1 29.8 125 29.8C123.9 29.8 122.2 28.3 122.2 26.8C122.2 25.3 123.5 23.8 125.1 23.8C126.7 23.8 126.9 24.3 127.4 25L128 24.4C127.3 23.5 126.2 23 125 23C122.9 23 121.2 24.7 121.2 26.8C121.2 28.9 122.8 30.6 124.9 30.6C127 30.6 128.3 29.1 128.3 27.1V26.8H125.4V27.6H125.5Z" fill="#003477"/>
<path d="M137.4 23.2H136.2L133.1 26.4V23.2H132.2V30.5H133.1V27.5L133.5 27.2L136.2 30.6H137.4L134.1 26.6L137.4 23.2999V23.2Z" fill="#003477"/>
<path d="M141.5 23C139.4 23 137.7 24.7 137.7 26.8C137.7 28.9 139.4 30.6 141.5 30.6C143.6 30.6 145.3 29 145.3 26.8C145.3 24.6 143.6 23 141.5 23ZM141.5 29.8C139.9 29.8 138.6 28.5 138.6 26.8C138.6 25.1 139.8 23.9 141.5 23.9C143.2 23.9 144.4 25.2 144.4 26.8C144.4 28.4 143.1 29.8 141.5 29.8Z" fill="#003477"/>
<path d="M151.6 28.5999L146.1 22.8999V30.4999H147V25.0999L152.5 30.7999V23.1999H151.6V28.5999Z" fill="#003477"/>
<path d="M157.7 27.6H159.6C159.6 28.8 158.3 29.8 157.2 29.8C156.1 29.8 154.4 28.3 154.4 26.8C154.4 25.3 155.7 23.8 157.3 23.8C158.9 23.8 159.1 24.3 159.6 25L160.2 24.4C159.5 23.5 158.4 23 157.2 23C155.1 23 153.4 24.7 153.4 26.8C153.4 28.9 155 30.6 157.1 30.6C159.2 30.6 160.5 29.1 160.5 27.1V26.8H157.6V27.6H157.7Z" fill="#003477"/>
<path d="M168.8 27.5C168.8 28.7 168.4 29.7999 167 29.7999C165.6 29.7999 165.2 28.7 165.2 27.5V23.2H164.3V27.7999C164.3 29.3999 165.3 30.6 167 30.6C168.7 30.6 169.7 29.3999 169.7 27.7999V23.2H168.8V27.5Z" fill="#003477"/>
<path d="M176.4 28.5999L170.9 22.8999V30.4999H171.8V25.0999L177.3 30.7999V23.1999H176.4V28.5999Z" fill="#003477"/>
<path d="M179.6 23.2H178.7V30.5H179.6V23.2Z" fill="#003477"/>
<path d="M183.4 28.6L181.2 23.2H180.2L183.4 30.9L186.6 23.2H185.6L183.4 28.6Z" fill="#003477"/>
<path d="M187.3 30.5H191.2V29.7001H188.2V26.9H191.1V26.1H188.2V24.1H191.2V23.3H187.3V30.6V30.5Z" fill="#003477"/>
<path d="M196.4 25.3C196.4 24.6 196 23.9 195.4 23.6C194.8 23.3 194.1 23.3 193.5 23.3H192.4V30.6H193.3V27.5H193.7L195.8 30.6H196.9L194.6 27.4C195.7 27.3 196.4 26.4 196.4 25.4V25.3ZM193.6 26.6H193.3V24H193.5C194.4 24 195.5 24.2 195.5 25.3C195.5 26.4 194.5 26.6 193.6 26.6Z" fill="#003477"/>
<path d="M200.2 26.2L199.7 26C199.2 25.8 198.7 25.5 198.7 25C198.7 24.5 199.3 24 199.9 24C200.5 24 200.8 24.2 201.1 24.7L201.8 24.2999C201.4 23.5999 200.7 23.2 199.9 23.2C199.1 23.2 197.7 23.9 197.7 25.1C197.7 26.3 198.5 26.6 199.3 27L199.8 27.2C200.4 27.5 201.1 27.8 201.1 28.6C201.1 29.4 200.5 30 199.8 30C199.1 30 198.4 29.4 198.4 28.6L197.5 28.7999C197.6 29.9999 198.6 30.7999 199.7 30.7999C200.8 30.7999 202 29.8 202 28.5C202 27.2 201.2 26.6999 200.2 26.2999V26.2Z" fill="#003477"/>
<path d="M203.9 23.2H203V30.5H203.9V23.2Z" fill="#003477"/>
<path d="M204.7 24H206.4V30.5H207.3V24H209V23.2H204.6V24H204.7Z" fill="#003477"/>
<path d="M212 26.2999L210.2 23.2H209.2L211.6 27.2999V30.5H212.5V27.2999L214.9 23.2H213.8L212 26.2999Z" fill="#003477"/>
<path d="M221.7 23C219.6 23 217.9 24.7 217.9 26.8C217.9 28.9 219.6 30.6 221.7 30.6C223.8 30.6 225.5 29 225.5 26.8C225.5 24.6 223.8 23 221.7 23ZM221.7 29.8C220.1 29.8 218.8 28.5 218.8 26.8C218.8 25.1 220 23.9 221.7 23.9C223.4 23.9 224.6 25.2 224.6 26.8C224.6 28.4 223.3 29.8 221.7 29.8Z" fill="#003477"/>
<path d="M226.5 30.5H227.4V26.9H229.9V26.1H227.4V24.1H230V23.3H226.5V30.6V30.5Z" fill="#003477"/>
<path d="M236.5 26.2L236 26C235.6 25.8 235 25.5 235 25C235 24.5 235.6 24 236.2 24C236.8 24 237.1 24.2 237.4 24.7L238.1 24.2999C237.7 23.5999 237 23.2 236.2 23.2C235.4 23.2 234.1 23.9 234.1 25.1C234.1 26.3 234.9 26.6 235.7 27L236.2 27.2C236.8 27.5 237.5 27.8 237.5 28.6C237.5 29.4 236.9 30 236.2 30C235.5 30 234.8 29.4 234.8 28.6L233.9 28.7999C234.1 29.9999 235 30.7999 236.1 30.7999C237.2 30.7999 238.4 29.8 238.4 28.5C238.4 27.2 237.6 26.6999 236.6 26.2999L236.5 26.2Z" fill="#003477"/>
<path d="M238.9 26.9001C238.9 29.0001 240.6 30.7001 242.7 30.7001C244.8 30.7001 244.1 30.5001 244.6 30.2001V29.1001C244.1 29.6001 243.4 29.9001 242.7 29.9001C241.1 29.9001 239.8 28.5001 239.8 26.9001C239.8 25.3001 241 23.9001 242.7 23.9001C244.4 23.9001 244.1 24.1001 244.6 24.6001V23.6001C244 23.3001 243.4 23.1001 242.8 23.1001C240.7 23.1001 238.9 24.8001 238.9 26.9001Z" fill="#003477"/>
<path d="M246.7 23.2H245.8V30.5H246.7V23.2Z" fill="#003477"/>
<path d="M248.2 30.5H252.1V29.7001H249.1V26.9H252V26.1H249.1V24.1H252.1V23.3H248.2V30.6V30.5Z" fill="#003477"/>
<path d="M258.7 28.5999L253.2 22.8999V30.4999H254.1V25.0999L259.6 30.7999V23.1999H258.7V28.5999Z" fill="#003477"/>
<path d="M260.6 26.9001C260.6 29.0001 262.3 30.7001 264.4 30.7001C266.5 30.7001 265.8 30.5001 266.3 30.2001V29.1001C265.8 29.6001 265.1 29.9001 264.4 29.9001C262.8 29.9001 261.5 28.5001 261.5 26.9001C261.5 25.3001 262.7 23.9001 264.4 23.9001C266.1 23.9001 265.8 24.1001 266.3 24.6001V23.6001C265.7 23.3001 265.1 23.1001 264.5 23.1001C262.4 23.1001 260.6 24.8001 260.6 26.9001Z" fill="#003477"/>
<path d="M267.5 30.5H271.4V29.7001H268.4V26.9H271.3V26.1H268.4V24.1H271.4V23.3H267.5V30.6V30.5Z" fill="#003477"/>
<path d="M274.7 30.4999H275.7L276.5 28.6999H279.8L280.6 30.4999H281.6L278.1 22.8999L274.6 30.4999H274.7ZM276.9 27.7999L278.2 24.7999L279.5 27.7999H276.9Z" fill="#003477"/>
<path d="M287.7 28.5999L282.2 22.8999V30.4999H283.1V25.0999L288.6 30.7999V23.1999H287.7V28.5999Z" fill="#003477"/>
<path d="M291.5 23.2H290V30.5H291.5C293.8 30.5 295.6 29.2999 295.6 26.7999C295.6 24.2999 293.7 23.2 291.5 23.2ZM291.2 29.6H290.9V24H291.2C293.1 24 294.7 24.6999 294.7 26.7999C294.7 28.8999 293.1 29.6 291.2 29.6Z" fill="#003477"/>
<path d="M298.8 24H300.5V30.5H301.4V24H303.1V23.2H298.7V24H298.8Z" fill="#003477"/>
<path d="M304 30.5H307.9V29.7001H304.9V26.9H307.8V26.1H304.9V24.1H307.9V23.3H304V30.6V30.5Z" fill="#003477"/>
<path d="M308.7 26.9001C308.7 29.0001 310.4 30.7001 312.5 30.7001C314.6 30.7001 313.8 30.5001 314.4 30.2001V29.1001C313.9 29.6001 313.2 29.9001 312.5 29.9001C310.9 29.9001 309.6 28.5001 309.6 26.9001C309.6 25.3001 310.8 23.9001 312.5 23.9001C314.2 23.9001 313.9 24.1001 314.4 24.6001V23.6001C313.8 23.3001 313.2 23.1001 312.6 23.1001C310.5 23.1001 308.7 24.8001 308.7 26.9001Z" fill="#003477"/>
<path d="M319.9 26.1H316.4V23.2H315.5V30.5H316.4V27H319.9V30.5H320.8V23.2H319.9V26.1Z" fill="#003477"/>
<path d="M327.6 28.5999L322.1 22.8999V30.4999H323V25.0999L328.5 30.7999V23.1999H327.6V28.5999Z" fill="#003477"/>
<path d="M333.2 23C331.1 23 329.4 24.7 329.4 26.8C329.4 28.9 331.1 30.6 333.2 30.6C335.3 30.6 337 29 337 26.8C337 24.6 335.3 23 333.2 23ZM333.2 29.8C331.6 29.8 330.3 28.5 330.3 26.8C330.3 25.1 331.5 23.9 333.2 23.9C334.9 23.9 336.1 25.2 336.1 26.8C336.1 28.4 334.8 29.8 333.2 29.8Z" fill="#003477"/>
<path d="M338.9 23.2H338V30.5H341.1V29.7H338.9V23.2Z" fill="#003477"/>
<path d="M345.1 23C343 23 341.3 24.7 341.3 26.8C341.3 28.9 343 30.6 345.1 30.6C347.2 30.6 348.9 29 348.9 26.8C348.9 24.6 347.2 23 345.1 23ZM345.1 29.8C343.5 29.8 342.2 28.5 342.2 26.8C342.2 25.1 343.4 23.9 345.1 23.9C346.8 23.9 348 25.2 348 26.8C348 28.4 346.7 29.8 345.1 29.8Z" fill="#003477"/>
<path d="M353.6 27.6H355.5C355.5 28.8 354.2 29.8 353.1 29.8C352 29.8 350.3 28.3 350.3 26.8C350.3 25.3 351.6 23.8 353.2 23.8C354.8 23.8 355 24.3 355.5 25L356.1 24.4C355.4 23.5 354.3 23 353.1 23C351 23 349.3 24.7 349.3 26.8C349.3 28.9 350.9 30.6 353 30.6C355.1 30.6 356.5 29.1 356.5 27.1V26.8H353.6V27.6Z" fill="#003477"/>
<path d="M361.4 23.2L359.6 26.2999L357.8 23.2H356.8L359.2 27.2999V30.5H360.1V27.2999L362.5 23.2H361.5H361.4Z" fill="#003477"/>
<path d="M79.7 15.4C80.1 15.3 80.4 15.2 80.5 15.1V19.4H81.4V18.9H86.3V19.4H87.2V15.1C87.3 15.1 87.5 15.2 87.6 15.3C87.8 15.3 87.9 15.4 88 15.5L88.4 14.6C87 14.3 85.9 13.8 85.1 13.1H88.3V12.3H84.1V11.5C85.4 11.4 86.5 11.2 87.5 11L87.1 10.2C85.7 10.5 83.7 10.7 81.1 10.7C78.5 10.7 80.1 10.7 79.7 10.7L80 11.6C80.7 11.6 81.7 11.6 83.2 11.6V12.4H79.1V13.2H82.2C81.3 14 80.3 14.5 79 14.8L79.5 15.7L79.7 15.4ZM86.4 18.1H81.5V17.2H86.4V18.1ZM84.4 13C85 13.8 85.8 14.4 86.9 14.8H84.4V13ZM86.4 15.6V16.4H81.5V15.6H86.4ZM83.4 13V14.8H81.1C82 14.4 82.8 13.8 83.4 13Z" fill="#003477"/>
<path d="M98.5004 13.8C98.0004 13.4 97.5004 13.1 97.0004 12.8L96.4004 13.5C96.8004 13.8 97.2004 14.1 97.8004 14.6L98.5004 13.8Z" fill="#003477"/>
<path d="M104.3 17.9C104.3 18.1 104.1 18.2 103.8 18.2H100.9C100.7 18.2 100.5 18.1 100.5 17.9V17.3H103.7V15.3C104.1 15.7 104.6 16 105.2 16.4L105.6 15.5C104.5 15 103.9 14.4 103.6 13.9H105.5V13.1H103.7V12.1H105.3V11.3H103.7V10.3H102.8V11.3H101V10.3H100.1V11.3H98.8002C98.4002 11.1 97.9002 10.8 97.4002 10.5L96.7002 11.2C97.1002 11.5 97.6002 11.9 98.2002 12.4L98.8002 11.6V12.1H100.1V13.1H98.6002V13.9H100.2C99.9002 14.5 99.2002 15.1 98.1002 15.6L98.7002 16.4C99.1002 16.1 99.4002 15.9 99.6002 15.8V18C99.6002 18.5 99.6002 18.8 99.8002 18.9C100 19.1 100.3 19.1 100.7 19.1H103.9C104.4 19.1 104.7 19.1 104.9 18.8C105.1 18.6 105.2 18.1 105.3 17.1L104.4 16.7C104.4 17.2 104.4 17.6 104.2 17.8L104.3 17.9ZM101 11.9H102.8V12.9H101V11.9ZM101.2 13.7H102.5C102.7 14.1 102.9 14.4 103.1 14.6H100.6C100.8 14.3 101 14 101.2 13.7ZM100.5 15.4H102.8V16.4H100.5V15.4Z" fill="#003477"/>
<path d="M96.4004 18.4L97.2004 19.2C97.8004 18.3 98.2004 17.3 98.5004 16.2L97.6004 15.7C97.4004 16.6 97.0004 17.5 96.4004 18.3V18.4Z" fill="#003477"/>
<path d="M120.4 14.3001C119.7 13.7001 119.1 13.3001 118.6 13.1001L118 13.8001C118.5 14.1001 119.1 14.6001 119.8 15.1001L120.4 14.3001Z" fill="#003477"/>
<path d="M120.6 11.9C119.8 11.3 119.2 10.9 118.8 10.7L118.2 11.4C118.7 11.7 119.3 12.1 120 12.7L120.6 12V11.9Z" fill="#003477"/>
<path d="M115.3 19.3H116.2V14.6C116.4 14.8 116.6 15.1 116.7 15.3C116.9 15.5 117.1 15.8 117.3 16.1L117.9 15.2C117.5 14.8 117 14.2 116.2 13.5H117.7V12.6H116.2V11.2C116.7 11.1 117.2 11 117.7 10.8L117.4 10C116.3 10.4 115.1 10.6 113.6 10.7L113.8 11.5C114.5 11.5 115 11.4 115.3 11.3V12.5H113.4V13.4H115.2C114.8 14.5 114.2 15.5 113.3 16.5L113.9 17.4C114.6 16.6 115 15.8 115.3 15.2V19.3Z" fill="#003477"/>
<path d="M121.8 19.2999V16.3999H122.7V15.2999H121.8C121.8 15.3999 121.8 9.8999 121.8 9.8999H120.9V15.5999L117.6 16.0999V16.9999L120.9 16.4999V19.1999H121.8V19.2999Z" fill="#003477"/>
<path d="M133 18.0999V15.6999C133.6 15.4999 134 15.3999 134.2 15.1999V14.1999C134 14.2999 133.6 14.4999 133 14.5999V12.7999H134.2V12.1999H136.3V13.4999H134.3V14.3999H138.2C137.9 15.1999 137.4 15.8999 136.8 16.4999C136.3 15.9999 135.9 15.3999 135.4 14.5999L134.6 14.8999C135.1 15.7999 135.6 16.4999 136.1 16.9999C135.2 17.5999 134.2 18.0999 133.2 18.2999L133.8 19.1999C134.7 18.9999 135.7 18.4999 136.8 17.6999C137.6 18.3999 138.4 18.8999 139.3 19.1999L139.8 18.2999C139 18.0999 138.2 17.6999 137.6 17.0999C138 16.7999 138.3 16.2999 138.7 15.6999C139.1 15.0999 139.3 14.6999 139.4 14.2999V13.4999H137.4V12.1999H139.7V11.2999H137.4V9.8999H136.4V11.2999H134.3V11.8999H133.1V9.8999H132.1V11.8999H130.6V12.7999H132.1V14.7999C131.6 14.8999 131.1 14.9999 130.5 15.0999L130.7 16.1999C131 16.1999 131.5 15.9999 132 15.8999V17.8999C132 18.0999 131.9 18.1999 131.7 18.1999H130.8L131 19.1999H131.8C132.3 19.1999 132.6 19.1999 132.7 18.9999C132.8 18.8999 132.9 18.4999 132.9 18.0999H133Z" fill="#003477"/>
<path d="M147.5 18.4001L148.3 19.3001C150.5 17.8001 151.9 15.9001 152.3 13.5001H152.5C153.2 16.2001 154.4 18.1001 156.2 19.3001L157 18.4001C156 17.7001 155.2 17.0001 154.7 16.1001C154.1 15.2001 153.8 14.4001 153.6 13.6001H156.8V12.6001H152.6C152.6 12.1001 152.6 11.3001 152.6 10.1001H151.6C151.6 11.2001 151.6 12.0001 151.5 12.6001H147.9V13.7001H151.3C151.1 14.6001 150.7 15.5001 150.1 16.4001C149.4 17.3001 148.6 18.0001 147.7 18.5001L147.5 18.4001Z" fill="#003477"/>
<path d="M173.6 16.1H169.8V15.8C170.7 15.4 171.5 15.1 172.2 14.7V13.8H166.4V14.7H170.7C170 15 169.4 15.3 168.7 15.5V16.2H164.9V17.1H168.7V18.4C168.7 18.6 168.6 18.6 168.4 18.6C168 18.6 167.7 18.6 167.4 18.6L167.6 19.5H169C169.2 19.5 169.4 19.5 169.6 19.2C169.7 19.1 169.8 18.9 169.8 18.7V17.1H173.6V16.2V16.1Z" fill="#003477"/>
<path d="M167.6 11.6C167.3 11.1 167 10.7 166.7 10.3L165.9 10.7C166.2 11.1 166.5 11.6 166.7 12.1L167.6 11.7V11.6Z" fill="#003477"/>
<path d="M169.9 11.3999C169.6 10.8999 169.4 10.3999 169.1 9.8999L168.3 10.2999C168.6 10.6999 168.8 11.1999 169.1 11.7999L170 11.3999H169.9Z" fill="#003477"/>
<path d="M165.7 12.9999H172.9V14.1999H173.9V12.0999H171.9C172.2 11.5999 172.5 10.9999 172.8 10.2999L171.7 9.8999C171.4 10.7999 171.1 11.5999 170.7 12.0999H164.7V14.1999H165.7V12.9999Z" fill="#003477"/>
<path d="M16.0996 7.49985C15.3996 7.79985 14.5996 7.99985 13.7996 8.09985V9.79985H15.8996V10.4999H13.7996V12.4999C14.5996 12.2999 15.3996 11.9999 15.9996 11.7999V12.5999C14.9996 12.9999 13.8996 13.2999 12.7996 13.5999L12.5996 12.8999C12.7996 12.8999 12.8996 12.8999 12.9996 12.8999V7.69985C13.9996 7.59985 14.8996 7.39985 15.6996 7.09985L16.0996 7.69985V7.49985ZM19.3996 12.2999C19.3996 12.4999 19.3996 12.6999 19.1996 12.7999C18.9996 12.8999 18.8996 12.9999 18.7996 12.9999C18.5996 12.9999 18.3996 12.9999 18.0996 12.9999C17.7996 12.9999 17.6996 12.9999 17.5996 12.9999L17.2996 12.1999C17.4996 12.1999 17.7996 12.1999 18.3996 12.1999C18.9996 12.1999 18.5996 12.1999 18.5996 11.9999V7.79985H16.9996V13.7999H16.2996V7.09985H19.3996V12.1999V12.2999Z" fill="black"/>
<path d="M24.8992 9.1999H21.7992V10.2999C21.7992 11.7999 21.5992 13.0999 21.2992 13.9999L20.6992 13.5999C20.9992 12.7999 21.0992 11.8999 21.0992 10.7999V7.0999H24.8992V9.1999ZM24.1992 8.5999V7.7999H21.7992V8.5999H24.1992ZM24.8992 12.7999C24.8992 12.9999 24.8992 13.1999 24.6992 13.1999C24.4992 13.1999 24.3992 13.2999 24.0992 13.1999L23.8992 12.5999C23.8992 12.5999 23.8992 12.5999 23.9992 12.5999C24.1992 12.5999 24.1992 12.5999 24.1992 12.3999V10.7999H23.6992V13.6999H23.0992V10.7999H22.6992V13.1999H22.0992V10.0999H23.1992V9.3999H23.7992V10.0999H24.8992V12.5999V12.7999ZM26.0992 12.4999H25.3992V7.4999H26.0992V12.4999ZM27.3992 13.1999C27.3992 13.4999 27.3992 13.6999 27.1992 13.7999C26.9992 13.7999 26.7992 13.8999 26.3992 13.8999C25.9992 13.8999 25.9992 13.8999 25.8992 13.8999L25.6992 13.1999C25.8992 13.1999 26.0992 13.1999 26.2992 13.1999C26.4992 13.1999 26.5992 13.1999 26.6992 13.1999C26.6992 13.1999 26.6992 13.1999 26.6992 12.9999V6.8999H27.3992V13.1999Z" fill="black"/>
<path d="M20.5996 20.4999H14.6996V20.1999H17.4996C17.4996 19.9999 17.2996 19.8999 17.1996 19.7999L17.4996 19.5999C17.5996 19.7999 17.6996 19.9999 17.7996 20.1999H20.4996V20.4999H20.5996ZM20.5996 24.8999C20.5996 25.1999 20.5996 25.3999 20.3996 25.4999C20.2996 25.5999 20.0996 25.6999 19.9996 25.6999H17.6996C17.4996 25.6999 17.3996 25.6999 17.2996 25.4999C17.1996 25.3999 17.0996 25.1999 17.0996 24.9999V24.7999L14.5996 24.9999V24.6999L17.0996 24.4999V24.0999L14.9996 24.2999V23.9999L17.0996 23.7999V23.3999C16.5996 23.3999 16.0996 23.3999 15.4996 23.3999V23.0999C16.8996 23.0999 18.2996 23.0999 19.2996 22.7999L19.4996 23.0999C18.8996 23.1999 18.1996 23.2999 17.3996 23.3999V23.7999L19.9996 23.5999V23.8999L17.3996 24.0999V24.4999L20.3996 24.2999V24.5999L17.3996 24.7999V25.0999C17.3996 25.0999 17.3996 25.1999 17.3996 25.2999C17.3996 25.2999 17.4996 25.2999 17.5996 25.2999H19.6996C19.9996 25.2999 20.0996 25.0999 20.0996 24.6999H20.3996L20.5996 24.8999ZM20.4996 23.2999H20.0996V22.5999H15.0996V23.2999H14.6996V22.2999H20.4996V23.2999ZM19.8996 21.8999H15.1996V20.8999H19.8996V21.8999ZM19.5996 21.5999V21.1999H15.6996V21.5999H19.5996Z" fill="#AA8420" stroke="#AA8420" stroke-width="0.1" stroke-miterlimit="10"/>
<path d="M23.7 23.3999C23.3 24.1999 22.6 24.8999 21.8 25.4999L21.5 25.1999C22.3 24.5999 22.9 23.9999 23.3 23.1999L23.6 23.3999H23.7ZM27.6 22.4999H24.8V25.7999H24.4V22.4999H21.6V22.0999H24.4V19.5999H24.8V22.0999H27.6V22.4999ZM23.3 21.4999L23 21.6999C22.8 21.2999 22.5 20.7999 22.1 20.2999L22.4 20.0999C22.8 20.5999 23.1 20.9999 23.3 21.4999ZM27.6 25.0999L27.3 25.3999C26.9 24.6999 26.3 23.9999 25.5 23.3999L25.8 23.1999C26.4 23.6999 27 24.3999 27.6 25.1999V25.0999ZM27 20.1999C26.7 20.7999 26.4 21.2999 26.1 21.6999L25.7 21.4999C26 21.1999 26.3 20.6999 26.6 19.9999L26.9 20.1999H27Z" fill="#AA8420" stroke="#AA8420" stroke-width="0.1" stroke-miterlimit="10"/>
<path d="M387.7 12.6C386.7 13 385.8 13.4 385 13.6L384.8 13C385.5 12.8 386.4 12.5 387.5 12L387.7 12.6ZM387.6 8.30005C387.1 9.40005 386.5 10.3 385.9 11.2C386.2 11.2 386.7 10.9 387.3 10.7L387.5 11.4C386.7 11.7 385.9 12 385.1 12.2L384.9 11.6C385.4 11.1 385.8 10.5 386.2 9.80005C385.8 9.80005 385.5 10 385.1 10L384.9 9.40005C385.4 8.70005 385.9 7.90005 386.3 6.80005L386.9 7.00005C386.6 7.80005 386.3 8.50005 385.8 9.10005C386 9.10005 386.3 9.10005 386.6 8.90005C386.8 8.70005 386.9 8.40005 387 8.00005L387.6 8.30005ZM391.9 12.3C391.8 13.3 391.4 13.8 390.9 13.8C390.4 13.8 390.5 13.8 390.3 13.5C390.1 13.3 389.9 13.1 389.7 12.7C389.1 13.1 388.4 13.4 387.6 13.8L387.2 13.2C388.1 12.9 388.8 12.5 389.4 12.1C389.2 11.6 389.1 11.1 389 10.6L387.6 10.8V10.1L389 9.90005C389 9.50005 389 9.20005 389 9.00005H387.9C387.9 9.10005 387.9 8.50005 387.9 8.50005H389C389 8.40005 389 6.80005 389 6.80005H389.7C389.7 7.10005 389.7 7.60005 389.7 8.30005L391.6 8.10005V8.70005L389.7 9.00005C389.7 9.30005 389.7 9.60005 389.7 9.90005L391.8 9.60005V10.3C391.9 10.3 389.7 10.6 389.7 10.6C389.7 11 389.8 11.4 389.9 11.8C390.2 11.5 390.5 11.2 390.9 10.7L391.4 11C391.1 11.5 390.6 12 390.2 12.4C390.3 12.6 390.5 12.8 390.6 12.9C390.7 13 390.8 13.1 390.9 13.1C390.9 13.1 390.9 13 391 12.7C391 12.5 391.1 12.3 391.1 12L391.7 12.3H391.9ZM391.3 7.50005L390.9 8.00005C390.6 7.70005 390.3 7.50005 389.9 7.40005L390.3 6.90005C390.7 7.10005 391 7.30005 391.3 7.60005V7.50005Z" fill="black"/>
<path d="M399.8 13.5H392.8V12.8H395.7V6.69995H396.4V9.09995H399.4V9.79995H396.4V12.8H399.8V13.5Z" fill="black"/>
<path d="M400.599 19.7999C400.599 20.0999 400.399 20.4999 400.299 20.7999L400.099 21.2999V25.7999H399.799V21.9999C399.599 22.3999 399.399 22.6999 399.199 22.8999L398.899 22.5999C399.499 21.8999 399.899 20.8999 400.299 19.5999H400.599V19.7999ZM404.999 25.2999L404.799 25.5999C404.399 25.3999 403.899 24.9999 403.399 24.4999C403.399 24.6999 403.399 24.7999 403.399 24.8999C403.399 25.1999 403.399 25.3999 403.299 25.4999C403.299 25.5999 403.099 25.6999 402.999 25.7999C402.899 25.7999 402.599 25.7999 402.299 25.7999C401.999 25.7999 402.099 25.7999 401.999 25.7999V25.4999C402.499 25.4999 402.799 25.4999 402.899 25.4999C402.999 25.4999 403.099 25.2999 403.099 24.9999C403.099 24.6999 403.099 24.6999 403.099 24.4999C402.499 24.8999 401.699 25.2999 400.599 25.6999L400.399 25.3999C401.499 25.0999 402.399 24.6999 402.999 24.1999C402.999 24.1999 402.999 23.9999 402.799 23.7999C402.199 24.1999 401.499 24.5999 400.599 24.7999L400.399 24.4999C401.399 24.1999 402.099 23.8999 402.699 23.4999C402.699 23.3999 402.499 23.2999 402.399 23.1999C401.899 23.4999 401.299 23.6999 400.499 23.8999L400.299 23.5999C401.099 23.4999 401.799 23.1999 402.399 22.7999H400.999V21.5999C400.899 21.6999 400.699 21.7999 400.599 21.8999L400.399 21.5999C401.199 20.9999 401.799 20.4999 402.099 19.8999L402.399 20.0999C402.399 20.1999 402.299 20.2999 402.199 20.3999H403.899V20.6999C403.699 20.8999 403.499 21.1999 403.299 21.3999H404.599V22.6999H402.999C402.899 22.7999 402.799 22.8999 402.699 22.9999C402.899 23.2999 403.099 23.4999 403.299 23.8999C403.699 23.6999 404.099 23.3999 404.599 22.9999L404.899 23.1999C404.499 23.4999 404.099 23.7999 403.599 24.0999C404.099 24.6999 404.699 25.0999 405.199 25.3999L404.999 25.2999ZM403.499 20.4999H401.999C401.699 20.7999 401.499 20.9999 401.199 21.1999H402.899C403.199 20.8999 403.399 20.6999 403.499 20.4999ZM402.599 22.2999V21.5999H401.299V22.2999H402.599ZM404.299 22.2999V21.5999H402.999V22.2999H404.299Z" fill="#AA8420" stroke="#AA8420" stroke-width="0.1" stroke-miterlimit="10"/>
<path d="M412 22.0999H409.1C408.6 22.4999 408.1 22.6999 407.6 22.8999H408.7C409.4 22.8999 409.8 22.8999 409.8 22.8999C410.1 22.7999 410.3 22.5999 410.7 22.3999L411 22.5999C409.8 23.2999 408.7 23.7999 407.5 24.0999C408.7 24.0999 409.9 24.0999 411 23.8999C410.8 23.6999 410.7 23.5999 410.5 23.3999L410.8 23.1999C411.3 23.5999 411.7 24.0999 412 24.4999L411.7 24.6999C411.5 24.4999 411.4 24.2999 411.3 24.1999C410.6 24.1999 409.9 24.2999 409.2 24.2999V25.2999C409.2 25.4999 409.2 25.5999 409 25.6999C408.9 25.6999 408.7 25.7999 408.3 25.7999C407.9 25.7999 408.1 25.7999 408.1 25.7999V25.3999C408.1 25.3999 408.3 25.3999 408.4 25.3999C408.6 25.3999 408.7 25.3999 408.7 25.3999C408.7 25.3999 408.7 25.3999 408.7 25.2999V24.2999C408.1 24.2999 407.3 24.2999 406.3 24.2999V23.9999C407.2 23.7999 408.1 23.4999 409 23.0999C408.5 23.0999 407.9 23.0999 407.3 23.0999C406.7 23.0999 406.9 23.0999 406.8 23.0999V22.7999C407.3 22.5999 407.9 22.2999 408.4 21.9999H405.8V21.6999H408.7V21.0999H406.5V20.7999H408.7V20.2999H406.1V19.9999H408.7V19.5999H409.1V19.9999H411.6V20.2999H409.1V20.7999H411.2V21.0999H409.1V21.6999H411.9V21.9999L412 22.0999ZM408 24.7999C407.6 25.0999 407 25.4999 406.2 25.7999L406 25.4999C406.7 25.1999 407.3 24.8999 407.8 24.5999L408.1 24.8999L408 24.7999ZM411.9 25.4999L411.7 25.7999C411.2 25.3999 410.6 25.0999 409.9 24.7999L410.1 24.4999C410.8 24.7999 411.4 25.0999 411.9 25.4999Z" fill="#AA8420" stroke="#AA8420" stroke-width="0.1" stroke-miterlimit="10"/>
</svg>
