<svg width="282" height="32" viewBox="0 0 282 32" fill="none" xmlns="http://www.w3.org/2000/svg">
<g clip-path="url(#clip0_81_1056)">
<path d="M42.3996 31.2H35.0996V0H42.3996V0.2H35.2996V30.9H42.3996V31.1V31.2Z" fill="#231815"/>
<path d="M245.6 31.2H238.3V31H245.4V0.2H238.3V0H245.6V31.2Z" fill="#231815"/>
<path d="M71.7998 18.2001H72.7998V11.0001H74.6998V10.1001H69.7998V11.0001H71.6998V18.2001H71.7998Z" fill="#003477"/>
<path d="M76.5 14.3H80.4V18.2H81.4V10H80.4V13.3H76.5V10H75.5V18.2H76.5V14.3Z" fill="#003477"/>
<path d="M87.4 17.3001H84V14.2001H87.3V13.3001H84V11.0001H87.4V10.1001H83V18.3001H87.4V17.4001V17.3001Z" fill="#003477"/>
<path d="M92.9004 14.3H96.8004V18.2H97.8004V10H96.8004V13.3H92.9004V10H91.9004V18.2H92.9004V14.3Z" fill="#003477"/>
<path d="M103.1 9.8999C100.8 9.8999 98.7998 11.7999 98.7998 14.0999C98.7998 16.3999 100.7 18.2999 103.1 18.2999C105.5 18.2999 107.4 16.4999 107.4 14.0999C107.4 11.6999 105.5 9.8999 103.1 9.8999ZM103.1 17.3999C101.3 17.3999 99.7998 15.9999 99.7998 14.0999C99.7998 12.1999 101.1 10.7999 103.1 10.7999C105.1 10.7999 106.3 12.2999 106.3 14.0999C106.3 15.8999 104.8 17.3999 103.1 17.3999Z" fill="#003477"/>
<path d="M114.5 16.1002L108.4 9.7002V18.2002H109.4V12.1002L115.5 18.5002V10.0002H114.5V16.0002V16.1002Z" fill="#003477"/>
<path d="M121.2 14.9998H123.3C123.3 16.2998 121.9 17.3998 120.6 17.3998C119.3 17.3998 117.4 15.7998 117.4 14.0998C117.4 12.3998 118.8 10.7998 120.6 10.7998C122.4 10.7998 122.6 11.2998 123.2 12.0998L123.9 11.3998C123.1 10.3998 121.8 9.7998 120.6 9.7998C118.3 9.7998 116.4 11.6998 116.4 14.0998C116.4 16.4998 118.2 18.2998 120.5 18.2998C122.8 18.2998 124.4 16.5998 124.4 14.2998V13.9998H121.2V14.8998V14.9998Z" fill="#003477"/>
<path d="M129.8 14.8L130.2 14.4L133.3 18.2H134.7L131 13.7L134.7 10H133.4L129.9 13.5V10H128.9V18.2H129.9V14.8H129.8Z" fill="#003477"/>
<path d="M139.1 9.8999C136.8 9.8999 134.8 11.7999 134.8 14.0999C134.8 16.3999 136.7 18.2999 139.1 18.2999C141.5 18.2999 143.4 16.4999 143.4 14.0999C143.4 11.6999 141.5 9.8999 139.1 9.8999ZM139.1 17.3999C137.3 17.3999 135.9 15.9999 135.9 14.0999C135.9 12.1999 137.2 10.7999 139.1 10.7999C141 10.7999 142.3 12.2999 142.3 14.0999C142.3 15.8999 140.8 17.3999 139.1 17.3999Z" fill="#003477"/>
<path d="M145.4 12.1001L151.5 18.5001V10.0001H150.5V16.0001L144.4 9.6001V18.1001H145.4V12.0001V12.1001Z" fill="#003477"/>
<path d="M157.2 14.9998H159.3C159.3 16.2998 157.9 17.3998 156.6 17.3998C155.3 17.3998 153.4 15.7998 153.4 14.0998C153.4 12.3998 154.8 10.7998 156.6 10.7998C158.4 10.7998 158.6 11.2998 159.2 12.0998L159.9 11.3998C159.1 10.3998 157.9 9.7998 156.6 9.7998C154.2 9.7998 152.4 11.6998 152.4 14.0998C152.4 16.4998 154.2 18.2998 156.5 18.2998C158.8 18.2998 160.4 16.5998 160.4 14.2998V13.9998H157.2V14.8998V14.9998Z" fill="#003477"/>
<path d="M170.6 15.2V10H169.6V14.8C169.6 16.1 169.2 17.4 167.6 17.4C166 17.4 165.6 16.2 165.6 14.8V10H164.6V15.2C164.6 17 165.7 18.4 167.6 18.4C169.5 18.4 170.6 17 170.6 15.2Z" fill="#003477"/>
<path d="M173.1 12.1001L179.2 18.5001V10.0001H178.2V16.0001L172.1 9.6001V18.1001H173.1V12.0001V12.1001Z" fill="#003477"/>
<path d="M181.7 10H180.7V18.2H181.7V10Z" fill="#003477"/>
<path d="M188.5 10L186.1 16L183.7 10H182.6L186.2 18.6L189.7 10H188.6H188.5Z" fill="#003477"/>
<path d="M194.8 17.3001H191.4V14.2001H194.7V13.3001H191.4V11.0001H194.8V10.1001H190.4V18.3001H194.8V17.4001V17.3001Z" fill="#003477"/>
<path d="M197.2 14.8001H197.6L200 18.3001H201.2L198.6 14.7001C199.8 14.6001 200.6 13.6001 200.6 12.4001C200.6 11.2001 200.2 10.8001 199.5 10.5001C198.9 10.1001 198.1 10.1001 197.4 10.1001H196.2V18.3001H197.2V14.8001ZM197.2 11.0001H197.5C198.5 11.0001 199.7 11.2001 199.7 12.5001C199.7 13.8001 198.6 14.0001 197.5 14.0001H197.2V11.1001V11.0001Z" fill="#003477"/>
<path d="M204.3 17.3999C203.4 17.3999 202.7 16.6999 202.7 15.7999L201.7 15.9999C201.9 17.2999 202.9 18.2999 204.2 18.2999C205.5 18.2999 206.8 17.1999 206.8 15.7999C206.8 14.3999 205.9 13.7999 204.8 13.3999L204.2 13.1999C203.7 12.9999 203.1 12.6999 203.1 11.9999C203.1 11.2999 203.8 10.7999 204.5 10.7999C205.2 10.7999 205.5 11.0999 205.8 11.5999L206.6 11.0999C206.2 10.2999 205.4 9.8999 204.5 9.8999C203.6 9.8999 202.1 10.6999 202.1 11.9999C202.1 13.2999 202.9 13.6999 203.9 14.0999L204.5 14.2999C205.2 14.5999 205.9 14.9999 205.9 15.8999C205.9 16.7999 205.3 17.4999 204.4 17.4999L204.3 17.3999Z" fill="#003477"/>
<path d="M209 10H208V18.2H209V10Z" fill="#003477"/>
<path d="M209.9 11.0001H211.8V18.2001H212.8V11.0001H214.7V10.1001H209.8V11.0001H209.9Z" fill="#003477"/>
<path d="M218 13.5L216 10H214.8L217.5 14.6V18.1H218.5V14.6L221.2 10H220L218 13.5Z" fill="#003477"/>
<path d="M228.9 9.8999C226.6 9.8999 224.6 11.7999 224.6 14.0999C224.6 16.3999 226.5 18.2999 228.9 18.2999C231.3 18.2999 233.2 16.4999 233.2 14.0999C233.2 11.6999 231.3 9.8999 228.9 9.8999ZM228.9 17.3999C227.1 17.3999 225.6 15.9999 225.6 14.0999C225.6 12.1999 226.9 10.7999 228.9 10.7999C230.9 10.7999 232.1 12.2999 232.1 14.0999C232.1 15.8999 230.6 17.3999 228.9 17.3999Z" fill="#003477"/>
<path d="M238.2 11.0001V10.1001H234.3V18.3001H235.3V14.3001H238.1V13.4001H235.3V11.1001H238.2V11.0001Z" fill="#003477"/>
<path d="M73.2002 26.2998L72.6002 26.0998C72.1002 25.8998 71.5002 25.5998 71.5002 24.8998C71.5002 24.1998 72.2002 23.6998 72.9002 23.6998C73.6002 23.6998 73.9002 23.9998 74.2002 24.4998L75.0002 23.9998C74.6002 23.1998 73.8002 22.7998 72.9002 22.7998C72.0002 22.7998 70.5002 23.5998 70.5002 24.8998C70.5002 26.1998 71.3002 26.5998 72.3002 26.9998L72.9002 27.1998C73.6002 27.4998 74.3002 27.8998 74.3002 28.6998C74.3002 29.4998 73.7002 30.2998 72.8002 30.2998C71.9002 30.2998 71.2002 29.6998 71.2002 28.7998L70.2002 28.9998C70.4002 30.2998 71.4002 31.2998 72.7002 31.2998C74.0002 31.2998 75.3002 30.1998 75.3002 28.7998C75.3002 27.3998 74.4002 26.7998 73.3002 26.3998L73.2002 26.2998Z" fill="#003477"/>
<path d="M76.0004 27.0998C76.0004 29.4998 77.9004 31.2998 80.2004 31.2998C82.5004 31.2998 81.7004 31.0998 82.3004 30.6998V29.4998C81.7004 29.9998 80.9004 30.2998 80.1004 30.2998C78.3004 30.2998 76.9004 28.7998 76.9004 26.9998C76.9004 25.1998 78.3004 23.6998 80.1004 23.6998C81.9004 23.6998 81.7004 23.9998 82.2004 24.4998V23.2998C81.6004 22.8998 80.9004 22.7998 80.2004 22.7998C77.8004 22.7998 75.9004 24.6998 75.9004 27.0998H76.0004Z" fill="#003477"/>
<path d="M84.7002 23H83.7002V31.1H84.7002V23Z" fill="#003477"/>
<path d="M86.2998 31.2001H90.6998V30.3001H87.2998V27.2001H90.5998V26.3001H87.2998V24.0001H90.6998V23.1001H86.2998V31.2001Z" fill="#003477"/>
<path d="M98.1 29.0001L92 22.6001V31.1001H93V25.0001L99.1 31.4001V22.9001H98.1V28.9001V29.0001Z" fill="#003477"/>
<path d="M100.2 27.0998C100.2 29.4998 102.1 31.2998 104.4 31.2998C106.7 31.2998 105.9 31.0998 106.5 30.6998V29.4998C105.9 29.9998 105.1 30.2998 104.3 30.2998C102.5 30.2998 101.1 28.7998 101.1 26.9998C101.1 25.1998 102.5 23.6998 104.3 23.6998C106.1 23.6998 105.9 23.9998 106.5 24.4998V23.2998C105.9 22.8998 105.2 22.7998 104.4 22.7998C102 22.7998 100.1 24.6998 100.1 27.0998H100.2Z" fill="#003477"/>
<path d="M107.9 31.2001H112.3V30.3001H108.9V27.2001H112.2V26.3001H108.9V24.0001H112.3V23.1001H107.9V31.2001Z" fill="#003477"/>
<path d="M116 31.2002H117.1L118 29.2002H121.7L122.6 31.2002H123.7L119.8 22.7002L115.9 31.2002H116ZM118.5 28.2002L120 24.9002L121.4 28.2002H118.5Z" fill="#003477"/>
<path d="M130.6 29.0001L124.5 22.6001V31.1001H125.5V25.0001L131.6 31.4001V22.9001H130.6V28.9001V29.0001Z" fill="#003477"/>
<path d="M134.8 23H133.1V31.1H134.8C137.4 31.1 139.4 29.8 139.4 27C139.4 24.2 137.3 23 134.8 23ZM134.5 30.2H134.1V23.9H134.5C136.6 23.9 138.4 24.7 138.4 27C138.4 29.3 136.6 30.1 134.5 30.1V30.2Z" fill="#003477"/>
<path d="M143 23.9H144.9V31.1H145.9V23.9H147.8V23H142.9V23.9H143Z" fill="#003477"/>
<path d="M148.8 31.2001H153.2V30.3001H149.8V27.2001H153.1V26.3001H149.8V24.0001H153.2V23.1001H148.8V31.2001Z" fill="#003477"/>
<path d="M154.1 27.0998C154.1 29.4998 156 31.2998 158.3 31.2998C160.6 31.2998 159.8 31.0998 160.4 30.6998V29.4998C159.8 29.9998 159 30.2998 158.2 30.2998C156.4 30.2998 155 28.7998 155 26.9998C155 25.1998 156.4 23.6998 158.2 23.6998C160 23.6998 159.8 23.9998 160.4 24.4998V23.2998C159.8 22.8998 159.1 22.7998 158.3 22.7998C155.9 22.7998 154 24.6998 154 27.0998H154.1Z" fill="#003477"/>
<path d="M166.6 26.3H162.7V23H161.7V31.1H162.7V27.2H166.6V31.1H167.6V23H166.6V26.3Z" fill="#003477"/>
<path d="M175.2 29.0001L169.1 22.6001V31.1001H170.1V25.0001L176.2 31.4001V22.9001H175.2V28.9001V29.0001Z" fill="#003477"/>
<path d="M181.4 22.7998C179.1 22.7998 177.1 24.6998 177.1 26.9998C177.1 29.2998 179 31.1998 181.4 31.1998C183.8 31.1998 185.7 29.3998 185.7 26.9998C185.7 24.5998 183.8 22.7998 181.4 22.7998ZM181.4 30.3998C179.6 30.3998 178.1 28.9998 178.1 27.0998C178.1 25.1998 179.4 23.7998 181.4 23.7998C183.4 23.7998 184.6 25.2998 184.6 27.0998C184.6 28.8998 183.1 30.3998 181.4 30.3998Z" fill="#003477"/>
<path d="M187.8 23H186.8V31.1H190.3V30.2H187.8V23Z" fill="#003477"/>
<path d="M194.8 22.7998C192.5 22.7998 190.5 24.6998 190.5 26.9998C190.5 29.2998 192.4 31.1998 194.8 31.1998C197.2 31.1998 199.1 29.3998 199.1 26.9998C199.1 24.5998 197.2 22.7998 194.8 22.7998ZM194.8 30.3998C193 30.3998 191.6 28.9998 191.6 27.0998C191.6 25.1998 192.9 23.7998 194.8 23.7998C196.7 23.7998 198.1 25.2998 198.1 27.0998C198.1 28.8998 196.6 30.3998 194.8 30.3998Z" fill="#003477"/>
<path d="M204.3 27.9998H206.4C206.4 29.2998 205 30.3998 203.7 30.3998C202.4 30.3998 200.5 28.7998 200.5 27.0998C200.5 25.3998 201.9 23.7998 203.7 23.7998C205.5 23.7998 205.7 24.2998 206.3 25.0998L207 24.3998C206.2 23.3998 204.9 22.7998 203.7 22.7998C201.4 22.7998 199.5 24.6998 199.5 27.0998C199.5 29.4998 201.3 31.2998 203.6 31.2998C205.9 31.2998 207.5 29.5998 207.5 27.2998V26.9998H204.3V27.8998V27.9998Z" fill="#003477"/>
<path d="M211 26.5L209 23H207.8L210.5 27.6V31.1H211.5V27.6L214.2 23H213L211 26.5Z" fill="#003477"/>
<path d="M58.6004 6.3999C58.7004 6.1999 58.8004 5.8999 58.8004 5.8999H49.9004C49.9004 5.8999 50.0004 6.2999 50.1004 6.3999H58.6004Z" fill="#AA8420"/>
<path d="M58.0998 7.1998C58.2998 6.9998 58.3998 6.7998 58.3998 6.7998H50.2998C50.2998 6.7998 50.2998 6.9998 50.5998 7.1998H58.0998Z" fill="#AA8420"/>
<path d="M57.5004 7.9001C57.7004 7.8001 57.9004 7.6001 57.9004 7.6001H50.9004C50.9004 7.6001 51.1004 7.8001 51.2004 7.9001H57.5004Z" fill="#AA8420"/>
<path d="M56.7002 8.5002C56.9002 8.5002 57.1002 8.2002 57.1002 8.2002H51.7002C51.7002 8.2002 51.7002 8.2002 52.1002 8.5002H56.7002Z" fill="#AA8420"/>
<path d="M52.7002 8.8999C52.7002 8.8999 53.3002 9.1999 54.4002 9.1999C55.5002 9.1999 56.2002 8.8999 56.2002 8.8999H52.7002Z" fill="#AA8420"/>
<path d="M52.6 9.7002C52.6 9.7002 53.3 9.7002 53.7 10.1002C54.1 10.4002 54.4 11.0002 54.4 11.0002C54.4 11.0002 54.6 10.5002 55 10.2002C55.4 9.9002 56 9.8002 56 9.8002H63L64.4 11.9002H58.1C58.1 11.9002 57.7 11.9002 57 12.3002C56.6 12.5002 56.4 12.8002 56.4 12.8002C56.4 12.8002 56.4 13.0002 56.3 13.1002C56.3 13.2002 56.2 13.3002 56.1 13.3002H52.8C52.8 13.3002 52.7 13.3002 52.6 13.1002C52.6 13.0002 52.6 13.1002 52.6 12.9002C52.6 12.9002 52.4 12.6002 51.9 12.2002C51.4 11.9002 50.9 11.8002 50.9 11.8002H44.5L45.9 9.7002H52.8H52.6Z" fill="#003477"/>
<path d="M47.6 12.6001V23.1001C47.6 23.1001 47.6 24.0001 48.4 25.3001C49.2 26.6001 50.3 27.1001 50.3 27.1001L51.2 25.7001C51.2 25.7001 50.4 25.2001 49.8 24.3001C49.2 23.4001 49.2 22.7001 49.2 22.7001V12.6001H47.5H47.6Z" fill="#003477"/>
<path d="M59.4996 12.5V22.6C59.4996 22.6 59.3996 23.6 58.8996 24.3C58.3996 25 57.5996 25.6 57.5996 25.6L58.4996 27C58.4996 27 59.7996 26.1 60.3996 25.1C60.9996 24.1 61.1996 22.6 61.1996 22.6V12.5H59.4996Z" fill="#003477"/>
<path d="M45 12.6V23.1C45 23.1 45.1 24.7 46.1 26.4C47.1 28.1 49 29.3 49 29.3L49.9 27.9C49.9 27.9 48.7 27.3 47.8 25.8C46.8 24.3 46.8 23 46.8 23V12.5H45.1L45 12.6Z" fill="#003477"/>
<path d="M52.5998 13.7002V24.8002C52.5998 24.8002 52.5998 24.8002 52.5998 25.0002C52.5998 25.2002 52.4998 25.3002 52.4998 25.3002L48.7998 31.4002H60.1998L56.4998 25.1002V24.8002C56.3998 24.8002 56.2998 24.5002 56.2998 24.5002V13.7002H54.8998V25.0002C54.8998 25.0002 54.8998 25.2002 54.8998 25.3002C54.8998 25.4002 54.9998 25.6002 54.9998 25.6002L57.2998 29.4002H51.4998L53.6998 25.7002C53.6998 25.7002 53.6998 25.6002 53.7998 25.4002C53.7998 25.2002 53.7998 25.1002 53.7998 25.1002V13.8002H52.4998L52.5998 13.7002Z" fill="#AA8420"/>
<path d="M62.1 12.5V22.8C62.1 22.8 62.1 24.1 61.1 25.7C60.1 27.2 59 27.9 59 27.9L59.8 29.3C59.8 29.3 61.5 28.2 62.6 26.5C63.6 24.8 63.8 22.8 63.8 22.8V12.5H62.1Z" fill="#003477"/>
<path d="M49.8996 5.6C49.8996 5.6 49.2996 2.5 51.5996 0.9C51.5996 0.9 52.5996 0 54.2996 0C55.9996 0 57.0996 0.9 57.0996 0.9C59.5996 2.7 58.8996 5.6 58.8996 5.6H49.8996Z" fill="#AA8420"/>
<path d="M10.0998 23.4999C10.3998 23.7999 10.4998 24.1999 10.4998 24.5999C10.4998 24.9999 10.2998 25.6999 9.7998 25.9999C9.2998 26.3999 8.6998 26.4999 7.8998 26.4999C7.0998 26.4999 6.4998 26.2999 5.9998 25.9999C5.4998 25.6999 5.2998 25.1999 5.2998 24.5999C5.2998 23.9999 5.3998 23.7999 5.6998 23.4999C5.9998 23.1999 6.2998 22.9999 6.7998 22.8999C6.3998 22.7999 5.9998 22.5999 5.7998 22.2999C5.5998 21.9999 5.4998 21.6999 5.4998 21.2999C5.4998 20.8999 5.4998 20.5999 5.7998 20.2999C5.9998 19.9999 6.2998 19.7999 6.5998 19.5999C6.9998 19.3999 7.3998 19.3999 7.7998 19.3999C8.1998 19.3999 8.6998 19.3999 9.0998 19.5999C9.4998 19.7999 9.6998 19.9999 9.8998 20.2999C10.0998 20.5999 10.1998 20.8999 10.1998 21.2999C10.1998 21.6999 10.0998 21.9999 9.8998 22.2999C9.6998 22.5999 9.2998 22.7999 8.8998 22.8999C9.3998 22.9999 9.6998 23.1999 9.9998 23.5999L10.0998 23.4999ZM9.2998 25.5999C9.5998 25.3999 9.6998 24.9999 9.6998 24.5999C9.6998 24.1999 9.4998 23.8999 9.1998 23.6999C8.8998 23.4999 8.4998 23.2999 7.8998 23.2999C7.3998 23.2999 6.9998 23.4999 6.5998 23.6999C6.2998 23.8999 6.0998 24.1999 6.0998 24.5999C6.0998 24.9999 6.2998 25.3999 6.4998 25.5999C6.7998 25.7999 7.1998 25.8999 7.7998 25.8999C8.3998 25.8999 8.7998 25.7999 9.0998 25.5999H9.2998ZM6.7998 22.1999C7.0998 22.3999 7.4998 22.5999 7.8998 22.5999C8.3998 22.5999 8.7998 22.3999 9.0998 22.1999C9.3998 21.9999 9.4998 21.6999 9.4998 21.2999C9.4998 20.8999 9.3998 20.5999 9.0998 20.3999C8.7998 20.1999 8.3998 20.0999 7.8998 20.0999C7.3998 20.0999 6.9998 20.1999 6.7998 20.3999C6.4998 20.5999 6.3998 20.8999 6.3998 21.2999C6.3998 21.6999 6.4998 21.9999 6.7998 22.1999Z" fill="#AA8420"/>
<path d="M255.1 25.1H254V26.7H253.2V25.1H249.9V24.5L253.3 19.5H254V24.4H255.1V25.1ZM253.2 24.4V20.9L250.8 24.4H253.2Z" fill="#AA8420"/>
<path d="M256.6 25.6999C256.2 25.0999 256 24.1999 256 22.9999C256 21.7999 256.2 20.8999 256.6 20.2999C257 19.6999 257.6 19.3999 258.5 19.3999C259.4 19.3999 259.9 19.6999 260.4 20.2999C260.8 20.8999 261 21.7999 261 22.9999C261 24.1999 260.8 25.0999 260.4 25.6999C260 26.2999 259.4 26.5999 258.5 26.5999C257.6 26.5999 257.1 26.2999 256.6 25.6999ZM259.7 25.1999C260 24.6999 260.1 23.9999 260.1 22.9999C260.1 21.9999 260 21.1999 259.7 20.7999C259.4 20.2999 259 20.0999 258.4 20.0999C257.8 20.0999 257.4 20.2999 257.2 20.7999C256.9 21.2999 256.8 21.9999 256.8 22.9999C256.8 23.9999 256.9 24.7999 257.2 25.1999C257.5 25.6999 257.9 25.8999 258.4 25.8999C258.9 25.8999 259.4 25.6999 259.6 25.1999H259.7Z" fill="#AA8420"/>
<path d="M16 8.20029C15.3 8.50029 14.5 8.70029 13.7 8.80029V10.5003H15.8V11.2003H13.7V13.2003C14.5 13.0003 15.3 12.7003 15.9 12.5003V13.3003C14.9 13.7003 13.8 14.0003 12.7 14.3003L12.5 13.6003C12.7 13.6003 12.8 13.6003 12.9 13.6003V8.40029C13.9 8.30029 14.8 8.10029 15.6 7.80029L16 8.40029V8.20029ZM19.4 13.0003C19.4 13.2003 19.4 13.4003 19.2 13.5003C19 13.6003 18.9 13.7003 18.8 13.7003C18.7 13.7003 18.4 13.7003 18.1 13.7003C17.8 13.7003 17.7 13.7003 17.6 13.7003L17.3 12.9003C17.5 12.9003 17.8 12.9003 18.4 12.9003C19 12.9003 18.6 12.9003 18.6 12.7003V8.50029H17V14.5003H16.3V7.80029H19.4V12.9003V13.0003Z" fill="black"/>
<path d="M24.7996 10.0001H21.6996V11.1001C21.6996 12.6001 21.4996 13.9001 21.1996 14.8001L20.5996 14.4001C20.8996 13.6001 20.9996 12.7001 20.9996 11.6001V7.9001H24.7996V10.0001ZM24.0996 9.3001V8.5001H21.6996V9.3001H24.0996ZM24.7996 13.5001C24.7996 13.7001 24.7996 13.9001 24.5996 13.9001C24.3996 13.9001 24.2996 14.0001 23.9996 13.9001L23.7996 13.3001C23.7996 13.3001 23.7996 13.3001 23.8996 13.3001C24.0996 13.3001 24.0996 13.3001 24.0996 13.1001V11.5001H23.5996V14.4001H22.9996V11.5001H22.5996V13.9001H21.9996V10.8001H23.0996V10.1001H23.6996V10.8001H24.7996V13.3001V13.5001ZM25.9996 13.2001H25.2996V8.2001H25.9996V13.2001ZM27.3996 13.9001C27.3996 14.2001 27.3996 14.4001 27.1996 14.5001C26.9996 14.5001 26.7996 14.6001 26.3996 14.6001C25.9996 14.6001 25.9996 14.6001 25.8996 14.6001L25.6996 13.9001C25.8996 13.9001 26.0996 13.9001 26.2996 13.9001C26.4996 13.9001 26.5996 13.9001 26.6996 13.9001C26.7996 13.9001 26.6996 13.9001 26.6996 13.7001V7.6001H27.3996V13.9001Z" fill="black"/>
<path d="M20.3004 21.2999H14.4004V20.9999H17.2004C17.2004 20.7999 17.0004 20.6999 16.9004 20.5999L17.2004 20.3999C17.3004 20.5999 17.4004 20.7999 17.5004 20.9999H20.2004V21.2999H20.3004ZM20.4004 25.6999C20.4004 25.9999 20.4004 26.1999 20.2004 26.2999C20.1004 26.3999 19.9004 26.4999 19.8004 26.4999H17.5004C17.3004 26.4999 17.2004 26.4999 17.1004 26.2999C17.0004 26.1999 16.9004 25.9999 16.9004 25.7999V25.5999L14.4004 25.7999V25.4999L16.9004 25.2999V24.8999L14.8004 25.0999V24.7999L16.9004 24.5999V24.1999C16.4004 24.1999 15.9004 24.1999 15.3004 24.1999V23.8999C16.7004 23.8999 18.1004 23.8999 19.1004 23.5999L19.3004 23.8999C18.7004 23.9999 18.0004 24.0999 17.2004 24.1999V24.5999L19.8004 24.3999V24.6999L17.2004 24.8999V25.2999L20.2004 25.0999V25.3999L17.2004 25.5999V25.8999C17.2004 25.8999 17.2004 25.9999 17.2004 26.0999C17.2004 26.0999 17.3004 26.0999 17.4004 26.0999H19.5004C19.8004 26.0999 19.9004 25.8999 19.9004 25.4999H20.2004L20.4004 25.6999ZM20.2004 24.0999H19.8004V23.3999H14.8004V24.0999H14.4004V23.0999H20.2004V24.0999ZM19.7004 22.6999H15.0004V21.6999H19.7004V22.6999ZM19.3004 22.3999V21.9999H15.4004V22.3999H19.3004Z" fill="#AA8420" stroke="#AA8420" stroke-width="0.1" stroke-miterlimit="10"/>
<path d="M23.4002 24.1999C23.0002 24.9999 22.3002 25.6999 21.5002 26.2999L21.2002 25.9999C22.0002 25.3999 22.6002 24.7999 23.0002 23.9999L23.3002 24.1999H23.4002ZM27.3002 23.2999H24.5002V26.5999H24.1002V23.2999H21.3002V22.8999H24.1002V20.3999H24.5002V22.8999H27.3002V23.2999ZM23.1002 22.2999L22.8002 22.4999C22.6002 22.0999 22.3002 21.5999 21.9002 21.0999L22.2002 20.8999C22.6002 21.3999 22.9002 21.7999 23.1002 22.2999ZM27.4002 25.8999L27.1002 26.1999C26.7002 25.4999 26.1002 24.7999 25.3002 24.1999L25.6002 23.9999C26.2002 24.4999 26.8002 25.1999 27.4002 25.9999V25.8999ZM26.7002 20.9999C26.4002 21.5999 26.1002 22.0999 25.8002 22.4999L25.4002 22.2999C25.7002 21.9999 26.0002 21.4999 26.3002 20.7999L26.6002 20.9999H26.7002Z" fill="#AA8420" stroke="#AA8420" stroke-width="0.1" stroke-miterlimit="10"/>
<path d="M252.9 13.6002C251.9 14.0002 251 14.4002 250.2 14.6002L250 14.0002C250.7 13.8002 251.6 13.5002 252.7 13.0002L252.9 13.6002ZM252.8 9.2002C252.3 10.3002 251.7 11.2002 251.1 12.1002C251.4 12.1002 251.9 11.8002 252.5 11.6002L252.7 12.3002C251.9 12.6002 251.1 12.9002 250.3 13.1002L250.1 12.5002C250.6 12.0002 251 11.4002 251.4 10.7002C251 10.7002 250.7 10.9002 250.3 10.9002L250.1 10.3002C250.6 9.6002 251.1 8.8002 251.5 7.7002L252.1 7.9002C251.8 8.7002 251.5 9.4002 251 10.0002C251.2 10.0002 251.5 10.0002 251.8 9.8002C252 9.6002 252.1 9.3002 252.2 8.9002L252.8 9.2002ZM257 13.2002C256.9 14.2002 256.5 14.7002 256 14.7002C255.5 14.7002 255.6 14.7002 255.4 14.4002C255.2 14.2002 255 14.0002 254.8 13.6002C254.2 14.0002 253.5 14.3002 252.7 14.7002L252.3 14.1002C253.2 13.8002 253.9 13.4002 254.5 13.0002C254.3 12.5002 254.2 12.0002 254.1 11.5002L252.7 11.7002V11.0002L254.1 10.8002C254.1 10.4002 254.1 10.1002 254.1 9.9002H253C253 10.0002 253 9.4002 253 9.4002H254.1C254.1 9.3002 254.1 7.7002 254.1 7.7002H254.8C254.8 8.0002 254.8 8.5002 254.8 9.2002L256.7 9.0002V9.6002L254.8 9.9002C254.8 10.2002 254.8 10.5002 254.8 10.8002L256.9 10.5002V11.2002C257 11.2002 254.8 11.5002 254.8 11.5002C254.8 11.9002 254.9 12.3002 255 12.7002C255.3 12.4002 255.6 12.1002 256 11.6002L256.5 11.9002C256.2 12.4002 255.7 12.9002 255.3 13.3002C255.4 13.5002 255.6 13.7002 255.7 13.8002C255.8 13.9002 255.9 14.0002 256 14.0002C256 14.0002 256 13.9002 256.1 13.6002C256.1 13.4002 256.2 13.2002 256.2 12.9002L256.8 13.2002H257ZM256.4 8.4002L256 8.9002C255.7 8.6002 255.4 8.4002 255 8.3002L255.4 7.8002C255.8 8.0002 256.1 8.2002 256.4 8.5002V8.4002Z" fill="black"/>
<path d="M265 14.4001H258V13.7001H260.9V7.6001H261.6V10.0001H264.6V10.7001H261.6V13.7001H265V14.4001Z" fill="black"/>
<path d="M265.9 20.5999C265.9 20.8999 265.7 21.2999 265.6 21.5999L265.4 22.0999V26.5999H265.1V22.7999C264.9 23.1999 264.7 23.4999 264.5 23.6999L264.2 23.3999C264.8 22.6999 265.2 21.6999 265.6 20.3999H265.9V20.5999ZM270.3 25.9999L270.1 26.2999C269.7 26.0999 269.2 25.6999 268.7 25.1999C268.7 25.3999 268.7 25.4999 268.7 25.5999C268.7 25.8999 268.7 26.0999 268.6 26.1999C268.6 26.2999 268.4 26.3999 268.3 26.4999C268.2 26.4999 267.9 26.4999 267.6 26.4999C267.3 26.4999 267.4 26.4999 267.3 26.4999V26.1999C267.8 26.1999 268.1 26.1999 268.2 26.1999C268.3 26.1999 268.4 25.9999 268.4 25.6999C268.4 25.3999 268.4 25.3999 268.4 25.1999C267.8 25.5999 267 25.9999 265.9 26.3999L265.7 26.0999C266.8 25.7999 267.7 25.3999 268.3 24.8999C268.3 24.8999 268.3 24.6999 268.1 24.4999C267.5 24.8999 266.8 25.2999 265.9 25.4999L265.7 25.1999C266.7 24.8999 267.4 24.5999 268 24.1999C268 24.0999 267.8 23.9999 267.7 23.8999C267.2 24.1999 266.6 24.3999 265.8 24.5999L265.6 24.2999C266.4 24.1999 267.1 23.8999 267.7 23.4999H266.3V22.2999C266.2 22.3999 266 22.4999 265.9 22.5999L265.7 22.2999C266.5 21.6999 267.1 21.1999 267.4 20.5999L267.7 20.7999C267.7 20.8999 267.6 20.9999 267.5 21.0999H269.2V21.3999C269 21.5999 268.8 21.8999 268.6 22.0999H269.9V23.3999H268.3C268.2 23.4999 268.1 23.5999 268 23.6999C268.2 23.9999 268.4 24.1999 268.6 24.5999C269 24.3999 269.4 24.0999 269.9 23.6999L270.2 23.8999C269.8 24.1999 269.4 24.4999 268.9 24.7999C269.4 25.3999 270 25.7999 270.5 26.0999L270.3 25.9999ZM268.8 21.2999H267.3C267 21.5999 266.8 21.7999 266.5 21.9999H268.2C268.4 21.6999 268.7 21.4999 268.8 21.2999ZM267.9 22.9999V22.2999H266.6V22.9999H267.9ZM269.6 22.9999V22.2999H268.3V22.9999H269.6Z" fill="#AA8420" stroke="#AA8420" stroke-width="0.1" stroke-miterlimit="10"/>
<path d="M277.301 22.8999H274.401C273.901 23.2999 273.401 23.4999 272.901 23.6999H274.001C274.701 23.6999 275.101 23.6999 275.101 23.6999C275.401 23.5999 275.601 23.3999 276.001 23.1999L276.301 23.3999C275.101 24.0999 274.001 24.5999 272.801 24.8999C274.001 24.8999 275.201 24.8999 276.301 24.6999C276.101 24.4999 276.001 24.3999 275.801 24.1999L276.101 23.9999C276.601 24.3999 277.001 24.8999 277.301 25.2999L277.001 25.4999C276.801 25.2999 276.701 25.0999 276.601 24.9999C275.901 24.9999 275.201 25.0999 274.501 25.0999V26.0999C274.501 26.2999 274.501 26.3999 274.301 26.4999C274.201 26.4999 274.001 26.5999 273.601 26.5999C273.201 26.5999 273.401 26.5999 273.401 26.5999V26.1999C273.401 26.1999 273.601 26.1999 273.701 26.1999C273.901 26.1999 274.001 26.1999 274.001 26.1999C274.001 26.1999 274.001 26.1999 274.001 26.0999V25.0999C273.401 25.0999 272.601 25.0999 271.601 25.0999V24.7999C272.501 24.5999 273.401 24.2999 274.301 23.8999C273.801 23.8999 273.201 23.8999 272.601 23.8999C272.001 23.8999 272.201 23.8999 272.101 23.8999V23.5999C272.601 23.3999 273.201 23.0999 273.701 22.7999H271.101V22.4999H274.001V21.8999H271.801V21.5999H274.001V21.0999H271.401V20.7999H274.001V20.3999H274.401V20.7999H276.901V21.0999H274.401V21.5999H276.501V21.8999H274.401V22.4999H277.201V22.7999L277.301 22.8999ZM273.301 25.5999C272.901 25.8999 272.301 26.2999 271.501 26.5999L271.301 26.2999C272.001 25.9999 272.601 25.6999 273.101 25.3999L273.401 25.6999L273.301 25.5999ZM277.201 26.2999L277.001 26.5999C276.501 26.1999 275.901 25.8999 275.201 25.5999L275.401 25.2999C276.101 25.5999 276.701 25.8999 277.201 26.2999Z" fill="#AA8420" stroke="#AA8420" stroke-width="0.1" stroke-miterlimit="10"/>
</g>
<defs>
<clipPath id="clip0_81_1056">
<rect width="282" height="32" fill="white"/>
</clipPath>
</defs>
</svg>
