<svg width="194" height="29" viewBox="0 0 194 29" fill="none" xmlns="http://www.w3.org/2000/svg">
<path d="M46.5998 28.4H39.2998V0H46.5998V0.2H39.4998V28.1H46.5998V28.3V28.4Z" fill="#231815"/>
<path d="M155.9 28.4H148.6V28.2H155.7V0.3H148.6V0H155.9V28.3V28.4Z" fill="#231815"/>
<path d="M11.6996 22.1C12.5996 22.5 13.0996 23.2 13.0996 24C13.0996 24.8 12.8996 25.2 12.3996 25.6C11.8996 26 11.3996 26.2 10.5996 26.2C9.79961 26.2 9.29961 26 8.79961 25.6C8.39961 25.2 8.09961 24.7 8.09961 24.1C8.09961 23.5 8.59961 22.6 9.49961 22.2C8.79961 21.8 8.49961 21.3 8.49961 20.6C8.49961 19.9 8.69961 19.6999 9.09961 19.2999C9.49961 18.8999 9.99961 18.7 10.5996 18.7C11.1996 18.7 11.6996 18.9 12.0996 19.2C12.4996 19.6 12.6996 20 12.6996 20.5C12.6996 21 12.3996 21.6 11.6996 22V22.1ZM12.2996 24C12.2996 23.6 12.0996 23.2 11.7996 22.9C11.4996 22.6 11.0996 22.4 10.5996 22.4C10.0996 22.4 9.69961 22.6 9.39961 22.9C9.09961 23.2 8.89961 23.6 8.89961 24C8.89961 24.4 9.09961 24.8 9.39961 25.1C9.69961 25.4 10.0996 25.5 10.5996 25.5C11.0996 25.5 11.4996 25.4 11.7996 25.1C12.0996 24.8 12.2996 24.4 12.2996 24ZM11.9996 20.5C11.9996 20.2 11.8996 19.9 11.5996 19.7C11.3996 19.5 10.9996 19.4 10.5996 19.4C10.1996 19.4 9.89961 19.5 9.59961 19.7C9.29961 19.9 9.19961 20.2 9.19961 20.5C9.19961 20.8 9.29961 21.1 9.59961 21.4C9.89961 21.7 10.1996 21.7999 10.5996 21.7999C10.9996 21.7999 11.2996 21.7 11.4996 21.4C11.7996 21.2 11.8996 20.8 11.8996 20.5H11.9996Z" fill="#AA8420"/>
<path d="M165 18.8H165.1V23.8H166V24.5H165.1V26.2001H164.4V24.5H161L165 18.8ZM164.4 23.8V20.8L162.3 23.8H164.4Z" fill="#AA8420"/>
<path d="M169 26.2999C168.2 26.2999 167.6 25.9999 167.2 25.2999C166.8 24.6999 166.6 23.7 166.6 22.5C166.6 21.3 166.8 20.3 167.2 19.7C167.6 19.1 168.2 18.7 169 18.7C169.8 18.7 170.4 19 170.8 19.7C171.2 20.4 171.5 21.3 171.5 22.5C171.5 23.7 171.3 24.5999 170.8 25.2999C170.3 25.9999 169.7 26.2999 169 26.2999ZM169 19.4C168.4 19.4 168 19.7 167.7 20.2C167.4 20.7 167.2 21.5 167.2 22.5C167.2 24.6 167.8 25.6 169 25.6C170.2 25.6 170 25.2999 170.3 24.7999C170.6 24.2999 170.8 23.5 170.8 22.5C170.8 21.5 170.6 20.7 170.3 20.2C170 19.7 169.5 19.4 169 19.4Z" fill="#AA8420"/>
<path d="M69.9998 5.90002C70.0998 5.70002 70.1998 5.40002 70.1998 5.40002H62.2998C62.2998 5.40002 62.2998 5.70002 62.4998 5.90002H70.0998H69.9998Z" fill="#AA8420"/>
<path d="M69.5996 6.59995C69.7996 6.49995 69.8996 6.19995 69.8996 6.19995H62.5996C62.5996 6.19995 62.5996 6.39995 62.8996 6.59995H69.5996Z" fill="#AA8420"/>
<path d="M68.9996 7.20002C69.1996 7.20002 69.2996 6.90002 69.2996 6.90002H63.0996C63.0996 6.90002 63.2996 7.10002 63.3996 7.20002H68.9996Z" fill="#AA8420"/>
<path d="M68.2002 7.79998C68.4002 7.79998 68.6002 7.59998 68.6002 7.59998H63.7002C63.7002 7.59998 63.7002 7.59998 64.0002 7.79998H68.1002H68.2002Z" fill="#AA8420"/>
<path d="M64.7002 8.09998C64.7002 8.09998 65.2002 8.39997 66.2002 8.39997C67.2002 8.39997 67.9002 8.09998 67.9002 8.09998H64.7002Z" fill="#AA8420"/>
<path d="M64.6 8.80005C64.6 8.80005 65.2 8.80005 65.6 9.10005C65.9 9.40005 66.2 9.90005 66.2 9.90005C66.2 9.90005 66.4 9.40005 66.8 9.20005C67.1 8.90005 67.7 8.80005 67.7 8.80005H74L75.2 10.6H69.6C69.6 10.6 69.2 10.6 68.6 11C68.3 11.2 68.1 11.5 68.1 11.5C68.1 11.5 68.1 11.6 68 11.7C68 11.7 67.9 11.9 67.8 11.9H64.9C64.9 11.9 64.8 11.9 64.7 11.7C64.7 11.7 64.7 11.7 64.7 11.6C64.7 11.6 64.5 11.3 64.1 11C63.6 10.7 63.2 10.7 63.2 10.7H57.5L58.7 8.80005H64.9H64.6Z" fill="#003477"/>
<path d="M60.2002 11.4V20.8C60.2002 20.8 60.2002 21.6 60.9002 22.7C61.6002 23.8 62.6002 24.3 62.6002 24.3L63.4002 23.1C63.4002 23.1 62.7002 22.7 62.2002 21.9C61.7002 21.1 61.7002 20.4 61.7002 20.4V11.4H60.2002Z" fill="#003477"/>
<path d="M70.7996 11.4V20.4C70.7996 20.4 70.6996 21.3 70.1996 21.9C69.7996 22.6 69.0996 23.1 69.0996 23.1L69.8996 24.3C69.8996 24.3 70.9996 23.5 71.5996 22.6C72.1996 21.7 72.2996 20.4 72.2996 20.4V11.4H70.7996Z" fill="#003477"/>
<path d="M57.7998 11.4V20.8C57.7998 20.8 57.7998 22.3 58.7998 23.8C59.6998 25.3 61.2998 26.4 61.2998 26.4L62.0998 25.2C62.0998 25.2 61.0998 24.6 60.1998 23.3C59.2998 22 59.2998 20.8 59.2998 20.8V11.4H57.7998Z" fill="#003477"/>
<path d="M64.6002 12.4V22.3C64.6002 22.3 64.6002 22.3 64.6002 22.5C64.6002 22.6 64.5002 22.7 64.5002 22.7L61.2002 28.2H71.3002L68.0002 22.6V22.4L67.9002 22.1V12.4H66.7002V22.5C66.7002 22.5 66.7002 22.6 66.7002 22.8C66.7002 22.9 66.7002 23.1 66.7002 23.1L68.7002 26.5H63.5002L65.5002 23.2C65.5002 23.2 65.5002 23.1 65.6002 22.9C65.6002 22.8 65.6002 22.6 65.6002 22.6V12.5H64.4002L64.6002 12.4Z" fill="#AA8420"/>
<path d="M73.0998 11.4V20.6C73.0998 20.6 73.0998 21.8 72.1998 23.2C71.2998 24.6 70.2998 25.1 70.2998 25.1L70.9998 26.3C70.9998 26.3 72.4998 25.3 73.4998 23.8C74.3998 22.3 74.4998 20.5 74.4998 20.5V11.3H72.9998L73.0998 11.4Z" fill="#003477"/>
<path d="M62.2001 5.19998C62.2001 5.19998 61.7001 2.39998 63.7001 0.999976C63.7001 0.999976 64.6001 0.0999756 66.1001 0.0999756C67.6001 0.0999756 68.6001 0.899976 68.6001 0.899976C70.8001 2.49998 70.2001 5.09998 70.2001 5.09998H62.2001V5.19998Z" fill="#AA8420"/>
<path d="M92.9004 14.8V13.7H87.2004V12.6C89.0004 12.5 90.5004 12.2 91.8004 12L91.2004 10.9C89.4004 11.3 86.6004 11.5 83.1004 11.5C79.6004 11.5 81.7004 11.5 81.2004 11.5L81.6004 12.7C82.5004 12.7 83.9004 12.7 86.0004 12.7V13.8H80.5004V14.9H84.7004C83.5004 15.9 82.1004 16.6 80.4004 17L81.0004 18.2C81.5004 18 81.9004 17.9 82.1004 17.8V23.6H83.3004V23H89.9004V23.6H91.1004V17.8C91.3004 17.9 91.5004 18 91.7004 18C91.9004 18 92.1004 18.1 92.3004 18.2L92.9004 17C91.0004 16.6 89.5004 15.9 88.5004 14.9H92.8004L92.9004 14.8ZM82.9004 17.3C84.2004 16.8 85.2004 15.9 86.0004 14.8V17.3H82.9004ZM90.0004 21.7H83.4004V20.5H90.0004V21.7ZM90.0004 19.5H83.4004V18.5H90.0004V19.5ZM90.6004 17.3H87.3004V14.8C88.1004 15.9 89.2004 16.7 90.6004 17.3Z" fill="#003477"/>
<path d="M99.8 16C99.1 15.5 98.5 15 97.8 14.7L97 15.7C97.5 16.1 98.2 16.5 98.9 17.2L99.8 16Z" fill="#003477"/>
<path d="M97 22.2L98.1 23.3C98.9 22.1 99.4 20.8 99.8 19.3L98.6 18.6C98.3 19.9 97.8 21.1 97 22.2Z" fill="#003477"/>
<path d="M106.8 20.6V17.8C107.3 18.3 108 18.8 108.8 19.3L109.4 18.1C107.9 17.4 107 16.7 106.7 15.9H109.3V14.8H106.9V13.4H109.1V12.3H106.9V10.9H105.7V12.3H103.3V10.9H102.1V12.3H100.3V12.5C99.8 12.1 99.1 11.7 98.4 11.2L97.5 12.2C98.1 12.6 98.8 13.1 99.5 13.8L100.3 12.8V13.5H102.1V14.8H100V15.9H102.1C101.7 16.7 100.8 17.5 99.3 18.2L100.1 19.3C100.7 18.9 101.1 18.6 101.3 18.4V21.4C101.3 22 101.4 22.4 101.6 22.6C101.8 22.8 102.2 22.9 102.8 22.9H107.2C107.9 22.9 108.3 22.8 108.6 22.5C108.8 22.3 109 21.5 109.2 20.3L107.9 19.8C107.9 20.5 107.8 21 107.7 21.3C107.6 21.6 107.4 21.7 107 21.7H103C102.7 21.7 102.5 21.5 102.5 21.2V20.3H106.8V20.6ZM103.2 13.5H105.6V14.8H103.2V13.5ZM103.5 15.9H105.3C105.5 16.4 105.8 16.8 106.1 17.1H102.7C103 16.7 103.3 16.3 103.5 15.9ZM102.5 19.5V18.2H105.6V19.5H102.5Z" fill="#003477"/>
<path d="M123.1 13.5C122 12.7 121.2 12.2 120.6 11.9L119.8 12.8C120.4 13.2 121.2 13.8 122.2 14.6L123 13.6L123.1 13.5Z" fill="#003477"/>
<path d="M122.9 16.7C121.9 15.9 121.1 15.4 120.4 15L119.6 15.9C120.3 16.3 121.1 16.9 122.1 17.7L122.9 16.7Z" fill="#003477"/>
<path d="M117.2 15.7C117.2 15.6 119.2 15.6 119.2 15.6V14.4H117.2V12.5C117.9 12.4 118.6 12.2 119.2 11.9L118.7 10.8C117.3 11.4 115.5 11.7 113.5 11.8L113.8 12.9C114.7 12.9 115.4 12.8 115.9 12.7V14.4H113.4V15.6H115.9C115.3 17.1 114.5 18.5 113.4 19.8L114.2 21C115.1 19.9 115.7 18.9 116 18V23.5H117.2V17.2C117.4 17.5 117.7 17.8 117.9 18.1C118.2 18.4 118.4 18.7 118.7 19.1L119.5 18C119 17.5 118.2 16.7 117.2 15.8V15.7Z" fill="#003477"/>
<path d="M124.9 10.8H123.7V18.5L119.2 19.2V20.4L123.7 19.7V23.4H124.9V19.5L126.1 19.3V18.1L124.9 18.3V10.7V10.8Z" fill="#003477"/>
<path d="M139.5 19.1C138.7 17.9 138.3 16.8 138.1 15.7H142.4V14.3H136.7C136.7 13.6 136.8 12.5 136.8 10.9H135.4C135.4 12.3 135.4 13.5 135.2 14.3H130.3V15.7H134.9C134.7 17 134.1 18.2 133.2 19.4C132.3 20.6 131.2 21.5 129.9 22.3L130.9 23.6C133.9 21.6 135.7 19 136.3 15.8H136.5C137.4 19.4 139.1 22 141.5 23.6L142.5 22.4C141.2 21.5 140.1 20.5 139.3 19.3L139.5 19.1Z" fill="#003477"/>
<path d="M15.5996 8.2999C14.8996 8.5999 14.0996 8.7999 13.2996 8.8999V10.5999H15.3996V11.2999H13.2996V13.2999C14.0996 13.0999 14.8996 12.7999 15.4996 12.5999V13.3999C14.4996 13.7999 13.3996 14.0999 12.2996 14.3999L12.0996 13.6999C12.2996 13.6999 12.3996 13.6999 12.4996 13.6999V8.4999C13.4996 8.3999 14.3996 8.1999 15.1996 7.8999L15.5996 8.4999V8.2999ZM18.8996 13.0999C18.8996 13.2999 18.8996 13.4999 18.6996 13.5999C18.4996 13.6999 18.3996 13.7999 18.2996 13.7999C18.1996 13.7999 17.8996 13.7999 17.5996 13.7999C17.2996 13.7999 17.1996 13.7999 17.0996 13.7999L16.7996 12.9999C16.9996 12.9999 17.2996 12.9999 17.8996 12.9999C18.4996 12.9999 18.0996 12.9999 18.0996 12.7999V8.5999H16.4996V14.5999H15.7996V7.8999H18.8996V12.9999V13.0999Z" fill="black"/>
<path d="M24.3992 9.99995H21.2992V11.1C21.2992 12.6 21.0992 13.9 20.7992 14.8L20.1992 14.4C20.4992 13.6 20.5992 12.7 20.5992 11.6V7.89995H24.3992V9.99995ZM23.6992 9.39995V8.59995H21.2992V9.39995H23.6992ZM24.3992 13.6C24.3992 13.8 24.3992 14 24.1992 14C23.9992 14 23.8992 14.1 23.5992 14L23.3992 13.4C23.3992 13.4 23.3992 13.4 23.4992 13.4C23.6992 13.4 23.6992 13.4 23.6992 13.2V11.6H23.1992V14.5H22.5992V11.6H22.1992V14H21.5992V10.9H22.6992V10.2H23.2992V10.9H24.3992V13.4V13.6ZM25.5992 13.2H24.8992V8.19995H25.5992V13.2ZM26.8992 14C26.8992 14.3 26.8992 14.5 26.6992 14.6C26.4992 14.7 26.2992 14.7 25.8992 14.7C25.4992 14.7 25.4992 14.7 25.3992 14.7L25.1992 14C25.3992 14 25.5992 14 25.7992 14C25.9992 14 26.0992 14 26.1992 14C26.2992 14 26.1992 14 26.1992 13.8V7.69995H26.8992V14Z" fill="black"/>
<path d="M20.5996 21.1H14.6996V20.7999H17.4996C17.4996 20.5999 17.2996 20.5 17.1996 20.4L17.4996 20.2C17.5996 20.4 17.6996 20.5999 17.7996 20.7999H20.4996V21.1H20.5996ZM20.5996 25.6C20.5996 25.9 20.5996 26.1 20.3996 26.2C20.2996 26.3 20.0996 26.4 19.9996 26.4H17.6996C17.4996 26.4 17.3996 26.4 17.2996 26.2C17.1996 26.1 17.0996 25.9 17.0996 25.7V25.5L14.5996 25.7V25.4L17.0996 25.2V24.7999L14.9996 25V24.7L17.0996 24.5V24.1C16.5996 24.1 16.0996 24.1 15.4996 24.1V23.7999C16.8996 23.7999 18.2996 23.8 19.2996 23.5L19.4996 23.7999C18.8996 23.8999 18.1996 24 17.3996 24.1V24.5L19.9996 24.2999V24.6L17.3996 24.7999V25.2L20.3996 25V25.2999L17.3996 25.5V25.7999C17.3996 25.7999 17.3996 25.9 17.3996 26C17.3996 26 17.4996 26 17.5996 26H19.6996C19.9996 26 20.0996 25.8 20.0996 25.4H20.3996L20.5996 25.6ZM20.4996 24H20.0996V23.2999H15.0996V24H14.6996V23H20.4996V24ZM19.8996 22.6H15.1996V21.6H19.8996V22.6ZM19.5996 22.2999V21.9H15.6996V22.2999H19.5996Z" fill="#AA8420" stroke="#AA8420" stroke-width="0.1" stroke-miterlimit="10"/>
<path d="M23.7 23.9999C23.3 24.7999 22.6 25.4999 21.8 26.0999L21.5 25.7999C22.3 25.1999 22.9 24.5999 23.3 23.7999L23.6 23.9999H23.7ZM27.6 23.1999H24.8V26.4999H24.4V23.1999H21.6V22.7999H24.4V20.2999H24.8V22.7999H27.6V23.1999ZM23.3 22.0999L23 22.2999C22.8 21.8999 22.5 21.3999 22.1 20.8999L22.4 20.6999C22.8 21.1999 23.1 21.5999 23.3 22.0999ZM27.6 25.7999L27.3 26.0999C26.9 25.3999 26.3 24.6999 25.5 24.0999L25.8 23.8999C26.4 24.3999 27 25.0999 27.6 25.8999V25.7999ZM27 20.7999C26.7 21.3999 26.4 21.8999 26.1 22.2999L25.7 22.0999C26 21.7999 26.3 21.2999 26.6 20.5999L26.9 20.7999H27Z" fill="#AA8420" stroke="#AA8420" stroke-width="0.1" stroke-miterlimit="10"/>
<path d="M164.599 13.6C163.599 14 162.699 14.4 161.899 14.6L161.699 14C162.399 13.8 163.299 13.5 164.399 13L164.599 13.6ZM164.499 9.29995C163.999 10.4 163.399 11.3 162.799 12.2C163.099 12.2 163.599 11.9 164.199 11.7L164.399 12.4C163.599 12.7 162.799 13 161.999 13.2L161.799 12.6C162.299 12.1 162.699 11.5 163.099 10.8C162.699 10.8 162.399 11 161.999 11L161.799 10.4C162.299 9.69995 162.799 8.89995 163.199 7.79995L163.799 7.99995C163.499 8.79995 163.199 9.49995 162.699 10.1C162.899 10.1 163.199 10.1 163.499 9.89995C163.699 9.69995 163.799 9.39995 163.899 8.99995L164.499 9.29995ZM168.799 13.2C168.699 14.2 168.299 14.7 167.799 14.7C167.299 14.7 167.399 14.7 167.199 14.4C166.999 14.2 166.799 14 166.599 13.6C165.999 14 165.299 14.3 164.499 14.7L164.099 14.1C164.999 13.8 165.699 13.4 166.299 13C166.099 12.5 165.999 12 165.899 11.5L164.499 11.7V11L165.899 10.8C165.899 10.4 165.899 10.1 165.899 9.89995H164.799C164.799 9.99995 164.799 9.39995 164.799 9.39995H165.899C165.899 9.29995 165.899 7.69995 165.899 7.69995H166.599C166.599 7.99995 166.599 8.49995 166.599 9.19995L168.499 8.99995V9.59995L166.599 9.89995C166.599 10.2 166.599 10.5 166.599 10.8L168.699 10.5V11.2C168.799 11.2 166.599 11.5 166.599 11.5C166.599 11.9 166.699 12.3 166.799 12.7C167.099 12.4 167.399 12.1 167.799 11.6L168.299 11.9C167.999 12.4 167.499 12.9 167.099 13.3C167.199 13.5 167.399 13.7 167.499 13.8C167.599 13.9 167.699 14 167.799 14C167.799 14 167.799 13.9 167.899 13.6C167.899 13.4 167.999 13.2 167.999 12.9L168.599 13.2H168.799ZM168.199 8.39995L167.799 8.89995C167.499 8.59995 167.199 8.39995 166.799 8.29995L167.199 7.79995C167.599 7.99995 167.899 8.19995 168.199 8.49995V8.39995Z" fill="black"/>
<path d="M176.699 14.5H169.699V13.8H172.599V7.69995H173.299V10.1H176.299V10.8H173.299V13.8H176.699V14.5Z" fill="black"/>
<path d="M176.2 20.2C176.2 20.5 176 20.9 175.9 21.2L175.7 21.7V26.2H175.4V22.4C175.2 22.8 175 23.1 174.8 23.3L174.5 23C175.1 22.3 175.5 21.3 175.9 20H176.2V20.2ZM180.7 25.7L180.5 26C180.1 25.8 179.6 25.4 179.1 24.9C179.1 25.1 179.1 25.2 179.1 25.3C179.1 25.6 179.1 25.8 179 25.9C179 26 178.8 26.1 178.7 26.2C178.6 26.3 178.3 26.2 178 26.2C177.7 26.2 177.8 26.2 177.7 26.2V25.9C178.2 25.9 178.5 25.9 178.6 25.9C178.7 25.9 178.8 25.7 178.8 25.4C178.8 25.1 178.8 25.1 178.8 24.9C178.2 25.3 177.4 25.7 176.3 26.1L176.1 25.8C177.2 25.5 178.1 25.1 178.7 24.6C178.7 24.6 178.7 24.4 178.5 24.2C177.9 24.6 177.2 25 176.3 25.2L176.1 24.9C177.1 24.6 177.8 24.3 178.4 23.9C178.4 23.8 178.2 23.7 178.1 23.6C177.6 23.9 177 24.1 176.2 24.3L176 24C176.8 23.9 177.5 23.6 178.1 23.2H176.7V22C176.6 22.1 176.4 22.2 176.3 22.3L176.1 22C176.9 21.4 177.5 20.9 177.8 20.3L178.1 20.5C178.1 20.6 178 20.7 177.9 20.8H179.6V21.1C179.4 21.3 179.2 21.6 179 21.8H180.3V23.1H178.7C178.6 23.2 178.5 23.3 178.4 23.4C178.6 23.7 178.8 23.9 179 24.3C179.4 24.1 179.8 23.8 180.3 23.4L180.6 23.6C180.2 23.9 179.8 24.2 179.3 24.5C179.8 25.1 180.4 25.5 180.9 25.8L180.7 25.7ZM179.1 20.9H177.6C177.3 21.2 177.1 21.4 176.8 21.6H178.5C178.8 21.3 179 21.1 179.1 20.9ZM178.3 22.7V22H177V22.7H178.3ZM179.9 22.7V22H178.6V22.7H179.9Z" fill="#AA8420" stroke="#AA8420" stroke-width="0.1" stroke-miterlimit="10"/>
<path d="M187.7 22.5H184.8C184.3 22.9 183.8 23.1 183.3 23.3H184.4C185.1 23.3 185.5 23.3 185.5 23.3C185.8 23.2 186 23 186.4 22.8L186.7 23C185.5 23.7 184.4 24.2 183.2 24.5C184.4 24.5 185.6 24.5 186.7 24.3C186.5 24.1 186.4 24 186.2 23.8L186.5 23.6C187 24 187.4 24.5 187.7 24.9L187.4 25.1C187.2 24.9 187.1 24.7 187 24.6C186.3 24.6 185.6 24.7 184.9 24.7V25.7C184.9 25.9 184.9 26 184.7 26.1C184.6 26.1 184.4 26.2 184 26.2C183.6 26.2 183.8 26.2 183.8 26.2V25.8C183.8 25.8 184 25.8 184.1 25.8C184.3 25.8 184.4 25.8 184.4 25.8C184.4 25.8 184.4 25.8 184.4 25.7V24.7C183.8 24.7 183 24.7 182 24.7V24.4C182.9 24.2 183.8 23.9 184.7 23.5C184.2 23.5 183.6 23.5 183 23.5C182.4 23.5 182.6 23.5 182.5 23.5V23.2C183 23 183.6 22.7 184.1 22.4H181.5V22.1H184.4V21.5H182.2V21.2H184.4V20.7H181.8V20.4H184.4V20H184.8V20.4H187.3V20.7H184.8V21.2H186.9V21.5H184.8V22.1H187.6V22.4L187.7 22.5ZM183.7 25.2C183.3 25.5 182.7 25.9 181.9 26.2L181.7 25.9C182.4 25.6 183 25.3 183.5 25L183.8 25.3L183.7 25.2ZM187.6 25.9L187.4 26.2C186.9 25.8 186.3 25.5 185.6 25.2L185.8 24.9C186.5 25.2 187.1 25.5 187.6 25.9Z" fill="#AA8420" stroke="#AA8420" stroke-width="0.1" stroke-miterlimit="10"/>
</svg>
