<svg width="279" height="63" viewBox="0 0 279 63" fill="none" xmlns="http://www.w3.org/2000/svg">
<path d="M44.0002 63H36.7002V0H44.0002V0.2H36.9002V62.7H44.0002V62.9V63Z" fill="#231815"/>
<path d="M240.8 63H233.5V62.8H240.6V0.2H233.5V0H240.8V63Z" fill="#231815"/>
<path d="M51.4004 41.7998H53.4004V49.1998H54.4004V41.7998H56.4004V40.7998H51.4004V41.7998Z" fill="#003477"/>
<path d="M62.2998 44.1998H58.2998V40.7998H57.2998V49.1998H58.2998V45.1998H62.2998V49.1998H63.2998V40.7998H62.2998V44.1998Z" fill="#003477"/>
<path d="M69.5 48.2998H66V45.0998H69.4V44.0998H66V41.7998H69.5V40.7998H65V49.1998H69.5V48.1998V48.2998Z" fill="#003477"/>
<path d="M79.2002 44.1998H75.2002V40.7998H74.2002V49.1998H75.2002V45.1998H79.2002V49.1998H80.2002V40.7998H79.2002V44.1998Z" fill="#003477"/>
<path d="M90.0998 45.0001C90.0998 42.6001 88.0998 40.6001 85.6998 40.6001C83.2998 40.6001 81.2998 42.6001 81.2998 45.0001C81.2998 47.4001 83.2998 49.4001 85.6998 49.4001C88.0998 49.4001 90.0998 47.5001 90.0998 45.0001ZM85.6998 48.4001C83.8998 48.4001 82.3998 46.9001 82.3998 45.0001C82.3998 43.1001 83.7998 41.6001 85.6998 41.6001C87.5998 41.6001 88.9998 43.1001 88.9998 45.0001C88.9998 46.9001 87.4998 48.4001 85.6998 48.4001Z" fill="#003477"/>
<path d="M92.0996 42.9999L98.3996 49.5999V40.7999H97.3996V46.9999L91.0996 40.3999V49.1999H92.0996V42.8999V42.9999Z" fill="#003477"/>
<path d="M103.8 49.3998C106.1 49.3998 107.8 47.5998 107.8 45.2998V44.9998H104.5V45.9998H106.7C106.7 47.3998 105.3 48.4998 103.9 48.4998C102.5 48.4998 100.6 46.7998 100.6 45.0998C100.6 43.3998 102.1 41.6998 103.9 41.6998C105.7 41.6998 105.9 42.1998 106.5 43.0998L107.2 42.3998C106.4 41.3998 105.1 40.7998 103.8 40.7998C101.4 40.7998 99.4004 42.7998 99.4004 45.1998C99.4004 47.5998 101.3 49.5998 103.6 49.5998L103.8 49.3998Z" fill="#003477"/>
<path d="M113.3 45.6998L113.7 45.2998L116.9 49.1998H118.3L114.4 44.5998L118.2 40.7998H116.8L113.2 44.3998V40.7998H112.1V49.1998H113.2V45.6998H113.3Z" fill="#003477"/>
<path d="M122.8 49.4001C125.2 49.4001 127.2 47.5001 127.2 45.0001C127.2 42.5001 125.2 40.6001 122.8 40.6001C120.4 40.6001 118.4 42.6001 118.4 45.0001C118.4 47.4001 120.4 49.4001 122.8 49.4001ZM122.8 41.6001C124.8 41.6001 126.2 43.1001 126.2 45.0001C126.2 46.9001 124.7 48.4001 122.8 48.4001C120.9 48.4001 119.5 46.9001 119.5 45.0001C119.5 43.1001 120.9 41.6001 122.8 41.6001Z" fill="#003477"/>
<path d="M135.6 40.7999H134.6V46.9999L128.3 40.3999V49.1999H129.3V42.8999L135.6 49.4999V40.6999V40.7999Z" fill="#003477"/>
<path d="M141.5 45.9998H143.7C143.7 47.3998 142.3 48.4998 140.9 48.4998C139.5 48.4998 137.6 46.7998 137.6 45.0998C137.6 43.3998 139.1 41.6998 141 41.6998C142.9 41.6998 143 42.1998 143.6 43.0998L144.3 42.3998C143.5 41.3998 142.2 40.7998 140.9 40.7998C138.5 40.7998 136.5 42.7998 136.5 45.1998C136.5 47.5998 138.4 49.5998 140.7 49.5998C143 49.5998 144.7 47.7998 144.7 45.4998V45.1998H141.4V46.1998L141.5 45.9998Z" fill="#003477"/>
<path d="M155.4 46.1999V40.8999H154.4V45.8999C154.4 47.2999 154 48.4999 152.4 48.4999C150.8 48.4999 150.4 47.1999 150.4 45.8999V40.8999H149.4V46.1999C149.4 47.9999 150.5 49.4999 152.5 49.4999C154.5 49.4999 155.6 48.0999 155.6 46.1999H155.4Z" fill="#003477"/>
<path d="M164.2 40.7999H163.2V46.9999L156.9 40.3999V49.1999H157.9V42.8999L164.2 49.4999V40.6999V40.7999Z" fill="#003477"/>
<path d="M166.8 40.7998H165.8V49.1998H166.8V40.7998Z" fill="#003477"/>
<path d="M174.9 40.7998H173.8L171.3 46.9998L168.8 40.7998H167.6L171.3 49.5998L174.9 40.7998Z" fill="#003477"/>
<path d="M180.2 48.2998H176.7V45.0998H180.1V44.0998H176.7V41.7998H180.2V40.7998H175.7V49.1998H180.2V48.1998V48.2998Z" fill="#003477"/>
<path d="M182.7 45.7002H183.1L185.6 49.2002H186.9L184.3 45.5002C185.5 45.4002 186.3 44.3002 186.3 43.1002C186.3 41.9002 185.9 41.5002 185.2 41.1002C184.5 40.7002 183.7 40.7002 183 40.7002H181.7V49.1002H182.8V45.6002L182.7 45.7002ZM182.7 41.8002H183C184 41.8002 185.3 42.0002 185.3 43.3002C185.3 44.6002 184.1 44.8002 183.1 44.8002H182.8V41.8002H182.7Z" fill="#003477"/>
<path d="M190 48.4001C189.1 48.4001 188.4 47.7001 188.4 46.8001L187.3 47.0001C187.5 48.3001 188.5 49.3001 189.9 49.3001C191.3 49.3001 192.6 48.2001 192.6 46.7001C192.6 45.2001 191.7 44.6001 190.5 44.2001L189.9 44.0001C189.4 43.8001 188.7 43.4001 188.7 42.8001C188.7 42.2001 189.4 41.6001 190.1 41.6001C190.8 41.6001 191.1 41.9001 191.4 42.4001L192.2 41.9001C191.7 41.1001 191 40.6001 190 40.6001C189 40.6001 187.5 41.4001 187.5 42.8001C187.5 44.2001 188.4 44.5001 189.3 44.9001L189.9 45.1001C190.6 45.4001 191.3 45.8001 191.3 46.7001C191.3 47.6001 190.6 48.3001 189.7 48.3001L190 48.4001Z" fill="#003477"/>
<path d="M194.9 40.7998H193.8V49.1998H194.9V40.7998Z" fill="#003477"/>
<path d="M198.9 49.1998V41.7998H200.9V40.7998H195.9V41.7998H197.9V49.1998H199H198.9Z" fill="#003477"/>
<path d="M203.7 49.1998H204.8V45.5998L207.6 40.7998H206.4L204.3 44.3998L202.2 40.7998H201L203.7 45.5998V49.1998Z" fill="#003477"/>
<path d="M215.4 40.7002C213 40.7002 211 42.7002 211 45.1002C211 47.5002 213 49.5002 215.4 49.5002C217.8 49.5002 219.8 47.6002 219.8 45.1002C219.8 42.6002 217.8 40.7002 215.4 40.7002ZM215.4 48.4002C213.6 48.4002 212.1 46.9002 212.1 45.0002C212.1 43.1002 213.5 41.6002 215.4 41.6002C217.3 41.6002 218.8 43.1002 218.8 45.0002C218.8 46.9002 217.3 48.4002 215.4 48.4002Z" fill="#003477"/>
<path d="M225 41.7998V40.7998H220.9V49.1998H221.9V45.0998H224.8V44.0998H221.9V41.6998H224.9L225 41.7998Z" fill="#003477"/>
<path d="M67.5 57.6L66.9 57.4C66.4 57.2 65.7 56.9 65.7 56.2C65.7 55.5 66.4 55 67.1 55C67.8 55 68.1 55.3 68.4 55.8L69.2 55.3C68.7 54.5 68 54 67 54C66 54 64.5 54.8 64.5 56.2C64.5 57.6 65.4 57.9 66.3 58.3L66.9 58.5C67.6 58.8 68.3 59.2 68.3 60.1C68.3 61 67.6 61.7 66.7 61.7C65.8 61.7 65.1 61 65.1 60.1L64 60.3C64.2 61.6 65.2 62.6 66.6 62.6C68 62.6 69.3 61.5 69.3 60C69.3 58.5 68.4 57.9 67.2 57.5L67.5 57.6Z" fill="#003477"/>
<path d="M70.4004 58.5001C70.4004 60.9001 72.4004 62.8001 74.8004 62.8001C77.2004 62.8001 76.4004 62.6001 77.0004 62.2001V61.0001C76.4004 61.6001 75.6004 61.9001 74.8004 61.9001C72.9004 61.9001 71.5004 60.3001 71.5004 58.5001C71.5004 56.7001 72.9004 55.1001 74.8004 55.1001C76.7004 55.1001 76.4004 55.4001 77.0004 55.9001V54.7001C76.4004 54.3001 75.6004 54.1001 74.9004 54.1001C72.4004 54.1001 70.4004 56.0001 70.4004 58.5001Z" fill="#003477"/>
<path d="M79.4004 54.2002H78.4004V62.6002H79.4004V54.2002Z" fill="#003477"/>
<path d="M81.0996 62.6H85.5996V61.6H82.0996V58.4H85.4996V57.4H82.0996V55H85.5996V54H81.0996V62.4V62.6Z" fill="#003477"/>
<path d="M93.2004 60.3998L86.9004 53.7998V62.5998H88.0004V56.2998L94.3004 62.8998V54.0998H93.3004V60.2998L93.2004 60.3998Z" fill="#003477"/>
<path d="M95.4004 58.5001C95.4004 60.9001 97.4004 62.8001 99.8004 62.8001C102.2 62.8001 101.4 62.6001 102 62.2001V61.0001C101.4 61.6001 100.6 61.9001 99.8004 61.9001C97.9004 61.9001 96.5004 60.3001 96.5004 58.5001C96.5004 56.7001 97.9004 55.1001 99.8004 55.1001C101.7 55.1001 101.4 55.4001 102 55.9001V54.7001C101.4 54.3001 100.6 54.1001 99.9004 54.1001C97.4004 54.1001 95.4004 56.0001 95.4004 58.5001Z" fill="#003477"/>
<path d="M103.3 62.6H107.8V61.6H104.3V58.4H107.7V57.4H104.3V55H107.8V54H103.3V62.4V62.6Z" fill="#003477"/>
<path d="M111.7 62.5998H112.8L113.8 60.4998H117.7L118.7 62.5998H119.8L115.8 53.7998L111.8 62.5998H111.7ZM114.2 59.5998L115.7 56.1998L117.2 59.5998H114.2Z" fill="#003477"/>
<path d="M126.7 60.3998L120.4 53.7998V62.5998H121.5V56.2998L127.8 62.8998V54.0998H126.8V60.2998L126.7 60.3998Z" fill="#003477"/>
<path d="M131 54.2002H129.3V62.6002H131C133.7 62.6002 135.8 61.2002 135.8 58.4002C135.8 55.6002 133.7 54.2002 131.1 54.2002H131ZM130.7 61.7002H130.3V55.2002H130.7C132.8 55.2002 134.7 56.0002 134.7 58.4002C134.7 60.8002 132.8 61.6002 130.7 61.6002V61.7002Z" fill="#003477"/>
<path d="M139.5 55.2002H141.5V62.6002H142.5V55.2002H144.5V54.2002H139.5V55.2002Z" fill="#003477"/>
<path d="M145.4 62.6H149.9V61.6H146.4V58.4H149.8V57.4H146.4V55H149.9V54H145.4V62.4V62.6Z" fill="#003477"/>
<path d="M150.9 58.5001C150.9 60.9001 152.9 62.8001 155.3 62.8001C157.7 62.8001 156.9 62.6001 157.5 62.2001V61.0001C156.9 61.6001 156.1 61.9001 155.3 61.9001C153.4 61.9001 152 60.3001 152 58.5001C152 56.7001 153.4 55.1001 155.3 55.1001C157.2 55.1001 156.9 55.4001 157.5 55.9001V54.7001C156.9 54.3001 156.1 54.1001 155.4 54.1001C152.9 54.1001 150.9 56.0001 150.9 58.5001Z" fill="#003477"/>
<path d="M163.8 57.6002H159.8V54.2002H158.8V62.6002H159.8V58.6002H163.8V62.6002H164.9V54.2002H163.8V57.6002Z" fill="#003477"/>
<path d="M172.7 60.3998L166.4 53.7998V62.5998H167.5V56.2998L173.8 62.8998V54.0998H172.7V60.2998V60.3998Z" fill="#003477"/>
<path d="M179.1 54C176.7 54 174.7 56 174.7 58.4C174.7 60.8 176.7 62.8 179.1 62.8C181.5 62.8 183.5 60.9 183.5 58.4C183.5 55.9 181.5 54 179.1 54ZM179.1 61.8C177.3 61.8 175.7 60.3 175.7 58.4C175.7 56.5 177.1 55 179.1 55C181.1 55 182.5 56.5 182.5 58.4C182.5 60.3 181 61.8 179.1 61.8Z" fill="#003477"/>
<path d="M185.7 54.2001H184.6V62.6001H188.2V61.6001H185.6V54.1001L185.7 54.2001Z" fill="#003477"/>
<path d="M192.9 54C190.5 54 188.5 56 188.5 58.4C188.5 60.8 190.5 62.8 192.9 62.8C195.3 62.8 197.3 60.9 197.3 58.4C197.3 55.9 195.3 54 192.9 54ZM192.9 61.8C191.1 61.8 189.5 60.3 189.5 58.4C189.5 56.5 190.9 55 192.9 55C194.9 55 196.3 56.5 196.3 58.4C196.3 60.3 194.8 61.8 192.9 61.8Z" fill="#003477"/>
<path d="M202.7 59.3001H204.9C204.9 60.7001 203.5 61.8001 202.1 61.8001C200.7 61.8001 198.8 60.1001 198.8 58.4001C198.8 56.7001 200.3 55.0001 202.2 55.0001C204.1 55.0001 204.2 55.5001 204.8 56.4001L205.5 55.7001C204.7 54.7001 203.4 54.1001 202.1 54.1001C199.7 54.1001 197.7 56.1001 197.7 58.5001C197.7 60.9001 199.6 62.9001 201.9 62.9001C204.2 62.9001 205.9 61.1001 205.9 58.8001V58.5001H202.6V59.5001L202.7 59.3001Z" fill="#003477"/>
<path d="M209.6 57.8002L207.5 54.2002H206.3L209 59.0002V62.7002H210.1V59.0002L212.8 54.2002H211.6L209.5 57.8002H209.6Z" fill="#003477"/>
<path d="M143.5 7.3002C143.7 7.1002 143.7 6.7002 143.7 6.7002H133.6C133.6 6.7002 133.7 7.1002 133.8 7.3002H143.4H143.5Z" fill="#AA8420"/>
<path d="M142.9 8.1001C143.1 7.9001 143.3 7.6001 143.3 7.6001H134.1C134.1 7.6001 134.2 7.8001 134.4 8.1001H142.9Z" fill="#AA8420"/>
<path d="M142.2 8.9C142.4 8.8 142.6 8.5 142.6 8.5H134.7C134.7 8.5 134.9 8.7 135.1 8.9H142.2Z" fill="#AA8420"/>
<path d="M141.2 9.5998C141.4 9.5998 141.7 9.2998 141.7 9.2998H135.5C135.5 9.2998 135.5 9.2998 135.9 9.5998H141.1H141.2Z" fill="#AA8420"/>
<path d="M136.7 10.1001C136.7 10.1001 137.4 10.5001 138.6 10.5001C139.8 10.5001 140.7 10.1001 140.7 10.1001H136.7Z" fill="#AA8420"/>
<path d="M136.6 10.9999C136.6 10.9999 137.4 10.9999 137.8 11.3999C138.2 11.7999 138.6 12.3999 138.6 12.3999C138.6 12.3999 138.9 11.7999 139.3 11.4999C139.7 11.1999 140.5 10.9999 140.5 10.9999H148.4L150 13.2999H142.9C142.9 13.2999 142.4 13.2999 141.7 13.7999C141.3 13.9999 141 14.3999 141 14.3999C141 14.3999 141 14.5999 140.9 14.6999C140.9 14.7999 140.7 14.8999 140.7 14.8999H137C137 14.8999 136.9 14.8999 136.8 14.6999C136.8 14.5999 136.8 14.6999 136.8 14.4999C136.8 14.4999 136.6 14.0999 136 13.6999C135.4 13.2999 134.8 13.2999 134.8 13.2999H127.5L129.1 10.8999H136.9L136.6 10.9999Z" fill="#003477"/>
<path d="M131 14.2002V26.1002C131 26.1002 131 27.1002 131.9 28.6002C132.8 30.0002 134 30.7002 134 30.7002L135 29.1002C135 29.1002 134.1 28.6002 133.5 27.6002C132.8 26.6002 132.8 25.7002 132.8 25.7002V14.3002H130.9L131 14.2002Z" fill="#003477"/>
<path d="M144.4 14.2002V25.6002C144.4 25.6002 144.3 26.7002 143.7 27.6002C143.2 28.4002 142.3 29.1002 142.3 29.1002L143.3 30.6002C143.3 30.6002 144.8 29.5002 145.5 28.4002C146.2 27.3002 146.4 25.6002 146.4 25.6002V14.2002H144.5H144.4Z" fill="#003477"/>
<path d="M128 14.2002V26.1002C128 26.1002 128.1 27.9002 129.3 29.9002C130.5 31.9002 132.5 33.2002 132.5 33.2002L133.5 31.6002C133.5 31.6002 132.2 30.9002 131.1 29.3002C130 27.7002 130 26.2002 130 26.2002V14.3002H128.1L128 14.2002Z" fill="#003477"/>
<path d="M136.6 15.5V28.1C136.6 28.1 136.6 28.1 136.6 28.3C136.6 28.5 136.5 28.6 136.5 28.6L132.3 35.5H145.2L141 28.4V28.1C140.9 28.1 140.8 27.8 140.8 27.8V15.5H139.2V28.3C139.2 28.3 139.2 28.5 139.2 28.6C139.2 28.7 139.3 29 139.3 29L141.9 33.3H135.3L137.8 29.1C137.8 29.1 137.8 29 137.9 28.7C137.9 28.5 137.9 28.3 137.9 28.3V15.5H136.4H136.6Z" fill="#AA8420"/>
<path d="M147.3 14.2002V25.9002C147.3 25.9002 147.3 27.4002 146.2 29.1002C145.1 30.8002 143.8 31.6002 143.8 31.6002L144.7 33.2002C144.7 33.2002 146.6 32.0002 147.8 30.1002C149 28.2002 149.1 26.0002 149.1 26.0002V14.3002H147.2L147.3 14.2002Z" fill="#003477"/>
<path d="M133.6 6.4C133.6 6.4 133 2.9 135.5 1.1C135.5 1.1 136.7 0 138.6 0C140.5 0 141.8 1.1 141.8 1.1C144.6 3.2 143.8 6.4 143.8 6.4H133.6Z" fill="#AA8420"/>
<path d="M4.80039 44.2002V44.9002H0.900391V44.2002H2.50039V38.8002L1.00039 39.7002V38.9002L2.80039 37.7002H3.30039V44.1002H4.90039L4.80039 44.2002Z" fill="#AA8420"/>
<path d="M10.1004 40.6999C10.4004 40.8999 10.7004 41.1999 10.9004 41.4999C11.1004 41.7999 11.2004 42.1999 11.2004 42.6999C11.2004 43.1999 11.2004 43.4999 10.9004 43.8999C10.7004 44.2999 10.4004 44.4999 10.1004 44.6999C9.70039 44.8999 9.30039 44.9999 8.80039 44.9999C8.30039 44.9999 7.90039 44.9999 7.50039 44.7999C7.10039 44.5999 6.70039 44.3999 6.40039 44.1999L6.70039 43.5999C7.40039 44.0999 8.00039 44.3999 8.70039 44.3999C9.40039 44.3999 9.60039 44.2999 9.90039 43.9999C10.2004 43.6999 10.3004 43.2999 10.3004 42.7999C10.3004 42.2999 10.2004 41.9999 9.90039 41.6999C9.60039 41.3999 9.20039 41.2999 8.80039 41.2999C8.10039 41.2999 7.60039 41.5999 7.20039 42.0999H6.60039V37.8999H10.9004V38.5999H7.50039V41.0999C7.90039 40.6999 8.40039 40.4999 9.00039 40.4999C9.60039 40.4999 9.80039 40.4999 10.2004 40.7999L10.1004 40.6999Z" fill="#AA8420"/>
<path d="M250.9 37.7002V38.3002L247.6 44.8002H246.7L250 38.4002H246.2V37.7002H250.9Z" fill="#AA8420"/>
<path d="M256.1 40.6999C256.4 40.8999 256.7 41.1999 256.9 41.4999C257.1 41.7999 257.2 42.1999 257.2 42.6999C257.2 43.1999 257.2 43.4999 256.9 43.8999C256.7 44.2999 256.4 44.4999 256.1 44.6999C255.7 44.8999 255.3 44.9999 254.8 44.9999C254.3 44.9999 253.9 44.9999 253.5 44.7999C253.1 44.5999 252.7 44.3999 252.4 44.1999L252.7 43.5999C253.4 44.0999 254 44.3999 254.7 44.3999C255.4 44.3999 255.6 44.2999 255.9 43.9999C256.2 43.6999 256.3 43.2999 256.3 42.7999C256.3 42.2999 256.2 41.9999 255.9 41.6999C255.6 41.3999 255.2 41.2999 254.8 41.2999C254.1 41.2999 253.6 41.5999 253.2 42.0999H252.6V37.8999H256.9V38.5999H253.5V41.0999C253.9 40.6999 254.4 40.4999 255 40.4999C255.6 40.4999 255.8 40.4999 256.2 40.7999L256.1 40.6999Z" fill="#AA8420"/>
<path d="M17 26.5001C16.3 26.8001 15.5 27.0001 14.7 27.1001V28.8001H16.8V29.5001H14.7V31.5001C15.5 31.3001 16.3 31.0001 16.9 30.8001V31.6001C15.9 32.0001 14.8 32.3001 13.7 32.6001L13.5 31.9001C13.7 31.9001 13.8 31.9001 13.9 31.9001V26.7001C14.9 26.6001 15.8 26.4001 16.6 26.1001L17 26.7001V26.5001ZM20.4 31.3001C20.4 31.5001 20.4 31.7001 20.2 31.8001C20 31.9001 19.9 32.0001 19.8 32.0001C19.7 32.0001 19.4 32.0001 19.1 32.0001C18.8 32.0001 18.7 32.0001 18.6 32.0001L18.3 31.2001C18.5 31.2001 18.8 31.2001 19.4 31.2001C20 31.2001 19.6 31.2001 19.6 31.0001V26.8001H18V32.8001H17.3V26.1001H20.4V31.2001V31.3001Z" fill="black"/>
<path d="M25.7996 28.3H22.6996V29.4C22.6996 30.9 22.4996 32.2 22.1996 33.1L21.5996 32.7C21.8996 31.9 21.9996 31 21.9996 29.9V26.2H25.7996V28.3ZM25.0996 27.6V26.8H22.6996V27.6H25.0996ZM25.7996 31.8C25.7996 32 25.7996 32.2 25.5996 32.2C25.3996 32.2 25.2996 32.3 24.9996 32.2L24.7996 31.6C24.7996 31.6 24.7996 31.6 24.8996 31.6C25.0996 31.6 25.0996 31.6 25.0996 31.4V29.8H24.5996V32.7H23.9996V29.8H23.5996V32.2H22.9996V29.1H24.0996V28.4H24.6996V29.1H25.7996V31.6V31.8ZM26.9996 31.5H26.2996V26.5H26.9996V31.5ZM28.3996 32.3C28.3996 32.6 28.3996 32.8 28.1996 32.9C27.9996 32.9 27.7996 33 27.3996 33C26.9996 33 26.9996 33 26.8996 33L26.6996 32.3C26.8996 32.3 27.0996 32.3 27.2996 32.3C27.4996 32.3 27.5996 32.3 27.6996 32.3C27.7996 32.3 27.6996 32.3 27.6996 32.1V26H28.3996V32.3Z" fill="black"/>
<path d="M21.3004 39.5997H15.4004V39.2997H18.2004C18.2004 39.0997 18.0004 38.9997 17.9004 38.8997L18.2004 38.6997C18.3004 38.8997 18.4004 39.0997 18.5004 39.2997H21.2004V39.5997H21.3004ZM21.4004 43.9997C21.4004 44.2997 21.4004 44.4997 21.2004 44.5997C21.1004 44.6997 20.9004 44.7997 20.8004 44.7997H18.5004C18.3004 44.7997 18.2004 44.7997 18.1004 44.5997C18.0004 44.4997 17.9004 44.2997 17.9004 44.0997V43.8997L15.4004 44.0997V43.7997L17.9004 43.5997V43.1997L15.8004 43.3997V43.0997L17.9004 42.8997V42.4997C17.4004 42.4997 16.9004 42.4997 16.3004 42.4997V42.1997C17.7004 42.1997 19.1004 42.1997 20.1004 41.8997L20.3004 42.1997C19.7004 42.2997 19.0004 42.3997 18.2004 42.4997V42.8997L20.8004 42.6997V42.9997L18.2004 43.1997V43.5997L21.2004 43.3997V43.6997L18.2004 43.8997V44.1997C18.2004 44.1997 18.2004 44.2997 18.2004 44.3997C18.2004 44.3997 18.3004 44.3997 18.4004 44.3997H20.5004C20.8004 44.3997 20.9004 44.1997 20.9004 43.7997H21.2004L21.4004 43.9997ZM21.2004 42.3997H20.8004V41.6997H15.8004V42.3997H15.4004V41.3997H21.2004V42.3997ZM20.7004 40.9997H16.0004V39.9997H20.7004V40.9997ZM20.3004 40.6997V40.2997H16.4004V40.6997H20.3004Z" fill="#AA8420" stroke="#AA8420" stroke-width="0.1" stroke-miterlimit="10"/>
<path d="M24.4002 42.4997C24.0002 43.2997 23.3002 43.9997 22.5002 44.5997L22.2002 44.2997C23.0002 43.6997 23.6002 43.0997 24.0002 42.2997L24.3002 42.4997H24.4002ZM28.3002 41.5997H25.5002V44.8997H25.1002V41.5997H22.3002V41.1997H25.1002V38.6997H25.5002V41.1997H28.3002V41.5997ZM24.1002 40.5997L23.8002 40.7997C23.6002 40.3997 23.3002 39.8997 22.9002 39.3997L23.2002 39.1997C23.6002 39.6997 23.9002 40.0997 24.1002 40.5997ZM28.4002 44.1997L28.1002 44.4997C27.7002 43.7997 27.1002 43.0997 26.3002 42.4997L26.6002 42.2997C27.2002 42.7997 27.8002 43.4997 28.4002 44.2997V44.1997ZM27.7002 39.2997C27.4002 39.8997 27.1002 40.3997 26.8002 40.7997L26.4002 40.5997C26.7002 40.2997 27.0002 39.7997 27.3002 39.0997L27.6002 39.2997H27.7002Z" fill="#AA8420" stroke="#AA8420" stroke-width="0.1" stroke-miterlimit="10"/>
<path d="M247.2 31.0999C247.1 31.7999 246.9 32.4999 246.7 32.9999L246.1 32.7999C246.3 32.1999 246.5 31.5999 246.6 30.9999H247.2V31.0999ZM249.1 27.4999C248.5 28.5999 247.9 29.3999 247.3 30.0999C247.5 30.0999 247.8 29.9999 248.2 29.8999C248.2 29.7999 248.2 29.5999 248 29.4999L248.5 29.2999C248.7 29.6999 248.9 30.1999 249 30.5999L248.5 30.7999C248.5 30.5999 248.5 30.4999 248.5 30.3999C247.9 30.5999 247.3 30.6999 246.5 30.7999V30.1999C246.8 29.7999 247.3 29.2999 247.7 28.5999C247.4 28.5999 247 28.6999 246.5 28.7999V28.2999C246.9 27.6999 247.4 26.8999 247.8 25.8999L248.4 26.0999C248.1 26.7999 247.7 27.3999 247.3 28.0999C247.6 28.0999 247.9 28.0999 248.1 27.9999C248.3 27.7999 248.4 27.4999 248.6 27.1999L249.2 27.3999L249.1 27.4999ZM248.3 32.6999H247.7C247.7 32.2999 247.7 31.6999 247.5 31.0999H248.1C248.2 31.5999 248.3 32.0999 248.3 32.6999ZM249.2 31.6999L248.7 31.8999C248.7 31.5999 248.5 31.2999 248.4 30.9999L248.9 30.7999C249 31.0999 249.1 31.3999 249.2 31.6999ZM250.5 29.7999C250.5 30.7999 250.1 31.7999 249.1 32.7999L248.6 32.3999C249.3 31.7999 249.7 31.1999 249.9 30.4999H249.1V29.8999H250.6L250.5 29.7999ZM253.3 32.1999L252.8 32.7999C252.3 32.3999 251.9 31.8999 251.4 31.0999V32.2999C251.4 32.4999 251.4 32.6999 251.1 32.7999C250.9 32.8999 250.5 32.9999 250 32.9999L249.8 32.2999C250.2 32.2999 250.4 32.2999 250.5 32.2999C250.6 32.2999 250.7 32.2999 250.7 32.1999V29.2999H249.2V26.6999H250.2C250.3 26.4999 250.5 26.1999 250.6 25.9999L251.3 26.1999C251.3 26.3999 251.1 26.5999 251 26.7999H252.8V29.3999H251.4V29.9999C251.4 30.0999 251.5 30.2999 251.7 30.3999C251.9 30.1999 252.2 29.9999 252.5 29.5999L253 29.9999C252.7 30.2999 252.4 30.5999 252 30.8999C252.3 31.2999 252.7 31.6999 253.2 32.1999H253.3ZM252.1 27.6999V27.1999H249.9V27.6999H252.1ZM252.1 28.6999V28.1999H249.9V28.6999H252.1Z" fill="black"/>
<path d="M261.1 32.8H254.1V32.1H257V26H257.7V28.4H260.7V29.1H257.7V32.1H261.1V32.8Z" fill="black"/>
<path d="M262 38.8997C262 39.1997 261.8 39.5997 261.7 39.8997L261.5 40.3997V44.8997H261.2V41.0997C261 41.4997 260.8 41.7997 260.6 41.9997L260.3 41.6997C260.9 40.9997 261.3 39.9997 261.7 38.6997H262V38.8997ZM266.5 44.2997L266.3 44.5997C265.9 44.3997 265.4 43.9997 264.9 43.4997C264.9 43.6997 264.9 43.7997 264.9 43.8997C264.9 44.1997 264.9 44.3997 264.8 44.4997C264.8 44.5997 264.6 44.6997 264.5 44.7997C264.4 44.7997 264.1 44.7997 263.8 44.7997C263.5 44.7997 263.6 44.7997 263.5 44.7997V44.4997C264 44.4997 264.3 44.4997 264.4 44.4997C264.5 44.4997 264.6 44.2997 264.6 43.9997C264.6 43.6997 264.6 43.6997 264.6 43.4997C264 43.8997 263.2 44.2997 262.1 44.6997L261.9 44.3997C263 44.0997 263.9 43.6997 264.5 43.1997C264.5 43.1997 264.5 42.9997 264.3 42.7997C263.7 43.1997 263 43.5997 262.1 43.7997L261.9 43.4997C262.9 43.1997 263.6 42.8997 264.2 42.4997C264.2 42.3997 264 42.2997 263.9 42.1997C263.4 42.4997 262.8 42.6997 262 42.8997L261.8 42.5997C262.6 42.4997 263.3 42.1997 263.9 41.7997H262.5V40.5997C262.4 40.6997 262.2 40.7997 262.1 40.8997L261.9 40.5997C262.7 39.9997 263.3 39.4997 263.6 38.8997L263.9 39.0997C263.9 39.1997 263.8 39.2997 263.7 39.3997H265.4V39.6997C265.2 39.8997 265 40.1997 264.8 40.3997H266.1V41.6997H264.5C264.4 41.7997 264.3 41.8997 264.2 41.9997C264.4 42.2997 264.6 42.4997 264.8 42.8997C265.2 42.6997 265.6 42.3997 266.1 41.9997L266.4 42.1997C266 42.4997 265.6 42.7997 265.1 43.0997C265.6 43.6997 266.2 44.0997 266.7 44.3997L266.5 44.2997ZM264.9 39.5997H263.4C263.1 39.8997 262.9 40.0997 262.6 40.2997H264.3C264.5 39.9997 264.8 39.7997 264.9 39.5997ZM264.1 41.2997V40.5997H262.8V41.2997H264.1ZM265.7 41.2997V40.5997H264.4V41.2997H265.7Z" fill="#AA8420" stroke="#AA8420" stroke-width="0.1" stroke-miterlimit="10"/>
<path d="M273.5 41.1997H270.6C270.1 41.5997 269.6 41.7997 269.1 41.9997H270.2C270.9 41.9997 271.3 41.9997 271.3 41.9997C271.6 41.8997 271.8 41.6997 272.2 41.4997L272.5 41.6997C271.3 42.3997 270.2 42.8997 269 43.1997C270.2 43.1997 271.4 43.1997 272.5 42.9997C272.3 42.7997 272.2 42.6997 272 42.4997L272.3 42.2997C272.8 42.6997 273.2 43.1997 273.5 43.5997L273.2 43.7997C273 43.5997 272.9 43.3997 272.8 43.2997C272.1 43.2997 271.4 43.3997 270.7 43.3997V44.3997C270.7 44.5997 270.7 44.6997 270.5 44.7997C270.4 44.7997 270.2 44.8997 269.8 44.8997C269.4 44.8997 269.6 44.8997 269.6 44.8997V44.4997C269.6 44.4997 269.8 44.4997 269.9 44.4997C270.1 44.4997 270.2 44.4997 270.2 44.4997C270.2 44.4997 270.2 44.4997 270.2 44.3997V43.3997C269.6 43.3997 268.8 43.3997 267.8 43.3997V43.0997C268.7 42.8997 269.6 42.5997 270.5 42.1997C270 42.1997 269.4 42.1997 268.8 42.1997C268.2 42.1997 268.4 42.1997 268.3 42.1997V41.8997C268.8 41.6997 269.4 41.3997 269.9 41.0997H267.3V40.7997H270.2V40.1997H268V39.8997H270.2V39.3997H267.6V39.0997H270.2V38.6997H270.6V39.0997H273.1V39.3997H270.6V39.8997H272.7V40.1997H270.6V40.7997H273.4V41.0997L273.5 41.1997ZM269.5 43.8997C269.1 44.1997 268.5 44.5997 267.7 44.8997L267.5 44.5997C268.2 44.2997 268.8 43.9997 269.3 43.6997L269.6 43.9997L269.5 43.8997ZM273.4 44.5997L273.2 44.8997C272.7 44.4997 272.1 44.1997 271.4 43.8997L271.6 43.5997C272.3 43.8997 272.9 44.1997 273.4 44.5997Z" fill="#AA8420" stroke="#AA8420" stroke-width="0.1" stroke-miterlimit="10"/>
</svg>
