<svg width="215" height="22" viewBox="0 0 215 22" fill="none" xmlns="http://www.w3.org/2000/svg">
<path d="M45 20.8H38V0H45V0.2H38.3V20.4H45V20.6V20.8Z" fill="#231815"/>
<path d="M173.9 20.8H166.9V20.6H173.6V0.3H166.9V0H173.9V20.7V20.8Z" fill="#231815"/>
<path d="M10.3996 18.9V19.6H5.79961V19L8.29961 16.2C8.59961 15.8 8.89961 15.5 8.99961 15.2C9.09961 14.9 9.19961 14.6 9.19961 14.3C9.19961 14 9.09961 13.6 8.89961 13.4C8.69961 13.2 8.29961 13.1 7.89961 13.1C7.19961 13.1 6.59961 13.4 5.89961 13.9L5.59961 13.3C5.89961 13 6.19961 12.8 6.69961 12.7C7.09961 12.5 7.59961 12.5 7.99961 12.5C8.69961 12.5 9.19961 12.7 9.49961 13C9.89961 13.3 10.0996 13.8 10.0996 14.4C10.0996 15 10.0996 15.2 9.79961 15.6C9.59961 16 9.29961 16.4 8.89961 16.9L6.89961 19.1H10.3996V18.9Z" fill="#AA8420"/>
<path d="M187.3 18.9V19.6H182.7V19L185.2 16.2C185.5 15.8 185.8 15.5 185.9 15.2C186.1 14.9 186.1 14.6 186.1 14.3C186.1 14 186 13.6 185.8 13.4C185.6 13.2 185.3 13.1 184.8 13.1C184.1 13.1 183.4 13.4 182.8 13.9L182.5 13.3C182.8 13 183.1 12.8 183.6 12.7C184 12.5 184.5 12.5 184.9 12.5C185.6 12.5 186.1 12.7 186.5 13C186.9 13.3 187.1 13.8 187.1 14.4C187.1 15 187.1 15.2 186.8 15.6C186.6 16 186.3 16.4 185.9 16.9L183.9 19.1H187.4L187.3 18.9Z" fill="#AA8420"/>
<path d="M189 18.7C188.6 18.1 188.4 17.2 188.4 16C188.4 14.8 188.6 13.9 189 13.3C189.4 12.7 190 12.4 190.9 12.4C191.8 12.4 192.3 12.7 192.8 13.3C193.2 13.9 193.4 14.8 193.4 16C193.4 17.2 193.2 18.1 192.8 18.7C192.4 19.3 191.8 19.6 190.9 19.6C190 19.6 189.5 19.3 189 18.7ZM192.1 18.2C192.4 17.7 192.5 17 192.5 16C192.5 15 192.4 14.2 192.1 13.8C191.8 13.3 191.4 13.1 190.8 13.1C190.2 13.1 189.8 13.3 189.6 13.8C189.3 14.3 189.2 15 189.2 16C189.2 17 189.3 17.8 189.6 18.2C189.9 18.7 190.3 18.9 190.8 18.9C191.3 18.9 191.8 18.7 192 18.2H192.1Z" fill="#AA8420"/>
<path d="M73.6996 6.89995V4.99995H63.9996V3.09995C67.0996 2.79995 69.6996 2.49995 71.7996 2.09995L70.7996 0.199951C67.5996 0.899951 62.9996 1.29995 56.7996 1.29995C50.5996 1.29995 54.3996 1.29995 53.4996 1.29995L54.2996 3.39995C55.7996 3.39995 58.2996 3.39995 61.7996 3.29995V5.19995H52.2996V7.09995H59.3996C57.2996 8.79995 54.8996 10.1 52.0996 10.7L53.1996 12.7C54.0996 12.4 54.7996 12.2 55.1996 12V21.9H57.2996V20.7999H68.6996V21.9H70.7996V11.9C71.0996 12.1 71.4996 12.2 71.7996 12.3C72.1996 12.4 72.4996 12.5 72.7996 12.7L73.7996 10.6C70.4996 9.89995 67.8996 8.79995 66.1996 7.09995H73.5996L73.6996 6.89995ZM56.4996 11.2C58.6996 10.3 60.3996 8.89995 61.7996 6.99995V11.2H56.4996ZM68.6996 18.7999H57.2996V16.7999H68.6996V18.7999ZM68.6996 14.9H57.2996V13.1H68.6996V14.9ZM69.5996 11.2H63.8996V6.89995C65.2996 8.79995 67.2996 10.2 69.5996 11.2Z" fill="#003477"/>
<path d="M97.5998 16.7V12C98.4998 12.8 99.6998 13.7 101.1 14.5L102.1 12.4C99.5998 11.2 98.0998 9.89995 97.3998 8.69995H101.8V6.79995H97.5998V4.39995H101.4V2.59995H97.5998V0.199951H95.4998V2.59995H91.2998V0.199951H89.1998V2.59995H86.0998V2.89995C85.1998 2.19995 84.0998 1.49995 82.7998 0.599951L81.2998 2.29995C82.2998 2.99995 83.4998 3.79995 84.6998 4.99995L86.0998 3.19995V4.39995H89.1998V6.69995H85.6998V8.59995H89.3998C88.6998 10.1 87.0998 11.4 84.5998 12.5L85.8998 14.4C86.8998 13.8 87.5998 13.3 87.9998 12.9V18.1C87.9998 19.1 88.1998 19.9 88.5998 20.2C88.9998 20.6 89.6998 20.7999 90.6998 20.7999H98.1998C99.3998 20.7999 100.2 20.6 100.6 20.2C101 19.8 101.4 18.4999 101.6 16.2999L99.3998 15.5C99.3998 16.7 99.1998 17.6 99.0998 18.1C98.9998 18.6 98.5998 18.7999 97.8998 18.7999H90.9998C90.4998 18.7999 90.1998 18.5 90.1998 18V16.5H97.6998L97.5998 16.7ZM91.3998 4.49995H95.5998V6.79995H91.3998V4.49995ZM91.8998 8.79995H94.9998C95.3998 9.59995 95.8998 10.3 96.3998 10.9H90.4998C91.0998 10.3 91.4998 9.59995 91.8998 8.79995ZM90.1998 14.9V12.6H95.4998V14.9H90.1998Z" fill="#003477"/>
<path d="M85.5002 8.89995C84.3002 7.99995 83.2002 7.19995 82.1002 6.69995L80.7002 8.39995C81.6002 8.99995 82.7002 9.79995 83.9002 10.9L85.5002 8.89995Z" fill="#003477"/>
<path d="M80.5996 19.6L82.4996 21.5C83.7996 19.4 84.7996 17.1 85.3996 14.6L83.3996 13.4C82.8996 15.6 81.9996 17.6 80.5996 19.6Z" fill="#003477"/>
<path d="M125.6 4.49995C123.8 3.19995 122.4 2.19995 121.4 1.69995L120 3.19995C121.1 3.89995 122.5 4.89995 124.2 6.19995L125.7 4.49995H125.6Z" fill="#003477"/>
<path d="M125.1 10.1C123.4 8.80005 122 7.90005 120.8 7.30005L119.4 8.80005C120.6 9.50005 122 10.6 123.6 11.9L125 10.1H125.1Z" fill="#003477"/>
<path d="M128.6 0H126.5V13.3L118.7 14.4V16.6L126.5 15.4V21.8H128.6V15.2L130.7 14.8V12.7L128.6 13V0Z" fill="#003477"/>
<path d="M115.4 8.4V8.2H118.9V6.2H115.4V2.9C116.6 2.7 117.8 2.3 118.9 1.9L118.1 0C115.6 0.9 112.7 1.5 109.2 1.7L109.7 3.6C111.3 3.5 112.5 3.4 113.3 3.2V6.1H109V8.1H113.2C112.2 10.7 110.8 13 108.8 15.2L110.1 17.3C111.6 15.3 112.7 13.6 113.2 12.1V21.6H115.3V10.8C115.7 11.4 116.1 11.9 116.5 12.4C117 12.9 117.4 13.5 117.9 14.2L119.2 12.2C118.3 11.2 117 10 115.3 8.4H115.4Z" fill="#003477"/>
<path d="M153.6 14.2C152.3 12.1 151.5 10.2 151.1 8.29998H158.5V5.89998H148.7C148.8 4.69998 148.9 2.69998 148.9 0.0999756H146.5C146.5 2.59998 146.5 4.49998 146.2 5.89998H137.8V8.29998H145.8C145.4 10.5 144.5 12.6 142.9 14.6C141.3 16.6 139.5 18.3 137.3 19.5L139.1 21.7C144.3 18.3 147.4 13.8 148.4 8.29998H148.8C150.3 14.5 153.2 19 157.4 21.7L159.2 19.6C156.9 18.1 155.1 16.3 153.8 14.2H153.6Z" fill="#003477"/>
<path d="M15.4004 1.50002C14.7004 1.80002 13.9004 2.00002 13.1004 2.10002V3.80002H15.2004V4.50002H13.1004V6.50002C13.9004 6.30002 14.7004 6.00002 15.3004 5.80002V6.60002C14.3004 7.00002 13.2004 7.30002 12.1004 7.60002L11.9004 6.90002C12.1004 6.90002 12.2004 6.90002 12.3004 6.90002V1.50002C13.3004 1.40002 14.2004 1.20002 15.0004 0.900024L15.4004 1.50002ZM18.8004 6.30002C18.8004 6.50002 18.8004 6.70002 18.6004 6.80002C18.4004 6.90002 18.3004 7.00002 18.2004 7.00002C18.1004 7.00002 17.8004 7.00002 17.5004 7.00002C17.2004 7.00002 17.1004 7.00002 17.0004 7.00002L16.7004 6.20002C16.9004 6.20002 17.2004 6.20002 17.8004 6.20002C18.4004 6.20002 18.0004 6.20002 18.0004 6.00002V1.90002H16.4004V7.90002H15.7004V1.20002H18.8004V6.30002Z" fill="black"/>
<path d="M24.2 3.30002H21.1V4.40002C21.1 5.90002 20.9 7.20002 20.6 8.10002L20 7.70002C20.3 6.90002 20.4 6.00002 20.4 4.90002V1.10002H24.2V3.20002V3.30002ZM23.5 2.60002V1.80002H21.1V2.60002H23.5ZM24.2 6.80002C24.2 7.00002 24.2 7.20002 24 7.20002C23.8 7.20002 23.7 7.30002 23.4 7.20002L23.2 6.60002C23.2 6.60002 23.2 6.60002 23.3 6.60002C23.5 6.60002 23.5 6.60002 23.5 6.40002V4.80002H23V7.70002H22.4V4.80002H22V7.20002H21.4V4.10002H22.5V3.40002H23.1V4.10002H24.2V6.60002V6.80002ZM25.4 6.50002H24.7V1.50002H25.4V6.50002ZM26.8 7.20002C26.8 7.50002 26.8 7.70002 26.6 7.80002C26.4 7.90002 26.2 7.90002 25.8 7.90002C25.4 7.90002 25.4 7.90002 25.3 7.90002L25.1 7.20002C25.3 7.20002 25.5 7.20002 25.7 7.20002C25.9 7.20002 26 7.20002 26.1 7.20002C26.2 7.20002 26.1 7.20002 26.1 7.00002V0.900024H26.8V7.20002Z" fill="black"/>
<path d="M20.4 14.4H14.5V14.1H17.3C17.3 13.9 17.1 13.8 17 13.7L17.3 13.5C17.4 13.7 17.5 13.9 17.6 14.1H20.3V14.4H20.4ZM20.5 18.9C20.5 19.2 20.5 19.4 20.3 19.5C20.2 19.6 20 19.7 19.9 19.7H17.6C17.4 19.7 17.3 19.7 17.2 19.5C17.1 19.4 17 19.2 17 19V18.8L14.5 19V18.7L17 18.5V18.1L14.9 18.3V18L17 17.8V17.4C16.5 17.4 16 17.4 15.4 17.4V17.1C16.8 17.1 18.2 17.1 19.2 16.8L19.4 17.1C18.8 17.2 18.1 17.3 17.3 17.4V17.8L19.9 17.6V17.9L17.3 18.1V18.5L20.3 18.3V18.6L17.3 18.8V19.1C17.3 19.1 17.3 19.2 17.3 19.3C17.3 19.3 17.4 19.3 17.5 19.3H19.6C19.9 19.3 20 19.1 20 18.7H20.3L20.5 18.9ZM20.3 17.2H19.9V16.5H14.9V17.2H14.5V16.2H20.3V17.2ZM19.8 15.8H15.1V14.8H19.8V15.8ZM19.4 15.5V15.1H15.5V15.5H19.4Z" fill="#AA8420" stroke="#AA8420" stroke-width="0.1" stroke-miterlimit="10"/>
<path d="M23.4998 17.3C23.0998 18.1 22.3998 18.8 21.5998 19.4L21.2998 19.1C22.0998 18.5 22.6998 17.9 23.0998 17.1L23.3998 17.3H23.4998ZM27.3998 16.4H24.5998V19.7H24.1998V16.4H21.3998V16H24.1998V13.5H24.5998V16H27.3998V16.4ZM23.1998 15.4L22.8998 15.6C22.6998 15.2 22.3998 14.7 21.9998 14.2L22.2998 14C22.6998 14.5 22.9998 14.9 23.1998 15.4ZM27.3998 19L27.0998 19.3C26.6998 18.6 26.0998 17.9 25.2998 17.3L25.5998 17.1C26.1998 17.6 26.7998 18.3 27.3998 19.1V19ZM26.7998 14.1C26.4998 14.7 26.1998 15.2 25.8998 15.6L25.4998 15.4C25.7998 15.1 26.0998 14.6 26.3998 13.9L26.6998 14.1H26.7998Z" fill="#AA8420" stroke="#AA8420" stroke-width="0.1" stroke-miterlimit="10"/>
<path d="M183.8 6.00005C183.7 6.70005 183.5 7.40005 183.3 7.90005L182.7 7.70005C182.9 7.10005 183.1 6.50005 183.2 5.90005H183.8V6.00005ZM185.7 2.40005C185.1 3.50005 184.5 4.30005 183.9 5.00005C184.1 5.00005 184.4 4.90005 184.8 4.80005C184.8 4.70005 184.8 4.50005 184.6 4.40005L185.1 4.20005C185.3 4.60005 185.5 5.10005 185.6 5.50005L185.1 5.70005C185.1 5.50005 185.1 5.40005 185.1 5.30005C184.5 5.50005 183.9 5.60005 183.1 5.70005V5.10005C183.4 4.70005 183.9 4.20005 184.3 3.50005C184 3.50005 183.6 3.60005 183.1 3.70005V3.20005C183.5 2.60005 184 1.80005 184.4 0.800049L185 1.00005C184.7 1.70005 184.3 2.30005 183.9 3.00005C184.2 3.00005 184.5 3.00005 184.7 2.90005C184.9 2.70005 185 2.40005 185.2 2.10005L185.8 2.30005L185.7 2.40005ZM184.9 7.60005H184.3C184.3 7.20005 184.3 6.60005 184.1 6.00005H184.7C184.8 6.50005 184.9 7.00005 184.9 7.60005ZM185.8 6.60005L185.3 6.80005C185.3 6.50005 185.1 6.20005 185 5.90005L185.5 5.70005C185.6 6.00005 185.7 6.30005 185.8 6.60005ZM187.2 4.70005C187.2 5.70005 186.8 6.70005 185.8 7.70005L185.3 7.30005C186 6.70005 186.4 6.10005 186.6 5.40005H185.8V4.80005H187.3L187.2 4.70005ZM189.9 7.10005L189.4 7.70005C188.9 7.30005 188.5 6.80005 188 6.00005V7.20005C188 7.40005 188 7.60005 187.7 7.70005C187.4 7.80005 187.1 7.90005 186.6 7.90005L186.4 7.20005C186.8 7.20005 187 7.20005 187.1 7.20005C187.2 7.20005 187.3 7.20005 187.3 7.10005V4.20005H185.8V1.60005H186.8C186.9 1.40005 187.1 1.10005 187.2 0.900049L187.9 1.10005C187.9 1.30005 187.7 1.50005 187.6 1.70005H189.4V4.30005H188V4.90005C188 5.00005 188.1 5.20005 188.3 5.30005C188.5 5.10005 188.8 4.90005 189.1 4.50005L189.6 4.90005C189.3 5.20005 189 5.50005 188.6 5.80005C188.9 6.20005 189.3 6.60005 189.8 7.10005H189.9ZM188.7 2.60005V2.10005H186.5V2.60005H188.7ZM188.7 3.70005V3.20005H186.5V3.70005H188.7Z" fill="black"/>
<path d="M197.8 7.70002H190.8V7.00002H193.7V0.900024H194.4V3.30002H197.4V4.00002H194.4V7.00002H197.8V7.70002Z" fill="black"/>
<path d="M198.2 13.6C198.2 13.9 198 14.3 197.9 14.6L197.7 15.1V19.6H197.4V15.8C197.2 16.2 197 16.5 196.8 16.7L196.5 16.4C197.1 15.7 197.5 14.7 197.9 13.4H198.2V13.6ZM202.6 19.1L202.4 19.4C202 19.2 201.5 18.8 201 18.3C201 18.5 201 18.6 201 18.7C201 19 201 19.2 200.9 19.3C200.9 19.4 200.7 19.5 200.6 19.6C200.5 19.6 200.2 19.6 199.9 19.6C199.6 19.6 199.7 19.6 199.6 19.6V19.3C200.1 19.3 200.4 19.3 200.5 19.3C200.6 19.3 200.7 19.1 200.7 18.8C200.7 18.5 200.7 18.5 200.7 18.3C200.1 18.7 199.3 19.1 198.2 19.5L198 19.2C199.1 18.9 200 18.5 200.6 18C200.6 18 200.6 17.8 200.4 17.6C199.8 18 199.1 18.4 198.2 18.6L198 18.3C199 18 199.7 17.7 200.3 17.3C200.3 17.2 200.1 17.1 200 17C199.5 17.3 198.9 17.5 198.1 17.7L197.9 17.4C198.7 17.3 199.4 17 200 16.6H198.6V15.4C198.5 15.5 198.3 15.6 198.2 15.7L198 15.4C198.8 14.8 199.4 14.3 199.7 13.7L200 13.9C200 14 199.9 14.1 199.8 14.2H201.5V14.5C201.3 14.7 201.1 15 200.9 15.2H202.2V16.5H200.6C200.5 16.6 200.4 16.7 200.3 16.8C200.5 17.1 200.7 17.3 200.9 17.7C201.3 17.5 201.7 17.2 202.2 16.8L202.5 17C202.1 17.3 201.7 17.6 201.2 17.9C201.7 18.5 202.3 18.9 202.8 19.2L202.6 19.1ZM201.1 14.3H199.6C199.3 14.6 199.1 14.8 198.8 15H200.5C200.7 14.7 201 14.5 201.1 14.3ZM200.2 16.1V15.4H198.9V16.1H200.2ZM201.9 16.1V15.4H200.6V16.1H201.9Z" fill="#AA8420" stroke="#AA8420" stroke-width="0.1" stroke-miterlimit="10"/>
<path d="M209.6 15.9H206.7C206.2 16.3 205.7 16.5 205.2 16.7H206.3C207 16.7 207.4 16.7 207.4 16.7C207.7 16.6 207.9 16.4 208.3 16.2L208.6 16.4C207.4 17.1 206.3 17.6 205.1 17.9C206.3 17.9 207.5 17.9 208.6 17.7C208.4 17.5 208.3 17.4 208.1 17.2L208.4 17C208.9 17.4 209.3 17.9 209.6 18.3L209.3 18.5C209.1 18.3 209 18.1 208.9 18C208.2 18 207.5 18.1 206.8 18.1V19.1C206.8 19.3 206.8 19.4 206.6 19.5C206.5 19.5 206.3 19.6 205.9 19.6C205.5 19.6 205.7 19.6 205.7 19.6V19.2C205.7 19.2 205.9 19.2 206 19.2C206.2 19.2 206.3 19.2 206.3 19.2C206.3 19.2 206.3 19.2 206.3 19.1V18.1C205.7 18.1 204.9 18.1 203.9 18.1V17.8C204.8 17.6 205.7 17.3 206.6 16.9C206.1 16.9 205.5 16.9 204.9 16.9C204.3 16.9 204.5 16.9 204.4 16.9V16.6C204.9 16.4 205.5 16.1 206 15.8H203.4V15.5H206.3V14.9H204.1V14.6H206.3V14.1H203.7V13.8H206.3V13.4H206.7V13.8H209.2V14.1H206.7V14.6H208.8V14.9H206.7V15.5H209.5V15.8L209.6 15.9ZM205.6 18.6C205.2 18.9 204.6 19.3 203.8 19.6L203.6 19.3C204.3 19 204.9 18.7 205.4 18.4L205.7 18.7L205.6 18.6ZM209.5 19.3L209.3 19.6C208.8 19.2 208.2 18.9 207.5 18.6L207.7 18.3C208.4 18.6 209 18.9 209.5 19.3Z" fill="#AA8420" stroke="#AA8420" stroke-width="0.1" stroke-miterlimit="10"/>
</svg>
