<?xml version="1.0" encoding="UTF-8"?>
<svg id="Layer_1" xmlns="http://www.w3.org/2000/svg" version="1.1" viewBox="0 0 194 115">
  <!-- Generator: Adobe Illustrator 29.0.1, SVG Export Plug-In . SVG Version: 2.1.0 Build 192)  -->
  <defs>
    <style>
      .st0 {
        stroke: #aa8420;
        stroke-miterlimit: 10;
        stroke-width: .1px;
      }

      .st0, .st1 {
        fill: #aa8420;
      }

      .st2 {
        fill: #a68238;
      }

      .st3 {
        fill: #231815;
      }

      .st4 {
        fill: #003873;
      }
    </style>
  </defs>
  <path class="st2" d="M114.1,24c.5-.7.7-1.9.7-1.9h-32.2s.4,1.3.7,1.9h30.7Z"/>
  <path class="st2" d="M112.3,26.8c.6-.5,1.2-1.6,1.2-1.6h-29.4s.3.8,1.1,1.6h27.2Z"/>
  <path class="st2" d="M109.9,29.2c.7-.4,1.3-1.2,1.3-1.2h-25.2s.6.7,1.2,1.2h22.6,0Z"/>
  <path class="st2" d="M107,31.6c.7-.3,1.5-.9,1.5-.9h-19.6s0,.1,1.4.9h16.7Z"/>
  <path class="st2" d="M92.6,33s2.1,1.2,6.1,1.2,6.7-1.2,6.7-1.2h-12.8Z"/>
  <path class="st4" d="M92.2,35.8s2.5.1,3.9,1.3c1.4,1.2,2.5,3.2,2.5,3.2,0,0,.9-1.9,2.3-2.9,1.4-1.1,3.7-1.5,3.7-1.5h25.4l5,7.4h-22.8s-1.6,0-4,1.5c-1.3.7-2.2,2-2.2,2,0,0-.2.6-.5.9-.3.3-.5.6-.8.7-.3.1-.3,0-.3,0h-11.8s-.5-.2-.7-.6c-.3-.4,0-.3-.3-.6-.2-.3-.7-1.2-2.5-2.4-1.9-1.2-3.7-1.3-3.7-1.3h-23.2l5-7.7h25Z"/>
  <path class="st4" d="M74.3,46.2v37.8s.1,3.3,2.9,7.9c2.8,4.5,6.8,6.6,6.8,6.6l3.2-5s-2.8-1.7-4.9-4.9c-2.1-3.2-2.1-5.9-2.1-5.9v-36.5h-6,0Z"/>
  <path class="st4" d="M117.2,46.1v36.5s-.5,3.7-2.2,6.3c-1.7,2.7-4.6,4.8-4.6,4.8l3.1,4.9s4.6-3.4,6.9-7c2.3-3.6,2.8-9,2.8-9v-36.5h-6Z"/>
  <path class="st4" d="M64.8,46.2v38s.4,5.9,4,12c3.7,6.1,10.3,10.4,10.3,10.4l3.1-5s-4.3-2.3-7.7-7.5c-3.5-5.3-3.7-10-3.7-10v-37.8h-6.2Z"/>
  <path class="st2" d="M92.2,50.2v40.1s-.2.1-.2.7c0,.6-.5,1-.5,1l-13.4,22.2h41l-13.4-22.6-.4-1v-1.1c-.1,0-.1-39.2-.1-39.2h-5v40.7s0,.6.2,1.1c.1.5.4,1.2.4,1.2l8.2,13.6h-20.9l8.1-13.5s.3-.5.5-1.1c.1-.6.2-1.2.2-1.2v-40.8h-4.8,0Z"/>
  <path class="st4" d="M126.4,46.1v37.3s0,4.8-3.6,10.3c-3.5,5.5-7.6,7.9-7.6,7.9l3,5.1s6.1-3.9,10-10c3.8-6.1,4.3-13.2,4.3-13.2v-37.3h-6.1Z"/>
  <path class="st2" d="M82.5,21.1s-2.1-11.2,6.2-16.9c0,0,3.7-3.5,9.8-3.5s10.2,3.4,10.2,3.4c9,6.6,6.3,16.9,6.3,16.9h-32.5Z"/>
  <path class="st3" d="M72.6,114.2h-33.6V.8h30.6v.2h-30.3v112.9h33.3v.2Z"/>
  <path class="st3" d="M155.1,114.2h-29.8v-.2h29.5V1.1h-27.5v-.2h27.8v113.4Z"/>
  <path class="st1" d="M12.7,64.9c.3.3.4.7.4,1.1s-.2,1.1-.7,1.4-1.1.5-1.9.5-1.4-.2-1.9-.5-.7-.8-.7-1.4.1-.8.4-1.1c.3-.3.6-.5,1.1-.6-.4-.1-.8-.3-1-.6-.2-.3-.3-.6-.3-1s0-.7.3-1c.2-.3.5-.5.8-.7.4-.2.8-.2,1.2-.2s.9,0,1.2.2.6.4.8.7c.2.3.3.6.3,1s-.1.7-.4,1c-.2.3-.6.5-1,.6.5.1.8.3,1.1.7h0ZM11.9,66.9c.3-.2.4-.6.4-1s-.2-.7-.5-.9c-.3-.2-.7-.4-1.3-.4-.5,0-.9.2-1.3.4-.3.2-.5.6-.5.9s.2.8.4,1c.3.2.7.3,1.3.3s1-.1,1.3-.3h0ZM9.4,63.5c.3.2.7.4,1.1.4.5,0,.9-.2,1.1-.4.3-.2.4-.5.4-.9s-.1-.7-.4-.9c-.3-.2-.7-.3-1.2-.3s-.9.1-1.1.3c-.3.2-.4.5-.4.9s.1.7.4.9h0Z"/>
  <path class="st1" d="M166.7,66.3h-1.1v1.6h-.8v-1.6h-3.3v-.6l3.4-4.9h.7v4.9h1.1v.7ZM164.8,65.6v-3.5l-2.4,3.5h2.4Z"/>
  <path class="st1" d="M168.1,67c-.4-.6-.6-1.5-.6-2.7s.2-2.1.6-2.7c.4-.6,1-.9,1.9-.9s1.4.3,1.9.9c.4.6.6,1.5.6,2.7s-.2,2.1-.6,2.7c-.4.6-1,.9-1.9.9s-1.4-.3-1.9-.9h0ZM171.3,66.5c.3-.5.4-1.2.4-2.2s-.1-1.7-.4-2.2c-.3-.5-.7-.7-1.3-.7s-1,.2-1.2.7c-.3.5-.4,1.2-.4,2.2s.1,1.7.4,2.2c.3.5.7.7,1.2.7s1-.2,1.2-.7Z"/>
  <g id="TC_OP">
    <g>
      <path d="M16.1,49.4c-.7.3-1.5.5-2.3.6v1.7h2.1v.7h-2.1v2c.8-.2,1.6-.5,2.2-.7v.8c-1,.4-2.1.7-3.2,1l-.2-.7c.2,0,.3,0,.4,0v-5.2c1-.1,1.9-.3,2.7-.6l.4.6ZM19.4,54.3c0,.2,0,.4-.2.5s-.3.2-.4.2c-.2,0-.4,0-.7,0s-.4,0-.5,0l-.3-.8c.2,0,.5,0,1.1,0s.2,0,.2-.2v-4.2h-1.6v6h-.7v-6.7h3.1v5.1Z"/>
      <path d="M24.9,51.2h-3.1v1.1c0,1.5-.2,2.8-.5,3.7l-.6-.4c.3-.8.4-1.7.4-2.8v-3.7h3.8v2.1ZM24.2,50.5v-.8h-2.4v.8h2.4ZM24.9,54.7c0,.2,0,.4-.2.4s-.3.1-.6,0l-.2-.6s0,0,.1,0c.2,0,.2,0,.2-.2v-1.6h-.5v2.9h-.6v-2.9h-.4v2.4h-.6v-3.1h1.1v-.7h.6v.7h1.1v2.5ZM26.1,54.4h-.7v-5h.7v5ZM27.4,55.2c0,.3,0,.5-.2.6-.2,0-.4.1-.8.1s-.4,0-.5,0l-.2-.7c.2,0,.4,0,.6,0,.2,0,.3,0,.4,0,0,0,0,0,0-.2v-6.1h.7v6.3Z"/>
    </g>
    <g>
      <path class="st0" d="M20.6,62.5h-5.9v-.3h2.8c0-.2-.2-.3-.3-.4l.3-.2c.1.2.2.4.3.6h2.7v.3ZM20.6,67c0,.3,0,.5-.2.6-.1.1-.3.2-.4.2h-2.3c-.2,0-.3,0-.4-.2-.1-.1-.2-.3-.2-.5v-.2l-2.5.2v-.3s2.5-.2,2.5-.2v-.4l-2.1.2v-.3s2.1-.2,2.1-.2v-.4c-.5,0-1,0-1.6,0v-.3c1.4,0,2.8,0,3.8-.3l.2.3c-.6.1-1.3.2-2.1.3v.4l2.6-.2v.3s-2.6.2-2.6.2v.4l3-.2v.3s-3,.2-3,.2v.3c0,0,0,.1,0,.2,0,0,.1,0,.2,0h2.1c.3,0,.4-.2.4-.6h.3ZM20.5,65.3h-.4v-.7h-5v.7h-.4v-1h5.8v1ZM19.9,64h-4.7v-1h4.7v1ZM19.6,63.7v-.4h-3.9v.4h3.9Z"/>
      <path class="st0" d="M23.7,65.4c-.4.8-1.1,1.5-1.9,2.1l-.3-.3c.8-.6,1.4-1.2,1.8-2l.3.2ZM27.6,64.6h-2.8v3.3h-.4v-3.3h-2.8v-.4h2.8v-2.5h.4v2.5h2.8v.4ZM23.3,63.5l-.3.2c-.2-.4-.5-.9-.9-1.4l.3-.2c.4.5.7.9.9,1.4ZM27.6,67.2l-.3.3c-.4-.7-1-1.4-1.8-2l.3-.2c.6.5,1.2,1.2,1.8,2ZM27,62.2c-.3.6-.6,1.1-.9,1.5l-.4-.2c.3-.3.6-.8.9-1.5l.3.2Z"/>
    </g>
    <g>
      <g>
        <path d="M162.6,53.9c-.1.7-.3,1.4-.5,1.9l-.6-.2c.2-.6.4-1.2.5-1.8h.6ZM164.5,50.3c-.6,1.1-1.2,1.9-1.8,2.6.2,0,.5-.1.9-.2,0-.1,0-.3-.2-.4l.5-.2c.2.4.4.9.5,1.3l-.5.2c0-.2,0-.3,0-.4-.6.2-1.2.3-2,.4v-.6c.3-.4.8-.9,1.2-1.6-.3,0-.7.1-1.2.2v-.5c.4-.6.9-1.4,1.3-2.4l.6.2c-.3.7-.7,1.3-1.1,2,.3,0,.6,0,.8-.1.2-.2.3-.5.5-.8l.6.2ZM163.7,55.5h-.6c0-.4,0-1-.2-1.6h.6c.1.5.2,1,.2,1.6ZM164.6,54.5l-.5.2c0-.3-.2-.6-.3-.9l.5-.2c.1.3.2.6.3.9ZM165.9,52.6c0,1-.4,2-1.4,3l-.5-.4c.7-.6,1.1-1.2,1.3-1.9h-.8v-.6h1.5ZM168.7,55l-.5.6c-.5-.4-.9-.9-1.4-1.7v1.2c0,.2,0,.4-.3.5-.2.1-.6.2-1.1.2l-.2-.7c.4,0,.6,0,.7,0,.1,0,.2,0,.2-.1v-2.9h-1.5v-2.6h1c.1-.2.3-.5.4-.7l.7.2c0,.2-.2.4-.3.6h1.8v2.6h-1.4v.6c0,.1.1.3.3.4.2-.2.5-.4.8-.8l.5.4c-.3.3-.6.6-1,.9.3.4.7.8,1.2,1.3ZM167.5,50.5v-.5h-2.2v.5h2.2ZM167.5,51.5v-.5h-2.2v.5h2.2Z"/>
        <path d="M176.6,55.6h-7v-.7h2.9v-6.1h.7v2.4h3v.7h-3v3h3.4v.7Z"/>
      </g>
      <g>
        <path class="st0" d="M177.3,61.9c0,.3-.2.7-.3,1l-.2.5v4.5h-.3v-3.8c-.2.4-.4.7-.6.9l-.3-.3c.6-.7,1-1.7,1.4-3h.3ZM181.8,67.3l-.2.3c-.4-.2-.9-.6-1.4-1.1,0,.2,0,.3,0,.4,0,.3,0,.5-.1.6,0,.1-.2.2-.3.3-.1,0-.4,0-.7,0s-.2,0-.3,0v-.3c.5,0,.8,0,.9,0,.1,0,.2-.2.2-.5s0-.3,0-.5c-.6.4-1.4.8-2.5,1.2l-.2-.3c1.1-.3,2-.7,2.6-1.2,0,0,0-.2-.2-.4-.6.4-1.3.8-2.2,1l-.2-.3c1-.3,1.7-.6,2.3-1,0-.1-.2-.2-.3-.3-.5.3-1.1.5-1.9.7l-.2-.3c.8-.1,1.5-.4,2.1-.8h-1.4v-1.2c-.1.1-.3.2-.4.3l-.2-.3c.8-.6,1.4-1.1,1.7-1.7l.3.2c0,.1-.1.2-.2.3h1.7v.3c-.2.2-.4.5-.6.7h1.3v1.3h-1.6c-.1.1-.2.2-.3.3.2.3.4.5.6.9.4-.2.8-.5,1.3-.9l.3.2c-.4.3-.8.6-1.3.9.5.6,1.1,1,1.6,1.3ZM180.2,62.6h-1.5c-.3.3-.5.5-.8.7h1.7c.3-.3.5-.5.6-.7ZM179.4,64.3v-.7h-1.3v.7h1.3ZM181,64.3v-.7h-1.3v.7h1.3Z"/>
        <path class="st0" d="M188.8,64.2h-2.9c-.5.4-1,.6-1.5.8h1.1c.7,0,1.1,0,1.1,0,.3-.1.5-.3.9-.5l.3.2c-1.2.7-2.3,1.2-3.5,1.5,1.2,0,2.4,0,3.5-.2-.2-.2-.3-.3-.5-.5l.3-.2c.5.4.9.9,1.2,1.3l-.3.2c-.2-.2-.3-.4-.4-.5-.7,0-1.4.1-2.1.1v1c0,.2,0,.3-.2.4-.1,0-.3.1-.7.1s-.2,0-.2,0v-.4s.2,0,.3,0c.2,0,.3,0,.3,0s0,0,0-.1v-1c-.6,0-1.4,0-2.4,0v-.3c.9-.2,1.8-.5,2.7-.9-.5,0-1.1,0-1.7,0s-.4,0-.5,0v-.3c.5-.2,1.1-.5,1.6-.8h-2.6v-.3h2.9v-.6h-2.2v-.3h2.2v-.5h-2.6v-.3h2.6v-.4h.4v.4h2.5v.3h-2.5v.5h2.1v.3h-2.1v.6h2.8v.3ZM184.8,66.9c-.4.3-1,.7-1.8,1l-.2-.3c.7-.3,1.3-.6,1.8-.9l.3.3ZM188.6,67.6l-.2.3c-.5-.4-1.1-.7-1.8-1l.2-.3c.7.3,1.3.6,1.8,1Z"/>
      </g>
    </g>
  </g>
</svg>