<svg width="197" height="98" viewBox="0 0 197 98" fill="none" xmlns="http://www.w3.org/2000/svg">
<path d="M105.3 11.2999C105.6 10.9999 105.6 10.3999 105.6 10.3999H89.9004C89.9004 10.3999 90.1004 11.0999 90.2004 11.2999H105.2H105.3Z" fill="#AA8420"/>
<path d="M104.4 12.6999C104.7 12.3999 105 11.8999 105 11.8999H90.5996C90.5996 11.8999 90.7996 12.2999 91.0996 12.6999H104.4Z" fill="#AA8420"/>
<path d="M103.3 13.9C103.7 13.7 103.9 13.3 103.9 13.3H91.5996C91.5996 13.3 91.8996 13.6 92.1996 13.9H103.2H103.3Z" fill="#AA8420"/>
<path d="M101.8 15C102.1 14.9 102.6 14.5 102.6 14.5H93C93 14.5 93 14.5 93.7 15H101.8Z" fill="#AA8420"/>
<path d="M94.7998 15.7C94.7998 15.7 95.7998 16.3 97.7998 16.3C99.7998 16.3 101.1 15.7 101.1 15.7H94.8998H94.7998Z" fill="#AA8420"/>
<path d="M94.6004 17.1001C94.6004 17.1001 95.8004 17.1001 96.5004 17.7001C97.2004 18.3001 97.7004 19.3001 97.7004 19.3001C97.7004 19.3001 98.1004 18.4001 98.8004 17.9001C99.5004 17.4001 100.6 17.1001 100.6 17.1001H113L115.4 20.7001H104.3C104.3 20.7001 103.5 20.7001 102.4 21.4001C101.8 21.8001 101.3 22.4001 101.3 22.4001C101.3 22.4001 101.3 22.7001 101.1 22.9001C101 23.1001 100.9 23.2001 100.7 23.3001C100.5 23.3001 100.6 23.3001 100.6 23.3001H94.8004C94.8004 23.3001 94.6004 23.3001 94.4004 23.0001C94.3004 22.8001 94.4004 22.9001 94.2004 22.7001C94.2004 22.5001 93.9004 22.1001 93.0004 21.5001C92.1004 20.9001 91.2004 20.9001 91.2004 20.9001H79.9004L82.4004 17.2001H94.6004V17.1001Z" fill="#003477"/>
<path d="M85.9004 22.2V40.7C85.9004 40.7 85.9004 42.3 87.3004 44.5C88.7004 46.7 90.6004 47.7 90.6004 47.7L92.2004 45.2999C92.2004 45.2999 90.8004 44.5 89.8004 42.9C88.8004 41.3 88.8004 40 88.8004 40V22.2H85.9004Z" fill="#003477"/>
<path d="M106.8 22.1001V39.9001C106.8 39.9001 106.6 41.7001 105.7 43.0001C104.9 44.3001 103.5 45.3001 103.5 45.3001L105 47.7001C105 47.7001 107.3 46.1001 108.4 44.3001C109.5 42.5001 109.8 39.9001 109.8 39.9001V22.1001H106.9H106.8Z" fill="#003477"/>
<path d="M81.2002 22.2V40.7C81.2002 40.7 81.4002 43.5999 83.2002 46.5999C85.0002 49.5999 88.2002 51.7 88.2002 51.7L89.7002 49.2999C89.7002 49.2999 87.6002 48.2 86.0002 45.7C84.3002 43.1 84.2002 40.7999 84.2002 40.7999V22.4H81.2002V22.2Z" fill="#003477"/>
<path d="M94.6004 24.1001V43.7001C94.6004 43.7001 94.6004 43.7001 94.6004 44.1001C94.6004 44.4001 94.4004 44.6001 94.4004 44.6001L87.9004 55.4001H107.9L101.4 44.4001L101.2 43.9001V43.4001V24.3001H98.8004V44.2001C98.8004 44.2001 98.8004 44.5001 98.8004 44.7001C98.8004 44.9001 99.0004 45.3001 99.0004 45.3001L103 51.9001H92.8004L96.8004 45.3001C96.8004 45.3001 96.9004 45.1001 97.0004 44.8001C97.0004 44.5001 97.0004 44.2001 97.0004 44.2001V24.3001H94.7004L94.6004 24.1001Z" fill="#AA8420"/>
<path d="M111.3 22.1V40.3C111.3 40.3 111.3 42.6 109.5 45.3C107.7 48 105.8 49.1 105.8 49.1L107.3 51.6C107.3 51.6 110.3 49.7 112.2 46.7C114 43.7 114.3 40.2 114.3 40.2V22H111.3V22.1Z" fill="#003477"/>
<path d="M89.9002 9.9C89.9002 9.9 88.9002 4.4 92.9002 1.7C92.9002 1.7 94.7002 0 97.7002 0C100.7 0 102.7 1.7 102.7 1.7C107.1 4.9 105.8 9.9 105.8 9.9H89.9002Z" fill="#AA8420"/>
<path d="M74.5 68.1001V66.7001H67.3V65.3001C69.6 65.1001 71.5 64.9001 73 64.5001L72.3 63.1001C70 63.6001 66.6 63.9001 62 63.9001C57.4 63.9001 60.2 63.9001 59.6 63.9001L60.2 65.5001C61.3 65.5001 63.1 65.5001 65.7 65.5001V66.9001H58.7V68.3001H63.9C62.4 69.6001 60.6 70.5001 58.5 71.0001L59.3 72.5001C60 72.3001 60.5 72.1001 60.7 72.0001V79.3001H62.3V78.5001H70.7V79.3001H72.3V71.9001C72.5 72.0001 72.8 72.1001 73.1 72.2001C73.4 72.2001 73.6 72.4001 73.9 72.5001L74.7 71.0001C72.3 70.5001 70.4 69.6001 69.1 68.4001H74.6L74.5 68.1001ZM61.8 71.3001C63.4 70.6001 64.7 69.6001 65.7 68.2001V71.3001H61.8ZM70.8 76.9001H62.5V75.4001H70.8V76.9001ZM70.8 74.0001H62.5V72.7001H70.8V74.0001ZM71.5 71.3001H67.3V68.2001C68.4 69.6001 69.8 70.7001 71.5 71.3001Z" fill="#003477"/>
<path d="M83.2002 69.5999C82.3002 68.8999 81.5002 68.3999 80.7002 67.8999L79.7002 69.1999C80.4002 69.5999 81.2002 70.1999 82.1002 70.9999L83.3002 69.4999L83.2002 69.5999Z" fill="#003477"/>
<path d="M93.3002 74.6999C93.3002 75.5999 93.1002 76.1999 93.0002 76.5999C93.0002 76.8999 92.6002 77.0999 92.2002 77.0999H87.2002C86.8002 77.0999 86.6002 76.9 86.6002 76.5V75.4H92.1002V71.9C92.8002 72.5 93.6002 73.0999 94.7002 73.6999L95.4002 72.1999C93.6002 71.2999 92.4002 70.4 92.0002 69.5H95.2002V68.0999H92.2002V66.3H95.0002V65H92.2002V63.2H90.7002V65H87.6002V63.2H86.0002V65H83.7002V65.1999C83.0002 64.6999 82.2002 64.1 81.3002 63.5L80.2002 64.8C81.0002 65.3 81.8002 65.9 82.7002 66.8L83.7002 65.5V66.4H86.0002V68.0999H83.4002V69.5H86.1002C85.6002 70.6 84.4002 71.5 82.5002 72.4L83.5002 73.8C84.3002 73.3 84.8002 72.9999 85.1002 72.6999V76.5C85.1002 77.3 85.2002 77.7999 85.5002 78.0999C85.8002 78.3999 86.3002 78.5 87.0002 78.5H92.5002C93.4002 78.5 94.0002 78.4 94.3002 78C94.6002 77.7 94.9002 76.6999 95.0002 75.1999L93.4002 74.5999L93.3002 74.6999ZM87.5002 66.4H90.6002V68.0999H87.5002V66.4ZM87.9002 69.5H90.2002C90.5002 70.1 90.9002 70.6 91.2002 71H86.9002C87.3002 70.6 87.7002 70 87.9002 69.5ZM86.6002 72.4H90.5002V74.0999H86.6002V72.4Z" fill="#003477"/>
<path d="M83.0996 73.7999L81.5996 72.8999C81.1996 74.4999 80.5996 75.9999 79.5996 77.3999L80.9996 78.7999C81.9996 77.2999 82.6996 75.5999 83.1996 73.6999L83.0996 73.7999Z" fill="#003477"/>
<path d="M112.6 66.4C111.3 65.4 110.2 64.7 109.5 64.3L108.5 65.4C109.3 65.9 110.3 66.6 111.6 67.6L112.7 66.3L112.6 66.4Z" fill="#003477"/>
<path d="M105.1 69.1001H107.7V67.6001H105.1V65.2001C106 65.0001 106.9 64.8001 107.7 64.5001L107.1 63.1001C105.3 63.8001 103.1 64.2001 100.6 64.3001L101 65.7001C102.2 65.7001 103 65.5001 103.6 65.4001V67.5001H100.4V69.0001H103.5C102.8 70.9001 101.7 72.6001 100.3 74.2001L101.3 75.7001C102.4 74.3001 103.2 73.0001 103.6 71.9001V78.9001H105.2V71.0001C105.5 71.4001 105.8 71.8001 106.1 72.1001C106.4 72.5001 106.8 72.9001 107.1 73.4001L108 71.9001C107.3 71.2001 106.4 70.3001 105.1 69.1001Z" fill="#003477"/>
<path d="M112.3 70.4999C111.1 69.5999 110 68.8999 109.2 68.3999L108.2 69.4999C109.1 69.9999 110.1 70.7999 111.3 71.7999L112.4 70.4999H112.3Z" fill="#003477"/>
<path d="M113.2 79.1H114.8V74.2L116.3 73.9V72.4L114.8 72.6V63H113.2V72.8L107.5 73.6V75.2L113.2 74.3V79V79.1Z" fill="#003477"/>
<path d="M129.6 69.1C130.7 73.7 132.8 76.9 135.9 78.9L137.2 77.3C135.5 76.2 134.2 74.9 133.2 73.4C132.2 71.9 131.6 70.4 131.4 69.1H136.8V67.3H129.6C129.6 66.4 129.7 65 129.7 63H127.9C127.9 64.8 127.9 66.2 127.7 67.3H121.6V69.1H127.5C127.2 70.7 126.5 72.2 125.4 73.7C124.2 75.2 122.9 76.4 121.3 77.3L122.6 78.9C126.4 76.4 128.7 73.1 129.4 69H129.7L129.6 69.1Z" fill="#003477"/>
<path d="M69.2998 88.5H61.7998V82.7H59.7998V97H61.7998V90.1H69.2998V97H71.2998V82.7H69.2998V88.5Z" fill="#003477"/>
<path d="M89.5998 82.7H86.9998L80.2998 88.9V82.7H78.2998V97H80.2998V91L81.0998 90.3L86.9998 97H89.6998L82.4998 89.1L89.5998 82.7Z" fill="#003477"/>
<path d="M104.5 91.2C104.5 93.5 103.7 95.7 100.7 95.7C97.7004 95.7 96.9004 93.5 96.9004 91.2V82.7H94.9004V91.8C94.9004 95 97.0004 97.4 100.7 97.4C104.4 97.4 106.5 95 106.5 91.8V82.7H104.5V91.2Z" fill="#003477"/>
<path d="M118.6 88.5999L117.5 88.1999C116.5 87.8999 115.3 87.2999 115.3 86.0999C115.3 84.8999 116.7 84.0999 117.9 84.0999C119.1 84.0999 119.8 84.5999 120.4 85.3999L122 84.5999C121.1 83.1999 119.7 82.3999 118 82.3999C116.3 82.3999 113.4 83.7999 113.4 86.0999C113.4 88.3999 115 88.9999 116.8 89.6999L117.9 90.0999C119.3 90.5999 120.6 91.2999 120.6 92.7999C120.6 94.2999 119.4 95.5999 117.7 95.5999C116 95.5999 114.6 94.4999 114.7 92.8999L112.7 93.2999C113 95.5999 115 97.2999 117.6 97.2999C120.2 97.2999 122.6 95.3999 122.6 92.7999C122.6 90.1999 120.9 89.2999 118.7 88.4999L118.6 88.5999Z" fill="#003477"/>
<path d="M127.5 84.4H131.2V97.1H133.2V84.4H136.9V82.8H127.5V84.4Z" fill="#003477"/>
<path d="M48.1998 97.4H42.2998V0H48.1998V0.2H42.4998V97.1H48.1998V97.3V97.4Z" fill="#231815"/>
<path d="M153.5 97.4H147.6V97.2H153.3V0.2H147.6V0H153.5V97.4Z" fill="#231815"/>
<path d="M4.9 56.8999V57.5999H1V56.8999H2.6V51.4999L1.1 52.3999V51.5999L2.9 50.3999H3.4V56.7999H5L4.9 56.8999Z" fill="#AA8420"/>
<path d="M10.2 53.4001C10.5 53.6001 10.8 53.9001 11 54.2001C11.2 54.5001 11.3 54.9001 11.3 55.4001C11.3 55.9001 11.2 56.2001 11 56.6001C10.8 56.9001 10.5 57.2001 10.2 57.4001C9.8 57.6001 9.4 57.7001 8.9 57.7001C8.4 57.7001 8 57.7001 7.6 57.5001C7.2 57.3001 6.8 57.1001 6.5 56.9001L6.8 56.3001C7.5 56.8001 8.1 57.1001 8.8 57.1001C9.5 57.1001 9.7 57.0001 10 56.7001C10.3 56.4001 10.4 56.0001 10.4 55.5001C10.4 55.0001 10.3 54.6001 10 54.4001C9.7 54.1001 9.3 54.0001 8.9 54.0001C8.2 54.0001 7.7 54.3001 7.3 54.8001H6.7V50.6001H11V51.3001H7.5V53.8001C7.9 53.4001 8.4 53.2001 9 53.2001C9.6 53.2001 9.8 53.2001 10.2 53.5001V53.4001Z" fill="#AA8420"/>
<path d="M168.3 53.4001C168.6 53.6001 168.9 53.8001 169.1 54.2001C169.3 54.5001 169.4 54.9001 169.4 55.4001C169.4 55.9001 169.3 56.2001 169.1 56.6001C168.9 56.9001 168.6 57.2001 168.3 57.4001C168 57.6001 167.5 57.7001 167 57.7001C166.5 57.7001 166.1 57.7001 165.7 57.5001C165.3 57.3001 164.9 57.1001 164.6 56.9001L164.9 56.3001C165.6 56.8001 166.2 57.1001 166.9 57.1001C167.6 57.1001 167.8 57.0001 168.1 56.7001C168.4 56.4001 168.5 56.0001 168.5 55.5001C168.5 55.0001 168.4 54.6001 168.1 54.4001C167.8 54.1001 167.4 54.0001 167 54.0001C166.3 54.0001 165.8 54.3001 165.4 54.8001H164.8V50.6001H169.1V51.3001H165.7V53.8001C166.1 53.4001 166.6 53.2001 167.2 53.2001C167.8 53.2001 168 53.2001 168.4 53.5001L168.3 53.4001Z" fill="#AA8420"/>
<path d="M171 56.6999C170.6 56.0999 170.4 55.1999 170.4 53.9999C170.4 52.7999 170.6 51.8999 171 51.2999C171.4 50.6999 172 50.3999 172.9 50.3999C173.8 50.3999 174.3 50.6999 174.8 51.2999C175.2 51.8999 175.4 52.7999 175.4 53.9999C175.4 55.1999 175.2 56.0999 174.8 56.6999C174.4 57.2999 173.8 57.5999 172.9 57.5999C172 57.5999 171.5 57.2999 171 56.6999ZM174.1 56.1999C174.4 55.6999 174.5 54.9999 174.5 53.9999C174.5 52.9999 174.4 52.1999 174.1 51.7999C173.8 51.2999 173.4 51.0999 172.8 51.0999C172.2 51.0999 171.8 51.2999 171.6 51.7999C171.3 52.2999 171.2 52.9999 171.2 53.9999C171.2 54.9999 171.3 55.7999 171.6 56.1999C171.9 56.6999 172.3 56.8999 172.8 56.8999C173.3 56.8999 173.8 56.6999 174 56.1999H174.1Z" fill="#AA8420"/>
<path d="M16.5996 39.2003C15.8996 39.5003 15.0996 39.7003 14.2996 39.8003V41.5003H16.3996V42.2003H14.2996V44.2003C15.0996 44.0003 15.8996 43.7003 16.4996 43.5003V44.3003C15.4996 44.7003 14.3996 45.0003 13.2996 45.3003L13.0996 44.6003C13.2996 44.6003 13.3996 44.6003 13.4996 44.6003V39.4003C14.4996 39.3003 15.3996 39.1003 16.1996 38.8003L16.5996 39.4003V39.2003ZM19.9996 44.1003C19.9996 44.3003 19.9996 44.5003 19.7996 44.6003C19.5996 44.7003 19.4996 44.8003 19.3996 44.8003C19.2996 44.8003 18.9996 44.8003 18.6996 44.8003C18.3996 44.8003 18.2996 44.8003 18.1996 44.8003L17.8996 44.0003C18.0996 44.0003 18.3996 44.0003 18.9996 44.0003C19.5996 44.0003 19.1996 44.0003 19.1996 43.8003V39.6003H17.5996V45.6003H16.8996V38.9003H19.9996V44.0003V44.1003Z" fill="black"/>
<path d="M25.3992 41.0002H22.2992V42.1002C22.2992 43.6002 22.0992 44.9002 21.7992 45.8002L21.1992 45.4002C21.4992 44.6002 21.5992 43.7002 21.5992 42.6002V38.9002H25.3992V41.0002ZM24.6992 40.3002V39.5002H22.2992V40.3002H24.6992ZM25.3992 44.5002C25.3992 44.7002 25.3992 44.9002 25.1992 44.9002C24.9992 44.9002 24.8992 45.0002 24.5992 44.9002L24.3992 44.3002C24.3992 44.3002 24.3992 44.3002 24.4992 44.3002C24.6992 44.3002 24.6992 44.3002 24.6992 44.1002V42.5002H24.1992V45.4002H23.5992V42.5002H23.1992V44.9002H22.5992V41.8002H23.6992V41.1002H24.2992V41.8002H25.3992V44.3002V44.5002ZM26.5992 44.2002H25.8992V39.2002H26.5992V44.2002ZM27.9992 45.0002C27.9992 45.3002 27.9992 45.5002 27.7992 45.6002C27.5992 45.6002 27.3992 45.7002 26.9992 45.7002C26.5992 45.7002 26.5992 45.7002 26.4992 45.7002L26.2992 45.0002C26.4992 45.0002 26.6992 45.0002 26.8992 45.0002C27.0992 45.0002 27.1992 45.0002 27.2992 45.0002C27.3992 45.0002 27.2992 45.0002 27.2992 44.8002V38.7002H27.9992V45.0002Z" fill="black"/>
<path d="M20.9 52.3001H15V52.0001H17.8C17.8 51.8001 17.6 51.7001 17.5 51.6001L17.8 51.4001C17.9 51.6001 18 51.8001 18.1 52.0001H20.8V52.3001H20.9ZM21 56.8001C21 57.1001 21 57.3001 20.8 57.4001C20.7 57.5001 20.5 57.6001 20.4 57.6001H18.1C17.9 57.6001 17.8 57.6001 17.7 57.4001C17.6 57.3001 17.5 57.1001 17.5 56.9001V56.7001L15 56.9001V56.6001L17.5 56.4001V56.0001L15.4 56.2001V55.9001L17.5 55.7001V55.3001C17 55.3001 16.5 55.3001 15.9 55.3001V55.0001C17.3 55.0001 18.7 55.0001 19.7 54.7001L19.9 55.0001C19.3 55.1001 18.6 55.2001 17.8 55.3001V55.7001L20.4 55.5001V55.8001L17.8 56.0001V56.4001L20.8 56.2001V56.5001L17.8 56.7001V57.0001C17.8 57.0001 17.8 57.1001 17.8 57.2001C17.8 57.2001 17.9 57.2001 18 57.2001H20.1C20.4 57.2001 20.5 57.0001 20.5 56.6001H20.8L21 56.8001ZM20.8 55.1001H20.4V54.4001H15.4V55.1001H15V54.1001H20.8V55.1001ZM20.3 53.7001H15.6V52.7001H20.3V53.7001ZM19.9 53.4001V53.0001H16V53.4001H19.9Z" fill="#AA8420" stroke="#AA8420" stroke-width="0.1" stroke-miterlimit="10"/>
<path d="M23.9998 55.2001C23.5998 56.0001 22.8998 56.7001 22.0998 57.3001L21.7998 57.0001C22.5998 56.4001 23.1998 55.8001 23.5998 55.0001L23.8998 55.2001H23.9998ZM27.8998 54.3001H25.0998V57.6001H24.6998V54.3001H21.8998V53.9001H24.6998V51.4001H25.0998V53.9001H27.8998V54.3001ZM23.6998 53.3001L23.3998 53.5001C23.1998 53.1001 22.8998 52.6001 22.4998 52.1001L22.7998 51.9001C23.1998 52.4001 23.4998 52.8001 23.6998 53.3001ZM27.9998 56.9001L27.6998 57.2001C27.2998 56.5001 26.6998 55.8001 25.8998 55.2001L26.1998 55.0001C26.7998 55.5001 27.3998 56.2001 27.9998 57.0001V56.9001ZM27.2998 52.0001C26.9998 52.6001 26.6998 53.1001 26.3998 53.5001L25.9998 53.3001C26.2998 53.0001 26.5998 52.5001 26.8998 51.8001L27.1998 52.0001H27.2998Z" fill="#AA8420" stroke="#AA8420" stroke-width="0.1" stroke-miterlimit="10"/>
<path d="M165.499 43.8001C165.399 44.5001 165.199 45.2001 164.999 45.7001L164.399 45.5001C164.599 44.9001 164.799 44.3001 164.899 43.7001H165.499V43.8001ZM167.299 40.2001C166.699 41.3001 166.099 42.1001 165.499 42.8001C165.699 42.8001 165.999 42.7001 166.399 42.6001C166.399 42.5001 166.399 42.3001 166.199 42.2001L166.699 42.0001C166.899 42.4001 167.099 42.9001 167.199 43.3001L166.699 43.5001C166.699 43.3001 166.699 43.2001 166.699 43.1001C166.099 43.3001 165.499 43.4001 164.699 43.5001V42.9001C164.999 42.5001 165.499 42.0001 165.899 41.3001C165.599 41.3001 165.199 41.4001 164.699 41.5001V41.0001C165.099 40.4001 165.599 39.6001 165.999 38.6001L166.599 38.8001C166.299 39.5001 165.899 40.1001 165.499 40.8001C165.799 40.8001 166.099 40.8001 166.299 40.7001C166.499 40.5001 166.599 40.2001 166.799 39.9001L167.399 40.1001L167.299 40.2001ZM166.499 45.4001H165.899C165.899 45.0001 165.899 44.4001 165.699 43.8001H166.299C166.399 44.3001 166.499 44.8001 166.499 45.4001ZM167.399 44.4001L166.899 44.6001C166.899 44.3001 166.699 44.0001 166.599 43.7001L167.099 43.5001C167.199 43.8001 167.299 44.1001 167.399 44.4001ZM168.799 42.5001C168.799 43.5001 168.399 44.5001 167.399 45.5001L166.899 45.1001C167.599 44.5001 167.999 43.9001 168.199 43.2001H167.399V42.6001H168.899L168.799 42.5001ZM171.499 44.9001L170.999 45.5001C170.499 45.1001 170.099 44.6001 169.599 43.8001V45.0001C169.599 45.2001 169.599 45.4001 169.299 45.5001C169.099 45.6001 168.699 45.7001 168.199 45.7001L167.999 45.0001C168.399 45.0001 168.599 45.0001 168.699 45.0001C168.799 45.0001 168.899 45.0001 168.899 44.9001V42.0001H167.399V39.4001H168.399C168.499 39.2001 168.699 38.9001 168.799 38.7001L169.499 38.9001C169.499 39.1001 169.299 39.3001 169.199 39.5001H170.999V42.1001H169.599V42.7001C169.599 42.8001 169.699 43.0001 169.899 43.1001C170.099 42.9001 170.399 42.7001 170.699 42.3001L171.199 42.7001C170.899 43.0001 170.599 43.3001 170.199 43.6001C170.499 44.0001 170.899 44.4001 171.399 44.9001H171.499ZM170.299 40.4001V39.9001H168.099V40.4001H170.299ZM170.299 41.4001V40.9001H168.099V41.4001H170.299Z" fill="black"/>
<path d="M179.399 45.5002H172.399V44.8002H175.299V38.7002H175.999V41.1002H178.999V41.8002H175.999V44.8002H179.399V45.5002Z" fill="black"/>
<path d="M180.3 51.6001C180.3 51.9001 180.1 52.3001 180 52.6001L179.8 53.1001V57.6001H179.5V53.8001C179.3 54.2001 179.1 54.5001 178.9 54.7001L178.6 54.4001C179.2 53.7001 179.6 52.7001 180 51.4001H180.3V51.6001ZM184.8 57.1001L184.6 57.4001C184.2 57.2001 183.7 56.8001 183.2 56.3001C183.2 56.5001 183.2 56.6001 183.2 56.7001C183.2 57.0001 183.2 57.2001 183.1 57.3001C183.1 57.4001 182.9 57.5001 182.8 57.6001C182.7 57.6001 182.4 57.6001 182.1 57.6001C181.8 57.6001 181.9 57.6001 181.8 57.6001V57.3001C182.3 57.3001 182.6 57.3001 182.7 57.3001C182.8 57.3001 182.9 57.1001 182.9 56.8001C182.9 56.5001 182.9 56.5001 182.9 56.3001C182.3 56.7001 181.5 57.1001 180.4 57.5001L180.2 57.2001C181.3 56.9001 182.2 56.5001 182.8 56.0001C182.8 56.0001 182.8 55.8001 182.6 55.6001C182 56.0001 181.3 56.4001 180.4 56.6001L180.2 56.3001C181.2 56.0001 181.9 55.7001 182.5 55.3001C182.5 55.2001 182.3 55.1001 182.2 55.0001C181.7 55.3001 181.1 55.5001 180.3 55.7001L180.1 55.4001C180.9 55.3001 181.6 55.0001 182.2 54.6001H180.8V53.4001C180.7 53.5001 180.5 53.6001 180.4 53.7001L180.2 53.4001C181 52.8001 181.6 52.3001 181.9 51.7001L182.2 51.9001C182.2 52.0001 182.1 52.1001 182 52.2001H183.7V52.5001C183.5 52.7001 183.3 53.0001 183.1 53.2001H184.4V54.5001H182.8C182.7 54.6001 182.6 54.7001 182.5 54.8001C182.7 55.1001 182.9 55.3001 183.1 55.7001C183.5 55.5001 183.9 55.2001 184.4 54.8001L184.7 55.0001C184.3 55.3001 183.9 55.6001 183.4 55.9001C183.9 56.5001 184.5 56.9001 185 57.2001L184.8 57.1001ZM183.2 52.3001H181.7C181.4 52.6001 181.2 52.8001 180.9 53.0001H182.6C182.8 52.7001 183.1 52.5001 183.2 52.3001ZM182.3 54.0001V53.3001H181V54.0001H182.3ZM184 54.0001V53.3001H182.7V54.0001H184Z" fill="#AA8420" stroke="#AA8420" stroke-width="0.1" stroke-miterlimit="10"/>
<path d="M191.7 53.9001H188.8C188.3 54.3001 187.8 54.5001 187.3 54.7001H188.4C189.1 54.7001 189.5 54.7001 189.5 54.7001C189.8 54.6001 190 54.4001 190.4 54.2001L190.7 54.4001C189.5 55.1001 188.4 55.6001 187.2 55.9001C188.4 55.9001 189.6 55.9001 190.7 55.7001C190.5 55.5001 190.4 55.4001 190.2 55.2001L190.5 55.0001C191 55.4001 191.4 55.9001 191.7 56.3001L191.4 56.5001C191.2 56.3001 191.1 56.1001 191 56.0001C190.3 56.0001 189.6 56.1001 188.9 56.1001V57.1001C188.9 57.3001 188.9 57.4001 188.7 57.5001C188.6 57.5001 188.4 57.6001 188 57.6001C187.6 57.6001 187.8 57.6001 187.8 57.6001V57.2001C187.8 57.2001 188 57.2001 188.1 57.2001C188.3 57.2001 188.4 57.2001 188.4 57.2001C188.4 57.2001 188.4 57.2001 188.4 57.1001V56.1001C187.8 56.1001 187 56.1001 186 56.1001V55.8001C186.9 55.6001 187.8 55.3001 188.7 54.9001C188.2 54.9001 187.6 54.9001 187 54.9001C186.4 54.9001 186.6 54.9001 186.5 54.9001V54.6001C187 54.4001 187.6 54.1001 188.1 53.8001H185.5V53.5001H188.4V52.9001H186.2V52.6001H188.4V52.1001H185.8V51.8001H188.4V51.4001H188.8V51.8001H191.3V52.1001H188.8V52.6001H190.9V52.9001H188.8V53.5001H191.6V53.8001L191.7 53.9001ZM187.7 56.6001C187.3 56.9001 186.7 57.3001 185.9 57.6001L185.7 57.3001C186.4 57.0001 187 56.7001 187.5 56.4001L187.8 56.7001L187.7 56.6001ZM191.6 57.3001L191.4 57.6001C190.9 57.2001 190.3 56.9001 189.6 56.6001L189.8 56.3001C190.5 56.6001 191.1 56.9001 191.6 57.3001Z" fill="#AA8420" stroke="#AA8420" stroke-width="0.1" stroke-miterlimit="10"/>
</svg>
