<svg width="279" height="63" viewBox="0 0 279 63" fill="none" xmlns="http://www.w3.org/2000/svg">
<path d="M44.0002 63H36.7002V0H44.0002V0.2H36.9002V62.7H44.0002V62.9V63Z" fill="#231815"/>
<path d="M240.8 63H233.5V62.8H240.6V0.2H233.5V0H240.8V63Z" fill="#231815"/>
<path d="M51.4004 41.7998H53.4004V49.1998H54.4004V41.7998H56.4004V40.7998H51.4004V41.7998Z" fill="#003477"/>
<path d="M62.2998 44.1998H58.2998V40.7998H57.2998V49.1998H58.2998V45.1998H62.2998V49.1998H63.2998V40.7998H62.2998V44.1998Z" fill="#003477"/>
<path d="M69.5 48.2998H66V45.0998H69.4V44.0998H66V41.7998H69.5V40.7998H65V49.1998H69.5V48.1998V48.2998Z" fill="#003477"/>
<path d="M79.2002 44.1998H75.2002V40.7998H74.2002V49.1998H75.2002V45.1998H79.2002V49.1998H80.2002V40.7998H79.2002V44.1998Z" fill="#003477"/>
<path d="M90.0998 45.0001C90.0998 42.6001 88.0998 40.6001 85.6998 40.6001C83.2998 40.6001 81.2998 42.6001 81.2998 45.0001C81.2998 47.4001 83.2998 49.4001 85.6998 49.4001C88.0998 49.4001 90.0998 47.5001 90.0998 45.0001ZM85.6998 48.4001C83.8998 48.4001 82.3998 46.9001 82.3998 45.0001C82.3998 43.1001 83.7998 41.6001 85.6998 41.6001C87.5998 41.6001 88.9998 43.1001 88.9998 45.0001C88.9998 46.9001 87.4998 48.4001 85.6998 48.4001Z" fill="#003477"/>
<path d="M92.0996 42.9999L98.3996 49.5999V40.7999H97.3996V46.9999L91.0996 40.3999V49.1999H92.0996V42.8999V42.9999Z" fill="#003477"/>
<path d="M103.8 49.3998C106.1 49.3998 107.8 47.5998 107.8 45.2998V44.9998H104.5V45.9998H106.7C106.7 47.3998 105.3 48.4998 103.9 48.4998C102.5 48.4998 100.6 46.7998 100.6 45.0998C100.6 43.3998 102.1 41.6998 103.9 41.6998C105.7 41.6998 105.9 42.1998 106.5 43.0998L107.2 42.3998C106.4 41.3998 105.1 40.7998 103.8 40.7998C101.4 40.7998 99.4004 42.7998 99.4004 45.1998C99.4004 47.5998 101.3 49.5998 103.6 49.5998L103.8 49.3998Z" fill="#003477"/>
<path d="M113.3 45.6998L113.7 45.2998L116.9 49.1998H118.3L114.4 44.5998L118.2 40.7998H116.8L113.2 44.3998V40.7998H112.1V49.1998H113.2V45.6998H113.3Z" fill="#003477"/>
<path d="M122.8 49.4001C125.2 49.4001 127.2 47.5001 127.2 45.0001C127.2 42.5001 125.2 40.6001 122.8 40.6001C120.4 40.6001 118.4 42.6001 118.4 45.0001C118.4 47.4001 120.4 49.4001 122.8 49.4001ZM122.8 41.6001C124.8 41.6001 126.2 43.1001 126.2 45.0001C126.2 46.9001 124.7 48.4001 122.8 48.4001C120.9 48.4001 119.5 46.9001 119.5 45.0001C119.5 43.1001 120.9 41.6001 122.8 41.6001Z" fill="#003477"/>
<path d="M135.6 40.7999H134.6V46.9999L128.3 40.3999V49.1999H129.3V42.8999L135.6 49.4999V40.6999V40.7999Z" fill="#003477"/>
<path d="M141.5 45.9998H143.7C143.7 47.3998 142.3 48.4998 140.9 48.4998C139.5 48.4998 137.6 46.7998 137.6 45.0998C137.6 43.3998 139.1 41.6998 141 41.6998C142.9 41.6998 143 42.1998 143.6 43.0998L144.3 42.3998C143.5 41.3998 142.2 40.7998 140.9 40.7998C138.5 40.7998 136.5 42.7998 136.5 45.1998C136.5 47.5998 138.4 49.5998 140.7 49.5998C143 49.5998 144.7 47.7998 144.7 45.4998V45.1998H141.4V46.1998L141.5 45.9998Z" fill="#003477"/>
<path d="M155.4 46.1999V40.8999H154.4V45.8999C154.4 47.2999 154 48.4999 152.4 48.4999C150.8 48.4999 150.4 47.1999 150.4 45.8999V40.8999H149.4V46.1999C149.4 47.9999 150.5 49.4999 152.5 49.4999C154.5 49.4999 155.6 48.0999 155.6 46.1999H155.4Z" fill="#003477"/>
<path d="M164.2 40.7999H163.2V46.9999L156.9 40.3999V49.1999H157.9V42.8999L164.2 49.4999V40.6999V40.7999Z" fill="#003477"/>
<path d="M166.8 40.7998H165.8V49.1998H166.8V40.7998Z" fill="#003477"/>
<path d="M174.9 40.7998H173.8L171.3 46.9998L168.8 40.7998H167.6L171.3 49.5998L174.9 40.7998Z" fill="#003477"/>
<path d="M180.2 48.2998H176.7V45.0998H180.1V44.0998H176.7V41.7998H180.2V40.7998H175.7V49.1998H180.2V48.1998V48.2998Z" fill="#003477"/>
<path d="M182.7 45.7002H183.1L185.6 49.2002H186.9L184.3 45.5002C185.5 45.4002 186.3 44.3002 186.3 43.1002C186.3 41.9002 185.9 41.5002 185.2 41.1002C184.5 40.7002 183.7 40.7002 183 40.7002H181.7V49.1002H182.8V45.6002L182.7 45.7002ZM182.7 41.8002H183C184 41.8002 185.3 42.0002 185.3 43.3002C185.3 44.6002 184.1 44.8002 183.1 44.8002H182.8V41.8002H182.7Z" fill="#003477"/>
<path d="M190 48.4001C189.1 48.4001 188.4 47.7001 188.4 46.8001L187.3 47.0001C187.5 48.3001 188.5 49.3001 189.9 49.3001C191.3 49.3001 192.6 48.2001 192.6 46.7001C192.6 45.2001 191.7 44.6001 190.5 44.2001L189.9 44.0001C189.4 43.8001 188.7 43.4001 188.7 42.8001C188.7 42.2001 189.4 41.6001 190.1 41.6001C190.8 41.6001 191.1 41.9001 191.4 42.4001L192.2 41.9001C191.7 41.1001 191 40.6001 190 40.6001C189 40.6001 187.5 41.4001 187.5 42.8001C187.5 44.2001 188.4 44.5001 189.3 44.9001L189.9 45.1001C190.6 45.4001 191.3 45.8001 191.3 46.7001C191.3 47.6001 190.6 48.3001 189.7 48.3001L190 48.4001Z" fill="#003477"/>
<path d="M194.9 40.7998H193.8V49.1998H194.9V40.7998Z" fill="#003477"/>
<path d="M198.9 49.1998V41.7998H200.9V40.7998H195.9V41.7998H197.9V49.1998H199H198.9Z" fill="#003477"/>
<path d="M203.7 49.1998H204.8V45.5998L207.6 40.7998H206.4L204.3 44.3998L202.2 40.7998H201L203.7 45.5998V49.1998Z" fill="#003477"/>
<path d="M215.4 40.7002C213 40.7002 211 42.7002 211 45.1002C211 47.5002 213 49.5002 215.4 49.5002C217.8 49.5002 219.8 47.6002 219.8 45.1002C219.8 42.6002 217.8 40.7002 215.4 40.7002ZM215.4 48.4002C213.6 48.4002 212.1 46.9002 212.1 45.0002C212.1 43.1002 213.5 41.6002 215.4 41.6002C217.3 41.6002 218.8 43.1002 218.8 45.0002C218.8 46.9002 217.3 48.4002 215.4 48.4002Z" fill="#003477"/>
<path d="M225 41.7998V40.7998H220.9V49.1998H221.9V45.0998H224.8V44.0998H221.9V41.6998H224.9L225 41.7998Z" fill="#003477"/>
<path d="M67.5 57.6L66.9 57.4C66.4 57.2 65.7 56.9 65.7 56.2C65.7 55.5 66.4 55 67.1 55C67.8 55 68.1 55.3 68.4 55.8L69.2 55.3C68.7 54.5 68 54 67 54C66 54 64.5 54.8 64.5 56.2C64.5 57.6 65.4 57.9 66.3 58.3L66.9 58.5C67.6 58.8 68.3 59.2 68.3 60.1C68.3 61 67.6 61.7 66.7 61.7C65.8 61.7 65.1 61 65.1 60.1L64 60.3C64.2 61.6 65.2 62.6 66.6 62.6C68 62.6 69.3 61.5 69.3 60C69.3 58.5 68.4 57.9 67.2 57.5L67.5 57.6Z" fill="#003477"/>
<path d="M70.4004 58.5001C70.4004 60.9001 72.4004 62.8001 74.8004 62.8001C77.2004 62.8001 76.4004 62.6001 77.0004 62.2001V61.0001C76.4004 61.6001 75.6004 61.9001 74.8004 61.9001C72.9004 61.9001 71.5004 60.3001 71.5004 58.5001C71.5004 56.7001 72.9004 55.1001 74.8004 55.1001C76.7004 55.1001 76.4004 55.4001 77.0004 55.9001V54.7001C76.4004 54.3001 75.6004 54.1001 74.9004 54.1001C72.4004 54.1001 70.4004 56.0001 70.4004 58.5001Z" fill="#003477"/>
<path d="M79.4004 54.2002H78.4004V62.6002H79.4004V54.2002Z" fill="#003477"/>
<path d="M81.0996 62.6H85.5996V61.6H82.0996V58.4H85.4996V57.4H82.0996V55H85.5996V54H81.0996V62.4V62.6Z" fill="#003477"/>
<path d="M93.2004 60.3998L86.9004 53.7998V62.5998H88.0004V56.2998L94.3004 62.8998V54.0998H93.3004V60.2998L93.2004 60.3998Z" fill="#003477"/>
<path d="M95.4004 58.5001C95.4004 60.9001 97.4004 62.8001 99.8004 62.8001C102.2 62.8001 101.4 62.6001 102 62.2001V61.0001C101.4 61.6001 100.6 61.9001 99.8004 61.9001C97.9004 61.9001 96.5004 60.3001 96.5004 58.5001C96.5004 56.7001 97.9004 55.1001 99.8004 55.1001C101.7 55.1001 101.4 55.4001 102 55.9001V54.7001C101.4 54.3001 100.6 54.1001 99.9004 54.1001C97.4004 54.1001 95.4004 56.0001 95.4004 58.5001Z" fill="#003477"/>
<path d="M103.3 62.6H107.8V61.6H104.3V58.4H107.7V57.4H104.3V55H107.8V54H103.3V62.4V62.6Z" fill="#003477"/>
<path d="M111.7 62.5998H112.8L113.8 60.4998H117.7L118.7 62.5998H119.8L115.8 53.7998L111.8 62.5998H111.7ZM114.2 59.5998L115.7 56.1998L117.2 59.5998H114.2Z" fill="#003477"/>
<path d="M126.7 60.3998L120.4 53.7998V62.5998H121.5V56.2998L127.8 62.8998V54.0998H126.8V60.2998L126.7 60.3998Z" fill="#003477"/>
<path d="M131 54.2002H129.3V62.6002H131C133.7 62.6002 135.8 61.2002 135.8 58.4002C135.8 55.6002 133.7 54.2002 131.1 54.2002H131ZM130.7 61.7002H130.3V55.2002H130.7C132.8 55.2002 134.7 56.0002 134.7 58.4002C134.7 60.8002 132.8 61.6002 130.7 61.6002V61.7002Z" fill="#003477"/>
<path d="M139.5 55.2002H141.5V62.6002H142.5V55.2002H144.5V54.2002H139.5V55.2002Z" fill="#003477"/>
<path d="M145.4 62.6H149.9V61.6H146.4V58.4H149.8V57.4H146.4V55H149.9V54H145.4V62.4V62.6Z" fill="#003477"/>
<path d="M150.9 58.5001C150.9 60.9001 152.9 62.8001 155.3 62.8001C157.7 62.8001 156.9 62.6001 157.5 62.2001V61.0001C156.9 61.6001 156.1 61.9001 155.3 61.9001C153.4 61.9001 152 60.3001 152 58.5001C152 56.7001 153.4 55.1001 155.3 55.1001C157.2 55.1001 156.9 55.4001 157.5 55.9001V54.7001C156.9 54.3001 156.1 54.1001 155.4 54.1001C152.9 54.1001 150.9 56.0001 150.9 58.5001Z" fill="#003477"/>
<path d="M163.8 57.6002H159.8V54.2002H158.8V62.6002H159.8V58.6002H163.8V62.6002H164.9V54.2002H163.8V57.6002Z" fill="#003477"/>
<path d="M172.7 60.3998L166.4 53.7998V62.5998H167.5V56.2998L173.8 62.8998V54.0998H172.7V60.2998V60.3998Z" fill="#003477"/>
<path d="M179.1 54C176.7 54 174.7 56 174.7 58.4C174.7 60.8 176.7 62.8 179.1 62.8C181.5 62.8 183.5 60.9 183.5 58.4C183.5 55.9 181.5 54 179.1 54ZM179.1 61.8C177.3 61.8 175.7 60.3 175.7 58.4C175.7 56.5 177.1 55 179.1 55C181.1 55 182.5 56.5 182.5 58.4C182.5 60.3 181 61.8 179.1 61.8Z" fill="#003477"/>
<path d="M185.7 54.2001H184.6V62.6001H188.2V61.6001H185.6V54.1001L185.7 54.2001Z" fill="#003477"/>
<path d="M192.9 54C190.5 54 188.5 56 188.5 58.4C188.5 60.8 190.5 62.8 192.9 62.8C195.3 62.8 197.3 60.9 197.3 58.4C197.3 55.9 195.3 54 192.9 54ZM192.9 61.8C191.1 61.8 189.5 60.3 189.5 58.4C189.5 56.5 190.9 55 192.9 55C194.9 55 196.3 56.5 196.3 58.4C196.3 60.3 194.8 61.8 192.9 61.8Z" fill="#003477"/>
<path d="M202.7 59.3001H204.9C204.9 60.7001 203.5 61.8001 202.1 61.8001C200.7 61.8001 198.8 60.1001 198.8 58.4001C198.8 56.7001 200.3 55.0001 202.2 55.0001C204.1 55.0001 204.2 55.5001 204.8 56.4001L205.5 55.7001C204.7 54.7001 203.4 54.1001 202.1 54.1001C199.7 54.1001 197.7 56.1001 197.7 58.5001C197.7 60.9001 199.6 62.9001 201.9 62.9001C204.2 62.9001 205.9 61.1001 205.9 58.8001V58.5001H202.6V59.5001L202.7 59.3001Z" fill="#003477"/>
<path d="M209.6 57.8002L207.5 54.2002H206.3L209 59.0002V62.7002H210.1V59.0002L212.8 54.2002H211.6L209.5 57.8002H209.6Z" fill="#003477"/>
<path d="M143.5 7.3002C143.7 7.1002 143.7 6.7002 143.7 6.7002H133.6C133.6 6.7002 133.7 7.1002 133.8 7.3002H143.4H143.5Z" fill="#AA8420"/>
<path d="M142.9 8.1001C143.1 7.9001 143.3 7.6001 143.3 7.6001H134.1C134.1 7.6001 134.2 7.8001 134.4 8.1001H142.9Z" fill="#AA8420"/>
<path d="M142.2 8.9C142.4 8.8 142.6 8.5 142.6 8.5H134.7C134.7 8.5 134.9 8.7 135.1 8.9H142.2Z" fill="#AA8420"/>
<path d="M141.2 9.5998C141.4 9.5998 141.7 9.2998 141.7 9.2998H135.5C135.5 9.2998 135.5 9.2998 135.9 9.5998H141.1H141.2Z" fill="#AA8420"/>
<path d="M136.7 10.1001C136.7 10.1001 137.4 10.5001 138.6 10.5001C139.8 10.5001 140.7 10.1001 140.7 10.1001H136.7Z" fill="#AA8420"/>
<path d="M136.6 10.9999C136.6 10.9999 137.4 10.9999 137.8 11.3999C138.2 11.7999 138.6 12.3999 138.6 12.3999C138.6 12.3999 138.9 11.7999 139.3 11.4999C139.7 11.1999 140.5 10.9999 140.5 10.9999H148.4L150 13.2999H142.9C142.9 13.2999 142.4 13.2999 141.7 13.7999C141.3 13.9999 141 14.3999 141 14.3999C141 14.3999 141 14.5999 140.9 14.6999C140.9 14.7999 140.7 14.8999 140.7 14.8999H137C137 14.8999 136.9 14.8999 136.8 14.6999C136.8 14.5999 136.8 14.6999 136.8 14.4999C136.8 14.4999 136.6 14.0999 136 13.6999C135.4 13.2999 134.8 13.2999 134.8 13.2999H127.5L129.1 10.8999H136.9L136.6 10.9999Z" fill="#003477"/>
<path d="M131 14.2002V26.1002C131 26.1002 131 27.1002 131.9 28.6002C132.8 30.0002 134 30.7002 134 30.7002L135 29.1002C135 29.1002 134.1 28.6002 133.5 27.6002C132.8 26.6002 132.8 25.7002 132.8 25.7002V14.3002H130.9L131 14.2002Z" fill="#003477"/>
<path d="M144.4 14.2002V25.6002C144.4 25.6002 144.3 26.7002 143.7 27.6002C143.2 28.4002 142.3 29.1002 142.3 29.1002L143.3 30.6002C143.3 30.6002 144.8 29.5002 145.5 28.4002C146.2 27.3002 146.4 25.6002 146.4 25.6002V14.2002H144.5H144.4Z" fill="#003477"/>
<path d="M128 14.2002V26.1002C128 26.1002 128.1 27.9002 129.3 29.9002C130.5 31.9002 132.5 33.2002 132.5 33.2002L133.5 31.6002C133.5 31.6002 132.2 30.9002 131.1 29.3002C130 27.7002 130 26.2002 130 26.2002V14.3002H128.1L128 14.2002Z" fill="#003477"/>
<path d="M136.6 15.5V28.1C136.6 28.1 136.6 28.1 136.6 28.3C136.6 28.5 136.5 28.6 136.5 28.6L132.3 35.5H145.2L141 28.4V28.1C140.9 28.1 140.8 27.8 140.8 27.8V15.5H139.2V28.3C139.2 28.3 139.2 28.5 139.2 28.6C139.2 28.7 139.3 29 139.3 29L141.9 33.3H135.3L137.8 29.1C137.8 29.1 137.8 29 137.9 28.7C137.9 28.5 137.9 28.3 137.9 28.3V15.5H136.4H136.6Z" fill="#AA8420"/>
<path d="M147.3 14.2002V25.9002C147.3 25.9002 147.3 27.4002 146.2 29.1002C145.1 30.8002 143.8 31.6002 143.8 31.6002L144.7 33.2002C144.7 33.2002 146.6 32.0002 147.8 30.1002C149 28.2002 149.1 26.0002 149.1 26.0002V14.3002H147.2L147.3 14.2002Z" fill="#003477"/>
<path d="M133.6 6.4C133.6 6.4 133 2.9 135.5 1.1C135.5 1.1 136.7 0 138.6 0C140.5 0 141.8 1.1 141.8 1.1C144.6 3.2 143.8 6.4 143.8 6.4H133.6Z" fill="#AA8420"/>
<path d="M4.80039 44.2002V44.9002H0.900391V44.2002H2.50039V38.8002L1.00039 39.7002V38.9002L2.80039 37.7002H3.30039V44.1002H4.90039L4.80039 44.2002Z" fill="#AA8420"/>
<path d="M10.1004 40.6999C10.4004 40.8999 10.7004 41.1999 10.9004 41.4999C11.1004 41.7999 11.2004 42.1999 11.2004 42.6999C11.2004 43.1999 11.2004 43.4999 10.9004 43.8999C10.7004 44.2999 10.4004 44.4999 10.1004 44.6999C9.70039 44.8999 9.30039 44.9999 8.80039 44.9999C8.30039 44.9999 7.90039 44.9999 7.50039 44.7999C7.10039 44.5999 6.70039 44.3999 6.40039 44.1999L6.70039 43.5999C7.40039 44.0999 8.00039 44.3999 8.70039 44.3999C9.40039 44.3999 9.60039 44.2999 9.90039 43.9999C10.2004 43.6999 10.3004 43.2999 10.3004 42.7999C10.3004 42.2999 10.2004 41.9999 9.90039 41.6999C9.60039 41.3999 9.20039 41.2999 8.80039 41.2999C8.10039 41.2999 7.60039 41.5999 7.20039 42.0999H6.60039V37.8999H10.9004V38.5999H7.50039V41.0999C7.90039 40.6999 8.40039 40.4999 9.00039 40.4999C9.60039 40.4999 9.80039 40.4999 10.2004 40.7999L10.1004 40.6999Z" fill="#AA8420"/>
<path d="M250.9 37.7002V38.3002L247.6 44.8002H246.7L250 38.4002H246.2V37.7002H250.9Z" fill="#AA8420"/>
<path d="M256.1 40.6999C256.4 40.8999 256.7 41.1999 256.9 41.4999C257.1 41.7999 257.2 42.1999 257.2 42.6999C257.2 43.1999 257.2 43.4999 256.9 43.8999C256.7 44.2999 256.4 44.4999 256.1 44.6999C255.7 44.8999 255.3 44.9999 254.8 44.9999C254.3 44.9999 253.9 44.9999 253.5 44.7999C253.1 44.5999 252.7 44.3999 252.4 44.1999L252.7 43.5999C253.4 44.0999 254 44.3999 254.7 44.3999C255.4 44.3999 255.6 44.2999 255.9 43.9999C256.2 43.6999 256.3 43.2999 256.3 42.7999C256.3 42.2999 256.2 41.9999 255.9 41.6999C255.6 41.3999 255.2 41.2999 254.8 41.2999C254.1 41.2999 253.6 41.5999 253.2 42.0999H252.6V37.8999H256.9V38.5999H253.5V41.0999C253.9 40.6999 254.4 40.4999 255 40.4999C255.6 40.4999 255.8 40.4999 256.2 40.7999L256.1 40.6999Z" fill="#AA8420"/>
<path d="M17 26.5001C16.3 26.8001 15.5 27.0001 14.7 27.1001V28.8001H16.8V29.5001H14.7V31.5001C15.5 31.3001 16.3 31.0001 16.9 30.8001V31.6001C15.9 32.0001 14.8 32.3001 13.7 32.6001L13.5 31.9001C13.7 31.9001 13.8 31.9001 13.9 31.9001V26.7001C14.9 26.6001 15.8 26.4001 16.6 26.1001L17 26.7001V26.5001ZM20.4 31.3001C20.4 31.5001 20.4 31.7001 20.2 31.8001C20 31.9001 19.9 32.0001 19.8 32.0001C19.7 32.0001 19.4 32.0001 19.1 32.0001C18.8 32.0001 18.7 32.0001 18.6 32.0001L18.3 31.2001C18.5 31.2001 18.8 31.2001 19.4 31.2001C20 31.2001 19.6 31.2001 19.6 31.0001V26.8001H18V32.8001H17.3V26.1001H20.4V31.2001V31.3001Z" fill="black"/>
<path d="M25.7996 28.3H22.6996V29.4C22.6996 30.9 22.4996 32.2 22.1996 33.1L21.5996 32.7C21.8996 31.9 21.9996 31 21.9996 29.9V26.2H25.7996V28.3ZM25.0996 27.6V26.8H22.6996V27.6H25.0996ZM25.7996 31.8C25.7996 32 25.7996 32.2 25.5996 32.2C25.3996 32.2 25.2996 32.3 24.9996 32.2L24.7996 31.6C24.7996 31.6 24.7996 31.6 24.8996 31.6C25.0996 31.6 25.0996 31.6 25.0996 31.4V29.8H24.5996V32.7H23.9996V29.8H23.5996V32.2H22.9996V29.1H24.0996V28.4H24.6996V29.1H25.7996V31.6V31.8ZM26.9996 31.5H26.2996V26.5H26.9996V31.5ZM28.3996 32.3C28.3996 32.6 28.3996 32.8 28.1996 32.9C27.9996 32.9 27.7996 33 27.3996 33C26.9996 33 26.9996 33 26.8996 33L26.6996 32.3C26.8996 32.3 27.0996 32.3 27.2996 32.3C27.4996 32.3 27.5996 32.3 27.6996 32.3C27.7996 32.3 27.6996 32.3 27.6996 32.1V26H28.3996V32.3Z" fill="black"/>
<path d="M21.3004 39.6002H15.4004V39.3002H18.2004C18.2004 39.1002 18.0004 39.0002 17.9004 38.9002L18.2004 38.7002C18.3004 38.9002 18.4004 39.1002 18.5004 39.3002H21.2004V39.6002H21.3004ZM21.4004 44.0002C21.4004 44.3002 21.4004 44.5002 21.2004 44.6002C21.1004 44.7002 20.9004 44.8002 20.8004 44.8002H18.5004C18.3004 44.8002 18.2004 44.8002 18.1004 44.6002C18.0004 44.5002 17.9004 44.3002 17.9004 44.1002V43.9002L15.4004 44.1002V43.8002L17.9004 43.6002V43.2002L15.8004 43.4002V43.1002L17.9004 42.9002V42.5002C17.4004 42.5002 16.9004 42.5002 16.3004 42.5002V42.2002C17.7004 42.2002 19.1004 42.2002 20.1004 41.9002L20.3004 42.2002C19.7004 42.3002 19.0004 42.4002 18.2004 42.5002V42.9002L20.8004 42.7002V43.0002L18.2004 43.2002V43.6002L21.2004 43.4002V43.7002L18.2004 43.9002V44.2002C18.2004 44.2002 18.2004 44.3002 18.2004 44.4002C18.2004 44.4002 18.3004 44.4002 18.4004 44.4002H20.5004C20.8004 44.4002 20.9004 44.2002 20.9004 43.8002H21.2004L21.4004 44.0002ZM21.2004 42.4002H20.8004V41.7002H15.8004V42.4002H15.4004V41.4002H21.2004V42.4002ZM20.7004 41.0002H16.0004V40.0002H20.7004V41.0002ZM20.3004 40.7002V40.3002H16.4004V40.7002H20.3004Z" fill="#AA8420" stroke="#AA8420" stroke-width="0.1" stroke-miterlimit="10"/>
<path d="M24.4002 42.5002C24.0002 43.3002 23.3002 44.0002 22.5002 44.6002L22.2002 44.3002C23.0002 43.7002 23.6002 43.1002 24.0002 42.3002L24.3002 42.5002H24.4002ZM28.3002 41.6002H25.5002V44.9002H25.1002V41.6002H22.3002V41.2002H25.1002V38.7002H25.5002V41.2002H28.3002V41.6002ZM24.1002 40.6002L23.8002 40.8002C23.6002 40.4002 23.3002 39.9002 22.9002 39.4002L23.2002 39.2002C23.6002 39.7002 23.9002 40.1002 24.1002 40.6002ZM28.4002 44.2002L28.1002 44.5002C27.7002 43.8002 27.1002 43.1002 26.3002 42.5002L26.6002 42.3002C27.2002 42.8002 27.8002 43.5002 28.4002 44.3002V44.2002ZM27.7002 39.3002C27.4002 39.9002 27.1002 40.4002 26.8002 40.8002L26.4002 40.6002C26.7002 40.3002 27.0002 39.8002 27.3002 39.1002L27.6002 39.3002H27.7002Z" fill="#AA8420" stroke="#AA8420" stroke-width="0.1" stroke-miterlimit="10"/>
<path d="M249.1 31.9C248.1 32.3 247.2 32.7 246.4 32.9L246.2 32.3C246.9 32.1 247.8 31.8 248.9 31.3L249.1 31.9ZM249 27.5C248.5 28.6 247.9 29.5 247.3 30.4C247.6 30.4 248.1 30.1 248.7 29.9L248.9 30.6C248.1 30.9 247.3 31.2 246.5 31.4L246.3 30.8C246.8 30.3 247.2 29.7 247.6 29C247.2 29 246.9 29.2 246.5 29.2L246.3 28.6C246.8 27.9 247.3 27.1 247.7 26L248.3 26.2C248 27 247.7 27.7 247.2 28.3C247.4 28.3 247.7 28.3 248 28.1C248.2 27.9 248.3 27.6 248.4 27.2L249 27.5ZM253.2 31.5C253.1 32.5 252.7 33 252.2 33C251.7 33 251.8 33 251.6 32.7C251.4 32.5 251.2 32.3 251 31.9C250.4 32.3 249.7 32.6 248.9 33L248.5 32.4C249.4 32.1 250.1 31.7 250.7 31.3C250.5 30.8 250.4 30.3 250.3 29.8L248.9 30V29.3L250.3 29.1C250.3 28.7 250.3 28.4 250.3 28.2H249.2C249.2 28.3 249.2 27.7 249.2 27.7H250.3C250.3 27.6 250.3 26 250.3 26H251C251 26.3 251 26.8 251 27.5L252.9 27.3V27.9L251 28.2C251 28.5 251 28.8 251 29.1L253.1 28.8V29.5C253.2 29.5 251 29.8 251 29.8C251 30.2 251.1 30.6 251.2 31C251.5 30.7 251.8 30.4 252.2 29.9L252.7 30.2C252.4 30.7 251.9 31.2 251.5 31.6C251.6 31.8 251.8 32 251.9 32.1C252 32.2 252.1 32.3 252.2 32.3C252.2 32.3 252.2 32.2 252.3 31.9C252.3 31.7 252.4 31.5 252.4 31.2L253 31.5H253.2ZM252.6 26.7L252.2 27.2C251.9 26.9 251.6 26.7 251.2 26.6L251.6 26.1C252 26.3 252.3 26.5 252.6 26.8V26.7Z" fill="black"/>
<path d="M261.2 32.8H254.2V32.1H257.1V26H257.8V28.4H260.8V29.1H257.8V32.1H261.2V32.8Z" fill="black"/>
<path d="M262.1 38.9002C262.1 39.2002 261.9 39.6002 261.8 39.9002L261.6 40.4002V44.9002H261.3V41.1002C261.1 41.5002 260.9 41.8002 260.7 42.0002L260.4 41.7002C261 41.0002 261.4 40.0002 261.8 38.7002H262.1V38.9002ZM266.5 44.3002L266.3 44.6002C265.9 44.4002 265.4 44.0002 264.9 43.5002C264.9 43.7002 264.9 43.8002 264.9 43.9002C264.9 44.2002 264.9 44.4002 264.8 44.5002C264.8 44.6002 264.6 44.7002 264.5 44.8002C264.4 44.8002 264.1 44.8002 263.8 44.8002C263.5 44.8002 263.6 44.8002 263.5 44.8002V44.5002C264 44.5002 264.3 44.5002 264.4 44.5002C264.5 44.5002 264.6 44.3002 264.6 44.0002C264.6 43.7002 264.6 43.7002 264.6 43.5002C264 43.9002 263.2 44.3002 262.1 44.7002L261.9 44.4002C263 44.1002 263.9 43.7002 264.5 43.2002C264.5 43.2002 264.5 43.0002 264.3 42.8002C263.7 43.2002 263 43.6002 262.1 43.8002L261.9 43.5002C262.9 43.2002 263.6 42.9002 264.2 42.5002C264.2 42.4002 264 42.3002 263.9 42.2002C263.4 42.5002 262.8 42.7002 262 42.9002L261.8 42.6002C262.6 42.5002 263.3 42.2002 263.9 41.8002H262.5V40.6002C262.4 40.7002 262.2 40.8002 262.1 40.9002L261.9 40.6002C262.7 40.0002 263.3 39.5002 263.6 38.9002L263.9 39.1002C263.9 39.2002 263.8 39.3002 263.7 39.4002H265.4V39.7002C265.2 39.9002 265 40.2002 264.8 40.4002H266.1V41.7002H264.5C264.4 41.8002 264.3 41.9002 264.2 42.0002C264.4 42.3002 264.6 42.5002 264.8 42.9002C265.2 42.7002 265.6 42.4002 266.1 42.0002L266.4 42.2002C266 42.5002 265.6 42.8002 265.1 43.1002C265.6 43.7002 266.2 44.1002 266.7 44.4002L266.5 44.3002ZM265 39.6002H263.5C263.2 39.9002 263 40.1002 262.7 40.3002H264.4C264.6 40.0002 264.9 39.8002 265 39.6002ZM264.1 41.3002V40.6002H262.8V41.3002H264.1ZM265.8 41.3002V40.6002H264.5V41.3002H265.8Z" fill="#AA8420" stroke="#AA8420" stroke-width="0.1" stroke-miterlimit="10"/>
<path d="M273.501 41.2002H270.601C270.101 41.6002 269.601 41.8002 269.101 42.0002H270.201C270.901 42.0002 271.301 42.0002 271.301 42.0002C271.601 41.9002 271.801 41.7002 272.201 41.5002L272.501 41.7002C271.301 42.4002 270.201 42.9002 269.001 43.2002C270.201 43.2002 271.401 43.2002 272.501 43.0002C272.301 42.8002 272.201 42.7002 272.001 42.5002L272.301 42.3002C272.801 42.7002 273.201 43.2002 273.501 43.6002L273.201 43.8002C273.001 43.6002 272.901 43.4002 272.801 43.3002C272.101 43.3002 271.401 43.4002 270.701 43.4002V44.4002C270.701 44.6002 270.701 44.7002 270.501 44.8002C270.401 44.8002 270.201 44.9002 269.801 44.9002C269.401 44.9002 269.601 44.9002 269.601 44.9002V44.5002C269.601 44.5002 269.801 44.5002 269.901 44.5002C270.101 44.5002 270.201 44.5002 270.201 44.5002C270.201 44.5002 270.201 44.5002 270.201 44.4002V43.4002C269.601 43.4002 268.801 43.4002 267.801 43.4002V43.1002C268.701 42.9002 269.601 42.6002 270.501 42.2002C270.001 42.2002 269.401 42.2002 268.801 42.2002C268.201 42.2002 268.401 42.2002 268.301 42.2002V41.9002C268.801 41.7002 269.401 41.4002 269.901 41.1002H267.301V40.8002H270.201V40.2002H268.001V39.9002H270.201V39.4002H267.601V39.1002H270.201V38.7002H270.601V39.1002H273.101V39.4002H270.601V39.9002H272.701V40.2002H270.601V40.8002H273.401V41.1002L273.501 41.2002ZM269.501 43.9002C269.101 44.2002 268.501 44.6002 267.701 44.9002L267.501 44.6002C268.201 44.3002 268.801 44.0002 269.301 43.7002L269.601 44.0002L269.501 43.9002ZM273.401 44.6002L273.201 44.9002C272.701 44.5002 272.101 44.2002 271.401 43.9002L271.601 43.6002C272.301 43.9002 272.901 44.2002 273.401 44.6002Z" fill="#AA8420" stroke="#AA8420" stroke-width="0.1" stroke-miterlimit="10"/>
</svg>
