<svg width="334" height="48" viewBox="0 0 334 48" fill="none" xmlns="http://www.w3.org/2000/svg">
<g clip-path="url(#clip0_83_3489)">
<path d="M43.8 47.9H36.5V0.5H43.8V0.7H36.7V47.6H43.8V47.8V47.9Z" fill="#231815"/>
<path d="M296.3 47.9001H289V47.7001H296.1V0.800098H289V0.600098H296.3V48.0001V47.9001Z" fill="#231815"/>
<path d="M4.7002 41.7V42.4H0.700195V41.7H2.3002V36.2999L0.800195 37.2V36.4L2.6002 35.2H3.1002V41.5999H4.7002V41.7Z" fill="#AA8420"/>
<path d="M9.9002 38.1999C10.2002 38.3999 10.5002 38.5999 10.7002 38.9999C10.9002 39.3999 11.0002 39.6999 11.0002 40.1999C11.0002 40.6999 10.9002 40.9999 10.7002 41.3999C10.5002 41.7999 10.2002 41.9999 9.9002 42.1999C9.5002 42.3999 9.1002 42.4999 8.6002 42.4999C8.1002 42.4999 7.7002 42.4999 7.3002 42.2999C6.9002 42.0999 6.5002 41.8999 6.2002 41.6999L6.5002 41.0999C7.2002 41.5999 7.8002 41.8999 8.5002 41.8999C9.2002 41.8999 9.4002 41.7999 9.7002 41.4999C10.0002 41.1999 10.1002 40.7999 10.1002 40.2999C10.1002 39.7999 10.0002 39.4999 9.7002 39.1999C9.4002 38.8999 9.1002 38.7999 8.6002 38.7999C7.9002 38.7999 7.4002 39.0999 7.0002 39.5999H6.4002V35.3999H10.7002V36.0999H7.3002V38.5999C7.7002 38.1999 8.2002 37.9999 8.8002 37.9999C9.4002 37.9999 9.6002 37.9999 10.0002 38.2999L9.9002 38.1999Z" fill="#AA8420"/>
<path d="M306.5 35.3V35.9001L303.2 42.4001H302.3L305.6 36H301.8V35.3H306.5Z" fill="#AA8420"/>
<path d="M308.3 41.5C307.9 40.9 307.7 39.9999 307.7 38.7999C307.7 37.5999 307.9 36.6999 308.3 36.0999C308.7 35.4999 309.3 35.2 310.2 35.2C311.1 35.2 311.6 35.4999 312.1 36.0999C312.5 36.6999 312.7 37.5999 312.7 38.7999C312.7 39.9999 312.5 40.9 312.1 41.5C311.7 42.1 311.1 42.4 310.2 42.4C309.3 42.4 308.8 42.1 308.3 41.5ZM311.4 41C311.7 40.5 311.8 39.7999 311.8 38.7999C311.8 37.7999 311.7 36.9999 311.4 36.5999C311.1 36.0999 310.7 35.9 310.1 35.9C309.5 35.9 309.1 36.0999 308.9 36.5999C308.6 37.0999 308.5 37.7999 308.5 38.7999C308.5 39.7999 308.6 40.6 308.9 41C309.2 41.5 309.6 41.7 310.1 41.7C310.6 41.7 311.1 41.5 311.3 41H311.4Z" fill="#AA8420"/>
<path d="M173.3 26.3L170.3 21.3C170.3 21.3 170.3 21.2 170.3 21V11.7H169.2V21.3L171.2 24.6H166.5C166.5 24.6 168.4 21.4 168.5 21.3V11.7H167.4V21C167.4 21.2 167.4 21.3 167.4 21.3L164.4 26.3H173.6H173.3Z" fill="#AA8420"/>
<path d="M172.4 5.1C172.4 5.1 173 2.8 170.9 1.2C170.9 1.2 170.1 0.5 168.6 0.5C167.1 0.5 166.4 1.2 166.4 1.2C164.5 2.5 165 5.1 165 5.1H172.4Z" fill="#AA8420"/>
<path d="M165.3 5.7999H172.2C172.2 5.6999 172.3 5.4999 172.3 5.3999H165.1C165.1 5.4999 165.1 5.6999 165.2 5.7999" fill="#AA8420"/>
<path d="M172.1 6H165.4C165.4 6.1 165.5 6.3 165.6 6.4H171.8C171.8 6.3 172 6.1 172 6" fill="#AA8420"/>
<path d="M166.1 6.99995H171.4C171.4 6.89995 171.6 6.79995 171.7 6.69995H165.8C165.8 6.79995 166 6.89995 166.1 6.99995Z" fill="#AA8420"/>
<path d="M166.6 7.50005H170.8C170.9 7.50005 171 7.30005 171.1 7.30005H166.3C166.3 7.30005 166.5 7.50005 166.6 7.50005Z" fill="#AA8420"/>
<path d="M167.2 7.80005C167.7 8.00005 168.2 8.10005 168.7 8.10005C169.2 8.10005 169.8 8.00005 170.2 7.80005H167.2Z" fill="#AA8420"/>
<path d="M175.9 8.30005H170.2C170.2 8.30005 169.7 8.30005 169.3 8.60005C169 8.80005 168.7 9.30005 168.7 9.40005C168.7 9.40005 168.5 8.90005 168.1 8.60005C167.7 8.30005 167.2 8.30005 167.2 8.30005H161.5L160.4 10.1H165.6C165.6 10.1 165.7 10.1 165.8 10.1C165.9 10.1 166.2 10.2 166.5 10.4C166.9 10.7 167 10.8 167.1 10.9L167.3 11.1H170.1C170.1 11.1 170.2 10.9 170.3 10.9C170.3 10.9 170.5 10.7 170.9 10.4C171.2 10.2 171.5 10.1 171.6 10.1H171.8H177L175.9 8.30005Z" fill="#003477"/>
<path d="M161 10.7001V19.3001V19.5001C161 20.4001 161.4 21.1001 161.9 22.0001C162.7 23.4001 164.2 24.4001 164.2 24.4001L164.9 23.3001C164.9 23.3001 163.9 22.8001 163.2 21.6001C163 21.4001 162.9 21.1001 162.8 20.9001C162.7 20.7001 162.6 20.5001 162.6 20.3001C162.6 20.2001 162.6 20.1001 162.6 19.9001C162.6 19.7001 162.6 19.6001 162.6 19.5001V19.2001V10.6001H161.2L161 10.7001Z" fill="#003477"/>
<path d="M163.1 10.7001V19.4001V19.5001C163.1 19.6001 163.1 19.7001 163.2 19.9001C163.2 20.2001 163.5 20.5001 163.7 20.9001C164.3 21.9001 165.2 22.4001 165.2 22.4001L165.9 21.3001C165.9 21.3001 165.7 21.2001 165.4 20.9001C165.2 20.7001 165 20.5001 164.8 20.2001C164.6 19.9001 164.5 19.6001 164.4 19.4001C164.4 19.2001 164.4 19.1001 164.4 19.0001V10.6001H163L163.1 10.7001Z" fill="#003477"/>
<path d="M176.5 10.7001V19.3001V19.5001C176.5 20.4001 176.1 21.1001 175.6 22.0001C174.8 23.4001 173.3 24.4001 173.3 24.4001L172.6 23.3001C172.6 23.3001 173.6 22.8001 174.3 21.6001C174.5 21.4001 174.6 21.1001 174.7 20.9001C174.7 20.7001 174.9 20.5001 174.9 20.3001C174.9 20.2001 174.9 20.1001 175 19.9001C175 19.7001 175 19.6001 175 19.5001V19.2001V10.6001H176.4L176.5 10.7001Z" fill="#003477"/>
<path d="M174.3 10.7001V19.3001C174.3 19.4001 174.3 19.5001 174.3 19.5001C174.3 19.6001 174.3 19.7001 174.2 19.9001C174.1 20.2001 173.9 20.5001 173.7 20.9001C173.1 21.9001 172.1 22.4001 172.1 22.4001L171.4 21.3001C171.4 21.3001 171.6 21.2001 171.9 20.9001C172.1 20.7001 172.3 20.5001 172.5 20.2001C172.7 19.9001 172.8 19.6001 172.9 19.4001C172.9 19.2001 172.9 19.1001 172.9 19.0001V10.6001H174.3V10.7001Z" fill="#003477"/>
<path d="M52.6 42.2H54V47.5H54.7V42.2H56.1V41.5H52.5V42.2H52.6Z" fill="#003477"/>
<path d="M60.4004 43.9H57.6004V41.5H56.9004V47.5H57.6004V44.6H60.4004V47.5H61.2004V41.5H60.4004V43.9Z" fill="#003477"/>
<path d="M62.2998 47.4999H65.4998V46.7999H62.9998V44.4999H65.3998V43.7999H62.9998V42.0999H65.4998V41.3999H62.2998V47.3999V47.4999Z" fill="#003477"/>
<path d="M72.4004 43.9H69.6004V41.5H68.9004V47.5H69.6004V44.6H72.4004V47.5H73.1004V41.5H72.4004V43.9Z" fill="#003477"/>
<path d="M77.0004 41.3999C75.3004 41.3999 73.9004 42.7999 73.9004 44.4999C73.9004 46.1999 75.3004 47.5999 77.0004 47.5999C78.7004 47.5999 80.1004 46.2999 80.1004 44.4999C80.1004 42.6999 78.7004 41.3999 77.0004 41.3999ZM77.0004 46.8999C75.7004 46.8999 74.6004 45.8999 74.6004 44.4999C74.6004 43.0999 75.6004 42.0999 77.0004 42.0999C78.4004 42.0999 79.4004 43.1999 79.4004 44.4999C79.4004 45.7999 78.3004 46.8999 77.0004 46.8999Z" fill="#003477"/>
<path d="M85.2998 46L80.7998 41.3V47.6H81.5998V43.1L86.0998 47.8V41.6H85.3998V46H85.2998Z" fill="#003477"/>
<path d="M90.3004 45.2H91.9004C91.9004 46.2 90.9004 47 89.9004 47C88.9004 47 87.6004 45.8 87.6004 44.6C87.6004 43.4 88.6004 42.2 90.0004 42.2C91.4004 42.2 91.4004 42.6 91.9004 43.2L92.4004 42.7C91.8004 42 90.9004 41.5 90.0004 41.5C88.3004 41.5 86.9004 42.9 86.9004 44.6C86.9004 46.3 88.2004 47.7 89.9004 47.7C91.6004 47.7 92.7004 46.4 92.7004 44.8V44.6H90.3004V45.3V45.2Z" fill="#003477"/>
<path d="M100.1 41.5H99.1004L96.6004 44.1V41.5H95.9004V47.5H96.6004V45L96.9004 44.7L99.2004 47.5H100.2L97.5004 44.2L100.2 41.5H100.1Z" fill="#003477"/>
<path d="M103.4 41.3999C101.7 41.3999 100.3 42.7999 100.3 44.4999C100.3 46.1999 101.7 47.5999 103.4 47.5999C105.1 47.5999 106.5 46.2999 106.5 44.4999C106.5 42.6999 105.1 41.3999 103.4 41.3999ZM103.4 46.8999C102.1 46.8999 101 45.8999 101 44.4999C101 43.0999 102 42.0999 103.4 42.0999C104.8 42.0999 105.8 43.1999 105.8 44.4999C105.8 45.7999 104.7 46.8999 103.4 46.8999Z" fill="#003477"/>
<path d="M111.8 46L107.3 41.3V47.6H108.1V43.1L112.6 47.8V41.6H111.8V46Z" fill="#003477"/>
<path d="M116.8 45.2H118.4C118.4 46.2 117.4 47 116.4 47C115.4 47 114.1 45.8 114.1 44.6C114.1 43.4 115.1 42.2 116.5 42.2C117.9 42.2 117.9 42.6 118.4 43.2L118.9 42.7C118.3 42 117.4 41.5 116.5 41.5C114.8 41.5 113.4 42.9 113.4 44.6C113.4 46.3 114.8 47.7 116.4 47.7C118 47.7 119.2 46.4 119.2 44.8V44.6H116.8V45.3V45.2Z" fill="#003477"/>
<path d="M125.8 45.1001C125.8 46.1001 125.5 47.0001 124.4 47.0001C123.3 47.0001 123 46.1001 123 45.1001V41.6001H122.2V45.4001C122.2 46.7001 123 47.7001 124.4 47.7001C125.8 47.7001 126.6 46.7001 126.6 45.4001V41.6001H125.9V45.1001H125.8Z" fill="#003477"/>
<path d="M132.1 46L127.6 41.3V47.6H128.4V43.1L132.9 47.8V41.6H132.1V46Z" fill="#003477"/>
<path d="M134.7 41.5H133.9V47.5H134.7V41.5Z" fill="#003477"/>
<path d="M137.9 46.0001L136.1 41.6001H135.3L137.9 47.9001L140.5 41.6001H139.7L137.9 46.0001Z" fill="#003477"/>
<path d="M141.1 47.4999H144.3V46.7999H141.8V44.4999H144.2V43.7999H141.8V42.0999H144.3V41.3999H141.1V47.3999V47.4999Z" fill="#003477"/>
<path d="M148.6 43.2C148.6 42.6 148.3 42.1 147.8 41.8C147.3 41.5 146.7 41.5 146.2 41.5H145.3V47.5H146.1V45H146.4L148.2 47.5H149.1L147.2 44.9C148.1 44.8 148.6 44.1 148.6 43.2ZM146.3 44.4H146.1V42.2H146.3C147 42.2 147.9 42.3 147.9 43.3C147.9 44.3 147.1 44.4 146.3 44.4Z" fill="#003477"/>
<path d="M151.6 44L151.2 43.8C150.8 43.7 150.4 43.4001 150.4 42.9001C150.4 42.4001 150.9 42 151.4 42C151.9 42 152.1 42.2 152.4 42.6L153 42.2001C152.7 41.6001 152.1 41.3 151.5 41.3C150.9 41.3 149.7 41.9001 149.7 42.9001C149.7 43.9001 150.3 44.1001 151 44.4001L151.4 44.6C151.9 44.8 152.4 45.1001 152.4 45.7001C152.4 46.3001 151.9 46.9001 151.3 46.9001C150.7 46.9001 150.1 46.4 150.1 45.8L149.3 46C149.4 47 150.2 47.7001 151.1 47.7001C152 47.7001 153 46.9 153 45.8C153 44.7 152.4 44.3 151.5 44H151.6Z" fill="#003477"/>
<path d="M154.7 41.5H153.9V47.5H154.7V41.5Z" fill="#003477"/>
<path d="M155.4 42.2H156.8V47.5H157.5V42.2H158.9V41.5H155.3V42.2H155.4Z" fill="#003477"/>
<path d="M161.3 44.1001L159.8 41.6001H158.9L160.9 45.0001V47.6001H161.7V45.0001L163.6 41.6001H162.7L161.2 44.1001H161.3Z" fill="#003477"/>
<path d="M169.3 41.3999C167.6 41.3999 166.2 42.7999 166.2 44.4999C166.2 46.1999 167.6 47.5999 169.3 47.5999C171 47.5999 172.4 46.2999 172.4 44.4999C172.4 42.6999 171 41.3999 169.3 41.3999ZM169.3 46.8999C168 46.8999 166.9 45.8999 166.9 44.4999C166.9 43.0999 167.9 42.0999 169.3 42.0999C170.7 42.0999 171.7 43.1999 171.7 44.4999C171.7 45.7999 170.6 46.8999 169.3 46.8999Z" fill="#003477"/>
<path d="M173.3 47.5H174V44.6H176.1V43.9H174V42.2H176.1V41.5H173.2V47.5H173.3Z" fill="#003477"/>
<path d="M181.4 44L181 43.8C180.6 43.7 180.2 43.4001 180.2 42.9001C180.2 42.4001 180.7 42 181.2 42C181.7 42 181.9 42.2 182.2 42.6L182.8 42.2001C182.5 41.6001 181.9 41.3 181.3 41.3C180.7 41.3 179.5 41.9001 179.5 42.9001C179.5 43.9001 180.1 44.1001 180.8 44.4001L181.2 44.6C181.7 44.8 182.2 45.1001 182.2 45.7001C182.2 46.3001 181.7 46.9001 181.1 46.9001C180.5 46.9001 179.9 46.4 179.9 45.8L179.1 46C179.2 47 180 47.7001 181 47.7001C182 47.7001 182.9 46.9 182.9 45.8C182.9 44.7 182.3 44.3 181.4 44Z" fill="#003477"/>
<path d="M183.5 44.6C183.5 46.3 184.9 47.7 186.6 47.7C188.3 47.7 187.7 47.5 188.2 47.3V46.4C187.8 46.8 187.2 47 186.6 47C185.3 47 184.3 45.9 184.3 44.6C184.3 43.3 185.3 42.2 186.7 42.2C188.1 42.2 187.8 42.4 188.3 42.8V41.9C187.9 41.6 187.3 41.5 186.8 41.5C185 41.5 183.6 42.9 183.6 44.7L183.5 44.6Z" fill="#003477"/>
<path d="M189.9 41.5H189.1V47.5H189.9V41.5Z" fill="#003477"/>
<path d="M191.1 47.4999H194.3V46.7999H191.8V44.4999H194.2V43.7999H191.8V42.0999H194.3V41.3999H191.1V47.3999V47.4999Z" fill="#003477"/>
<path d="M199.7 46L195.2 41.3V47.6H196V43.1L200.5 47.8V41.6H199.7V46Z" fill="#003477"/>
<path d="M201.2 44.6C201.2 46.3 202.6 47.7 204.3 47.7C206 47.7 205.4 47.5 205.9 47.3V46.4C205.5 46.8 204.9 47 204.3 47C203 47 201.9 45.9 201.9 44.6C201.9 43.3 202.9 42.2 204.3 42.2C205.7 42.2 205.4 42.4 205.9 42.8V41.9C205.5 41.6 204.9 41.5 204.4 41.5C202.6 41.5 201.2 42.9 201.2 44.7V44.6Z" fill="#003477"/>
<path d="M206.9 47.4999H210.1V46.7999H207.6V44.4999H210V43.7999H207.6V42.0999H210.1V41.3999H206.9V47.3999V47.4999Z" fill="#003477"/>
<path d="M212.9 47.5H213.7L214.4 46H217.1L217.8 47.5H218.6L215.7 41.3L212.9 47.5ZM214.6 45.3L215.7 42.9001L216.8 45.3H214.7H214.6Z" fill="#003477"/>
<path d="M223.6 46L219.1 41.3V47.6H219.8V43.1L224.3 47.8V41.6H223.5V46H223.6Z" fill="#003477"/>
<path d="M226.6 41.5H225.4V47.5H226.6C228.5 47.5 230 46.5 230 44.5C230 42.5 228.5 41.5 226.6 41.5ZM226.4 46.8H226.1V42.2H226.4C227.9 42.2 229.2 42.8 229.2 44.5C229.2 46.2 227.9 46.8 226.4 46.8Z" fill="#003477"/>
<path d="M232.6 42.2H234V47.5H234.7V42.2H236.1V41.5H232.5V42.2H232.6Z" fill="#003477"/>
<path d="M236.9 47.4999H240.1V46.7999H237.6V44.4999H240V43.7999H237.6V42.0999H240.1V41.3999H236.9V47.3999V47.4999Z" fill="#003477"/>
<path d="M240.8 44.6C240.8 46.3 242.2 47.7 243.9 47.7C245.6 47.7 245 47.5 245.5 47.3V46.4C245.1 46.8 244.5 47 243.9 47C242.6 47 241.5 45.9 241.5 44.6C241.5 43.3 242.5 42.2 243.9 42.2C245.3 42.2 245 42.4 245.5 42.8V41.9C245.1 41.6 244.5 41.5 244 41.5C242.2 41.5 240.8 42.9 240.8 44.7V44.6Z" fill="#003477"/>
<path d="M249.9 43.9H247.1V41.5H246.3V47.5H247.1V44.6H249.9V47.5H250.7V41.5H249.9V43.9Z" fill="#003477"/>
<path d="M256.3 46L251.8 41.3V47.6H252.5V43.1L257 47.8V41.6H256.3V46Z" fill="#003477"/>
<path d="M260.9 41.3999C259.2 41.3999 257.8 42.7999 257.8 44.4999C257.8 46.1999 259.2 47.5999 260.9 47.5999C262.6 47.5999 264 46.2999 264 44.4999C264 42.6999 262.6 41.3999 260.9 41.3999ZM260.9 46.8999C259.6 46.8999 258.5 45.8999 258.5 44.4999C258.5 43.0999 259.5 42.0999 260.9 42.0999C262.3 42.0999 263.3 43.1999 263.3 44.4999C263.3 45.7999 262.2 46.8999 260.9 46.8999Z" fill="#003477"/>
<path d="M265.6 41.5H264.8V47.5H267.4V46.8H265.6V41.5Z" fill="#003477"/>
<path d="M270.6 41.3999C268.9 41.3999 267.5 42.7999 267.5 44.4999C267.5 46.1999 268.9 47.5999 270.6 47.5999C272.3 47.5999 273.7 46.2999 273.7 44.4999C273.7 42.6999 272.3 41.3999 270.6 41.3999ZM270.6 46.8999C269.3 46.8999 268.2 45.8999 268.2 44.4999C268.2 43.0999 269.2 42.0999 270.6 42.0999C272 42.0999 273 43.1999 273 44.4999C273 45.7999 271.9 46.8999 270.6 46.8999Z" fill="#003477"/>
<path d="M277.7 45.2H279.2C279.2 46.2 278.2 47 277.2 47C276.2 47 274.9 45.8 274.9 44.6C274.9 43.4 276 42.2 277.3 42.2C278.6 42.2 278.7 42.6 279.2 43.2L279.7 42.7C279.1 42 278.2 41.5 277.3 41.5C275.6 41.5 274.2 42.9 274.2 44.6C274.2 46.3 275.6 47.7 277.2 47.7C278.8 47.7 280 46.4 280 44.8V44.6H277.6V45.3L277.7 45.2Z" fill="#003477"/>
<path d="M284 41.5L282.5 44L281 41.5H280.1L282 44.9V47.5H282.8V44.9L284.8 41.5H283.9H284Z" fill="#003477"/>
<path d="M130.4 35.1C130.7 35 131 34.9001 131.1 34.9001V38.4001H131.9V38H135.9V38.4001H136.7V34.9001C136.8 34.9001 136.9 35 137.1 35.1C137.2 35.1 137.3 35.1001 137.5 35.2001L137.9 34.5C136.7 34.3 135.8 33.9 135.2 33.3H137.8V32.6H134.4V31.9C135.5 31.9 136.4 31.7 137.2 31.5L136.8 30.8C135.7 31 134 31.2001 131.9 31.2001C129.8 31.2001 131.1 31.2001 130.8 31.2001L131.1 32C131.6 32 132.5 32 133.7 32V32.7001H130.4V33.4001H132.9C132.2 34.0001 131.3 34.4001 130.3 34.7001L130.7 35.4001L130.4 35.1ZM135.8 37.3H131.8V36.6H135.8V37.3ZM134.2 33.2001C134.7 33.9001 135.4 34.4001 136.2 34.7001H134.2V33.2001ZM135.8 35.3V35.9001H131.8V35.3H135.8ZM133.4 33.2001V34.7001H131.5C132.3 34.4001 132.9 33.9001 133.4 33.2001Z" fill="#003477"/>
<path d="M146 31.9V32.3H147.1V33.1H145.9V33.8H147.2C147 34.3 146.4 34.8001 145.5 35.2001L146 35.9001C146.4 35.7001 146.6 35.5001 146.8 35.4001V37.2001C146.8 37.6001 146.8 37.8 147 38C147.1 38.1 147.4 38.2001 147.7 38.2001H150.3C150.7 38.2001 151 38.2 151.1 38C151.2 37.9 151.4 37.4 151.4 36.6L150.6 36.3C150.6 36.7 150.6 37.0001 150.5 37.2001C150.5 37.4001 150.3 37.4001 150.1 37.4001H147.7C147.5 37.4001 147.4 37.4 147.4 37.1V36.6H150V34.9001C150.3 35.2001 150.7 35.5 151.2 35.8L151.5 35.1C150.6 34.7 150.1 34.2 149.9 33.8H151.5V33.1H150V32.3H151.3V31.7001H150V30.8H149.3V31.7001H147.8V30.8H147.1V31.7001H146C145.7 31.6001 145.3 31.3 144.8 31L144.3 31.6C144.7 31.8 145.1 32.1 145.5 32.6L146 32V31.9ZM147.9 32.3H149.4V33.1H147.9V32.3ZM148 33.8H149.1C149.3 34.1 149.4 34.3 149.6 34.5H147.5C147.7 34.3 147.9 34 148 33.8ZM147.4 35.2001H149.3V36H147.4V35.2001Z" fill="#003477"/>
<path d="M145 35.3999C144.8 36.1999 144.5 36.8999 144 37.5999L144.7 38.2999C145.2 37.5999 145.5 36.7999 145.7 35.8999L145 35.4999V35.3999Z" fill="#003477"/>
<path d="M145.8 33.8C145.4 33.5 145 33.2 144.6 33L144.1 33.6C144.4 33.8 144.8 34.1 145.2 34.5L145.8 33.8Z" fill="#003477"/>
<path d="M158.5 36.8001C159 36.1001 159.4 35.5001 159.6 35.0001V38.3001H160.4V34.5001C160.5 34.7001 160.7 34.9001 160.8 35.0001C161 35.2001 161.1 35.4001 161.3 35.6001L161.8 34.9001C161.5 34.6001 161 34.1001 160.4 33.5001H161.6V32.8001H160.4V31.6001C160.8 31.6001 161.2 31.4001 161.6 31.3001L161.3 30.6001C160.4 30.9001 159.4 31.1001 158.2 31.2001L158.4 31.9001C158.9 31.9001 159.4 31.9001 159.7 31.8001V32.8001H158.2V33.5001H159.7C159.4 34.4001 158.8 35.2001 158.2 36.0001L158.7 36.7001L158.5 36.8001Z" fill="#003477"/>
<path d="M163.7 34.3C163.1 33.8 162.6 33.5 162.2 33.3L161.7 33.8C162.1 34.1 162.6 34.4001 163.2 34.9001L163.7 34.3Z" fill="#003477"/>
<path d="M163.9 32.3C163.3 31.8 162.8 31.5 162.4 31.3L161.9 31.8C162.3 32 162.8 32.4001 163.4 32.9001L163.9 32.3Z" fill="#003477"/>
<path d="M164.9 30.7H164.1V35.4L161.4 35.7999V36.5999L164.1 36.2V38.4H164.9V36.0999H165.6V35.2H164.9C164.9 35.3 164.9 30.7 164.9 30.7Z" fill="#003477"/>
<path d="M179.7 37.6001C179 37.4001 178.4 37.1001 177.9 36.6001C178.2 36.3001 178.5 36.0001 178.8 35.5001C179.1 35.0001 179.3 34.7001 179.3 34.3001V33.6001H177.6V32.5001H179.5V31.8001H177.6V30.7001H176.8V31.8001H175V32.3001H174V30.6001H173.2V32.3001H172V33.0001H173.2V34.6001C172.8 34.6001 172.4 34.8001 171.9 34.8001L172.1 35.7001C172.4 35.7001 172.7 35.5001 173.2 35.4001V37.1001C173.2 37.3001 173.2 37.4001 172.9 37.4001H172.2L172.4 38.2001H173C173.4 38.2001 173.7 38.2001 173.8 38.0001C173.9 37.9001 174 37.6001 174 37.2001V35.2001C174.5 35.0001 174.8 34.9001 175 34.8001V34.0001C174.8 34.1001 174.5 34.2001 174 34.4001V33.0001H175V32.5001H176.8V33.6001H175.2V34.4001H178.4C178.2 35.1001 177.8 35.6001 177.2 36.1001C176.8 35.7001 176.4 35.2001 176.1 34.6001L175.4 34.9001C175.8 35.6001 176.2 36.2001 176.6 36.6001C175.8 37.1001 175 37.5001 174.3 37.6001L174.7 38.3001C175.5 38.1001 176.3 37.7001 177.2 37.1001C177.8 37.7001 178.5 38.1001 179.2 38.3001L179.6 37.5001L179.7 37.6001Z" fill="#003477"/>
<path d="M193.1 38.2999L193.7 37.5C192.9 37 192.3 36.2999 191.8 35.5999C191.3 34.8999 191 34.2 190.9 33.5H193.5V32.7H190.1C190.1 32.3 190.1 31.6 190.1 30.7H189.3C189.3 31.6 189.3 32.2 189.2 32.7H186.3V33.5999H189.1C189 34.3999 188.6 35.0999 188.1 35.7999C187.5 36.4999 186.9 37.1 186.1 37.5L186.7 38.2999C188.5 37.0999 189.6 35.4999 190 33.5999H190.1C190.6 35.7999 191.7 37.3999 193.1 38.2999Z" fill="#003477"/>
<path d="M204.3 31.9999C204.1 31.5999 203.9 31.1999 203.7 30.8999L203.1 31.1999C203.3 31.5999 203.5 31.8999 203.7 32.3999L204.4 32.0999L204.3 31.9999Z" fill="#003477"/>
<path d="M202.6 32.1001C202.4 31.7001 202.2 31.4001 201.9 31.1001L201.3 31.4001C201.5 31.7001 201.7 32.1001 201.9 32.5001L202.6 32.2001V32.1001Z" fill="#003477"/>
<path d="M203.2 37.5C202.9 37.5 202.7 37.5 202.4 37.5V38.2001H203.6C203.8 38.2001 203.9 38.2 204.1 38C204.1 38 204.2 37.8 204.3 37.6V36.3H207.3V35.6H204.3V35.4001C205 35.1001 205.6 34.8 206.2 34.5V33.8H201.7V34.5H205.1C204.6 34.7 204 34.9 203.6 35.1V35.6H200.6V36.3H203.6V37.3C203.6 37.4 203.6 37.5 203.4 37.5H203.2Z" fill="#003477"/>
<path d="M201 33.1999H206.6V34.1999H207.4V32.5999H205.8C206 32.1999 206.3 31.6999 206.5 31.1999L205.7 30.8999C205.4 31.5999 205.2 32.1999 204.9 32.5999H200.2V34.1999H201V33.1999Z" fill="#003477"/>
<path d="M16.0996 24.1C15.3996 24.4 14.5996 24.6 13.7996 24.7V26.4H15.8996V27.1H13.7996V29.1C14.5996 28.9 15.3996 28.6 15.9996 28.4V29.2C14.9996 29.6 13.8996 29.9 12.7996 30.2L12.5996 29.5C12.7996 29.5 12.8996 29.5 12.9996 29.5V24.2999C13.9996 24.1999 14.8996 24 15.6996 23.7L16.0996 24.2999V24.1ZM19.3996 28.9C19.3996 29.1 19.3996 29.3 19.1996 29.4C18.9996 29.5 18.8996 29.6 18.7996 29.6C18.5996 29.6 18.3996 29.6 18.0996 29.6C17.7996 29.6 17.6996 29.6 17.5996 29.6L17.2996 28.7999C17.4996 28.7999 17.7996 28.7999 18.3996 28.7999C18.9996 28.7999 18.5996 28.8 18.5996 28.6V24.4H16.9996V30.4H16.2996V23.7H19.3996V28.7999V28.9Z" fill="black"/>
<path d="M24.8992 25.8H21.7992V26.9C21.7992 28.4 21.5992 29.7 21.2992 30.6L20.6992 30.2C20.9992 29.4 21.0992 28.5 21.0992 27.4V23.7H24.8992V25.8ZM24.1992 25.1V24.3H21.7992V25.1H24.1992ZM24.8992 29.4C24.8992 29.6 24.8992 29.8 24.6992 29.8C24.4992 29.8 24.3992 29.9 24.0992 29.8L23.8992 29.2C23.8992 29.2 23.8992 29.2 23.9992 29.2C24.1992 29.2 24.1992 29.2 24.1992 29V27.4H23.6992V30.3H23.0992V27.4H22.6992V29.8H22.0992V26.7H23.1992V26H23.7992V26.7H24.8992V29.2V29.4ZM26.0992 29H25.3992V24H26.0992V29ZM27.3992 29.8C27.3992 30.1 27.3992 30.3 27.1992 30.4C26.9992 30.4 26.7992 30.5 26.3992 30.5C25.9992 30.5 25.9992 30.5 25.8992 30.5L25.6992 29.8C25.8992 29.8 26.0992 29.8 26.2992 29.8C26.4992 29.8 26.5992 29.8 26.6992 29.8C26.6992 29.8 26.6992 29.8 26.6992 29.6V23.5H27.3992V29.8Z" fill="black"/>
<path d="M20.5996 37.0001H14.6996V36.7001H17.4996C17.4996 36.5001 17.2996 36.4001 17.1996 36.3001L17.4996 36.1001C17.5996 36.3001 17.6996 36.5001 17.7996 36.7001H20.4996V37.0001H20.5996ZM20.5996 41.5001C20.5996 41.8001 20.5996 42.0001 20.3996 42.1001C20.2996 42.2001 20.0996 42.3001 19.9996 42.3001H17.6996C17.4996 42.3001 17.3996 42.3001 17.2996 42.1001C17.1996 42.0001 17.0996 41.8001 17.0996 41.6001V41.4001L14.5996 41.6001V41.3001L17.0996 41.1001V40.7001L14.9996 40.9001V40.6001L17.0996 40.4001V40.0001C16.5996 40.0001 16.0996 40.0001 15.4996 40.0001V39.7001C16.8996 39.7001 18.2996 39.7001 19.2996 39.4001L19.4996 39.7001C18.8996 39.8001 18.1996 39.9001 17.3996 40.0001V40.4001L19.9996 40.2001V40.5001L17.3996 40.7001V41.1001L20.3996 40.9001V41.2001L17.3996 41.4001V41.7001C17.3996 41.7001 17.3996 41.8001 17.3996 41.9001C17.3996 41.9001 17.4996 41.9001 17.5996 41.9001H19.6996C19.9996 41.9001 20.0996 41.7001 20.0996 41.3001H20.3996L20.5996 41.5001ZM20.4996 39.9001H20.0996V39.2001H15.0996V39.9001H14.6996V38.9001H20.4996V39.9001ZM19.8996 38.5001H15.1996V37.5001H19.8996V38.5001ZM19.5996 38.2001V37.8001H15.6996V38.2001H19.5996Z" fill="#AA8420" stroke="#AA8420" stroke-width="0.1" stroke-miterlimit="10"/>
<path d="M23.7 39.9002C23.3 40.7002 22.6 41.4002 21.8 42.0002L21.5 41.7002C22.3 41.1002 22.9 40.5002 23.3 39.7002L23.6 39.9002H23.7ZM27.6 39.1002H24.8V42.4002H24.4V39.1002H21.6V38.7002H24.4V36.2002H24.8V38.7002H27.6V39.1002ZM23.3 38.1002L23 38.3002C22.8 37.9002 22.5 37.4002 22.1 36.9002L22.4 36.7002C22.8 37.2002 23.1 37.6002 23.3 38.1002ZM27.6 41.7002L27.3 42.0002C26.9 41.3002 26.3 40.6002 25.5 40.0002L25.8 39.8002C26.4 40.3002 27 41.0002 27.6 41.8002V41.7002ZM27 36.7002C26.7 37.3002 26.4 37.8002 26.1 38.2002L25.7 38.0002C26 37.7002 26.3 37.2002 26.6 36.5002L26.9 36.7002H27Z" fill="#AA8420" stroke="#AA8420" stroke-width="0.1" stroke-miterlimit="10"/>
<path d="M305 29.2001C304 29.6001 303.1 30.0001 302.3 30.2001L302.1 29.6C302.8 29.4 303.7 29.1 304.8 28.6L305 29.2001ZM304.9 24.9C304.4 26 303.8 26.9 303.2 27.8C303.5 27.8 304 27.5 304.6 27.3L304.8 28C304 28.3 303.2 28.6 302.4 28.8L302.2 28.2001C302.7 27.7001 303.1 27.1 303.5 26.4C303.1 26.4 302.8 26.6 302.4 26.6L302.2 26C302.7 25.3 303.2 24.5 303.6 23.4L304.2 23.6C303.9 24.4 303.6 25.1001 303.1 25.7001C303.3 25.7001 303.6 25.7 303.9 25.5C304.1 25.3 304.2 25 304.3 24.6L304.9 24.9ZM309.1 28.8C309 29.8 308.6 30.3 308.1 30.3C307.6 30.3 307.7 30.3 307.5 30C307.3 29.8 307.1 29.6001 306.9 29.2001C306.3 29.6001 305.6 29.9 304.8 30.3L304.4 29.7001C305.3 29.4001 306 29 306.6 28.6C306.4 28.1 306.3 27.6 306.2 27.1L304.8 27.3V26.6L306.2 26.4C306.2 26 306.2 25.7 306.2 25.5H305.1C305.1 25.6 305.1 25 305.1 25H306.2C306.2 24.9 306.2 23.3 306.2 23.3H306.9C306.9 23.6 306.9 24.1 306.9 24.8L308.8 24.6V25.2001L306.9 25.5C306.9 25.8 306.9 26.1 306.9 26.4L309 26.1V26.8C309.1 26.8 306.9 27.1 306.9 27.1C306.9 27.5 307 27.9 307.1 28.3C307.4 28 307.7 27.7001 308.1 27.2001L308.6 27.5C308.3 28 307.8 28.5 307.4 28.9C307.5 29.1 307.7 29.3 307.8 29.4C307.9 29.5 308 29.6 308.1 29.6C308.1 29.6 308.1 29.5001 308.2 29.2001C308.2 29.0001 308.3 28.8 308.3 28.5L308.9 28.8H309.1ZM308.5 24L308.1 24.5C307.8 24.2 307.5 24 307.1 23.9L307.5 23.4C307.9 23.6 308.2 23.8 308.5 24.1V24Z" fill="black"/>
<path d="M317.1 30.1H310.1V29.4H313V23.3H313.7V25.7001H316.7V26.4H313.7V29.4H317.1V30.1Z" fill="black"/>
<path d="M317.899 36.4C317.899 36.7 317.699 37.1 317.599 37.4L317.399 37.9V42.4H317.099V38.5999C316.899 38.9999 316.699 39.3 316.499 39.5L316.199 39.2C316.799 38.5 317.199 37.5 317.599 36.2H317.899V36.4ZM322.299 41.9L322.099 42.2C321.699 42 321.199 41.5999 320.699 41.0999C320.699 41.2999 320.699 41.4 320.699 41.5C320.699 41.8 320.699 41.9999 320.599 42.0999C320.599 42.1999 320.399 42.3 320.299 42.4C320.199 42.4 319.899 42.4 319.599 42.4C319.299 42.4 319.399 42.4 319.299 42.4V42.0999C319.799 42.0999 320.099 42.0999 320.199 42.0999C320.299 42.0999 320.399 41.8999 320.399 41.5999C320.399 41.2999 320.399 41.2999 320.399 41.0999C319.799 41.4999 318.999 41.8999 317.899 42.2999L317.699 42C318.799 41.7 319.699 41.2999 320.299 40.7999C320.299 40.7999 320.299 40.6 320.099 40.4C319.499 40.8 318.799 41.2 317.899 41.4L317.699 41.0999C318.699 40.7999 319.399 40.4999 319.999 40.0999C319.999 39.9999 319.799 39.8999 319.699 39.7999C319.199 40.0999 318.599 40.3 317.799 40.5L317.599 40.2C318.399 40.1 319.099 39.8 319.699 39.4H318.299V38.2C318.199 38.3 317.999 38.4 317.899 38.5L317.699 38.2C318.499 37.6 319.099 37.1 319.399 36.5L319.699 36.7C319.699 36.8 319.599 36.9 319.499 37H321.199V37.2999C320.999 37.4999 320.799 37.8 320.599 38H321.899V39.2999H320.299C320.199 39.3999 320.099 39.4999 319.999 39.5999C320.199 39.8999 320.399 40.1 320.599 40.5C320.999 40.3 321.399 39.9999 321.899 39.5999L322.199 39.7999C321.799 40.0999 321.399 40.4 320.899 40.7C321.399 41.3 321.999 41.7 322.499 42L322.299 41.9ZM320.699 37.0999H319.199C318.899 37.3999 318.699 37.5999 318.399 37.7999H320.099C320.399 37.4999 320.599 37.2999 320.699 37.0999ZM319.899 38.9V38.2H318.599V38.9H319.899ZM321.599 38.9V38.2H320.299V38.9H321.599Z" fill="#AA8420" stroke="#AA8420" stroke-width="0.1" stroke-miterlimit="10"/>
<path d="M329.3 38.7H326.4C325.9 39.1 325.4 39.3 324.9 39.5H326C326.7 39.5 327.1 39.5 327.1 39.5C327.4 39.4 327.6 39.2 328 39L328.3 39.2C327.1 39.9 326 40.4 324.8 40.7C326 40.7 327.2 40.7 328.3 40.5C328.1 40.3 328 40.2 327.8 40L328.1 39.7999C328.6 40.1999 329 40.6999 329.3 41.0999L329 41.2999C328.8 41.0999 328.7 40.8999 328.6 40.7999C327.9 40.7999 327.2 40.9 326.5 40.9V41.9C326.5 42.1 326.5 42.1999 326.3 42.2999C326.2 42.2999 326 42.4 325.6 42.4C325.2 42.4 325.4 42.4 325.4 42.4V42C325.4 42 325.6 42 325.7 42C325.9 42 326 42 326 42C326 42 326 42 326 41.9V40.9C325.4 40.9 324.6 40.9 323.6 40.9V40.5999C324.5 40.3999 325.4 40.1 326.3 39.7C325.8 39.7 325.2 39.7 324.6 39.7C324 39.7 324.2 39.7 324.1 39.7V39.4C324.6 39.2 325.2 38.8999 325.7 38.5999H323.1V38.2999H326V37.7H323.8V37.4H326V36.9H323.4V36.5999H326V36.2H326.4V36.5999H328.9V36.9H326.4V37.4H328.5V37.7H326.4V38.2999H329.2V38.5999L329.3 38.7ZM325.3 41.4C324.9 41.7 324.3 42.1 323.5 42.4L323.3 42.0999C324 41.7999 324.6 41.5 325.1 41.2L325.4 41.5L325.3 41.4ZM329.2 42.0999L329 42.4C328.5 42 327.9 41.7 327.2 41.4L327.4 41.0999C328.1 41.3999 328.7 41.6999 329.2 42.0999Z" fill="#AA8420" stroke="#AA8420" stroke-width="0.1" stroke-miterlimit="10"/>
</g>
<defs>
<clipPath id="clip0_83_3489">
<rect width="334" height="48" fill="white"/>
</clipPath>
</defs>
</svg>
