<svg width="261" height="82" viewBox="0 0 261 82" fill="none" xmlns="http://www.w3.org/2000/svg">
<path d="M137.5 11.4C137.7 11.1 137.8 10.5 137.8 10.5H123.7C123.7 10.5 123.9 11.1 124 11.4H137.5Z" fill="#AA8420"/>
<path d="M136.7 12.5999C137 12.3999 137.2 11.8999 137.2 11.8999H124.3C124.3 11.8999 124.4 12.2999 124.8 12.5999H136.7Z" fill="#AA8420"/>
<path d="M135.6 13.7001C135.9 13.5001 136.2 13.1001 136.2 13.1001H125.2C125.2 13.1001 125.5 13.4001 125.7 13.7001H135.6Z" fill="#AA8420"/>
<path d="M134.4 14.7999C134.7 14.6999 135.1 14.3999 135.1 14.3999H126.5C126.5 14.3999 126.5 14.3999 127.1 14.7999H134.4Z" fill="#AA8420"/>
<path d="M128 15.3999C128 15.3999 128.9 15.8999 130.7 15.8999C132.5 15.8999 133.6 15.3999 133.6 15.3999H128Z" fill="#AA8420"/>
<path d="M127.9 16.7002C127.9 16.7002 129 16.7002 129.6 17.3002C130.2 17.9002 130.7 18.8002 130.7 18.8002C130.7 18.8002 131.1 17.9002 131.7 17.5002C132.3 17.0002 133.3 16.8002 133.3 16.8002H144.4L146.6 20.2002H136.6C136.6 20.2002 135.9 20.2002 134.8 20.9002C134.2 21.2002 133.8 21.8002 133.8 21.8002C133.8 21.8002 133.8 22.1002 133.6 22.2002C133.5 22.3002 133.4 22.5002 133.2 22.5002C133.1 22.5002 133.1 22.5002 133.1 22.5002H127.9C127.9 22.5002 127.7 22.5002 127.6 22.2002C127.5 22.0002 127.6 22.1002 127.4 21.9002C127.4 21.8002 127.1 21.3002 126.3 20.8002C125.5 20.3002 124.7 20.2002 124.7 20.2002H114.6L116.8 16.7002H127.8H127.9Z" fill="#003477"/>
<path d="M120 21.3999V38.5999C120 38.5999 120 40.0999 121.3 42.1999C122.5 44.2999 124.3 45.1999 124.3 45.1999L125.7 42.8999C125.7 42.8999 124.5 42.0999 123.5 40.6999C122.6 39.1999 122.6 37.9999 122.6 37.9999V21.3999H120Z" fill="#003477"/>
<path d="M138.8 21.3998V37.9998C138.8 37.9998 138.6 39.6998 137.8 40.7998C137 41.9998 135.8 42.9998 135.8 42.9998L137.1 45.1998C137.1 45.1998 139.1 43.6998 140.1 41.9998C141.1 40.3998 141.3 37.8998 141.3 37.8998V21.2998H138.7L138.8 21.3998Z" fill="#003477"/>
<path d="M115.9 21.3999V38.6999C115.9 38.6999 116.1 41.3999 117.7 44.1999C119.3 46.9999 122.2 48.8999 122.2 48.8999L123.6 46.5999C123.6 46.5999 121.7 45.5999 120.2 43.1999C118.7 40.7999 118.6 38.5999 118.6 38.5999V21.3999H115.9Z" fill="#003477"/>
<path d="M127.9 23.3002V41.6002C127.9 41.6002 127.9 41.6002 127.9 41.9002C127.9 42.2002 127.7 42.4002 127.7 42.4002L121.8 52.5002H139.8L133.9 42.2002L133.7 41.7002V41.2002V23.3002H131.5V41.8002C131.5 41.8002 131.5 42.1002 131.5 42.3002C131.5 42.5002 131.7 42.8002 131.7 42.8002L135.3 49.0002H126.1L129.7 42.8002C129.7 42.8002 129.8 42.6002 129.9 42.3002C129.9 42.0002 129.9 41.8002 129.9 41.8002V23.2002H127.8L127.9 23.3002Z" fill="#AA8420"/>
<path d="M142.9 21.3999V38.3999C142.9 38.3999 142.9 40.5999 141.3 43.0999C139.8 45.5999 138 46.6999 138 46.6999L139.3 48.9999C139.3 48.9999 142 47.1999 143.7 44.3999C145.4 41.5999 145.6 38.3999 145.6 38.3999V21.3999H142.9Z" fill="#003477"/>
<path d="M123.6 10.0002C123.6 10.0002 122.7 4.9002 126.3 2.3002C126.3 2.3002 127.9 0.700195 130.6 0.700195C133.3 0.700195 135.1 2.2002 135.1 2.2002C139 5.2002 137.9 9.9002 137.9 9.9002H123.7L123.6 10.0002Z" fill="#AA8420"/>
<path d="M75.3002 68.2998V66.5998H66.9002V64.8998C69.6002 64.6998 71.8002 64.3998 73.6002 63.9998L72.7002 62.2998C70.0002 62.8998 66.0002 63.2998 60.7002 63.2998C55.4002 63.2998 58.7002 63.2998 57.9002 63.2998L58.6002 65.1998C59.9002 65.1998 62.0002 65.1998 65.0002 65.0998V66.7998H56.8002V68.4998H63.0002C61.2002 70.0998 59.1002 71.1998 56.7002 71.6998L57.7002 73.4998C58.5002 73.1998 59.1002 72.9998 59.4002 72.8998V81.7998H61.2002V80.8998H71.0002V81.7998H72.8002V72.7998C73.1002 72.8998 73.4002 73.0998 73.7002 73.1998C74.0002 73.2998 74.3002 73.3998 74.6002 73.4998L75.5002 71.5998C72.6002 70.9998 70.4002 69.8998 68.9002 68.3998H75.3002V68.2998ZM65.0002 68.3998V72.1998H60.5002C62.4002 71.3998 63.9002 70.0998 65.0002 68.3998ZM71.0002 78.9998H61.2002V77.1998H71.0002V78.9998ZM71.0002 75.4998H61.2002V73.8998H71.0002V75.4998ZM71.8002 72.1998H66.9002V68.3998C68.1002 70.0998 69.8002 71.3998 71.8002 72.1998Z" fill="#003477"/>
<path d="M82.2998 79.7001L83.8998 81.4001C84.9998 79.5001 85.8998 77.5001 86.3998 75.2001L84.6998 74.1001C84.2998 76.1001 83.4998 77.9001 82.2998 79.6001V79.7001Z" fill="#003477"/>
<path d="M96.9004 77.2001V73.0001C97.7004 73.7001 98.7004 74.5001 99.9004 75.3001L100.8 73.5001C98.6004 72.4001 97.3004 71.3001 96.8004 70.2001H100.6V68.5001H97.0004V66.4001H100.3V64.8001H97.0004V62.6001H95.2004V64.8001H91.6004V62.6001H89.8004V64.8001H87.1004V65.1001C86.3004 64.5001 85.4004 63.8001 84.2004 63.1001L82.9004 64.6001C83.8004 65.2001 84.8004 66.0001 85.9004 67.0001L87.1004 65.4001V66.5001H89.8004V68.6001H86.8004V70.3001H90.0004C89.4004 71.6001 88.0004 72.8001 85.8004 73.8001L86.9004 75.5001C87.8004 74.9001 88.4004 74.5001 88.7004 74.2001V78.8001C88.7004 79.7001 88.9004 80.4001 89.2004 80.7001C89.5004 81.0001 90.1004 81.2001 91.0004 81.2001H97.5004C98.5004 81.2001 99.2004 81.0001 99.5004 80.6001C99.9004 80.2001 100.1 79.1001 100.4 77.2001L98.5004 76.5001C98.5004 77.6001 98.3004 78.4001 98.2004 78.8001C98.1004 79.2001 97.8004 79.4001 97.2004 79.4001H91.3004C90.8004 79.4001 90.6004 79.2001 90.6004 78.7001V77.4001H97.0004L96.9004 77.2001ZM91.6004 66.2001H95.2004V68.2001H91.6004V66.2001ZM92.0004 70.0001H94.7004C95.1004 70.7001 95.5004 71.3001 95.9004 71.9001H90.8004C91.3004 71.4001 91.7004 70.7001 92.0004 70.0001ZM90.5004 73.5001H95.1004V75.5001H90.5004V73.5001Z" fill="#003477"/>
<path d="M86.5004 70.1001C85.5004 69.3001 84.5004 68.6001 83.6004 68.1001L82.4004 69.6001C83.2004 70.1001 84.1004 70.9001 85.2004 71.8001L86.5004 70.0001V70.1001Z" fill="#003477"/>
<path d="M122.1 66.2998C120.5 65.0998 119.3 64.2998 118.5 63.7998L117.3 65.1998C118.2 65.7998 119.4 66.6998 120.9 67.8998L122.2 66.2998H122.1Z" fill="#003477"/>
<path d="M124.7 62.2001H122.8V74.1001L116.1 75.1001V77.0001L122.8 75.9001V81.6001H124.7V75.7001L126.5 75.4001V73.5001L124.7 73.8001V62.1001V62.2001Z" fill="#003477"/>
<path d="M113.3 69.6998V69.4998H116.3V67.6998H113.3V64.7998C114.4 64.5998 115.4 64.2998 116.3 63.9998L115.6 62.2998C113.5 63.0998 110.9 63.5998 107.9 63.7998L108.3 65.4998C109.6 65.4998 110.7 65.2998 111.4 65.1998V67.7998H107.7V69.5998H111.4C110.6 71.8998 109.3 73.9998 107.6 75.9998L108.7 77.8998C110 76.0998 110.9 74.5998 111.4 73.2998V81.7998H113.2V72.0998C113.6 72.5998 113.9 73.0998 114.3 73.4998C114.7 73.9998 115.1 74.4998 115.5 75.0998L116.6 73.2998C115.8 72.4998 114.7 71.2998 113.2 69.8998L113.3 69.6998Z" fill="#003477"/>
<path d="M121.7 71.2001C120.2 70.0001 119 69.2001 118 68.6001L116.8 70.0001C117.8 70.7001 119.1 71.6001 120.4 72.8001L121.6 71.2001H121.7Z" fill="#003477"/>
<path d="M149.6 74.4002C150.3 73.2002 150.7 72.2002 150.9 71.5002V69.8002H146.9V67.0002H151.6V65.1002H146.9V62.2002H144.9V65.1002H140.6V66.4002H138.2V62.2002H136.2V66.4002H133.3V68.3002H136.2V72.5002C135.3 72.8002 134.2 73.0002 133 73.1002L133.5 75.3002C134.1 75.1002 135 74.9002 136.2 74.6002V78.8002C136.2 79.3002 136 79.5002 135.5 79.5002H133.8L134.3 81.5002H135.9C136.9 81.5002 137.5 81.3002 137.8 81.0002C138.1 80.7002 138.2 80.0002 138.2 79.1002V74.0002C139.3 73.6002 140.1 73.3002 140.5 73.0002V71.0002C140 71.2002 139.2 71.6002 138.2 71.9002V68.2002H140.5V66.9002H144.8V69.7002H140.9V71.6002H148.8C148.2 73.3002 147.3 74.8002 145.9 75.9002C145 74.9002 144.1 73.6002 143.1 71.9002L141.4 72.6002C142.4 74.5002 143.4 75.9002 144.4 77.0002C142.5 78.3002 140.6 79.2002 138.7 79.7002L139.8 81.6002C141.7 81.2002 143.7 80.1002 145.8 78.5002C147.3 80.0002 149 81.0002 150.7 81.6002L151.7 79.7002C150 79.2002 148.5 78.4002 147.2 77.3002C148 76.6002 148.7 75.7002 149.4 74.5002L149.6 74.4002Z" fill="#003477"/>
<path d="M172.8 74.8001C171.7 73.0001 171 71.2001 170.7 69.5001H177.1V67.3001H168.7C168.8 66.2001 168.9 64.5001 168.9 62.1001H166.8C166.8 64.3001 166.8 66.0001 166.5 67.3001H159.3V69.5001H166.2C165.9 71.4001 165.1 73.3001 163.7 75.2001C162.4 77.0001 160.7 78.5001 158.8 79.6001L160.3 81.6001C164.8 78.5001 167.4 74.5001 168.3 69.5001H168.6C169.9 75.1001 172.4 79.1001 176 81.5001L177.5 79.6001C175.5 78.3001 174 76.7001 172.8 74.8001Z" fill="#003477"/>
<path d="M195.5 66.2998C195 66.8998 194.5 67.2998 194.1 67.5998C193.8 67.3998 193.5 67.0998 193.3 66.9998C193.1 66.8998 192.9 66.6998 192.6 66.4998L191.6 67.3998C192.2 67.8998 192.7 68.1998 192.9 68.3998C192.4 68.6998 191.7 68.8998 190.8 69.1998L191.7 70.5998C192.6 70.2998 193.4 69.8998 194 69.3998C194 69.3998 194.4 69.7998 195.1 70.5998L196.4 69.5998C196 69.1998 195.6 68.7998 195.3 68.4998C195.7 68.1998 196.2 67.7998 196.7 67.2998L195.6 66.3998L195.5 66.2998Z" fill="#003477"/>
<path d="M190.5 64.9998L191.5 66.3998C192.4 65.9998 193.2 65.5998 193.8 65.0998C194 65.0998 194.3 65.4998 194.8 66.2998L196 65.3998C195.6 64.8998 195.2 64.5998 195 64.2998C195.5 63.9998 195.9 63.5998 196.2 63.1998L195.2 62.2998C195 62.5998 194.6 62.9998 194 63.3998C193.5 62.9998 192.9 62.5998 192.4 62.2998L191.3 63.2998C191.9 63.6998 192.3 63.9998 192.7 64.2998C192.4 64.4998 191.6 64.7998 190.5 65.0998V64.9998Z" fill="#003477"/>
<path d="M186.4 72.5002H200.8V75.5002H202.6V70.8002H201.5L201.7 62.6002H196.8V64.2002H200V65.3002H197V66.7002H199.9V67.9002H197V69.3002H199.8V70.7002H187.3V69.3002H190.2V67.9002H187.2V66.7002H190.2V65.3002H187.1V64.3002C188.7 64.2002 189.8 64.0002 190.6 63.7002L189.7 62.2002C188.5 62.5002 187 62.7002 185.3 62.8002L185.5 70.8002H184.5V75.5002H186.3V72.5002H186.4Z" fill="#003477"/>
<path d="M194.7 76.6999C196.4 76.0999 197.8 75.4999 199 74.8999V73.3999H187.9V74.8999H196.3C194.9 75.2999 193.7 75.5999 192.8 75.7999V76.6999H184.2V78.3999H192.8V79.1999C192.8 79.5999 192.6 79.7999 192.2 79.7999H189.5L190 81.3999H192.9C194.1 81.3999 194.7 80.6999 194.7 79.1999V78.3999H203V76.6999H194.7Z" fill="#003477"/>
<path d="M43.7004 81.7H36.4004V1H43.7004V1.2H36.6004V81.4H43.7004V81.6V81.7Z" fill="#231815"/>
<path d="M223.3 81.7001H216V81.5001H223.1V1.3001H216V1.1001H223.3V81.8001V81.7001Z" fill="#231815"/>
<path d="M4.5 50.7002V51.4002H0.5V50.7002H2.1V45.3002L0.6 46.2002V45.4002L2.4 44.2002H2.9V50.6002H4.5V50.7002Z" fill="#AA8420"/>
<path d="M10.5998 50.6998V51.3998H5.9998V50.7998L8.4998 47.9998C8.7998 47.5998 9.0998 47.2998 9.1998 46.9998C9.3998 46.6998 9.3998 46.3998 9.3998 46.0998C9.3998 45.7998 9.2998 45.3998 9.0998 45.1998C8.8998 44.9998 8.4998 44.8998 8.0998 44.8998C7.3998 44.8998 6.6998 45.1998 6.0998 45.6998L5.7998 45.0998C6.0998 44.7998 6.3998 44.5998 6.8998 44.4998C7.2998 44.2998 7.7998 44.2998 8.1998 44.2998C8.8998 44.2998 9.3998 44.4998 9.7998 44.7998C10.1998 45.0998 10.3998 45.5998 10.3998 46.1998C10.3998 46.7998 10.3998 46.9998 10.0998 47.3998C9.8998 47.7998 9.5998 48.1998 9.1998 48.6998L7.1998 50.8998H10.6998L10.5998 50.6998Z" fill="#AA8420"/>
<path d="M232.6 47.3C232.9 47.5 233.2 47.8 233.4 48.1C233.6 48.4 233.7 48.8 233.7 49.3C233.7 49.8 233.6 50.1 233.4 50.5C233.2 50.8 232.9 51.1 232.6 51.3C232.2 51.5 231.8 51.6 231.3 51.6C230.8 51.6 230.4 51.6 230 51.4C229.6 51.2 229.2 51 228.9 50.8L229.2 50.2C229.9 50.7 230.5 51 231.2 51C231.9 51 232.1 50.9 232.4 50.6C232.7 50.3 232.8 49.9 232.8 49.4C232.8 48.9 232.7 48.6 232.4 48.3C232.1 48 231.7 47.9 231.3 47.9C230.6 47.9 230.1 48.2 229.7 48.7H229.1V44.5H233.4V45.2H230V47.7C230.4 47.3 230.9 47.1 231.5 47.1C232.1 47.1 232.3 47.1 232.7 47.4L232.6 47.3Z" fill="#AA8420"/>
<path d="M235.3 50.5998C234.9 49.9998 234.7 49.0998 234.7 47.8998C234.7 46.6998 234.9 45.7998 235.3 45.1998C235.7 44.5998 236.3 44.2998 237.1 44.2998C237.9 44.2998 238.5 44.5998 239 45.1998C239.4 45.7998 239.6 46.6998 239.6 47.8998C239.6 49.0998 239.4 49.9998 239 50.5998C238.6 51.1998 238 51.4998 237.1 51.4998C236.2 51.4998 235.7 51.1998 235.3 50.5998ZM238.4 50.0998C238.7 49.5998 238.8 48.8998 238.8 47.8998C238.8 46.8998 238.7 46.0998 238.4 45.6998C238.1 45.1998 237.7 44.9998 237.1 44.9998C236.5 44.9998 236.1 45.1998 235.9 45.6998C235.6 46.1998 235.5 46.8998 235.5 47.8998C235.5 48.8998 235.6 49.6998 235.9 50.0998C236.2 50.5998 236.6 50.7998 237.1 50.7998C237.6 50.7998 238.1 50.5998 238.3 50.0998H238.4Z" fill="#AA8420"/>
<path d="M16.5996 33.0001C15.8996 33.3001 15.0996 33.5001 14.2996 33.6001V35.3001H16.3996V36.0001H14.2996V38.0001C15.0996 37.8001 15.8996 37.5001 16.4996 37.3001V38.1001C15.4996 38.5001 14.3996 38.8001 13.2996 39.1001L13.0996 38.4001C13.2996 38.4001 13.3996 38.4001 13.4996 38.4001V33.2001C14.4996 33.1001 15.3996 32.9001 16.1996 32.6001L16.5996 33.2001V33.0001ZM19.9996 37.9001C19.9996 38.1001 19.9996 38.3001 19.7996 38.4001C19.5996 38.5001 19.4996 38.6001 19.3996 38.6001C19.2996 38.6001 18.9996 38.6001 18.6996 38.6001C18.3996 38.6001 18.2996 38.6001 18.1996 38.6001L17.8996 37.8001C18.0996 37.8001 18.3996 37.8001 18.9996 37.8001C19.5996 37.8001 19.1996 37.8001 19.1996 37.6001V33.4001H17.5996V39.4001H16.8996V32.7001H19.9996V37.8001V37.9001Z" fill="black"/>
<path d="M25.3992 34.8H22.2992V35.9C22.2992 37.4 22.0992 38.7 21.7992 39.6L21.1992 39.2C21.4992 38.4 21.5992 37.5 21.5992 36.4V32.7H25.3992V34.8ZM24.6992 34.1V33.3H22.2992V34.1H24.6992ZM25.3992 38.3C25.3992 38.5 25.3992 38.7 25.1992 38.7C24.9992 38.7 24.8992 38.8 24.5992 38.7L24.3992 38.1C24.3992 38.1 24.3992 38.1 24.4992 38.1C24.6992 38.1 24.6992 38.1 24.6992 37.9V36.3H24.1992V39.2H23.5992V36.3H23.1992V38.7H22.5992V35.6H23.6992V34.9H24.2992V35.6H25.3992V38.1V38.3ZM26.5992 38H25.8992V33H26.5992V38ZM27.9992 38.8C27.9992 39.1 27.9992 39.3 27.7992 39.4C27.5992 39.4 27.3992 39.5 26.9992 39.5C26.5992 39.5 26.5992 39.5 26.4992 39.5L26.2992 38.8C26.4992 38.8 26.6992 38.8 26.8992 38.8C27.0992 38.8 27.1992 38.8 27.2992 38.8C27.3992 38.8 27.2992 38.8 27.2992 38.6V32.5H27.9992V38.8Z" fill="black"/>
<path d="M20.9 46.1002H15V45.8002H17.8C17.8 45.6002 17.6 45.5002 17.5 45.4002L17.8 45.2002C17.9 45.4002 18 45.6002 18.1 45.8002H20.8V46.1002H20.9ZM21 50.6002C21 50.9002 21 51.1002 20.8 51.2002C20.7 51.3002 20.5 51.4002 20.4 51.4002H18.1C17.9 51.4002 17.8 51.4002 17.7 51.2002C17.6 51.1002 17.5 50.9002 17.5 50.7002V50.5002L15 50.7002V50.4002L17.5 50.2002V49.8002L15.4 50.0002V49.7002L17.5 49.5002V49.1002C17 49.1002 16.5 49.1002 15.9 49.1002V48.8002C17.3 48.8002 18.7 48.8002 19.7 48.5002L19.9 48.8002C19.3 48.9002 18.6 49.0002 17.8 49.1002V49.5002L20.4 49.3002V49.6002L17.8 49.8002V50.2002L20.8 50.0002V50.3002L17.8 50.5002V50.8002C17.8 50.8002 17.8 50.9002 17.8 51.0002C17.8 51.0002 17.9 51.0002 18 51.0002H20.1C20.4 51.0002 20.5 50.8002 20.5 50.4002H20.8L21 50.6002ZM20.8 48.9002H20.4V48.2002H15.4V48.9002H15V47.9002H20.8V48.9002ZM20.3 47.5002H15.6V46.5002H20.3V47.5002ZM19.9 47.2002V46.8002H16V47.2002H19.9Z" fill="#AA8420" stroke="#AA8420" stroke-width="0.1" stroke-miterlimit="10"/>
<path d="M23.9998 49.0002C23.5998 49.8002 22.8998 50.5002 22.0998 51.1002L21.7998 50.8002C22.5998 50.2002 23.1998 49.6002 23.5998 48.8002L23.8998 49.0002H23.9998ZM27.8998 48.1002H25.0998V51.4002H24.6998V48.1002H21.8998V47.7002H24.6998V45.2002H25.0998V47.7002H27.8998V48.1002ZM23.6998 47.1002L23.3998 47.3002C23.1998 46.9002 22.8998 46.4002 22.4998 45.9002L22.7998 45.7002C23.1998 46.2002 23.4998 46.6002 23.6998 47.1002ZM27.9998 50.7002L27.6998 51.0002C27.2998 50.3002 26.6998 49.6002 25.8998 49.0002L26.1998 48.8002C26.7998 49.3002 27.3998 50.0002 27.9998 50.8002V50.7002ZM27.2998 45.8002C26.9998 46.4002 26.6998 46.9002 26.3998 47.3002L25.9998 47.1002C26.2998 46.8002 26.5998 46.3002 26.8998 45.6002L27.1998 45.8002H27.2998Z" fill="#AA8420" stroke="#AA8420" stroke-width="0.1" stroke-miterlimit="10"/>
<path d="M231.599 38.4C230.599 38.8 229.699 39.2 228.899 39.4L228.699 38.8C229.399 38.6 230.299 38.3 231.399 37.8L231.599 38.4ZM231.499 34C230.999 35.1 230.399 36 229.799 36.9C230.099 36.9 230.599 36.6 231.199 36.4L231.399 37.1C230.599 37.4 229.799 37.7 228.999 37.9L228.799 37.3C229.299 36.8 229.699 36.2 230.099 35.5C229.699 35.5 229.399 35.7 228.999 35.7L228.799 35.1C229.299 34.4 229.799 33.6 230.199 32.5L230.799 32.7C230.499 33.5 230.199 34.2 229.699 34.8C229.899 34.8 230.199 34.8 230.499 34.6C230.699 34.4 230.799 34.1 230.899 33.7L231.499 34ZM235.699 38C235.599 39 235.199 39.5 234.699 39.5C234.199 39.5 234.299 39.5 234.099 39.2C233.899 39 233.699 38.8 233.499 38.4C232.899 38.8 232.199 39.1 231.399 39.5L230.999 38.9C231.899 38.6 232.599 38.2 233.199 37.8C232.999 37.3 232.899 36.8 232.799 36.3L231.399 36.5V35.8L232.799 35.6C232.799 35.2 232.799 34.9 232.799 34.7H231.699C231.699 34.8 231.699 34.2 231.699 34.2H232.799C232.799 34.1 232.799 32.5 232.799 32.5H233.499C233.499 32.8 233.499 33.3 233.499 34L235.399 33.8V34.4L233.499 34.7C233.499 35 233.499 35.3 233.499 35.6L235.599 35.3V36C235.699 36 233.499 36.3 233.499 36.3C233.499 36.7 233.599 37.1 233.699 37.5C233.999 37.2 234.299 36.9 234.699 36.4L235.199 36.7C234.899 37.2 234.399 37.7 233.999 38.1C234.099 38.3 234.299 38.5 234.399 38.6C234.499 38.7 234.599 38.8 234.699 38.8C234.699 38.8 234.699 38.7 234.799 38.4C234.799 38.2 234.899 38 234.899 37.7L235.499 38H235.699ZM235.099 33.2L234.699 33.7C234.399 33.4 234.099 33.2 233.699 33.1L234.099 32.6C234.499 32.8 234.799 33 235.099 33.3V33.2Z" fill="black"/>
<path d="M243.699 39.3H236.699V38.6H239.599V32.5H240.299V34.9H243.299V35.6H240.299V38.6H243.699V39.3Z" fill="black"/>
<path d="M244.599 45.4002C244.599 45.7002 244.399 46.1002 244.299 46.4002L244.099 46.9002V51.4002H243.799V47.6002C243.599 48.0002 243.399 48.3002 243.199 48.5002L242.899 48.2002C243.499 47.5002 243.899 46.5002 244.299 45.2002H244.599V45.4002ZM248.999 50.9002L248.799 51.2002C248.399 51.0002 247.899 50.6002 247.399 50.1002C247.399 50.3002 247.399 50.4002 247.399 50.5002C247.399 50.8002 247.399 51.0002 247.299 51.1002C247.299 51.2002 247.099 51.3002 246.999 51.4002C246.899 51.4002 246.599 51.4002 246.299 51.4002C245.999 51.4002 246.099 51.4002 245.999 51.4002V51.1002C246.499 51.1002 246.799 51.1002 246.899 51.1002C246.999 51.1002 247.099 50.9002 247.099 50.6002C247.099 50.3002 247.099 50.3002 247.099 50.1002C246.499 50.5002 245.699 50.9002 244.599 51.3002L244.399 51.0002C245.499 50.7002 246.399 50.3002 246.999 49.8002C246.999 49.8002 246.999 49.6002 246.799 49.4002C246.199 49.8002 245.499 50.2002 244.599 50.4002L244.399 50.1002C245.399 49.8002 246.099 49.5002 246.699 49.1002C246.699 49.0002 246.499 48.9002 246.399 48.8002C245.899 49.1002 245.299 49.3002 244.499 49.5002L244.299 49.2002C245.099 49.1002 245.799 48.8002 246.399 48.4002H244.999V47.2002C244.899 47.3002 244.699 47.4002 244.599 47.5002L244.399 47.2002C245.199 46.6002 245.799 46.1002 246.099 45.5002L246.399 45.7002C246.399 45.8002 246.299 45.9002 246.199 46.0002H247.899V46.3002C247.699 46.5002 247.499 46.8002 247.299 47.0002H248.599V48.3002H246.999C246.899 48.4002 246.799 48.5002 246.699 48.6002C246.899 48.9002 247.099 49.1002 247.299 49.5002C247.699 49.3002 248.099 49.0002 248.599 48.6002L248.899 48.8002C248.499 49.1002 248.099 49.4002 247.599 49.7002C248.099 50.3002 248.699 50.7002 249.199 51.0002L248.999 50.9002ZM247.499 46.1002H245.999C245.699 46.4002 245.499 46.6002 245.199 46.8002H246.899C247.099 46.5002 247.399 46.3002 247.499 46.1002ZM246.599 47.8002V47.1002H245.299V47.8002H246.599ZM248.299 47.8002V47.1002H246.999V47.8002H248.299Z" fill="#AA8420" stroke="#AA8420" stroke-width="0.1" stroke-miterlimit="10"/>
<path d="M256 47.7002H253.1C252.6 48.1002 252.1 48.3002 251.6 48.5002H252.7C253.4 48.5002 253.8 48.5002 253.8 48.5002C254.1 48.4002 254.3 48.2002 254.7 48.0002L255 48.2002C253.8 48.9002 252.7 49.4002 251.5 49.7002C252.7 49.7002 253.9 49.7002 255 49.5002C254.8 49.3002 254.7 49.2002 254.5 49.0002L254.8 48.8002C255.3 49.2002 255.7 49.7002 256 50.1002L255.7 50.3002C255.5 50.1002 255.4 49.9002 255.3 49.8002C254.6 49.8002 253.9 49.9002 253.2 49.9002V50.9002C253.2 51.1002 253.2 51.2002 253 51.3002C252.9 51.3002 252.7 51.4002 252.3 51.4002C251.9 51.4002 252.1 51.4002 252.1 51.4002V51.0002C252.1 51.0002 252.3 51.0002 252.4 51.0002C252.6 51.0002 252.7 51.0002 252.7 51.0002C252.7 51.0002 252.7 51.0002 252.7 50.9002V49.9002C252.1 49.9002 251.3 49.9002 250.3 49.9002V49.6002C251.2 49.4002 252.1 49.1002 253 48.7002C252.5 48.7002 251.9 48.7002 251.3 48.7002C250.7 48.7002 250.9 48.7002 250.8 48.7002V48.4002C251.3 48.2002 251.9 47.9002 252.4 47.6002H249.8V47.3002H252.7V46.7002H250.5V46.4002H252.7V45.9002H250.1V45.6002H252.7V45.2002H253.1V45.6002H255.6V45.9002H253.1V46.4002H255.2V46.7002H253.1V47.3002H255.9V47.6002L256 47.7002ZM252 50.4002C251.6 50.7002 251 51.1002 250.2 51.4002L250 51.1002C250.7 50.8002 251.3 50.5002 251.8 50.2002L252.1 50.5002L252 50.4002ZM255.9 51.1002L255.7 51.4002C255.2 51.0002 254.6 50.7002 253.9 50.4002L254.1 50.1002C254.8 50.4002 255.4 50.7002 255.9 51.1002Z" fill="#AA8420" stroke="#AA8420" stroke-width="0.1" stroke-miterlimit="10"/>
</svg>
