<svg width="270" height="32" viewBox="0 0 270 32" fill="none" xmlns="http://www.w3.org/2000/svg">
<path d="M42.8 31.5H35.5V0.300049H42.8V0.500049H35.7V31.2001H42.8V31.4V31.5Z" fill="#231815"/>
<path d="M233.8 31.5H226.5V31.3H233.6V0.500049H226.5V0.300049H233.8V31.5Z" fill="#231815"/>
<path d="M10.5998 23.7999C10.8998 24.0999 10.9998 24.5 10.9998 24.9C10.9998 25.3 10.7998 25.9999 10.2998 26.2999C9.7998 26.6999 9.1998 26.7999 8.3998 26.7999C7.5998 26.7999 6.9998 26.5999 6.4998 26.2999C5.9998 25.9999 5.7998 25.5 5.7998 24.9C5.7998 24.3 5.8998 24.0999 6.1998 23.7999C6.4998 23.4999 6.7998 23.3 7.2998 23.2C6.8998 23.1 6.4998 22.9 6.2998 22.6C6.0998 22.3 5.9998 22 5.9998 21.6C5.9998 21.2 6.0998 20.9 6.2998 20.6C6.4998 20.3 6.7998 20.1 7.0998 19.9C7.3998 19.7 7.8998 19.7 8.3998 19.7C8.8998 19.7 9.2998 19.7 9.5998 19.9C9.9998 20.1 10.2998 20.3 10.3998 20.6C10.5998 20.9 10.6998 21.2 10.6998 21.6C10.6998 22 10.5998 22.3 10.2998 22.6C10.0998 22.9 9.6998 23.1 9.2998 23.2C9.7998 23.3 10.0998 23.5 10.3998 23.9L10.5998 23.7999ZM9.6998 25.9C9.9998 25.7 10.0998 25.3 10.0998 24.9C10.0998 24.5 9.8998 24.2 9.5998 24C9.2998 23.8 8.8998 23.6 8.2998 23.6C7.7998 23.6 7.3998 23.8 6.9998 24C6.6998 24.2 6.4998 24.5 6.4998 24.9C6.4998 25.3 6.6998 25.7 6.9998 25.9C7.2998 26.1 7.6998 26.2 8.2998 26.2C8.8998 26.2 9.2998 26.1 9.5998 25.9H9.6998ZM7.2998 22.5C7.5998 22.7 7.9998 22.9 8.3998 22.9C8.8998 22.9 9.2998 22.7 9.4998 22.5C9.7998 22.3 9.8998 22 9.8998 21.6C9.8998 21.2 9.7998 20.9 9.4998 20.7C9.1998 20.5 8.7998 20.4 8.3998 20.4C7.9998 20.4 7.4998 20.5 7.2998 20.7C6.9998 20.9 6.8998 21.2 6.8998 21.6C6.8998 22 6.9998 22.3 7.2998 22.5Z" fill="#AA8420"/>
<path d="M243.2 25.3999H242.1V26.8999H241.3V25.3999H238V24.7999L241.4 19.8999H242.1V24.7999H243.2V25.4999V25.3999ZM241.3 24.6999V21.1999L238.9 24.6999H241.3Z" fill="#AA8420"/>
<path d="M244.7 26C244.3 25.4 244.1 24.4999 244.1 23.2999C244.1 22.0999 244.3 21.2 244.7 20.6C245.1 20 245.7 19.7 246.6 19.7C247.5 19.7 248 20 248.5 20.6C248.9 21.2 249.1 22.0999 249.1 23.2999C249.1 24.4999 248.9 25.4 248.5 26C248.1 26.6 247.5 26.9 246.6 26.9C245.7 26.9 245.2 26.6 244.7 26ZM247.8 25.5C248.1 25 248.2 24.2999 248.2 23.2999C248.2 22.2999 248.1 21.5 247.8 21.1C247.5 20.6 247.1 20.4 246.5 20.4C245.9 20.4 245.5 20.6 245.3 21.1C245 21.6 244.9 22.2999 244.9 23.2999C244.9 24.2999 245 25.1 245.3 25.5C245.6 26 246 26.2 246.5 26.2C247 26.2 247.5 26 247.7 25.5H247.8Z" fill="#AA8420"/>
<path d="M68.1 6.69995C68.3 6.49995 68.3 6.19995 68.3 6.19995H59.5C59.5 6.19995 59.6 6.59995 59.7 6.69995H68.1Z" fill="#A68238"/>
<path d="M67.5998 7.4C67.7998 7.2 67.8998 7 67.8998 7H59.7998C59.7998 7 59.7998 7.2 60.0998 7.4H67.5998Z" fill="#A68238"/>
<path d="M67 8.10005C67.2 8.00005 67.4 7.80005 67.4 7.80005H60.5C60.5 7.80005 60.7 8.00005 60.8 8.10005H67Z" fill="#A68238"/>
<path d="M66.0996 8.8C66.2996 8.8 66.4996 8.5 66.4996 8.5H61.0996C61.0996 8.5 61.0996 8.5 61.4996 8.8H66.0996Z" fill="#A68238"/>
<path d="M62.2002 9.19995C62.2002 9.19995 62.8002 9.49995 63.9002 9.49995C65.0002 9.49995 65.7002 9.19995 65.7002 9.19995H62.2002Z" fill="#A68238"/>
<path d="M62.1 9.90005C62.1 9.90005 62.8 9.90005 63.2 10.3C63.6 10.6 63.9 11.2 63.9 11.2C63.9 11.2 64.1 10.7 64.5 10.4C64.9 10.1 65.5 10 65.5 10H72.5L73.9 12H67.6C67.6 12 67.2 12 66.5 12.4C66.2 12.6 65.9 13 65.9 13C65.9 13 65.9 13.2 65.8 13.2C65.8 13.2 65.7 13.4 65.6 13.4H62.3C62.3 13.4 62.2 13.4 62.1 13.2C62.1 13.1 62.1 13.2 62.1 13C62.1 13 61.9 12.7 61.4 12.3C60.9 12 60.4 11.9 60.4 11.9H54L55.4 9.80005H62.3L62.1 9.90005Z" fill="#003873"/>
<path d="M57.2002 12.8V23.2C57.2002 23.2 57.2002 24.1 58.0002 25.4C58.8002 26.6 59.9002 27.2 59.9002 27.2L60.8002 25.8C60.8002 25.8 60.0002 25.3 59.5002 24.5C58.9002 23.6 58.9002 22.9 58.9002 22.9V12.9H57.2002V12.8Z" fill="#003873"/>
<path d="M68.9996 12.8V22.8C68.9996 22.8 68.8996 23.8 68.3996 24.5C67.8996 25.2 67.0996 25.8 67.0996 25.8L67.8996 27.2C67.8996 27.2 69.1996 26.3 69.7996 25.3C70.3996 24.3 70.5996 22.8 70.5996 22.8V12.8H68.8996H68.9996Z" fill="#003873"/>
<path d="M54.5 12.8V23.2C54.5 23.2 54.6 24.8 55.6 26.5C56.6 28.2 58.4 29.4 58.4 29.4L59.3 28C59.3 28 58.1 27.4 57.2 26C56.2 24.5 56.2 23.2 56.2 23.2V12.8H54.5Z" fill="#003873"/>
<path d="M62.0998 13.8999V24.8999C62.0998 24.8999 62.0998 24.8999 62.0998 25.0999C62.0998 25.2999 61.9998 25.3999 61.9998 25.3999L58.2998 31.4999H69.5998L65.8998 25.2999V24.9999C65.7998 24.9999 65.6998 24.6999 65.6998 24.6999V13.8999H64.2998V25.0999C64.2998 25.0999 64.2998 25.2999 64.2998 25.3999C64.2998 25.4999 64.3998 25.6999 64.3998 25.6999L66.6998 29.3999H60.9998L63.1998 25.6999C63.1998 25.6999 63.1998 25.5999 63.2998 25.3999C63.2998 25.1999 63.2998 25.0999 63.2998 25.0999V13.8999H61.9998H62.0998Z" fill="#A68238"/>
<path d="M71.5004 12.8V23C71.5004 23 71.5004 24.3 70.5004 25.8C69.5004 27.3 68.4004 28 68.4004 28L69.2004 29.4C69.2004 29.4 70.9004 28.3 72.0004 26.6C73.0004 24.9 73.2004 23 73.2004 23V12.8H71.5004Z" fill="#003873"/>
<path d="M59.3996 5.90005C59.3996 5.90005 58.7996 2.80005 61.0996 1.30005C61.0996 1.30005 62.0996 0.300049 63.7996 0.300049C65.4996 0.300049 66.5996 1.20005 66.5996 1.20005C69.0996 3.00005 68.2996 5.80005 68.2996 5.80005H59.3996V5.90005Z" fill="#A68238"/>
<path d="M81.2996 20.4001H82.0996V14.4001H83.6996V13.6001H79.5996V14.4001H81.1996V20.4001H81.2996Z" fill="#003477"/>
<path d="M85.3 17.2H88.5V20.5H89.3V13.7H88.5V16.4H85.3V13.7H84.5V20.5H85.3V17.2Z" fill="#003477"/>
<path d="M94.4002 19.7001H91.6002V17.1001H94.3002V16.3001H91.6002V14.4001H94.4002V13.6001H90.7002V20.4001H94.4002V19.6001V19.7001Z" fill="#003477"/>
<path d="M99.0002 17.2H102.2V20.5H103V13.7H102.2V16.4H99.0002V13.7H98.2002V20.5H99.0002V17.2Z" fill="#003477"/>
<path d="M107.5 13.5C105.6 13.5 103.9 15.1 103.9 17C103.9 18.9 105.5 20.6 107.5 20.6C109.5 20.6 111.1 19.1 111.1 17C111.1 14.9 109.5 13.5 107.5 13.5ZM107.5 19.8C106 19.8 104.8 18.6 104.8 17C104.8 15.4 105.9 14.2 107.5 14.2C109.1 14.2 110.2 15.5 110.2 17C110.2 18.5 109 19.8 107.5 19.8Z" fill="#003477"/>
<path d="M117 18.6999L111.9 13.3999V20.4999H112.7V15.3999L117.8 20.7999V13.6999H117V18.6999Z" fill="#003477"/>
<path d="M122.6 17.7999H124.4C124.4 18.8999 123.2 19.7999 122.2 19.7999C121.2 19.7999 119.6 18.3999 119.6 16.9999C119.6 15.5999 120.8 14.1999 122.3 14.1999C123.8 14.1999 124 14.5999 124.4 15.2999L125 14.6999C124.3 13.8999 123.3 13.3999 122.2 13.3999C120.2 13.3999 118.7 14.9999 118.7 16.9999C118.7 18.9999 120.2 20.4999 122.1 20.4999C124 20.4999 125.3 19.0999 125.3 17.1999V16.8999H122.6V17.6999V17.7999Z" fill="#003477"/>
<path d="M128.9 13.6001V20.4001H129.8V17.6001L130.1 17.3001L132.7 20.5001H133.8L130.7 16.7001L133.8 13.6001H132.7L129.8 16.5001V13.6001H128.9Z" fill="#003477"/>
<path d="M137.5 13.5C135.6 13.5 133.9 15.1 133.9 17C133.9 18.9 135.5 20.6 137.5 20.6C139.5 20.6 141.1 19.1 141.1 17C141.1 14.9 139.5 13.5 137.5 13.5ZM137.5 19.8C136 19.8 134.8 18.6 134.8 17C134.8 15.4 135.9 14.2 137.5 14.2C139.1 14.2 140.2 15.5 140.2 17C140.2 18.5 139 19.8 137.5 19.8Z" fill="#003477"/>
<path d="M142.8 15.3999L147.9 20.7999V13.6999H147.1V18.6999L142 13.3999V20.4999H142.8V15.3999Z" fill="#003477"/>
<path d="M152.7 17.7999H154.5C154.5 18.8999 153.3 19.7999 152.3 19.7999C151.3 19.7999 149.7 18.3999 149.7 16.9999C149.7 15.5999 150.9 14.1999 152.4 14.1999C153.9 14.1999 154.1 14.5999 154.5 15.2999L155.1 14.6999C154.4 13.8999 153.4 13.3999 152.3 13.3999C150.3 13.3999 148.8 14.9999 148.8 16.9999C148.8 18.9999 150.3 20.4999 152.2 20.4999C154.1 20.4999 155.4 19.0999 155.4 17.1999V16.8999H152.7V17.6999V17.7999Z" fill="#003477"/>
<path d="M163.9 17.9001V13.6001H163.1V17.6001C163.1 18.7001 162.8 19.7001 161.5 19.7001C160.2 19.7001 159.9 18.7001 159.9 17.6001V13.6001H159V17.9001C159 19.4001 159.9 20.5001 161.5 20.5001C163.1 20.5001 164 19.4001 164 17.9001H163.9Z" fill="#003477"/>
<path d="M165.9 15.3999L171 20.7999V13.6999H170.1V18.6999L165 13.3999V20.4999H165.9V15.3999Z" fill="#003477"/>
<path d="M173.1 13.6001H172.3V20.4001H173.1V13.6001Z" fill="#003477"/>
<path d="M178.8 13.6001L176.8 18.6001L174.8 13.6001H173.9L176.9 20.8001L179.9 13.6001H179H178.8Z" fill="#003477"/>
<path d="M184 19.7001H181.2V17.1001H183.9V16.3001H181.2V14.4001H184V13.6001H180.3V20.4001H184V19.6001V19.7001Z" fill="#003477"/>
<path d="M186 17.6H186.4L188.4 20.5H189.4L187.2 17.5C188.2 17.4 188.8 16.6 188.8 15.6C188.8 14.6 188.5 14.3 187.9 14C187.4 13.7 186.7 13.7 186.1 13.7H185.1V20.5H186V17.6ZM186 14.4H186.2C187 14.4 188.1 14.6 188.1 15.6C188.1 16.6 187.2 16.8 186.3 16.8H186V14.3V14.4Z" fill="#003477"/>
<path d="M191.9 19.8C191.2 19.8 190.6 19.3 190.6 18.5L189.7 18.7C189.8 19.8 190.7 20.6 191.8 20.6C192.9 20.6 194 19.7 194 18.5C194 17.3 193.3 16.8 192.3 16.5L191.8 16.3C191.4 16.1 190.9 15.9 190.9 15.3C190.9 14.7 191.5 14.3 192 14.3C192.5 14.3 192.8 14.5 193.1 14.9L193.8 14.5C193.4 13.8 192.8 13.5 192 13.5C191.2 13.5 190 14.2 190 15.3C190 16.4 190.7 16.7 191.5 17L192 17.2C192.6 17.4 193.2 17.8 193.2 18.5C193.2 19.2 192.7 19.8 191.9 19.8Z" fill="#003477"/>
<path d="M195.9 13.6001H195.1V20.4001H195.9V13.6001Z" fill="#003477"/>
<path d="M196.6 14.4001H198.2V20.4001H199V14.4001H200.6V13.6001H196.5V14.4001H196.6Z" fill="#003477"/>
<path d="M203.4 16.5001L201.7 13.6001H200.7L202.9 17.4001V20.4001H203.7V17.4001L205.9 13.6001H204.9L203.2 16.5001H203.4Z" fill="#003477"/>
<path d="M212.5 13.5C210.5 13.5 208.9 15.1 208.9 17C208.9 18.9 210.5 20.6 212.5 20.6C214.5 20.6 216.1 19.1 216.1 17C216.1 14.9 214.5 13.5 212.5 13.5ZM212.5 19.8C211 19.8 209.8 18.6 209.8 17C209.8 15.4 210.9 14.2 212.5 14.2C214.1 14.2 215.2 15.5 215.2 17C215.2 18.5 214 19.8 212.5 19.8Z" fill="#003477"/>
<path d="M220.3 14.4001V13.6001H217V20.4001H217.9V17.1001H220.3V16.3001H217.9V14.4001H220.3Z" fill="#003477"/>
<path d="M82.5004 27.2L82.0004 27C81.6004 26.8 81.0004 26.6 81.0004 26C81.0004 25.4 81.6004 25 82.1004 25C82.6004 25 82.9004 25.2 83.2004 25.6L83.9004 25.2C83.5004 24.5 82.9004 24.2 82.1004 24.2C81.3004 24.2 80.1004 24.9 80.1004 26C80.1004 27.1 80.8004 27.4 81.6004 27.7L82.1004 27.9C82.7004 28.1 83.3004 28.5 83.3004 29.2C83.3004 29.9 82.8004 30.5 82.1004 30.5C81.4004 30.5 80.8004 30 80.8004 29.2L79.9004 29.4C80.0004 30.5 80.9004 31.2999 82.0004 31.2999C83.1004 31.2999 84.2004 30.4 84.2004 29.2C84.2004 28 83.5004 27.5 82.5004 27.1V27.2Z" fill="#003477"/>
<path d="M84.9004 27.9C84.9004 29.9 86.5004 31.4 88.4004 31.4C90.3004 31.4 89.7004 31.2 90.2004 30.9V29.9C89.7004 30.4 89.0004 30.6 88.4004 30.6C86.9004 30.6 85.7004 29.2999 85.7004 27.7999C85.7004 26.2999 86.9004 25 88.4004 25C89.9004 25 89.7004 25.2 90.2004 25.7V24.7C89.7004 24.4 89.1004 24.2 88.5004 24.2C86.5004 24.2 84.9004 25.7999 84.9004 27.7999V27.9Z" fill="#003477"/>
<path d="M92.1002 24.5H91.2002V31.3H92.1002V24.5Z" fill="#003477"/>
<path d="M93.5 31.2999H97.2V30.4999H94.4V27.8999H97.1V27.0999H94.4V25.1999H97.2V24.3999H93.5V31.1999V31.2999Z" fill="#003477"/>
<path d="M103.3 29.5L98.2002 24.2V31.2999H99.0002V26.2L104.1 31.5V24.4H103.3V29.4V29.5Z" fill="#003477"/>
<path d="M105.1 27.9C105.1 29.9 106.7 31.4 108.6 31.4C110.5 31.4 109.9 31.2 110.4 30.9V29.9C109.9 30.4 109.2 30.6 108.6 30.6C107.1 30.6 105.9 29.2999 105.9 27.7999C105.9 26.2999 107.1 25 108.6 25C110.1 25 109.9 25.2 110.4 25.7V24.7C109.9 24.4 109.3 24.2 108.7 24.2C106.7 24.2 105.1 25.7999 105.1 27.7999V27.9Z" fill="#003477"/>
<path d="M111.5 31.2999H115.2V30.4999H112.4V27.8999H115.1V27.0999H112.4V25.1999H115.2V24.3999H111.5V31.1999V31.2999Z" fill="#003477"/>
<path d="M118.3 31.2999H119.2L120 29.6H123.1L123.9 31.2999H124.8L121.6 24.2L118.4 31.2999H118.3ZM120.3 28.7999L121.5 26L122.7 28.7999H120.3Z" fill="#003477"/>
<path d="M130.5 29.5L125.4 24.2V31.2999H126.2V26.2L131.3 31.5V24.4H130.5V29.4V29.5Z" fill="#003477"/>
<path d="M133.9 24.5H132.5V31.3H133.9C136.1 31.3 137.7 30.2 137.7 27.9C137.7 25.6 136 24.5 133.9 24.5ZM133.7 30.5H133.4V25.3H133.7C135.4 25.3 136.9 25.9 136.9 27.9C136.9 29.9 135.4 30.5 133.7 30.5Z" fill="#003477"/>
<path d="M140.8 25.1999H142.4V31.1999H143.2V25.1999H144.8V24.3999H140.7V25.1999H140.8Z" fill="#003477"/>
<path d="M145.6 31.2999H149.2V30.4999H146.4V27.8999H149.1V27.0999H146.4V25.1999H149.2V24.3999H145.6V31.1999V31.2999Z" fill="#003477"/>
<path d="M150 27.9C150 29.9 151.6 31.4 153.6 31.4C155.6 31.4 154.9 31.2 155.4 30.9V29.9C154.9 30.4 154.2 30.6 153.6 30.6C152.1 30.6 150.9 29.2999 150.9 27.7999C150.9 26.2999 152.1 25 153.6 25C155.1 25 154.9 25.2 155.4 25.7V24.7C154.9 24.4 154.3 24.2 153.7 24.2C151.7 24.2 150.1 25.7999 150.1 27.7999L150 27.9Z" fill="#003477"/>
<path d="M160.5 27.1999H157.3V24.3999H156.5V31.1999H157.3V27.8999H160.5V31.1999H161.4V24.3999H160.5V27.1999Z" fill="#003477"/>
<path d="M167.7 29.5L162.6 24.2V31.2999H163.5V26.2L168.6 31.5V24.4H167.7V29.4V29.5Z" fill="#003477"/>
<path d="M172.9 24.3C171 24.3 169.3 25.9 169.3 27.9C169.3 29.9 170.9 31.4 172.9 31.4C174.9 31.4 176.5 29.9 176.5 27.9C176.5 25.9 174.9 24.3 172.9 24.3ZM172.9 30.6C171.4 30.6 170.2 29.4 170.2 27.8C170.2 26.2 171.3 25 172.9 25C174.5 25 175.6 26.2 175.6 27.8C175.6 29.4 174.4 30.6 172.9 30.6Z" fill="#003477"/>
<path d="M178.2 24.5H177.3V31.3H180.2V30.5H178.1V24.5H178.2Z" fill="#003477"/>
<path d="M184 24.3C182.1 24.3 180.4 25.9 180.4 27.9C180.4 29.9 182 31.4 184 31.4C186 31.4 187.6 29.9 187.6 27.9C187.6 25.9 186 24.3 184 24.3ZM184 30.6C182.5 30.6 181.3 29.4 181.3 27.8C181.3 26.2 182.4 25 184 25C185.6 25 186.7 26.2 186.7 27.8C186.7 29.4 185.5 30.6 184 30.6Z" fill="#003477"/>
<path d="M192 28.6H193.8C193.8 29.7 192.6 30.6 191.6 30.6C190.6 30.6 189 29.1999 189 27.7999C189 26.3999 190.2 25 191.7 25C193.2 25 193.3 25.4 193.8 26.1L194.4 25.5C193.7 24.7 192.7 24.2 191.6 24.2C189.6 24.2 188.1 25.7999 188.1 27.7999C188.1 29.7999 189.6 31.2999 191.5 31.2999C193.4 31.2999 194.7 29.9 194.7 28V27.7H192V28.5V28.6Z" fill="#003477"/>
<path d="M197.6 27.4L195.9 24.5H194.9L197.1 28.3V31.3H197.9V28.3L200.1 24.5H199.1L197.4 27.4H197.6Z" fill="#003477"/>
<path d="M79.8996 6.4C80.2996 6.3 80.4996 6.2 80.6996 6.1V10.1H81.5996V9.7H86.1996V10.1H87.0996V6.1C87.1996 6.1 87.3996 6.2 87.4996 6.3C87.5996 6.3 87.7996 6.3 87.8996 6.5L88.2996 5.7C86.9996 5.4 85.9996 5 85.1996 4.3H88.1996V3.5H84.2996V2.7C85.4996 2.7 86.5996 2.5 87.3996 2.3L86.9996 1.5C85.6996 1.8 83.8996 1.9 81.3996 1.9C78.8996 1.9 80.3996 1.9 80.0996 1.9L80.3996 2.8C80.9996 2.8 81.9996 2.8 83.3996 2.8V3.6H79.5996V4.4H82.4996C81.6996 5.1 80.6996 5.6 79.5996 5.9L79.9996 6.7L79.8996 6.4ZM86.0996 8.8H81.4996V8H86.0996V8.8ZM84.1996 4.1C84.7996 4.9 85.4996 5.4 86.4996 5.8H84.1996V4.1ZM86.0996 6.6V7.3H81.4996V6.6H86.0996ZM83.2996 4.1V5.8H81.1996C82.0996 5.4 82.7996 4.9 83.2996 4.1Z" fill="#003477"/>
<path d="M93.2998 4.9C92.7998 4.5 92.3998 4.2 91.8998 4L91.2998 4.7C91.6998 4.9 92.0998 5.3 92.5998 5.7L93.1998 4.9H93.2998Z" fill="#003477"/>
<path d="M93.5996 2.6V3.1H94.7996V4H93.3996V4.8H94.8996C94.5996 5.4 93.9996 5.9 92.8996 6.4L93.3996 7.2C93.7996 6.9 94.0996 6.7 94.1996 6.6V8.7C94.1996 9.1 94.1996 9.4 94.3996 9.6C94.5996 9.7 94.7996 9.8 95.1996 9.8H98.1996C98.6996 9.8 98.9996 9.8 99.1996 9.6C99.3996 9.4 99.4996 8.9 99.5996 8.1L98.6996 7.8C98.6996 8.3 98.6996 8.6 98.5996 8.8C98.5996 9 98.3996 9.1 98.0996 9.1H95.2996C95.0996 9.1 94.9996 9 94.9996 8.8V8.2H97.9996V6.3C98.3996 6.6 98.7996 7 99.3996 7.3L99.7996 6.5C98.7996 6 98.1996 5.5 97.8996 5H99.6996V4.2H97.9996V3.2H99.4996V2.5H97.9996V1.5H97.1996V2.5H95.4996V1.5H94.6996V2.5H93.4996C93.0996 2.3 92.6996 2 92.1996 1.7L91.5996 2.4C91.9996 2.7 92.4996 3 92.9996 3.5L93.5996 2.8V2.6ZM95.6996 3.1H97.3996V4H95.6996V3.1ZM95.8996 4.8H97.0996C97.2996 5.1 97.4996 5.4 97.6996 5.6H95.2996C95.4996 5.4 95.6996 5.1 95.7996 4.8H95.8996ZM95.1996 6.4H97.2996V7.3H95.1996V6.4Z" fill="#003477"/>
<path d="M93.3004 7.19995L92.5004 6.69995C92.3004 7.59995 91.9004 8.39995 91.4004 9.19995L92.1004 9.99995C92.6004 9.19995 93.0004 8.19995 93.3004 7.19995Z" fill="#003477"/>
<path d="M109.8 3.1C109.1 2.6 108.5 2.2 108.1 2L107.5 2.6C107.9 2.9 108.5 3.3 109.2 3.8L109.8 3.1Z" fill="#003477"/>
<path d="M111.9 6.40005H111.1C111.1 6.50005 111.1 1.30005 111.1 1.30005H110.2V6.60005L107.1 7.10005V8.00005L110.2 7.50005V10.1H111.1V7.40005H111.9V6.40005Z" fill="#003477"/>
<path d="M103.7 8.2999C104.3 7.4999 104.7 6.7999 105 6.1999V9.9999H105.8V5.6999C106 5.8999 106.1 6.0999 106.3 6.2999C106.5 6.4999 106.7 6.6999 106.9 6.9999L107.4 6.1999C107.1 5.7999 106.5 5.2999 105.8 4.6999H107.2V3.8999H105.8V2.5999C106.3 2.4999 106.8 2.3999 107.2 2.1999L106.9 1.3999C105.9 1.7999 104.7 1.9999 103.3 2.0999L103.5 2.8999C104.1 2.8999 104.6 2.8999 104.9 2.6999V3.8999H103.2V4.6999H104.9C104.5 5.6999 103.9 6.6999 103.1 7.5999L103.6 8.3999L103.7 8.2999Z" fill="#003477"/>
<path d="M109.7 5.40005C109 4.90005 108.5 4.50005 108 4.30005L107.5 4.90005C108 5.20005 108.5 5.60005 109.2 6.10005L109.8 5.40005H109.7Z" fill="#003477"/>
<path d="M123.3 10L123.8 9.10005C123 8.90005 122.3 8.50005 121.7 8.00005C122 7.70005 122.4 7.30005 122.7 6.70005C123 6.20005 123.2 5.70005 123.3 5.40005V4.60005H121.4V3.40005H123.6V2.60005H121.4V1.30005H120.5V2.60005H118.5V3.20005H117.4V1.30005H116.5V3.20005H115.1V4.00005H116.5V5.90005C116.1 6.00005 115.6 6.10005 115 6.20005L115.2 7.20005C115.5 7.20005 115.9 7.00005 116.4 6.90005V8.80005C116.4 9.00005 116.4 9.10005 116.1 9.10005H115.3L115.5 10H116.2C116.7 10 117 10 117.1 9.80005C117.2 9.70005 117.3 9.40005 117.3 8.90005V6.60005C117.8 6.40005 118.2 6.30005 118.4 6.20005V5.30005C118.2 5.40005 117.8 5.50005 117.3 5.70005V4.10005H118.4V3.50005H120.4V4.70005H118.6V5.50005H122.3C122 6.30005 121.6 6.90005 121 7.40005C120.6 7.00005 120.2 6.40005 119.7 5.60005L118.9 5.90005C119.4 6.70005 119.8 7.40005 120.3 7.90005C119.4 8.50005 118.5 8.90005 117.6 9.10005L118.1 9.90005C119 9.70005 119.9 9.30005 120.9 8.50005C121.6 9.20005 122.4 9.60005 123.2 9.90005L123.3 10Z" fill="#003477"/>
<path d="M126.9 9.10005L127.6 10C129.7 8.60005 130.9 6.80005 131.3 4.60005H131.4C132 7.10005 133.2 8.90005 134.8 10L135.5 9.10005C134.6 8.50005 133.9 7.80005 133.3 7.00005C132.8 6.20005 132.4 5.40005 132.3 4.60005H135.3V3.60005H131.4C131.4 3.10005 131.4 2.30005 131.4 1.30005H130.4C130.4 2.30005 130.4 3.10005 130.3 3.60005H126.9V4.60005H130.1C130 5.50005 129.6 6.30005 128.9 7.10005C128.3 7.90005 127.5 8.60005 126.6 9.10005H126.9Z" fill="#003477"/>
<path d="M139.8 4.09995H146.5V5.19995H147.4V3.29995H145.5C145.8 2.79995 146.1 2.29995 146.3 1.59995L145.3 1.19995C145 2.09995 144.7 2.79995 144.4 3.29995H138.8V5.29995H139.7V4.09995H139.8Z" fill="#003477"/>
<path d="M141.6 2.8001C141.3 2.3001 141.1 1.9001 140.8 1.6001L140 1.9001C140.3 2.3001 140.5 2.7001 140.8 3.2001L141.6 2.8001Z" fill="#003477"/>
<path d="M142.3 9.30005C142 9.30005 141.7 9.30005 141.4 9.30005L141.6 10.1H142.9C143.1 10.1 143.3 10.1 143.5 9.80005C143.6 9.70005 143.7 9.50005 143.7 9.30005V7.80005H147.3V7.00005H143.7V6.70005C144.5 6.40005 145.3 6.00005 145.9 5.60005V4.80005H140.5V5.60005H144.5C143.9 5.90005 143.3 6.10005 142.7 6.30005V6.90005H139.1V7.70005H142.7V8.90005C142.7 9.10005 142.7 9.10005 142.4 9.10005L142.3 9.30005Z" fill="#003477"/>
<path d="M143.7 2.59995C143.5 2.09995 143.2 1.59995 142.9 1.19995L142.1 1.49995C142.3 1.89995 142.6 2.39995 142.8 2.89995L143.6 2.49995L143.7 2.59995Z" fill="#003477"/>
<path d="M16.0996 8.5001C15.3996 8.8001 14.5996 9.0001 13.7996 9.1001V10.8001H15.8996V11.5001H13.7996V13.5001C14.5996 13.3001 15.3996 13.0001 15.9996 12.8001V13.6001C14.9996 14.0001 13.8996 14.3001 12.7996 14.6001L12.5996 13.9001C12.7996 13.9001 12.8996 13.9001 12.9996 13.9001V8.7001C13.9996 8.6001 14.8996 8.4001 15.6996 8.1001L16.0996 8.7001V8.5001ZM19.3996 13.4001C19.3996 13.6001 19.3996 13.8001 19.1996 13.9001C18.9996 14.0001 18.8996 14.1001 18.7996 14.1001C18.5996 14.1001 18.3996 14.1001 18.0996 14.1001C17.7996 14.1001 17.6996 14.1001 17.5996 14.1001L17.2996 13.3001C17.4996 13.3001 17.7996 13.3001 18.3996 13.3001C18.9996 13.3001 18.5996 13.3001 18.5996 13.1001V8.9001H16.9996V14.9001H16.2996V8.2001H19.3996V13.3001V13.4001Z" fill="black"/>
<path d="M24.8992 10.3H21.7992V11.4C21.7992 12.9 21.5992 14.2 21.2992 15.1L20.6992 14.7C20.9992 13.9 21.0992 13 21.0992 11.9V8.2H24.8992V10.3ZM24.1992 9.6V8.8H21.7992V9.6H24.1992ZM24.8992 13.8C24.8992 14 24.8992 14.2 24.6992 14.2C24.4992 14.2 24.3992 14.3 24.0992 14.2L23.8992 13.6C23.8992 13.6 23.8992 13.6 23.9992 13.6C24.1992 13.6 24.1992 13.6 24.1992 13.4V11.8H23.6992V14.7H23.0992V11.8H22.6992V14.2H22.0992V11.1H23.1992V10.4H23.7992V11.1H24.8992V13.6V13.8ZM26.0992 13.5H25.3992V8.5H26.0992V13.5ZM27.3992 14.3C27.3992 14.6 27.3992 14.8 27.1992 14.9C26.9992 14.9 26.7992 15 26.3992 15C25.9992 15 25.9992 15 25.8992 15L25.6992 14.3C25.8992 14.3 26.0992 14.3 26.2992 14.3C26.4992 14.3 26.5992 14.3 26.6992 14.3C26.6992 14.3 26.6992 14.3 26.6992 14.1V8H27.3992V14.3Z" fill="black"/>
<path d="M20.5996 21.5001H14.6996V21.2001H17.4996C17.4996 21.0001 17.2996 20.9001 17.1996 20.8001L17.4996 20.6001C17.5996 20.8001 17.6996 21.0001 17.7996 21.2001H20.4996V21.5001H20.5996ZM20.5996 26.0001C20.5996 26.3001 20.5996 26.5001 20.3996 26.6001C20.2996 26.7001 20.0996 26.8001 19.9996 26.8001H17.6996C17.4996 26.8001 17.3996 26.8001 17.2996 26.6001C17.1996 26.5001 17.0996 26.3001 17.0996 26.1001V25.9001L14.5996 26.1001V25.8001L17.0996 25.6001V25.2001L14.9996 25.4001V25.1001L17.0996 24.9001V24.5001C16.5996 24.5001 16.0996 24.5001 15.4996 24.5001V24.2001C16.8996 24.2001 18.2996 24.2001 19.2996 23.9001L19.4996 24.2001C18.8996 24.3001 18.1996 24.4001 17.3996 24.5001V24.9001L19.9996 24.7001V25.0001L17.3996 25.2001V25.6001L20.3996 25.4001V25.7001L17.3996 25.9001V26.2001C17.3996 26.2001 17.3996 26.3001 17.3996 26.4001C17.3996 26.4001 17.4996 26.4001 17.5996 26.4001H19.6996C19.9996 26.4001 20.0996 26.2001 20.0996 25.8001H20.3996L20.5996 26.0001ZM20.4996 24.3001H20.0996V23.6001H15.0996V24.3001H14.6996V23.3001H20.4996V24.3001ZM19.8996 23.0001H15.1996V22.0001H19.8996V23.0001ZM19.5996 22.7001V22.3001H15.6996V22.7001H19.5996Z" fill="#AA8420" stroke="#AA8420" stroke-width="0.1" stroke-miterlimit="10"/>
<path d="M23.7 24.4002C23.3 25.2002 22.6 25.9002 21.8 26.5002L21.5 26.2002C22.3 25.6002 22.9 25.0002 23.3 24.2002L23.6 24.4002H23.7ZM27.6 23.6002H24.8V26.9002H24.4V23.6002H21.6V23.2002H24.4V20.7002H24.8V23.2002H27.6V23.6002ZM23.3 22.5002L23 22.7002C22.8 22.3002 22.5 21.8002 22.1 21.3002L22.4 21.1002C22.8 21.6002 23.1 22.0002 23.3 22.5002ZM27.6 26.2002L27.3 26.5002C26.9 25.8002 26.3 25.1002 25.5 24.5002L25.8 24.3002C26.4 24.8002 27 25.5002 27.6 26.3002V26.2002ZM27 21.2002C26.7 21.8002 26.4 22.3002 26.1 22.7002L25.7 22.5002C26 22.2002 26.3 21.7002 26.6 21.0002L26.9 21.2002H27Z" fill="#AA8420" stroke="#AA8420" stroke-width="0.1" stroke-miterlimit="10"/>
<path d="M241 13.7C240 14.1 239.1 14.5 238.3 14.7L238.1 14.1C238.8 13.9 239.7 13.6 240.8 13.1L241 13.7ZM240.9 9.30005C240.4 10.4 239.8 11.3 239.2 12.2C239.5 12.2 240 11.9 240.6 11.7L240.8 12.4C240 12.7 239.2 13 238.4 13.2L238.2 12.6C238.7 12.1 239.1 11.5 239.5 10.8C239.1 10.8 238.8 11 238.4 11L238.2 10.4C238.7 9.70005 239.2 8.90005 239.6 7.80005L240.2 8.00005C239.9 8.80005 239.6 9.50005 239.1 10.1C239.3 10.1 239.6 10.1 239.9 9.90005C240.1 9.70005 240.2 9.40005 240.3 9.00005L240.9 9.30005ZM245.2 13.3C245.1 14.3 244.7 14.8 244.2 14.8C243.7 14.8 243.8 14.8 243.6 14.5C243.4 14.3 243.2 14.1 243 13.7C242.4 14.1 241.7 14.4 240.9 14.8L240.5 14.2C241.4 13.9 242.1 13.5 242.7 13.1C242.5 12.6 242.4 12.1 242.3 11.6L240.9 11.8V11.1L242.3 10.9C242.3 10.5 242.3 10.2 242.3 10H241.2C241.2 10.1 241.2 9.50005 241.2 9.50005H242.3C242.3 9.40005 242.3 7.80005 242.3 7.80005H243C243 8.10005 243 8.60005 243 9.30005L244.9 9.10005V9.70005L243 10C243 10.3 243 10.6 243 10.9L245.1 10.6V11.3C245.2 11.3 243 11.6 243 11.6C243 12 243.1 12.4 243.2 12.8C243.5 12.5 243.8 12.2 244.2 11.7L244.7 12C244.4 12.5 243.9 13 243.5 13.4C243.6 13.6 243.8 13.8 243.9 13.9C244 14 244.1 14.1 244.2 14.1C244.2 14.1 244.2 14 244.3 13.7C244.3 13.5 244.4 13.3 244.4 13L245 13.3H245.2ZM244.6 8.50005L244.2 9.00005C243.9 8.70005 243.6 8.50005 243.2 8.40005L243.6 7.90005C244 8.10005 244.3 8.30005 244.6 8.60005V8.50005Z" fill="black"/>
<path d="M253.1 14.6H246.1V13.9H249V7.80005H249.7V10.2H252.7V10.9H249.7V13.9H253.1V14.6Z" fill="black"/>
<path d="M253.899 20.9C253.899 21.2 253.699 21.6 253.599 21.9L253.399 22.4V26.9H253.099V23.1C252.899 23.5 252.699 23.8 252.499 24L252.199 23.7C252.799 23 253.199 22 253.599 20.7H253.899V20.9ZM258.399 26.2999L258.199 26.6C257.799 26.4 257.299 26 256.799 25.5C256.799 25.7 256.799 25.8 256.799 25.9C256.799 26.2 256.799 26.4 256.699 26.5C256.699 26.6 256.499 26.6999 256.399 26.7999C256.299 26.7999 255.999 26.7999 255.699 26.7999C255.399 26.7999 255.499 26.7999 255.399 26.7999V26.5C255.899 26.5 256.199 26.5 256.299 26.5C256.399 26.5 256.499 26.3 256.499 26C256.499 25.7 256.499 25.7 256.499 25.5C255.899 25.9 255.099 26.3 253.999 26.7L253.799 26.4C254.899 26.1 255.799 25.7 256.399 25.2C256.399 25.2 256.399 24.9999 256.199 24.7999C255.599 25.1999 254.899 25.5999 253.999 25.7999L253.799 25.5C254.799 25.2 255.499 24.9 256.099 24.5C256.099 24.4 255.899 24.3 255.799 24.2C255.299 24.5 254.699 24.7 253.899 24.9L253.699 24.6C254.499 24.5 255.199 24.1999 255.799 23.7999H254.399V22.6C254.299 22.7 254.099 22.8 253.999 22.9L253.799 22.6C254.599 22 255.199 21.5 255.499 20.9L255.799 21.1C255.799 21.2 255.699 21.3 255.599 21.4H257.299V21.7C257.099 21.9 256.899 22.2 256.699 22.4H257.999V23.7H256.399C256.299 23.8 256.199 23.9 256.099 24C256.299 24.3 256.499 24.5 256.699 24.9C257.099 24.7 257.499 24.4 257.999 24L258.299 24.2C257.899 24.5 257.499 24.8 256.999 25.1C257.499 25.7 258.099 26.1 258.599 26.4L258.399 26.2999ZM256.799 21.6H255.299C254.999 21.9 254.799 22.0999 254.499 22.2999H256.199C256.499 21.9999 256.699 21.8 256.799 21.6ZM255.999 23.2999V22.6H254.699V23.2999H255.999ZM257.599 23.2999V22.6H256.299V23.2999H257.599Z" fill="#AA8420" stroke="#AA8420" stroke-width="0.1" stroke-miterlimit="10"/>
<path d="M265.3 23.2H262.4C261.9 23.6 261.4 23.8 260.9 24H262C262.7 24 263.1 24 263.1 24C263.4 23.9 263.6 23.7 264 23.5L264.3 23.7C263.1 24.4 262 24.9 260.8 25.2C262 25.2 263.2 25.2 264.3 25C264.1 24.8 264 24.7 263.8 24.5L264.1 24.2999C264.6 24.6999 265 25.2 265.3 25.6L265 25.7999C264.8 25.5999 264.7 25.3999 264.6 25.2999C263.9 25.2999 263.2 25.4 262.5 25.4V26.4C262.5 26.6 262.5 26.6999 262.3 26.7999C262.2 26.7999 262 26.9 261.6 26.9C261.2 26.9 261.4 26.9 261.4 26.9V26.5C261.4 26.5 261.6 26.5 261.7 26.5C261.9 26.5 262 26.5 262 26.5C262 26.5 262 26.5 262 26.4V25.4C261.4 25.4 260.6 25.4 259.6 25.4V25.1C260.5 24.9 261.4 24.6 262.3 24.2C261.8 24.2 261.2 24.2 260.6 24.2C260 24.2 260.2 24.2 260.1 24.2V23.9C260.6 23.7 261.2 23.4 261.7 23.1H259.1V22.7999H262V22.2H259.8V21.9H262V21.4H259.4V21.1H262V20.7H262.4V21.1H264.9V21.4H262.4V21.9H264.5V22.2H262.4V22.7999H265.2V23.1L265.3 23.2ZM261.3 25.9C260.9 26.2 260.3 26.6 259.5 26.9L259.3 26.6C260 26.3 260.6 26 261.1 25.7L261.4 26L261.3 25.9ZM265.2 26.6L265 26.9C264.5 26.5 263.9 26.2 263.2 25.9L263.4 25.6C264.1 25.9 264.7 26.2 265.2 26.6Z" fill="#AA8420" stroke="#AA8420" stroke-width="0.1" stroke-miterlimit="10"/>
</svg>
