<svg width="244" height="75" viewBox="0 0 244 75" fill="none" xmlns="http://www.w3.org/2000/svg">
<g clip-path="url(#clip0_83_3757)">
<path d="M126.9 8.2C127.1 8 127.1 7.5 127.1 7.5H115.9C115.9 7.5 116 8 116.2 8.2H126.9Z" fill="#AA8420"/>
<path d="M126.2 9.1C126.4 8.9 126.6 8.5 126.6 8.5H116.3C116.3 8.5 116.4 8.8 116.7 9.1H126.2Z" fill="#AA8420"/>
<path d="M125.4 10.0001C125.7 9.9001 125.9 9.6001 125.9 9.6001H117.1C117.1 9.6001 117.3 9.8001 117.5 10.0001H125.4Z" fill="#AA8420"/>
<path d="M124.4 10.8C124.6 10.7 124.9 10.5 124.9 10.5H118.1C118.1 10.5 118.1 10.5 118.6 10.8H124.4Z" fill="#AA8420"/>
<path d="M119.4 11.3C119.4 11.3 120.1 11.7 121.5 11.7C122.9 11.7 123.8 11.3 123.8 11.3H119.3H119.4Z" fill="#AA8420"/>
<path d="M119.2 12.2C119.2 12.2 120.1 12.2 120.6 12.6C121.1 13 121.5 13.7 121.5 13.7C121.5 13.7 121.8 13 122.3 12.7C122.8 12.3 123.6 12.2 123.6 12.2H132.5L134.2 14.8H126.3C126.3 14.8 125.7 14.8 124.9 15.3C124.5 15.5 124.1 16 124.1 16C124.1 16 124.1 16.2 123.9 16.3C123.9 16.4 123.7 16.5 123.6 16.6H119.5C119.5 16.6 119.3 16.6 119.3 16.4C119.3 16.3 119.3 16.4 119.2 16.2C119.2 16.1 119 15.8 118.3 15.4C117.7 15 117 14.9 117 14.9H108.9L110.7 12.2H119.4H119.2Z" fill="#003477"/>
<path d="M113 15.8999V29.0999C113 29.0999 113 30.2999 114 31.7999C115 33.3999 116.4 34.0999 116.4 34.0999L117.5 32.3999C117.5 32.3999 116.5 31.7999 115.8 30.6999C115.1 29.5999 115.1 28.5999 115.1 28.5999V15.8999H113Z" fill="#003477"/>
<path d="M127.9 15.8999V28.5999C127.9 28.5999 127.7 29.8999 127.1 30.7999C126.5 31.6999 125.5 32.4999 125.5 32.4999L126.6 34.1999C126.6 34.1999 128.2 32.9999 129 31.7999C129.8 30.5999 130 28.6999 130 28.6999V15.9999H127.9V15.8999Z" fill="#003477"/>
<path d="M109.7 15.8999V29.0999C109.7 29.0999 109.8 31.0999 111.1 33.2999C112.4 35.3999 114.7 36.8999 114.7 36.8999L115.8 35.1999C115.8 35.1999 114.3 34.3999 113.1 32.5999C111.9 30.7999 111.8 29.0999 111.8 29.0999V15.8999H109.6H109.7Z" fill="#003477"/>
<path d="M119.2 17.3V31.3C119.2 31.3 119.2 31.3 119.2 31.6C119.2 31.8 119 31.9 119 31.9L114.3 39.6H128.6L123.9 31.7001V31.4C123.8 31.4 123.7 31 123.7 31V17.3H122V31.5C122 31.5 122 31.7 122 31.9C122 32.1 122.1 32.3 122.1 32.3L125 37H117.7L120.5 32.3C120.5 32.3 120.5 32.1 120.7 31.9C120.7 31.7 120.7 31.5 120.7 31.5V17.3H119H119.2Z" fill="#AA8420"/>
<path d="M131.2 15.8999V28.8999C131.2 28.8999 131.2 30.5999 130 32.4999C128.8 34.3999 127.3 35.1999 127.3 35.1999L128.3 36.9999C128.3 36.9999 130.4 35.6999 131.8 33.4999C133.1 31.3999 133.3 28.8999 133.3 28.8999V15.8999H131.2Z" fill="#003477"/>
<path d="M115.9 7.1C115.9 7.1 115.2 3.2 118.1 1.2C118.1 1.2 119.4 0 121.5 0C123.6 0 125 1.2 125 1.2C128.1 3.5 127.2 7.1 127.2 7.1H115.9Z" fill="#AA8420"/>
<path d="M87.7004 49.1001C88.1004 49.0001 88.3004 48.9001 88.5004 48.8001V52.8001H89.4004V52.4001H94.0004V52.8001H94.9004V48.8001C95.0004 48.8001 95.2004 48.9001 95.3004 49.0001C95.5004 49.0001 95.6004 49.0001 95.7004 49.2001L96.1004 48.3001C94.8004 48.0001 93.7004 47.6001 93.0004 46.9001H96.0004V46.1001H92.1004V45.3001C93.3004 45.2001 94.4004 45.1001 95.2004 44.9001L94.8004 44.1001C93.5004 44.4001 91.7004 44.5001 89.2004 44.5001C86.7004 44.5001 88.2004 44.5001 87.9004 44.5001L88.2004 45.4001C88.8004 45.4001 89.8004 45.4001 91.2004 45.4001V46.2001H87.4004V47.0001H90.3004C89.5004 47.7001 88.5004 48.2001 87.4004 48.5001L87.8004 49.3001L87.7004 49.1001ZM94.0004 51.6001H89.4004V50.8001H94.0004V51.6001ZM92.1004 46.8001C92.7004 47.6001 93.4004 48.2001 94.4004 48.5001H92.1004V46.8001ZM94.0004 49.3001V50.0001H89.4004V49.3001H94.0004ZM91.2004 46.8001V48.5001H89.1004C90.0004 48.1001 90.7004 47.6001 91.2004 46.8001Z" fill="#003477"/>
<path d="M101.5 45.2999V45.7999H102.7V46.7H101.3V47.5H102.8C102.5 48.1 101.9 48.5999 100.9 49.0999L101.4 49.9C101.8 49.6 102.1 49.3999 102.3 49.2999V51.4C102.3 51.8 102.3 52.0999 102.5 52.2999C102.7 52.3999 102.9 52.5 103.3 52.5H106.3C106.8 52.5 107.1 52.4999 107.3 52.2999C107.5 52.0999 107.6 51.5999 107.7 50.7999L106.8 50.5C106.8 51 106.8 51.3 106.7 51.5C106.7 51.7 106.5 51.7999 106.2 51.7999H103.4C103.2 51.7999 103.1 51.7 103.1 51.5V50.9H106.1V49C106.5 49.3 106.9 49.7 107.5 50L107.9 49.2C106.9 48.7 106.3 48.2 106 47.7H107.8V46.9H106.1V45.9H107.6V45.2H106.1V44.2H105.3V45.2H103.6V44.2H102.8V45.2H101.6C101.2 45 100.8 44.7 100.3 44.4L99.7002 45.0999C100.1 45.3999 100.6 45.7 101.1 46.2L101.7 45.5L101.5 45.2999ZM103.6 45.7999H105.3V46.7H103.6V45.7999ZM103.8 47.5H105.1C105.3 47.8 105.5 48.0999 105.7 48.2999H103.3C103.5 48.0999 103.7 47.8 103.8 47.5ZM103.1 49.0999H105.2V50H103.1V49.0999Z" fill="#003477"/>
<path d="M101.2 47.5999C100.7 47.1999 100.3 46.9 99.8002 46.7L99.2002 47.4C99.6002 47.6 100 48 100.5 48.4L101.1 47.5999H101.2Z" fill="#003477"/>
<path d="M101.2 49.8999L100.4 49.3999C100.2 50.2999 99.7998 51.0999 99.2998 51.8999L99.9998 52.6999C100.5 51.8999 100.9 50.8999 101.2 49.8999Z" fill="#003477"/>
<path d="M119 43.9999H118.1V49.2999L115 49.7999V50.6999L118.1 50.1999V52.6999H119V49.9999H119.8V48.9999H119C119 49.0999 119 43.8999 119 43.8999V43.9999Z" fill="#003477"/>
<path d="M117.7 48.1C117 47.6 116.4 47.2 116 47L115.4 47.6C115.9 47.9 116.5 48.3 117.1 48.8L117.7 48.1Z" fill="#003477"/>
<path d="M113.8 52.7001V48.4001C114 48.6001 114.1 48.8001 114.3 49.0001C114.5 49.2001 114.7 49.5001 114.9 49.7001L115.4 48.9001C115 48.5001 114.5 48.0001 113.8 47.4001H115.2V46.6001H113.8V45.3001C114.3 45.3001 114.8 45.1001 115.2 44.9001L114.9 44.1001C113.9 44.5001 112.7 44.7001 111.3 44.8001L111.5 45.6001C112.1 45.6001 112.6 45.6001 112.9 45.4001V46.6001H111.2V47.4001H112.9C112.5 48.4001 111.9 49.4001 111.1 50.3001L111.6 51.1001C112.2 50.3001 112.6 49.6001 112.9 49.0001V52.8001H113.8V52.7001Z" fill="#003477"/>
<path d="M117.8 45.7999C117.1 45.2999 116.5 44.9 116.1 44.7L115.5 45.2999C115.9 45.5999 116.5 46 117.2 46.5L117.8 45.7999Z" fill="#003477"/>
<path d="M123 48.9L123.2 49.9C123.5 49.9 123.9 49.7 124.4 49.6V51.5C124.4 51.7 124.3 51.8 124.1 51.8H123.3L123.5 52.7H124.2C124.7 52.7 125 52.7 125.1 52.5C125.2 52.4 125.3 52.1 125.3 51.6V49.3C125.8 49.1 126.2 49 126.4 48.9V48C126.2 48.1 125.8 48.2 125.3 48.4V46.8H126.4V46.2H128.4V47.4H126.6V48.3H130.3C130 49.1 129.6 49.7 128.9 50.2C128.5 49.8 128 49.2 127.6 48.4L126.8 48.7C127.3 49.5 127.7 50.2 128.2 50.7C127.3 51.3 126.4 51.7 125.5 51.9L126 52.8C126.9 52.6 127.8 52.1 128.8 51.4C129.5 52.1 130.3 52.5 131.1 52.8L131.6 51.9C130.8 51.7 130.1 51.3 129.5 50.8C129.8 50.5 130.2 50.1 130.5 49.5C130.8 49 131 48.5 131.1 48.2V47.4H129.2V46.2H131.4V45.3H129.2V44H128.3V45.3H126.3V45.9H125.2V44H124.3V45.9H122.9V46.7H124.3V48.6C123.9 48.7 123.4 48.8 122.8 48.9H123Z" fill="#003477"/>
<path d="M141.5 49.7C141 48.9 140.6 48.1 140.5 47.3H143.5V46.3H139.6C139.6 45.8 139.6 45 139.6 44H138.6C138.6 45 138.6 45.8 138.5 46.3H135.1V47.3H138.3C138.2 48.2 137.8 49 137.1 49.8C136.5 50.6 135.7 51.3 134.8 51.8L135.5 52.7C137.6 51.3 138.8 49.5 139.3 47.3H139.4C140 49.8 141.2 51.6 142.8 52.7L143.5 51.8C142.6 51.2 141.9 50.5 141.3 49.6L141.5 49.7Z" fill="#003477"/>
<path d="M152.1 45.9C151.9 46.2 151.6 46.4 151.5 46.5C151.4 46.4 151.2 46.3 151.1 46.2C151 46.2 150.9 46.1 150.8 46L150.3 46.4C150.6 46.6 150.8 46.6999 150.9 46.7999C150.7 46.8999 150.4 46.9999 149.9 47.0999L150.3 47.7C150.7 47.5 151.1 47.4 151.4 47.2C151.4 47.2 151.6 47.4 151.9 47.7L152.5 47.2C152.3 47 152.1 46.9 152 46.7C152.2 46.6 152.4 46.3999 152.6 46.0999L152.1 45.7V45.9Z" fill="#003477"/>
<path d="M150.9 51.7C150.9 51.9 150.9 52 150.6 52H149.3L149.5 52.7H150.9C151.5 52.7 151.8 52.4 151.8 51.7V51.3H155.7V50.5H151.8C152.6 50.3 153.3 50 153.8 49.7V49H148.6V49.7H152.5C151.8 49.9 151.3 50 150.9 50.1V50.5H146.9V51.3H150.9V51.7Z" fill="#003477"/>
<path d="M149.8 45.3L150.3 45.9C150.7 45.7 151.1 45.5 151.4 45.3C151.4 45.3 151.6 45.5 151.9 45.8L152.5 45.4C152.3 45.2 152.1 45 152 44.9C152.2 44.7 152.4 44.6 152.6 44.4L152.1 44C152 44.2 151.8 44.3 151.5 44.5C151.3 44.3 151 44.1 150.8 44L150.3 44.4C150.6 44.6 150.8 44.7 150.9 44.8C150.7 44.9 150.4 45 149.9 45.2L149.8 45.3Z" fill="#003477"/>
<path d="M147.9 48.7001H154.6V50.1001H155.4V48.0001H154.9V44.3001C155 44.3001 152.7 44.3001 152.7 44.3001V45.0001H154.2V45.5001H152.8V46.1001H154.1V46.6001H152.8V47.2001H154.1V47.8001H148.3V47.2001H149.7V46.6001H148.3V46.1001H149.7V45.5001H148.3V45.0001C149 45.0001 149.6 44.9001 149.9 44.8001L149.5 44.1001C148.9 44.3001 148.3 44.3001 147.4 44.4001V48.0001C147.5 48.0001 147 48.0001 147 48.0001V50.1001H147.8V48.7001H147.9Z" fill="#003477"/>
<path d="M50.5996 57.4001H52.1996V63.5001H53.0996V57.4001H54.6996V56.6001H50.5996V57.4001Z" fill="#003477"/>
<path d="M59.5004 59.4001H56.2004V56.6001H55.4004V63.4001H56.2004V60.1001H59.5004V63.4001H60.3004V56.6001H59.5004V59.4001Z" fill="#003477"/>
<path d="M65.4002 62.7001H62.6002V60.1001H65.3002V59.3001H62.6002V57.4001H65.4002V56.6001H61.7002V63.4001H65.4002V62.6001V62.7001Z" fill="#003477"/>
<path d="M73.3002 59.4001H70.1002V56.6001H69.2002V63.4001H70.1002V60.1001H73.3002V63.4001H74.1002V56.6001H73.3002V59.4001Z" fill="#003477"/>
<path d="M82.1004 59.9999C82.1004 57.9999 80.5004 56.3999 78.5004 56.3999C76.5004 56.3999 74.9004 57.9999 74.9004 59.9999C74.9004 61.9999 76.5004 63.5999 78.5004 63.5999C80.5004 63.5999 82.1004 62.0999 82.1004 59.9999ZM78.5004 62.7999C77.0004 62.7999 75.8004 61.5999 75.8004 59.9999C75.8004 58.3999 76.9004 57.1999 78.5004 57.1999C80.1004 57.1999 81.2004 58.4999 81.2004 59.9999C81.2004 61.4999 80.0004 62.7999 78.5004 62.7999Z" fill="#003477"/>
<path d="M83.8004 58.3L88.9004 63.7001V56.6H88.0004V61.7001L82.9004 56.3V63.5H83.7004V58.4001L83.8004 58.3Z" fill="#003477"/>
<path d="M93.3998 57.1999C94.1998 57.1999 95.0998 57.6999 95.5998 58.2999L96.1998 57.6999C95.4998 56.8999 94.4998 56.3999 93.3998 56.3999C91.3998 56.3999 89.7998 57.9999 89.7998 59.9999C89.7998 61.9999 91.2998 63.4999 93.2998 63.4999C95.2998 63.4999 96.4998 62.0999 96.4998 60.1999V59.8999H93.7998V60.6999H95.5998C95.5998 61.7999 94.3998 62.6999 93.3998 62.6999C92.3998 62.6999 90.6998 61.2999 90.6998 59.8999C90.6998 58.4999 91.8998 57.0999 93.3998 57.0999V57.1999Z" fill="#003477"/>
<path d="M100.1 56.6001V63.4001H100.9V60.6001L101.2 60.3001L103.8 63.5001H105L101.9 59.7001L105 56.6001H103.9L101 59.6001V56.6001H100.2H100.1Z" fill="#003477"/>
<path d="M105.2 59.9999C105.2 61.9999 106.8 63.5999 108.8 63.5999C110.8 63.5999 112.4 62.0999 112.4 59.9999C112.4 57.8999 110.8 56.3999 108.8 56.3999C106.8 56.3999 105.2 57.9999 105.2 59.9999ZM108.8 57.1999C110.4 57.1999 111.5 58.4999 111.5 59.9999C111.5 61.4999 110.3 62.7999 108.8 62.7999C107.3 62.7999 106.1 61.5999 106.1 59.9999C106.1 58.3999 107.2 57.1999 108.8 57.1999Z" fill="#003477"/>
<path d="M114 58.3L119.1 63.7001V56.6H118.3V61.7001L113.2 56.3V63.5H114.1V58.4001L114 58.3Z" fill="#003477"/>
<path d="M124 60.7999H125.8C125.8 61.8999 124.6 62.7999 123.6 62.7999C122.6 62.7999 120.9 61.3999 120.9 59.9999C120.9 58.5999 122.1 57.1999 123.6 57.1999C125.1 57.1999 125.3 57.6999 125.8 58.2999L126.4 57.6999C125.7 56.8999 124.7 56.3999 123.6 56.3999C121.6 56.3999 120 57.9999 120 59.9999C120 61.9999 121.5 63.4999 123.5 63.4999C125.5 63.4999 126.7 62.0999 126.7 60.1999V59.8999H124V60.6999V60.7999Z" fill="#003477"/>
<path d="M135.3 60.9001V56.6001H134.5V60.6001C134.5 61.7001 134.2 62.7001 132.8 62.7001C131.4 62.7001 131.2 61.7001 131.2 60.6001V56.6001H130.3V60.9001C130.3 62.4001 131.2 63.6001 132.8 63.6001C134.4 63.6001 135.3 62.5001 135.3 60.9001Z" fill="#003477"/>
<path d="M142.4 56.6H141.5V61.7001L136.4 56.3V63.5H137.2V58.4001L142.3 63.8V56.7001L142.4 56.6Z" fill="#003477"/>
<path d="M144.6 56.6001H143.7V63.4001H144.6V56.6001Z" fill="#003477"/>
<path d="M151.2 56.6001H150.3L148.3 61.7001L146.3 56.6001H145.4L148.4 63.8001L151.4 56.6001H151.2Z" fill="#003477"/>
<path d="M155.5 57.4001V56.6001H151.8V63.4001H155.5V62.6001H152.7V60.0001H155.4V59.2001H152.7V57.3001H155.5V57.4001Z" fill="#003477"/>
<path d="M157.5 60.5001H157.9L159.9 63.4001H160.9L158.7 60.4001C159.7 60.3001 160.3 59.5001 160.3 58.5001C160.3 57.5001 160 57.2001 159.4 56.9001C158.9 56.6001 158.2 56.6001 157.6 56.6001H156.6V63.4001H157.4V60.5001H157.5ZM157.5 57.4001H157.7C158.5 57.4001 159.6 57.5001 159.6 58.6001C159.6 59.7001 158.7 59.8001 157.8 59.8001H157.5V57.3001V57.4001Z" fill="#003477"/>
<path d="M163.5 62.7999C162.8 62.7999 162.2 62.2999 162.2 61.4999L161.3 61.6999C161.4 62.7999 162.3 63.5999 163.4 63.5999C164.5 63.5999 165.6 62.6999 165.6 61.4999C165.6 60.2999 164.9 59.7999 163.9 59.3999L163.4 59.1999C163 58.9999 162.4 58.6999 162.4 58.1999C162.4 57.6999 163 57.1999 163.6 57.1999C164.2 57.1999 164.4 57.3999 164.7 57.7999L165.4 57.3999C165 56.6999 164.4 56.3999 163.6 56.3999C162.8 56.3999 161.6 57.0999 161.6 58.1999C161.6 59.2999 162.3 59.5999 163.1 59.8999L163.6 60.0999C164.2 60.2999 164.8 60.6999 164.8 61.3999C164.8 62.0999 164.3 62.6999 163.5 62.6999V62.7999Z" fill="#003477"/>
<path d="M167.4 56.6001H166.6V63.4001H167.4V56.6001Z" fill="#003477"/>
<path d="M170.7 63.4V57.3H172.3V56.5H168.2V57.3H169.8V63.4H170.6H170.7Z" fill="#003477"/>
<path d="M174.6 63.4H175.5V60.4L177.7 56.5H176.7L175 59.4L173.3 56.5H172.3L174.5 60.4V63.4H174.6Z" fill="#003477"/>
<path d="M184.1 56.5C182.1 56.5 180.5 58.1 180.5 60.1C180.5 62.1 182.1 63.7 184.1 63.7C186.1 63.7 187.7 62.2 187.7 60.1C187.7 58 186.1 56.5 184.1 56.5ZM184.1 62.8C182.6 62.8 181.4 61.6 181.4 60C181.4 58.4 182.5 57.2 184.1 57.2C185.7 57.2 186.8 58.5 186.8 60C186.8 61.5 185.6 62.8 184.1 62.8Z" fill="#003477"/>
<path d="M191.9 57.4001V56.6001H188.6V63.4001H189.4V60.0001H191.8V59.2001H189.4V57.3001H191.9V57.4001Z" fill="#003477"/>
<path d="M63.8002 70.3L63.3002 70.1C62.9002 69.9 62.4002 69.7 62.4002 69.1C62.4002 68.5 63.0002 68.1 63.5002 68.1C64.0002 68.1 64.3002 68.3 64.6002 68.7L65.3002 68.3C64.9002 67.6 64.3002 67.3 63.5002 67.3C62.7002 67.3 61.5002 68 61.5002 69.1C61.5002 70.2 62.2002 70.5 63.0002 70.8L63.5002 71C64.1002 71.2 64.7002 71.6 64.7002 72.3C64.7002 73 64.2002 73.6 63.4002 73.6C62.6002 73.6 62.1002 73.1 62.1002 72.3L61.2002 72.5C61.4002 73.6 62.2002 74.4 63.3002 74.4C64.4002 74.4 65.5002 73.5 65.5002 72.3C65.5002 71.1 64.8002 70.6 63.8002 70.2V70.3Z" fill="#003477"/>
<path d="M66.0996 70.9C66.0996 72.9 67.6996 74.4 69.6996 74.4C71.6996 74.4 70.9996 74.2 71.4996 73.9V72.9C70.9996 73.4 70.2996 73.6 69.6996 73.6C68.1996 73.6 66.9996 72.3 66.9996 70.8C66.9996 69.3 68.1996 68 69.6996 68C71.1996 68 70.9996 68.2 71.4996 68.7V67.7C70.9996 67.4 70.3996 67.2 69.7996 67.2C67.7996 67.2 66.1996 68.8 66.1996 70.8L66.0996 70.9Z" fill="#003477"/>
<path d="M73.4 67.5H72.5V74.3H73.4V67.5Z" fill="#003477"/>
<path d="M74.7998 74.2999H78.4998V73.4999H75.6998V70.8999H78.3998V70.0999H75.6998V68.1999H78.4998V67.3999H74.7998V74.1999V74.2999Z" fill="#003477"/>
<path d="M84.6996 72.5001L79.5996 67.1001V74.3001H80.4996V69.2001L85.5996 74.6001V67.5001H84.6996V72.6001V72.5001Z" fill="#003477"/>
<path d="M86.4004 70.9C86.4004 72.9 88.0004 74.4 90.0004 74.4C92.0004 74.4 91.3004 74.2 91.8004 73.9V72.9C91.3004 73.4 90.6004 73.6 90.0004 73.6C88.5004 73.6 87.3004 72.3 87.3004 70.8C87.3004 69.3 88.5004 68 90.0004 68C91.5004 68 91.3004 68.2 91.8004 68.7V67.7C91.3004 67.4 90.7004 67.2 90.1004 67.2C88.1004 67.2 86.5004 68.8 86.5004 70.8L86.4004 70.9Z" fill="#003477"/>
<path d="M92.9004 74.2999H96.6004V73.4999H93.8004V70.8999H96.5004V70.0999H93.8004V68.1999H96.6004V67.3999H92.9004V74.1999V74.2999Z" fill="#003477"/>
<path d="M99.6996 74.3H100.6L101.4 72.6H104.5L105.3 74.3H106.2L102.9 67.2L99.5996 74.3H99.6996ZM101.8 71.8L103 69L104.2 71.8H101.8Z" fill="#003477"/>
<path d="M112 72.5001L106.9 67.1001V74.3001H107.7V69.2001L112.8 74.6001V67.5001H112V72.6001V72.5001Z" fill="#003477"/>
<path d="M115.5 67.4999H114.1V74.2999H115.5C117.7 74.2999 119.4 73.1999 119.4 70.7999C119.4 68.3999 117.7 67.3999 115.6 67.3999L115.5 67.4999ZM115.2 73.4999H114.9V68.1999H115.2C116.9 68.1999 118.4 68.8999 118.4 70.7999C118.4 72.6999 116.9 73.3999 115.2 73.3999V73.4999Z" fill="#003477"/>
<path d="M122.3 68.3H123.9V74.4H124.8V68.3H126.4V67.5H122.3V68.3Z" fill="#003477"/>
<path d="M127.2 74.2999H130.9V73.4999H128.1V70.8999H130.8V70.0999H128.1V68.1999H130.9V67.3999H127.2V74.1999V74.2999Z" fill="#003477"/>
<path d="M131.6 70.9C131.6 72.9 133.2 74.4 135.2 74.4C137.2 74.4 136.5 74.2 137 73.9V72.9C136.5 73.4 135.9 73.6 135.2 73.6C133.7 73.6 132.5 72.3 132.5 70.8C132.5 69.3 133.7 68 135.2 68C136.7 68 136.5 68.2 137 68.7V67.7C136.5 67.4 135.9 67.2 135.3 67.2C133.3 67.2 131.7 68.8 131.7 70.8L131.6 70.9Z" fill="#003477"/>
<path d="M142.1 70.1999H138.9V67.3999H138.1V74.1999H138.9V70.8999H142.1V74.1999H143V67.3999H142.1V70.1999Z" fill="#003477"/>
<path d="M149.3 72.5001L144.2 67.1001V74.3001H145.1V69.2001L150.2 74.6001V67.5001H149.3V72.6001V72.5001Z" fill="#003477"/>
<path d="M154.6 67.3C152.6 67.3 151 68.9 151 70.9C151 72.9 152.6 74.5 154.6 74.5C156.6 74.5 158.2 73 158.2 70.9C158.2 68.8 156.6 67.3 154.6 67.3ZM154.6 73.7C153.1 73.7 151.9 72.5 151.9 70.9C151.9 69.3 153 68.1 154.6 68.1C156.2 68.1 157.3 69.4 157.3 70.9C157.3 72.4 156.1 73.7 154.6 73.7Z" fill="#003477"/>
<path d="M160 67.4999H159.1V74.2999H162V73.4999H159.9V67.3999L160 67.4999Z" fill="#003477"/>
<path d="M165.8 67.3C163.8 67.3 162.2 68.9 162.2 70.9C162.2 72.9 163.8 74.5 165.8 74.5C167.8 74.5 169.4 73 169.4 70.9C169.4 68.8 167.8 67.3 165.8 67.3ZM165.8 73.7C164.3 73.7 163.1 72.5 163.1 70.9C163.1 69.3 164.2 68.1 165.8 68.1C167.4 68.1 168.5 69.4 168.5 70.9C168.5 72.4 167.3 73.7 165.8 73.7Z" fill="#003477"/>
<path d="M173.8 71.7H175.6C175.6 72.8 174.4 73.7 173.4 73.7C172.4 73.7 170.7 72.3 170.7 70.9C170.7 69.5 171.9 68.1 173.4 68.1C174.9 68.1 175.1 68.5 175.5 69.2L176.1 68.6C175.4 67.8 174.4 67.3 173.3 67.3C171.3 67.3 169.7 68.9 169.7 70.9C169.7 72.9 171.2 74.5 173.2 74.5C175.2 74.5 176.4 73.1 176.4 71.2V70.9H173.7V71.7H173.8Z" fill="#003477"/>
<path d="M179.4 70.4L177.7 67.5H176.7L178.9 71.4V74.4H179.7V71.4L181.9 67.5H180.9L179.2 70.4H179.4Z" fill="#003477"/>
<path d="M44.0998 74.7H36.7998V0H44.0998V0.2H36.9998V74.4H44.0998V74.6V74.7Z" fill="#231815"/>
<path d="M205.9 74.7H198.6V74.5H205.7V0.2H198.6V0H205.9V74.7Z" fill="#231815"/>
<path d="M205.9 74.7H198.6V74.5H205.7V0.2H198.6V0H205.9V74.7Z" fill="#231815"/>
<path d="M4.90039 45.8V46.5H0.900391V45.8H2.50039V40.4001L1.00039 41.3V40.5L2.80039 39.3H3.30039V45.7001H4.90039V45.8Z" fill="#AA8420"/>
<path d="M10.8 43.5C11.1 43.8 11.2 44.2 11.2 44.6C11.2 45 11 45.7 10.5 46C10 46.4 9.4 46.5 8.6 46.5C7.8 46.5 7.2 46.3 6.7 46C6.2 45.7 6 45.2 6 44.6C6 44 6.1 43.8 6.4 43.5C6.7 43.2 7 43 7.5 42.8C7.1 42.7 6.7 42.5001 6.5 42.2001C6.3 41.9001 6.2 41.6001 6.2 41.2001C6.2 40.8001 6.3 40.5001 6.5 40.2001C6.7 39.9001 7 39.7 7.3 39.5C7.6 39.3 8.1 39.3 8.6 39.3C9.1 39.3 9.5 39.3 9.8 39.5C10.2 39.7 10.5 39.9001 10.6 40.2001C10.8 40.5001 10.9 40.8001 10.9 41.2001C10.9 41.6001 10.8 41.9001 10.5 42.2001C10.3 42.5001 9.9 42.7 9.5 42.8C10 42.9 10.3 43.1 10.6 43.5H10.8ZM9.9 45.6C10.2 45.4 10.3 45 10.3 44.6C10.3 44.2 10.1 43.9001 9.8 43.7001C9.5 43.5001 9.1 43.3 8.5 43.3C8 43.3 7.6 43.5001 7.2 43.7001C6.9 43.9001 6.7 44.2 6.7 44.6C6.7 45 6.9 45.4 7.2 45.6C7.5 45.8 7.9 45.9001 8.5 45.9001C9.1 45.9001 9.5 45.8 9.8 45.6H9.9ZM7.5 42.2001C7.8 42.4001 8.2 42.6 8.6 42.6C9.1 42.6 9.5 42.4001 9.7 42.2001C10 42.0001 10.1 41.7 10.1 41.3C10.1 40.9 10 40.6001 9.7 40.4001C9.4 40.2001 9 40.1 8.6 40.1C8.2 40.1 7.7 40.2001 7.5 40.4001C7.2 40.6001 7.1 40.9 7.1 41.3C7.1 41.7 7.2 42.0001 7.5 42.2001Z" fill="#AA8420"/>
<path d="M215.9 43.5C216.2 43.8 216.3 44.2 216.3 44.6C216.3 45 216.1 45.7 215.6 46C215.1 46.4 214.5 46.5 213.7 46.5C212.9 46.5 212.3 46.3 211.8 46C211.3 45.7 211.1 45.2 211.1 44.6C211.1 44 211.2 43.8 211.5 43.5C211.8 43.2 212.1 43 212.6 42.8C212.2 42.7 211.8 42.5001 211.6 42.2001C211.4 41.9001 211.3 41.6001 211.3 41.2001C211.3 40.8001 211.3 40.5001 211.6 40.2001C211.8 39.9001 212.1 39.7 212.4 39.5C212.7 39.3 213.2 39.3 213.6 39.3C214 39.3 214.5 39.3 214.8 39.5C215.2 39.7 215.4 39.9001 215.6 40.2001C215.8 40.5001 215.9 40.8001 215.9 41.2001C215.9 41.6001 215.8 41.9001 215.6 42.2001C215.4 42.5001 215 42.7 214.6 42.8C215.1 42.9 215.4 43.1 215.7 43.5H215.9ZM215 45.6C215.3 45.4 215.4 45 215.4 44.6C215.4 44.2 215.2 43.9001 214.9 43.7001C214.6 43.5001 214.2 43.3 213.6 43.3C213.1 43.3 212.7 43.5001 212.3 43.7001C212 43.9001 211.8 44.2 211.8 44.6C211.8 45 212 45.4 212.3 45.6C212.6 45.8 213 45.9001 213.6 45.9001C214.2 45.9001 214.6 45.8 214.9 45.6H215ZM212.6 42.2001C212.9 42.4001 213.3 42.6 213.7 42.6C214.2 42.6 214.6 42.4001 214.8 42.2001C215.1 42.0001 215.2 41.7 215.2 41.3C215.2 40.9 215.1 40.6001 214.8 40.4001C214.5 40.2001 214.1 40.1 213.7 40.1C213.3 40.1 212.8 40.2001 212.5 40.4001C212.2 40.6001 212.1 40.9 212.1 41.3C212.1 41.7 212.2 42.0001 212.5 42.2001H212.6Z" fill="#AA8420"/>
<path d="M217.9 45.6999C217.5 45.0999 217.3 44.1999 217.3 42.9999C217.3 41.7999 217.5 40.8999 217.9 40.2999C218.3 39.6999 218.9 39.3999 219.8 39.3999C220.7 39.3999 221.2 39.6999 221.7 40.2999C222.1 40.8999 222.3 41.7999 222.3 42.9999C222.3 44.1999 222.1 45.0999 221.7 45.6999C221.3 46.2999 220.7 46.5999 219.8 46.5999C218.9 46.5999 218.4 46.2999 217.9 45.6999ZM221 45.1999C221.3 44.6999 221.4 43.9999 221.4 42.9999C221.4 41.9999 221.3 41.1999 221 40.7999C220.7 40.2999 220.3 40.0999 219.7 40.0999C219.1 40.0999 218.7 40.2999 218.5 40.7999C218.2 41.2999 218.1 41.9999 218.1 42.9999C218.1 43.9999 218.2 44.7999 218.5 45.1999C218.8 45.6999 219.2 45.8999 219.7 45.8999C220.2 45.8999 220.7 45.6999 220.9 45.1999H221Z" fill="#AA8420"/>
<path d="M16.5996 28.4999C15.8996 28.7999 15.0996 28.9999 14.2996 29.0999V30.7999H16.3996V31.4999H14.2996V33.4999C15.0996 33.2999 15.8996 32.9999 16.4996 32.7999V33.5999C15.4996 33.9999 14.3996 34.2999 13.2996 34.5999L13.0996 33.8999C13.2996 33.8999 13.3996 33.8999 13.4996 33.8999V28.6999C14.4996 28.5999 15.3996 28.3999 16.1996 28.0999L16.5996 28.6999V28.4999ZM19.9996 33.2999C19.9996 33.4999 19.9996 33.6999 19.7996 33.7999C19.5996 33.8999 19.4996 33.9999 19.3996 33.9999C19.2996 33.9999 18.9996 33.9999 18.6996 33.9999C18.3996 33.9999 18.2996 33.9999 18.1996 33.9999L17.8996 33.1999C18.0996 33.1999 18.3996 33.1999 18.9996 33.1999C19.5996 33.1999 19.1996 33.1999 19.1996 32.9999V28.7999H17.5996V34.7999H16.8996V28.0999H19.9996V33.1999V33.2999Z" fill="black"/>
<path d="M25.3992 30.1999H22.2992V31.2999C22.2992 32.7999 22.0992 34.0999 21.7992 34.9999L21.1992 34.5999C21.4992 33.7999 21.5992 32.8999 21.5992 31.7999V28.0999H25.3992V30.1999ZM24.6992 29.4999V28.6999H22.2992V29.4999H24.6992ZM25.3992 33.7999C25.3992 33.9999 25.3992 34.1999 25.1992 34.1999C24.9992 34.1999 24.8992 34.2999 24.5992 34.1999L24.3992 33.5999C24.3992 33.5999 24.3992 33.5999 24.4992 33.5999C24.6992 33.5999 24.6992 33.5999 24.6992 33.3999V31.7999H24.1992V34.6999H23.5992V31.7999H23.1992V34.1999H22.5992V31.0999H23.6992V30.3999H24.2992V31.0999H25.3992V33.5999V33.7999ZM26.5992 33.3999H25.8992V28.3999H26.5992V33.3999ZM27.9992 34.1999C27.9992 34.4999 27.9992 34.6999 27.7992 34.7999C27.5992 34.7999 27.3992 34.8999 26.9992 34.8999C26.5992 34.8999 26.5992 34.8999 26.4992 34.8999L26.2992 34.1999C26.4992 34.1999 26.6992 34.1999 26.8992 34.1999C27.0992 34.1999 27.1992 34.1999 27.2992 34.1999C27.3992 34.1999 27.2992 34.1999 27.2992 33.9999V27.8999H27.9992V34.1999Z" fill="black"/>
<path d="M20.9 41.4999H15V41.1999H17.8C17.8 40.9999 17.6 40.8999 17.5 40.7999L17.8 40.5999C17.9 40.7999 18 40.9999 18.1 41.1999H20.8V41.4999H20.9ZM21 45.9999C21 46.2999 21 46.4999 20.8 46.5999C20.7 46.6999 20.5 46.7999 20.4 46.7999H18.1C17.9 46.7999 17.8 46.7999 17.7 46.5999C17.6 46.4999 17.5 46.2999 17.5 46.0999V45.8999L15 46.0999V45.7999L17.5 45.5999V45.1999L15.4 45.3999V45.0999L17.5 44.8999V44.4999C17 44.4999 16.5 44.4999 15.9 44.4999V44.1999C17.3 44.1999 18.7 44.1999 19.7 43.8999L19.9 44.1999C19.3 44.2999 18.6 44.3999 17.8 44.4999V44.8999L20.4 44.6999V44.9999L17.8 45.1999V45.5999L20.8 45.3999V45.6999L17.8 45.8999V46.1999C17.8 46.1999 17.8 46.2999 17.8 46.3999C17.8 46.3999 17.9 46.3999 18 46.3999H20.1C20.4 46.3999 20.5 46.1999 20.5 45.7999H20.8L21 45.9999ZM20.8 44.2999H20.4V43.5999H15.4V44.2999H15V43.2999H20.8V44.2999ZM20.3 42.9999H15.6V41.9999H20.3V42.9999ZM19.9 42.6999V42.2999H16V42.6999H19.9Z" fill="#AA8420" stroke="#AA8420" stroke-width="0.1" stroke-miterlimit="10"/>
<path d="M23.9998 44.4C23.5998 45.2 22.8998 45.9 22.0998 46.5L21.7998 46.2C22.5998 45.6 23.1998 45 23.5998 44.2L23.8998 44.4H23.9998ZM27.8998 43.5999H25.0998V46.9H24.6998V43.5999H21.8998V43.2H24.6998V40.7H25.0998V43.2H27.8998V43.5999ZM23.6998 42.5L23.3998 42.7C23.1998 42.3 22.8998 41.7999 22.4998 41.2999L22.7998 41.0999C23.1998 41.5999 23.4998 42 23.6998 42.5ZM27.9998 46.2L27.6998 46.5C27.2998 45.8 26.6998 45.1 25.8998 44.5L26.1998 44.2999C26.7998 44.7999 27.3998 45.4999 27.9998 46.2999V46.2ZM27.2998 41.2C26.9998 41.8 26.6998 42.3 26.3998 42.7L25.9998 42.5C26.2998 42.2 26.5998 41.7 26.8998 41L27.1998 41.2H27.2998Z" fill="#AA8420" stroke="#AA8420" stroke-width="0.1" stroke-miterlimit="10"/>
<path d="M214.299 33.7999C213.299 34.1999 212.399 34.5999 211.599 34.7999L211.399 34.1999C212.099 33.9999 212.999 33.6999 214.099 33.1999L214.299 33.7999ZM214.199 29.4999C213.699 30.5999 213.099 31.4999 212.499 32.3999C212.799 32.3999 213.299 32.0999 213.899 31.8999L214.099 32.5999C213.299 32.8999 212.499 33.1999 211.699 33.3999L211.499 32.7999C211.999 32.2999 212.399 31.6999 212.799 30.9999C212.399 30.9999 212.099 31.1999 211.699 31.1999L211.499 30.5999C211.999 29.8999 212.499 29.0999 212.899 27.9999L213.499 28.1999C213.199 28.9999 212.899 29.6999 212.399 30.2999C212.599 30.2999 212.899 30.2999 213.199 30.0999C213.399 29.8999 213.499 29.5999 213.599 29.1999L214.199 29.4999ZM218.399 33.3999C218.299 34.3999 217.899 34.8999 217.399 34.8999C216.899 34.8999 216.999 34.8999 216.799 34.5999C216.599 34.3999 216.399 34.1999 216.199 33.7999C215.599 34.1999 214.899 34.4999 214.099 34.8999L213.699 34.2999C214.599 33.9999 215.299 33.5999 215.899 33.1999C215.699 32.6999 215.599 32.1999 215.499 31.6999L214.099 31.8999V31.1999L215.499 30.9999C215.499 30.5999 215.499 30.2999 215.499 30.0999H214.399C214.399 30.1999 214.399 29.5999 214.399 29.5999H215.499C215.499 29.4999 215.499 27.8999 215.499 27.8999H216.199C216.199 28.1999 216.199 28.6999 216.199 29.3999L218.099 29.1999V29.7999L216.199 30.0999C216.199 30.3999 216.199 30.6999 216.199 30.9999L218.299 30.6999V31.3999C218.399 31.3999 216.199 31.6999 216.199 31.6999C216.199 32.0999 216.299 32.4999 216.399 32.8999C216.699 32.5999 216.999 32.2999 217.399 31.7999L217.899 32.0999C217.599 32.5999 217.099 33.0999 216.699 33.4999C216.799 33.6999 216.999 33.8999 217.099 33.9999C217.199 34.0999 217.299 34.1999 217.399 34.1999C217.399 34.1999 217.399 34.0999 217.499 33.7999C217.499 33.5999 217.599 33.3999 217.599 33.0999L218.199 33.3999H218.399ZM217.799 28.5999L217.399 29.0999C217.099 28.7999 216.799 28.5999 216.399 28.4999L216.799 27.9999C217.199 28.1999 217.499 28.3999 217.799 28.6999V28.5999Z" fill="black"/>
<path d="M226.399 34.6999H219.399V33.9999H222.299V27.8999H222.999V30.2999H225.999V30.9999H222.999V33.9999H226.399V34.6999Z" fill="black"/>
<path d="M227.3 40.7999C227.3 41.0999 227.1 41.4999 227 41.7999L226.8 42.2999V46.7999H226.5V42.9999C226.3 43.3999 226.1 43.6999 225.9 43.8999L225.6 43.5999C226.2 42.8999 226.6 41.8999 227 40.5999H227.3V40.7999ZM231.8 46.2999L231.6 46.5999C231.2 46.3999 230.7 45.9999 230.2 45.4999C230.2 45.6999 230.2 45.7999 230.2 45.8999C230.2 46.1999 230.2 46.3999 230.1 46.4999C230.1 46.5999 229.9 46.6999 229.8 46.7999C229.7 46.7999 229.4 46.7999 229.1 46.7999C228.8 46.7999 228.9 46.7999 228.8 46.7999V46.4999C229.3 46.4999 229.6 46.4999 229.7 46.4999C229.8 46.4999 229.9 46.2999 229.9 45.9999C229.9 45.6999 229.9 45.6999 229.9 45.4999C229.3 45.8999 228.5 46.2999 227.4 46.6999L227.2 46.3999C228.3 46.0999 229.2 45.6999 229.8 45.1999C229.8 45.1999 229.8 44.9999 229.6 44.7999C229 45.1999 228.3 45.5999 227.4 45.7999L227.2 45.4999C228.2 45.1999 228.9 44.8999 229.5 44.4999C229.5 44.3999 229.3 44.2999 229.2 44.1999C228.7 44.4999 228.1 44.6999 227.3 44.8999L227.1 44.5999C227.9 44.4999 228.6 44.1999 229.2 43.7999H227.8V42.5999C227.7 42.6999 227.5 42.7999 227.4 42.8999L227.2 42.5999C228 41.9999 228.6 41.4999 228.9 40.8999L229.2 41.0999C229.2 41.1999 229.1 41.2999 229 41.3999H230.7V41.6999C230.5 41.8999 230.3 42.1999 230.1 42.3999H231.4V43.6999H229.8C229.7 43.7999 229.6 43.8999 229.5 43.9999C229.7 44.2999 229.9 44.4999 230.1 44.8999C230.5 44.6999 230.9 44.3999 231.4 43.9999L231.7 44.1999C231.3 44.4999 230.9 44.7999 230.4 45.0999C230.9 45.6999 231.5 46.0999 232 46.3999L231.8 46.2999ZM230.2 41.4999H228.7C228.4 41.7999 228.2 41.9999 227.9 42.1999H229.6C229.8 41.8999 230.1 41.6999 230.2 41.4999ZM229.3 43.2999V42.5999H228V43.2999H229.3ZM231 43.2999V42.5999H229.7V43.2999H231Z" fill="#AA8420" stroke="#AA8420" stroke-width="0.1" stroke-miterlimit="10"/>
<path d="M238.7 43.0999H235.8C235.3 43.4999 234.8 43.6999 234.3 43.8999H235.4C236.1 43.8999 236.5 43.8999 236.5 43.8999C236.8 43.7999 237 43.5999 237.4 43.3999L237.7 43.5999C236.5 44.2999 235.4 44.7999 234.2 45.0999C235.4 45.0999 236.6 45.0999 237.7 44.8999C237.5 44.6999 237.4 44.5999 237.2 44.3999L237.5 44.1999C238 44.5999 238.4 45.0999 238.7 45.4999L238.4 45.6999C238.2 45.4999 238.1 45.2999 238 45.1999C237.3 45.1999 236.6 45.2999 235.9 45.2999V46.2999C235.9 46.4999 235.9 46.5999 235.7 46.6999C235.6 46.6999 235.4 46.7999 235 46.7999C234.6 46.7999 234.8 46.7999 234.8 46.7999V46.3999C234.8 46.3999 235 46.3999 235.1 46.3999C235.3 46.3999 235.4 46.3999 235.4 46.3999C235.4 46.3999 235.4 46.3999 235.4 46.2999V45.2999C234.8 45.2999 234 45.2999 233 45.2999V44.9999C233.9 44.7999 234.8 44.4999 235.7 44.0999C235.2 44.0999 234.6 44.0999 234 44.0999C233.4 44.0999 233.6 44.0999 233.5 44.0999V43.7999C234 43.5999 234.6 43.2999 235.1 42.9999H232.5V42.6999H235.4V42.0999H233.2V41.7999H235.4V41.2999H232.8V40.9999H235.4V40.5999H235.8V40.9999H238.3V41.2999H235.8V41.7999H237.9V42.0999H235.8V42.6999H238.6V42.9999L238.7 43.0999ZM234.7 45.7999C234.3 46.0999 233.7 46.4999 232.9 46.7999L232.7 46.4999C233.4 46.1999 234 45.8999 234.5 45.5999L234.8 45.8999L234.7 45.7999ZM238.6 46.4999L238.4 46.7999C237.9 46.3999 237.3 46.0999 236.6 45.7999L236.8 45.4999C237.5 45.7999 238.1 46.0999 238.6 46.4999Z" fill="#AA8420" stroke="#AA8420" stroke-width="0.1" stroke-miterlimit="10"/>
</g>
<defs>
<clipPath id="clip0_83_3757">
<rect width="244" height="75" fill="white"/>
</clipPath>
</defs>
</svg>
