<svg width="358" height="75" viewBox="0 0 358 75" fill="none" xmlns="http://www.w3.org/2000/svg">
<path d="M50.2002 74.3H40.7002V1H50.2002V1.2H40.9002V74H50.2002V74.2V74.3Z" fill="#231815"/>
<path d="M318.3 74.3H308.8V74.1H318.1V1.2H308.8V1H318.3V74.3Z" fill="#231815"/>
<path d="M4.2002 44.5V45.2H0.200195V44.5H1.8002V39.1L0.300195 40V39.2L2.1002 38H2.6002V44.4H4.2002V44.5Z" fill="#AA8420"/>
<path d="M6.1 44.4001C5.7 43.8001 5.5 42.9001 5.5 41.7001C5.5 40.5001 5.7 39.6001 6.1 39.0001C6.5 38.4001 7.1 38.1001 7.9 38.1001C8.7 38.1001 9.3 38.4001 9.8 39.0001C10.2 39.6001 10.4 40.5001 10.4 41.7001C10.4 42.9001 10.2 43.8001 9.8 44.4001C9.4 45.0001 8.8 45.3001 7.9 45.3001C7 45.3001 6.5 45.0001 6.1 44.4001ZM9.2 43.9001C9.5 43.4001 9.6 42.7001 9.6 41.7001C9.6 40.7001 9.5 39.9001 9.2 39.5001C8.9 39.0001 8.5 38.8001 7.9 38.8001C7.3 38.8001 6.9 39.0001 6.7 39.5001C6.4 40.0001 6.3 40.7001 6.3 41.7001C6.3 42.7001 6.4 43.5001 6.7 43.9001C7 44.4001 7.4 44.6001 7.9 44.6001C8.4 44.6001 8.9 44.4001 9.2 43.9001Z" fill="#AA8420"/>
<path d="M330.9 43.7H329.8V45.2H329V43.7H325.7V43.0999L329.1 38.2H329.8V43.0999H330.9V43.7999V43.7ZM329 43V39.5L326.6 43H329Z" fill="#AA8420"/>
<path d="M335.7 41C336 41.2 336.3 41.4999 336.5 41.7999C336.7 42.0999 336.8 42.5 336.8 43C336.8 43.5 336.7 43.8 336.5 44.2C336.3 44.5 336 44.8 335.7 45C335.3 45.2 334.9 45.2999 334.4 45.2999C333.9 45.2999 333.5 45.2999 333.1 45.0999C332.7 44.8999 332.3 44.7 332 44.5L332.3 43.9C333 44.4 333.6 44.7 334.3 44.7C335 44.7 335.2 44.5999 335.5 44.2999C335.8 43.9999 335.9 43.5999 335.9 43.0999C335.9 42.5999 335.8 42.3 335.5 42C335.2 41.7 334.8 41.5999 334.4 41.5999C333.7 41.5999 333.2 41.9 332.8 42.4H332.2V38.2H336.5V38.9H333.1V41.4C333.5 41 334 40.7999 334.6 40.7999C335.2 40.7999 335.4 40.7999 335.8 41.0999L335.7 41Z" fill="#AA8420"/>
<path d="M97.3 16C97.6 15.6 97.8 14.8 97.8 14.8H77C77 14.8 77.3 15.7 77.5 16H97.3Z" fill="#A68238"/>
<path d="M96.1004 17.8C96.5004 17.5 96.9004 16.8 96.9004 16.8H77.9004C77.9004 16.8 78.1004 17.3 78.6004 17.8H96.1004Z" fill="#A68238"/>
<path d="M94.5998 19.3C95.0998 19 95.4998 18.5 95.4998 18.5H79.2998C79.2998 18.5 79.6998 18.9 80.0998 19.3H94.6998H94.5998Z" fill="#A68238"/>
<path d="M92.7 20.9C93.2 20.7 93.7 20.3 93.7 20.3H81C81 20.3 81 20.3 81.9 20.9H92.7Z" fill="#A68238"/>
<path d="M83.2998 21.8C83.2998 21.8 84.5998 22.6 87.2998 22.6C89.9998 22.6 91.5998 21.8 91.5998 21.8H83.2998Z" fill="#A68238"/>
<path d="M83.0996 23.6C83.0996 23.6 84.6996 23.6 85.5996 24.4C86.4996 25.2 87.1996 26.5 87.1996 26.5C87.1996 26.5 87.7996 25.3 88.6996 24.6C89.5996 23.9 91.0996 23.6 91.0996 23.6H107.5L110.7 28.4H95.9996C95.9996 28.4 94.9996 28.4 93.3996 29.3C92.5996 29.8 91.9996 30.6 91.9996 30.6C91.9996 30.6 91.8996 31 91.6996 31.2C91.4996 31.4 91.3996 31.6 91.1996 31.7C90.9996 31.7 90.9996 31.7 90.9996 31.7H83.2996C83.2996 31.7 82.9996 31.6 82.7996 31.3C82.5996 31 82.7996 31.1 82.5996 30.9C82.4996 30.7 82.1996 30.1 80.9996 29.4C79.7996 28.6 78.5996 28.5 78.5996 28.5H63.5996L66.8996 23.5H82.9996L83.0996 23.6Z" fill="#003873"/>
<path d="M71.5996 30.3V54.7001C71.5996 54.7001 71.5996 56.9 73.4996 59.8C75.2996 62.7 77.8996 64.1 77.8996 64.1L79.9996 60.9001C79.9996 60.9001 78.1996 59.8 76.7996 57.8C75.4996 55.7 75.4996 54 75.4996 54V30.4H71.5996V30.3Z" fill="#003873"/>
<path d="M99.3004 30.2V53.7999C99.3004 53.7999 99.0004 56.1999 97.9004 57.7999C96.8004 59.4999 94.9004 60.9 94.9004 60.9L96.9004 64.0999C96.9004 64.0999 99.9004 61.8999 101.4 59.5999C102.9 57.2999 103.2 53.7999 103.2 53.7999V30.2H99.3004Z" fill="#003873"/>
<path d="M65.4004 30.3V54.8C65.4004 54.8 65.6004 58.6 68.0004 62.5C70.4004 66.5 74.7004 69.2 74.7004 69.2L76.7004 66C76.7004 66 73.9004 64.5001 71.8004 61.2001C69.6004 57.8001 69.4004 54.7001 69.4004 54.7001V30.3H65.4004Z" fill="#003873"/>
<path d="M83.0996 32.8999V58.7999C83.0996 58.7999 83.0996 58.7999 82.9996 59.2999C82.9996 59.6999 82.6996 59.9999 82.6996 59.9999L74.0996 74.2999H100.6L91.9996 59.6999L91.6996 58.9999V58.2999V32.9999H88.4996V59.2999C88.4996 59.2999 88.4996 59.6999 88.5996 59.9999C88.5996 60.2999 88.8996 60.7999 88.8996 60.7999L94.1996 69.5999H80.6996L85.8996 60.8999C85.8996 60.8999 86.0996 60.5999 86.1996 60.1999C86.1996 59.7999 86.2996 59.3999 86.2996 59.3999V33.0999H83.1996L83.0996 32.8999Z" fill="#A68238"/>
<path d="M105.2 30.2V54.2999C105.2 54.2999 105.2 57.4 102.9 61C100.6 64.6 98 66.0999 98 66.0999L99.9 69.4C99.9 69.4 103.9 66.9 106.4 62.9C108.8 58.9 109.2 54.2999 109.2 54.2999V30.2H105.3H105.2Z" fill="#003873"/>
<path d="M76.8996 14.1C76.8996 14.1 75.5996 6.8 80.8996 3.2C80.8996 3.2 83.2996 1 87.1996 1C91.0996 1 93.7996 3.2 93.7996 3.2C99.5996 7.4 97.8996 14.1 97.8996 14.1H76.8996Z" fill="#A68238"/>
<path d="M125.3 35.8V25.2001H128.1V23.8H120.9V25.2001H123.7V35.8H125.2H125.3Z" fill="#003477"/>
<path d="M130.8 23.8999H129.3V35.7999H130.8V30.0999H136.5V35.7999H138V23.8999H136.5V28.6999H130.8V23.8999Z" fill="#003477"/>
<path d="M146.7 34.4999H141.8V29.9999H146.6V28.5999H141.8V25.2999H146.7V23.8999H140.3V35.7999H146.7V34.3999V34.4999Z" fill="#003477"/>
<path d="M154.8 23.8999H153.3V35.7999H154.8V30.0999H160.5V35.7999H162V23.8999H160.5V28.6999H154.8V23.8999Z" fill="#003477"/>
<path d="M169.7 23.6001C166.3 23.6001 163.5 26.4001 163.5 29.8001C163.5 33.2001 166.3 36.0001 169.7 36.0001C173.1 36.0001 176 33.3001 176 29.8001C176 26.3001 173.2 23.6001 169.7 23.6001ZM169.7 34.7001C167.1 34.7001 164.9 32.6001 164.9 29.9001C164.9 27.2001 166.9 25.1001 169.7 25.1001C172.5 25.1001 174.5 27.3001 174.5 29.9001C174.5 32.5001 172.3 34.7001 169.7 34.7001Z" fill="#003477"/>
<path d="M186.4 32.7001L177.4 23.3V35.8H178.9V26.9L187.9 36.3V23.9H186.4V32.7001Z" fill="#003477"/>
<path d="M189.3 29.9001C189.3 33.2001 192 36.1001 195.3 36.1001C198.6 36.1001 201 33.6001 201 30.3001V29.8001H196.3V31.2001H199.4C199.4 33.2001 197.3 34.7001 195.5 34.7001C193.7 34.7001 190.9 32.3001 190.9 29.8001C190.9 27.3001 193 25.0001 195.7 25.0001C198.4 25.0001 198.6 25.8001 199.5 26.9001L200.5 25.9001C199.3 24.4001 197.5 23.6001 195.6 23.6001C192.2 23.6001 189.4 26.4001 189.4 29.8001L189.3 29.9001Z" fill="#003477"/>
<path d="M216 35.8L210.5 29.2001L215.9 23.8H214L208.9 29V23.8H207.4V35.7001H208.9V30.7001L209.5 30.1L214 35.7001H216V35.8Z" fill="#003477"/>
<path d="M216.2 29.9C216.2 33.4 219 36.0999 222.4 36.0999C225.8 36.0999 228.6 33.4 228.6 29.9C228.6 26.4 225.8 23.7 222.4 23.7C219 23.7 216.2 26.4999 216.2 29.9ZM222.4 25C225.2 25 227.2 27.1999 227.2 29.7999C227.2 32.3999 225 34.5999 222.4 34.5999C219.8 34.5999 217.6 32.4999 217.6 29.7999C217.6 27.0999 219.6 25 222.4 25Z" fill="#003477"/>
<path d="M231.6 26.9L240.6 36.3V23.9H239.1V32.7001L230.1 23.3V35.8H231.6V26.9Z" fill="#003477"/>
<path d="M248.1 36.1001C251.4 36.1001 253.8 33.6001 253.8 30.3001V29.8001H249.1V31.2001H252.2C252.2 33.2001 250.1 34.7001 248.3 34.7001C246.5 34.7001 243.7 32.3001 243.7 29.8001C243.7 27.3001 245.8 25.0001 248.5 25.0001C251.2 25.0001 251.4 25.8001 252.3 26.9001L253.3 25.9001C252.1 24.4001 250.3 23.6001 248.4 23.6001C245 23.6001 242.2 26.4001 242.2 29.8001C242.2 33.2001 244.9 36.0001 248.2 36.0001L248.1 36.1001Z" fill="#003477"/>
<path d="M126.2 55.0999C128.9 55.0999 130.6 53.0999 130.6 50.4999V42.8999H129.1V49.8999C129.1 51.8999 128.5 53.6999 126.2 53.6999C123.9 53.6999 123.3 51.8999 123.3 49.8999V42.8999H121.8V50.4999C121.8 53.0999 123.4 55.0999 126.2 55.0999Z" fill="#003477"/>
<path d="M134.2 45.9001L143.2 55.3V42.9001H141.7V51.7001L132.7 42.3V54.8H134.2V45.9001Z" fill="#003477"/>
<path d="M146.8 42.8999H145.3V54.7999H146.8V42.8999Z" fill="#003477"/>
<path d="M153.2 51.6999L149.6 42.8999H148L153.2 55.4999L158.4 42.8999H156.8L153.2 51.6999Z" fill="#003477"/>
<path d="M165.9 53.4999H161V48.9999H165.8V47.5999H161V44.2999H165.9V42.8999H159.5V54.7999H165.9V53.3999V53.4999Z" fill="#003477"/>
<path d="M174.5 46.2999C174.5 45.1999 173.9 43.9999 172.9 43.4999C171.9 42.9999 170.8 42.8999 169.7 42.8999H167.9V54.7999H169.4V49.7999H170L173.5 54.7999H175.3L171.5 49.5999C173.2 49.3999 174.4 47.9999 174.4 46.2999H174.5ZM169.9 48.5999H169.4V44.2999H169.8C171.3 44.2999 173 44.5999 173 46.3999C173 48.1999 171.4 48.5999 169.8 48.5999H169.9Z" fill="#003477"/>
<path d="M179.9 53.7001C178.6 53.7001 177.6 52.7001 177.6 51.4001L176.1 51.7001C176.3 53.6001 177.9 55.0001 179.8 55.0001C181.7 55.0001 183.6 53.5001 183.6 51.3001C183.6 49.1001 182.3 48.4001 180.6 47.7001L179.8 47.4001C179.1 47.1001 178.1 46.6001 178.1 45.7001C178.1 44.8001 179.1 44.0001 180.1 44.0001C181.1 44.0001 181.6 44.4001 182 45.1001L183.2 44.4001C182.5 43.2001 181.5 42.6001 180.1 42.6001C178.7 42.6001 176.6 43.8001 176.6 45.7001C176.6 47.6001 177.8 48.1001 179.2 48.7001L180 49.0001C181 49.4001 182.1 50.0001 182.1 51.3001C182.1 52.6001 181.2 53.6001 179.9 53.6001V53.7001Z" fill="#003477"/>
<path d="M186.8 42.8999H185.3V54.7999H186.8V42.8999Z" fill="#003477"/>
<path d="M192.4 54.8V44.2001H195.2V42.8H188V44.2001H190.8V54.8H192.3H192.4Z" fill="#003477"/>
<path d="M197 42.8999H195.3L199.2 49.5999V54.7999H200.7V49.5999L204.6 42.8999H202.9L200 47.9999L197.1 42.8999H197Z" fill="#003477"/>
<path d="M215.9 55.0999C219.3 55.0999 222.2 52.4 222.2 48.9C222.2 45.4 219.4 42.7 215.9 42.7C212.4 42.7 209.7 45.5 209.7 48.9C209.7 52.3 212.5 55.0999 215.9 55.0999ZM215.9 44C218.7 44 220.7 46.1999 220.7 48.7999C220.7 51.3999 218.5 53.5999 215.9 53.5999C213.3 53.5999 211.1 51.4999 211.1 48.7999C211.1 46.0999 213.1 44 215.9 44Z" fill="#003477"/>
<path d="M225.3 49H229.4V47.6H225.3V44.2001H229.6V42.8H223.8V54.7001H225.3V48.8V49Z" fill="#003477"/>
<path d="M240.1 47.7999L239.3 47.5C238.6 47.2 237.6 46.6999 237.6 45.7999C237.6 44.8999 238.6 44.0999 239.6 44.0999C240.6 44.0999 241.1 44.5 241.5 45.2L242.7 44.5C242.1 43.3 241 42.7 239.6 42.7C238.2 42.7 236.1 43.8999 236.1 45.7999C236.1 47.6999 237.3 48.1999 238.7 48.7999L239.5 49.0999C240.5 49.4999 241.6 50.1 241.6 51.4C241.6 52.7 240.7 53.7 239.4 53.7C238.1 53.7 237.1 52.7 237.1 51.4L235.6 51.7C235.8 53.6 237.4 55 239.3 55C241.2 55 243.1 53.3999 243.1 51.2999C243.1 49.1999 241.8 48.4 240.1 47.7V47.7999Z" fill="#003477"/>
<path d="M250.4 44C251.5 44 252.7 44.4 253.5 45.2V43.5C252.6 42.9 251.5 42.7 250.5 42.7C247 42.7 244.1 45.5 244.1 49C244.1 52.5 246.9 55.2 250.3 55.2C253.7 55.2 252.5 54.9 253.4 54.4V52.5999C252.5 53.3999 251.4 53.7999 250.2 53.7999C247.5 53.7999 245.5 51.6 245.5 49C245.5 46.4 247.6 44.0999 250.2 44.0999L250.4 44Z" fill="#003477"/>
<path d="M256.9 42.8999H255.4V54.7999H256.9V42.8999Z" fill="#003477"/>
<path d="M259.3 54.8H265.7V53.4001H260.8V48.9001H265.6V47.5H260.8V44.2001H265.7V42.8H259.3V54.7001V54.8Z" fill="#003477"/>
<path d="M276.5 51.7001L267.5 42.3V54.8H269V45.9001L278 55.3V42.9001H276.5V51.7001Z" fill="#003477"/>
<path d="M279.6 48.9001C279.6 52.3001 282.4 55.1001 285.8 55.1001C289.2 55.1001 288 54.8001 288.9 54.3001V52.5001C288 53.3001 286.9 53.7001 285.7 53.7001C283 53.7001 281 51.5001 281 48.8001C281 46.1001 283 43.9001 285.7 43.9001C288.4 43.9001 288 44.3001 288.9 45.1001V43.4001C288 42.8001 286.9 42.6001 285.9 42.6001C282.4 42.6001 279.5 45.4001 279.5 48.9001H279.6Z" fill="#003477"/>
<path d="M297.3 44.2999V42.8999H290.9V54.7999H297.3V53.3999H292.4V48.8999H297.2V47.4999H292.4V44.1999H297.3V44.2999Z" fill="#003477"/>
<path d="M120.8 73.8001H122.4L123.8 70.8001H129.3L130.7 73.8001H132.3L126.6 61.3L120.9 73.8001H120.8ZM124.4 69.5L126.5 64.7L128.6 69.5H124.4Z" fill="#003477"/>
<path d="M142.2 70.7L133.2 61.3V73.8001H134.7V64.9001L143.7 74.3001V61.9001H142.2V70.7Z" fill="#003477"/>
<path d="M148.3 61.8999H145.8V73.7999H148.2C152 73.7999 155 71.7999 155 67.7999C155 63.7999 152 61.8999 148.3 61.8999ZM147.8 72.4999H147.3V63.2999H147.8C150.8 63.2999 153.5 64.3999 153.5 67.8999C153.5 71.3999 150.9 72.4999 147.8 72.4999Z" fill="#003477"/>
<path d="M160.3 63.2001H163.1V73.8001H164.6V63.2001H167.4V61.8H160.2V63.2001H160.3Z" fill="#003477"/>
<path d="M168.8 73.8001H175.2V72.4001H170.3V67.9001H175.1V66.5H170.3V63.2001H175.2V61.8H168.8V73.7V73.8001Z" fill="#003477"/>
<path d="M176.5 67.9C176.5 71.4 179.3 74.0999 182.7 74.0999C186.1 74.0999 184.9 73.8 185.8 73.3V71.5C184.9 72.3 183.8 72.6999 182.6 72.6999C179.9 72.6999 177.9 70.5 177.9 67.9C177.9 65.3 179.9 63 182.6 63C185.3 63 184.9 63.3999 185.8 64.1999V62.5C184.9 61.9 183.8 61.7 182.8 61.7C179.3 61.7 176.5 64.5 176.5 68V67.9Z" fill="#003477"/>
<path d="M194.8 66.6999H189.1V61.8999H187.6V73.7999H189.1V68.0999H194.8V73.7999H196.3V61.8999H194.8V66.6999Z" fill="#003477"/>
<path d="M207.4 70.7L198.4 61.3V73.8001H199.9V64.9001L208.9 74.3001V61.9001H207.4V70.7Z" fill="#003477"/>
<path d="M216.6 61.6001C213.2 61.6001 210.4 64.4001 210.4 67.8001C210.4 71.2001 213.2 74.0001 216.6 74.0001C220 74.0001 222.9 71.3001 222.9 67.8001C222.9 64.3001 220.1 61.6001 216.6 61.6001ZM216.6 72.7001C214 72.7001 211.8 70.6001 211.8 67.9001C211.8 65.2001 213.8 63.1001 216.6 63.1001C219.4 63.1001 221.4 65.3001 221.4 67.9001C221.4 70.5001 219.2 72.7001 216.6 72.7001Z" fill="#003477"/>
<path d="M226 61.9001H224.5V73.8001H229.6V72.4001H226V61.8V61.9001Z" fill="#003477"/>
<path d="M236.2 61.6001C232.8 61.6001 229.9 64.4001 229.9 67.8001C229.9 71.2001 232.7 74.0001 236.2 74.0001C239.7 74.0001 242.4 71.3001 242.4 67.8001C242.4 64.3001 239.6 61.6001 236.2 61.6001ZM236.2 72.7001C233.6 72.7001 231.4 70.6001 231.4 67.9001C231.4 65.2001 233.4 63.1001 236.2 63.1001C239 63.1001 241 65.3001 241 67.9001C241 70.5001 238.8 72.7001 236.2 72.7001Z" fill="#003477"/>
<path d="M250.1 69.2H253.2C253.2 71.2 251.1 72.8001 249.3 72.8001C247.5 72.8001 244.7 70.4001 244.7 67.9001C244.7 65.4001 246.8 63.1 249.5 63.1C252.2 63.1 252.4 63.9 253.3 65.1L254.3 64.1C253.1 62.6 251.3 61.8 249.4 61.8C246 61.8 243.2 64.6 243.2 68.1C243.2 71.6 245.9 74.3001 249.2 74.3001C252.5 74.3001 254.8 71.8 254.8 68.5V68H250.1V69.4001V69.2Z" fill="#003477"/>
<path d="M259.9 66.9999L257 61.8999H255.3L259.2 68.5999V73.7999H260.7V68.5999L264.6 61.8999H262.9L260 66.9999H259.9Z" fill="#003477"/>
<path d="M121.3 11.0999C122 10.8999 122.4 10.6999 122.7 10.5999V17.5999H124.2V16.7999H132.2V17.5999H133.7V10.4999C133.9 10.5999 134.2 10.6999 134.4 10.7999C134.7 10.7999 134.9 10.9999 135.1 11.0999L135.8 9.5999C133.5 9.0999 131.7 8.2999 130.4 7.0999H135.6V5.7999H128.7V4.3999C130.9 4.1999 132.7 3.9999 134.2 3.6999L133.5 2.3999C131.3 2.8999 128 3.1999 123.7 3.1999C119.4 3.1999 122 3.1999 121.4 3.1999L121.9 4.6999C123 4.6999 124.7 4.6999 127.1 4.5999V5.8999H120.4V7.1999H125.4C123.9 8.3999 122.2 9.2999 120.2 9.6999L121 11.1999L121.3 11.0999ZM132.2 15.4999H124.2V14.0999H132.2V15.4999ZM128.8 7.1999C129.8 8.5999 131.2 9.5999 132.8 10.1999H128.8V7.1999ZM132.2 11.4999V12.6999H124.2V11.4999H132.2ZM127.3 7.1999V10.1999H123.6C125.1 9.4999 126.4 8.4999 127.3 7.1999Z" fill="#003477"/>
<path d="M144.8 12.5L143.4 11.7C143.1 13.2 142.4 14.7 141.5 16L142.8 17.3C143.7 15.8 144.4 14.2 144.9 12.4L144.8 12.5Z" fill="#003477"/>
<path d="M145.4 4.6001V5.5001H147.6V7.1001H145.1V8.5001H147.7C147.2 9.5001 146.1 10.4001 144.3 11.3001L145.2 12.7001C145.9 12.2001 146.4 11.9001 146.7 11.7001V15.3001C146.7 16.0001 146.8 16.5001 147.1 16.8001C147.4 17.1001 147.9 17.2001 148.6 17.2001H153.9C154.7 17.2001 155.3 17.0001 155.6 16.8001C155.9 16.5001 156.1 15.6001 156.3 14.1001L154.7 13.5001C154.7 14.4001 154.5 15.0001 154.5 15.3001C154.5 15.6001 154.1 15.8001 153.7 15.8001H148.9C148.5 15.8001 148.3 15.6001 148.3 15.2001V14.2001H153.5V10.9001C154.1 11.5001 155 12.1001 156 12.7001L156.7 11.3001C154.9 10.4001 153.8 9.6001 153.4 8.7001H156.5V7.3001H153.6V5.6001H156.3V4.3001H153.6V2.6001H152.1V4.3001H149.1V2.6001H147.6V4.3001H145.4V4.5001C144.8 4.0001 144 3.5001 143.1 2.9001L142 4.1001C142.7 4.5001 143.5 5.2001 144.4 6.0001L145.4 4.8001V4.6001ZM149 5.5001H152V7.1001H149V5.5001ZM149.4 8.4001H151.6C151.9 9.0001 152.2 9.5001 152.6 9.9001H148.5C148.9 9.5001 149.2 9.0001 149.5 8.4001H149.4ZM148.1 11.2001H151.8V12.8001H148.1V11.2001Z" fill="#003477"/>
<path d="M144.9 8.4999C144.1 7.8999 143.3 7.2999 142.5 6.8999L141.5 8.0999C142.1 8.4999 142.9 9.0999 143.8 9.8999L144.9 8.4999Z" fill="#003477"/>
<path d="M177.5 11.2L176 11.4V2.30005H174.5V11.7L169.1 12.5V14L174.5 13.2V17.7H176V13L177.5 12.8V11.3V11.2Z" fill="#003477"/>
<path d="M173.9 5.5C172.6 4.6 171.6 3.9 170.9 3.5L169.9 4.6C170.7 5.1 171.6 5.8 172.8 6.7L173.8 5.5H173.9Z" fill="#003477"/>
<path d="M173.6 9.3999C172.4 8.4999 171.4 7.7999 170.6 7.3999L169.6 8.4999C170.5 8.9999 171.5 9.6999 172.6 10.6999L173.6 9.4999V9.3999Z" fill="#003477"/>
<path d="M163.1 14.5999C164.2 13.1999 164.9 11.9999 165.3 10.9999V17.6999H166.8V10.0999C167.1 10.4999 167.4 10.7999 167.7 11.1999C168 11.5999 168.3 11.9999 168.7 12.3999L169.6 10.9999C169 10.2999 168.1 9.3999 166.8 8.2999V8.0999H169.3V6.6999H166.8V4.3999C167.7 4.1999 168.5 3.9999 169.3 3.6999L168.7 2.3999C166.9 3.0999 164.9 3.3999 162.4 3.5999L162.7 4.9999C163.8 4.9999 164.6 4.7999 165.2 4.6999V6.6999H162.2V8.0999H165.2C164.5 9.8999 163.5 11.5999 162.1 13.0999L163 14.5999H163.1Z" fill="#003477"/>
<path d="M183 10.8001L183.4 12.6001C183.9 12.5001 184.7 12.3001 185.6 12.0001V15.3001C185.6 15.7001 185.4 15.8001 185.1 15.8001H183.7L184.1 17.4001H185.4C186.2 17.4001 186.7 17.3001 187 17.0001C187.2 16.8001 187.3 16.2001 187.3 15.5001V11.5001C188.2 11.2001 188.9 10.9001 189.2 10.7001V9.1001C188.8 9.3001 188.2 9.5001 187.3 9.8001V6.9001H189.2V5.9001H192.7V8.1001H189.5V9.6001H196C195.5 11.0001 194.8 12.1001 193.6 13.0001C192.8 12.2001 192.1 11.2001 191.4 9.9001L190 10.4001C190.8 11.9001 191.6 13.0001 192.5 13.9001C190.9 15.0001 189.4 15.7001 187.8 16.0001L188.7 17.5001C190.3 17.2001 191.9 16.4001 193.6 15.0001C194.9 16.2001 196.2 17.0001 197.6 17.4001L198.4 15.9001C197 15.5001 195.8 14.9001 194.7 14.0001C195.3 13.5001 195.9 12.7001 196.5 11.8001C197.1 10.9001 197.4 10.1001 197.6 9.5001V8.1001H194.3V5.9001H198.1V4.4001H194.3V2.1001H192.7V4.4001H189.2V5.4001H187.3V2.1001H185.7V5.4001H183.3V6.9001H185.7V10.2001C184.9 10.4001 184.1 10.6001 183.1 10.7001L183 10.8001Z" fill="#003477"/>
<path d="M203.8 16.0001L205 17.5001C208.7 15.1001 210.8 12.0001 211.6 8.0001H211.9C213 12.4001 215 15.5001 217.9 17.4001L219.1 15.9001C217.5 14.8001 216.2 13.6001 215.3 12.1001C214.4 10.7001 213.8 9.3001 213.5 7.9001H218.7V6.2001H211.8C211.8 5.3001 211.9 4.0001 211.9 2.1001H210.2C210.2 3.8001 210.2 5.2001 210 6.2001H204.1V7.9001H209.7C209.4 9.4001 208.8 10.9001 207.7 12.3001C206.6 13.7001 205.3 14.9001 203.7 15.8001L203.8 16.0001Z" fill="#003477"/>
<path d="M230.9 16.3C230.3 16.3 229.8 16.3 229.2 16.3L229.5 17.8H231.7C232.1 17.8 232.4 17.7 232.7 17.3C232.9 17.1 233 16.8 233 16.4V13.7H239.2V12.3H233V11.8C234.5 11.2 235.8 10.6 236.9 9.9V8.5H227.4V9.9H234.5C233.4 10.4 232.3 10.9 231.3 11.2V12.3H225V13.7H231.3V15.9C231.3 16.2 231.1 16.3 230.8 16.3H230.9Z" fill="#003477"/>
<path d="M233.2 4.59995C232.8 3.69995 232.3 2.89995 231.9 2.19995L230.6 2.79995C231 3.49995 231.5 4.29995 231.8 5.19995L233.2 4.49995V4.59995Z" fill="#003477"/>
<path d="M226.4 7.2001H238.2V9.2001H239.8V5.8001H236.5C237 5.0001 237.5 4.0001 237.9 2.8001L236.2 2.1001C235.7 3.6001 235.1 4.8001 234.6 5.7001H224.7V9.1001H226.3V7.0001L226.4 7.2001Z" fill="#003477"/>
<path d="M229.5 4.89995C229.1 4.09995 228.6 3.39995 228.1 2.69995L226.8 3.29995C227.3 3.99995 227.7 4.69995 228.1 5.49995L229.5 4.79995V4.89995Z" fill="#003477"/>
<path d="M15.5996 26.8001C14.8996 27.1001 14.0996 27.3001 13.2996 27.4001V29.1001H15.3996V29.8001H13.2996V31.8001C14.0996 31.6001 14.8996 31.3001 15.4996 31.1001V31.9001C14.4996 32.3001 13.3996 32.6001 12.2996 32.9001L12.0996 32.2001C12.2996 32.2001 12.3996 32.2001 12.4996 32.2001V27.0001C13.4996 26.9001 14.3996 26.7001 15.1996 26.4001L15.5996 27.0001V26.8001ZM18.9996 31.6001C18.9996 31.8001 18.9996 32.0001 18.7996 32.1001C18.5996 32.2001 18.4996 32.3001 18.3996 32.3001C18.2996 32.3001 17.9996 32.3001 17.6996 32.3001C17.3996 32.3001 17.2996 32.3001 17.1996 32.3001L16.8996 31.5001C17.0996 31.5001 17.3996 31.5001 17.9996 31.5001C18.5996 31.5001 18.1996 31.5001 18.1996 31.3001V27.1001H16.5996V33.1001H15.8996V26.4001H18.9996V31.5001V31.6001Z" fill="black"/>
<path d="M24.3992 28.6H21.2992V29.7001C21.2992 31.2001 21.0992 32.5001 20.7992 33.4001L20.1992 33C20.4992 32.2 20.5992 31.3001 20.5992 30.2001V26.5H24.3992V28.6ZM23.6992 27.9V27.1H21.2992V27.9H23.6992ZM24.3992 32.1C24.3992 32.3 24.3992 32.5 24.1992 32.5C23.9992 32.5 23.8992 32.6 23.5992 32.5L23.3992 31.9C23.3992 31.9 23.3992 31.9 23.4992 31.9C23.6992 31.9 23.6992 31.9001 23.6992 31.7001V30.1H23.1992V33H22.5992V30.1H22.1992V32.5H21.5992V29.4H22.6992V28.7001H23.2992V29.4H24.3992V31.9V32.1ZM25.5992 31.8H24.8992V26.8H25.5992V31.8ZM26.9992 32.6C26.9992 32.9 26.9992 33.1001 26.7992 33.2001C26.5992 33.2001 26.3992 33.3 25.9992 33.3C25.5992 33.3 25.5992 33.3 25.4992 33.3L25.2992 32.6C25.4992 32.6 25.6992 32.6 25.8992 32.6C26.0992 32.6 26.1992 32.6 26.2992 32.6C26.3992 32.6 26.2992 32.6001 26.2992 32.4001V26.3H26.9992V32.6Z" fill="black"/>
<path d="M19.9 39.9H14V39.6H16.8C16.8 39.4 16.6 39.3 16.5 39.2L16.8 39C16.9 39.2 17 39.4 17.1 39.6H19.8V39.9H19.9ZM20 44.3C20 44.6 20 44.8 19.8 44.9C19.7 45 19.5 45.1 19.4 45.1H17.1C16.9 45.1 16.8 45.1 16.7 44.9C16.6 44.8 16.5 44.6 16.5 44.4V44.2L14 44.4V44.1L16.5 43.9V43.5L14.4 43.7V43.4L16.5 43.2V42.8C16 42.8 15.5 42.8 14.9 42.8V42.5C16.3 42.5 17.7 42.5 18.7 42.2L18.9 42.5C18.3 42.6 17.6 42.7 16.8 42.8V43.2L19.4 43V43.3L16.8 43.5V43.9L19.8 43.7V44L16.8 44.2V44.5C16.8 44.5 16.8 44.6 16.8 44.7C16.8 44.7 16.9 44.7 17 44.7H19.1C19.4 44.7 19.5 44.5 19.5 44.1H19.8L20 44.3ZM19.8 42.7H19.4V42H14.4V42.7H14V41.7H19.8V42.7ZM19.3 41.3H14.6V40.3H19.3V41.3ZM18.9 41V40.6H15V41H18.9Z" fill="#AA8420" stroke="#AA8420" stroke-width="0.1" stroke-miterlimit="10"/>
<path d="M22.9998 42.8C22.5998 43.6 21.8998 44.3 21.0998 44.9L20.7998 44.6C21.5998 44 22.1998 43.4 22.5998 42.6L22.8998 42.8H22.9998ZM26.8998 41.9H24.0998V45.2H23.6998V41.9H20.8998V41.5H23.6998V39H24.0998V41.5H26.8998V41.9ZM22.6998 40.9L22.3998 41.1C22.1998 40.7 21.8998 40.2 21.4998 39.7L21.7998 39.5C22.1998 40 22.4998 40.4 22.6998 40.9ZM26.9998 44.5L26.6998 44.8C26.2998 44.1 25.6998 43.4 24.8998 42.8L25.1998 42.6C25.7998 43.1 26.3998 43.8 26.9998 44.6V44.5ZM26.2998 39.6C25.9998 40.2 25.6998 40.7 25.3998 41.1L24.9998 40.9C25.2998 40.6 25.5998 40.1 25.8998 39.4L26.1998 39.6H26.2998Z" fill="#AA8420" stroke="#AA8420" stroke-width="0.1" stroke-miterlimit="10"/>
<path d="M328.7 32.2001C327.7 32.6001 326.8 33.0001 326 33.2001L325.8 32.6C326.5 32.4 327.4 32.1 328.5 31.6L328.7 32.2001ZM328.6 27.8C328.1 28.9 327.5 29.8001 326.9 30.7001C327.2 30.7001 327.7 30.4001 328.3 30.2001L328.5 30.9C327.7 31.2 326.9 31.5001 326.1 31.7001L325.9 31.1C326.4 30.6 326.8 30 327.2 29.3C326.8 29.3 326.5 29.5 326.1 29.5L325.9 28.9C326.4 28.2 326.9 27.4 327.3 26.3L327.9 26.5C327.6 27.3 327.3 28 326.8 28.6C327 28.6 327.3 28.6 327.6 28.4C327.8 28.2 327.9 27.9 328 27.5L328.6 27.8ZM332.9 31.8C332.8 32.8 332.4 33.3 331.9 33.3C331.4 33.3 331.5 33.3 331.3 33C331.1 32.8 330.9 32.6001 330.7 32.2001C330.1 32.6001 329.4 32.9 328.6 33.3L328.2 32.7001C329.1 32.4001 329.8 32 330.4 31.6C330.2 31.1 330.1 30.6 330 30.1L328.6 30.3V29.6L330 29.4C330 29 330 28.7 330 28.5H328.9C328.9 28.6 328.9 28 328.9 28H330C330 27.9 330 26.3 330 26.3H330.7C330.7 26.6 330.7 27.1 330.7 27.8L332.6 27.6V28.2001L330.7 28.5C330.7 28.8 330.7 29.1 330.7 29.4L332.8 29.1V29.8C332.9 29.8 330.7 30.1 330.7 30.1C330.7 30.5 330.8 30.9 330.9 31.3C331.2 31 331.5 30.7001 331.9 30.2001L332.4 30.5C332.1 31 331.6 31.5 331.2 31.9C331.3 32.1 331.5 32.3001 331.6 32.4001C331.7 32.5001 331.8 32.6 331.9 32.6C331.9 32.6 331.9 32.5001 332 32.2001C332 32.0001 332.1 31.8 332.1 31.5L332.7 31.8H332.9ZM332.3 27L331.9 27.5C331.6 27.2 331.3 27 330.9 26.9L331.3 26.4C331.7 26.6 332 26.8 332.3 27.1V27Z" fill="black"/>
<path d="M340.8 33.1H333.8V32.4001H336.7V26.3H337.4V28.7001H340.4V29.4H337.4V32.4001H340.8V33.1Z" fill="black"/>
<path d="M341.7 39.2C341.7 39.5 341.5 39.9 341.4 40.2L341.2 40.7V45.2H340.9V41.4C340.7 41.8 340.5 42.1 340.3 42.3L340 42C340.6 41.3 341 40.3 341.4 39H341.7V39.2ZM346.2 44.6L346 44.9C345.6 44.7 345.1 44.3 344.6 43.8C344.6 44 344.6 44.1 344.6 44.2C344.6 44.5 344.6 44.7 344.5 44.8C344.5 44.9 344.3 45 344.2 45.1C344.1 45.1 343.8 45.1 343.5 45.1C343.2 45.1 343.3 45.1 343.2 45.1V44.8C343.7 44.8 344 44.8 344.1 44.8C344.2 44.8 344.3 44.6 344.3 44.3C344.3 44 344.3 44 344.3 43.8C343.7 44.2 342.9 44.6 341.8 45L341.6 44.7C342.7 44.4 343.6 44 344.2 43.5C344.2 43.5 344.2 43.3 344 43.1C343.4 43.5 342.7 43.9 341.8 44.1L341.6 43.8C342.6 43.5 343.3 43.2 343.9 42.8C343.9 42.7 343.7 42.6 343.6 42.5C343.1 42.8 342.5 43 341.7 43.2L341.5 42.9C342.3 42.8 343 42.5 343.6 42.1H342.2V40.9C342.1 41 341.9 41.1 341.8 41.2L341.6 40.9C342.4 40.3 343 39.8 343.3 39.2L343.6 39.4C343.6 39.5 343.5 39.6 343.4 39.7H345.1V40C344.9 40.2 344.7 40.5 344.5 40.7H345.8V42H344.2C344.1 42.1 344 42.2 343.9 42.3C344.1 42.6 344.3 42.8 344.5 43.2C344.9 43 345.3 42.7 345.8 42.3L346.1 42.5C345.7 42.8 345.3 43.1 344.8 43.4C345.3 44 345.9 44.4 346.4 44.7L346.2 44.6ZM344.6 39.9H343.1C342.8 40.2 342.6 40.4 342.3 40.6H344C344.2 40.3 344.5 40.1 344.6 39.9ZM343.8 41.6V40.9H342.5V41.6H343.8ZM345.4 41.6V40.9H344.1V41.6H345.4Z" fill="#AA8420" stroke="#AA8420" stroke-width="0.1" stroke-miterlimit="10"/>
<path d="M353.1 41.5H350.2C349.7 41.9 349.2 42.1 348.7 42.3H349.8C350.5 42.3 350.9 42.3 350.9 42.3C351.2 42.2 351.4 42 351.8 41.8L352.1 42C350.9 42.7 349.8 43.2 348.6 43.5C349.8 43.5 351 43.5 352.1 43.3C351.9 43.1 351.8 43 351.6 42.8L351.9 42.6C352.4 43 352.8 43.5 353.1 43.9L352.8 44.1C352.6 43.9 352.5 43.7 352.4 43.6C351.7 43.6 351 43.7 350.3 43.7V44.7C350.3 44.9 350.3 45 350.1 45.1C350 45.1 349.8 45.2 349.4 45.2C349 45.2 349.2 45.2 349.2 45.2V44.8C349.2 44.8 349.4 44.8 349.5 44.8C349.7 44.8 349.8 44.8 349.8 44.8C349.8 44.8 349.8 44.8 349.8 44.7V43.7C349.2 43.7 348.4 43.7 347.4 43.7V43.4C348.3 43.2 349.2 42.9 350.1 42.5C349.6 42.5 349 42.5 348.4 42.5C347.8 42.5 348 42.5 347.9 42.5V42.2C348.4 42 349 41.7 349.5 41.4H346.9V41.1H349.8V40.5H347.6V40.2H349.8V39.7H347.2V39.4H349.8V39H350.2V39.4H352.7V39.7H350.2V40.2H352.3V40.5H350.2V41.1H353V41.4L353.1 41.5ZM349.2 44.2C348.8 44.5 348.2 44.9 347.4 45.2L347.2 44.9C347.9 44.6 348.5 44.3 349 44L349.3 44.3L349.2 44.2ZM353 44.9L352.8 45.2C352.3 44.8 351.7 44.5 351 44.2L351.2 43.9C351.9 44.2 352.5 44.5 353 44.9Z" fill="#AA8420" stroke="#AA8420" stroke-width="0.1" stroke-miterlimit="10"/>
</svg>
