<svg width="266" height="62" viewBox="0 0 266 62" fill="none" xmlns="http://www.w3.org/2000/svg">
<g clip-path="url(#clip0_85_4426)">
<path d="M93.2998 12.7C93.5998 12.3 93.6998 11.7 93.6998 11.7H76.2998C76.2998 11.7 76.4998 12.4 76.6998 12.7H93.2998Z" fill="#AA8420"/>
<path d="M92.2996 14.1C92.5996 13.8 92.9996 13.2 92.9996 13.2H77.0996C77.0996 13.2 77.2996 13.6 77.6996 14.1H92.3996H92.2996Z" fill="#AA8420"/>
<path d="M91.1002 15.4999C91.5002 15.2999 91.8002 14.8999 91.8002 14.8999H78.2002C78.2002 14.8999 78.5002 15.2999 78.9002 15.4999H91.1002Z" fill="#AA8420"/>
<path d="M89.5002 16.7C89.9002 16.6 90.3002 16.2 90.3002 16.2H79.7002C79.7002 16.2 79.7002 16.2 80.5002 16.7H89.5002Z" fill="#AA8420"/>
<path d="M81.5996 17.5C81.5996 17.5 82.6996 18.1 84.8996 18.1C87.0996 18.1 88.4996 17.5 88.4996 17.5H81.5996Z" fill="#AA8420"/>
<path d="M81.4998 19C81.4998 19 82.7998 19 83.5998 19.7C84.3998 20.3 84.8998 21.4 84.8998 21.4C84.8998 21.4 85.3998 20.4 86.0998 19.8C86.8998 19.2 88.0998 19 88.0998 19H101.8L104.5 23H92.1998C92.1998 23 91.2998 23 89.9998 23.8C89.2998 24.2 88.7998 24.9 88.7998 24.9C88.7998 24.9 88.7998 25.2 88.5998 25.4C88.4998 25.6 88.2998 25.7 88.1998 25.8C87.9998 25.8 88.0998 25.8 88.0998 25.8H81.6998C81.6998 25.8 81.3998 25.7 81.2998 25.5C81.1998 25.3 81.2998 25.4 81.0998 25.2C80.9998 25 80.6998 24.6 79.7998 23.9C78.7998 23.2 77.7998 23.2 77.7998 23.2H65.2998L67.9998 19.1H81.4998V19Z" fill="#003477"/>
<path d="M71.7998 24.7V45.2C71.7998 45.2 71.7998 47 73.3998 49.4C74.8998 51.9 77.0998 53 77.0998 53L78.7998 50.2999C78.7998 50.2999 77.2998 49.4 76.0998 47.7C74.9998 46 74.9998 44.5 74.9998 44.5V24.7999H71.7998V24.7Z" fill="#003477"/>
<path d="M94.9998 24.6001V44.3001C94.9998 44.3001 94.7998 46.3001 93.7998 47.7001C92.8998 49.1001 91.2998 50.3001 91.2998 50.3001L92.9998 53.0001C92.9998 53.0001 95.4998 51.2001 96.6998 49.2001C97.8998 47.2001 98.1998 44.3001 98.1998 44.3001V24.6001H94.9998Z" fill="#003477"/>
<path d="M66.5996 24.7V45.2C66.5996 45.2 66.7996 48.4 68.7996 51.7C70.7996 55 74.3996 57.2999 74.3996 57.2999L76.0996 54.5999C76.0996 54.5999 73.7996 53.3999 71.9996 50.5999C70.0996 47.7999 69.9996 45.2 69.9996 45.2V24.7H66.5996Z" fill="#003477"/>
<path d="M81.5 26.8V48.5C81.5 48.5 81.5 48.5001 81.4 48.9001C81.4 49.2001 81.2 49.4001 81.2 49.4001L74 61.4001H96.2L89 49.2001L88.8 48.7001V48.1V26.9H86.1V48.9001C86.1 48.9001 86.1 49.2 86.2 49.5C86.2 49.8 86.4 50.2001 86.4 50.2001L90.9 57.5H79.6L84 50.2001C84 50.2001 84.1 50 84.2 49.6C84.2 49.3 84.3 49 84.3 49V27H81.7L81.5 26.8Z" fill="#AA8420"/>
<path d="M100 24.6V44.8C100 44.8 100 47.4 98.1 50.4C96.2 53.4 94 54.6 94 54.6L95.6 57.3C95.6 57.3 98.9 55.2 101 51.9C103.1 48.6 103.3 44.7 103.3 44.7V24.5H100V24.6Z" fill="#003477"/>
<path d="M76.2003 11.1001C76.2003 11.1001 75.1003 5.0001 79.5003 2.0001C79.5003 2.0001 81.5004 0.100098 84.8004 0.100098C88.1004 0.100098 90.3004 1.9001 90.3004 1.9001C95.2004 5.5001 93.7003 11.0001 93.7003 11.0001H76.1003L76.2003 11.1001Z" fill="#AA8420"/>
<path d="M130 24.7V23.1H122.1V21.5C124.6 21.3 126.8 21 128.5 20.7L127.7 19.2C125.1 19.8 121.3 20.1 116.3 20.1C111.3 20.1 114.4 20.1 113.6 20.1L114.2 21.7999C115.4 21.7999 117.5 21.8 120.3 21.7V23.2H112.6V24.7999H118.4C116.7 26.1999 114.7 27.1999 112.4 27.7999L113.3 29.5C114.1 29.3 114.6 29 114.9 28.9V37H116.7V36.0999H126V37H127.8V28.7999C128 28.8999 128.3 29 128.6 29.1C128.9 29.1 129.2 29.3 129.4 29.4L130.2 27.7C127.5 27.2 125.4 26.1999 124 24.7999H130.1L130 24.7ZM116 28.2C117.8 27.4 119.2 26.3 120.3 24.7V28.2H116ZM125.9 34.4H116.6V32.7H125.9V34.4ZM125.9 31.2H116.6V29.7999H125.9V31.2ZM126.7 28.2H122.1V24.7C123.3 26.3 124.8 27.4 126.7 28.2Z" fill="#003477"/>
<path d="M139.6 26.3C138.6 25.6 137.7 24.9 136.8 24.5L135.7 25.9C136.4 26.4 137.3 27.1 138.3 27.9L139.6 26.3Z" fill="#003477"/>
<path d="M150.6 34.0001C150.5 34.4001 150.2 34.6001 149.7 34.6001H144.1C143.7 34.6001 143.4 34.4001 143.4 33.9001V32.7001H149.5V28.8001C150.3 29.5001 151.2 30.2001 152.4 30.8001L153.2 29.1001C151.2 28.1001 149.9 27.1001 149.4 26.1001H153V24.5001H149.6V22.6001H152.7V21.1001H149.6V19.1001H147.9V21.1001H144.5V19.1001H142.8V21.1001H140.3V21.3001C139.6 20.7001 138.7 20.1001 137.6 19.4001L136.4 20.8001C137.2 21.3001 138.2 22.1001 139.2 23.0001L140.4 21.6001V22.6001H142.9V24.5001H140V26.1001H143C142.4 27.3001 141.1 28.3001 139.1 29.3001L140.2 30.9001C141 30.4001 141.6 30.0001 141.9 29.7001V33.9001C141.9 34.7001 142.1 35.3001 142.4 35.7001C142.7 36.0001 143.3 36.2001 144.1 36.2001H150.2C151.2 36.2001 151.8 36.0001 152.1 35.7001C152.4 35.4001 152.7 34.3001 152.9 32.6001L151.1 31.9001C151.1 32.9001 150.9 33.6001 150.8 34.0001H150.6ZM144.4 22.8001H147.8V24.6001H144.4V22.8001ZM144.9 26.2001H147.4C147.8 26.9001 148.1 27.4001 148.5 27.9001H143.7C144.2 27.4001 144.5 26.9001 144.8 26.2001H144.9ZM143.4 29.4001H147.7V31.3001H143.4V29.4001Z" fill="#003477"/>
<path d="M139.5 31L137.9 30C137.5 31.8 136.8 33.5 135.6 35L137.1 36.5C138.2 34.8 139 32.9 139.5 30.9V31Z" fill="#003477"/>
<path d="M171.9 27.3C170.5 26.3 169.4 25.5 168.4 25L167.3 26.3C168.3 26.9 169.4 27.7 170.7 28.8L171.9 27.3Z" fill="#003477"/>
<path d="M172.2 22.8C170.7 21.7 169.6 20.9 168.8 20.5L167.7 21.7C168.6 22.2 169.7 23.1 171.1 24.2L172.3 22.8H172.2Z" fill="#003477"/>
<path d="M164 26V25.8H166.9V24.2001H164V21.6C165 21.4 165.9 21.1 166.8 20.8L166.2 19.3C164.2 20.1 161.8 20.5001 159 20.7001L159.4 22.3C160.7 22.3 161.6 22.1 162.3 22V24.4H158.8V26H162.2C161.4 28.1 160.2 30 158.6 31.8L159.7 33.5C160.9 31.9 161.8 30.5 162.3 29.3V37H164V28.2001C164.3 28.6001 164.7 29.1 165 29.5C165.4 29.9 165.8 30.4 166.1 30.9L167.2 29.3C166.5 28.5 165.4 27.5001 164 26.2001V26Z" fill="#003477"/>
<path d="M172.9 36.8001H174.7V31.4001L176.4 31.1001V29.4001L174.7 29.7001V19.1001H172.9V29.9001L166.6 30.8001V32.6001L172.9 31.6001V36.8001Z" fill="#003477"/>
<path d="M191.1 25.8001C192.4 30.8001 194.7 34.5001 198.1 36.7001L199.6 35.0001C197.7 33.8001 196.3 32.3001 195.2 30.6001C194.1 28.9001 193.5 27.3001 193.2 25.8001H199.2V23.8001H191.2C191.3 22.8001 191.4 21.2001 191.4 19.1001H189.4C189.4 21.1001 189.4 22.7001 189.2 23.8001H182.4V25.8001H188.9C188.6 27.6001 187.8 29.3001 186.6 30.9001C185.3 32.6001 183.8 33.9001 182 34.9001L183.4 36.7001C187.6 33.9001 190.1 30.3001 191 25.7001H191.3L191.1 25.8001Z" fill="#003477"/>
<path d="M124.7 47.7001H116.4V41.3H114.2V57.2001H116.4V49.6H124.7V57.2001H126.9V41.3H124.7V47.7001Z" fill="#003477"/>
<path d="M147.2 41.3H144.4L137 48.2001V41.3H134.8V57.2001H137V50.6L137.9 49.8L144.5 57.2001H147.5L139.5 48.5L147.3 41.4001L147.2 41.3Z" fill="#003477"/>
<path d="M163.7 50.7001C163.7 53.3001 162.8 55.7001 159.5 55.7001C156.2 55.7001 155.3 53.3001 155.3 50.7001V41.3H153.1V51.3C153.1 54.8 155.5 57.5 159.5 57.5C163.5 57.5 165.9 54.8 165.9 51.3V41.3H163.7V50.7001Z" fill="#003477"/>
<path d="M179.4 47.8001L178.2 47.4001C177.1 47.0001 175.8 46.4001 175.8 45.1001C175.8 43.8001 177.3 42.9001 178.7 42.9001C180.1 42.9001 180.9 43.4001 181.5 44.4001L183.2 43.5001C182.2 42.0001 180.6 41.1001 178.7 41.1001C176.8 41.1001 173.6 42.6001 173.6 45.2001C173.6 47.8001 175.4 48.4001 177.4 49.2001L178.6 49.7001C180.1 50.3001 181.6 51.0001 181.6 52.7001C181.6 54.4001 180.3 55.8001 178.4 55.8001C176.5 55.8001 175 54.5001 175 52.8001L172.8 53.2001C173.2 55.8001 175.4 57.7001 178.2 57.7001C181 57.7001 183.8 55.6001 183.8 52.7001C183.8 49.8001 181.9 48.8001 179.5 47.9001L179.4 47.8001Z" fill="#003477"/>
<path d="M189.2 41.3V43.1H193.3V57.2001H195.5V43.1H199.6V41.3H189.1H189.2Z" fill="#003477"/>
<path d="M54.8996 61.4001H47.5996V0.100098H54.8996V0.400098H47.7996V61.2001H54.8996V61.4001Z" fill="#231815"/>
<path d="M216.6 61.4001H209.3V61.2001H216.4V0.400098H209.3V0.100098H216.6V61.4001Z" fill="#231815"/>
<path d="M14.8 38.4001C15.1 38.7001 15.2 39.1 15.2 39.5C15.2 39.9 15 40.6001 14.5 40.9001C14 41.2001 13.4 41.4001 12.6 41.4001C11.8 41.4001 11.2 41.2001 10.7 40.9001C10.2 40.5001 10 40.1 10 39.5C10 38.9 10.1 38.7001 10.4 38.4001C10.7 38.1001 11 37.9 11.5 37.8C11.1 37.7 10.7 37.5001 10.5 37.2001C10.3 36.9001 10.2 36.6001 10.2 36.2001C10.2 35.8001 10.2 35.5001 10.5 35.2001C10.7 34.9001 11 34.7 11.3 34.5C11.6 34.3 12.1 34.3 12.5 34.3C12.9 34.3 13.4 34.3 13.7 34.5C14.1 34.7 14.3 34.9001 14.5 35.2001C14.7 35.5001 14.8 35.8001 14.8 36.2001C14.8 36.6001 14.7 36.9001 14.5 37.2001C14.3 37.5001 13.9 37.7 13.5 37.8C14 37.9 14.3 38.1 14.6 38.5L14.8 38.4001ZM14 40.5C14.3 40.3 14.4 39.9 14.4 39.5C14.4 39.1 14.2 38.8 13.9 38.6C13.6 38.4 13.2 38.2001 12.6 38.2001C12.1 38.2001 11.7 38.4 11.3 38.6C11 38.8 10.8 39.1 10.8 39.5C10.8 39.9 11 40.3 11.2 40.5C11.5 40.7 11.9 40.8 12.5 40.8C13.1 40.8 13.5 40.7 13.8 40.5H14ZM11.5 37.1C11.8 37.3 12.2 37.5 12.6 37.5C13.1 37.5 13.5 37.3 13.7 37.1C14 36.9 14.1 36.6001 14.1 36.2001C14.1 35.8001 14 35.5 13.7 35.3C13.4 35.1 13 35 12.6 35C12.2 35 11.7 35.1 11.4 35.3C11.1 35.5 11 35.8001 11 36.2001C11 36.6001 11.1 36.9 11.4 37.1H11.5Z" fill="#AA8420"/>
<path d="M233.5 39.8999H232.4V41.3999H231.6V39.8999H228.3V39.2999L231.7 34.3999H232.4V39.2999H233.5V39.9999V39.8999ZM231.6 39.1999V35.6999L229.2 39.1999H231.6Z" fill="#AA8420"/>
<path d="M235 40.6C234.6 40 234.4 39.1001 234.4 37.9001C234.4 36.7001 234.6 35.8001 235 35.2001C235.4 34.6001 236 34.3 236.9 34.3C237.8 34.3 238.3 34.6001 238.8 35.2001C239.2 35.8001 239.4 36.7001 239.4 37.9001C239.4 39.1001 239.2 40 238.8 40.6C238.4 41.2 237.8 41.5 236.9 41.5C236 41.5 235.5 41.2 235 40.6ZM238.1 40.1C238.4 39.6 238.5 38.9001 238.5 37.9001C238.5 36.9001 238.4 36.1001 238.1 35.7001C237.8 35.2001 237.4 35 236.8 35C236.2 35 235.8 35.2001 235.6 35.7001C235.3 36.2001 235.2 36.9001 235.2 37.9001C235.2 38.9001 235.3 39.7 235.6 40.1C235.9 40.6 236.3 40.8 236.8 40.8C237.3 40.8 237.8 40.6 238 40.1H238.1Z" fill="#AA8420"/>
<path d="M13.3004 21.89H16.4604V22.62H13.3004V21.89ZM13.3004 25.05H16.5104V25.77H13.3004V25.05ZM20.3604 19.1H21.1204V25.07C21.1204 25.2834 21.0904 25.46 21.0304 25.6C20.9771 25.7334 20.8704 25.8334 20.7104 25.9C20.5504 25.9667 20.3371 26.01 20.0704 26.03C19.8104 26.05 19.4937 26.06 19.1204 26.06C19.1071 25.98 19.0837 25.8934 19.0504 25.8C19.0237 25.7 18.9904 25.6034 18.9504 25.51C18.9104 25.41 18.8704 25.3234 18.8304 25.25C19.1304 25.2567 19.4037 25.2634 19.6504 25.27C19.9037 25.27 20.0737 25.27 20.1604 25.27C20.2404 25.2634 20.2937 25.2467 20.3204 25.22C20.3471 25.1934 20.3604 25.14 20.3604 25.06V19.1ZM12.9304 19.3L13.6804 19.58V26.63H12.9304V19.3ZM15.9904 18.42L16.6304 19.04C16.3304 19.18 15.9971 19.32 15.6304 19.46C15.2704 19.5934 14.8971 19.72 14.5104 19.84C14.1237 19.96 13.7471 20.0734 13.3804 20.18C13.3604 20.0867 13.3237 19.98 13.2704 19.86C13.2237 19.74 13.1737 19.6367 13.1204 19.55C13.4604 19.45 13.8071 19.3367 14.1604 19.21C14.5204 19.0834 14.8571 18.95 15.1704 18.81C15.4904 18.67 15.7637 18.54 15.9904 18.42ZM17.1304 19.1H20.7804V19.85H17.8904V27.56H17.1304V19.1ZM28.3704 19.44H29.0804V25.07H28.3704V19.44ZM30.3704 18.59H31.1004V26.6C31.1004 26.8467 31.0671 27.03 31.0004 27.15C30.9337 27.2767 30.8271 27.3734 30.6804 27.44C30.5271 27.5 30.3137 27.54 30.0404 27.56C29.7737 27.58 29.4537 27.59 29.0804 27.59C29.0604 27.4834 29.0271 27.3534 28.9804 27.2C28.9337 27.0534 28.8837 26.9234 28.8304 26.81C29.1237 26.8167 29.3971 26.82 29.6504 26.82C29.9037 26.82 30.0737 26.82 30.1604 26.82C30.2404 26.8134 30.2937 26.7967 30.3204 26.77C30.3537 26.7434 30.3704 26.6867 30.3704 26.6V18.59ZM25.3604 21.55H26.0104V27.58H25.3604V21.55ZM27.0504 22.63H27.6804V25.7C27.6804 25.8534 27.6637 25.98 27.6304 26.08C27.5971 26.1734 27.5271 26.2467 27.4204 26.3C27.3137 26.36 27.1771 26.3967 27.0104 26.41C26.8504 26.4234 26.6504 26.43 26.4104 26.43C26.4037 26.3367 26.3804 26.2334 26.3404 26.12C26.3004 26 26.2537 25.8967 26.2004 25.81C26.3804 25.8167 26.5337 25.82 26.6604 25.82C26.7937 25.82 26.8837 25.82 26.9304 25.82C26.9837 25.8134 27.0171 25.8034 27.0304 25.79C27.0437 25.77 27.0504 25.7367 27.0504 25.69V22.63ZM22.9604 18.97H23.6404V22.35C23.6404 22.7234 23.6304 23.13 23.6104 23.57C23.5904 24.0034 23.5504 24.4467 23.4904 24.9C23.4304 25.3534 23.3404 25.7967 23.2204 26.23C23.1071 26.6567 22.9537 27.05 22.7604 27.41C22.7271 27.3634 22.6737 27.31 22.6004 27.25C22.5337 27.1967 22.4637 27.1434 22.3904 27.09C22.3171 27.0434 22.2504 27.0067 22.1904 26.98C22.3704 26.6467 22.5104 26.2867 22.6104 25.9C22.7171 25.5067 22.7937 25.1034 22.8404 24.69C22.8937 24.2767 22.9271 23.87 22.9404 23.47C22.9537 23.07 22.9604 22.6967 22.9604 22.35V18.97ZM23.3304 18.97H27.6404V21.6H23.3304V20.92H26.9304V19.65H23.3304V18.97ZM23.8204 22.63H27.3704V23.27H24.4004V26.5H23.8204V22.63Z" fill="black"/>
<path d="M19.354 35.952H24.664V36.288H19.354V35.952ZM21.748 35.454H22.222V36.168H21.748V35.454ZM19.474 40.026L24.4 39.702L24.43 40.008L19.504 40.338L19.474 40.026ZM19.762 39.348L24.046 39.066L24.076 39.354L19.792 39.642L19.762 39.348ZM23.302 38.34L23.566 38.592C23.354 38.648 23.114 38.7 22.846 38.748C22.578 38.792 22.296 38.832 22 38.868C21.704 38.9 21.402 38.93 21.094 38.958C20.79 38.982 20.494 39.002 20.206 39.018C20.202 38.978 20.19 38.932 20.17 38.88C20.154 38.828 20.138 38.786 20.122 38.754C20.398 38.738 20.686 38.716 20.986 38.688C21.286 38.66 21.58 38.63 21.868 38.598C22.156 38.562 22.422 38.522 22.666 38.478C22.914 38.434 23.126 38.388 23.302 38.34ZM21.586 38.766H22.03V40.386C22.03 40.486 22.06 40.55 22.12 40.578C22.18 40.61 22.312 40.626 22.516 40.626C22.552 40.626 22.616 40.626 22.708 40.626C22.8 40.626 22.906 40.626 23.026 40.626C23.146 40.626 23.266 40.626 23.386 40.626C23.51 40.626 23.622 40.626 23.722 40.626C23.826 40.626 23.904 40.626 23.956 40.626C24.052 40.626 24.126 40.614 24.178 40.59C24.23 40.566 24.266 40.52 24.286 40.452C24.31 40.38 24.326 40.276 24.334 40.14C24.382 40.172 24.442 40.2 24.514 40.224C24.59 40.244 24.658 40.26 24.718 40.272C24.698 40.452 24.664 40.592 24.616 40.692C24.572 40.792 24.502 40.86 24.406 40.896C24.31 40.936 24.172 40.956 23.992 40.956C23.96 40.956 23.894 40.956 23.794 40.956C23.694 40.956 23.576 40.956 23.44 40.956C23.308 40.956 23.174 40.956 23.038 40.956C22.906 40.956 22.79 40.956 22.69 40.956C22.59 40.956 22.524 40.956 22.492 40.956C22.256 40.956 22.072 40.94 21.94 40.908C21.812 40.88 21.72 40.824 21.664 40.74C21.612 40.66 21.586 40.542 21.586 40.386V38.766ZM19.438 37.974H24.58V38.928H24.166V38.304H19.84V38.964H19.438V37.974ZM20.608 36.9V37.374H23.422V36.9H20.608ZM20.164 36.612H23.896V37.662H20.164V36.612ZM25.348 37.77H30.646V38.22H25.348V37.77ZM27.754 35.466H28.228V40.98H27.754V35.466ZM29.878 35.754L30.364 35.952C30.268 36.12 30.164 36.296 30.052 36.48C29.94 36.664 29.826 36.84 29.71 37.008C29.594 37.176 29.486 37.322 29.386 37.446L29.002 37.266C29.102 37.134 29.206 36.98 29.314 36.804C29.422 36.628 29.526 36.448 29.626 36.264C29.726 36.08 29.81 35.91 29.878 35.754ZM25.696 35.982L26.104 35.808C26.224 35.948 26.34 36.102 26.452 36.27C26.564 36.438 26.664 36.604 26.752 36.768C26.844 36.932 26.914 37.078 26.962 37.206L26.518 37.404C26.478 37.276 26.414 37.13 26.326 36.966C26.242 36.802 26.144 36.634 26.032 36.462C25.924 36.29 25.812 36.13 25.696 35.982ZM27.532 37.992L27.922 38.148C27.786 38.404 27.626 38.656 27.442 38.904C27.262 39.152 27.066 39.388 26.854 39.612C26.646 39.836 26.43 40.04 26.206 40.224C25.986 40.408 25.766 40.568 25.546 40.704C25.518 40.668 25.484 40.626 25.444 40.578C25.408 40.53 25.368 40.484 25.324 40.44C25.284 40.396 25.246 40.358 25.21 40.326C25.43 40.21 25.65 40.068 25.87 39.9C26.09 39.728 26.302 39.538 26.506 39.33C26.714 39.122 26.906 38.906 27.082 38.682C27.258 38.454 27.408 38.224 27.532 37.992ZM28.432 37.968C28.56 38.192 28.714 38.416 28.894 38.64C29.074 38.864 29.27 39.078 29.482 39.282C29.694 39.486 29.912 39.672 30.136 39.84C30.364 40.008 30.588 40.15 30.808 40.266C30.768 40.294 30.726 40.332 30.682 40.38C30.642 40.424 30.602 40.47 30.562 40.518C30.522 40.566 30.49 40.61 30.466 40.65C30.242 40.518 30.016 40.36 29.788 40.176C29.564 39.988 29.346 39.784 29.134 39.564C28.922 39.34 28.722 39.108 28.534 38.868C28.35 38.624 28.188 38.378 28.048 38.13L28.432 37.968Z" fill="#AA8420"/>
<path d="M237.231 23.4L237.841 23.84C237.567 24.0867 237.274 24.34 236.961 24.6C236.647 24.8534 236.357 25.0667 236.091 25.24L235.631 24.89C235.804 24.7567 235.987 24.6034 236.181 24.43C236.381 24.2567 236.574 24.08 236.761 23.9C236.947 23.72 237.104 23.5534 237.231 23.4ZM234.751 18.39L235.581 18.55C235.467 18.79 235.344 19.03 235.211 19.27C235.077 19.5034 234.954 19.7067 234.841 19.88L234.211 19.72C234.304 19.5334 234.404 19.3134 234.511 19.06C234.617 18.8067 234.697 18.5834 234.751 18.39ZM233.391 21.48V22.35H236.761V21.48H233.391ZM233.391 20.04V20.91H236.761V20.04H233.391ZM232.701 19.43H237.481V22.97H232.701V19.43ZM234.721 22.64H235.401V26.79C235.401 26.9834 235.377 27.13 235.331 27.23C235.291 27.3367 235.207 27.42 235.081 27.48C234.954 27.5334 234.787 27.5634 234.581 27.57C234.374 27.5834 234.114 27.59 233.801 27.59C233.787 27.4967 233.761 27.3867 233.721 27.26C233.681 27.14 233.637 27.03 233.591 26.93C233.817 26.9367 234.021 26.94 234.201 26.94C234.381 26.94 234.501 26.94 234.561 26.94C234.627 26.9334 234.671 26.92 234.691 26.9C234.711 26.88 234.721 26.8434 234.721 26.79V22.64ZM232.321 23.83H233.991V24.47H232.321V23.83ZM233.821 23.83H233.961L234.081 23.81L234.491 23.98C234.317 24.78 234.041 25.4434 233.661 25.97C233.287 26.4967 232.851 26.9034 232.351 27.19C232.324 27.1367 232.281 27.0767 232.221 27.01C232.167 26.9434 232.107 26.88 232.041 26.82C231.981 26.76 231.927 26.7134 231.881 26.68C232.347 26.4267 232.751 26.0734 233.091 25.62C233.431 25.1667 233.674 24.61 233.821 23.95V23.83ZM235.321 22.69C235.387 23.0434 235.487 23.4067 235.621 23.78C235.754 24.1534 235.927 24.5167 236.141 24.87C236.354 25.2234 236.617 25.55 236.931 25.85C237.251 26.1434 237.627 26.3867 238.061 26.58C238.014 26.6267 237.961 26.6867 237.901 26.76C237.847 26.8267 237.794 26.8967 237.741 26.97C237.687 27.05 237.641 27.1234 237.601 27.19C237.174 26.97 236.804 26.7 236.491 26.38C236.184 26.06 235.924 25.7167 235.711 25.35C235.504 24.9767 235.334 24.6067 235.201 24.24C235.074 23.8667 234.974 23.5167 234.901 23.19L235.321 22.69ZM230.261 18.4L230.921 18.65C230.801 18.8967 230.667 19.1534 230.521 19.42C230.381 19.6867 230.237 19.9467 230.091 20.2C229.951 20.4467 229.817 20.6634 229.691 20.85L229.171 20.62C229.297 20.4267 229.427 20.2 229.561 19.94C229.701 19.68 229.831 19.4134 229.951 19.14C230.077 18.8667 230.181 18.62 230.261 18.4ZM231.381 19.54L232.011 19.84C231.784 20.2067 231.531 20.6 231.251 21.02C230.971 21.4334 230.687 21.8334 230.401 22.22C230.121 22.6067 229.854 22.9434 229.601 23.23L229.141 22.97C229.327 22.75 229.524 22.5 229.731 22.22C229.937 21.9334 230.141 21.6367 230.341 21.33C230.541 21.0167 230.731 20.7067 230.911 20.4C231.091 20.0934 231.247 19.8067 231.381 19.54ZM228.671 20.49L229.061 20.01C229.241 20.17 229.421 20.3467 229.601 20.54C229.787 20.7334 229.957 20.9234 230.111 21.11C230.264 21.2967 230.384 21.4667 230.471 21.62L230.051 22.18C229.964 22.02 229.844 21.84 229.691 21.64C229.544 21.44 229.381 21.24 229.201 21.04C229.021 20.84 228.844 20.6567 228.671 20.49ZM230.991 21.83L231.541 21.61C231.681 21.8234 231.814 22.0567 231.941 22.31C232.067 22.5634 232.181 22.81 232.281 23.05C232.387 23.2834 232.464 23.49 232.511 23.67L231.911 23.95C231.871 23.7567 231.801 23.54 231.701 23.3C231.607 23.0534 231.501 22.8034 231.381 22.55C231.261 22.29 231.131 22.05 230.991 21.83ZM228.581 22.82C229.014 22.8 229.527 22.7767 230.121 22.75C230.721 22.7167 231.334 22.6834 231.961 22.65V23.28C231.374 23.32 230.791 23.36 230.211 23.4C229.637 23.4334 229.124 23.4634 228.671 23.49L228.581 22.82ZM231.261 24.25L231.811 24.09C231.937 24.37 232.047 24.6767 232.141 25.01C232.241 25.3434 232.307 25.6334 232.341 25.88L231.751 26.06C231.731 25.8134 231.674 25.5234 231.581 25.19C231.487 24.85 231.381 24.5367 231.261 24.25ZM229.191 24.12L229.821 24.22C229.754 24.6934 229.661 25.16 229.541 25.62C229.427 26.0734 229.294 26.46 229.141 26.78C229.101 26.7534 229.044 26.7234 228.971 26.69C228.897 26.65 228.824 26.6134 228.751 26.58C228.677 26.5467 228.614 26.52 228.561 26.5C228.727 26.1934 228.861 25.83 228.961 25.41C229.061 24.9834 229.137 24.5534 229.191 24.12ZM230.251 23.12H230.911V27.6H230.251V23.12ZM243.001 21.64H247.111V22.39H243.001V21.64ZM238.811 26.37H247.801V27.12H238.811V26.37ZM242.571 18.55H243.361V26.77H242.571V18.55Z" fill="black"/>
<path d="M245.826 35.966L246.264 36.044C246.108 36.328 245.912 36.616 245.676 36.908C245.444 37.2 245.168 37.472 244.848 37.724C244.808 37.676 244.756 37.628 244.692 37.58C244.628 37.528 244.568 37.488 244.512 37.46C244.72 37.316 244.908 37.158 245.076 36.986C245.244 36.814 245.39 36.642 245.514 36.47C245.642 36.294 245.746 36.126 245.826 35.966ZM245.862 36.344H247.308V36.698H245.58L245.862 36.344ZM245.436 37.472V38.156H248.1V37.472H245.436ZM245.022 37.142H248.532V38.486H245.022V37.142ZM246.54 37.28H246.948V38.3H246.54V37.28ZM246.558 38.186L246.912 38.33C246.748 38.482 246.554 38.628 246.33 38.768C246.11 38.908 245.876 39.036 245.628 39.152C245.384 39.268 245.146 39.368 244.914 39.452C244.898 39.424 244.874 39.39 244.842 39.35C244.81 39.31 244.776 39.272 244.74 39.236C244.708 39.196 244.678 39.164 244.65 39.14C244.882 39.068 245.116 38.984 245.352 38.888C245.592 38.792 245.816 38.684 246.024 38.564C246.236 38.444 246.414 38.318 246.558 38.186ZM245.928 38.828L246.228 38.642C246.456 38.806 246.64 38.99 246.78 39.194C246.924 39.398 247.03 39.608 247.098 39.824C247.166 40.036 247.202 40.24 247.206 40.436C247.21 40.628 247.184 40.8 247.128 40.952C247.072 41.104 246.992 41.218 246.888 41.294C246.8 41.366 246.712 41.414 246.624 41.438C246.536 41.466 246.432 41.482 246.312 41.486C246.248 41.486 246.174 41.484 246.09 41.48C246.01 41.476 245.928 41.472 245.844 41.468C245.84 41.416 245.83 41.352 245.814 41.276C245.798 41.204 245.772 41.138 245.736 41.078C245.832 41.09 245.922 41.098 246.006 41.102C246.094 41.106 246.166 41.108 246.222 41.108C246.298 41.108 246.364 41.102 246.42 41.09C246.48 41.078 246.536 41.05 246.588 41.006C246.68 40.938 246.742 40.824 246.774 40.664C246.81 40.5 246.808 40.312 246.768 40.1C246.728 39.884 246.64 39.666 246.504 39.446C246.368 39.222 246.176 39.016 245.928 38.828ZM246.468 39.068L246.738 39.254C246.602 39.382 246.43 39.512 246.222 39.644C246.018 39.776 245.804 39.9 245.58 40.016C245.356 40.128 245.142 40.222 244.938 40.298C244.91 40.254 244.874 40.202 244.83 40.142C244.79 40.082 244.748 40.032 244.704 39.992C244.904 39.932 245.116 39.852 245.34 39.752C245.564 39.652 245.776 39.542 245.976 39.422C246.18 39.302 246.344 39.184 246.468 39.068ZM246.78 39.716L247.08 39.926C246.912 40.102 246.702 40.28 246.45 40.46C246.198 40.636 245.932 40.8 245.652 40.952C245.372 41.104 245.102 41.228 244.842 41.324C244.814 41.272 244.776 41.214 244.728 41.15C244.684 41.086 244.638 41.034 244.59 40.994C244.782 40.93 244.982 40.852 245.19 40.76C245.398 40.668 245.6 40.564 245.796 40.448C245.996 40.332 246.18 40.212 246.348 40.088C246.52 39.964 246.664 39.84 246.78 39.716ZM248.394 38.666L248.712 38.936C248.556 39.072 248.382 39.21 248.19 39.35C247.998 39.486 247.822 39.602 247.662 39.698L247.398 39.458C247.502 39.39 247.614 39.31 247.734 39.218C247.858 39.126 247.978 39.032 248.094 38.936C248.21 38.84 248.31 38.75 248.394 38.666ZM247.224 38.252C247.308 38.632 247.422 38.994 247.566 39.338C247.71 39.678 247.886 39.98 248.094 40.244C248.306 40.504 248.544 40.71 248.808 40.862C248.776 40.89 248.74 40.926 248.7 40.97C248.66 41.01 248.622 41.052 248.586 41.096C248.554 41.14 248.526 41.182 248.502 41.222C248.226 41.042 247.98 40.806 247.764 40.514C247.548 40.222 247.366 39.89 247.218 39.518C247.07 39.146 246.948 38.75 246.852 38.33L247.224 38.252ZM247.164 36.344H247.26L247.344 36.32L247.62 36.512C247.524 36.676 247.41 36.844 247.278 37.016C247.15 37.184 247.028 37.326 246.912 37.442C246.88 37.402 246.838 37.356 246.786 37.304C246.734 37.252 246.69 37.212 246.654 37.184C246.75 37.08 246.846 36.958 246.942 36.818C247.038 36.674 247.112 36.542 247.164 36.422V36.344ZM244.398 35.99L244.812 36.104C244.7 36.452 244.566 36.796 244.41 37.136C244.258 37.476 244.092 37.798 243.912 38.102C243.732 38.402 243.542 38.668 243.342 38.9C243.33 38.864 243.31 38.818 243.282 38.762C243.254 38.702 243.224 38.644 243.192 38.588C243.16 38.528 243.132 38.48 243.108 38.444C243.284 38.24 243.452 38.008 243.612 37.748C243.772 37.484 243.918 37.202 244.05 36.902C244.186 36.602 244.302 36.298 244.398 35.99ZM243.912 37.46L244.332 37.046L244.344 37.058V41.48H243.912V37.46ZM251.766 39.842H252.21V41.474H251.766V39.842ZM251.478 38L251.886 38.198C251.722 38.35 251.544 38.504 251.352 38.66C251.164 38.816 250.99 38.946 250.83 39.05L250.512 38.876C250.62 38.8 250.732 38.712 250.848 38.612C250.968 38.508 251.084 38.402 251.196 38.294C251.308 38.186 251.402 38.088 251.478 38ZM252.702 38.318L253.104 38.54C252.9 38.704 252.674 38.876 252.426 39.056C252.182 39.232 251.934 39.4 251.682 39.56C251.434 39.72 251.198 39.86 250.974 39.98L250.68 39.776C250.9 39.652 251.134 39.506 251.382 39.338C251.63 39.17 251.87 38.996 252.102 38.816C252.334 38.636 252.534 38.47 252.702 38.318ZM249.924 38.87L250.218 38.612C250.37 38.68 250.53 38.762 250.698 38.858C250.866 38.95 251.026 39.044 251.178 39.14C251.33 39.232 251.456 39.32 251.556 39.404L251.238 39.692C251.146 39.608 251.026 39.518 250.878 39.422C250.73 39.322 250.572 39.224 250.404 39.128C250.24 39.028 250.08 38.942 249.924 38.87ZM252.918 39.248L253.23 39.008C253.406 39.1 253.586 39.208 253.77 39.332C253.954 39.452 254.128 39.576 254.292 39.704C254.456 39.828 254.59 39.944 254.694 40.052L254.364 40.316C254.264 40.212 254.134 40.096 253.974 39.968C253.814 39.84 253.642 39.714 253.458 39.59C253.274 39.462 253.094 39.348 252.918 39.248ZM252.804 40.454L253.14 40.214C253.308 40.29 253.486 40.378 253.674 40.478C253.862 40.578 254.04 40.68 254.208 40.784C254.376 40.888 254.516 40.986 254.628 41.078L254.274 41.348C254.17 41.26 254.036 41.162 253.872 41.054C253.708 40.946 253.532 40.84 253.344 40.736C253.156 40.628 252.976 40.534 252.804 40.454ZM249.39 39.722C249.67 39.722 249.99 39.72 250.35 39.716C250.714 39.708 251.102 39.702 251.514 39.698C251.93 39.69 252.356 39.682 252.792 39.674C253.232 39.666 253.668 39.656 254.1 39.644L254.076 39.998C253.652 40.006 253.226 40.016 252.798 40.028C252.374 40.04 251.958 40.05 251.55 40.058C251.146 40.066 250.762 40.074 250.398 40.082C250.038 40.09 249.714 40.096 249.426 40.1L249.39 39.722ZM250.746 40.22L251.16 40.376C251.024 40.504 250.868 40.63 250.692 40.754C250.52 40.878 250.34 40.994 250.152 41.102C249.968 41.21 249.788 41.302 249.612 41.378C249.588 41.35 249.554 41.316 249.51 41.276C249.47 41.24 249.428 41.202 249.384 41.162C249.34 41.126 249.3 41.096 249.264 41.072C249.532 40.968 249.8 40.842 250.068 40.694C250.336 40.542 250.562 40.384 250.746 40.22ZM251.766 35.954H252.216V38.084H251.766V35.954ZM249.69 36.398H254.376V36.746H249.69V36.398ZM250.02 37.13H254.022V37.472H250.02V37.13ZM249.372 37.862H254.646V38.222H249.372V37.862Z" fill="#AA8420"/>
</g>
<defs>
<clipPath id="clip0_85_4426">
<rect width="266" height="62" fill="white"/>
</clipPath>
</defs>
</svg>
