<svg width="261" height="82" viewBox="0 0 261 82" fill="none" xmlns="http://www.w3.org/2000/svg">
<path d="M43.7004 80.9999H36.4004V0.399902H43.7004V0.599902H36.6004V80.7999H43.7004V80.9999Z" fill="#231815"/>
<path d="M223.3 80.9999H216V80.7999H223.1V0.599902H216V0.399902H223.3V81.0999V80.9999Z" fill="#231815"/>
<path d="M4.5 50.1001V50.8001H0.5V50.1001H2.1V44.7001L0.6 45.6001V44.8001L2.4 43.6001H2.9V50.0001H4.5V50.1001Z" fill="#AA8420"/>
<path d="M10.5998 50.0999V50.7999H5.9998V50.2L8.4998 47.4C8.7998 47 9.0998 46.7 9.1998 46.4C9.3998 46.1 9.3998 45.8 9.3998 45.5C9.3998 45.2 9.2998 44.7999 9.0998 44.5999C8.8998 44.3999 8.4998 44.2999 8.0998 44.2999C7.3998 44.2999 6.6998 44.5999 6.0998 45.0999L5.7998 44.5C6.0998 44.2 6.3998 44 6.8998 43.9C7.2998 43.7 7.7998 43.7 8.1998 43.7C8.8998 43.7 9.3998 43.9 9.7998 44.2C10.1998 44.5 10.3998 44.9999 10.3998 45.5999C10.3998 46.1999 10.3998 46.3999 10.0998 46.7999C9.8998 47.1999 9.5998 47.5999 9.1998 48.0999L7.1998 50.2999H10.6998L10.5998 50.0999Z" fill="#AA8420"/>
<path d="M232.6 46.6C232.9 46.8 233.2 47.0001 233.4 47.4001C233.6 47.7001 233.7 48.1 233.7 48.6C233.7 49.1 233.6 49.4 233.4 49.8C233.2 50.1 232.9 50.4 232.6 50.6C232.3 50.8 231.8 50.9001 231.3 50.9001C230.8 50.9001 230.4 50.9001 230 50.7001C229.6 50.5001 229.2 50.3 228.9 50.1L229.2 49.5C229.9 50 230.5 50.3 231.2 50.3C231.9 50.3 232.1 50.2001 232.4 49.9001C232.7 49.6001 232.8 49.2001 232.8 48.7001C232.8 48.2001 232.7 47.8 232.4 47.6C232.1 47.3 231.7 47.2001 231.3 47.2001C230.6 47.2001 230.1 47.5 229.7 48H229.1V43.8H233.4V44.5H230V47C230.4 46.6 230.9 46.4001 231.5 46.4001C232.1 46.4001 232.3 46.4001 232.7 46.7001L232.6 46.6Z" fill="#AA8420"/>
<path d="M235.3 50C234.9 49.4 234.7 48.4999 234.7 47.2999C234.7 46.0999 234.9 45.1999 235.3 44.5999C235.7 43.9999 236.3 43.7 237.1 43.7C237.9 43.7 238.5 43.9999 239 44.5999C239.4 45.1999 239.6 46.0999 239.6 47.2999C239.6 48.4999 239.4 49.4 239 50C238.6 50.6 238 50.9 237.1 50.9C236.2 50.9 235.7 50.6 235.3 50ZM238.4 49.5C238.7 49 238.8 48.2999 238.8 47.2999C238.8 46.2999 238.7 45.4999 238.4 45.0999C238.1 44.5999 237.7 44.4 237.1 44.4C236.5 44.4 236.1 44.5999 235.9 45.0999C235.6 45.5999 235.5 46.2999 235.5 47.2999C235.5 48.2999 235.6 49.1 235.9 49.5C236.2 50 236.6 50.2 237.1 50.2C237.6 50.2 238.1 50 238.3 49.5H238.4Z" fill="#AA8420"/>
<path d="M138.7 52.9L132.9 43.2C132.9 43.2 132.7 42.9999 132.7 42.5999V24.7H130.5V43.2C130.7 43.4 134.3 49.5999 134.3 49.5999H125.2C125.2 49.5999 128.8 43.4 129 43.2V24.7H126.8V42.5999C126.8 42.9999 126.6 43.2 126.6 43.2L120.8 52.9H138.5H138.7Z" fill="#AA8420"/>
<path d="M136.9 12.1998C136.9 12.1998 138 7.6998 134.1 4.6998C134.1 4.6998 132.5 3.2998 129.6 3.2998C126.7 3.2998 125.4 4.6998 125.4 4.6998C121.8 7.1998 122.7 12.1998 122.7 12.1998H136.9Z" fill="#AA8420"/>
<path d="M123.2 13.4001H136.5C136.6 13.2001 136.7 12.9001 136.8 12.6001H122.9C122.9 12.9001 123.1 13.1001 123.2 13.4001Z" fill="#AA8420"/>
<path d="M136.3 13.8999H123.4C123.5 14.1999 123.7 14.3999 123.8 14.6999H135.8C136 14.4999 136.1 14.1999 136.2 13.8999" fill="#AA8420"/>
<path d="M124.7 15.7001H135C135.2 15.5001 135.4 15.3001 135.5 15.1001H124.2C124.4 15.3001 124.5 15.5001 124.7 15.7001Z" fill="#AA8420"/>
<path d="M125.8 16.7002H133.8C134 16.6002 134.2 16.4002 134.4 16.2002H125.1C125.3 16.4002 125.5 16.5002 125.7 16.7002" fill="#AA8420"/>
<path d="M126.9 17.2998C127.8 17.6998 128.8 17.8998 129.8 17.8998C130.8 17.8998 131.8 17.6998 132.7 17.2998H126.9Z" fill="#AA8420"/>
<path d="M143.6 18.2998H132.7C132.7 18.2998 131.7 18.2998 130.9 18.7998C130.3 19.1998 129.8 20.1998 129.8 20.2998C129.8 20.2998 129.3 19.2998 128.7 18.7998C127.9 18.2998 126.9 18.2998 126.9 18.2998H116L113.8 21.7998H123.8C123.8 21.7998 124.1 21.7998 124.3 21.7998C124.6 21.7998 125.1 21.9998 125.6 22.3998C126.3 22.8998 126.6 23.1998 126.7 23.3998L127 23.7998H132.4C132.4 23.7998 132.6 23.4998 132.7 23.3998C132.9 23.1998 133.1 22.8998 133.8 22.3998C134.3 21.9998 134.8 21.8998 135.1 21.7998C135.3 21.7998 135.6 21.7998 135.6 21.7998H145.6L143.4 18.2998H143.6Z" fill="#003477"/>
<path d="M114.9 22.8V39.4001C114.9 39.6001 114.9 39.7001 114.9 39.9001C115.1 41.7001 115.6 42.9001 116.6 44.7001C118.2 47.4001 121.1 49.2001 121.1 49.2001L122.5 47C122.5 47 120.6 46.0001 119.2 43.7001C118.9 43.2001 118.6 42.8001 118.4 42.4001C118.2 42.0001 118.1 41.7 118 41.3C118 41.1 117.8 40.8 117.8 40.6C117.8 40.3 117.7 40.1 117.7 39.8V39.3V22.8H115H114.9Z" fill="#003477"/>
<path d="M119.1 22.7999V39.2999C119.1 39.4999 119.1 39.6 119.1 39.7C119.1 39.7 119.1 39.8 119.1 39.9C119.1 40.2 119.2 40.4 119.3 40.7C119.5 41.3 119.8 41.9 120.3 42.7C121.5 44.7 123.3 45.5999 123.3 45.5999L124.7 43.5C124.7 43.5 124.3 43.3 123.7 42.7C123.3 42.3 122.9 41.8999 122.5 41.2999C122.1 40.6999 121.9 40.2 121.8 39.7C121.7 39.3 121.7 39.1 121.7 38.9V22.7H119.1V22.7999Z" fill="#003477"/>
<path d="M144.7 22.8V39.4001C144.7 39.6001 144.7 39.7001 144.7 39.9001C144.5 41.7001 144 42.9001 143 44.7001C141.4 47.4001 138.5 49.2001 138.5 49.2001L137.1 47C137.1 47 139 46.0001 140.4 43.7001C140.7 43.2001 141 42.8001 141.2 42.4001C141.4 42.0001 141.5 41.7 141.6 41.3C141.6 41.1 141.7 40.8 141.8 40.6C141.8 40.3 141.9 40.1 141.9 39.8V39.3V22.8H144.6H144.7Z" fill="#003477"/>
<path d="M140.6 22.7999V39.2999C140.6 39.4999 140.6 39.6 140.6 39.7C140.6 39.7 140.6 39.8 140.6 39.9C140.6 40.2 140.5 40.4 140.4 40.7C140.2 41.3 139.9 41.9 139.4 42.7C138.2 44.7 136.4 45.5999 136.4 45.5999L135 43.5C135 43.5 135.5 43.3 136 42.7C136.4 42.3 136.8 41.8999 137.2 41.2999C137.6 40.6999 137.8 40.2 137.9 39.7C138 39.3 138 39.1 138 38.9V22.7H140.6V22.7999Z" fill="#003477"/>
<path d="M75.3002 68.0999V66.4H66.9002V64.6999C69.6002 64.4999 71.8002 64.1999 73.6002 63.7999L72.7002 62.2C70.0002 62.8 66.0002 63.0999 60.7002 63.0999C55.4002 63.0999 58.7002 63.0999 57.9002 63.0999L58.6002 64.9C59.9002 64.9 62.1002 64.9 65.0002 64.8V66.4H56.8002V68.0999H63.0002C61.2002 69.5999 59.1002 70.6999 56.7002 71.1999L57.7002 73C58.5002 72.7 59.1002 72.5 59.4002 72.4V81H61.3002V80.0999H71.1002V81H72.9002V72.3C73.2002 72.5 73.5002 72.5999 73.8002 72.6999C74.1002 72.6999 74.4002 72.9 74.7002 73L75.6002 71.1999C72.7002 70.5999 70.5002 69.5999 69.0002 68.0999H75.4002H75.3002ZM65.0002 68.1999V71.9H60.5002C62.4002 71.1 63.9002 69.8999 65.0002 68.1999ZM71.0002 78.4H61.2002V76.5999H71.0002V78.4ZM71.0002 75H61.2002V73.5H71.0002V75ZM71.8002 71.8H66.9002V68.0999C68.1002 69.7999 69.8002 71 71.8002 71.8Z" fill="#003477"/>
<path d="M82.2998 79.1L83.8998 80.7C84.9998 78.9 85.8998 76.9 86.3998 74.7L84.6998 73.7C84.2998 75.6 83.4998 77.4 82.2998 79V79.1Z" fill="#003477"/>
<path d="M86.6 69.7999C85.6 68.9999 84.6 68.3999 83.7 67.8999L82.5 69.3999C83.3 69.8999 84.2 70.5999 85.3 71.5999L86.6 69.8999V69.7999Z" fill="#003477"/>
<path d="M97 76.5999V72.5C97.8 73.2 98.8 73.8999 100 74.6999L100.9 72.9C98.7 71.8 97.4 70.7999 96.9 69.6999H100.7V68H97.1V65.9H100.4V64.3H97.1V62.2H95.3V64.3H91.7V62.2H89.9V64.3H87.2V64.5999C86.4 63.9999 85.5 63.2999 84.3 62.5999L83 64.0999C83.9 64.6999 84.9 65.4 86 66.4L87.2 64.9V66H89.9V68H86.9V69.6999H90.1C89.5 70.8999 88.1 72.0999 85.9 73.0999L87 74.8C87.9 74.2 88.5 73.8 88.8 73.5V78C88.8 78.9 89 79.5 89.3 79.8C89.6 80.1 90.2 80.3 91.1 80.3H97.6C98.6 80.3 99.3 80.1 99.7 79.8C100.1 79.4 100.3 78.3 100.6 76.5L98.7 75.8C98.7 76.9 98.5 77.6 98.4 78C98.3 78.4 98 78.5999 97.4 78.5999H91.5C91 78.5999 90.8 78.4 90.8 77.9V76.5999H97.2H97ZM91.7 66.0999H95.3V68.0999H91.7V66.0999ZM92.1 69.6999H94.8C95.2 70.3999 95.6 71 96 71.5H90.9C91.4 71 91.8 70.3999 92.1 69.6999ZM90.6 75V73H95.2V75H90.6Z" fill="#003477"/>
<path d="M121.8 70.8999C120.3 69.7999 119.1 68.9999 118.1 68.3999L116.9 69.6999C117.9 70.2999 119.2 71.1999 120.5 72.3999L121.7 70.8999H121.8Z" fill="#003477"/>
<path d="M122.1 66.0999C120.5 64.9999 119.3 64.1 118.4 63.7L117.2 65C118.1 65.6 119.3 66.3999 120.8 67.5999L122.1 66.0999Z" fill="#003477"/>
<path d="M113.4 69.4001V69.2H116.4V67.5H113.4V64.7C114.4 64.5 115.5 64.2001 116.4 63.9001L115.7 62.3C113.6 63.1 111 63.6001 108 63.7001L108.4 65.4001C109.8 65.4001 110.8 65.2 111.5 65.1V67.6H107.8V69.3001H111.5C110.7 71.5001 109.4 73.6 107.7 75.5L108.8 77.3001C110.1 75.6001 111 74.1001 111.5 72.8001V81H113.3V71.7C113.7 72.2 114 72.6 114.4 73C114.8 73.5 115.2 74 115.6 74.5L116.7 72.8001C115.9 72.0001 114.8 70.9 113.3 69.5L113.4 69.4001Z" fill="#003477"/>
<path d="M124.7 62.1001H122.9V73.6001L116.2 74.6001V76.5001L122.9 75.5001V81.0001H124.7V75.3001L126.5 75.0001V73.2001L124.7 73.5001V62.2001V62.1001Z" fill="#003477"/>
<path d="M149.7 73.9001C150.4 72.7001 150.8 71.8001 151 71.1001V69.4001H147V66.7001H151.7V64.9001H147V62.1001H145V64.9001H140.7V66.2001H138.4V62.1001H136.4V66.2001H133.5V68.0001H136.4V72.0001C135.5 72.2001 134.4 72.4001 133.2 72.6001L133.7 74.8001C134.3 74.6001 135.2 74.4001 136.4 74.1001V78.2001C136.4 78.6001 136.2 78.9001 135.7 78.9001H134L134.5 80.9001H136.1C137.1 80.9001 137.7 80.7001 138 80.4001C138.3 80.1001 138.4 79.5001 138.4 78.5001V73.6001C139.5 73.2001 140.3 72.9001 140.7 72.7001V70.7001C140.2 70.9001 139.4 71.2001 138.4 71.6001V68.1001H140.7V66.8001H145V69.5001H141V71.3001H148.9C148.3 73.0001 147.4 74.4001 146 75.4001C145.1 74.5001 144.2 73.2001 143.2 71.6001L141.5 72.3001C142.5 74.1001 143.5 75.5001 144.5 76.5001C142.6 77.8001 140.7 78.6001 138.7 79.1001L139.8 80.9001C141.7 80.5001 143.7 79.5001 145.8 77.9001C147.3 79.3001 149 80.3001 150.8 80.9001L151.8 79.0001C150.1 78.5001 148.6 77.8001 147.3 76.7001C148.1 76.0001 148.8 75.1001 149.5 74.0001L149.7 73.9001Z" fill="#003477"/>
<path d="M172.9 74.4C171.8 72.6 171 70.9 170.7 69.3H177.1V67.1999H168.6C168.7 66.0999 168.8 64.5 168.8 62.2H166.7C166.7 64.3 166.7 65.9999 166.4 67.1999H159.2V69.3H166.1C165.8 71.2 165 72.9999 163.6 74.6999C162.2 76.4999 160.6 77.9 158.7 78.9L160.2 80.8C164.7 77.9 167.4 73.9999 168.2 69.1999H168.5C169.8 74.5999 172.3 78.4 175.9 80.8L177.4 79C175.4 77.7 173.9 76.1 172.7 74.4H172.9Z" fill="#003477"/>
<path d="M194.9 65.0001C194.4 63.9001 193.8 63.0001 193.3 62.1001L191.7 62.8001C192.2 63.7001 192.8 64.7001 193.2 65.8001L194.9 65.0001Z" fill="#003477"/>
<path d="M190.4 65.4C189.8 64.4 189.3 63.5 188.7 62.7L187.1 63.4C187.7 64.2 188.2 65.0999 188.7 66.1999L190.4 65.4Z" fill="#003477"/>
<path d="M198.9 66.5C199.5 65.5 200.1 64.3 200.7 62.8L198.6 62C197.9 63.8 197.3 65.3 196.7 66.5H184.6V70.7H186.5V68.2H201V70.6H202.9V66.5H198.9Z" fill="#003477"/>
<path d="M194.8 73.8C196.6 73.1 198.2 72.3 199.6 71.5V69.8H188V71.5H196.7C195.3 72.2 194 72.7 192.8 73V74.4H185.1V76.1H192.8V78.8C192.8 79.1 192.6 79.3 192.2 79.3C191.5 79.3 190.8 79.3 190.2 79.3L190.6 81.1H193.4C193.9 81.1 194.3 80.9 194.6 80.5C194.8 80.3 195 79.9 195 79.4V76.1H202.6V74.4H195V73.8H194.8Z" fill="#003477"/>
<path d="M16.5996 32.4C15.8996 32.7 15.0996 32.9 14.2996 33V34.7H16.3996V35.4H14.2996V37.4C15.0996 37.2 15.8996 36.9 16.4996 36.7V37.5C15.4996 37.9 14.3996 38.2 13.2996 38.5L13.0996 37.8C13.2996 37.8 13.3996 37.8 13.4996 37.8V32.6C14.4996 32.5 15.3996 32.3 16.1996 32L16.5996 32.6V32.4ZM19.9996 37.2C19.9996 37.4 19.9996 37.6 19.7996 37.7C19.5996 37.8 19.4996 37.9 19.3996 37.9C19.2996 37.9 18.9996 37.9 18.6996 37.9C18.3996 37.9 18.2996 37.9 18.1996 37.9L17.8996 37.1C18.0996 37.1 18.3996 37.1 18.9996 37.1C19.5996 37.1 19.1996 37.1 19.1996 36.9V32.7H17.5996V38.7H16.8996V32H19.9996V37.1V37.2Z" fill="black"/>
<path d="M25.3992 34.1H22.2992V35.2001C22.2992 36.7001 22.0992 38.0001 21.7992 38.9001L21.1992 38.5C21.4992 37.7 21.5992 36.8001 21.5992 35.7001V32H25.3992V34.1ZM24.6992 33.5V32.7001H22.2992V33.5H24.6992ZM25.3992 37.7001C25.3992 37.9001 25.3992 38.1 25.1992 38.1C24.9992 38.1 24.8992 38.2 24.5992 38.1L24.3992 37.5C24.3992 37.5 24.3992 37.5 24.4992 37.5C24.6992 37.5 24.6992 37.5 24.6992 37.3V35.7001H24.1992V38.6H23.5992V35.7001H23.1992V38.1H22.5992V35H23.6992V34.3H24.2992V35H25.3992V37.5V37.7001ZM26.5992 37.4001H25.8992V32.4001H26.5992V37.4001ZM27.9992 38.1C27.9992 38.4 27.9992 38.6001 27.7992 38.7001C27.5992 38.7001 27.3992 38.8 26.9992 38.8C26.5992 38.8 26.5992 38.8 26.4992 38.8L26.2992 38.1C26.4992 38.1 26.6992 38.1 26.8992 38.1C27.0992 38.1 27.1992 38.1 27.2992 38.1C27.3992 38.1 27.2992 38.1001 27.2992 37.9001V31.8H27.9992V38.1Z" fill="black"/>
<path d="M20.9 45.4H15V45.1H17.8C17.8 44.9 17.6 44.8 17.5 44.7L17.8 44.5C17.9 44.7 18 44.9 18.1 45.1H20.8V45.4H20.9ZM21 49.9C21 50.2 21 50.4 20.8 50.5C20.7 50.6 20.5 50.7 20.4 50.7H18.1C17.9 50.7 17.8 50.7 17.7 50.5C17.6 50.4 17.5 50.2 17.5 50V49.8L15 50V49.7L17.5 49.5V49.1L15.4 49.3V49L17.5 48.8V48.4C17 48.4 16.5 48.4 15.9 48.4V48.1C17.3 48.1 18.7 48.1 19.7 47.8L19.9 48.1C19.3 48.2 18.6 48.3 17.8 48.4V48.8L20.4 48.6V48.9L17.8 49.1V49.5L20.8 49.3V49.6L17.8 49.8V50.1C17.8 50.1 17.8 50.2 17.8 50.3C17.8 50.3 17.9 50.3 18 50.3H20.1C20.4 50.3 20.5 50.1 20.5 49.7H20.8L21 49.9ZM20.8 48.2H20.4V47.5H15.4V48.2H15V47.2H20.8V48.2ZM20.3 46.9H15.6V45.9H20.3V46.9ZM19.9 46.6V46.2H16V46.6H19.9Z" fill="#AA8420" stroke="#AA8420" stroke-width="0.1" stroke-miterlimit="10"/>
<path d="M23.9998 48.3001C23.5998 49.1001 22.8998 49.8001 22.0998 50.4001L21.7998 50.1001C22.5998 49.5001 23.1998 48.9001 23.5998 48.1001L23.8998 48.3001H23.9998ZM27.8998 47.5001H25.0998V50.8001H24.6998V47.5001H21.8998V47.1001H24.6998V44.6001H25.0998V47.1001H27.8998V47.5001ZM23.6998 46.4001L23.3998 46.6001C23.1998 46.2001 22.8998 45.7001 22.4998 45.2001L22.7998 45.0001C23.1998 45.5001 23.4998 45.9001 23.6998 46.4001ZM27.9998 50.1001L27.6998 50.4001C27.2998 49.7001 26.6998 49.0001 25.8998 48.4001L26.1998 48.2001C26.7998 48.7001 27.3998 49.4001 27.9998 50.2001V50.1001ZM27.2998 45.1001C26.9998 45.7001 26.6998 46.2001 26.3998 46.6001L25.9998 46.4001C26.2998 46.1001 26.5998 45.6001 26.8998 44.9001L27.1998 45.1001H27.2998Z" fill="#AA8420" stroke="#AA8420" stroke-width="0.1" stroke-miterlimit="10"/>
<path d="M229.7 36.9C229.6 37.6 229.4 38.2999 229.2 38.7999L228.6 38.5999C228.8 37.9999 229 37.3999 229.1 36.7999H229.7V36.9ZM231.6 33.2999C231 34.3999 230.4 35.2 229.8 35.9C230 35.9 230.3 35.8 230.7 35.7C230.7 35.6 230.7 35.3999 230.5 35.2999L231 35.0999C231.2 35.4999 231.4 36 231.5 36.4L231 36.5999C231 36.3999 231 36.3 231 36.2C230.4 36.4 229.8 36.4999 229 36.5999V36C229.3 35.6 229.8 35.1 230.2 34.4C229.9 34.4 229.5 34.4999 229 34.5999V34.0999C229.4 33.4999 229.9 32.7 230.3 31.7L230.9 31.9C230.6 32.6 230.2 33.2 229.8 33.9C230.1 33.9 230.4 33.8999 230.6 33.7999C230.8 33.5999 230.9 33.3 231.1 33L231.7 33.2L231.6 33.2999ZM230.8 38.5H230.2C230.2 38.1 230.2 37.5 230 36.9H230.6C230.7 37.4 230.8 37.9 230.8 38.5ZM231.7 37.5L231.2 37.7C231.2 37.4 231 37.0999 230.9 36.7999L231.4 36.5999C231.5 36.8999 231.6 37.2 231.7 37.5ZM233 35.7C233 36.7 232.6 37.7 231.6 38.7L231.1 38.2999C231.8 37.6999 232.2 37.1 232.4 36.4H231.6V35.7999H233.1L233 35.7ZM235.8 38L235.3 38.5999C234.8 38.1999 234.4 37.7 233.9 36.9V38.0999C233.9 38.2999 233.9 38.4999 233.6 38.5999C233.4 38.6999 233 38.7999 232.5 38.7999L232.3 38.0999C232.7 38.0999 232.9 38.0999 233 38.0999C233.1 38.0999 233.2 38.1 233.2 38V35.0999H231.7V32.5H232.7C232.8 32.3 233 31.9999 233.1 31.7999L233.8 32C233.8 32.2 233.6 32.3999 233.5 32.5999H235.3V35.2H233.9V35.7999C233.9 35.8999 234 36.1 234.2 36.2C234.4 36 234.7 35.8 235 35.4L235.5 35.7999C235.2 36.0999 234.9 36.4 234.5 36.7C234.8 37.1 235.2 37.5 235.7 38H235.8ZM234.6 33.5V33H232.4V33.5H234.6ZM234.6 34.5999V34.0999H232.4V34.5999H234.6Z" fill="black"/>
<path d="M243.699 38.6H236.699V37.9001H239.599V31.8H240.299V34.2001H243.299V34.9001H240.299V37.9001H243.699V38.6Z" fill="black"/>
<path d="M244.599 44.7999C244.599 45.0999 244.399 45.4999 244.299 45.7999L244.099 46.2999V50.7999H243.799V46.9999C243.599 47.3999 243.399 47.6999 243.199 47.8999L242.899 47.5999C243.499 46.8999 243.899 45.8999 244.299 44.5999H244.599V44.7999ZM248.999 50.1999L248.799 50.4999C248.399 50.2999 247.899 49.8999 247.399 49.3999C247.399 49.5999 247.399 49.6999 247.399 49.7999C247.399 50.0999 247.399 50.2999 247.299 50.3999C247.299 50.4999 247.099 50.5999 246.999 50.6999C246.899 50.6999 246.599 50.6999 246.299 50.6999C245.999 50.6999 246.099 50.6999 245.999 50.6999V50.3999C246.499 50.3999 246.799 50.3999 246.899 50.3999C246.999 50.3999 247.099 50.1999 247.099 49.8999C247.099 49.5999 247.099 49.5999 247.099 49.3999C246.499 49.7999 245.699 50.1999 244.599 50.5999L244.399 50.2999C245.499 49.9999 246.399 49.5999 246.999 49.0999C246.999 49.0999 246.999 48.8999 246.799 48.6999C246.199 49.0999 245.499 49.4999 244.599 49.6999L244.399 49.3999C245.399 49.0999 246.099 48.7999 246.699 48.3999C246.699 48.2999 246.499 48.1999 246.399 48.0999C245.899 48.3999 245.299 48.5999 244.499 48.7999L244.299 48.4999C245.099 48.3999 245.799 48.0999 246.399 47.6999H244.999V46.4999C244.899 46.5999 244.699 46.6999 244.599 46.7999L244.399 46.4999C245.199 45.8999 245.799 45.3999 246.099 44.7999L246.399 44.9999C246.399 45.0999 246.299 45.1999 246.199 45.2999H247.899V45.5999C247.699 45.7999 247.499 46.0999 247.299 46.2999H248.599V47.5999H246.999C246.899 47.6999 246.799 47.7999 246.699 47.8999C246.899 48.1999 247.099 48.3999 247.299 48.7999C247.699 48.5999 248.099 48.2999 248.599 47.8999L248.899 48.0999C248.499 48.3999 248.099 48.6999 247.599 48.9999C248.099 49.5999 248.699 49.9999 249.199 50.2999L248.999 50.1999ZM247.499 45.3999H245.999C245.699 45.6999 245.499 45.8999 245.199 46.0999H246.899C247.099 45.7999 247.399 45.5999 247.499 45.3999ZM246.599 47.1999V46.4999H245.299V47.1999H246.599ZM248.299 47.1999V46.4999H246.999V47.1999H248.299Z" fill="#AA8420" stroke="#AA8420" stroke-width="0.1" stroke-miterlimit="10"/>
<path d="M256 47.0999H253.1C252.6 47.4999 252.1 47.6999 251.6 47.8999H252.7C253.4 47.8999 253.8 47.8999 253.8 47.8999C254.1 47.7999 254.3 47.5999 254.7 47.3999L255 47.5999C253.8 48.2999 252.7 48.7999 251.5 49.0999C252.7 49.0999 253.9 49.0999 255 48.8999C254.8 48.6999 254.7 48.5999 254.5 48.3999L254.8 48.1999C255.3 48.5999 255.7 49.0999 256 49.4999L255.7 49.6999C255.5 49.4999 255.4 49.2999 255.3 49.1999C254.6 49.1999 253.9 49.2999 253.2 49.2999V50.2999C253.2 50.4999 253.2 50.5999 253 50.6999C252.9 50.6999 252.7 50.7999 252.3 50.7999C251.9 50.7999 252.1 50.7999 252.1 50.7999V50.3999C252.1 50.3999 252.3 50.3999 252.4 50.3999C252.6 50.3999 252.7 50.3999 252.7 50.3999C252.7 50.3999 252.7 50.3999 252.7 50.2999V49.2999C252.1 49.2999 251.3 49.2999 250.3 49.2999V48.9999C251.2 48.7999 252.1 48.4999 253 48.0999C252.5 48.0999 251.9 48.0999 251.3 48.0999C250.7 48.0999 250.9 48.0999 250.8 48.0999V47.7999C251.3 47.5999 251.9 47.2999 252.4 46.9999H249.8V46.6999H252.7V46.0999H250.5V45.7999H252.7V45.2999H250.1V44.9999H252.7V44.5999H253.1V44.9999H255.6V45.2999H253.1V45.7999H255.2V46.0999H253.1V46.6999H255.9V46.9999L256 47.0999ZM252 49.6999C251.6 49.9999 251 50.3999 250.2 50.6999L250 50.3999C250.7 50.0999 251.3 49.7999 251.8 49.4999L252.1 49.7999L252 49.6999ZM255.9 50.3999L255.7 50.6999C255.2 50.2999 254.6 49.9999 253.9 49.6999L254.1 49.3999C254.8 49.6999 255.4 49.9999 255.9 50.3999Z" fill="#AA8420" stroke="#AA8420" stroke-width="0.1" stroke-miterlimit="10"/>
</svg>
