<svg width="215" height="22" viewBox="0 0 215 22" fill="none" xmlns="http://www.w3.org/2000/svg">
<path d="M44.9605 20.75H37.9805V0H44.9605V0.25H38.2305V20.5H44.9605V20.75Z" fill="#231815"/>
<path d="M173.94 20.7501H166.96V20.5001H173.69V0.310059H166.96V0.0600586H173.94V20.7501Z" fill="#231815"/>
<path d="M10.3901 18.86V19.55H5.81012V18.93L8.30012 16.17C8.63012 15.8 8.88012 15.46 9.03012 15.16C9.18012 14.86 9.26012 14.56 9.26012 14.26C9.26012 13.87 9.15012 13.56 8.92012 13.35C8.69012 13.14 8.37012 13.04 7.95012 13.04C7.27012 13.04 6.60012 13.31 5.93012 13.86L5.62012 13.23C5.90012 12.96 6.25012 12.75 6.68012 12.59C7.11012 12.43 7.54012 12.35 7.97012 12.35C8.62012 12.35 9.14012 12.52 9.52012 12.85C9.90012 13.19 10.0901 13.64 10.0901 14.22C10.0901 14.63 10.0001 15.02 9.82012 15.39C9.64012 15.77 9.33012 16.19 8.90012 16.66L6.87012 18.86H10.3901Z" fill="#AA8420"/>
<path d="M187.26 18.86V19.55H182.68V18.93L185.17 16.17C185.5 15.8 185.75 15.46 185.9 15.16C186.05 14.86 186.13 14.56 186.13 14.26C186.13 13.87 186.02 13.56 185.79 13.35C185.56 13.14 185.24 13.04 184.82 13.04C184.14 13.04 183.47 13.31 182.8 13.86L182.49 13.23C182.77 12.96 183.12 12.75 183.55 12.59C183.98 12.43 184.41 12.35 184.84 12.35C185.49 12.35 186.01 12.52 186.39 12.85C186.77 13.19 186.96 13.64 186.96 14.22C186.96 14.63 186.87 15.02 186.69 15.39C186.51 15.77 186.2 16.19 185.77 16.66L183.74 18.86H187.26Z" fill="#AA8420"/>
<path d="M189 18.7C188.58 18.08 188.37 17.18 188.37 15.99C188.37 14.8 188.58 13.89 189 13.27C189.42 12.65 190.04 12.35 190.86 12.35C191.68 12.35 192.29 12.66 192.71 13.27C193.13 13.89 193.35 14.79 193.35 15.98C193.35 17.17 193.14 18.08 192.71 18.7C192.29 19.32 191.67 19.63 190.86 19.63C190.05 19.63 189.43 19.32 189 18.71V18.7ZM192.11 18.21C192.38 17.73 192.52 16.98 192.52 15.97C192.52 14.96 192.39 14.22 192.12 13.75C191.85 13.28 191.43 13.04 190.86 13.04C190.29 13.04 189.87 13.28 189.61 13.75C189.34 14.22 189.2 14.96 189.2 15.97C189.2 16.98 189.33 17.72 189.61 18.21C189.88 18.69 190.3 18.93 190.86 18.93C191.42 18.93 191.84 18.69 192.11 18.21Z" fill="#AA8420"/>
<path d="M73.6796 6.86995V4.94995H63.9296V3.00995C67.0396 2.73995 69.6496 2.39995 71.7396 1.96995L70.7496 0.0699463C67.5896 0.779946 62.9396 1.12995 56.7796 1.12995C55.4796 1.12995 54.3996 1.12995 53.5196 1.07995L54.2796 3.20995C55.7896 3.20995 58.2796 3.15995 61.7496 3.06995V4.93995H52.2496V6.85995H59.3896C57.3096 8.59995 54.8696 9.80995 52.0596 10.4899L53.1696 12.5399C54.0896 12.2299 54.7496 11.9999 55.1296 11.8199V21.7399H57.2796V20.6799H68.6596V21.7399H70.8096V11.7199C71.1196 11.8899 71.4596 12.0299 71.8296 12.1399C72.1996 12.2499 72.5396 12.3699 72.8496 12.5099L73.8696 10.4099C70.5396 9.74995 67.9996 8.56995 66.2496 6.86995H73.6896H73.6796ZM56.4796 11.1899C58.6496 10.2699 60.4096 8.84995 61.7496 6.93995V11.1899H56.4796ZM68.6596 18.7699H57.2896V16.7399H68.6596V18.7699ZM68.6596 14.8899H57.2896V13.1299H68.6596V14.8899ZM69.6296 11.1899H63.9196V6.90995C65.3696 8.83995 67.2696 10.2599 69.6296 11.1799V11.1899Z" fill="#003477"/>
<path d="M97.5901 16.74V12C98.5101 12.83 99.6801 13.67 101.1 14.52L102.09 12.47C99.5901 11.24 98.0401 9.99995 97.4201 8.74995H101.83V6.80995H97.6701V4.42995H101.48V2.59995H97.6701V0.199951H95.5901V2.59995H91.3801V0.199951H89.2601V2.59995H86.1801V2.89995C85.2701 2.20995 84.1601 1.44995 82.8501 0.609951L81.3301 2.31995C82.3601 2.96995 83.5101 3.86995 84.7701 5.01995L86.1801 3.25995V4.50995H89.2601V6.81995H85.7201V8.75995H89.4201C88.7401 10.21 87.1301 11.51 84.5701 12.66L85.8901 14.6C86.9201 13.95 87.6301 13.47 88.0201 13.14V18.32C88.0201 19.37 88.2101 20.0899 88.6001 20.4699C89.0001 20.8399 89.6901 21.02 90.6801 21.02H98.1601C99.3401 21.02 100.14 20.81 100.54 20.4C100.96 19.97 101.29 18.68 101.53 16.54L99.3101 15.73C99.2101 16.95 99.0901 17.7999 98.9701 18.2999C98.8501 18.7799 98.4601 19.02 97.8101 19.02H90.9501C90.4101 19.02 90.1401 18.7499 90.1401 18.2099V16.7299H97.5901V16.74ZM91.4001 4.53995H95.6001V6.80995H91.4001V4.53995ZM91.9101 8.74995H95.0301C95.4601 9.56995 95.9301 10.26 96.4401 10.83H90.5501C91.1201 10.23 91.5701 9.53995 91.9101 8.74995ZM90.1501 14.92V12.66H95.4701V14.92H90.1501Z" fill="#003477"/>
<path d="M85.5297 8.85999C84.3497 7.94999 83.2097 7.2 82.1097 6.62L80.7197 8.35C81.6297 8.95 82.7097 9.78 83.9497 10.84L85.5197 8.85999H85.5297Z" fill="#003477"/>
<path d="M80.6104 19.59L82.4604 21.48C83.7904 19.38 84.7604 17.09 85.4004 14.6L83.3904 13.42C82.9004 15.61 81.9704 17.66 80.6204 19.59H80.6104Z" fill="#003477"/>
<path d="M125.58 4.54998C123.76 3.21998 122.35 2.28998 121.35 1.72998L119.96 3.24998C121.02 3.89998 122.41 4.90998 124.12 6.27998L125.58 4.54998Z" fill="#003477"/>
<path d="M125.14 10.12C123.44 8.83003 122.02 7.88003 120.87 7.28003L119.51 8.83003C120.73 9.55003 122.13 10.58 123.71 11.91L125.14 10.13V10.12Z" fill="#003477"/>
<path d="M128.57 0H126.43V13.29L118.68 14.44V16.59L126.43 15.42V21.77H128.57V15.14L130.65 14.79V12.69L128.57 13.03V0Z" fill="#003477"/>
<path d="M115.44 8.43001V8.22001H118.95V6.23001H115.44V2.98001C116.66 2.73001 117.82 2.42001 118.93 2.03001L118.14 0.140015C115.66 1.08001 112.7 1.63001 109.24 1.80001L109.72 3.74001C111.29 3.63001 112.49 3.50001 113.3 3.35001V6.24001H109V8.23001H113.23C112.26 10.79 110.81 13.17 108.86 15.37L110.15 17.45C111.66 15.48 112.71 13.75 113.29 12.27V21.77L115.42 21.68V10.95C115.84 11.51 116.24 12.02 116.64 12.5C117.1 13.02 117.56 13.61 118.03 14.26L119.32 12.28C118.44 11.32 117.14 10.04 115.42 8.44001H115.44V8.43001Z" fill="#003477"/>
<path d="M153.64 14.17C152.33 12.1 151.5 10.13 151.14 8.25002L158.53 8.27002V5.82002H148.73C148.85 4.60002 148.92 2.67002 148.92 0.0200195H146.49C146.49 2.49002 146.39 4.42002 146.19 5.82002H137.83V8.27002H145.8C145.43 10.44 144.47 12.55 142.91 14.58C141.34 16.61 139.46 18.25 137.27 19.5L139.03 21.69C144.21 18.28 147.31 13.8 148.34 8.24002H148.71C150.25 14.45 153.1 18.92 157.26 21.64L159.04 19.51C156.75 18 154.94 16.21 153.63 14.15V14.17H153.64Z" fill="#003477"/>
<path d="M15.4104 1.52001C14.6704 1.79001 13.9004 1.98001 13.1104 2.11001V3.77001H15.1804V4.48001H13.1104V6.49001C13.9404 6.27001 14.6804 6.02001 15.3404 5.74001L15.3204 6.50001C14.2904 6.91001 13.2404 7.24001 12.1604 7.48001L11.9404 6.78001C12.1204 6.75001 12.2604 6.72001 12.3604 6.69001V1.50001C13.3504 1.37001 14.2404 1.17001 15.0204 0.890015L15.4104 1.51001V1.52001ZM18.7604 6.34001C18.7604 6.55001 18.7104 6.72001 18.6004 6.83001C18.4904 6.94001 18.3504 7.01001 18.1704 7.02001C17.9904 7.03001 17.7704 7.04001 17.5004 7.04001C17.3104 7.04001 17.1404 7.04001 16.9804 7.03001L16.7304 6.27001C16.8804 6.29001 17.2504 6.30001 17.8404 6.30001C17.9604 6.30001 18.0204 6.24001 18.0204 6.10001V1.91001H16.3904V7.93001H15.6504V1.20001H18.7604V6.34001Z" fill="black"/>
<path d="M24.1802 3.25007H21.0602V4.37007C21.0602 5.91007 20.9102 7.13007 20.6002 8.03007L19.9502 7.60007C20.2402 6.80007 20.3802 5.87007 20.3802 4.82007V1.12007H24.1802V3.25007ZM23.4902 2.60007V1.78007H21.0702V2.60007H23.4902ZM24.1702 6.82007C24.1702 7.04007 24.1102 7.19007 23.9902 7.27007C23.8702 7.35007 23.6602 7.38007 23.3602 7.36007L23.2002 6.73007C23.2002 6.73007 23.2802 6.75007 23.3302 6.75007C23.4902 6.75007 23.5702 6.69007 23.5702 6.57007V4.96007H23.1002V7.91007H22.4802V4.96007H22.0302V7.40007H21.4202V4.30007H22.4702V3.60007H23.0902V4.30007H24.1502V6.83007L24.1702 6.82007ZM25.4102 6.48007H24.7402V1.50007H25.4102V6.48007ZM26.7602 7.24007C26.7602 7.52007 26.6802 7.70007 26.5302 7.79007C26.3802 7.88007 26.1102 7.93007 25.7202 7.93007C25.5402 7.93007 25.3702 7.93007 25.2202 7.91007L25.0402 7.21007C25.2802 7.23007 25.4702 7.23007 25.6102 7.23007C25.8302 7.23007 25.9602 7.22007 26.0002 7.19007C26.0402 7.16007 26.0702 7.11007 26.0702 7.04007V0.950073H26.7602V7.24007Z" fill="black"/>
<path d="M20.3807 14.39H14.4707V14.09H17.3007C17.2107 13.93 17.1307 13.79 17.0407 13.67L17.3807 13.52C17.5107 13.71 17.6307 13.9 17.7307 14.09H20.3907V14.39H20.3807ZM20.4607 18.85C20.4607 19.12 20.3907 19.32 20.2507 19.44C20.1207 19.56 19.9907 19.62 19.8707 19.62H17.5607C17.3807 19.62 17.2407 19.57 17.1307 19.46C17.0207 19.35 16.9607 19.2 16.9607 19V18.76L14.5007 18.95L14.4707 18.64L16.9507 18.45V18.01L14.8107 18.18L14.7807 17.86L16.9507 17.71V17.32C16.4607 17.34 15.9307 17.35 15.3507 17.35L15.2207 17.06C16.7907 17.08 18.1107 16.96 19.1707 16.71L19.3807 16.98C18.7607 17.13 18.0707 17.23 17.3007 17.29V17.68L19.8707 17.47L19.8907 17.78L17.3007 17.99V18.42L20.2607 18.19L20.2907 18.5L17.3007 18.73V19.05C17.3007 19.12 17.3307 19.18 17.3807 19.24C17.4307 19.3 17.4907 19.33 17.5507 19.33H19.6907C19.9707 19.33 20.1007 19.14 20.0907 18.76L20.4307 18.87L20.4607 18.85ZM20.3007 17.2H19.9407V16.54H14.9007V17.2H14.5307V16.24H20.3007V17.2ZM19.7707 15.83H15.1007V14.81H19.7707V15.83ZM19.3907 15.54V15.11H15.4607V15.54H19.3907Z" fill="#AA8420" stroke="#AA8420" stroke-width="0.1" stroke-miterlimit="10"/>
<path d="M23.5108 17.2901C23.0608 18.0601 22.4308 18.7601 21.6208 19.3801L21.3408 19.0901C22.1508 18.5201 22.7608 17.8501 23.1808 17.0701L23.5108 17.2801V17.2901ZM27.4308 16.4301H24.5908V19.7201H24.2208V16.4301H21.4108V16.0501H24.2208V13.5701H24.5908V16.0501H27.4308V16.4301ZM23.1708 15.4001L22.8308 15.6001C22.6408 15.1801 22.3408 14.7101 21.9108 14.1701L22.2408 13.9601C22.6108 14.4301 22.9208 14.9101 23.1708 15.4001ZM27.4508 19.0501L27.1508 19.3401C26.7208 18.6201 26.1308 17.9601 25.3708 17.3501L25.6408 17.1001C26.2808 17.6001 26.8808 18.2501 27.4608 19.0501H27.4508ZM26.8108 14.0901C26.5408 14.7001 26.2408 15.2001 25.9108 15.5901L25.5508 15.3901C25.8708 15.0501 26.1708 14.5601 26.4608 13.9301L26.8108 14.0801V14.0901Z" fill="#AA8420" stroke="#AA8420" stroke-width="0.1" stroke-miterlimit="10"/>
<path d="M185.691 6.85002C184.731 7.27002 183.83 7.60002 182.98 7.84002L182.771 7.22002C183.471 7.04002 184.381 6.71002 185.501 6.22002L185.691 6.85002ZM185.601 2.50002C185.111 3.56002 184.54 4.54002 183.9 5.42002C184.21 5.33002 184.691 5.16002 185.331 4.91002L185.491 5.57002C184.651 5.89002 183.841 6.15002 183.071 6.36002L182.861 5.73002C183.311 5.24002 183.741 4.62002 184.141 3.89002C183.761 3.99002 183.391 4.06002 183.051 4.11002L182.851 3.50002C183.351 2.84002 183.801 1.97002 184.201 0.900024L184.831 1.14002C184.541 1.92002 184.191 2.64002 183.781 3.28002C184.021 3.25002 184.281 3.18002 184.571 3.09002C184.721 2.85002 184.861 2.55002 184.991 2.20002L185.611 2.50002H185.601ZM189.831 6.49002C189.681 7.47002 189.36 7.97002 188.87 7.97002C188.68 7.97002 188.471 7.88002 188.251 7.69002C188.021 7.50002 187.81 7.25002 187.62 6.92002C187.03 7.31002 186.32 7.67002 185.48 7.99002L185.111 7.40002C185.971 7.11002 186.71 6.75002 187.34 6.31002C187.16 5.86002 187.04 5.35002 186.98 4.77002L185.54 4.95002L185.461 4.29002L186.9 4.09002C186.86 3.72002 186.84 3.42002 186.84 3.20002L185.771 3.34002L185.68 2.68002L186.811 2.54002L186.781 0.970024L187.471 0.930024C187.471 1.26002 187.471 1.76002 187.501 2.45002L189.451 2.21002L189.54 2.86002L187.531 3.12002C187.531 3.40002 187.551 3.70002 187.601 4.01002L189.721 3.74002L189.821 4.40002L187.65 4.67002C187.67 5.06002 187.751 5.46002 187.891 5.86002C188.211 5.60002 188.531 5.24002 188.851 4.78002L189.381 5.13002C189.031 5.65002 188.631 6.11002 188.161 6.51002C188.301 6.74002 188.441 6.92002 188.571 7.05002C188.701 7.18002 188.79 7.24002 188.84 7.24002C188.88 7.24002 188.911 7.23002 188.941 7.20002C188.971 7.17002 189.021 7.05002 189.081 6.84002C189.151 6.63002 189.2 6.41002 189.23 6.18002L189.84 6.48002L189.831 6.49002ZM189.23 1.67002L188.801 2.17002C188.511 1.92002 188.181 1.70002 187.801 1.52002L188.251 1.02002C188.631 1.22002 188.96 1.44002 189.23 1.68002V1.67002Z" fill="black"/>
<path d="M197.791 7.74007H190.811V7.02007H193.681V0.950073H194.431V3.35007H197.451V4.05007H194.431V7.02007H197.791V7.74007Z" fill="black"/>
<path d="M198.18 13.64C198.08 13.98 197.97 14.33 197.84 14.68L197.64 15.15V19.67H197.3V15.88C197.06 16.28 196.87 16.57 196.71 16.76L196.45 16.47C197 15.78 197.47 14.79 197.84 13.51L198.17 13.64H198.18ZM202.63 19.09L202.41 19.39C201.99 19.19 201.53 18.84 201.01 18.33C201.01 18.48 201.02 18.6 201.02 18.68C201.02 18.97 200.98 19.19 200.91 19.33C200.84 19.47 200.73 19.56 200.6 19.61C200.47 19.65 200.22 19.67 199.87 19.67C199.76 19.67 199.66 19.67 199.58 19.67L199.48 19.32C200.06 19.33 200.4 19.32 200.51 19.26C200.62 19.21 200.67 19.02 200.67 18.72C200.67 18.59 200.67 18.42 200.64 18.22C200.07 18.66 199.24 19.05 198.16 19.38L197.93 19.09C199.06 18.77 199.93 18.37 200.54 17.87C200.53 17.79 200.47 17.65 200.38 17.43C199.8 17.86 199.05 18.2 198.13 18.45L197.95 18.15C198.91 17.89 199.66 17.56 200.21 17.14C200.14 17.03 200.05 16.92 199.94 16.83C199.45 17.09 198.83 17.31 198.07 17.5L197.9 17.17C198.68 17.02 199.39 16.76 200.01 16.39H198.57V15.17C198.44 15.28 198.3 15.38 198.15 15.48L197.97 15.16C198.79 14.56 199.36 14.01 199.68 13.51L200 13.69C199.93 13.8 199.86 13.91 199.79 14.01H201.53V14.33C201.35 14.56 201.14 14.79 200.91 15.04H202.21V16.38H200.59C200.46 16.48 200.34 16.57 200.24 16.63C200.48 16.88 200.67 17.18 200.8 17.51C201.22 17.3 201.64 17.02 202.08 16.66L202.34 16.9C201.98 17.22 201.53 17.52 201 17.81C201.52 18.39 202.07 18.81 202.64 19.1L202.63 19.09ZM201.06 14.33H199.51C199.25 14.6 198.99 14.84 198.75 15.04H200.42C200.67 14.78 200.88 14.54 201.06 14.33ZM200.23 16.08V15.35H198.92V16.08H200.23ZM201.87 16.08V15.35H200.57V16.08H201.87Z" fill="#AA8420" stroke="#AA8420" stroke-width="0.1" stroke-miterlimit="10"/>
<path d="M209.61 15.94H206.68C206.21 16.3 205.7 16.58 205.14 16.77L206.23 16.74C206.93 16.71 207.29 16.69 207.32 16.67C207.58 16.54 207.86 16.37 208.18 16.17L208.47 16.39C207.32 17.14 206.16 17.63 205 17.87C206.21 17.84 207.38 17.78 208.52 17.67C208.36 17.49 208.17 17.32 207.97 17.16L208.28 16.95C208.77 17.38 209.17 17.82 209.51 18.27L209.24 18.5C209.08 18.29 208.94 18.12 208.83 18C208.09 18.06 207.4 18.1 206.76 18.13V19.18C206.76 19.38 206.7 19.51 206.59 19.58C206.48 19.65 206.25 19.69 205.91 19.69C205.83 19.69 205.76 19.69 205.68 19.69L205.59 19.33C205.72 19.35 205.86 19.36 205.98 19.36C206.16 19.36 206.28 19.34 206.32 19.31C206.36 19.28 206.38 19.23 206.38 19.18V18.16C205.76 18.18 204.96 18.19 203.99 18.19L203.95 17.87C204.91 17.66 205.82 17.37 206.69 17.02C206.2 17.07 205.64 17.1 205.01 17.1C204.83 17.1 204.65 17.1 204.46 17.1L204.43 16.79C205 16.6 205.56 16.33 206.09 15.99H203.51V15.67H206.37V15.1H204.2V14.78H206.37V14.29H203.82V13.97H206.37V13.61H206.76V13.97H209.27V14.29H206.76V14.78H208.84V15.1H206.76V15.67H209.6V15.99L209.61 15.94ZM205.61 18.61C205.18 18.95 204.58 19.28 203.8 19.59L203.57 19.28C204.28 19.03 204.87 18.72 205.35 18.35L205.61 18.61ZM209.49 19.31L209.25 19.6C208.71 19.21 208.11 18.88 207.46 18.62L207.69 18.32C208.39 18.6 208.99 18.94 209.49 19.31Z" fill="#AA8420" stroke="#AA8420" stroke-width="0.1" stroke-miterlimit="10"/>
</svg>
