<svg width="417" height="32" viewBox="0 0 417 32" fill="none" xmlns="http://www.w3.org/2000/svg">
<path d="M67.4996 6.80005C67.5996 6.60005 67.6996 6.30005 67.6996 6.30005H59.0996C59.0996 6.30005 59.1996 6.70005 59.2996 6.80005H67.4996Z" fill="#A68238"/>
<path d="M67.0004 7.59995C67.2004 7.49995 67.3004 7.19995 67.3004 7.19995H59.4004C59.4004 7.19995 59.4004 7.39995 59.7004 7.59995H67.0004Z" fill="#A68238"/>
<path d="M66.3 8.1999C66.5 8.0999 66.7 7.8999 66.7 7.8999H60C60 7.8999 60.2 8.0999 60.3 8.1999H66.4H66.3Z" fill="#A68238"/>
<path d="M65.6002 8.8001C65.8002 8.8001 66.0002 8.6001 66.0002 8.6001H60.7002C60.7002 8.6001 60.7002 8.6001 61.1002 8.8001H65.6002Z" fill="#A68238"/>
<path d="M61.7002 9.19995C61.7002 9.19995 62.2002 9.49995 63.3002 9.49995C64.4002 9.49995 65.1002 9.19995 65.1002 9.19995H61.7002Z" fill="#A68238"/>
<path d="M61.6002 9.9999C61.6002 9.9999 62.3002 9.9999 62.7002 10.2999C63.1002 10.5999 63.4002 11.1999 63.4002 11.1999C63.4002 11.1999 63.6002 10.6999 64.0002 10.3999C64.4002 10.0999 65.0002 9.9999 65.0002 9.9999H71.8002L73.1002 11.9999H67.0002C67.0002 11.9999 66.6002 11.9999 65.9002 12.3999C65.6002 12.5999 65.3002 12.8999 65.3002 12.8999C65.3002 12.8999 65.3002 13.0999 65.2002 13.0999C65.1002 13.0999 65.1002 13.2999 65.0002 13.2999H61.8002C61.8002 13.2999 61.7002 13.2999 61.6002 13.0999C61.6002 12.9999 61.6002 13.0999 61.6002 12.8999C61.6002 12.8999 61.4002 12.5999 60.9002 12.2999C60.4002 11.9999 59.9002 11.8999 59.9002 11.8999H53.7002L55.0002 9.8999H61.7002L61.6002 9.9999Z" fill="#003873"/>
<path d="M56.7998 12.8V22.9C56.7998 22.9 56.7998 23.8 57.5998 25C58.3998 26.2 59.3998 26.8 59.3998 26.8L60.2998 25.5C60.2998 25.5 59.4998 25.1 58.9998 24.2C58.4998 23.3 58.4998 22.6 58.4998 22.6V12.8H56.8998H56.7998Z" fill="#003873"/>
<path d="M68.3 12.7V22.5C68.3 22.5 68.2 23.5 67.7 24.2C67.2 24.9 66.5 25.5 66.5 25.5L67.3 26.8C67.3 26.8 68.5 25.9 69.1 24.9C69.7 23.9 69.9 22.5 69.9 22.5V12.7H68.3Z" fill="#003873"/>
<path d="M54.2998 12.8V23C54.2998 23 54.3998 24.6 55.3998 26.2C56.3998 27.8 58.1998 29 58.1998 29L58.9998 27.7C58.9998 27.7 57.8998 27.1 56.9998 25.7C56.0998 24.3 55.9998 23 55.9998 23V12.9H54.2998V12.8Z" fill="#003873"/>
<path d="M61.6004 13.8V24.5C61.6004 24.5 61.6004 24.5 61.6004 24.7C61.6004 24.9 61.5004 25 61.5004 25L57.9004 30.9H68.9004L65.3004 24.8V24.5C65.2004 24.5 65.1004 24.2 65.1004 24.2V13.7H63.8004V24.6C63.8004 24.6 63.8004 24.8 63.8004 24.9C63.8004 25 63.9004 25.2 63.9004 25.2L66.1004 28.8H60.5004L62.7004 25.2C62.7004 25.2 62.7004 25.1 62.8004 24.9C62.8004 24.7 62.8004 24.6 62.8004 24.6V13.7H61.5004L61.6004 13.8Z" fill="#A68238"/>
<path d="M70.7998 12.7V22.7C70.7998 22.7 70.7998 24 69.7998 25.5C68.8998 27 67.7998 27.6 67.7998 27.6L68.5998 29C68.5998 29 70.1998 28 71.2998 26.3C72.2998 24.7 72.3998 22.7 72.3998 22.7V12.7H70.7998Z" fill="#003873"/>
<path d="M59 6.0001C59 6.0001 58.5 3.0001 60.7 1.5001C60.7 1.5001 61.7 0.600098 63.3 0.600098C64.9 0.600098 66 1.5001 66 1.5001C68.4 3.3001 67.7 6.0001 67.7 6.0001H59Z" fill="#A68238"/>
<path d="M79.7 15.7001C80.1 15.6001 80.4 15.5001 80.5 15.4001V19.7001H81.4V19.2001H86.3V19.7001H87.2V15.4001C87.3 15.4001 87.5 15.5001 87.6 15.6001C87.8 15.6001 87.9 15.7001 88 15.8001L88.4 14.9001C87 14.6001 85.9 14.1001 85.1 13.4001H88.3V12.6001H84.1V11.8001C85.4 11.7001 86.5 11.5001 87.4 11.4001L87 10.6001C85.7 10.9001 83.7 11.1001 81 11.1001C78.3 11.1001 80 11.1001 79.6 11.1001L79.9 12.0001C80.6 12.0001 81.6 12.0001 83.1 12.0001V12.8001H79V13.6001H82.1C81.2 14.4001 80.2 14.9001 79 15.2001L79.5 16.1001L79.7 15.7001ZM86.4 18.4001H81.5V17.5001H86.4V18.4001ZM84.3 13.3001C84.9 14.1001 85.7 14.7001 86.7 15.1001H84.3V13.3001ZM86.4 16.0001V16.8001H81.5V16.0001H86.4ZM83.4 13.3001V15.1001H81.1C82 14.7001 82.8 14.1001 83.4 13.3001Z" fill="#003873"/>
<path d="M98.5004 14.1001C98.0004 13.7001 97.5004 13.4001 97.0004 13.1001L96.4004 13.8001C96.8004 14.1001 97.2004 14.4001 97.8004 14.9001L98.5004 14.0001V14.1001Z" fill="#003873"/>
<path d="M96.2998 18.7L97.0998 19.5C97.6998 18.6 98.0998 17.6 98.3998 16.5L97.4998 16C97.2998 16.9 96.8998 17.8 96.2998 18.6V18.7Z" fill="#003873"/>
<path d="M104.2 18.2001C104.2 18.4001 104 18.5001 103.7 18.5001H100.8C100.6 18.5001 100.5 18.4001 100.5 18.2001V17.6001H103.7V15.6001C104.1 16.0001 104.6 16.3001 105.2 16.7001L105.6 15.8001C104.5 15.3001 103.9 14.7001 103.6 14.2001H105.5V13.4001H103.7V12.4001H105.3V11.6001H103.7V10.6001H102.8V11.6001H101V10.6001H100.1V11.6001H98.8002C98.4002 11.4001 97.9002 11.1001 97.4002 10.7001L96.7002 11.4001C97.1002 11.7001 97.6002 12.1001 98.2002 12.6001L98.8002 11.8001V12.3001H100.1V13.3001H98.6002V14.1001H100.2C99.9002 14.7001 99.2002 15.3001 98.1002 15.8001L98.7002 16.6001C99.1002 16.3001 99.4002 16.1001 99.6002 16.0001V18.2001C99.6002 18.7001 99.6002 19.0001 99.8002 19.1001C100 19.2001 100.3 19.3001 100.7 19.3001H103.9C104.4 19.3001 104.7 19.3001 104.9 19.0001C105.1 18.8001 105.2 18.3001 105.3 17.4001L104.4 17.0001C104.4 17.5001 104.4 17.9001 104.2 18.1001V18.2001ZM101 12.3001H102.8V13.3001H101V12.3001ZM101.2 14.1001H102.5C102.7 14.5001 102.9 14.7001 103.1 15.0001H100.6C100.8 14.7001 101 14.4001 101.2 14.1001ZM100.4 15.8001H102.7V16.8001H100.4V15.8001Z" fill="#003873"/>
<path d="M121.8 19.6999V16.8999H122.7V15.7999L121.8 15.9999V10.3999H120.9V16.0999L117.6 16.5999V17.4999L120.9 16.9999V19.6999H121.8Z" fill="#003873"/>
<path d="M115.3 19.7H116.2V15.1C116.4 15.3 116.5 15.6 116.7 15.8C116.9 16 117.1 16.3 117.3 16.6L117.8 15.8C117.4 15.4 116.9 14.8 116.1 14.2H117.6V13.4H116.1V12C116.6 11.9 117.1 11.8 117.6 11.6L117.3 10.8C116.2 11.2 115 11.4 113.5 11.5L113.7 12.3C114.4 12.3 114.9 12.2 115.2 12.1V13.3H113.4V14.2H115.2C114.8 15.3 114.2 16.3 113.3 17.3L113.9 18.2C114.6 17.3 115 16.6 115.2 16V20.1L115.3 19.7Z" fill="#003873"/>
<path d="M120.3 14.7C119.6 14.1 119 13.7 118.5 13.5L117.9 14.2C118.4 14.5 119 15 119.7 15.5L120.3 14.7Z" fill="#003873"/>
<path d="M120.5 12.3001C119.7 11.7001 119.1 11.3001 118.7 11.1001L118.1 11.7001C118.6 12.0001 119.1 12.4001 119.9 13.0001L120.5 12.3001Z" fill="#003873"/>
<path d="M132.9 18.4V16C133.5 15.8 133.9 15.7 134.1 15.6V14.6C133.9 14.7 133.5 14.9 132.9 15V13.2H134.1V12.6H136.2V13.9H134.2V14.8H138.1C137.8 15.6 137.3 16.3 136.7 16.8C136.2 16.3 135.8 15.7 135.3 14.9L134.5 15.2C135 16.1 135.5 16.8 136 17.3C135 17.9 134.1 18.4 133.1 18.6L133.7 19.5C134.6 19.3 135.6 18.8 136.7 18C137.5 18.7 138.3 19.2 139.2 19.5L139.7 18.6C138.9 18.4 138.1 18 137.5 17.4C137.9 17.1 138.2 16.6 138.6 16C138.9 15.4 139.2 15 139.2 14.6V13.8H137.2V12.5H139.5V11.6H137.2V10.2H136.2V11.6H134.1V12.2H132.9V10.2H131.9V12.2H130.4V13.1H131.9V15.1C131.4 15.2 130.9 15.3 130.3 15.4L130.5 16.5C130.8 16.5 131.3 16.3 131.8 16.2V18.2C131.8 18.4 131.7 18.5 131.5 18.5H130.6L130.8 19.5H131.6C132.1 19.5 132.4 19.5 132.5 19.3C132.6 19.2 132.7 18.8 132.7 18.4H132.9Z" fill="#003873"/>
<path d="M147.4 18.6999L148.2 19.5999C150.4 18.0999 151.7 16.1999 152.2 13.7999H152.4C153.1 16.4999 154.3 18.3999 156.1 19.5999L156.9 18.6999C155.9 18.0999 155.1 17.2999 154.6 16.3999C154 15.4999 153.7 14.6999 153.5 13.8999H156.7V12.8999H152.5C152.5 12.3999 152.5 11.5999 152.5 10.3999H151.5C151.5 11.4999 151.5 12.2999 151.4 12.8999H147.8V13.9999H151.2C151 14.8999 150.6 15.7999 150 16.6999C149.3 17.5999 148.5 18.2999 147.6 18.7999L147.4 18.6999Z" fill="#003873"/>
<path d="M173.9 17.3H169.8C170.7 17 171.4 16.8 171.9 16.4V15.7H166.4V16.4H170.6C169.9 16.6 169.3 16.8 168.9 16.8V17.2H164.6V18H168.9V18.4C168.9 18.6 168.9 18.7 168.6 18.7H167.2L167.4 19.5H168.9C169.5 19.5 169.8 19.1 169.8 18.4V18H173.9V17.2V17.3Z" fill="#003873"/>
<path d="M170.1 12.3C169.8 12.6 169.6 12.8 169.4 12.9C169.3 12.8 169.1 12.7 169 12.6C168.9 12.6 168.8 12.5 168.6 12.4L168.1 12.8C168.4 13 168.6 13.2 168.8 13.3C168.6 13.4 168.2 13.6 167.8 13.7L168.2 14.4C168.7 14.2 169.1 14.1 169.4 13.8C169.4 13.8 169.6 14 169.9 14.4L170.5 13.9C170.3 13.7 170.1 13.5 169.9 13.4C170.1 13.3 170.3 13.1 170.6 12.8L170.1 12.3Z" fill="#003873"/>
<path d="M167.7 11.7L168.2 12.4C168.6 12.2 169 12 169.4 11.8C169.4 11.8 169.6 12 169.9 12.4L170.5 11.9C170.3 11.7 170.1 11.5 170 11.4C170.2 11.2 170.4 11.1 170.6 10.9L170.1 10.5C170 10.7 169.8 10.8 169.5 11C169.2 10.8 169 10.6 168.7 10.5L168.2 11C168.5 11.2 168.7 11.3 168.9 11.5C168.7 11.6 168.4 11.8 167.8 11.9L167.7 11.7Z" fill="#003873"/>
<path d="M165.6 15.3H172.8V16.8H173.7V14.6H173.2V10.7C173.3 10.7 170.9 10.7 170.9 10.7V11.5H172.5V12H171V12.7H172.4V13.3H171V14H172.4V14.7H166.2V14H167.7V13.3H166.2V12.7H167.7V12H166.1V11.5C166.9 11.5 167.5 11.4 167.8 11.2L167.4 10.5C166.8 10.7 166.1 10.8 165.2 10.8V14.6C165.3 14.6 164.8 14.6 164.8 14.6V16.8H165.7V15.3H165.6Z" fill="#003873"/>
<path d="M79.5004 24.4001H81.2004V30.9001H82.1004V24.4001H83.8004V23.6001H79.4004V24.4001H79.5004Z" fill="#003873"/>
<path d="M88.9996 26.5001H85.4996V23.6001H84.5996V30.9001H85.4996V27.4001H88.9996V30.9001H89.8996V23.6001H88.9996V26.5001Z" fill="#003873"/>
<path d="M91.2998 30.8001H95.1998V30.0001H92.1998V27.2001H95.0998V26.4001H92.1998V24.4001H95.1998V23.6001H91.2998V30.9001V30.8001Z" fill="#003873"/>
<path d="M103.6 26.5001H100.1V23.6001H99.2002V30.9001H100.1V27.4001H103.6V30.9001H104.5V23.6001H103.6V26.5001Z" fill="#003873"/>
<path d="M109.3 23.3999C107.2 23.3999 105.5 25.0999 105.5 27.1999C105.5 29.2999 107.2 30.9999 109.3 30.9999C111.4 30.9999 113.1 29.3999 113.1 27.1999C113.1 24.9999 111.4 23.3999 109.3 23.3999ZM109.3 30.0999C107.7 30.0999 106.4 28.7999 106.4 27.1999C106.4 25.5999 107.6 24.1999 109.3 24.1999C111 24.1999 112.2 25.4999 112.2 27.1999C112.2 28.8999 110.9 30.0999 109.3 30.0999Z" fill="#003873"/>
<path d="M119.5 28.9L114 23.2V30.7999H114.9V25.4L120.4 31.1V23.5H119.5V28.9Z" fill="#003873"/>
<path d="M125.5 27.9999H127.4C127.4 29.1999 126.1 30.1999 125 30.1999C123.9 30.1999 122.2 28.6999 122.2 27.1999C122.2 25.6999 123.5 24.1999 125.1 24.1999C126.7 24.1999 126.9 24.6999 127.4 25.3999L128 24.7999C127.3 23.8999 126.2 23.3999 125 23.3999C122.9 23.3999 121.2 25.0999 121.2 27.1999C121.2 29.2999 122.8 30.9999 124.9 30.9999C127 30.9999 128.3 29.4999 128.3 27.4999V27.1999H125.4V27.9999H125.5Z" fill="#003873"/>
<path d="M137.4 23.5H136.2L133.1 26.7V23.5H132.2V30.8H133.1V27.8L133.5 27.4L136.2 30.8H137.4L134.1 26.8L137.4 23.5Z" fill="#003873"/>
<path d="M141.5 23.3999C139.4 23.3999 137.7 25.0999 137.7 27.1999C137.7 29.2999 139.4 30.9999 141.5 30.9999C143.6 30.9999 145.3 29.3999 145.3 27.1999C145.3 24.9999 143.6 23.3999 141.5 23.3999ZM141.5 30.0999C139.9 30.0999 138.6 28.7999 138.6 27.1999C138.6 25.5999 139.8 24.1999 141.5 24.1999C143.2 24.1999 144.4 25.4999 144.4 27.1999C144.4 28.8999 143.1 30.0999 141.5 30.0999Z" fill="#003873"/>
<path d="M151.6 28.9L146.1 23.2V30.7999H147V25.4L152.5 31.1V23.5H151.6V28.9Z" fill="#003873"/>
<path d="M157.7 27.9999H159.6C159.6 29.1999 158.3 30.1999 157.2 30.1999C156.1 30.1999 154.4 28.6999 154.4 27.1999C154.4 25.6999 155.7 24.1999 157.3 24.1999C158.9 24.1999 159.1 24.6999 159.6 25.3999L160.2 24.7999C159.5 23.8999 158.4 23.3999 157.2 23.3999C155.1 23.3999 153.4 25.0999 153.4 27.1999C153.4 29.2999 155 30.9999 157.1 30.9999C159.2 30.9999 160.5 29.4999 160.5 27.4999V27.1999H157.6V27.9999H157.7Z" fill="#003873"/>
<path d="M168.8 27.8C168.8 29 168.4 30.1 167 30.1C165.6 30.1 165.2 29 165.2 27.8V23.5H164.3V28.1C164.3 29.7 165.3 30.9 167 30.9C168.7 30.9 169.7 29.7 169.7 28.1V23.5H168.8V27.8Z" fill="#003873"/>
<path d="M176.4 28.9L170.9 23.2V30.7999H171.8V25.4L177.3 31.1V23.5H176.4V28.9Z" fill="#003873"/>
<path d="M179.6 23.5H178.7V30.8H179.6V23.5Z" fill="#003873"/>
<path d="M183.4 28.9L181.2 23.5H180.2L183.4 31.2L186.6 23.5H185.6L183.4 28.9Z" fill="#003873"/>
<path d="M187.3 30.8001H191.2V30.0001H188.2V27.2001H191.1V26.4001H188.2V24.4001H191.2V23.6001H187.3V30.9001V30.8001Z" fill="#003873"/>
<path d="M196.4 25.6001C196.4 24.9001 196 24.2001 195.4 23.9001C194.8 23.6001 194.1 23.6001 193.5 23.6001H192.4V30.9001H193.3V27.8001H193.7L195.8 30.9001H196.9L194.6 27.7001C195.7 27.6001 196.4 26.7001 196.4 25.7001V25.6001ZM193.6 27.0001H193.3V24.4001H193.5C194.4 24.4001 195.5 24.6001 195.5 25.7001C195.5 26.8001 194.5 27.0001 193.6 27.0001Z" fill="#003873"/>
<path d="M200.2 26.5L199.7 26.3C199.2 26.1 198.7 25.8 198.7 25.3C198.7 24.8 199.3 24.3 199.9 24.3C200.5 24.3 200.8 24.5 201.1 25L201.8 24.6C201.4 23.9 200.7 23.5 199.9 23.5C199.1 23.5 197.7 24.2 197.7 25.4C197.7 26.6 198.5 26.9 199.3 27.3L199.8 27.5C200.4 27.8 201.1 28.1 201.1 28.9C201.1 29.7 200.5 30.3 199.8 30.3C199.1 30.3 198.4 29.7 198.4 28.9L197.5 29.1C197.6 30.3 198.6 31.1 199.7 31.1C200.8 31.1 202 30.1 202 28.8C202 27.5 201.2 27 200.2 26.6V26.5Z" fill="#003873"/>
<path d="M203.9 23.5H203V30.8H203.9V23.5Z" fill="#003873"/>
<path d="M204.7 24.4001H206.4V30.9001H207.3V24.4001H209V23.6001H204.6V24.4001H204.7Z" fill="#003873"/>
<path d="M212 26.6L210.2 23.5H209.2L211.6 27.6V30.8H212.5V27.6L214.9 23.5H213.8L212 26.6Z" fill="#003873"/>
<path d="M221.7 23.3999C219.6 23.3999 217.9 25.0999 217.9 27.1999C217.9 29.2999 219.6 30.9999 221.7 30.9999C223.8 30.9999 225.5 29.3999 225.5 27.1999C225.5 24.9999 223.8 23.3999 221.7 23.3999ZM221.7 30.0999C220.1 30.0999 218.8 28.7999 218.8 27.1999C218.8 25.5999 220 24.1999 221.7 24.1999C223.4 24.1999 224.6 25.4999 224.6 27.1999C224.6 28.8999 223.3 30.0999 221.7 30.0999Z" fill="#003873"/>
<path d="M226.5 30.8001H227.4V27.2001H229.9V26.4001H227.4V24.4001H230V23.6001H226.5V30.9001V30.8001Z" fill="#003873"/>
<path d="M236.5 26.5L236 26.3C235.6 26.1 235 25.8 235 25.3C235 24.8 235.6 24.3 236.2 24.3C236.8 24.3 237.1 24.5 237.4 25L238.1 24.6C237.7 23.9 237 23.5 236.2 23.5C235.4 23.5 234.1 24.2 234.1 25.4C234.1 26.6 234.9 26.9 235.7 27.3L236.2 27.5C236.8 27.8 237.5 28.1 237.5 28.9C237.5 29.7 236.9 30.3 236.2 30.3C235.5 30.3 234.8 29.7 234.8 28.9L233.9 29.1C234.1 30.3 235 31.1 236.1 31.1C237.2 31.1 238.4 30.1 238.4 28.8C238.4 27.5 237.6 27 236.6 26.6L236.5 26.5Z" fill="#003873"/>
<path d="M238.9 27.2001C238.9 29.3001 240.6 31 242.7 31C244.8 31 244.1 30.8 244.6 30.5V29.4C244.1 29.9 243.4 30.2001 242.7 30.2001C241.1 30.2001 239.8 28.8001 239.8 27.2001C239.8 25.6001 241 24.2001 242.7 24.2001C244.4 24.2001 244.1 24.4 244.6 24.9V23.8C244 23.5 243.4 23.3 242.8 23.3C240.7 23.3 238.9 25.0001 238.9 27.1V27.2001Z" fill="#003873"/>
<path d="M246.7 23.5H245.8V30.8H246.7V23.5Z" fill="#003873"/>
<path d="M248.2 30.8001H252.1V30.0001H249.1V27.2001H252V26.4001H249.1V24.4001H252.1V23.6001H248.2V30.9001V30.8001Z" fill="#003873"/>
<path d="M258.7 28.9L253.2 23.2V30.7999H254.1V25.4L259.6 31.1V23.5H258.7V28.9Z" fill="#003873"/>
<path d="M260.6 27.2001C260.6 29.3001 262.3 31 264.4 31C266.5 31 265.8 30.8 266.3 30.5V29.4C265.8 29.9 265.1 30.2001 264.4 30.2001C262.8 30.2001 261.5 28.8001 261.5 27.2001C261.5 25.6001 262.7 24.2001 264.4 24.2001C266.1 24.2001 265.8 24.4 266.3 24.9V23.8C265.7 23.5 265.1 23.3 264.5 23.3C262.4 23.3 260.6 25.0001 260.6 27.1V27.2001Z" fill="#003873"/>
<path d="M267.5 30.8001H271.4V30.0001H268.4V27.2001H271.3V26.4001H268.4V24.4001H271.4V23.6001H267.5V30.9001V30.8001Z" fill="#003873"/>
<path d="M274.7 30.7999H275.7L276.5 29H279.8L280.6 30.7999H281.6L278.1 23.2L274.6 30.7999H274.7ZM276.9 28.2L278.2 25.2L279.5 28.2H276.9Z" fill="#003873"/>
<path d="M287.7 28.9L282.2 23.2V30.7999H283.1V25.4L288.6 31.1V23.5H287.7V28.9Z" fill="#003873"/>
<path d="M291.5 23.5H290V30.8H291.5C293.8 30.8 295.6 29.6 295.6 27.1C295.6 24.6 293.7 23.5 291.5 23.5ZM291.2 30H290.9V24.4H291.2C293.1 24.4 294.7 25.1 294.7 27.2C294.7 29.3 293.1 30 291.2 30Z" fill="#003873"/>
<path d="M298.8 24.4001H300.5V30.9001H301.4V24.4001H303.1V23.6001H298.7V24.4001H298.8Z" fill="#003873"/>
<path d="M304 30.8001H307.9V30.0001H304.9V27.2001H307.8V26.4001H304.9V24.4001H307.9V23.6001H304V30.9001V30.8001Z" fill="#003873"/>
<path d="M308.7 27.2001C308.7 29.3001 310.4 31 312.5 31C314.6 31 313.8 30.8 314.4 30.5V29.4C313.9 29.9 313.2 30.2001 312.5 30.2001C310.9 30.2001 309.6 28.8001 309.6 27.2001C309.6 25.6001 310.8 24.2001 312.5 24.2001C314.2 24.2001 313.9 24.4 314.4 24.9V23.8C313.8 23.5 313.2 23.3 312.6 23.3C310.5 23.3 308.7 25.0001 308.7 27.1V27.2001Z" fill="#003873"/>
<path d="M319.9 26.5001H316.4V23.6001H315.5V30.9001H316.4V27.4001H319.9V30.9001H320.8V23.6001H319.9V26.5001Z" fill="#003873"/>
<path d="M327.6 28.9L322.1 23.2V30.7999H323V25.4L328.5 31.1V23.5H327.6V28.9Z" fill="#003873"/>
<path d="M333.2 23.3999C331.1 23.3999 329.4 25.0999 329.4 27.1999C329.4 29.2999 331.1 30.9999 333.2 30.9999C335.3 30.9999 337 29.3999 337 27.1999C337 24.9999 335.3 23.3999 333.2 23.3999ZM333.2 30.0999C331.6 30.0999 330.3 28.7999 330.3 27.1999C330.3 25.5999 331.5 24.1999 333.2 24.1999C334.9 24.1999 336.1 25.4999 336.1 27.1999C336.1 28.8999 334.8 30.0999 333.2 30.0999Z" fill="#003873"/>
<path d="M338.9 23.5H338V30.8H341.1V30H338.9V23.5Z" fill="#003873"/>
<path d="M345.1 23.3999C343 23.3999 341.3 25.0999 341.3 27.1999C341.3 29.2999 343 30.9999 345.1 30.9999C347.2 30.9999 348.9 29.3999 348.9 27.1999C348.9 24.9999 347.2 23.3999 345.1 23.3999ZM345.1 30.0999C343.5 30.0999 342.2 28.7999 342.2 27.1999C342.2 25.5999 343.4 24.1999 345.1 24.1999C346.8 24.1999 348 25.4999 348 27.1999C348 28.8999 346.7 30.0999 345.1 30.0999Z" fill="#003873"/>
<path d="M353.6 27.9999H355.5C355.5 29.1999 354.2 30.1999 353.1 30.1999C352 30.1999 350.3 28.6999 350.3 27.1999C350.3 25.6999 351.6 24.1999 353.2 24.1999C354.8 24.1999 355 24.6999 355.5 25.3999L356.1 24.7999C355.4 23.8999 354.3 23.3999 353.1 23.3999C351 23.3999 349.3 25.0999 349.3 27.1999C349.3 29.2999 350.9 30.9999 353 30.9999C355.1 30.9999 356.5 29.4999 356.5 27.4999V27.1999H353.6V27.9999Z" fill="#003873"/>
<path d="M361.4 23.5L359.6 26.6L357.8 23.5H356.8L359.2 27.6V30.8H360.1V27.6L362.5 23.5H361.5H361.4Z" fill="#003873"/>
<path d="M42.8 31.2001H35.5V0.600098H42.8V0.800098H35.7V30.9001H42.8V31.1001V31.2001Z" fill="#231815"/>
<path d="M380.4 31.2H373.1V31H380.2V0.899951H373.1V0.699951H380.4V31.2999V31.2Z" fill="#231815"/>
<path d="M10.5998 23.1C10.8998 23.4 10.9998 23.8 10.9998 24.2C10.9998 24.6 10.7998 25.3 10.2998 25.6C9.7998 25.9 9.1998 26.1 8.3998 26.1C7.5998 26.1 6.9998 25.9 6.4998 25.6C5.9998 25.2 5.7998 24.8 5.7998 24.2C5.7998 23.6 5.8998 23.4 6.1998 23.1C6.4998 22.8 6.7998 22.6 7.2998 22.5C6.8998 22.4 6.4998 22.2 6.2998 21.9C6.0998 21.6 5.9998 21.3 5.9998 20.9C5.9998 20.5 6.0998 20.2 6.2998 19.9C6.4998 19.6 6.7998 19.4 7.0998 19.2C7.4998 19 7.8998 19 8.3998 19C8.8998 19 9.2998 19 9.5998 19.2C9.9998 19.4 10.2998 19.6 10.3998 19.9C10.5998 20.2 10.6998 20.5 10.6998 20.9C10.6998 21.3 10.5998 21.6 10.2998 21.9C10.0998 22.2 9.6998 22.4 9.2998 22.5C9.7998 22.6 10.0998 22.8 10.3998 23.2L10.5998 23.1ZM9.6998 25.2C9.9998 25 10.0998 24.6 10.0998 24.2C10.0998 23.8 9.8998 23.5 9.5998 23.3C9.2998 23.1 8.8998 22.9 8.2998 22.9C7.7998 22.9 7.3998 23.1 6.9998 23.3C6.6998 23.5 6.4998 23.8 6.4998 24.2C6.4998 24.6 6.6998 25 6.9998 25.2C7.2998 25.4 7.6998 25.5 8.2998 25.5C8.8998 25.5 9.2998 25.4 9.5998 25.2H9.6998ZM7.2998 21.8C7.5998 22 7.9998 22.2 8.3998 22.2C8.8998 22.2 9.2998 22 9.4998 21.8C9.7998 21.6 9.8998 21.3 9.8998 20.9C9.8998 20.5 9.7998 20.2 9.4998 20C9.1998 19.8 8.7998 19.7 8.3998 19.7C7.9998 19.7 7.4998 19.8 7.2998 20C6.9998 20.2 6.8998 20.5 6.8998 20.9C6.8998 21.3 6.9998 21.6 7.2998 21.8Z" fill="#AA8420"/>
<path d="M389.9 24.2001H388.8V25.8001H388V24.2001H384.7V23.6001L388.1 18.6001H388.8V23.5001H389.9V24.2001ZM388 23.5001V20.0001L385.6 23.5001H388Z" fill="#AA8420"/>
<path d="M391.4 24.9001C391 24.3001 390.8 23.4001 390.8 22.2001C390.8 21.0001 391 20.1001 391.4 19.5001C391.8 18.9001 392.4 18.6001 393.2 18.6001C394 18.6001 394.6 18.9001 395.1 19.5001C395.5 20.1001 395.7 21.0001 395.7 22.2001C395.7 23.4001 395.5 24.3001 395.1 24.9001C394.7 25.5001 394.1 25.8001 393.2 25.8001C392.3 25.8001 391.8 25.5001 391.4 24.9001ZM394.5 24.4001C394.8 23.9001 394.9 23.2001 394.9 22.2001C394.9 21.2001 394.8 20.4001 394.5 20.0001C394.2 19.5001 393.8 19.3001 393.2 19.3001C392.6 19.3001 392.2 19.5001 392 20.0001C391.8 20.5001 391.6 21.2001 391.6 22.2001C391.6 23.2001 391.7 24.0001 392 24.4001C392.3 24.9001 392.7 25.1001 393.2 25.1001C393.7 25.1001 394.2 24.9001 394.4 24.4001H394.5Z" fill="#AA8420"/>
<path d="M16.0996 7.49985C15.3996 7.79985 14.5996 7.99985 13.7996 8.09985V9.79985H15.8996V10.4999H13.7996V12.4999C14.5996 12.2999 15.3996 11.9999 15.9996 11.7999V12.5999C14.9996 12.9999 13.8996 13.2999 12.7996 13.5999L12.5996 12.8999C12.7996 12.8999 12.8996 12.8999 12.9996 12.8999V7.69985C13.9996 7.59985 14.8996 7.39985 15.6996 7.09985L16.0996 7.69985V7.49985ZM19.3996 12.2999C19.3996 12.4999 19.3996 12.6999 19.1996 12.7999C18.9996 12.8999 18.8996 12.9999 18.7996 12.9999C18.5996 12.9999 18.3996 12.9999 18.0996 12.9999C17.7996 12.9999 17.6996 12.9999 17.5996 12.9999L17.2996 12.1999C17.4996 12.1999 17.7996 12.1999 18.3996 12.1999C18.9996 12.1999 18.5996 12.1999 18.5996 11.9999V7.79985H16.9996V13.7999H16.2996V7.09985H19.3996V12.1999V12.2999Z" fill="black"/>
<path d="M24.8992 9.1999H21.7992V10.2999C21.7992 11.7999 21.5992 13.0999 21.2992 13.9999L20.6992 13.5999C20.9992 12.7999 21.0992 11.8999 21.0992 10.7999V7.0999H24.8992V9.1999ZM24.1992 8.5999V7.7999H21.7992V8.5999H24.1992ZM24.8992 12.7999C24.8992 12.9999 24.8992 13.1999 24.6992 13.1999C24.4992 13.1999 24.3992 13.2999 24.0992 13.1999L23.8992 12.5999C23.8992 12.5999 23.8992 12.5999 23.9992 12.5999C24.1992 12.5999 24.1992 12.5999 24.1992 12.3999V10.7999H23.6992V13.6999H23.0992V10.7999H22.6992V13.1999H22.0992V10.0999H23.1992V9.3999H23.7992V10.0999H24.8992V12.5999V12.7999ZM26.0992 12.4999H25.3992V7.4999H26.0992V12.4999ZM27.3992 13.1999C27.3992 13.4999 27.3992 13.6999 27.1992 13.7999C26.9992 13.7999 26.7992 13.8999 26.3992 13.8999C25.9992 13.8999 25.9992 13.8999 25.8992 13.8999L25.6992 13.1999C25.8992 13.1999 26.0992 13.1999 26.2992 13.1999C26.4992 13.1999 26.5992 13.1999 26.6992 13.1999C26.6992 13.1999 26.6992 13.1999 26.6992 12.9999V6.8999H27.3992V13.1999Z" fill="black"/>
<path d="M20.5996 20.4999H14.6996V20.1999H17.4996C17.4996 19.9999 17.2996 19.8999 17.1996 19.7999L17.4996 19.5999C17.5996 19.7999 17.6996 19.9999 17.7996 20.1999H20.4996V20.4999H20.5996ZM20.5996 24.8999C20.5996 25.1999 20.5996 25.3999 20.3996 25.4999C20.2996 25.5999 20.0996 25.6999 19.9996 25.6999H17.6996C17.4996 25.6999 17.3996 25.6999 17.2996 25.4999C17.1996 25.3999 17.0996 25.1999 17.0996 24.9999V24.7999L14.5996 24.9999V24.6999L17.0996 24.4999V24.0999L14.9996 24.2999V23.9999L17.0996 23.7999V23.3999C16.5996 23.3999 16.0996 23.3999 15.4996 23.3999V23.0999C16.8996 23.0999 18.2996 23.0999 19.2996 22.7999L19.4996 23.0999C18.8996 23.1999 18.1996 23.2999 17.3996 23.3999V23.7999L19.9996 23.5999V23.8999L17.3996 24.0999V24.4999L20.3996 24.2999V24.5999L17.3996 24.7999V25.0999C17.3996 25.0999 17.3996 25.1999 17.3996 25.2999C17.3996 25.2999 17.4996 25.2999 17.5996 25.2999H19.6996C19.9996 25.2999 20.0996 25.0999 20.0996 24.6999H20.3996L20.5996 24.8999ZM20.4996 23.2999H20.0996V22.5999H15.0996V23.2999H14.6996V22.2999H20.4996V23.2999ZM19.8996 21.8999H15.1996V20.8999H19.8996V21.8999ZM19.5996 21.5999V21.1999H15.6996V21.5999H19.5996Z" fill="#AA8420" stroke="#AA8420" stroke-width="0.1" stroke-miterlimit="10"/>
<path d="M23.7 23.3999C23.3 24.1999 22.6 24.8999 21.8 25.4999L21.5 25.1999C22.3 24.5999 22.9 23.9999 23.3 23.1999L23.6 23.3999H23.7ZM27.6 22.4999H24.8V25.7999H24.4V22.4999H21.6V22.0999H24.4V19.5999H24.8V22.0999H27.6V22.4999ZM23.3 21.4999L23 21.6999C22.8 21.2999 22.5 20.7999 22.1 20.2999L22.4 20.0999C22.8 20.5999 23.1 20.9999 23.3 21.4999ZM27.6 25.0999L27.3 25.3999C26.9 24.6999 26.3 23.9999 25.5 23.3999L25.8 23.1999C26.4 23.6999 27 24.3999 27.6 25.1999V25.0999ZM27 20.1999C26.7 20.7999 26.4 21.2999 26.1 21.6999L25.7 21.4999C26 21.1999 26.3 20.6999 26.6 19.9999L26.9 20.1999H27Z" fill="#AA8420" stroke="#AA8420" stroke-width="0.1" stroke-miterlimit="10"/>
<path d="M387.7 12.6C386.7 13 385.8 13.4 385 13.6L384.8 13C385.5 12.8 386.4 12.5 387.5 12L387.7 12.6ZM387.6 8.30005C387.1 9.40005 386.5 10.3 385.9 11.2C386.2 11.2 386.7 10.9 387.3 10.7L387.5 11.4C386.7 11.7 385.9 12 385.1 12.2L384.9 11.6C385.4 11.1 385.8 10.5 386.2 9.80005C385.8 9.80005 385.5 10 385.1 10L384.9 9.40005C385.4 8.70005 385.9 7.90005 386.3 6.80005L386.9 7.00005C386.6 7.80005 386.3 8.50005 385.8 9.10005C386 9.10005 386.3 9.10005 386.6 8.90005C386.8 8.70005 386.9 8.40005 387 8.00005L387.6 8.30005ZM391.9 12.3C391.8 13.3 391.4 13.8 390.9 13.8C390.4 13.8 390.5 13.8 390.3 13.5C390.1 13.3 389.9 13.1 389.7 12.7C389.1 13.1 388.4 13.4 387.6 13.8L387.2 13.2C388.1 12.9 388.8 12.5 389.4 12.1C389.2 11.6 389.1 11.1 389 10.6L387.6 10.8V10.1L389 9.90005C389 9.50005 389 9.20005 389 9.00005H387.9C387.9 9.10005 387.9 8.50005 387.9 8.50005H389C389 8.40005 389 6.80005 389 6.80005H389.7C389.7 7.10005 389.7 7.60005 389.7 8.30005L391.6 8.10005V8.70005L389.7 9.00005C389.7 9.30005 389.7 9.60005 389.7 9.90005L391.8 9.60005V10.3C391.9 10.3 389.7 10.6 389.7 10.6C389.7 11 389.8 11.4 389.9 11.8C390.2 11.5 390.5 11.2 390.9 10.7L391.4 11C391.1 11.5 390.6 12 390.2 12.4C390.3 12.6 390.5 12.8 390.6 12.9C390.7 13 390.8 13.1 390.9 13.1C390.9 13.1 390.9 13 391 12.7C391 12.5 391.1 12.3 391.1 12L391.7 12.3H391.9ZM391.3 7.50005L390.9 8.00005C390.6 7.70005 390.3 7.50005 389.9 7.40005L390.3 6.90005C390.7 7.10005 391 7.30005 391.3 7.60005V7.50005Z" fill="black"/>
<path d="M399.8 13.5H392.8V12.8H395.7V6.69995H396.4V9.09995H399.4V9.79995H396.4V12.8H399.8V13.5Z" fill="black"/>
<path d="M400.599 19.7999C400.599 20.0999 400.399 20.4999 400.299 20.7999L400.099 21.2999V25.7999H399.799V21.9999C399.599 22.3999 399.399 22.6999 399.199 22.8999L398.899 22.5999C399.499 21.8999 399.899 20.8999 400.299 19.5999H400.599V19.7999ZM404.999 25.2999L404.799 25.5999C404.399 25.3999 403.899 24.9999 403.399 24.4999C403.399 24.6999 403.399 24.7999 403.399 24.8999C403.399 25.1999 403.399 25.3999 403.299 25.4999C403.299 25.5999 403.099 25.6999 402.999 25.7999C402.899 25.7999 402.599 25.7999 402.299 25.7999C401.999 25.7999 402.099 25.7999 401.999 25.7999V25.4999C402.499 25.4999 402.799 25.4999 402.899 25.4999C402.999 25.4999 403.099 25.2999 403.099 24.9999C403.099 24.6999 403.099 24.6999 403.099 24.4999C402.499 24.8999 401.699 25.2999 400.599 25.6999L400.399 25.3999C401.499 25.0999 402.399 24.6999 402.999 24.1999C402.999 24.1999 402.999 23.9999 402.799 23.7999C402.199 24.1999 401.499 24.5999 400.599 24.7999L400.399 24.4999C401.399 24.1999 402.099 23.8999 402.699 23.4999C402.699 23.3999 402.499 23.2999 402.399 23.1999C401.899 23.4999 401.299 23.6999 400.499 23.8999L400.299 23.5999C401.099 23.4999 401.799 23.1999 402.399 22.7999H400.999V21.5999C400.899 21.6999 400.699 21.7999 400.599 21.8999L400.399 21.5999C401.199 20.9999 401.799 20.4999 402.099 19.8999L402.399 20.0999C402.399 20.1999 402.299 20.2999 402.199 20.3999H403.899V20.6999C403.699 20.8999 403.499 21.1999 403.299 21.3999H404.599V22.6999H402.999C402.899 22.7999 402.799 22.8999 402.699 22.9999C402.899 23.2999 403.099 23.4999 403.299 23.8999C403.699 23.6999 404.099 23.3999 404.599 22.9999L404.899 23.1999C404.499 23.4999 404.099 23.7999 403.599 24.0999C404.099 24.6999 404.699 25.0999 405.199 25.3999L404.999 25.2999ZM403.499 20.4999H401.999C401.699 20.7999 401.499 20.9999 401.199 21.1999H402.899C403.199 20.8999 403.399 20.6999 403.499 20.4999ZM402.599 22.2999V21.5999H401.299V22.2999H402.599ZM404.299 22.2999V21.5999H402.999V22.2999H404.299Z" fill="#AA8420" stroke="#AA8420" stroke-width="0.1" stroke-miterlimit="10"/>
<path d="M412 22.0999H409.1C408.6 22.4999 408.1 22.6999 407.6 22.8999H408.7C409.4 22.8999 409.8 22.8999 409.8 22.8999C410.1 22.7999 410.3 22.5999 410.7 22.3999L411 22.5999C409.8 23.2999 408.7 23.7999 407.5 24.0999C408.7 24.0999 409.9 24.0999 411 23.8999C410.8 23.6999 410.7 23.5999 410.5 23.3999L410.8 23.1999C411.3 23.5999 411.7 24.0999 412 24.4999L411.7 24.6999C411.5 24.4999 411.4 24.2999 411.3 24.1999C410.6 24.1999 409.9 24.2999 409.2 24.2999V25.2999C409.2 25.4999 409.2 25.5999 409 25.6999C408.9 25.6999 408.7 25.7999 408.3 25.7999C407.9 25.7999 408.1 25.7999 408.1 25.7999V25.3999C408.1 25.3999 408.3 25.3999 408.4 25.3999C408.6 25.3999 408.7 25.3999 408.7 25.3999C408.7 25.3999 408.7 25.3999 408.7 25.2999V24.2999C408.1 24.2999 407.3 24.2999 406.3 24.2999V23.9999C407.2 23.7999 408.1 23.4999 409 23.0999C408.5 23.0999 407.9 23.0999 407.3 23.0999C406.7 23.0999 406.9 23.0999 406.8 23.0999V22.7999C407.3 22.5999 407.9 22.2999 408.4 21.9999H405.8V21.6999H408.7V21.0999H406.5V20.7999H408.7V20.2999H406.1V19.9999H408.7V19.5999H409.1V19.9999H411.6V20.2999H409.1V20.7999H411.2V21.0999H409.1V21.6999H411.9V21.9999L412 22.0999ZM408 24.7999C407.6 25.0999 407 25.4999 406.2 25.7999L406 25.4999C406.7 25.1999 407.3 24.8999 407.8 24.5999L408.1 24.8999L408 24.7999ZM411.9 25.4999L411.7 25.7999C411.2 25.3999 410.6 25.0999 409.9 24.7999L410.1 24.4999C410.8 24.7999 411.4 25.0999 411.9 25.4999Z" fill="#AA8420" stroke="#AA8420" stroke-width="0.1" stroke-miterlimit="10"/>
</svg>
