<svg width="280" height="33" viewBox="0 0 280 33" fill="none" xmlns="http://www.w3.org/2000/svg">
<path d="M73.8002 6.7002C73.9002 6.5002 74.0002 6.2002 74.0002 6.2002H64.7002C64.7002 6.2002 64.8002 6.6002 64.9002 6.7002H73.7002H73.8002Z" fill="#AA8420"/>
<path d="M73.2 7.5C73.4 7.3 73.5 7 73.5 7H65C65 7 65 7.2 65.3 7.5H73.1H73.2Z" fill="#AA8420"/>
<path d="M72.5002 8.1998C72.7002 8.0998 72.9002 7.7998 72.9002 7.7998H65.7002C65.7002 7.7998 65.9002 7.9998 66.0002 8.1998H72.5002Z" fill="#AA8420"/>
<path d="M71.7004 8.9001C71.9004 8.9001 72.1004 8.6001 72.1004 8.6001H66.4004C66.4004 8.6001 66.4004 8.6001 66.8004 8.9001H71.6004H71.7004Z" fill="#AA8420"/>
<path d="M67.5996 9.2998C67.5996 9.2998 68.1996 9.6998 69.3996 9.6998C70.5996 9.6998 71.2996 9.2998 71.2996 9.2998H67.5996Z" fill="#AA8420"/>
<path d="M67.4004 10.1001C67.4004 10.1001 68.1004 10.1001 68.5004 10.5001C68.9004 10.8001 69.2004 11.4001 69.2004 11.4001C69.2004 11.4001 69.4004 10.9001 69.9004 10.6001C70.3004 10.3001 71.0004 10.2001 71.0004 10.2001H78.3004L79.7004 12.3001H73.1004C73.1004 12.3001 72.6004 12.3001 71.9004 12.7001C71.5004 12.9001 71.3004 13.3001 71.3004 13.3001C71.3004 13.3001 71.3004 13.5001 71.2004 13.6001C71.2004 13.6001 71.1004 13.8001 71.0004 13.8001H67.6004C67.6004 13.8001 67.5004 13.8001 67.4004 13.6001C67.4004 13.5001 67.4004 13.6001 67.4004 13.4001C67.4004 13.4001 67.2004 13.1001 66.7004 12.7001C66.2004 12.3001 65.6004 12.3001 65.6004 12.3001H58.9004L60.4004 10.1001H67.6004H67.4004Z" fill="#003477"/>
<path d="M62.2998 13.1001V24.0001C62.2998 24.0001 62.2998 25.0001 63.0998 26.3001C63.8998 27.6001 65.0998 28.2001 65.0998 28.2001L65.9998 26.8001C65.9998 26.8001 65.1998 26.3001 64.5998 25.4001C63.9998 24.5001 63.9998 23.7001 63.9998 23.7001V13.2001H62.2998V13.1001Z" fill="#003477"/>
<path d="M74.6002 13V23.5C74.6002 23.5 74.5002 24.6 74.0002 25.3C73.5002 26.1 72.7002 26.7 72.7002 26.7L73.6002 28.1C73.6002 28.1 74.9002 27.1 75.6002 26.1C76.2002 25.1 76.4002 23.5 76.4002 23.5V13H74.7002H74.6002Z" fill="#003477"/>
<path d="M59.5996 13.1001V24.0001C59.5996 24.0001 59.6996 25.7001 60.7996 27.5001C61.8996 29.3001 63.7996 30.5001 63.7996 30.5001L64.6996 29.1001C64.6996 29.1001 63.4996 28.5001 62.4996 27.0001C61.4996 25.5001 61.3996 24.1001 61.3996 24.1001V13.2001H59.5996V13.1001Z" fill="#003477"/>
<path d="M67.5 14.2002V25.8002C67.5 25.8002 67.5 25.8002 67.5 26.0002C67.5 26.2002 67.4 26.3002 67.4 26.3002L63.5 32.7002H75.3L71.4 26.2002V25.9002C71.3 25.9002 71.2 25.6002 71.2 25.6002V14.3002H69.8V26.0002C69.8 26.0002 69.8 26.2002 69.8 26.3002C69.8 26.4002 69.9 26.6002 69.9 26.6002L72.3 30.5002H66.3L68.6 26.6002C68.6 26.6002 68.6 26.5002 68.7 26.3002C68.7 26.1002 68.7 26.0002 68.7 26.0002V14.3002H67.3L67.5 14.2002Z" fill="#AA8420"/>
<path d="M77.2996 13V23.7C77.2996 23.7 77.2996 25.1 76.2996 26.7C75.2996 28.3 74.0996 29 74.0996 29L74.9996 30.5C74.9996 30.5 76.7996 29.4 77.8996 27.6C78.9996 25.8 79.0996 23.8 79.0996 23.8V13.1H77.2996V13Z" fill="#003477"/>
<path d="M64.6996 5.8C64.6996 5.8 64.0996 2.6 66.4996 1C66.4996 1 67.5996 0 69.2996 0C70.9996 0 72.1996 1 72.1996 1C74.7996 2.9 73.9996 5.9 73.9996 5.9H64.5996L64.6996 5.8Z" fill="#AA8420"/>
<path d="M106.2 16.1002V14.6002H98.4004V13.0002C100.9 12.8002 103 12.5002 104.7 12.2002L103.9 10.7002C101.4 11.3002 97.6004 11.6002 92.7004 11.6002C87.8004 11.6002 90.8004 11.6002 90.1004 11.6002L90.7004 13.3002C91.9004 13.3002 93.9004 13.3002 96.7004 13.2002V14.7002H89.1004V16.2002H94.8004C93.1004 17.6002 91.2004 18.6002 88.9004 19.1002L89.8004 20.8002C90.5004 20.6002 91.1004 20.4002 91.4004 20.2002V28.2002H93.1004V27.3002H102.2V28.2002H103.9V20.1002C104.1 20.2002 104.4 20.3002 104.7 20.4002C105 20.4002 105.3 20.6002 105.5 20.7002L106.3 19.0002C103.6 18.5002 101.6 17.5002 100.2 16.2002H106.2V16.1002ZM96.6004 16.1002V19.5002H92.4004C94.1004 18.8002 95.6004 17.6002 96.6004 16.1002ZM93.0004 21.1002H102.1V22.5002H93.0004V21.1002ZM102.2 25.6002H93.1004V24.0002H102.2V25.6002ZM102.9 19.6002H98.3004V16.2002C99.5004 17.8002 101 18.9002 102.9 19.6002Z" fill="#003477"/>
<path d="M112.7 26.2998L114.2 27.7998C115.3 26.0998 116 24.2998 116.6 22.2998L115 21.2998C114.6 23.0998 113.9 24.6998 112.8 26.2998H112.7Z" fill="#003477"/>
<path d="M126.3 24.0002V20.2002C127 20.9002 128 21.5002 129.1 22.2002L129.9 20.6002C127.9 19.6002 126.6 18.6002 126.2 17.6002H129.7V16.0002H126.4V14.1002H129.5V12.6002H126.4V10.7002H124.7V12.6002H121.3V10.7002H119.6V12.6002H117.1V12.8002C116.4 12.2002 115.5 11.6002 114.4 11.0002L113.2 12.4002C114 12.9002 115 13.6002 116 14.6002L117.1 13.2002V14.2002H119.6V16.1002H116.8V17.7002H119.8C119.2 18.9002 118 19.9002 115.9 20.8002L117 22.4002C117.8 21.9002 118.4 21.5002 118.7 21.2002V25.4002C118.7 26.2002 118.9 26.8002 119.2 27.1002C119.5 27.4002 120.1 27.5002 120.9 27.5002H126.9C127.8 27.5002 128.5 27.3002 128.8 27.0002C129.1 26.7002 129.4 25.6002 129.6 23.9002L127.8 23.2002C127.8 24.2002 127.6 24.9002 127.5 25.3002C127.5 25.7002 127.1 25.9002 126.6 25.9002H121.1C120.7 25.9002 120.4 25.7002 120.4 25.2002V24.0002H126.4H126.3ZM121.4 14.2002H124.8V16.0002H121.4V14.2002ZM121.8 17.6002H124.3C124.6 18.3002 125 18.8002 125.4 19.3002H120.7C121.2 18.8002 121.5 18.3002 121.8 17.6002ZM120.4 20.7002H124.7V22.5002H120.4V20.7002Z" fill="#003477"/>
<path d="M116.7 17.6999C115.7 16.9999 114.8 16.3999 113.9 15.8999L112.8 17.2999C113.5 17.7999 114.4 18.4999 115.4 19.2999L116.7 17.6999Z" fill="#003477"/>
<path d="M149.8 14.1999C148.3 13.0999 147.2 12.3999 146.4 11.8999L145.3 13.0999C146.2 13.5999 147.3 14.3999 148.6 15.4999L149.8 14.0999V14.1999Z" fill="#003477"/>
<path d="M149.4 18.6999C148 17.6999 146.9 16.8999 146 16.3999L144.9 17.5999C145.9 18.1999 147 18.9999 148.3 20.0999L149.4 18.6999Z" fill="#003477"/>
<path d="M152.2 10.6H150.5V21.3L144.3 22.2V23.9L150.5 22.9V28H152.2V22.7L153.9 22.4V20.7L152.2 21V10.5V10.6Z" fill="#003477"/>
<path d="M141.7 17.3001V17.1001H144.5V15.5001H141.7V12.9001C142.7 12.7001 143.6 12.5001 144.5 12.1001L143.9 10.6001C141.9 11.4001 139.5 11.8001 136.8 11.9001L137.2 13.5001C138.5 13.5001 139.4 13.3001 140.1 13.2001V15.5001H136.7V17.1001H140.1C139.3 19.2001 138.1 21.1001 136.6 22.8001L137.6 24.5001C138.8 22.9001 139.7 21.5001 140.1 20.3001V27.9001H141.8V19.2001C142.1 19.7001 142.5 20.1001 142.8 20.4001C143.2 20.8001 143.5 21.3001 143.9 21.8001L144.9 20.2001C144.2 19.4001 143.1 18.4001 141.8 17.1001L141.7 17.3001Z" fill="#003477"/>
<path d="M175.5 21.5001C176.1 20.4001 176.6 19.6001 176.7 18.9001V17.4001H172.9V14.9001H177.3V13.2001H172.9V10.6001H171.1V13.2001H167.1V14.4001H164.9V10.6001H163.1V14.4001H160.3V16.1001H163.1V19.8001C162.2 20.0001 161.2 20.2001 160.2 20.4001L160.6 22.4001C161.2 22.3001 162 22.0001 163.1 21.8001V25.6001C163.1 26.0001 162.9 26.2001 162.5 26.2001H160.9L161.3 28.0001H162.8C163.7 28.0001 164.3 27.9001 164.6 27.5001C164.8 27.2001 165 26.6001 165 25.8001V21.3001C166.1 20.9001 166.8 20.7001 167.2 20.4001V18.6001C166.7 18.8001 166 19.1001 165 19.4001V16.1001H167.2V14.9001H171.2V17.4001H167.5V19.1001H174.9C174.4 20.7001 173.5 21.9001 172.2 22.9001C171.3 22.1001 170.5 20.9001 169.6 19.4001L168.1 20.0001C169 21.7001 170 23.0001 170.9 23.9001C169.1 25.1001 167.3 25.9001 165.5 26.3001L166.5 28.0001C168.3 27.6001 170.1 26.7001 172.1 25.2001C173.5 26.5001 175.1 27.4001 176.7 28.0001L177.6 26.2001C176 25.8001 174.6 25.0001 173.4 24.0001C174.1 23.4001 174.8 22.5001 175.4 21.5001H175.5Z" fill="#003477"/>
<path d="M197.1 21.9C196 20.2 195.4 18.7 195.1 17.1H201V15.2H193.1C193.2 14.2 193.3 12.7 193.3 10.5H191.4C191.4 12.5 191.4 14 191.2 15.2H184.5V17.2H190.9C190.6 19 189.8 20.6 188.6 22.3C187.3 23.9 185.8 25.3 184.1 26.3L185.5 28.1C189.7 25.4 192.1 21.8 193 17.3H193.3C194.5 22.3 196.8 25.9 200.2 28.1L201.6 26.4C199.8 25.2 198.3 23.7 197.3 22.1L197.1 21.9Z" fill="#003477"/>
<path d="M217.5 23.6001C219.1 23.1001 220.4 22.6001 221.5 22.0001V20.6001H211.2V22.0001H219C217.7 22.4001 216.6 22.7001 215.8 22.8001V23.6001H207.7V25.1001H215.8V25.9001C215.8 26.3001 215.6 26.5001 215.2 26.5001H212.7L213.1 27.9001H215.8C216.9 27.9001 217.5 27.2001 217.5 25.9001V25.1001H225.2V23.6001H217.5Z" fill="#003477"/>
<path d="M213.6 13.1002L214.5 14.3002C215.3 13.9002 216.1 13.6002 216.7 13.2002C216.8 13.2002 217.1 13.5002 217.6 14.3002L218.7 13.5002C218.3 13.1002 218 12.7002 217.7 12.5002C218.2 12.2002 218.5 11.9002 218.8 11.5002L217.9 10.7002C217.7 11.0002 217.3 11.3002 216.8 11.7002C216.3 11.3002 215.8 11.0002 215.3 10.7002L214.3 11.6002C214.8 11.9002 215.2 12.2002 215.6 12.5002C215.3 12.7002 214.6 13.0002 213.6 13.3002V13.1002Z" fill="#003477"/>
<path d="M218.3 14.2002C217.8 14.7002 217.4 15.1002 217 15.3002C216.7 15.1002 216.5 14.9002 216.2 14.7002C216 14.6002 215.8 14.5002 215.5 14.3002L214.5 15.1002C215.1 15.5002 215.5 15.8002 215.7 16.0002C215.3 16.3002 214.6 16.5002 213.8 16.7002L214.6 17.9002C215.5 17.6002 216.2 17.3002 216.8 16.9002C216.8 16.9002 217.2 17.3002 217.8 18.0002L219 17.1002C218.6 16.7002 218.3 16.4002 217.9 16.1002C218.3 15.8002 218.7 15.4002 219.2 15.0002L218.2 14.2002H218.3Z" fill="#003477"/>
<path d="M209.8 19.8998H223.2V22.5998H224.9V18.3998H223.9L224.1 11.0998H219.5V12.5998H222.4V13.5998H219.6V14.8998H222.3V15.9998H219.6V17.2998H222.2V18.4998H210.6V17.2998H213.4V15.9998H210.6V14.8998H213.4V13.5998H210.5V12.6998C212 12.5998 213.1 12.3998 213.7 12.1998L212.9 10.7998C211.8 11.0998 210.4 11.2998 208.8 11.2998L209 18.3998H208.1V22.5998H209.7V19.8998H209.8Z" fill="#003477"/>
<path d="M45.5998 32.7H38.2998V0H45.5998V0.2H38.4998V32.4H45.5998V32.6V32.7Z" fill="#231815"/>
<path d="M240 32.7H232.7V32.5H239.8V0.2H232.7V0H240V32.7Z" fill="#231815"/>
<path d="M10.0998 24.1C10.3998 24.4 10.4998 24.8 10.4998 25.2C10.4998 25.6 10.2998 26.3 9.7998 26.6C9.2998 27 8.6998 27.1 7.8998 27.1C7.0998 27.1 6.4998 26.9 5.9998 26.6C5.4998 26.3 5.2998 25.8 5.2998 25.2C5.2998 24.6 5.3998 24.4 5.6998 24.1C5.9998 23.8 6.2998 23.6 6.7998 23.5C6.3998 23.4 5.9998 23.2 5.7998 22.9C5.5998 22.6 5.4998 22.3 5.4998 21.9C5.4998 21.5 5.4998 21.2 5.7998 20.9C5.9998 20.6 6.2998 20.4 6.5998 20.2C6.9998 20 7.3998 20 7.7998 20C8.1998 20 8.6998 20 9.0998 20.2C9.4998 20.4 9.6998 20.6 9.8998 20.9C10.0998 21.2 10.1998 21.5 10.1998 21.9C10.1998 22.3 10.0998 22.6 9.8998 22.9C9.6998 23.2 9.2998 23.4 8.8998 23.5C9.3998 23.6 9.6998 23.8 9.9998 24.2L10.0998 24.1ZM9.2998 26.2C9.5998 26 9.6998 25.6 9.6998 25.2C9.6998 24.8 9.4998 24.5 9.1998 24.3C8.8998 24.1 8.4998 23.9 7.8998 23.9C7.3998 23.9 6.9998 24.1 6.5998 24.3C6.2998 24.5 6.0998 24.8 6.0998 25.2C6.0998 25.6 6.2998 26 6.4998 26.2C6.7998 26.4 7.1998 26.5 7.7998 26.5C8.3998 26.5 8.7998 26.4 9.0998 26.2H9.2998ZM6.7998 22.8C7.0998 23 7.4998 23.2 7.8998 23.2C8.3998 23.2 8.7998 23 9.0998 22.8C9.3998 22.6 9.4998 22.3 9.4998 21.9C9.4998 21.5 9.3998 21.2 9.0998 21C8.7998 20.8 8.3998 20.7 7.8998 20.7C7.3998 20.7 6.9998 20.8 6.6998 21C6.3998 21.2 6.2998 21.5 6.2998 21.9C6.2998 22.3 6.3998 22.6 6.6998 22.8H6.7998Z" fill="#AA8420"/>
<path d="M252.5 25.6001H251.4V27.1001H250.6V25.6001H247.3V25.0001L250.7 20.1001H251.4V25.0001H252.5V25.7001V25.6001ZM250.6 25.0001V21.5001L248.2 25.0001H250.6Z" fill="#AA8420"/>
<path d="M254 26.3C253.6 25.7 253.4 24.8 253.4 23.6C253.4 22.4 253.6 21.5 254 20.9C254.4 20.3 255 20 255.8 20C256.6 20 257.2 20.3 257.7 20.9C258.1 21.5 258.3 22.4 258.3 23.6C258.3 24.8 258.1 25.7 257.7 26.3C257.3 26.9 256.7 27.2 255.8 27.2C254.9 27.2 254.4 26.9 254 26.3ZM257.1 25.8C257.4 25.3 257.5 24.6 257.5 23.6C257.5 22.6 257.4 21.8 257.1 21.4C256.8 20.9 256.4 20.7 255.8 20.7C255.2 20.7 254.8 20.9 254.6 21.4C254.3 21.9 254.2 22.6 254.2 23.6C254.2 24.6 254.3 25.4 254.6 25.8C254.9 26.3 255.3 26.5 255.8 26.5C256.3 26.5 256.8 26.3 257 25.8H257.1Z" fill="#AA8420"/>
<path d="M16 8.80039C15.3 9.10039 14.5 9.30039 13.7 9.40039V11.1004H15.8V11.8004H13.7V13.8004C14.5 13.6004 15.3 13.3004 15.9 13.1004V13.9004C14.9 14.3004 13.8 14.6004 12.7 14.9004L12.5 14.2004C12.7 14.2004 12.8 14.2004 12.9 14.2004V9.00039C13.9 8.90039 14.8 8.70039 15.6 8.40039L16 9.00039V8.80039ZM19.4 13.6004C19.4 13.8004 19.4 14.0004 19.2 14.1004C19 14.2004 18.9 14.3004 18.8 14.3004C18.7 14.3004 18.4 14.3004 18.1 14.3004C17.8 14.3004 17.7 14.3004 17.6 14.3004L17.3 13.5004C17.5 13.5004 17.8 13.5004 18.4 13.5004C19 13.5004 18.6 13.5004 18.6 13.3004V9.10039H17V15.1004H16.3V8.40039H19.4V13.5004V13.6004Z" fill="black"/>
<path d="M24.7996 10.5002H21.6996V11.6002C21.6996 13.1002 21.4996 14.4002 21.1996 15.3002L20.5996 14.9002C20.8996 14.1002 20.9996 13.2002 20.9996 12.1002V8.4002H24.7996V10.5002ZM24.0996 9.9002V9.1002H21.6996V9.9002H24.0996ZM24.7996 14.1002C24.7996 14.3002 24.7996 14.5002 24.5996 14.5002C24.3996 14.5002 24.2996 14.6002 23.9996 14.5002L23.7996 13.9002C23.7996 13.9002 23.7996 13.9002 23.8996 13.9002C24.0996 13.9002 24.0996 13.9002 24.0996 13.7002V12.1002H23.5996V15.0002H22.9996V12.1002H22.5996V14.5002H21.9996V11.4002H23.0996V10.7002H23.6996V11.4002H24.7996V13.9002V14.1002ZM25.9996 13.8002H25.2996V8.8002H25.9996V13.8002ZM27.3996 14.5002C27.3996 14.8002 27.3996 15.0002 27.1996 15.1002C26.9996 15.1002 26.7996 15.2002 26.3996 15.2002C25.9996 15.2002 25.9996 15.2002 25.8996 15.2002L25.6996 14.5002C25.8996 14.5002 26.0996 14.5002 26.2996 14.5002C26.4996 14.5002 26.5996 14.5002 26.6996 14.5002C26.7996 14.5002 26.6996 14.5002 26.6996 14.3002V8.2002H27.3996V14.5002Z" fill="black"/>
<path d="M20.3004 21.8004H14.4004V21.5004H17.2004C17.2004 21.3004 17.0004 21.2004 16.9004 21.1004L17.2004 20.9004C17.3004 21.1004 17.4004 21.3004 17.5004 21.5004H20.2004V21.8004H20.3004ZM20.4004 26.3004C20.4004 26.6004 20.4004 26.8004 20.2004 26.9004C20.1004 27.0004 19.9004 27.1004 19.8004 27.1004H17.5004C17.3004 27.1004 17.2004 27.1004 17.1004 26.9004C17.0004 26.8004 16.9004 26.6004 16.9004 26.4004V26.2004L14.4004 26.4004V26.1004L16.9004 25.9004V25.5004L14.8004 25.7004V25.4004L16.9004 25.2004V24.8004C16.4004 24.8004 15.9004 24.8004 15.3004 24.8004V24.5004C16.7004 24.5004 18.1004 24.5004 19.1004 24.2004L19.3004 24.5004C18.7004 24.6004 18.0004 24.7004 17.2004 24.8004V25.2004L19.8004 25.0004V25.3004L17.2004 25.5004V25.9004L20.2004 25.7004V26.0004L17.2004 26.2004V26.5004C17.2004 26.5004 17.2004 26.6004 17.2004 26.7004C17.2004 26.7004 17.3004 26.7004 17.4004 26.7004H19.5004C19.8004 26.7004 19.9004 26.5004 19.9004 26.1004H20.2004L20.4004 26.3004ZM20.2004 24.6004H19.8004V23.9004H14.8004V24.6004H14.4004V23.6004H20.2004V24.6004ZM19.7004 23.3004H15.0004V22.3004H19.7004V23.3004ZM19.3004 23.0004V22.6004H15.4004V23.0004H19.3004Z" fill="#AA8420" stroke="#AA8420" stroke-width="0.1" stroke-miterlimit="10"/>
<path d="M23.4002 24.7005C23.0002 25.5005 22.3002 26.2005 21.5002 26.8005L21.2002 26.5005C22.0002 25.9005 22.6002 25.3005 23.0002 24.5005L23.3002 24.7005H23.4002ZM27.3002 23.9005H24.5002V27.2005H24.1002V23.9005H21.3002V23.5005H24.1002V21.0005H24.5002V23.5005H27.3002V23.9005ZM23.1002 22.8005L22.8002 23.0005C22.6002 22.6005 22.3002 22.1005 21.9002 21.6005L22.2002 21.4005C22.6002 21.9005 22.9002 22.3005 23.1002 22.8005ZM27.4002 26.5005L27.1002 26.8005C26.7002 26.1005 26.1002 25.4005 25.3002 24.8005L25.6002 24.6005C26.2002 25.1005 26.8002 25.8005 27.4002 26.6005V26.5005ZM26.7002 21.5005C26.4002 22.1005 26.1002 22.6005 25.8002 23.0005L25.4002 22.8005C25.7002 22.5005 26.0002 22.0005 26.3002 21.3005L26.6002 21.5005H26.7002Z" fill="#AA8420" stroke="#AA8420" stroke-width="0.1" stroke-miterlimit="10"/>
<path d="M250.3 14.1003C249.3 14.5003 248.4 14.9003 247.6 15.1003L247.4 14.5003C248.1 14.3003 249 14.0003 250.1 13.5003L250.3 14.1003ZM250.2 9.80029C249.7 10.9003 249.1 11.8003 248.5 12.7003C248.8 12.7003 249.3 12.4003 249.9 12.2003L250.1 12.9003C249.3 13.2003 248.5 13.5003 247.7 13.7003L247.5 13.1003C248 12.6003 248.4 12.0003 248.8 11.3003C248.4 11.3003 248.1 11.5003 247.7 11.5003L247.5 10.9003C248 10.2003 248.5 9.40029 248.9 8.30029L249.5 8.50029C249.2 9.30029 248.9 10.0003 248.4 10.6003C248.6 10.6003 248.9 10.6003 249.2 10.4003C249.4 10.2003 249.5 9.90029 249.6 9.50029L250.2 9.80029ZM254.5 13.8003C254.4 14.8003 254 15.3003 253.5 15.3003C253 15.3003 253.1 15.3003 252.9 15.0003C252.7 14.8003 252.5 14.6003 252.3 14.2003C251.7 14.6003 251 14.9003 250.2 15.3003L249.8 14.7003C250.7 14.4003 251.4 14.0003 252 13.6003C251.8 13.1003 251.7 12.6003 251.6 12.1003L250.2 12.3003V11.6003L251.6 11.4003C251.6 11.0003 251.6 10.7003 251.6 10.5003H250.5C250.5 10.6003 250.5 10.0003 250.5 10.0003H251.6C251.6 9.90029 251.6 8.30029 251.6 8.30029H252.3C252.3 8.60029 252.3 9.10029 252.3 9.80029L254.2 9.60029V10.2003L252.3 10.5003C252.3 10.8003 252.3 11.1003 252.3 11.4003L254.4 11.1003V11.8003C254.5 11.8003 252.3 12.1003 252.3 12.1003C252.3 12.5003 252.4 12.9003 252.5 13.3003C252.8 13.0003 253.1 12.7003 253.5 12.2003L254 12.5003C253.7 13.0003 253.2 13.5003 252.8 13.9003C252.9 14.1003 253.1 14.3003 253.2 14.4003C253.3 14.5003 253.4 14.6003 253.5 14.6003C253.5 14.6003 253.5 14.5003 253.6 14.2003C253.6 14.0003 253.7 13.8003 253.7 13.5003L254.3 13.8003H254.5ZM253.9 8.90029L253.5 9.40029C253.2 9.10029 252.9 8.90029 252.5 8.80029L252.9 8.30029C253.3 8.50029 253.6 8.70029 253.9 9.00029V8.90029Z" fill="black"/>
<path d="M262.4 15.0002H255.4V14.3002H258.3V8.2002H259V10.6002H262V11.3002H259V14.3002H262.4V15.0002Z" fill="black"/>
<path d="M263.301 21.2C263.301 21.5 263.101 21.9 263.001 22.2L262.801 22.7V27.2H262.501V23.4C262.301 23.8 262.101 24.1 261.901 24.3L261.601 24C262.201 23.3 262.601 22.3 263.001 21H263.301V21.2ZM267.801 26.6L267.601 26.9C267.201 26.7 266.701 26.3 266.201 25.8C266.201 26 266.201 26.1 266.201 26.2C266.201 26.5 266.201 26.7 266.101 26.8C266.101 26.9 265.901 27 265.801 27.1C265.701 27.1 265.401 27.1 265.101 27.1C264.801 27.1 264.901 27.1 264.801 27.1V26.8C265.301 26.8 265.601 26.8 265.701 26.8C265.801 26.8 265.901 26.6 265.901 26.3C265.901 26 265.901 26 265.901 25.8C265.301 26.2 264.501 26.6 263.401 27L263.201 26.7C264.301 26.4 265.201 26 265.801 25.5C265.801 25.5 265.801 25.3 265.601 25.1C265.001 25.5 264.301 25.9 263.401 26.1L263.201 25.8C264.201 25.5 264.901 25.2 265.501 24.8C265.501 24.7 265.301 24.6 265.201 24.5C264.701 24.8 264.101 25 263.301 25.2L263.101 24.9C263.901 24.8 264.601 24.5 265.201 24.1H263.801V22.9C263.701 23 263.501 23.1 263.401 23.2L263.201 22.9C264.001 22.3 264.601 21.8 264.901 21.2L265.201 21.4C265.201 21.5 265.101 21.6 265.001 21.7H266.701V22C266.501 22.2 266.301 22.5 266.101 22.7H267.401V24H265.801C265.701 24.1 265.601 24.2 265.501 24.3C265.701 24.6 265.901 24.8 266.101 25.2C266.501 25 266.901 24.7 267.401 24.3L267.701 24.5C267.301 24.8 266.901 25.1 266.401 25.4C266.901 26 267.501 26.4 268.001 26.7L267.801 26.6ZM266.201 21.8H264.701C264.401 22.1 264.201 22.3 263.901 22.5H265.601C265.801 22.2 266.101 22 266.201 21.8ZM265.401 23.6V22.9H264.101V23.6H265.401ZM267.001 23.6V22.9H265.701V23.6H267.001Z" fill="#AA8420" stroke="#AA8420" stroke-width="0.1" stroke-miterlimit="10"/>
<path d="M274.801 23.5H271.901C271.401 23.9 270.901 24.1 270.401 24.3H271.501C272.201 24.3 272.601 24.3 272.601 24.3C272.901 24.2 273.101 24 273.501 23.8L273.801 24C272.601 24.7 271.501 25.2 270.301 25.5C271.501 25.5 272.701 25.5 273.801 25.3C273.601 25.1 273.501 25 273.301 24.8L273.601 24.6C274.101 25 274.501 25.5 274.801 25.9L274.501 26.1C274.301 25.9 274.201 25.7 274.101 25.6C273.401 25.6 272.701 25.7 272.001 25.7V26.7C272.001 26.9 272.001 27 271.801 27.1C271.701 27.1 271.501 27.2 271.101 27.2C270.701 27.2 270.901 27.2 270.901 27.2V26.8C270.901 26.8 271.101 26.8 271.201 26.8C271.401 26.8 271.501 26.8 271.501 26.8C271.501 26.8 271.501 26.8 271.501 26.7V25.7C270.901 25.7 270.101 25.7 269.101 25.7V25.4C270.001 25.2 270.901 24.9 271.801 24.5C271.301 24.5 270.701 24.5 270.101 24.5C269.501 24.5 269.701 24.5 269.601 24.5V24.2C270.101 24 270.701 23.7 271.201 23.4H268.601V23.1H271.501V22.5H269.301V22.2H271.501V21.7H268.901V21.4H271.501V21H271.901V21.4H274.401V21.7H271.901V22.2H274.001V22.5H271.901V23.1H274.701V23.4L274.801 23.5ZM270.801 26.1C270.401 26.4 269.801 26.8 269.001 27.1L268.801 26.8C269.501 26.5 270.101 26.2 270.601 25.9L270.901 26.2L270.801 26.1ZM274.601 26.8L274.401 27.1C273.901 26.7 273.301 26.4 272.601 26.1L272.801 25.8C273.501 26.1 274.101 26.4 274.601 26.8Z" fill="#AA8420" stroke="#AA8420" stroke-width="0.1" stroke-miterlimit="10"/>
</svg>
