<svg width="280" height="34" viewBox="0 0 280 34" fill="none" xmlns="http://www.w3.org/2000/svg">
<path d="M45.5998 33.2H38.2998V0.5H45.5998V0.7H38.4998V32.9H45.5998V33.1V33.2Z" fill="#231815"/>
<path d="M240 33.2H232.7V33H239.8V0.7H232.7V0.5H240V33.2Z" fill="#231815"/>
<path d="M10.0998 24.1C10.3998 24.4 10.4998 24.8 10.4998 25.2C10.4998 25.6 10.2998 26.3 9.7998 26.6C9.2998 26.9 8.6998 27.1 7.8998 27.1C7.0998 27.1 6.4998 26.9 5.9998 26.6C5.4998 26.2 5.2998 25.8 5.2998 25.2C5.2998 24.6 5.3998 24.4 5.6998 24.1C5.9998 23.8 6.2998 23.6 6.7998 23.5C6.3998 23.4 5.9998 23.2 5.7998 22.9C5.5998 22.6 5.4998 22.3 5.4998 21.9C5.4998 21.5 5.4998 21.2 5.7998 20.9C5.9998 20.6 6.2998 20.4 6.5998 20.2C6.9998 20 7.3998 20 7.7998 20C8.1998 20 8.6998 20 9.0998 20.2C9.4998 20.4 9.6998 20.6 9.8998 20.9C10.0998 21.2 10.1998 21.5 10.1998 21.9C10.1998 22.3 10.0998 22.6 9.8998 22.9C9.6998 23.2 9.2998 23.4 8.8998 23.5C9.3998 23.6 9.6998 23.8 9.9998 24.2L10.0998 24.1ZM9.2998 26.2C9.5998 26 9.6998 25.6 9.6998 25.2C9.6998 24.8 9.4998 24.5 9.1998 24.3C8.8998 24.1 8.4998 23.9 7.8998 23.9C7.3998 23.9 6.9998 24.1 6.5998 24.3C6.1998 24.5 6.0998 24.8 6.0998 25.2C6.0998 25.6 6.2998 26 6.4998 26.2C6.7998 26.4 7.1998 26.5 7.7998 26.5C8.3998 26.5 8.7998 26.4 9.0998 26.2H9.2998ZM6.7998 22.8C7.0998 23 7.4998 23.2 7.8998 23.2C8.3998 23.2 8.7998 23 9.0998 22.8C9.3998 22.6 9.4998 22.3 9.4998 21.9C9.4998 21.5 9.3998 21.2 9.0998 21C8.7998 20.8 8.3998 20.7 7.8998 20.7C7.3998 20.7 6.9998 20.8 6.6998 21C6.3998 21.2 6.2998 21.5 6.2998 21.9C6.2998 22.3 6.3998 22.6 6.6998 22.8H6.7998Z" fill="#AA8420"/>
<path d="M252.5 25.6H251.4V27.2H250.6V25.6H247.3V25L250.7 20H251.4V24.9H252.5V25.6ZM250.6 24.9V21.4L248.2 24.9H250.6Z" fill="#AA8420"/>
<path d="M254 26.3C253.6 25.7 253.4 24.8 253.4 23.6C253.4 22.4 253.6 21.5 254 20.9C254.4 20.3 255 20 255.8 20C256.6 20 257.2 20.3 257.7 20.9C258.1 21.5 258.3 22.4 258.3 23.6C258.3 24.8 258.1 25.7 257.7 26.3C257.3 26.9 256.7 27.2 255.8 27.2C254.9 27.2 254.4 26.9 254 26.3ZM257.1 25.8C257.4 25.3 257.5 24.6 257.5 23.6C257.5 22.6 257.4 21.8 257.1 21.4C256.8 20.9 256.4 20.7 255.8 20.7C255.2 20.7 254.8 20.9 254.6 21.4C254.3 21.9 254.2 22.6 254.2 23.6C254.2 24.6 254.3 25.4 254.6 25.8C254.9 26.3 255.3 26.5 255.8 26.5C256.3 26.5 256.8 26.3 257 25.8H257.1Z" fill="#AA8420"/>
<path d="M75.1996 33.1L71.3996 26.7C71.3996 26.7 71.2996 26.6 71.2996 26.3V14.5H69.8996V26.7C69.9996 26.8 72.3996 30.9 72.3996 30.9H66.3996C66.3996 30.9 68.7996 26.8 68.8996 26.7V14.5H67.4996V26.3C67.4996 26.5 67.3996 26.7 67.3996 26.7L63.5996 33.1H75.2996H75.1996Z" fill="#AA8420"/>
<path d="M73.9999 6.3C73.9999 6.3 74.6999 3.3 72.1999 1.4C72.1999 1.4 71.1999 0.5 69.1999 0.5C67.1999 0.5 66.3999 1.4 66.3999 1.4C63.9999 3 64.5999 6.3 64.5999 6.3H73.8999H73.9999Z" fill="#AA8420"/>
<path d="M64.8998 7.2002H73.6998C73.6998 7.0002 73.7998 6.9002 73.8998 6.7002H64.7998C64.7998 6.9002 64.8998 7.0002 64.9998 7.2002" fill="#AA8420"/>
<path d="M73.5996 7.5H65.0996C65.0996 7.7 65.2996 7.8 65.3996 8H73.2996C73.3996 7.8 73.4996 7.7 73.5996 7.5Z" fill="#AA8420"/>
<path d="M65.8996 8.6998H72.6996C72.7996 8.5998 72.8996 8.3998 73.0996 8.2998H65.5996C65.6996 8.3998 65.7996 8.5998 65.9996 8.6998H65.8996Z" fill="#AA8420"/>
<path d="M66.6998 9.3H71.9998C72.0998 9.2 72.2998 9.1 72.3998 9H66.2998C66.3998 9.1 66.5998 9.2 66.6998 9.3Z" fill="#AA8420"/>
<path d="M67.4004 9.7002C68.0004 10.0002 68.6004 10.1002 69.3004 10.1002C70.0004 10.1002 70.6004 10.0002 71.2004 9.7002H67.4004Z" fill="#AA8420"/>
<path d="M78.3998 10.3999H71.1998C71.1998 10.3999 70.4998 10.3999 69.9998 10.7999C69.5998 11.0999 69.2998 11.6999 69.2998 11.7999C69.2998 11.7999 68.9998 11.0999 68.5998 10.7999C68.0998 10.3999 67.3998 10.3999 67.3998 10.3999H60.1998L58.7998 12.6999H65.3998C65.3998 12.6999 65.5998 12.6999 65.6998 12.6999C65.8998 12.6999 66.1998 12.7999 66.5998 13.0999C67.0998 13.4999 67.1998 13.5999 67.2998 13.7999L67.4998 14.0999H71.0998C71.0998 14.0999 71.2998 13.8999 71.2998 13.7999C71.3998 13.6999 71.5998 13.4999 71.9998 13.0999C72.2998 12.7999 72.6998 12.6999 72.8998 12.6999C72.9998 12.6999 73.1998 12.6999 73.1998 12.6999H79.7998L78.3998 10.3999Z" fill="#003477"/>
<path d="M59.5 13.3999V24.2999C59.5 24.3999 59.5 24.4999 59.5 24.5999C59.6 25.6999 60 26.5999 60.6 27.6999C61.7 29.4999 63.6 30.6999 63.6 30.6999L64.5 29.2999C64.5 29.2999 63.3 28.6999 62.3 27.1999C62.1 26.8999 61.9 26.5999 61.8 26.2999C61.7 25.9999 61.6 25.7999 61.5 25.5999C61.5 25.3999 61.5 25.2999 61.4 25.0999C61.4 24.8999 61.4 24.6999 61.4 24.5999V24.2999V13.3999H59.6H59.5Z" fill="#003477"/>
<path d="M62.2998 13.3998V24.2998C62.2998 24.3998 62.2998 24.4998 62.2998 24.5998C62.2998 24.5998 62.2998 24.5998 62.2998 24.6998C62.2998 24.8998 62.2998 24.9998 62.3998 25.1998C62.4998 25.5998 62.6998 25.9998 63.0998 26.4998C63.8998 27.7998 65.0998 28.3998 65.0998 28.3998L65.9998 26.9998C65.9998 26.9998 65.6998 26.7998 65.2998 26.4998C65.0998 26.2998 64.7998 25.9998 64.4998 25.5998C64.2998 25.1998 64.0998 24.8998 63.9998 24.5998C63.9998 24.3998 63.9998 24.1998 63.9998 23.9998V13.2998H62.2998V13.3998Z" fill="#003477"/>
<path d="M79.1996 13.3999V24.2999C79.1996 24.3999 79.1996 24.4999 79.1996 24.5999C79.0996 25.6999 78.6996 26.5999 77.9996 27.6999C76.8996 29.4999 74.9996 30.6999 74.9996 30.6999L74.0996 29.2999C74.0996 29.2999 75.2996 28.6999 76.2996 27.1999C76.4996 26.8999 76.6996 26.5999 76.7996 26.2999C76.8996 25.9999 76.9996 25.7999 77.0996 25.5999C77.0996 25.3999 77.0996 25.2999 77.1996 25.0999C77.1996 24.8999 77.1996 24.6999 77.1996 24.5999V24.2999V13.3999H78.9996H79.1996Z" fill="#003477"/>
<path d="M76.4002 13.3998V24.2998C76.4002 24.3998 76.4002 24.4998 76.4002 24.5998C76.4002 24.5998 76.4002 24.5998 76.4002 24.6998C76.4002 24.8998 76.4002 24.9998 76.3002 25.1998C76.2002 25.5998 76.0002 25.9998 75.6002 26.4998C74.8002 27.7998 73.6002 28.3998 73.6002 28.3998L72.7002 26.9998C72.7002 26.9998 73.0002 26.7998 73.4002 26.4998C73.6002 26.2998 73.9002 25.9998 74.2002 25.5998C74.4002 25.1998 74.6002 24.8998 74.7002 24.5998C74.7002 24.3998 74.7002 24.1998 74.7002 23.9998V13.2998H76.4002V13.3998Z" fill="#003477"/>
<path d="M106.2 17.0001V15.5001H98.2998V13.9001C100.8 13.7001 102.9 13.4001 104.6 13.1001L103.8 11.6001C101.3 12.2001 97.4998 12.5001 92.5998 12.5001C87.6998 12.5001 90.6998 12.5001 89.9998 12.5001L90.5998 14.2001C91.7998 14.2001 93.7998 14.2001 96.5998 14.1001V15.6001H88.9998V17.1001H94.6998C92.9998 18.5001 91.0998 19.5001 88.7998 20.0001L89.6998 21.6001C90.3998 21.4001 90.9998 21.2001 91.2998 21.0001V29.0001H92.9998V28.1001H102.1V29.0001H103.8V20.9001C104 21.0001 104.3 21.1001 104.6 21.2001C104.9 21.2001 105.2 21.4001 105.4 21.5001L106.2 19.8001C103.5 19.3001 101.5 18.3001 100.1 16.9001H106.1L106.2 17.0001ZM96.5998 17.1001V20.5001H92.3998C94.1998 19.8001 95.5998 18.6001 96.5998 17.1001ZM102.2 26.6001H92.9998V25.0001H102.2V26.6001ZM102.2 23.5001H92.9998V22.1001H102.2V23.5001ZM102.9 20.5001H98.2998V17.1001C99.4998 18.7001 101 19.8001 102.9 20.5001Z" fill="#003477"/>
<path d="M116.7 18.5998C115.8 17.8998 114.8 17.2998 113.9 16.7998L112.8 18.1998C113.5 18.6998 114.4 19.2998 115.4 20.1998L116.7 18.5998Z" fill="#003477"/>
<path d="M112.8 27.2999L114.3 28.7999C115.4 27.0999 116.1 25.2999 116.7 23.2999L115.1 22.3999C114.7 24.1999 114 25.7999 112.9 27.3999L112.8 27.2999Z" fill="#003477"/>
<path d="M126.4 25.0002V21.2002C127.1 21.9002 128.1 22.5002 129.2 23.2002L130 21.6002C128 20.6002 126.7 19.6002 126.2 18.6002H129.8V17.0002H126.4V15.1002H129.5V13.6002H126.4V11.7002H124.7V13.6002H121.3V11.7002H119.6V13.6002H117.1V13.8002C116.4 13.2002 115.5 12.6002 114.4 12.0002L113.2 13.4002C114 13.9002 115 14.6002 116 15.6002L117.1 14.2002V15.2002H119.6V17.1002H116.8V18.7002H119.8C119.3 19.9002 118 20.9002 115.9 21.8002L117 23.4002C117.8 22.9002 118.4 22.5002 118.7 22.2002V26.4002C118.7 27.2002 118.9 27.8002 119.2 28.1002C119.5 28.4002 120.1 28.5002 120.9 28.5002H126.9C127.8 28.5002 128.5 28.3002 128.8 28.0002C129.1 27.6002 129.4 26.6002 129.6 24.9002L127.8 24.3002C127.8 25.3002 127.6 26.0002 127.5 26.4002C127.5 26.8002 127.1 27.0002 126.6 27.0002H121.1C120.7 27.0002 120.4 26.8002 120.4 26.3002V25.1002H126.4V25.0002ZM121.4 15.1002H124.8V16.9002H121.4V15.1002ZM121.8 18.5002H124.3C124.6 19.2002 125 19.7002 125.4 20.2002H120.7C121.2 19.7002 121.5 19.2002 121.8 18.5002ZM120.4 23.5002V21.7002H124.7V23.5002H120.4Z" fill="#003477"/>
<path d="M150 15.0998C148.5 13.9998 147.4 13.2998 146.6 12.7998L145.5 13.9998C146.3 14.4998 147.5 15.2998 148.8 16.3998L150 14.9998V15.0998Z" fill="#003477"/>
<path d="M149.6 19.5998C148.2 18.5998 147.1 17.7998 146.2 17.2998L145.1 18.4998C146.1 19.0998 147.2 19.8998 148.5 20.9998L149.7 19.5998H149.6Z" fill="#003477"/>
<path d="M152.4 11.4999H150.7V22.1999L144.5 23.0999V24.7999L150.7 23.7999V28.8999H152.4V23.5999L154.1 23.2999V21.5999L152.4 21.8999V11.3999V11.4999Z" fill="#003477"/>
<path d="M141.8 18.3001V18.1001H144.6V16.5001H141.8V13.9001C142.8 13.7001 143.7 13.5001 144.6 13.1001L144 11.6001C142 12.4001 139.6 12.8001 136.8 12.9001L137.2 14.5001C138.5 14.5001 139.4 14.3001 140.1 14.2001V16.5001H136.6V18.1001H140C139.2 20.2001 138.1 22.1001 136.5 23.9001L137.5 25.6001C138.7 24.0001 139.6 22.6001 140 21.4001V29.0001H141.7V20.3001C142 20.7001 142.4 21.2001 142.7 21.5001C143.1 21.9001 143.4 22.4001 143.8 22.9001L144.8 21.3001C144.1 20.5001 143 19.5001 141.7 18.2001L141.8 18.3001Z" fill="#003477"/>
<path d="M175.8 22.5001C176.5 21.4001 176.9 20.6001 177 19.9001V18.4001H173.2V15.9001H177.6V14.2001H173.2V11.6001H171.4V14.2001H167.4V15.4001H165.2V11.6001H163.4V15.4001H160.6V17.1001H163.4V20.8001C162.5 21.0001 161.5 21.2001 160.5 21.4001L160.9 23.4001C161.5 23.3001 162.3 23.0001 163.4 22.8001V26.6001C163.4 27.0001 163.2 27.2001 162.8 27.2001H161.2L161.6 29.0001H163.1C164 29.0001 164.6 28.9001 164.9 28.6001C165.1 28.3001 165.3 27.7001 165.3 26.8001V22.2001C166.4 21.8001 167.1 21.6001 167.5 21.4001V19.6001C167 19.8001 166.3 20.1001 165.3 20.4001V17.1001H167.5V15.9001H171.5V18.4001H167.8V20.1001H175.2C174.7 21.7001 173.8 23.0001 172.5 24.0001C171.6 23.1001 170.8 22.0001 169.9 20.4001L168.4 21.0001C169.3 22.7001 170.3 24.0001 171.2 25.0001C169.4 26.2001 167.6 27.0001 165.9 27.4001L166.9 29.1001C168.7 28.7001 170.6 27.8001 172.5 26.3001C173.9 27.6001 175.5 28.5001 177.1 29.1001L178 27.3001C176.4 26.9001 175 26.1001 173.8 25.1001C174.5 24.5001 175.2 23.6001 175.8 22.5001Z" fill="#003477"/>
<path d="M197.5 22.8999C196.4 21.1999 195.8 19.6999 195.5 18.0999H201.4V16.0999H193.5C193.5 15.0999 193.6 13.5999 193.6 11.3999H191.7C191.7 13.3999 191.7 14.8999 191.5 16.0999H184.8V18.0999H191.2C190.9 19.8999 190.1 21.4999 188.9 23.1999C187.6 24.7999 186.1 26.1999 184.4 27.1999L185.8 28.9999C190 26.2999 192.5 22.5999 193.3 18.1999H193.6C194.8 23.1999 197.1 26.7999 200.5 28.9999L201.9 27.2999C200 26.0999 198.6 24.5999 197.5 22.9999V22.8999Z" fill="#003477"/>
<path d="M221.8 15.5999C222.4 14.6999 222.9 13.4999 223.4 12.1999L221.4 11.3999C220.8 13.0999 220.2 14.4999 219.6 15.5999H208.3V19.4999H210.1V17.1999H223.6V19.4999H225.4V15.5999H221.6H221.8Z" fill="#003477"/>
<path d="M218 14.2C217.5 13.2 217 12.3 216.5 11.5L215 12.2C215.5 13 216 14 216.4 15L218 14.2Z" fill="#003477"/>
<path d="M213.8 14.5C213.3 13.6 212.7 12.7 212.2 12L210.7 12.7C211.2 13.5 211.8 14.3 212.2 15.3L213.8 14.5Z" fill="#003477"/>
<path d="M217.9 22.4002C219.6 21.7002 221.1 21.0002 222.4 20.3002V18.7002H211.6V20.3002H219.7C218.4 20.9002 217.2 21.4002 216 21.7002V23.0002H208.8V24.6002H216V27.1002C216 27.4002 215.8 27.6002 215.4 27.6002C214.7 27.6002 214.1 27.6002 213.5 27.6002L213.9 29.3002H216.5C216.9 29.3002 217.3 29.1002 217.6 28.8002C217.8 28.6002 217.9 28.2002 218 27.8002V24.8002H225.1V23.2002H218V22.6002L217.9 22.4002Z" fill="#003477"/>
<path d="M16 8.80039C15.3 9.10039 14.5 9.30039 13.7 9.40039V11.1004H15.8V11.8004H13.7V13.8004C14.5 13.6004 15.3 13.3004 15.9 13.1004V13.9004C14.9 14.3004 13.8 14.6004 12.7 14.9004L12.5 14.2004C12.7 14.2004 12.8 14.2004 12.9 14.2004V9.00039C13.9 8.90039 14.8 8.70039 15.6 8.40039L16 9.00039V8.80039ZM19.4 13.6004C19.4 13.8004 19.4 14.0004 19.2 14.1004C19 14.2004 18.9 14.3004 18.8 14.3004C18.7 14.3004 18.4 14.3004 18.1 14.3004C17.8 14.3004 17.7 14.3004 17.6 14.3004L17.3 13.5004C17.5 13.5004 17.8 13.5004 18.4 13.5004C19 13.5004 18.6 13.5004 18.6 13.3004V9.10039H17V15.1004H16.3V8.40039H19.4V13.5004V13.6004Z" fill="black"/>
<path d="M24.7996 10.5002H21.6996V11.6002C21.6996 13.1002 21.4996 14.4002 21.1996 15.3002L20.5996 14.9002C20.8996 14.1002 20.9996 13.2002 20.9996 12.1002V8.4002H24.7996V10.5002ZM24.0996 9.9002V9.1002H21.6996V9.9002H24.0996ZM24.7996 14.1002C24.7996 14.3002 24.7996 14.5002 24.5996 14.5002C24.3996 14.5002 24.2996 14.6002 23.9996 14.5002L23.7996 13.9002C23.7996 13.9002 23.7996 13.9002 23.8996 13.9002C24.0996 13.9002 24.0996 13.9002 24.0996 13.7002V12.1002H23.5996V15.0002H22.9996V12.1002H22.5996V14.5002H21.9996V11.4002H23.0996V10.7002H23.6996V11.4002H24.7996V13.9002V14.1002ZM25.9996 13.8002H25.2996V8.8002H25.9996V13.8002ZM27.3996 14.5002C27.3996 14.8002 27.3996 15.0002 27.1996 15.1002C26.9996 15.1002 26.7996 15.2002 26.3996 15.2002C25.9996 15.2002 25.9996 15.2002 25.8996 15.2002L25.6996 14.5002C25.8996 14.5002 26.0996 14.5002 26.2996 14.5002C26.4996 14.5002 26.5996 14.5002 26.6996 14.5002C26.7996 14.5002 26.6996 14.5002 26.6996 14.3002V8.2002H27.3996V14.5002Z" fill="black"/>
<path d="M20.3004 21.7999H14.4004V21.4999H17.2004C17.2004 21.2999 17.0004 21.1999 16.9004 21.0999L17.2004 20.8999C17.3004 21.0999 17.4004 21.2999 17.5004 21.4999H20.2004V21.7999H20.3004ZM20.4004 26.2999C20.4004 26.5999 20.4004 26.7999 20.2004 26.8999C20.1004 26.9999 19.9004 27.0999 19.8004 27.0999H17.5004C17.3004 27.0999 17.2004 27.0999 17.1004 26.8999C17.0004 26.7999 16.9004 26.5999 16.9004 26.3999V26.1999L14.4004 26.3999V26.0999L16.9004 25.8999V25.4999L14.8004 25.6999V25.3999L16.9004 25.1999V24.7999C16.4004 24.7999 15.9004 24.7999 15.3004 24.7999V24.4999C16.7004 24.4999 18.1004 24.4999 19.1004 24.1999L19.3004 24.4999C18.7004 24.5999 18.0004 24.6999 17.2004 24.7999V25.1999L19.8004 24.9999V25.2999L17.2004 25.4999V25.8999L20.2004 25.6999V25.9999L17.2004 26.1999V26.4999C17.2004 26.4999 17.2004 26.5999 17.2004 26.6999C17.2004 26.6999 17.3004 26.6999 17.4004 26.6999H19.5004C19.8004 26.6999 19.9004 26.4999 19.9004 26.0999H20.2004L20.4004 26.2999ZM20.2004 24.5999H19.8004V23.8999H14.8004V24.5999H14.4004V23.5999H20.2004V24.5999ZM19.7004 23.2999H15.0004V22.2999H19.7004V23.2999ZM19.3004 22.9999V22.5999H15.4004V22.9999H19.3004Z" fill="#AA8420" stroke="#AA8420" stroke-width="0.1" stroke-miterlimit="10"/>
<path d="M23.4002 24.7C23.0002 25.5 22.3002 26.2 21.5002 26.8L21.2002 26.5C22.0002 25.9 22.6002 25.3 23.0002 24.5L23.3002 24.7H23.4002ZM27.3002 23.9H24.5002V27.2H24.1002V23.9H21.3002V23.5H24.1002V21H24.5002V23.5H27.3002V23.9ZM23.1002 22.8L22.8002 23C22.6002 22.6 22.3002 22.1 21.9002 21.6L22.2002 21.4C22.6002 21.9 22.9002 22.3 23.1002 22.8ZM27.4002 26.5L27.1002 26.8C26.7002 26.1 26.1002 25.4 25.3002 24.8L25.6002 24.6C26.2002 25.1 26.8002 25.8 27.4002 26.6V26.5ZM26.7002 21.5C26.4002 22.1 26.1002 22.6 25.8002 23L25.4002 22.8C25.7002 22.5 26.0002 22 26.3002 21.3L26.6002 21.5H26.7002Z" fill="#AA8420" stroke="#AA8420" stroke-width="0.1" stroke-miterlimit="10"/>
<path d="M248.5 13.3001C248.4 14.0001 248.2 14.7001 248 15.2001L247.4 15.0001C247.6 14.4001 247.8 13.8001 247.9 13.2001H248.5V13.3001ZM250.4 9.7001C249.8 10.8001 249.2 11.6001 248.6 12.3001C248.8 12.3001 249.1 12.2001 249.5 12.1001C249.5 12.0001 249.5 11.8001 249.3 11.7001L249.8 11.5001C250 11.9001 250.2 12.4001 250.3 12.8001L249.8 13.0001C249.8 12.8001 249.8 12.7001 249.8 12.6001C249.2 12.8001 248.6 12.9001 247.8 13.0001V12.4001C248.1 12.0001 248.6 11.5001 249 10.8001C248.7 10.8001 248.3 10.9001 247.8 11.0001V10.5001C248.2 9.9001 248.7 9.1001 249.1 8.1001L249.7 8.3001C249.4 9.0001 249 9.6001 248.6 10.3001C248.9 10.3001 249.2 10.3001 249.4 10.2001C249.6 10.0001 249.7 9.7001 249.9 9.4001L250.5 9.6001L250.4 9.7001ZM249.6 14.9001H249C249 14.5001 249 13.9001 248.8 13.3001H249.4C249.5 13.8001 249.6 14.3001 249.6 14.9001ZM250.4 13.9001L249.9 14.1001C249.9 13.8001 249.7 13.5001 249.6 13.2001L250.1 13.0001C250.2 13.3001 250.3 13.6001 250.4 13.9001ZM251.8 12.1001C251.8 13.1001 251.4 14.1001 250.4 15.1001L249.9 14.7001C250.6 14.1001 251 13.5001 251.2 12.8001H250.4V12.2001H251.9L251.8 12.1001ZM254.5 14.4001L254 15.0001C253.5 14.6001 253.1 14.1001 252.6 13.3001V14.5001C252.6 14.7001 252.6 14.9001 252.3 15.0001C252.1 15.1001 251.7 15.2001 251.2 15.2001L251 14.5001C251.4 14.5001 251.6 14.5001 251.7 14.5001C251.8 14.5001 251.9 14.5001 251.9 14.4001V11.5001H250.4V8.9001H251.4C251.5 8.7001 251.7 8.4001 251.8 8.2001L252.5 8.4001C252.5 8.6001 252.3 8.8001 252.2 9.0001H254V11.6001H252.6V12.2001C252.6 12.3001 252.7 12.5001 252.9 12.6001C253.1 12.4001 253.4 12.2001 253.7 11.8001L254.2 12.2001C253.9 12.5001 253.6 12.8001 253.2 13.1001C253.5 13.5001 253.9 13.9001 254.4 14.4001H254.5ZM253.4 9.9001V9.4001H251.2V9.9001H253.4ZM253.4 11.0001V10.5001H251.2V11.0001H253.4Z" fill="black"/>
<path d="M262.4 15.0002H255.4V14.3002H258.3V8.2002H259V10.6002H262V11.3002H259V14.3002H262.4V15.0002Z" fill="black"/>
<path d="M263.301 21.2C263.301 21.5 263.101 21.9 263.001 22.2L262.801 22.7V27.2H262.501V23.4C262.301 23.8 262.101 24.1 261.901 24.3L261.601 24C262.201 23.3 262.601 22.3 263.001 21H263.301V21.2ZM267.801 26.6L267.601 26.9C267.201 26.7 266.701 26.3 266.201 25.8C266.201 26 266.201 26.1 266.201 26.2C266.201 26.5 266.201 26.7 266.101 26.8C266.101 26.9 265.901 27 265.801 27.1C265.701 27.1 265.401 27.1 265.101 27.1C264.801 27.1 264.901 27.1 264.801 27.1V26.8C265.301 26.8 265.601 26.8 265.701 26.8C265.801 26.8 265.901 26.6 265.901 26.3C265.901 26 265.901 26 265.901 25.8C265.301 26.2 264.501 26.6 263.401 27L263.201 26.7C264.301 26.4 265.201 26 265.801 25.5C265.801 25.5 265.801 25.3 265.601 25.1C265.001 25.5 264.301 25.9 263.401 26.1L263.201 25.8C264.201 25.5 264.901 25.2 265.501 24.8C265.501 24.7 265.301 24.6 265.201 24.5C264.701 24.8 264.101 25 263.301 25.2L263.101 24.9C263.901 24.8 264.601 24.5 265.201 24.1H263.801V22.9C263.701 23 263.501 23.1 263.401 23.2L263.201 22.9C264.001 22.3 264.601 21.8 264.901 21.2L265.201 21.4C265.201 21.5 265.101 21.6 265.001 21.7H266.701V22C266.501 22.2 266.301 22.5 266.101 22.7H267.401V24H265.801C265.701 24.1 265.601 24.2 265.501 24.3C265.701 24.6 265.901 24.8 266.101 25.2C266.501 25 266.901 24.7 267.401 24.3L267.701 24.5C267.301 24.8 266.901 25.1 266.401 25.4C266.901 26 267.501 26.4 268.001 26.7L267.801 26.6ZM266.201 21.8H264.701C264.401 22.1 264.201 22.3 263.901 22.5H265.601C265.801 22.2 266.101 22 266.201 21.8ZM265.401 23.6V22.9H264.101V23.6H265.401ZM267.001 23.6V22.9H265.701V23.6H267.001Z" fill="#AA8420" stroke="#AA8420" stroke-width="0.1" stroke-miterlimit="10"/>
<path d="M274.801 23.5H271.901C271.401 23.9 270.901 24.1 270.401 24.3H271.501C272.201 24.3 272.601 24.3 272.601 24.3C272.901 24.2 273.101 24 273.501 23.8L273.801 24C272.601 24.7 271.501 25.2 270.301 25.5C271.501 25.5 272.701 25.5 273.801 25.3C273.601 25.1 273.501 25 273.301 24.8L273.601 24.6C274.101 25 274.501 25.5 274.801 25.9L274.501 26.1C274.301 25.9 274.201 25.7 274.101 25.6C273.401 25.6 272.701 25.7 272.001 25.7V26.7C272.001 26.9 272.001 27 271.801 27.1C271.701 27.1 271.501 27.2 271.101 27.2C270.701 27.2 270.901 27.2 270.901 27.2V26.8C270.901 26.8 271.101 26.8 271.201 26.8C271.401 26.8 271.501 26.8 271.501 26.8C271.501 26.8 271.501 26.8 271.501 26.7V25.7C270.901 25.7 270.101 25.7 269.101 25.7V25.4C270.001 25.2 270.901 24.9 271.801 24.5C271.301 24.5 270.701 24.5 270.101 24.5C269.501 24.5 269.701 24.5 269.601 24.5V24.2C270.101 24 270.701 23.7 271.201 23.4H268.601V23.1H271.501V22.5H269.301V22.2H271.501V21.7H268.901V21.4H271.501V21H271.901V21.4H274.401V21.7H271.901V22.2H274.001V22.5H271.901V23.1H274.701V23.4L274.801 23.5ZM270.801 26.1C270.401 26.4 269.801 26.8 269.001 27.1L268.801 26.8C269.501 26.5 270.101 26.2 270.601 25.9L270.901 26.2L270.801 26.1ZM274.601 26.8L274.401 27.1C273.901 26.7 273.301 26.4 272.601 26.1L272.801 25.8C273.501 26.1 274.101 26.4 274.601 26.8Z" fill="#AA8420" stroke="#AA8420" stroke-width="0.1" stroke-miterlimit="10"/>
</svg>
