<svg width="215" height="22" viewBox="0 0 215 22" fill="none" xmlns="http://www.w3.org/2000/svg">
<path d="M44.9497 20.76H37.9697V0H44.9497V0.25H38.2197V20.5H44.9497V20.75V20.76Z" fill="#231815"/>
<path d="M173.82 20.7599H166.84V20.5099H173.57V0.319946H166.84V0.0699463H173.82V20.7599Z" fill="#231815"/>
<path d="M10.3804 18.87V19.56H5.80035V18.94L8.29035 16.18C8.62035 15.81 8.87035 15.47 9.02035 15.17C9.17035 14.87 9.25035 14.57 9.25035 14.27C9.25035 13.88 9.14035 13.57 8.91035 13.36C8.68035 13.15 8.36035 13.05 7.94035 13.05C7.26035 13.05 6.59035 13.32 5.92035 13.87L5.61035 13.24C5.89035 12.97 6.24035 12.76 6.67035 12.6C7.10035 12.44 7.53035 12.36 7.96035 12.36C8.61035 12.36 9.13035 12.53 9.51035 12.86C9.89035 13.2 10.0804 13.65 10.0804 14.23C10.0804 14.64 9.99035 15.03 9.80035 15.4C9.62035 15.78 9.31035 16.2 8.88035 16.67L6.85035 18.87H10.3804Z" fill="#AA8420"/>
<path d="M187.15 18.87V19.56H182.57V18.94L185.06 16.18C185.39 15.81 185.64 15.47 185.79 15.17C185.94 14.87 186.02 14.57 186.02 14.27C186.02 13.88 185.91 13.57 185.68 13.36C185.45 13.15 185.13 13.05 184.71 13.05C184.03 13.05 183.36 13.32 182.69 13.87L182.38 13.24C182.66 12.97 183.01 12.76 183.44 12.6C183.87 12.44 184.3 12.36 184.73 12.36C185.38 12.36 185.9 12.53 186.28 12.86C186.66 13.2 186.85 13.65 186.85 14.23C186.85 14.64 186.76 15.03 186.57 15.4C186.39 15.78 186.08 16.2 185.65 16.67L183.62 18.87H187.15Z" fill="#AA8420"/>
<path d="M188.88 18.71C188.46 18.09 188.24 17.19 188.24 16C188.24 14.81 188.45 13.9 188.88 13.28C189.3 12.66 189.92 12.36 190.73 12.36C191.54 12.36 192.16 12.67 192.59 13.28C193.01 13.9 193.22 14.8 193.22 15.99C193.22 17.18 193.01 18.09 192.59 18.71C192.17 19.33 191.55 19.64 190.73 19.64C189.91 19.64 189.3 19.33 188.88 18.72V18.71ZM191.99 18.22C192.26 17.74 192.4 16.99 192.4 15.98C192.4 14.97 192.27 14.23 192 13.76C191.73 13.29 191.31 13.05 190.74 13.05C190.17 13.05 189.76 13.29 189.49 13.76C189.22 14.23 189.08 14.97 189.08 15.98C189.08 16.99 189.22 17.73 189.49 18.22C189.76 18.7 190.18 18.94 190.74 18.94C191.3 18.94 191.73 18.7 191.99 18.22Z" fill="#AA8420"/>
<path d="M63.3805 8.46005H52.9505V0.430054H50.2305V20.3401H52.9505V10.7801H63.3805V20.3401H66.1105V0.430054H63.3805V8.46005Z" fill="#003477"/>
<path d="M91.5998 0.430054H88.0298L78.7398 9.06005V0.430054H76.0098V20.3401H78.7398V12.0201L79.8398 11.0701L88.0898 20.3401H91.7798L81.7598 9.38005L91.5998 0.430054Z" fill="#003477"/>
<path d="M112.31 12.1801C112.31 15.4301 111.23 18.4401 107.02 18.4401C102.81 18.4401 101.73 15.4301 101.73 12.1801V0.430054H99V13.0301C99 17.4101 101.99 20.7601 107.02 20.7601C112.05 20.7601 115.03 17.4101 115.03 13.0301V0.430054H112.3V12.1801H112.31Z" fill="#003477"/>
<path d="M131.94 8.56L130.37 8C129 7.52 127.32 6.71 127.32 5.15C127.32 3.41 129.23 2.33 130.98 2.33C132.63 2.33 133.68 2.97 134.49 4.2L136.67 3.01C135.48 1.08 133.48 0 131.04 0C127.73 0 124.59 1.93 124.59 5.15C124.59 7.92 126.86 9.22 129.35 10.19L130.86 10.77C132.75 11.48 134.63 12.41 134.63 14.55C134.63 16.69 132.95 18.43 130.59 18.43C128.23 18.43 126.32 16.84 126.35 14.65L123.59 15.18C124.05 18.37 126.81 20.75 130.36 20.75C134.28 20.75 137.36 18.16 137.36 14.55C137.36 11.22 135.04 9.66 131.93 8.56H131.94Z" fill="#003477"/>
<path d="M144.28 0.430054V2.70005H149.48V20.3401H152.2V2.70005H157.4V0.430054H144.28Z" fill="#003477"/>
<path d="M15.3997 1.34998C14.6597 1.61998 13.8897 1.80998 13.0997 1.93998V3.59998H15.1697V4.30998H13.0997V6.31998C13.9297 6.09998 14.6697 5.84998 15.3297 5.56998L15.3097 6.32998C14.2797 6.73998 13.2297 7.06998 12.1497 7.30998L11.9297 6.60998C12.1097 6.57998 12.2497 6.54998 12.3497 6.51998V1.33998C13.3397 1.20998 14.2297 1.00998 15.0097 0.72998L15.3997 1.34998ZM18.7497 6.16998C18.7497 6.37998 18.6997 6.54998 18.5897 6.65998C18.4797 6.76998 18.3397 6.83998 18.1597 6.84998C17.9797 6.85998 17.7597 6.86998 17.4897 6.86998C17.2997 6.86998 17.1297 6.86998 16.9697 6.85998L16.7197 6.09998C16.8697 6.11998 17.2397 6.12998 17.8297 6.12998C17.9497 6.12998 18.0097 6.06998 18.0097 5.92998V1.73998H16.3797V7.75998H15.6397V1.02998H18.7497V6.16998Z" fill="black"/>
<path d="M24.1695 3.09003H21.0495V4.21003C21.0495 5.75003 20.8995 6.97003 20.5895 7.87003L19.9395 7.44003C20.2295 6.64003 20.3695 5.71003 20.3695 4.66003V0.960029H24.1695V3.09003ZM23.4795 2.43003V1.61003H21.0595V2.43003H23.4795ZM24.1595 6.66003C24.1595 6.88003 24.0995 7.03003 23.9795 7.11003C23.8595 7.19003 23.6495 7.22003 23.3495 7.20003L23.1895 6.57003C23.1895 6.57003 23.2695 6.59003 23.3195 6.59003C23.4795 6.59003 23.5595 6.53003 23.5595 6.41003V4.80003H23.0895V7.75003H22.4695V4.80003H22.0195V7.24003H21.4095V4.14003H22.4595V3.44003H23.0795V4.14003H24.1395V6.67003L24.1595 6.66003ZM25.3995 6.31003H24.7295V1.34003H25.3995V6.32003V6.31003ZM26.7495 7.07003C26.7495 7.35003 26.6695 7.53003 26.5195 7.62003C26.3695 7.71003 26.0995 7.76003 25.7095 7.76003C25.5295 7.76003 25.3595 7.76003 25.2095 7.74003L25.0295 7.04003C25.2695 7.06003 25.4595 7.06003 25.5995 7.06003C25.8195 7.06003 25.9495 7.05003 25.9895 7.02003C26.0295 6.99003 26.0595 6.94003 26.0595 6.87003V0.780029H26.7495V7.07003Z" fill="black"/>
<path d="M20.37 14.22H14.46V13.92H17.29C17.2 13.76 17.12 13.62 17.03 13.5L17.37 13.35C17.5 13.54 17.62 13.73 17.72 13.92H20.38V14.22H20.37ZM20.45 18.69C20.45 18.96 20.38 19.16 20.24 19.28C20.11 19.4 19.98 19.46 19.86 19.46H17.55C17.37 19.46 17.23 19.41 17.12 19.3C17.01 19.19 16.95 19.04 16.95 18.84V18.6L14.49 18.79L14.46 18.48L16.94 18.29V17.85L14.8 18.02L14.77 17.7L16.94 17.55V17.16C16.45 17.18 15.92 17.19 15.34 17.19L15.21 16.9C16.78 16.92 18.1 16.8 19.16 16.55L19.37 16.82C18.75 16.97 18.06 17.07 17.29 17.13V17.52L19.86 17.31L19.88 17.62L17.29 17.83V18.26L20.25 18.03L20.28 18.34L17.29 18.57V18.89C17.29 18.96 17.32 19.02 17.37 19.08C17.42 19.14 17.48 19.17 17.54 19.17H19.68C19.96 19.17 20.09 18.98 20.08 18.6L20.42 18.71L20.45 18.69ZM20.29 17.04H19.93V16.38H14.89V17.04H14.52V16.08H20.29V17.04ZM19.76 15.67H15.09V14.65H19.76V15.67ZM19.38 15.37V14.94H15.45V15.37H19.38Z" fill="#AA8420" stroke="#AA8420" stroke-width="0.1" stroke-miterlimit="10"/>
<path d="M23.5001 17.12C23.0501 17.89 22.4201 18.59 21.6101 19.21L21.3301 18.92C22.1401 18.35 22.7501 17.68 23.1701 16.9L23.5001 17.11V17.12ZM27.4201 16.27H24.5801V19.56H24.2101V16.27H21.4001V15.89H24.2101V13.41H24.5801V15.89H27.4201V16.27ZM23.1601 15.23L22.8201 15.43C22.6301 15.01 22.3301 14.54 21.9001 14L22.2301 13.79C22.6001 14.26 22.9101 14.74 23.1601 15.23ZM27.4401 18.88L27.1401 19.17C26.7101 18.45 26.1201 17.79 25.3601 17.18L25.6301 16.93C26.2701 17.43 26.8701 18.08 27.4501 18.88H27.4401ZM26.8001 13.92C26.5301 14.53 26.2301 15.03 25.9001 15.42L25.5401 15.22C25.8601 14.88 26.1601 14.39 26.4501 13.76L26.8001 13.91V13.92Z" fill="#AA8420" stroke="#AA8420" stroke-width="0.1" stroke-miterlimit="10"/>
<path d="M185.68 6.67999C184.72 7.09999 183.82 7.42999 182.97 7.66999L182.76 7.04999C183.46 6.86999 184.37 6.53999 185.49 6.04999L185.68 6.67999ZM185.59 2.33999C185.1 3.39999 184.53 4.37999 183.89 5.25999C184.2 5.16999 184.68 4.99999 185.32 4.74999L185.48 5.40999C184.64 5.72999 183.83 5.98999 183.06 6.19999L182.85 5.56999C183.3 5.07999 183.73 4.45999 184.13 3.72999C183.75 3.82999 183.38 3.89999 183.04 3.94999L182.84 3.33999C183.34 2.67999 183.79 1.80999 184.19 0.73999L184.82 0.97999C184.53 1.75999 184.18 2.47999 183.77 3.11999C184.01 3.08999 184.27 3.01999 184.56 2.92999C184.71 2.68999 184.85 2.38999 184.98 2.03999L185.6 2.33999H185.59ZM189.82 6.31999C189.67 7.29999 189.35 7.79999 188.86 7.79999C188.67 7.79999 188.46 7.70999 188.24 7.51999C188.01 7.32999 187.8 7.07999 187.61 6.74999C187.02 7.13999 186.31 7.49999 185.47 7.81999L185.1 7.22999C185.96 6.93999 186.7 6.57999 187.33 6.13999C187.15 5.68999 187.03 5.17999 186.97 4.59999L185.53 4.77999L185.45 4.11999L186.89 3.91999C186.85 3.54999 186.83 3.24999 186.83 3.02999L185.76 3.16999L185.67 2.50999L186.8 2.36999L186.77 0.79999L187.46 0.75999C187.46 1.08999 187.46 1.58999 187.49 2.27999L189.44 2.03999L189.53 2.68999L187.52 2.94999C187.52 3.22999 187.54 3.52999 187.59 3.83999L189.71 3.56999L189.81 4.22999L187.64 4.49999C187.66 4.88999 187.74 5.28999 187.88 5.68999C188.2 5.42999 188.52 5.06999 188.84 4.60999L189.37 4.95999C189.02 5.47999 188.62 5.93999 188.15 6.33999C188.29 6.56999 188.43 6.74999 188.56 6.87999C188.69 7.00999 188.78 7.06999 188.83 7.06999C188.87 7.06999 188.9 7.05999 188.93 7.02999C188.96 6.99999 189.01 6.87999 189.07 6.66999C189.14 6.45999 189.19 6.23999 189.22 6.00999L189.83 6.30999L189.82 6.31999ZM189.22 1.50999L188.79 2.00999C188.5 1.75999 188.17 1.53999 187.79 1.35999L188.24 0.85999C188.62 1.05999 188.95 1.27999 189.22 1.51999V1.50999Z" fill="black"/>
<path d="M197.78 7.58003H190.8V6.86003H193.67V0.780029H194.42V3.18003H197.44V3.88003H194.42V6.85003H197.78V7.57003V7.58003Z" fill="black"/>
<path d="M198.169 13.48C198.069 13.82 197.959 14.17 197.829 14.52L197.629 14.99V19.51H197.289V15.72C197.049 16.12 196.859 16.41 196.699 16.6L196.439 16.31C196.989 15.62 197.459 14.63 197.829 13.35L198.159 13.48H198.169ZM202.619 18.93L202.399 19.23C201.979 19.03 201.519 18.68 200.999 18.17C200.999 18.32 201.009 18.44 201.009 18.52C201.009 18.81 200.969 19.03 200.899 19.17C200.829 19.31 200.719 19.4 200.589 19.45C200.459 19.49 200.209 19.51 199.859 19.51C199.749 19.51 199.649 19.51 199.569 19.51L199.469 19.16C200.049 19.17 200.389 19.16 200.499 19.1C200.609 19.05 200.659 18.86 200.659 18.56C200.659 18.43 200.659 18.26 200.629 18.06C200.059 18.5 199.229 18.89 198.149 19.22L197.919 18.93C199.049 18.61 199.919 18.21 200.529 17.71C200.519 17.63 200.459 17.49 200.369 17.27C199.789 17.7 199.039 18.04 198.119 18.29L197.939 17.99C198.899 17.73 199.649 17.4 200.199 16.98C200.129 16.87 200.039 16.76 199.929 16.67C199.439 16.93 198.819 17.15 198.059 17.34L197.889 17.01C198.669 16.86 199.379 16.6 199.999 16.23H198.559V15.01C198.429 15.12 198.289 15.22 198.139 15.32L197.959 15C198.779 14.4 199.349 13.85 199.669 13.35L199.989 13.53C199.919 13.64 199.849 13.75 199.779 13.85H201.519V14.17C201.339 14.4 201.129 14.63 200.899 14.88H202.199V16.22H200.579C200.449 16.32 200.329 16.41 200.229 16.47C200.469 16.72 200.659 17.02 200.789 17.35C201.209 17.14 201.629 16.86 202.069 16.5L202.329 16.74C201.969 17.06 201.519 17.36 200.989 17.65C201.509 18.23 202.059 18.65 202.629 18.94L202.619 18.93ZM201.049 14.16H199.499C199.239 14.43 198.979 14.67 198.739 14.87H200.409C200.659 14.61 200.869 14.37 201.049 14.16ZM200.219 15.92V15.19H198.909V15.92H200.219ZM201.859 15.92V15.19H200.559V15.92H201.859Z" fill="#AA8420" stroke="#AA8420" stroke-width="0.1" stroke-miterlimit="10"/>
<path d="M209.599 15.7699H206.669C206.199 16.1299 205.689 16.4099 205.129 16.5999L206.219 16.5699C206.919 16.5399 207.279 16.5199 207.309 16.4999C207.569 16.3699 207.849 16.1999 208.169 15.9999L208.459 16.2199C207.309 16.9699 206.149 17.4599 204.989 17.6999C206.199 17.6699 207.369 17.6099 208.509 17.4999C208.349 17.3199 208.159 17.1499 207.959 16.9899L208.269 16.7799C208.759 17.2099 209.159 17.6499 209.499 18.0999L209.229 18.3299C209.069 18.1199 208.929 17.9499 208.819 17.8299C208.079 17.8899 207.389 17.9299 206.749 17.9599V19.0099C206.749 19.2099 206.689 19.3399 206.579 19.4099C206.469 19.4799 206.239 19.5199 205.899 19.5199C205.819 19.5199 205.749 19.5199 205.669 19.5199L205.579 19.1599C205.709 19.1799 205.849 19.1899 205.969 19.1899C206.149 19.1899 206.269 19.1699 206.309 19.1399C206.349 19.1099 206.369 19.0599 206.369 19.0099V17.9899C205.749 18.0099 204.949 18.0199 203.979 18.0199L203.939 17.6999C204.899 17.4899 205.809 17.1999 206.679 16.8499C206.189 16.8999 205.629 16.9299 204.999 16.9299C204.819 16.9299 204.639 16.9299 204.449 16.9299L204.419 16.6199C204.989 16.4299 205.549 16.1599 206.079 15.8199H203.499V15.4999H206.359V14.9299H204.189V14.6099H206.359V14.1199H203.809V13.7999H206.359V13.4399H206.749V13.7999H209.259V14.1199H206.749V14.6099H208.829V14.9299H206.749V15.4999H209.589V15.8199L209.599 15.7699ZM205.599 18.4399C205.169 18.7799 204.569 19.1099 203.789 19.4199L203.559 19.1099C204.269 18.8599 204.859 18.5499 205.339 18.1799L205.599 18.4399ZM209.479 19.1499L209.239 19.4399C208.699 19.0499 208.099 18.7199 207.449 18.4599L207.679 18.1599C208.379 18.4399 208.979 18.7799 209.479 19.1499Z" fill="#AA8420" stroke="#AA8420" stroke-width="0.1" stroke-miterlimit="10"/>
</svg>
