<svg width="206" height="86" viewBox="0 0 206 86" fill="none" xmlns="http://www.w3.org/2000/svg">
<g clip-path="url(#clip0_83_3668)">
<path d="M108.9 8.0999C109.1 7.8999 109.1 7.3999 109.1 7.3999H97.9004C97.9004 7.3999 98.0004 7.8999 98.1004 8.0999H108.8H108.9Z" fill="#AA8420"/>
<path d="M108.2 9.1C108.4 8.9 108.6 8.5 108.6 8.5H98.4004C98.4004 8.5 98.5004 8.8 98.8004 9.1H108.2Z" fill="#AA8420"/>
<path d="M107.4 9.9C107.6 9.8 107.9 9.5 107.9 9.5H99.2002C99.2002 9.5 99.4002 9.7 99.6002 9.9H107.5H107.4Z" fill="#AA8420"/>
<path d="M106.4 10.6999C106.6 10.6999 106.9 10.3999 106.9 10.3999H100.1C100.1 10.3999 100.1 10.3999 100.6 10.6999H106.4Z" fill="#AA8420"/>
<path d="M101.4 11.3C101.4 11.3 102.1 11.7 103.5 11.7C104.9 11.7 105.8 11.3 105.8 11.3H101.4Z" fill="#AA8420"/>
<path d="M101.3 12.2001C101.3 12.2001 102.2 12.2001 102.7 12.6001C103.2 13.0001 103.6 13.7001 103.6 13.7001C103.6 13.7001 103.9 13.0001 104.4 12.7001C104.9 12.3001 105.7 12.2001 105.7 12.2001H114.5L116.2 14.8001H108.3C108.3 14.8001 107.7 14.8001 106.9 15.3001C106.5 15.5001 106.1 16.0001 106.1 16.0001C106.1 16.0001 106.1 16.2001 105.9 16.3001C105.9 16.4001 105.7 16.5001 105.6 16.5001H101.5C101.5 16.5001 101.3 16.5001 101.3 16.3001C101.3 16.2001 101.3 16.3001 101.2 16.1001C101.2 16.0001 101 15.7001 100.3 15.3001C99.7004 14.9001 99.0004 14.8001 99.0004 14.8001H90.9004L92.7004 12.1001H101.4L101.3 12.2001Z" fill="#003477"/>
<path d="M95 15.8V28.9C95 28.9 95 30.1 96 31.6C97 33.2 98.4 33.9 98.4 33.9L99.5 32.2C99.5 32.2 98.5 31.6 97.8 30.5C97.1 29.4 97.1 28.4 97.1 28.4V15.7H95V15.8Z" fill="#003477"/>
<path d="M109.9 15.8V28.5C109.9 28.5 109.7 29.8 109.1 30.7C108.5 31.6 107.5 32.4001 107.5 32.4001L108.6 34.1C108.6 34.1 110.2 32.9 111 31.7C111.8 30.5 112 28.6 112 28.6V15.9H109.9V15.8Z" fill="#003477"/>
<path d="M91.6996 15.8V29C91.6996 29 91.7996 31.0001 93.0996 33.2001C94.3996 35.3001 96.6996 36.8 96.6996 36.8L97.7996 35.1C97.7996 35.1 96.2996 34.3 95.0996 32.5C93.8996 30.7 93.7996 29 93.7996 29V15.9H91.5996L91.6996 15.8Z" fill="#003477"/>
<path d="M101.3 17.2V31.1C101.3 31.1 101.3 31.1 101.3 31.3C101.3 31.5 101.1 31.7 101.1 31.7L96.4004 39.4H110.7L106 31.5V31.1C105.9 31.1 105.8 30.7 105.8 30.7V17.1H104.1V31.2C104.1 31.2 104.1 31.4 104.1 31.6C104.1 31.8 104.2 32 104.2 32L107.1 36.7H99.8004L102.6 32C102.6 32 102.6 31.8 102.8 31.6C102.8 31.4 102.8 31.2 102.8 31.2V17H101.1L101.3 17.2Z" fill="#AA8420"/>
<path d="M113.2 15.8V28.8C113.2 28.8 113.2 30.5001 112 32.4001C110.8 34.3001 109.4 35.1 109.4 35.1L110.4 36.9001C110.4 36.9001 112.5 35.6001 113.9 33.4001C115.2 31.3001 115.4 28.8 115.4 28.8V15.8H113.3H113.2Z" fill="#003477"/>
<path d="M97.8998 7.1C97.8998 7.1 97.1998 3.2 99.9998 1.2C99.9998 1.2 101.3 0 103.4 0C105.5 0 106.9 1.2 106.9 1.2C110 3.5 109.1 7.1 109.1 7.1H97.7998H97.8998Z" fill="#AA8420"/>
<path d="M69.8996 49.3C70.2996 49.2 70.4996 49.1 70.6996 49V53H71.5996V52.6H76.1996V53H77.0996V49C77.1996 49 77.3996 49.1001 77.4996 49.2001C77.5996 49.2001 77.7996 49.2 77.8996 49.3L78.2996 48.5C76.9996 48.2 75.8996 47.8 75.1996 47.1H78.1996V46.3H74.2996V45.5C75.4996 45.4 76.5996 45.3 77.3996 45.1L76.9996 44.3C75.6996 44.6 73.8996 44.7001 71.3996 44.7001C68.8996 44.7001 70.3996 44.7001 70.0996 44.7001L70.3996 45.5C70.9996 45.5 71.9996 45.5 73.3996 45.5V46.3H69.5996V47.1H72.4996C71.6996 47.8 70.6996 48.3 69.5996 48.6L69.9996 49.4001L69.8996 49.3ZM76.0996 51.8H71.4996V51H76.0996V51.8ZM74.1996 47C74.7996 47.8 75.4996 48.4001 76.4996 48.7001H74.1996V47ZM76.0996 49.5V50.2001H71.4996V49.5H76.0996ZM73.2996 47V48.7001H71.1996C72.0996 48.3001 72.7996 47.8 73.2996 47Z" fill="#003477"/>
<path d="M83.2998 47.7999C82.7998 47.3999 82.3998 47.0999 81.8998 46.8999L81.2998 47.5999C81.6998 47.7999 82.0998 48.1999 82.5998 48.5999L83.1998 47.7999H83.2998Z" fill="#003477"/>
<path d="M88.9002 50.5999C88.9002 51.0999 88.9002 51.3999 88.8002 51.5999C88.8002 51.7999 88.6002 51.8999 88.3002 51.8999H85.5002C85.3002 51.8999 85.2002 51.7999 85.2002 51.5999V50.9999H88.2002V49.0999C88.6002 49.3999 89.0002 49.7999 89.6002 50.0999L90.0002 49.2999C89.0002 48.7999 88.4002 48.2999 88.1002 47.7999H89.9002V46.9999H88.2002V46.0999H89.7002V45.3999H88.2002V44.3999H87.4002V45.3999H85.7002V44.3999H84.8002V45.3999H83.6002C83.2002 45.1999 82.8002 44.8999 82.3002 44.5999L81.7002 45.2999C82.1002 45.5999 82.6002 45.8999 83.1002 46.3999L83.7002 45.6999V46.1999H84.9002V47.0999H83.5002V47.8999H85.0002C84.7002 48.4999 84.1002 48.9999 83.0002 49.4999L83.5002 50.2999C83.9002 49.9999 84.2002 49.7999 84.3002 49.6999V51.7999C84.3002 52.1999 84.3002 52.4999 84.5002 52.6999C84.7002 52.7999 84.9002 52.8999 85.3002 52.8999H88.3002C88.8002 52.8999 89.1002 52.8999 89.3002 52.6999C89.5002 52.4999 89.6002 51.9999 89.7002 51.1999L88.8002 50.8999L88.9002 50.5999ZM85.7002 46.0999H87.4002V46.9999H85.7002V46.0999ZM85.9002 47.7999H87.1002C87.3002 48.0999 87.5002 48.3999 87.7002 48.5999H85.3002C85.5002 48.3999 85.7002 48.0999 85.9002 47.7999ZM85.2002 49.2999H87.3002V50.1999H85.2002V49.2999Z" fill="#003477"/>
<path d="M83.3004 50.1001L82.5004 49.6001C82.3004 50.5001 81.9004 51.3001 81.4004 52.1001L82.1004 52.9001C82.6004 52.1001 83.0004 51.1001 83.3004 50.1001Z" fill="#003477"/>
<path d="M99.8 46.1C99.1 45.6 98.5 45.2 98.1 45L97.5 45.6C97.9 45.9 98.5 46.3 99.2 46.8L99.8 46.1Z" fill="#003477"/>
<path d="M99.7004 48.2999C99.0004 47.7999 98.5004 47.4 98.0004 47.2L97.4004 47.7999C97.9004 48.0999 98.5004 48.5 99.1004 49L99.7004 48.2999Z" fill="#003477"/>
<path d="M93.7002 51.2001C94.3002 50.4001 94.7002 49.7 95.0002 49.1V52.9001H95.9002V48.6C96.1002 48.8 96.2002 49.0001 96.4002 49.2001C96.6002 49.4001 96.8002 49.6001 97.0002 49.9001L97.5002 49.1C97.1002 48.7 96.6002 48.2 95.9002 47.6H97.3002V46.8H95.9002V45.5C96.4002 45.5 96.8002 45.3 97.3002 45.1L97.0002 44.3C96.0002 44.7 94.8002 44.9 93.4002 45L93.6002 45.8C94.2002 45.8 94.7002 45.8 95.0002 45.6V46.8H93.3002V47.6H95.0002C94.6002 48.6 94.0002 49.6 93.2002 50.5L93.7002 51.3V51.2001Z" fill="#003477"/>
<path d="M97.0996 50.9L100.2 50.4V53H101.1V50.2999L101.9 50.0999V49.2999H101.1C101.1 49.3999 101.1 44.2 101.1 44.2H100.2V49.5L97.0996 50V50.9Z" fill="#003477"/>
<path d="M105 49.1001L105.2 50.1001C105.5 50.1001 105.9 49.9001 106.4 49.8001V51.7001C106.4 51.9001 106.4 52.0001 106.1 52.0001H105.3L105.5 52.9001H106.2C106.7 52.9001 107 52.9001 107.1 52.7001C107.2 52.6001 107.3 52.3001 107.3 51.8001V49.5001C107.8 49.3001 108.2 49.2001 108.4 49.1001V48.2001C108.2 48.3001 107.8 48.4001 107.3 48.6001V47.0001H108.4V46.4001H110.4V47.6001H108.6V48.4001H112.3C112 49.2001 111.6 49.8001 111 50.3001C110.6 49.9001 110.2 49.3001 109.7 48.5001L108.9 48.8001C109.4 49.6001 109.8 50.3001 110.3 50.8001C109.4 51.4001 108.5 51.8001 107.6 52.0001L108.1 52.8001C109 52.6001 109.9 52.2001 110.9 51.4001C111.6 52.0001 112.4 52.5001 113.2 52.8001L113.7 51.9001C112.9 51.7001 112.2 51.3001 111.6 50.8001C112 50.5001 112.3 50.1001 112.6 49.5001C112.9 49.0001 113.1 48.5001 113.2 48.2001V47.4001H111.3V46.2001H113.5V45.4001H111.3V44.1001H110.4V45.4001H108.4V46.0001H107.3V44.1001H106.4V46.0001H105V46.8001H106.4V48.7001C106 48.8001 105.5 48.9001 104.9 49.0001L105 49.1001Z" fill="#003477"/>
<path d="M116.9 52.1L117.6 53C119.7 51.6 120.9 49.8 121.3 47.6H121.5C122.1 50.1 123.3 51.9 124.9 53L125.6 52.2001C124.7 51.6001 124 50.9 123.4 50C122.9 49.2 122.5 48.4 122.4 47.6H125.4V46.6H121.5C121.5 46.1 121.5 45.3 121.5 44.3H120.5C120.5 45.3 120.5 46.1 120.4 46.6H117V47.6H120.2C120 48.5 119.7 49.3 119 50.1C118.4 50.9 117.6 51.6 116.7 52.1H116.9Z" fill="#003477"/>
<path d="M129.8 48.9001H136.5V50.3H137.3V48.2001H136.8V44.5H134.6V45.2001H136.1V45.7001H134.7V46.3H136V46.8H134.7V47.4001H136V48H130.2V47.4001H131.6V46.8H130.2V46.3H131.6V45.7001H130.2V45.2001C130.9 45.2001 131.5 45.1 131.8 45L131.4 44.3C130.8 44.4 130.2 44.5 129.4 44.6V48.2001C129.5 48.2001 129 48.2001 129 48.2001V50.3H129.8V48.9001Z" fill="#003477"/>
<path d="M131.7 45.5L132.2 46.0999C132.6 45.8999 133 45.7 133.3 45.5C133.3 45.5 133.5 45.7 133.8 46L134.4 45.5999C134.2 45.3999 134 45.1999 133.9 45.0999C134.1 44.8999 134.3 44.7999 134.4 44.5999L133.9 44.2C133.8 44.4 133.6 44.5 133.3 44.7C133.1 44.5 132.8 44.3 132.6 44.2L132.1 44.5999C132.4 44.7999 132.6 44.9 132.7 45C132.5 45.1 132.2 45.2 131.7 45.4V45.5Z" fill="#003477"/>
<path d="M134 46.1001C133.8 46.4001 133.6 46.6001 133.4 46.7001C133.3 46.6001 133.1 46.5001 133 46.4001C133 46.4001 132.8 46.3001 132.7 46.2001L132.2 46.6001C132.5 46.8001 132.7 47.0001 132.8 47.1001C132.6 47.2001 132.3 47.3001 131.8 47.4001L132.2 48.0001C132.6 47.8001 133 47.7001 133.3 47.5001C133.3 47.5001 133.5 47.7001 133.8 48.0001L134.4 47.5001C134.2 47.3001 134 47.2001 133.9 47.0001C134.1 46.9001 134.3 46.7001 134.5 46.5001L134 46.1001Z" fill="#003477"/>
<path d="M132.8 51.9C132.8 52.1 132.8 52.2 132.5 52.2H131.2L131.4 52.9H132.8C133.4 52.9 133.6 52.6 133.6 51.9V51.5H137.5V50.7H133.6C134.4 50.5 135.1 50.2 135.6 49.9V49.2H130.4V49.9H134.3C133.6 50.1 133.1 50.1999 132.7 50.2999V50.7H128.7V51.5H132.7V51.9H132.8Z" fill="#003477"/>
<path d="M67.1004 63.4001H67.9004V57.4001H69.5004V56.6001H65.4004V57.4001H67.0004V63.4001H67.1004Z" fill="#003477"/>
<path d="M75.2004 63.4001V56.6001H74.4004V59.3001H71.2004V56.6001H70.4004V63.4001H71.2004V60.1001H74.4004V63.4001H75.2004Z" fill="#003477"/>
<path d="M80.2 57.4001V56.6001H76.5V63.4001H80.2V62.6001H77.4V60.0001H80.1V59.2001H77.4V57.3001H80.2V57.4001Z" fill="#003477"/>
<path d="M83.9004 56.6001V63.4001H84.7004V60.1001H87.9004V63.4001H88.7004V56.6001H87.9004V59.3001H84.7004V56.6001H83.9004Z" fill="#003477"/>
<path d="M93.3002 63.4999C95.3002 63.4999 96.9002 61.9999 96.9002 59.8999C96.9002 57.7999 95.3002 56.3999 93.3002 56.3999C91.3002 56.3999 89.7002 57.9999 89.7002 59.8999C89.7002 61.7999 91.3002 63.4999 93.3002 63.4999ZM93.3002 57.1999C94.9002 57.1999 96.0002 58.4999 96.0002 59.9999C96.0002 61.4999 94.8002 62.7999 93.3002 62.7999C91.8002 62.7999 90.6002 61.5999 90.6002 59.9999C90.6002 58.3999 91.7002 57.1999 93.3002 57.1999Z" fill="#003477"/>
<path d="M97.7002 63.4H98.5002V58.2999L103.6 63.7V56.5999H102.8V61.5999L97.7002 56.2V63.2999V63.4Z" fill="#003477"/>
<path d="M107.9 63.5C109.8 63.5 111.1 62.1001 111.1 60.2001V59.9001H108.4V60.7001H110.2C110.2 61.8001 109 62.7001 108 62.7001C107 62.7001 105.3 61.3001 105.3 59.9001C105.3 58.5001 106.5 57.1 108 57.1C109.5 57.1 109.7 57.5001 110.1 58.2001L110.7 57.6C110 56.8 109 56.3 107.9 56.3C105.9 56.3 104.4 57.9001 104.4 59.9001C104.4 61.9001 105.9 63.4001 107.8 63.4001L107.9 63.5Z" fill="#003477"/>
<path d="M115.7 60.6001L116 60.3001L118.6 63.5001H119.7L116.6 59.7001L119.7 56.6001H118.6L115.7 59.6001V56.6001H114.9V63.4001H115.7V60.6001Z" fill="#003477"/>
<path d="M119.8 60C119.8 62 121.4 63.6 123.4 63.6C125.4 63.6 127 62.1 127 60C127 57.9 125.4 56.5 123.4 56.5C121.4 56.5 119.8 58.1 119.8 60ZM126.1 60C126.1 61.6 124.9 62.8 123.4 62.8C121.9 62.8 120.7 61.6 120.7 60C120.7 58.4 121.8 57.2 123.4 57.2C125 57.2 126.1 58.5 126.1 60Z" fill="#003477"/>
<path d="M128.7 58.2999L133.8 63.7V56.5999H133V61.5999L127.9 56.2V63.2999H128.7V58.2V58.2999Z" fill="#003477"/>
<path d="M134.6 60C134.6 61.9 136.1 63.5 138 63.5C139.9 63.5 141.2 62.1001 141.2 60.2001V59.9001H138.5V60.7001H140.3C140.3 61.8001 139.1 62.7001 138.1 62.7001C137.1 62.7001 135.5 61.3001 135.5 59.9001C135.5 58.5001 136.7 57.1 138.2 57.1C139.7 57.1 139.8 57.5001 140.3 58.2001L140.9 57.6C140.2 56.8 139.2 56.3 138.1 56.3C136.1 56.3 134.6 57.9001 134.6 59.9001V60Z" fill="#003477"/>
<path d="M57.6004 71.3999C57.6004 72.4999 57.3004 73.4999 55.9004 73.4999C54.5004 73.4999 54.3004 72.4999 54.3004 71.3999V67.3999H53.4004V71.6999C53.4004 73.1999 54.3004 74.3999 55.9004 74.3999C57.5004 74.3999 58.4004 73.1999 58.4004 71.6999V67.3999H57.5004V71.3999H57.6004Z" fill="#003477"/>
<path d="M65.5996 67.4H64.6996V72.4L59.5996 67V74.2H60.3996V69.1L65.4996 74.5V67.4H65.5996Z" fill="#003477"/>
<path d="M67.7004 67.3999H66.9004V74.1999H67.7004V67.3999Z" fill="#003477"/>
<path d="M69.3004 67.3999H68.4004L71.4004 74.5999L74.4004 67.3999H73.5004L71.5004 72.3999L69.5004 67.3999H69.3004Z" fill="#003477"/>
<path d="M78.6004 68.1999V67.3999H74.9004V74.1999H78.6004V73.3999H75.8004V70.7999H78.5004V69.9999H75.8004V68.0999H78.6004V68.1999Z" fill="#003477"/>
<path d="M83.4998 69.4C83.4998 68.7 83.1998 68.1 82.5998 67.8C82.0998 67.5 81.3998 67.5 80.7998 67.5H79.7998V74.3H80.5998V71.4H80.8998L82.8998 74.3H83.8998L81.7998 71.3C82.7998 71.2 83.3998 70.4 83.3998 69.4H83.4998ZM80.8998 70.7H80.5998V68.2H80.7998C81.5998 68.2 82.5998 68.4 82.5998 69.4C82.5998 70.4 81.6998 70.6 80.7998 70.6L80.8998 70.7Z" fill="#003477"/>
<path d="M86.4998 73.6C85.7998 73.6 85.1998 73.1 85.1998 72.3L84.2998 72.5C84.3998 73.6 85.2998 74.4 86.3998 74.4C87.4998 74.4 88.5998 73.5 88.5998 72.3C88.5998 71.1 87.8998 70.6 86.8998 70.3L86.3998 70.1C85.9998 69.9 85.3998 69.7 85.3998 69.1C85.3998 68.5 85.9998 68.1 86.4998 68.1C86.9998 68.1 87.2998 68.3 87.5998 68.7L88.2998 68.3C87.8998 67.6 87.2998 67.3 86.4998 67.3C85.6998 67.3 84.4998 68 84.4998 69.1C84.4998 70.2 85.1998 70.5 85.9998 70.8L86.4998 71C87.0998 71.2 87.6998 71.6 87.6998 72.3C87.6998 73 87.1998 73.6 86.3998 73.6H86.4998Z" fill="#003477"/>
<path d="M90.5002 67.3999H89.7002V74.1999H90.5002V67.3999Z" fill="#003477"/>
<path d="M95.3002 67.3999H91.2002V68.1999H92.8002V74.1999H93.6002V68.1999H95.2002V67.3999H95.3002Z" fill="#003477"/>
<path d="M98.4998 74.1999V71.1999L100.7 67.3999H99.6998L97.9998 70.2999L96.2998 67.3999H95.2998L97.4998 71.1999V74.1999H98.2998H98.4998Z" fill="#003477"/>
<path d="M107.1 67.3C105.2 67.3 103.5 68.9 103.5 70.9C103.5 72.9 105.1 74.5 107.1 74.5C109.1 74.5 110.7 73 110.7 70.9C110.7 68.8 109.1 67.3 107.1 67.3ZM107.1 73.6C105.6 73.6 104.4 72.4 104.4 70.8C104.4 69.2 105.5 68 107.1 68C108.7 68 109.8 69.3 109.8 70.8C109.8 72.3 108.6 73.6 107.1 73.6Z" fill="#003477"/>
<path d="M114.9 68.1999V67.3999H111.6V74.1999H112.4V70.8999H114.8V70.0999H112.4V68.1999H114.8H114.9Z" fill="#003477"/>
<path d="M120.5 73.6C119.8 73.6 119.2 73.1 119.2 72.3L118.3 72.5C118.4 73.6 119.3 74.4 120.4 74.4C121.5 74.4 122.6 73.5 122.6 72.3C122.6 71.1 121.9 70.6 120.9 70.3L120.4 70.1C120 69.9 119.5 69.7 119.5 69.1C119.5 68.5 120.1 68.1 120.6 68.1C121.1 68.1 121.4 68.3 121.7 68.7L122.4 68.3C122 67.6 121.4 67.3 120.6 67.3C119.8 67.3 118.6 68 118.6 69.1C118.6 70.2 119.3 70.5 120.1 70.8L120.6 71C121.2 71.2 121.8 71.6 121.8 72.3C121.8 73 121.3 73.6 120.5 73.6Z" fill="#003477"/>
<path d="M126.8 68.1C127.4 68.1 128.1 68.3 128.6 68.8V67.8C128.1 67.5 127.5 67.3 126.9 67.3C124.9 67.3 123.3 68.9 123.3 70.9C123.3 72.9 124.9 74.4 126.9 74.4C128.9 74.4 128.2 74.2 128.7 73.9V72.9C128.2 73.4 127.5 73.6 126.9 73.6C125.4 73.6 124.2 72.3 124.2 70.8C124.2 69.3 125.4 68 126.9 68L126.8 68.1Z" fill="#003477"/>
<path d="M130.5 67.3999H129.6V74.1999H130.5V67.3999Z" fill="#003477"/>
<path d="M135.6 73.4999H132.8V70.8999H135.5V70.0999H132.8V68.1999H135.6V67.3999H131.9V74.1999H135.6V73.3999V73.4999Z" fill="#003477"/>
<path d="M136.6 74.2H137.4V69.1L142.5 74.5V67.4H141.6V72.4L136.5 67V74.2H136.6Z" fill="#003477"/>
<path d="M143.5 70.9C143.5 72.9 145.1 74.4 147.1 74.4C149.1 74.4 148.4 74.2 148.9 73.9V72.9C148.4 73.3 147.7 73.6 147.1 73.6C145.6 73.6 144.4 72.3 144.4 70.8C144.4 69.3 145.6 68 147.1 68C148.6 68 148.4 68.2 148.9 68.7V67.7C148.4 67.4 147.8 67.2 147.2 67.2C145.2 67.2 143.6 68.8 143.6 70.8L143.5 70.9Z" fill="#003477"/>
<path d="M153.6 68.1999V67.3999H149.9V74.1999H153.6V73.3999H150.8V70.7999H153.5V69.9999H150.8V68.0999H153.6V68.1999Z" fill="#003477"/>
<path d="M62.4004 85.1H63.3004L64.1004 83.4H67.2004L68.0004 85.1H68.9004L65.7004 78L62.5004 85.1H62.4004ZM64.5004 82.6L65.7004 79.8L66.9004 82.6H64.5004Z" fill="#003477"/>
<path d="M74.6 83.2999L69.5 77.8999V84.9999H70.3V79.8999L75.4 85.2999V78.1999H74.6V83.1999V83.2999Z" fill="#003477"/>
<path d="M78.1002 78.3H76.7002V85.1H78.1002C80.3002 85.1 81.9002 84 81.9002 81.7C81.9002 79.4 80.2002 78.3 78.1002 78.3ZM77.8002 84.3H77.5002V79H77.8002C79.5002 79 81.0002 79.6 81.0002 81.6C81.0002 83.6 79.5002 84.2 77.8002 84.2V84.3Z" fill="#003477"/>
<path d="M84.9004 79H86.5004V85H87.4004V79H89.0004V78.2H84.9004V79Z" fill="#003477"/>
<path d="M89.7998 85.1H93.4998V84.3H90.6998V81.7H93.3998V80.9H90.6998V79H93.4998V78.2H89.7998V85V85.1Z" fill="#003477"/>
<path d="M94.2002 81.7C94.2002 83.7 95.8002 85.2 97.7002 85.2C99.6002 85.2 99.0002 85 99.5002 84.7V83.7C99.0002 84.2 98.3002 84.4 97.7002 84.4C96.2002 84.4 95.0002 83.1 95.0002 81.6C95.0002 80.1 96.2002 78.8 97.7002 78.8C99.2002 78.8 99.0002 79 99.5002 79.5V78.5C99.0002 78.2 98.4002 78 97.8002 78C95.8002 78 94.2002 79.6 94.2002 81.6V81.7Z" fill="#003477"/>
<path d="M104.7 81H101.5V78.3H100.7V85.1H101.5V81.8H104.7V85.1H105.5V78.3H104.7V81Z" fill="#003477"/>
<path d="M111.9 83.2999L106.8 77.8999V84.9999H107.7V79.8999L112.8 85.2999V78.1999H111.9V83.1999V83.2999Z" fill="#003477"/>
<path d="M117.1 78.1001C115.1 78.1001 113.5 79.7001 113.5 81.6001C113.5 83.5001 115.1 85.2001 117.1 85.2001C119.1 85.2001 120.7 83.7001 120.7 81.6001C120.7 79.5001 119.1 78.1001 117.1 78.1001ZM117.1 84.4001C115.6 84.4001 114.4 83.2001 114.4 81.6001C114.4 80.0001 115.5 78.8001 117.1 78.8001C118.7 78.8001 119.8 80.1001 119.8 81.6001C119.8 83.1001 118.6 84.4001 117.1 84.4001Z" fill="#003477"/>
<path d="M122.5 78.3H121.7V85.1H124.6V84.3H122.5V78.3Z" fill="#003477"/>
<path d="M128.3 78.1001C126.4 78.1001 124.7 79.7001 124.7 81.6001C124.7 83.5001 126.3 85.2001 128.3 85.2001C130.3 85.2001 131.9 83.7001 131.9 81.6001C131.9 79.5001 130.3 78.1001 128.3 78.1001ZM128.3 84.4001C126.8 84.4001 125.6 83.2001 125.6 81.6001C125.6 80.0001 126.7 78.8001 128.3 78.8001C129.9 78.8001 131 80.1001 131 81.6001C131 83.1001 129.8 84.4001 128.3 84.4001Z" fill="#003477"/>
<path d="M136.3 82.4H138.1C138.1 83.5 136.9 84.4 135.9 84.4C134.9 84.4 133.3 83 133.3 81.6C133.3 80.2 134.5 78.8 136 78.8C137.5 78.8 137.7 79.2 138.1 79.9L138.7 79.3C138 78.5 137 78 135.9 78C133.9 78 132.4 79.6 132.4 81.6C132.4 83.6 133.9 85.1 135.8 85.1C137.7 85.1 139 83.7 139 81.8V81.5H136.3V82.3V82.4Z" fill="#003477"/>
<path d="M141.8 81.2L140.1 78.3H139.1L141.3 82.2V85.2H142.2V82.2L144.4 78.3H143.4L141.7 81.2H141.8Z" fill="#003477"/>
<path d="M44.5002 85.4H37.2002V0H44.5002V0.2H37.4002V85.1H44.5002V85.3V85.4Z" fill="#231815"/>
<path d="M168 85.4H160.7V85.2H167.8V0.2H160.7V0H168V85.4Z" fill="#231815"/>
<path d="M5.4002 51.2001V51.9001H0.900195V51.3L3.4002 48.5C3.7002 48.1 4.0002 47.8 4.1002 47.5C4.2002 47.2 4.3002 46.9 4.3002 46.6C4.3002 46.3 4.2002 45.9001 4.0002 45.7001C3.8002 45.5001 3.4002 45.4001 3.0002 45.4001C2.3002 45.4001 1.6002 45.7001 1.0002 46.2001L0.700195 45.6C1.0002 45.3 1.3002 45.1 1.8002 45C2.3002 44.9 2.7002 44.8 3.1002 44.8C3.7002 44.8 4.3002 45 4.6002 45.3C5.0002 45.6 5.2002 46.1001 5.2002 46.7001C5.2002 47.3001 5.2002 47.5001 4.9002 47.9001C4.7002 48.3001 4.4002 48.7001 4.0002 49.2001L2.0002 51.4001H5.5002L5.4002 51.2001Z" fill="#AA8420"/>
<path d="M7.19961 51C6.79961 50.4 6.59961 49.4999 6.59961 48.2999C6.59961 47.0999 6.79961 46.1999 7.19961 45.5999C7.59961 44.9999 8.19961 44.7 9.09961 44.7C9.99961 44.7 10.4996 44.9999 10.9996 45.5999C11.3996 46.1999 11.5996 47.0999 11.5996 48.2999C11.5996 49.4999 11.3996 50.4 10.9996 51C10.5996 51.6 9.99961 51.9 9.09961 51.9C8.19961 51.9 7.69961 51.6 7.19961 51ZM10.2996 50.5999C10.5996 50.0999 10.6996 49.4 10.6996 48.4C10.6996 47.4 10.5996 46.6 10.2996 46.2C9.99961 45.7 9.59961 45.5 8.99961 45.5C8.39961 45.5 7.99961 45.7 7.79961 46.2C7.49961 46.7 7.39961 47.4 7.39961 48.4C7.39961 49.4 7.49961 50.1999 7.79961 50.5999C8.09961 50.9999 8.49961 51.2999 8.99961 51.2999C9.49961 51.2999 9.99961 51.0999 10.2996 50.5999Z" fill="#AA8420"/>
<path d="M178 48.9C178.3 49.2 178.4 49.6 178.4 50C178.4 50.4 178.2 51.1 177.7 51.4C177.2 51.7 176.6 51.9 175.8 51.9C175 51.9 174.4 51.7 173.9 51.4C173.4 51 173.2 50.6 173.2 50C173.2 49.4 173.3 49.2 173.6 48.9C173.9 48.6 174.2 48.4 174.7 48.2C174.3 48.1 173.9 47.8999 173.7 47.5999C173.5 47.2999 173.4 46.9999 173.4 46.5999C173.4 46.1999 173.5 45.8999 173.7 45.5999C173.9 45.2999 174.2 45.1 174.5 44.9C174.8 44.7 175.3 44.7 175.7 44.7C176.1 44.7 176.6 44.7 176.9 44.9C177.3 45.1 177.6 45.2999 177.7 45.5999C177.9 45.8999 178 46.1999 178 46.5999C178 46.9999 177.9 47.2999 177.7 47.5999C177.5 47.8999 177.1 48.1 176.7 48.2C177.2 48.3 177.5 48.5 177.8 48.9H178ZM177.1 50.9C177.4 50.7 177.5 50.3 177.5 49.9C177.5 49.5 177.3 49.2 177 49C176.7 48.8 176.3 48.5999 175.7 48.5999C175.2 48.5999 174.8 48.8 174.4 49C174.1 49.2 173.9 49.5 173.9 49.9C173.9 50.3 174 50.7 174.3 50.9C174.6 51.1 175 51.2 175.6 51.2C176.2 51.2 176.6 51.1 176.9 50.9H177.1ZM174.7 47.5999C175 47.7999 175.4 48 175.8 48C176.3 48 176.7 47.7999 177 47.5999C177.3 47.3999 177.4 47.1 177.4 46.7C177.4 46.3 177.3 45.9999 177 45.7999C176.7 45.5999 176.3 45.5 175.8 45.5C175.3 45.5 174.9 45.5999 174.7 45.7999C174.4 45.9999 174.3 46.3 174.3 46.7C174.3 47.1 174.4 47.3999 174.7 47.5999Z" fill="#AA8420"/>
<path d="M183.3 47.6999C183.6 47.8999 183.9 48.1999 184.1 48.4999C184.3 48.7999 184.4 49.1999 184.4 49.6999C184.4 50.1999 184.3 50.4999 184.1 50.8999C183.9 51.2999 183.6 51.4999 183.3 51.6999C182.9 51.8999 182.5 51.9999 182 51.9999C181.5 51.9999 181.1 51.9999 180.7 51.7999C180.3 51.5999 179.9 51.3999 179.6 51.1999L179.9 50.5999C180.6 51.0999 181.2 51.3999 181.9 51.3999C182.6 51.3999 182.8 51.2999 183.1 50.9999C183.4 50.6999 183.5 50.2999 183.5 49.7999C183.5 49.2999 183.4 48.9999 183.1 48.6999C182.8 48.3999 182.5 48.2999 182 48.2999C181.3 48.2999 180.8 48.5999 180.4 49.0999H179.8V44.8999H184.1V45.5999H180.7V48.0999C181.1 47.6999 181.6 47.4999 182.2 47.4999C182.8 47.4999 183 47.4999 183.4 47.7999L183.3 47.6999Z" fill="#AA8420"/>
<path d="M16.5996 34.2001C15.8996 34.5001 15.0996 34.7 14.2996 34.8V36.5H16.3996V37.2001H14.2996V39.2001C15.0996 39.0001 15.8996 38.7 16.4996 38.5V39.3C15.4996 39.7 14.3996 40 13.2996 40.3L13.0996 39.6C13.2996 39.6 13.3996 39.6 13.4996 39.6V34.4001C14.4996 34.3001 15.3996 34.1 16.1996 33.8L16.5996 34.4001V34.2001ZM19.9996 39C19.9996 39.2 19.9996 39.4 19.7996 39.5C19.5996 39.6 19.4996 39.7001 19.3996 39.7001C19.2996 39.7001 18.9996 39.7001 18.6996 39.7001C18.3996 39.7001 18.2996 39.7001 18.1996 39.7001L17.8996 38.9001C18.0996 38.9001 18.3996 38.9001 18.9996 38.9001C19.5996 38.9001 19.1996 38.9001 19.1996 38.7001V34.5H17.5996V40.5H16.8996V33.8H19.9996V38.9001V39Z" fill="black"/>
<path d="M25.3992 35.9001H22.2992V37.0001C22.2992 38.5001 22.0992 39.8001 21.7992 40.7001L21.1992 40.3001C21.4992 39.5001 21.5992 38.6001 21.5992 37.5001V33.8001H25.3992V35.9001ZM24.6992 35.2001V34.4001H22.2992V35.2001H24.6992ZM25.3992 39.5001C25.3992 39.7001 25.3992 39.9001 25.1992 39.9001C24.9992 39.9001 24.8992 40.0001 24.5992 39.9001L24.3992 39.3001C24.3992 39.3001 24.3992 39.3001 24.4992 39.3001C24.6992 39.3001 24.6992 39.3001 24.6992 39.1001V37.5001H24.1992V40.4001H23.5992V37.5001H23.1992V39.9001H22.5992V36.8001H23.6992V36.1001H24.2992V36.8001H25.3992V39.3001V39.5001ZM26.5992 39.1001H25.8992V34.1001H26.5992V39.1001ZM27.9992 39.9001C27.9992 40.2001 27.9992 40.4001 27.7992 40.5001C27.5992 40.5001 27.3992 40.6001 26.9992 40.6001C26.5992 40.6001 26.5992 40.6001 26.4992 40.6001L26.2992 39.9001C26.4992 39.9001 26.6992 39.9001 26.8992 39.9001C27.0992 39.9001 27.1992 39.9001 27.2992 39.9001C27.3992 39.9001 27.2992 39.9001 27.2992 39.7001V33.6001H27.9992V39.9001Z" fill="black"/>
<path d="M20.9 47.2001H15V46.9001H17.8C17.8 46.7001 17.6 46.6 17.5 46.5L17.8 46.3C17.9 46.5 18 46.7001 18.1 46.9001H20.8V47.2001H20.9ZM21 51.7001C21 52.0001 21 52.2 20.8 52.3C20.7 52.4 20.5 52.5 20.4 52.5H18.1C17.9 52.5 17.8 52.5 17.7 52.3C17.6 52.2 17.5 52 17.5 51.8V51.6L15 51.8V51.5L17.5 51.3V50.9001L15.4 51.1V50.8L17.5 50.6V50.2001C17 50.2001 16.5 50.2001 15.9 50.2001V49.9001C17.3 49.9001 18.7 49.9 19.7 49.6L19.9 49.9001C19.3 50.0001 18.6 50.1001 17.8 50.2001V50.6L20.4 50.4001V50.7001L17.8 50.9001V51.3L20.8 51.1V51.4001L17.8 51.6V51.9001C17.8 51.9001 17.8 52 17.8 52.1C17.8 52.1 17.9 52.1 18 52.1H20.1C20.4 52.1 20.5 51.9 20.5 51.5H20.8L21 51.7001ZM20.8 50H20.4V49.3H15.4V50H15V49H20.8V50ZM20.3 48.6H15.6V47.6H20.3V48.6ZM19.9 48.3V47.9001H16V48.3H19.9Z" fill="#AA8420" stroke="#AA8420" stroke-width="0.1" stroke-miterlimit="10"/>
<path d="M23.9998 50.1C23.5998 50.9 22.8998 51.6001 22.0998 52.2001L21.7998 51.9001C22.5998 51.3001 23.1998 50.7001 23.5998 49.9001L23.8998 50.1H23.9998ZM27.8998 49.2001H25.0998V52.5H24.6998V49.2001H21.8998V48.8H24.6998V46.3H25.0998V48.8H27.8998V49.2001ZM23.6998 48.2001L23.3998 48.4001C23.1998 48.0001 22.8998 47.5 22.4998 47L22.7998 46.8C23.1998 47.3 23.4998 47.7001 23.6998 48.2001ZM27.9998 51.9001L27.6998 52.2001C27.2998 51.5001 26.6998 50.8001 25.8998 50.2001L26.1998 50C26.7998 50.5 27.3998 51.2 27.9998 52V51.9001ZM27.2998 46.9001C26.9998 47.5001 26.6998 48.0001 26.3998 48.4001L25.9998 48.2001C26.2998 47.9001 26.5998 47.4001 26.8998 46.7001L27.1998 46.9001H27.2998Z" fill="#AA8420" stroke="#AA8420" stroke-width="0.1" stroke-miterlimit="10"/>
<path d="M176.299 39.5001C175.299 39.9001 174.399 40.3001 173.599 40.5001L173.399 39.9001C174.099 39.7001 174.999 39.4001 176.099 38.9001L176.299 39.5001ZM176.199 35.1001C175.699 36.2001 175.099 37.1001 174.499 38.0001C174.799 38.0001 175.299 37.7001 175.899 37.5001L176.099 38.2001C175.299 38.5001 174.499 38.8001 173.699 39.0001L173.499 38.4001C173.999 37.9001 174.399 37.3001 174.799 36.6001C174.399 36.6001 174.099 36.8001 173.699 36.8001L173.499 36.2001C173.999 35.5001 174.499 34.7001 174.899 33.6001L175.499 33.8001C175.199 34.6001 174.899 35.3001 174.399 35.9001C174.599 35.9001 174.899 35.9001 175.199 35.7001C175.399 35.5001 175.499 35.2001 175.599 34.8001L176.199 35.1001ZM180.499 39.1001C180.399 40.1001 179.999 40.6001 179.499 40.6001C178.999 40.6001 179.099 40.6001 178.899 40.3001C178.699 40.1001 178.499 39.9001 178.299 39.5001C177.699 39.9001 176.999 40.2001 176.199 40.6001L175.799 40.0001C176.699 39.7001 177.399 39.3001 177.999 38.9001C177.799 38.4001 177.699 37.9001 177.599 37.4001L176.199 37.6001V36.9001L177.599 36.7001C177.599 36.3001 177.599 36.0001 177.599 35.8001H176.499C176.499 35.9001 176.499 35.3001 176.499 35.3001H177.599C177.599 35.2001 177.599 33.6001 177.599 33.6001H178.299C178.299 33.9001 178.299 34.4001 178.299 35.1001L180.199 34.9001V35.5001L178.299 35.8001C178.299 36.1001 178.299 36.4001 178.299 36.7001L180.399 36.4001V37.1001C180.499 37.1001 178.299 37.4001 178.299 37.4001C178.299 37.8001 178.399 38.2001 178.499 38.6001C178.799 38.3001 179.099 38.0001 179.499 37.5001L179.999 37.8001C179.699 38.3001 179.199 38.8001 178.799 39.2001C178.899 39.4001 179.099 39.6001 179.199 39.7001C179.299 39.8001 179.399 39.9001 179.499 39.9001C179.499 39.9001 179.499 39.8001 179.599 39.5001C179.599 39.3001 179.699 39.1001 179.699 38.8001L180.299 39.1001H180.499ZM179.899 34.3001L179.499 34.8001C179.199 34.5001 178.899 34.3001 178.499 34.2001L178.899 33.7001C179.299 33.9001 179.599 34.1001 179.899 34.4001V34.3001Z" fill="black"/>
<path d="M188.399 40.4001H181.399V39.7001H184.299V33.6001H184.999V36.0001H187.999V36.7001H184.999V39.7001H188.399V40.4001Z" fill="black"/>
<path d="M189.3 46.5C189.3 46.8 189.1 47.2 189 47.5L188.8 48V52.5H188.5V48.7001C188.3 49.1001 188.1 49.4 187.9 49.6L187.6 49.3C188.2 48.6 188.6 47.6 189 46.3H189.3V46.5ZM193.8 52L193.6 52.3C193.2 52.1 192.7 51.7001 192.2 51.2001C192.2 51.4001 192.2 51.5 192.2 51.6C192.2 51.9 192.2 52.1001 192.1 52.2001C192.1 52.3001 191.9 52.4 191.8 52.5C191.7 52.5 191.4 52.5 191.1 52.5C190.8 52.5 190.9 52.5 190.8 52.5V52.2001C191.3 52.2001 191.6 52.2001 191.7 52.2001C191.8 52.2001 191.9 52.0001 191.9 51.7001C191.9 51.4001 191.9 51.4001 191.9 51.2001C191.3 51.6001 190.5 52.0001 189.4 52.4001L189.2 52.1C190.3 51.8 191.2 51.4001 191.8 50.9001C191.8 50.9001 191.8 50.7 191.6 50.5C191 50.9 190.3 51.3 189.4 51.5L189.2 51.2001C190.2 50.9001 190.9 50.6001 191.5 50.2001C191.5 50.1001 191.3 50.0001 191.2 49.9001C190.7 50.2001 190.1 50.4 189.3 50.6L189.1 50.3C189.9 50.2 190.6 49.9 191.2 49.5H189.8V48.3C189.7 48.4 189.5 48.5 189.4 48.6L189.2 48.3C190 47.7 190.6 47.2 190.9 46.6L191.2 46.8C191.2 46.9 191.1 47 191 47.1H192.7V47.4001C192.5 47.6001 192.3 47.9 192.1 48.1H193.4V49.4001H191.8C191.7 49.5001 191.6 49.6001 191.5 49.7001C191.7 50.0001 191.9 50.2 192.1 50.6C192.5 50.4 192.9 50.1001 193.4 49.7001L193.7 49.9001C193.3 50.2001 192.9 50.5 192.4 50.8C192.9 51.4 193.5 51.8 194 52.1L193.8 52ZM192.2 47.2001H190.7C190.4 47.5001 190.2 47.7001 189.9 47.9001H191.6C191.8 47.6001 192.1 47.4001 192.2 47.2001ZM191.4 49V48.3H190.1V49H191.4ZM193 49V48.3H191.7V49H193Z" fill="#AA8420" stroke="#AA8420" stroke-width="0.1" stroke-miterlimit="10"/>
<path d="M200.8 48.8H197.9C197.4 49.2 196.9 49.4 196.4 49.6H197.5C198.2 49.6 198.6 49.6 198.6 49.6C198.9 49.5 199.1 49.3 199.5 49.1L199.8 49.3C198.6 50 197.5 50.5 196.3 50.8C197.5 50.8 198.7 50.8 199.8 50.6C199.6 50.4 199.5 50.3 199.3 50.1L199.6 49.9001C200.1 50.3001 200.5 50.8001 200.8 51.2001L200.5 51.4001C200.3 51.2001 200.2 51.0001 200.1 50.9001C199.4 50.9001 198.7 51 198 51V52C198 52.2 198 52.3001 197.8 52.4001C197.7 52.4001 197.5 52.5 197.1 52.5C196.7 52.5 196.9 52.5 196.9 52.5V52.1C196.9 52.1 197.1 52.1 197.2 52.1C197.4 52.1 197.5 52.1 197.5 52.1C197.5 52.1 197.5 52.1 197.5 52V51C196.9 51 196.1 51 195.1 51V50.7001C196 50.5001 196.9 50.2 197.8 49.8C197.3 49.8 196.7 49.8 196.1 49.8C195.5 49.8 195.7 49.8 195.6 49.8V49.5C196.1 49.3 196.7 49.0001 197.2 48.7001H194.6V48.4001H197.5V47.8H195.3V47.5H197.5V47H194.9V46.7001H197.5V46.3H197.9V46.7001H200.4V47H197.9V47.5H200V47.8H197.9V48.4001H200.7V48.7001L200.8 48.8ZM196.8 51.5C196.4 51.8 195.8 52.2 195 52.5L194.8 52.2001C195.5 51.9001 196.1 51.6 196.6 51.3L196.9 51.6L196.8 51.5ZM200.6 52.2001L200.4 52.5C199.9 52.1 199.3 51.8 198.6 51.5L198.8 51.2001C199.5 51.5001 200.1 51.8001 200.6 52.2001Z" fill="#AA8420" stroke="#AA8420" stroke-width="0.1" stroke-miterlimit="10"/>
</g>
<defs>
<clipPath id="clip0_83_3668">
<rect width="206" height="86" fill="white"/>
</clipPath>
</defs>
</svg>
