<svg width="334" height="48" viewBox="0 0 334 48" fill="none" xmlns="http://www.w3.org/2000/svg">
<g clip-path="url(#clip0_83_3847)">
<path d="M171.8 5.7999C171.9 5.5999 172 5.3999 172 5.3999H164.7C164.7 5.3999 164.7 5.6999 164.9 5.7999H171.9H171.8Z" fill="#AA8420"/>
<path d="M171.3 6.4C171.4 6.3 171.6 6 171.6 6H164.9C164.9 6 164.9 6.2 165.1 6.4H171.3Z" fill="#AA8420"/>
<path d="M170.8 6.99995C171 6.99995 171.1 6.69995 171.1 6.69995H165.4C165.4 6.69995 165.5 6.79995 165.7 6.99995H170.8Z" fill="#AA8420"/>
<path d="M170.2 7.50005C170.4 7.50005 170.6 7.30005 170.6 7.30005H166.1C166.1 7.30005 166.1 7.30005 166.4 7.50005H170.2Z" fill="#AA8420"/>
<path d="M166.9 7.80005C166.9 7.80005 167.4 8.10005 168.3 8.10005C169.2 8.10005 169.8 7.80005 169.8 7.80005H166.9Z" fill="#AA8420"/>
<path d="M166.8 8.5C166.8 8.5 167.4 8.5 167.7 8.8C168 9.1 168.3 9.5 168.3 9.5C168.3 9.5 168.5 9.1 168.8 8.8C169.1 8.6 169.6 8.5 169.6 8.5H175.4L176.5 10.2H171.3C171.3 10.2 170.9 10.2 170.4 10.5C170.1 10.7 169.9 10.9 169.9 10.9C169.9 10.9 169.9 11 169.8 11.1C169.8 11.1 169.7 11.2 169.6 11.3H166.9C166.9 11.3 166.8 11.3 166.7 11.2C166.7 11.2 166.7 11.2 166.7 11.1C166.7 11.1 166.5 10.8 166.1 10.6C165.7 10.3 165.3 10.3 165.3 10.3H160L161.2 8.6H166.9L166.8 8.5Z" fill="#003477"/>
<path d="M162.7 10.8V19.4C162.7 19.4 162.7 20.2 163.4 21.2C164 22.2 165 22.7 165 22.7L165.7 21.6C165.7 21.6 165.1 21.2 164.6 20.5C164.1 19.8 164.1 19.1 164.1 19.1V10.8H162.7Z" fill="#003477"/>
<path d="M172.5 10.8V19.1C172.5 19.1 172.4 19.9 172 20.5C171.6 21.1 171 21.6 171 21.6L171.7 22.7C171.7 22.7 172.8 21.9 173.3 21.1C173.8 20.3 173.9 19.1 173.9 19.1V10.8H172.5Z" fill="#003477"/>
<path d="M160.6 10.8V19.4C160.6 19.4 160.6 20.7 161.5 22.1C162.3 23.5 163.8 24.5 163.8 24.5L164.5 23.4C164.5 23.4 163.5 22.9 162.8 21.7C162 20.5 162 19.4 162 19.4V10.8H160.6Z" fill="#003477"/>
<path d="M166.8 11.7V20.8C166.8 20.8 166.8 20.8 166.8 21C166.8 21.1 166.7 21.2 166.7 21.2L163.7 26.2H173L170 21.1V20.9L169.9 20.7V11.8H168.8V21C168.8 21 168.8 21.1 168.8 21.2C168.8 21.3 168.8 21.5 168.8 21.5L170.7 24.6H166L167.8 21.5C167.8 21.5 167.8 21.4 167.9 21.2C167.9 21.1 167.9 20.9 167.9 20.9V11.7H166.8Z" fill="#AA8420"/>
<path d="M174.6 10.8V19.3C174.6 19.3 174.6 20.4 173.8 21.6C173 22.9 172.1 23.4 172.1 23.4L172.8 24.5C172.8 24.5 174.2 23.6 175.1 22.2C176 20.8 176.1 19.2 176.1 19.2V10.7H174.7L174.6 10.8Z" fill="#003477"/>
<path d="M164.6 5.1C164.6 5.1 164.1 2.6 166 1.3C166 1.3 166.8 0.5 168.2 0.5C169.6 0.5 170.5 1.3 170.5 1.3C172.5 2.8 171.9 5.1 171.9 5.1H164.5H164.6Z" fill="#AA8420"/>
<path d="M129.8 35.0999C130.1 34.9999 130.4 34.9 130.5 34.9V38.4H131.3V38H135.3V38.4H136.1V34.9C136.2 34.9 136.3 35 136.5 35C136.6 35 136.7 34.9999 136.9 35.0999L137.3 34.4C136.1 34.2 135.2 33.8 134.6 33.2H137.2V32.5H133.8V31.7999C134.9 31.7999 135.8 31.6 136.6 31.4L136.2 30.7C135.1 30.9 133.4 31.1 131.3 31.1C129.2 31.1 130.5 31.1 130.2 31.1L130.5 31.9C131 31.9 131.9 31.9 133.1 31.9V32.5999H129.8V33.2999H132.3C131.6 33.8999 130.7 34.2999 129.7 34.5999L130.1 35.2999L129.8 35.0999ZM135.3 37.2999H131.3V36.5999H135.3V37.2999ZM133.6 33.0999C134.1 33.7999 134.8 34.2999 135.6 34.5999H133.6V33.0999ZM135.3 35.2999V35.9H131.3V35.2999H135.3ZM132.8 33.2V34.7H130.9C131.7 34.4 132.3 33.9 132.8 33.2Z" fill="#003477"/>
<path d="M145.2 33.8C144.8 33.5 144.4 33.2 144 33L143.5 33.6C143.8 33.8 144.2 34.1 144.6 34.5L145.1 33.8H145.2Z" fill="#003477"/>
<path d="M145.4 31.7999V32.2H146.5V33H145.3V33.7H146.6C146.4 34.2 145.8 34.6999 144.9 35.0999L145.4 35.7999C145.8 35.5999 146 35.3999 146.2 35.2999V37.0999C146.2 37.4999 146.2 37.7 146.4 37.9C146.5 38 146.8 38.0999 147.1 38.0999H149.7C150.1 38.0999 150.4 38.1 150.5 37.9C150.7 37.8 150.8 37.3 150.9 36.5L150.1 36.2C150.1 36.6 150.1 36.8999 150 37.0999C150 37.2999 149.8 37.2999 149.6 37.2999H147.2C147 37.2999 146.9 37.3 146.9 37V36.5H149.5V34.7999C149.8 35.0999 150.2 35.4 150.7 35.7L151 35C150.1 34.6 149.6 34.1 149.4 33.7H151V33H149.5V32.2H150.8V31.6H149.5V30.7H148.8V31.6H147.3V30.7H146.6V31.6H145.5C145.2 31.5 144.8 31.2 144.3 30.9L143.8 31.5C144.2 31.7 144.6 32 145 32.5L145.5 31.9L145.4 31.7999ZM147.3 32.2999H148.8V33.0999H147.3V32.2999ZM147.4 33.7999H148.5C148.6 34.0999 148.8 34.3 149 34.5H146.9C147.1 34.3 147.3 33.9999 147.4 33.7999ZM146.8 35.2H148.7V36H146.8V35.2Z" fill="#003477"/>
<path d="M144.4 35.3999C144.2 36.1999 143.9 36.8999 143.4 37.5999L144.1 38.2999C144.6 37.5999 144.9 36.7999 145.1 35.8999L144.4 35.4999V35.3999Z" fill="#003477"/>
<path d="M157.9 36.7999C158.4 36.0999 158.8 35.4999 159 34.9999V38.3999H159.8V34.5999C160 34.7999 160.1 34.9999 160.2 35.0999C160.4 35.2999 160.5 35.4999 160.7 35.6999L161.2 34.9999C160.9 34.6999 160.4 34.1999 159.8 33.6999H161V32.9999H159.8V31.8999C160.2 31.8999 160.6 31.6999 161 31.5999L160.7 30.8999C159.8 31.1999 158.8 31.3999 157.6 31.4999L157.8 32.1999C158.3 32.1999 158.8 32.1999 159.1 32.0999V33.0999H157.6V33.7999H159.1C158.8 34.6999 158.2 35.4999 157.6 36.2999L158.1 36.9999L157.9 36.7999Z" fill="#003477"/>
<path d="M163.3 32.3C162.7 31.8 162.2 31.5 161.8 31.3L161.3 31.8C161.7 32 162.2 32.4001 162.8 32.9001L163.3 32.3Z" fill="#003477"/>
<path d="M164.3 30.7H163.5V35.4L160.8 35.7999V36.5999L163.5 36.2V38.4H164.3V36.0999H165V35.2H164.3C164.3 35.3 164.3 30.7 164.3 30.7Z" fill="#003477"/>
<path d="M163.1 34.3C162.5 33.8 162 33.5 161.6 33.3L161.1 33.8C161.5 34.1 162 34.4001 162.6 34.9001L163.1 34.3Z" fill="#003477"/>
<path d="M177.2 36.6001C177.5 36.3001 177.8 36.0001 178.1 35.5001C178.4 35.0001 178.6 34.7001 178.6 34.3001V33.6001H177V32.5001H178.9V31.8001H177V30.7001H176.2V31.8001H174.4V32.3001H173.4V30.6001H172.6V32.3001H171.4V33.0001H172.6V34.6001C172.2 34.7001 171.8 34.8001 171.3 34.8001L171.5 35.7001C171.8 35.7001 172.1 35.5001 172.6 35.4001V37.1001C172.6 37.3001 172.6 37.4001 172.3 37.4001H171.6L171.8 38.2001H172.4C172.8 38.2001 173.1 38.2001 173.2 38.0001C173.3 37.9001 173.4 37.6001 173.4 37.2001V35.2001C173.9 35.0001 174.2 34.9001 174.3 34.8001V34.0001C174.1 34.1001 173.8 34.2001 173.4 34.4001V33.0001H174.4V32.5001H176.2V33.6001H174.6V34.4001H177.8C177.6 35.1001 177.2 35.6001 176.6 36.1001C176.2 35.7001 175.8 35.2001 175.5 34.6001L174.8 34.9001C175.2 35.6001 175.6 36.2001 176 36.6001C175.2 37.1001 174.4 37.5001 173.7 37.6001L174.2 38.3001C175 38.1001 175.8 37.7001 176.7 37.1001C177.3 37.7001 178 38.1001 178.7 38.3001L179.1 37.5001C178.4 37.3001 177.8 37.0001 177.3 36.5001L177.2 36.6001Z" fill="#003477"/>
<path d="M192.4 38.2999L193 37.5C192.2 37 191.6 36.2999 191.1 35.5999C190.6 34.8999 190.3 34.2 190.2 33.5H192.8V32.7H189.4C189.4 32.3 189.4 31.6 189.4 30.7H188.5C188.5 31.6 188.5 32.2 188.4 32.7H185.5V33.5999H188.3C188.2 34.3999 187.8 35.0999 187.3 35.7999C186.8 36.4999 186.1 37.1 185.3 37.5L185.9 38.2999C187.7 37.0999 188.8 35.4999 189.2 33.5999H189.3C189.8 35.7999 190.9 37.3999 192.3 38.2999H192.4Z" fill="#003477"/>
<path d="M202 31.7999L202.4 32.2999C202.8 32.0999 203.1 31.9999 203.4 31.7999C203.4 31.7999 203.6 31.8999 203.8 32.2999L204.3 31.9C204.1 31.7 204 31.6 203.9 31.5C204.1 31.4 204.3 31.2 204.4 31.1L204 30.7C203.9 30.8 203.7 31 203.5 31.1C203.3 30.9 203.1 30.8 202.9 30.7L202.5 31.1C202.7 31.2 202.9 31.4 203.1 31.5C203 31.6 202.7 31.6999 202.2 31.7999H202Z" fill="#003477"/>
<path d="M203 37.4C203 37.6 203 37.6 202.8 37.6H201.7L201.9 38.2H203.1C203.6 38.2 203.8 37.9 203.8 37.3V37H207.2V36.3H203.8C204.5 36.1 205.1 35.8 205.6 35.6V35H201.1V35.6H204.5C203.9 35.8 203.4 35.9 203.1 35.9V36.3H199.6V37H203.1V37.3L203 37.4Z" fill="#003477"/>
<path d="M204.1 32.3C203.9 32.5 203.7 32.7 203.5 32.8C203.4 32.8 203.3 32.6 203.2 32.6C203.2 32.6 203 32.5001 202.9 32.4001L202.5 32.8C202.8 33 202.9 33.1001 203 33.2001C202.8 33.3001 202.5 33.4 202.1 33.5L202.5 34C202.9 33.9 203.2 33.7 203.4 33.5C203.4 33.5 203.6 33.7 203.8 34L204.3 33.6C204.2 33.4 204 33.3001 203.8 33.2001C204 33.1001 204.1 32.9001 204.3 32.7001L203.9 32.3H204.1Z" fill="#003477"/>
<path d="M200.3 34.7999H206.2V35.9999H206.9V34.1999H206.5V30.9999H204.6V31.5999H205.9V32.0999H204.7V32.5999H205.9V33.0999H204.7V33.6999H205.8V34.1999H200.7V33.6999H201.9V33.0999H200.7V32.5999H201.9V32.0999H200.6V31.6999C201.2 31.6999 201.7 31.5999 202 31.4999L201.6 30.8999C201.1 30.9999 200.5 31.0999 199.8 31.0999V34.1999H199.5V35.9999H200.2V34.7999H200.3Z" fill="#003477"/>
<path d="M52.0996 42.2H53.4996V47.5H54.2996V42.2H55.6996V41.5H52.0996V42.2Z" fill="#003477"/>
<path d="M59.8998 43.9H56.9998V41.5H56.2998V47.5H56.9998V44.6H59.8998V47.5H60.6998V41.5H59.8998V43.9Z" fill="#003477"/>
<path d="M61.7998 47.4999H64.9998V46.7999H62.4998V44.4999H64.8998V43.7999H62.4998V42.0999H64.9998V41.3999H61.7998V47.3999V47.4999Z" fill="#003477"/>
<path d="M71.9004 43.9H69.1004V41.5H68.4004V47.5H69.1004V44.6H71.9004V47.5H72.7004V41.5H71.9004V43.9Z" fill="#003477"/>
<path d="M76.5004 41.3999C74.8004 41.3999 73.4004 42.7999 73.4004 44.4999C73.4004 46.1999 74.8004 47.5999 76.5004 47.5999C78.2004 47.5999 79.6004 46.2999 79.6004 44.4999C79.6004 42.6999 78.2004 41.3999 76.5004 41.3999ZM76.5004 46.8999C75.2004 46.8999 74.1004 45.8999 74.1004 44.4999C74.1004 43.0999 75.1004 42.0999 76.5004 42.0999C77.9004 42.0999 78.9004 43.1999 78.9004 44.4999C78.9004 45.7999 77.8004 46.8999 76.5004 46.8999Z" fill="#003477"/>
<path d="M84.9004 45.9L80.4004 41.2V47.5H81.2004V43L85.7004 47.7V41.5H84.9004V45.9Z" fill="#003477"/>
<path d="M89.9 45.1999H91.5C91.5 46.1999 90.5 46.9999 89.5 46.9999C88.5 46.9999 87.2 45.7999 87.2 44.4999C87.2 43.1999 88.2 42.0999 89.6 42.0999C91 42.0999 91 42.4999 91.5 43.0999L92 42.5999C91.4 41.8999 90.5 41.3999 89.6 41.3999C87.9 41.3999 86.5 42.7999 86.5 44.4999C86.5 46.1999 87.8 47.5999 89.5 47.5999C91.2 47.5999 92.3 46.2999 92.3 44.6999V44.4999H89.9V45.1999Z" fill="#003477"/>
<path d="M99.7 41.5H98.7L96.2 44.1V41.5H95.5V47.5H96.2V45L96.5 44.7L98.8 47.5H99.8L97.1 44.2L99.8 41.5H99.7Z" fill="#003477"/>
<path d="M103 41.3999C101.3 41.3999 99.9004 42.7999 99.9004 44.4999C99.9004 46.1999 101.3 47.5999 103 47.5999C104.7 47.5999 106.1 46.2999 106.1 44.4999C106.1 42.6999 104.7 41.3999 103 41.3999ZM103 46.8999C101.7 46.8999 100.6 45.8999 100.6 44.4999C100.6 43.0999 101.6 42.0999 103 42.0999C104.4 42.0999 105.4 43.1999 105.4 44.4999C105.4 45.7999 104.3 46.8999 103 46.8999Z" fill="#003477"/>
<path d="M111.3 45.9L106.8 41.2V47.5H107.6V43L112.1 47.7V41.5H111.3V45.9Z" fill="#003477"/>
<path d="M116.3 45.1999H117.8C117.8 46.1999 116.8 46.9999 115.8 46.9999C114.8 46.9999 113.5 45.7999 113.5 44.4999C113.5 43.1999 114.6 42.0999 115.9 42.0999C117.2 42.0999 117.4 42.4999 117.8 43.0999L118.3 42.5999C117.7 41.8999 116.8 41.3999 115.9 41.3999C114.2 41.3999 112.8 42.7999 112.8 44.4999C112.8 46.1999 114.1 47.5999 115.8 47.5999C117.5 47.5999 118.6 46.2999 118.6 44.6999V44.4999H116.2V45.1999H116.3Z" fill="#003477"/>
<path d="M125.4 45.1001C125.4 46.1001 125.1 47.0001 124 47.0001C122.9 47.0001 122.6 46.1001 122.6 45.1001V41.6001H121.8V45.4001C121.8 46.7001 122.6 47.7001 124 47.7001C125.4 47.7001 126.2 46.7001 126.2 45.4001V41.6001H125.5V45.1001H125.4Z" fill="#003477"/>
<path d="M131.7 45.9L127.2 41.2V47.5H128V43L132.5 47.7V41.5H131.7V45.9Z" fill="#003477"/>
<path d="M134.3 41.5H133.5V47.5H134.3V41.5Z" fill="#003477"/>
<path d="M137.4 45.9L135.6 41.5H134.8L137.4 47.8L140 41.5H139.2L137.4 45.9Z" fill="#003477"/>
<path d="M140.6 47.4999H143.8V46.7999H141.3V44.4999H143.7V43.7999H141.3V42.0999H143.8V41.3999H140.6V47.3999V47.4999Z" fill="#003477"/>
<path d="M148.1 43.2C148.1 42.6 147.8 42.1 147.3 41.8C146.8 41.5 146.2 41.5 145.7 41.5H144.8V47.5H145.6V45H145.9L147.7 47.5H148.6L146.7 44.9C147.6 44.8 148.1 44.1 148.1 43.2ZM145.8 44.4H145.6V42.2H145.8C146.5 42.2 147.4 42.3 147.4 43.3C147.4 44.3 146.6 44.4 145.8 44.4Z" fill="#003477"/>
<path d="M151.2 44L150.8 43.8C150.4 43.7 150 43.4001 150 42.9001C150 42.4001 150.5 42 151 42C151.5 42 151.7 42.2 152 42.6L152.6 42.2001C152.3 41.6001 151.7 41.3 151.1 41.3C150.5 41.3 149.3 41.9001 149.3 42.9001C149.3 43.9001 149.9 44.1001 150.6 44.4001L151 44.6C151.5 44.8 152 45.1001 152 45.7001C152 46.3001 151.5 46.9001 150.9 46.9001C150.3 46.9001 149.7 46.4 149.7 45.8L148.9 46C149 47 149.8 47.7001 150.7 47.7001C151.6 47.7001 152.6 46.9 152.6 45.8C152.6 44.7 152 44.3 151.1 44H151.2Z" fill="#003477"/>
<path d="M154.3 41.5H153.6V47.5H154.3V41.5Z" fill="#003477"/>
<path d="M154.9 42.2H156.3V47.5H157V42.2H158.4V41.5H154.8V42.2H154.9Z" fill="#003477"/>
<path d="M160.9 44.1001L159.4 41.6001H158.5L160.4 45.0001V47.6001H161.2V45.0001L163.1 41.6001H162.2L160.7 44.1001H160.9Z" fill="#003477"/>
<path d="M168.9 41.3999C167.2 41.3999 165.8 42.7999 165.8 44.4999C165.8 46.1999 167.2 47.5999 168.9 47.5999C170.6 47.5999 172 46.2999 172 44.4999C172 42.6999 170.6 41.3999 168.9 41.3999ZM168.9 46.8999C167.6 46.8999 166.5 45.8999 166.5 44.4999C166.5 43.0999 167.5 42.0999 168.9 42.0999C170.3 42.0999 171.3 43.1999 171.3 44.4999C171.3 45.7999 170.2 46.8999 168.9 46.8999Z" fill="#003477"/>
<path d="M172.8 47.5H173.6V44.6H175.7V43.9H173.6V42.2H175.7V41.5H172.8V47.5Z" fill="#003477"/>
<path d="M181 44L180.6 43.8C180.2 43.7 179.8 43.4001 179.8 42.9001C179.8 42.4001 180.3 42 180.8 42C181.3 42 181.5 42.2 181.8 42.6L182.4 42.2001C182.1 41.6001 181.5 41.3 180.9 41.3C180.3 41.3 179.1 41.9001 179.1 42.9001C179.1 43.9001 179.7 44.1001 180.4 44.4001L180.8 44.6C181.3 44.8 181.8 45.1001 181.8 45.7001C181.8 46.3001 181.3 46.9001 180.7 46.9001C180.1 46.9001 179.5 46.4 179.5 45.8L178.7 46C178.8 47 179.6 47.7001 180.6 47.7001C181.6 47.7001 182.5 46.9 182.5 45.8C182.5 44.7 181.9 44.3 181 44Z" fill="#003477"/>
<path d="M183 44.4999C183 46.1999 184.4 47.5999 186.1 47.5999C187.8 47.5999 187.2 47.3999 187.7 47.1999V46.2999C187.3 46.6999 186.7 46.8999 186.1 46.8999C184.8 46.8999 183.7 45.7999 183.7 44.4999C183.7 43.1999 184.7 42.0999 186.1 42.0999C187.5 42.0999 187.3 42.2999 187.7 42.6999V41.7999C187.3 41.4999 186.7 41.3999 186.2 41.3999C184.4 41.3999 183 42.7999 183 44.5999V44.4999Z" fill="#003477"/>
<path d="M189.4 41.5H188.6V47.5H189.4V41.5Z" fill="#003477"/>
<path d="M190.6 47.4999H193.8V46.7999H191.3V44.4999H193.7V43.7999H191.3V42.0999H193.8V41.3999H190.6V47.3999V47.4999Z" fill="#003477"/>
<path d="M199.2 45.9L194.7 41.2V47.5H195.4V43L199.9 47.7V41.5H199.1V45.9H199.2Z" fill="#003477"/>
<path d="M200.8 44.4999C200.8 46.1999 202.2 47.5999 203.9 47.5999C205.6 47.5999 205 47.3999 205.5 47.1999V46.2999C205.1 46.6999 204.5 46.8999 203.9 46.8999C202.6 46.8999 201.5 45.7999 201.5 44.4999C201.5 43.1999 202.5 42.0999 203.9 42.0999C205.3 42.0999 205.1 42.2999 205.5 42.6999V41.7999C205.1 41.4999 204.5 41.3999 204 41.3999C202.2 41.3999 200.8 42.7999 200.8 44.5999V44.4999Z" fill="#003477"/>
<path d="M206.5 47.4999H209.7V46.7999H207.2V44.4999H209.6V43.7999H207.2V42.0999H209.7V41.3999H206.5V47.3999V47.4999Z" fill="#003477"/>
<path d="M212.4 47.5H213.2L213.9 46H216.7L217.4 47.5H218.2L215.3 41.3L212.4 47.5ZM214.2 45.3L215.3 42.9001L216.4 45.3H214.3H214.2Z" fill="#003477"/>
<path d="M223.1 45.9L218.6 41.2V47.5H219.3V43L223.8 47.7V41.5H223V45.9H223.1Z" fill="#003477"/>
<path d="M226.2 41.5H225V47.5H226.2C228.1 47.5 229.6 46.5 229.6 44.5C229.6 42.5 228.1 41.5 226.2 41.5ZM226 46.8H225.7V42.2H226C227.5 42.2 228.8 42.8 228.8 44.5C228.8 46.2 227.5 46.8 226 46.8Z" fill="#003477"/>
<path d="M232.2 42.2H233.6V47.5H234.4V42.2H235.8V41.5H232.2V42.2Z" fill="#003477"/>
<path d="M236.4 47.4999H239.6V46.7999H237.1V44.4999H239.5V43.7999H237.1V42.0999H239.6V41.3999H236.4V47.3999V47.4999Z" fill="#003477"/>
<path d="M240.3 44.4999C240.3 46.1999 241.7 47.5999 243.4 47.5999C245.1 47.5999 244.5 47.3999 245 47.1999V46.2999C244.6 46.6999 244 46.8999 243.4 46.8999C242.1 46.8999 241 45.7999 241 44.4999C241 43.1999 242 42.0999 243.4 42.0999C244.8 42.0999 244.5 42.2999 245 42.6999V41.7999C244.5 41.4999 244 41.3999 243.5 41.3999C241.7 41.3999 240.3 42.7999 240.3 44.5999V44.4999Z" fill="#003477"/>
<path d="M249.5 43.9H246.6V41.5H245.9V47.5H246.6V44.6H249.5V47.5H250.3V41.5H249.5V43.9Z" fill="#003477"/>
<path d="M255.8 45.9L251.3 41.2V47.5H252.1V43L256.6 47.7V41.5H255.8V45.9Z" fill="#003477"/>
<path d="M260.4 41.3999C258.7 41.3999 257.3 42.7999 257.3 44.4999C257.3 46.1999 258.7 47.5999 260.4 47.5999C262.1 47.5999 263.5 46.2999 263.5 44.4999C263.5 42.6999 262.1 41.3999 260.4 41.3999ZM260.4 46.8999C259.1 46.8999 258 45.8999 258 44.4999C258 43.0999 259 42.0999 260.4 42.0999C261.8 42.0999 262.8 43.1999 262.8 44.4999C262.8 45.7999 261.7 46.8999 260.4 46.8999Z" fill="#003477"/>
<path d="M265.1 41.5H264.4V47.5H267V46.8H265.2V41.5H265.1Z" fill="#003477"/>
<path d="M270.2 41.3999C268.5 41.3999 267.1 42.7999 267.1 44.4999C267.1 46.1999 268.5 47.5999 270.2 47.5999C271.9 47.5999 273.3 46.2999 273.3 44.4999C273.3 42.6999 271.9 41.3999 270.2 41.3999ZM270.2 46.8999C268.9 46.8999 267.8 45.8999 267.8 44.4999C267.8 43.0999 268.8 42.0999 270.2 42.0999C271.6 42.0999 272.6 43.1999 272.6 44.4999C272.6 45.7999 271.5 46.8999 270.2 46.8999Z" fill="#003477"/>
<path d="M277.2 45.1999H278.8C278.8 46.1999 277.8 46.9999 276.8 46.9999C275.8 46.9999 274.5 45.7999 274.5 44.4999C274.5 43.1999 275.5 42.0999 276.9 42.0999C278.3 42.0999 278.4 42.4999 278.8 43.0999L279.3 42.5999C278.7 41.8999 277.8 41.3999 276.9 41.3999C275.2 41.3999 273.8 42.7999 273.8 44.4999C273.8 46.1999 275.1 47.5999 276.8 47.5999C278.5 47.5999 279.6 46.2999 279.6 44.6999V44.4999H277.2V45.1999Z" fill="#003477"/>
<path d="M283.6 41.5L282.1 44L280.6 41.5H279.7L281.6 44.9V47.5H282.3V44.9L284.3 41.5H283.4H283.6Z" fill="#003477"/>
<path d="M43.3996 47.9H36.0996V0.5H43.3996V0.7H36.2996V47.6H43.3996V47.8V47.9Z" fill="#231815"/>
<path d="M295.9 47.9001H288.6V47.7001H295.7V0.800098H288.6V0.600098H295.9V48.0001V47.9001Z" fill="#231815"/>
<path d="M4.2002 41.7V42.4H0.200195V41.7H1.8002V36.2999L0.300195 37.2V36.4L2.1002 35.2H2.6002V41.5999H4.2002V41.7Z" fill="#AA8420"/>
<path d="M9.4002 38.1999C9.7002 38.3999 10.0002 38.5999 10.2002 38.9999C10.4002 39.2999 10.5002 39.6999 10.5002 40.1999C10.5002 40.6999 10.5002 40.9999 10.2002 41.3999C10.0002 41.7999 9.7002 41.9999 9.4002 42.1999C9.0002 42.3999 8.6002 42.4999 8.1002 42.4999C7.6002 42.4999 7.2002 42.4999 6.8002 42.2999C6.4002 42.0999 6.0002 41.8999 5.7002 41.6999L6.0002 41.0999C6.7002 41.5999 7.3002 41.8999 8.0002 41.8999C8.7002 41.8999 8.9002 41.7999 9.2002 41.4999C9.5002 41.1999 9.6002 40.7999 9.6002 40.2999C9.6002 39.7999 9.5002 39.4999 9.2002 39.1999C8.9002 38.8999 8.6002 38.7999 8.1002 38.7999C7.4002 38.7999 6.9002 39.0999 6.5002 39.5999H5.9002V35.3999H10.2002V36.0999H6.8002V38.5999C7.2002 38.1999 7.7002 37.9999 8.3002 37.9999C8.9002 37.9999 9.1002 37.9999 9.5002 38.2999L9.4002 38.1999Z" fill="#AA8420"/>
<path d="M306 35.3V35.9001L302.7 42.4001H301.8L305.1 36H301.3V35.3H306Z" fill="#AA8420"/>
<path d="M307.8 41.5C307.4 40.9 307.2 39.9999 307.2 38.7999C307.2 37.5999 307.4 36.6999 307.8 36.0999C308.2 35.4999 308.8 35.2 309.7 35.2C310.6 35.2 311.1 35.4999 311.6 36.0999C312 36.6999 312.2 37.5999 312.2 38.7999C312.2 39.9999 312 40.9 311.6 41.5C311.2 42.1 310.6 42.4 309.7 42.4C308.8 42.4 308.3 42.1 307.8 41.5ZM310.9 41C311.2 40.5 311.3 39.7999 311.3 38.7999C311.3 37.7999 311.2 36.9999 310.9 36.5999C310.6 36.0999 310.2 35.9 309.6 35.9C309 35.9 308.6 36.0999 308.4 36.5999C308.1 37.0999 308 37.7999 308 38.7999C308 39.7999 308.1 40.6 308.4 41C308.7 41.5 309.1 41.7 309.6 41.7C310.1 41.7 310.6 41.5 310.8 41H310.9Z" fill="#AA8420"/>
<path d="M16.0996 24.1C15.3996 24.4 14.5996 24.6 13.7996 24.7V26.4H15.8996V27.1H13.7996V29.1C14.5996 28.9 15.3996 28.6 15.9996 28.4V29.2C14.9996 29.6 13.8996 29.9 12.7996 30.2L12.5996 29.5C12.7996 29.5 12.8996 29.5 12.9996 29.5V24.2999C13.9996 24.1999 14.8996 24 15.6996 23.7L16.0996 24.2999V24.1ZM19.3996 28.9C19.3996 29.1 19.3996 29.3 19.1996 29.4C18.9996 29.5 18.8996 29.6 18.7996 29.6C18.5996 29.6 18.3996 29.6 18.0996 29.6C17.7996 29.6 17.6996 29.6 17.5996 29.6L17.2996 28.7999C17.4996 28.7999 17.7996 28.7999 18.3996 28.7999C18.9996 28.7999 18.5996 28.8 18.5996 28.6V24.4H16.9996V30.4H16.2996V23.7H19.3996V28.7999V28.9Z" fill="black"/>
<path d="M24.8992 25.8H21.7992V26.9C21.7992 28.4 21.5992 29.7 21.2992 30.6L20.6992 30.2C20.9992 29.4 21.0992 28.5 21.0992 27.4V23.7H24.8992V25.8ZM24.1992 25.1V24.3H21.7992V25.1H24.1992ZM24.8992 29.4C24.8992 29.6 24.8992 29.8 24.6992 29.8C24.4992 29.8 24.3992 29.9 24.0992 29.8L23.8992 29.2C23.8992 29.2 23.8992 29.2 23.9992 29.2C24.1992 29.2 24.1992 29.2 24.1992 29V27.4H23.6992V30.3H23.0992V27.4H22.6992V29.8H22.0992V26.7H23.1992V26H23.7992V26.7H24.8992V29.2V29.4ZM26.0992 29H25.3992V24H26.0992V29ZM27.3992 29.8C27.3992 30.1 27.3992 30.3 27.1992 30.4C26.9992 30.4 26.7992 30.5 26.3992 30.5C25.9992 30.5 25.9992 30.5 25.8992 30.5L25.6992 29.8C25.8992 29.8 26.0992 29.8 26.2992 29.8C26.4992 29.8 26.5992 29.8 26.6992 29.8C26.6992 29.8 26.6992 29.8 26.6992 29.6V23.5H27.3992V29.8Z" fill="black"/>
<path d="M20.5996 37.0001H14.6996V36.7001H17.4996C17.4996 36.5001 17.2996 36.4001 17.1996 36.3001L17.4996 36.1001C17.5996 36.3001 17.6996 36.5001 17.7996 36.7001H20.4996V37.0001H20.5996ZM20.5996 41.5001C20.5996 41.8001 20.5996 42.0001 20.3996 42.1001C20.2996 42.2001 20.0996 42.3001 19.9996 42.3001H17.6996C17.4996 42.3001 17.3996 42.3001 17.2996 42.1001C17.1996 42.0001 17.0996 41.8001 17.0996 41.6001V41.4001L14.5996 41.6001V41.3001L17.0996 41.1001V40.7001L14.9996 40.9001V40.6001L17.0996 40.4001V40.0001C16.5996 40.0001 16.0996 40.0001 15.4996 40.0001V39.7001C16.8996 39.7001 18.2996 39.7001 19.2996 39.4001L19.4996 39.7001C18.8996 39.8001 18.1996 39.9001 17.3996 40.0001V40.4001L19.9996 40.2001V40.5001L17.3996 40.7001V41.1001L20.3996 40.9001V41.2001L17.3996 41.4001V41.7001C17.3996 41.7001 17.3996 41.8001 17.3996 41.9001C17.3996 41.9001 17.4996 41.9001 17.5996 41.9001H19.6996C19.9996 41.9001 20.0996 41.7001 20.0996 41.3001H20.3996L20.5996 41.5001ZM20.4996 39.9001H20.0996V39.2001H15.0996V39.9001H14.6996V38.9001H20.4996V39.9001ZM19.8996 38.5001H15.1996V37.5001H19.8996V38.5001ZM19.5996 38.2001V37.8001H15.6996V38.2001H19.5996Z" fill="#AA8420" stroke="#AA8420" stroke-width="0.1" stroke-miterlimit="10"/>
<path d="M23.7 39.9002C23.3 40.7002 22.6 41.4002 21.8 42.0002L21.5 41.7002C22.3 41.1002 22.9 40.5002 23.3 39.7002L23.6 39.9002H23.7ZM27.6 39.1002H24.8V42.4002H24.4V39.1002H21.6V38.7002H24.4V36.2002H24.8V38.7002H27.6V39.1002ZM23.3 38.1002L23 38.3002C22.8 37.9002 22.5 37.4002 22.1 36.9002L22.4 36.7002C22.8 37.2002 23.1 37.6002 23.3 38.1002ZM27.6 41.7002L27.3 42.0002C26.9 41.3002 26.3 40.6002 25.5 40.0002L25.8 39.8002C26.4 40.3002 27 41.0002 27.6 41.8002V41.7002ZM27 36.7002C26.7 37.3002 26.4 37.8002 26.1 38.2002L25.7 38.0002C26 37.7002 26.3 37.2002 26.6 36.5002L26.9 36.7002H27Z" fill="#AA8420" stroke="#AA8420" stroke-width="0.1" stroke-miterlimit="10"/>
<path d="M305 29.2001C304 29.6001 303.1 30.0001 302.3 30.2001L302.1 29.6C302.8 29.4 303.7 29.1 304.8 28.6L305 29.2001ZM304.9 24.9C304.4 26 303.8 26.9 303.2 27.8C303.5 27.8 304 27.5 304.6 27.3L304.8 28C304 28.3 303.2 28.6 302.4 28.8L302.2 28.2001C302.7 27.7001 303.1 27.1 303.5 26.4C303.1 26.4 302.8 26.6 302.4 26.6L302.2 26C302.7 25.3 303.2 24.5 303.6 23.4L304.2 23.6C303.9 24.4 303.6 25.1001 303.1 25.7001C303.3 25.7001 303.6 25.7 303.9 25.5C304.1 25.3 304.2 25 304.3 24.6L304.9 24.9ZM309.1 28.8C309 29.8 308.6 30.3 308.1 30.3C307.6 30.3 307.7 30.3 307.5 30C307.3 29.8 307.1 29.6001 306.9 29.2001C306.3 29.6001 305.6 29.9 304.8 30.3L304.4 29.7001C305.3 29.4001 306 29 306.6 28.6C306.4 28.1 306.3 27.6 306.2 27.1L304.8 27.3V26.6L306.2 26.4C306.2 26 306.2 25.7 306.2 25.5H305.1C305.1 25.6 305.1 25 305.1 25H306.2C306.2 24.9 306.2 23.3 306.2 23.3H306.9C306.9 23.6 306.9 24.1 306.9 24.8L308.8 24.6V25.2001L306.9 25.5C306.9 25.8 306.9 26.1 306.9 26.4L309 26.1V26.8C309.1 26.8 306.9 27.1 306.9 27.1C306.9 27.5 307 27.9 307.1 28.3C307.4 28 307.7 27.7001 308.1 27.2001L308.6 27.5C308.3 28 307.8 28.5 307.4 28.9C307.5 29.1 307.7 29.3 307.8 29.4C307.9 29.5 308 29.6 308.1 29.6C308.1 29.6 308.1 29.5001 308.2 29.2001C308.2 29.0001 308.3 28.8 308.3 28.5L308.9 28.8H309.1ZM308.5 24L308.1 24.5C307.8 24.2 307.5 24 307.1 23.9L307.5 23.4C307.9 23.6 308.2 23.8 308.5 24.1V24Z" fill="black"/>
<path d="M317.1 30.1H310.1V29.4H313V23.3H313.7V25.7001H316.7V26.4H313.7V29.4H317.1V30.1Z" fill="black"/>
<path d="M317.899 36.4C317.899 36.7 317.699 37.1 317.599 37.4L317.399 37.9V42.4H317.099V38.5999C316.899 38.9999 316.699 39.3 316.499 39.5L316.199 39.2C316.799 38.5 317.199 37.5 317.599 36.2H317.899V36.4ZM322.299 41.9L322.099 42.2C321.699 42 321.199 41.5999 320.699 41.0999C320.699 41.2999 320.699 41.4 320.699 41.5C320.699 41.8 320.699 41.9999 320.599 42.0999C320.599 42.1999 320.399 42.3 320.299 42.4C320.199 42.4 319.899 42.4 319.599 42.4C319.299 42.4 319.399 42.4 319.299 42.4V42.0999C319.799 42.0999 320.099 42.0999 320.199 42.0999C320.299 42.0999 320.399 41.8999 320.399 41.5999C320.399 41.2999 320.399 41.2999 320.399 41.0999C319.799 41.4999 318.999 41.8999 317.899 42.2999L317.699 42C318.799 41.7 319.699 41.2999 320.299 40.7999C320.299 40.7999 320.299 40.6 320.099 40.4C319.499 40.8 318.799 41.2 317.899 41.4L317.699 41.0999C318.699 40.7999 319.399 40.4999 319.999 40.0999C319.999 39.9999 319.799 39.8999 319.699 39.7999C319.199 40.0999 318.599 40.3 317.799 40.5L317.599 40.2C318.399 40.1 319.099 39.8 319.699 39.4H318.299V38.2C318.199 38.3 317.999 38.4 317.899 38.5L317.699 38.2C318.499 37.6 319.099 37.1 319.399 36.5L319.699 36.7C319.699 36.8 319.599 36.9 319.499 37H321.199V37.2999C320.999 37.4999 320.799 37.8 320.599 38H321.899V39.2999H320.299C320.199 39.3999 320.099 39.4999 319.999 39.5999C320.199 39.8999 320.399 40.1 320.599 40.5C320.999 40.3 321.399 39.9999 321.899 39.5999L322.199 39.7999C321.799 40.0999 321.399 40.4 320.899 40.7C321.399 41.3 321.999 41.7 322.499 42L322.299 41.9ZM320.699 37.0999H319.199C318.899 37.3999 318.699 37.5999 318.399 37.7999H320.099C320.399 37.4999 320.599 37.2999 320.699 37.0999ZM319.899 38.9V38.2H318.599V38.9H319.899ZM321.599 38.9V38.2H320.299V38.9H321.599Z" fill="#AA8420" stroke="#AA8420" stroke-width="0.1" stroke-miterlimit="10"/>
<path d="M329.3 38.7H326.4C325.9 39.1 325.4 39.3 324.9 39.5H326C326.7 39.5 327.1 39.5 327.1 39.5C327.4 39.4 327.6 39.2 328 39L328.3 39.2C327.1 39.9 326 40.4 324.8 40.7C326 40.7 327.2 40.7 328.3 40.5C328.1 40.3 328 40.2 327.8 40L328.1 39.7999C328.6 40.1999 329 40.6999 329.3 41.0999L329 41.2999C328.8 41.0999 328.7 40.8999 328.6 40.7999C327.9 40.7999 327.2 40.9 326.5 40.9V41.9C326.5 42.1 326.5 42.1999 326.3 42.2999C326.2 42.2999 326 42.4 325.6 42.4C325.2 42.4 325.4 42.4 325.4 42.4V42C325.4 42 325.6 42 325.7 42C325.9 42 326 42 326 42C326 42 326 42 326 41.9V40.9C325.4 40.9 324.6 40.9 323.6 40.9V40.5999C324.5 40.3999 325.4 40.1 326.3 39.7C325.8 39.7 325.2 39.7 324.6 39.7C324 39.7 324.2 39.7 324.1 39.7V39.4C324.6 39.2 325.2 38.8999 325.7 38.5999H323.1V38.2999H326V37.7H323.8V37.4H326V36.9H323.4V36.5999H326V36.2H326.4V36.5999H328.9V36.9H326.4V37.4H328.5V37.7H326.4V38.2999H329.2V38.5999L329.3 38.7ZM325.3 41.4C324.9 41.7 324.3 42.1 323.5 42.4L323.3 42.0999C324 41.7999 324.6 41.5 325.1 41.2L325.4 41.5L325.3 41.4ZM329.2 42.0999L329 42.4C328.5 42 327.9 41.7 327.2 41.4L327.4 41.0999C328.1 41.3999 328.7 41.6999 329.2 42.0999Z" fill="#AA8420" stroke="#AA8420" stroke-width="0.1" stroke-miterlimit="10"/>
</g>
<defs>
<clipPath id="clip0_83_3847">
<rect width="334" height="48" fill="white"/>
</clipPath>
</defs>
</svg>
