<?xml version="1.0" encoding="UTF-8"?>
<svg id="Layer_1" xmlns="http://www.w3.org/2000/svg" version="1.1" viewBox="0 0 328.8 149.6">
  <!-- Generator: Adobe Illustrator 29.0.1, SVG Export Plug-In . SVG Version: 2.1.0 Build 192)  -->
  <defs>
    <style>
      .st0, .st1 {
        fill: none;
      }

      .st1 {
        stroke: #231f20;
      }

      .st1, .st2 {
        stroke-width: .2px;
      }

      .st3, .st2 {
        fill: #505050;
      }

      .st4 {
        fill: #a78337;
      }

      .st2 {
        stroke: #505050;
        stroke-miterlimit: 10;
      }
    </style>
  </defs>
  <rect class="st0" y="-32.6" width="361" height="185.8"/>
  <polyline class="st1" points="294.9 57.9 302.1 57.9 302.1 89.6 294.9 89.6"/>
  <polyline class="st1" points="294.9 33.8 302.1 33.8 302.1 41 294.9 41"/>
  <polyline class="st1" points="294.9 105.7 302.1 105.7 302.1 124.4 294.9 124.4"/>
  <g>
    <path class="st4" d="M311.9,77.4v.7h-3.3v-.7h1.2v-4l-1.2.7v-.8l1.5-.9h.5v5h1.2Z"/>
    <path class="st4" d="M316.6,77.4v.7h-3.3v-.7h1.2v-4l-1.2.7v-.8l1.5-.9h.5v5h1.2Z"/>
    <path class="st4" d="M319.7,72.4h2.4c.6,0,1.1.1,1.4.4.3.3.5.7.5,1.2s-.2.9-.5,1.2-.8.4-1.4.4h-1.5v2.4h-.8v-5.7ZM321.9,75c.4,0,.7,0,.9-.2.2-.2.3-.4.3-.7s-.1-.5-.3-.7c-.2-.2-.5-.2-.9-.2h-1.4v1.9h1.4Z"/>
    <path class="st4" d="M326,73.1h-1.9v-.7h4.7v.7h-1.9v5h-.8v-5Z"/>
  </g>
  <g>
    <path class="st4" d="M311.9,39.5v.7h-3.3v-.7h1.2v-4l-1.2.7v-.8l1.5-.9h.5v5h1.2Z"/>
    <path class="st4" d="M316.6,39.5v.7h-3.7v-.6l2-2.2c.2-.3.4-.5.5-.8.1-.2.2-.5.2-.7s0-.5-.2-.7c-.2-.2-.4-.2-.7-.2-.5,0-1.1.2-1.6.6l-.3-.6c.2-.2.5-.4.9-.5.3-.1.7-.2,1-.2.5,0,1,.1,1.3.4.3.3.5.6.5,1.1s0,.6-.2.9c-.1.3-.4.6-.7,1l-1.5,1.6h2.7Z"/>
    <path class="st4" d="M319.7,34.5h2.4c.6,0,1.1.1,1.4.4.3.3.5.7.5,1.2s-.2.9-.5,1.2-.8.4-1.4.4h-1.5v2.4h-.8v-5.7ZM321.9,37.1c.4,0,.7,0,.9-.2.2-.2.3-.4.3-.7s-.1-.5-.3-.7c-.2-.2-.5-.2-.9-.2h-1.4v1.9h1.4Z"/>
    <path class="st4" d="M326,35.2h-1.9v-.7h4.7v.7h-1.9v5h-.8v-5Z"/>
  </g>
  <g>
    <path class="st4" d="M311.9,117.4v.7h-3.3v-.7h1.2v-4l-1.2.7v-.8l1.5-.9h.5v5h1.2Z"/>
    <path class="st4" d="M313.2,117.4c-.3-.5-.5-1.2-.5-2.2s.2-1.7.5-2.2.9-.7,1.5-.7,1.2.2,1.5.7c.3.5.5,1.2.5,2.2s-.2,1.7-.5,2.2-.9.7-1.5.7-1.2-.2-1.5-.7ZM315.6,117c.2-.4.3-.9.3-1.7s0-1.3-.3-1.7c-.2-.4-.5-.5-.9-.5s-.7.2-.9.5c-.2.4-.3.9-.3,1.7s0,1.3.3,1.7c.2.4.5.5.9.5s.7-.2.9-.5Z"/>
    <path class="st4" d="M319.7,112.4h2.4c.6,0,1.1.1,1.4.4.3.3.5.7.5,1.2s-.2.9-.5,1.2-.8.4-1.4.4h-1.5v2.4h-.8v-5.7ZM321.9,115c.4,0,.7,0,.9-.2.2-.2.3-.4.3-.7s-.1-.5-.3-.7c-.2-.2-.5-.2-.9-.2h-1.4v1.9h1.4Z"/>
    <path class="st4" d="M326,113.1h-1.9v-.7h4.7v.7h-1.9v5h-.8v-5Z"/>
  </g>
  <g>
    <path class="st2" d="M17.5,5.4h-3.7v1.9c0,.2,0,.4-.2.5-.2.1-.5.2-1.1.2s-.3,0-.5,0l-.2-.5c.2,0,.5,0,.7,0,.4,0,.6,0,.7,0,0,0,.1,0,.1-.2v-1.9h-3.7v-.5h3.7v-.6c.8-.5,1.4-.9,1.9-1.2h-4.1v-.5h4.9v.5c-.6.5-1.3.9-2.1,1.4v.3h3.7v.5ZM17.1,3.1h-.5v-1.6h-6.1v1.6h-.5V1h3.4c0-.2-.2-.4-.5-.7l.4-.2c.2.3.4.6.6,1h3.2v2.1Z"/>
    <path class="st2" d="M19.8,5.5c-.3.9-.6,1.6-1,2.2l-.4-.2c.4-.5.7-1.2,1-2.1h.4ZM22.8,4.9h-1.9v2.4c0,.1,0,.3-.1.4s-.1.2-.2.2c0,0-.2,0-.5,0s-.2,0-.3,0l-.2-.5c.1,0,.3,0,.4,0s.3,0,.4,0c0,0,0-.1,0-.2v-2.3h-2v-.4h4.3v.4ZM22.7,1.3h-1.8v.8h1.5v.4h-3.5v-.4h1.6v-.8h-1.8v-.4h1.8V0h.5v.8h1.8v.4ZM22.3,3.7h-3.5v-.4h3.5v.4ZM22.6,6.6l-.4.3c-.1-.3-.4-.8-.8-1.3l.4-.2c.3.3.5.7.8,1.2ZM26.3,7.6l-.3.4c-.8-.8-1.4-1.7-1.6-2.8-.3,1.1-.9,2-2,2.8l-.3-.3c.7-.5,1.2-1,1.6-1.7.4-.7.5-1.8.5-3.4h.4c0,.3,0,.6,0,.9,0,.9.2,1.7.5,2.4s.7,1.3,1.3,1.8ZM26.2,1.4c0,1-.3,1.9-.7,2.7l-.4-.2c.3-.6.5-1.3.6-2.1h-2c-.2.6-.5,1.1-.8,1.6l-.3-.4c.5-.8,1-1.8,1.3-3.1h.4c-.1.5-.2,1-.4,1.4h2.3Z"/>
    <path class="st3" d="M28.1,3.1v.9h-.9v-.9h.9ZM28.1,6.6v.9h-.9v-.9h.9Z"/>
    <path class="st3" d="M35.8,5.8h-3.3l-.7,1.6h-.8l2.8-6.4h.6l2.8,6.4h-.8l-.7-1.6ZM35.5,5.2l-1.4-3.3-1.4,3.3h2.8Z"/>
    <path class="st3" d="M40.6,2.9v.7c-.2,0-.3,0-.5,0-.4,0-.8.1-1,.4-.2.3-.3.6-.3,1v2.6h-.7v-3.3c0-.5,0-.9,0-1.3h.7v.8c.2-.3.4-.5.6-.7.3-.2.5-.2.9-.2s.3,0,.4,0Z"/>
    <path class="st3" d="M42,1v.8h-.9v-.8h.9ZM41.2,3h.7v4.5h-.7V3Z"/>
    <path class="st3" d="M47.3,3v4.5h-.7v-.8c-.1.3-.3.5-.6.7-.3.2-.6.2-.9.2s-.8,0-1.1-.3c-.3-.2-.5-.5-.7-.8-.2-.4-.2-.8-.2-1.2s0-.9.3-1.2c.2-.4.4-.6.7-.8s.7-.3,1-.3.7,0,.9.2c.3.2.5.4.6.7v-.8h.7ZM46.2,6.5c.2-.3.4-.7.4-1.3s-.1-1-.4-1.3c-.2-.3-.6-.5-1-.5s-.8.2-1,.5c-.2.3-.4.7-.4,1.3s.1,1,.4,1.3c.2.3.6.5,1,.5s.8-.2,1-.5Z"/>
    <path class="st3" d="M48.6.9h.7v6.6h-.7V.9Z"/>
  </g>
  <g>
    <path class="st2" d="M13.5,13.4h-3.1v1.6c0,1.1-.1,2-.4,2.9l-.4-.3c.2-.7.3-1.6.3-2.5v-2.1h3.5v.4ZM13.4,11.1h-3.5v-.4h1.6s-.1-.2-.3-.5l.4-.2c.1.2.2.4.4.7h1.5v.4ZM13.1,12.5l-.2.3-1.1-.6c-.6.3-1.2.5-1.7.6l-.2-.3c.6-.2,1.1-.3,1.4-.5-.3-.2-.7-.3-1.1-.4l.3-.3c.2,0,.7.3,1.3.5.3,0,.6-.3,1-.5l.3.3c-.2.2-.5.3-.8.5l.9.5ZM13.5,16.5c-.7.6-1.5,1.1-2.6,1.5l-.2-.4c1-.3,1.9-.8,2.6-1.5l.3.4ZM12.9,14.1c-.6.4-1.2.8-1.9,1l-.2-.4c.7-.3,1.3-.6,1.8-1l.3.3ZM13.2,15.3c-.6.5-1.3.9-2.1,1.2l-.2-.4c.9-.3,1.6-.7,2.1-1.2l.3.3ZM17.5,10.7h-1.7c0,.3-.2.7-.3,1.1h1.6v4.4h-2.1l.3.3c-.6.6-1.2,1.1-1.7,1.5l-.3-.4c.7-.5,1.2-.9,1.7-1.4h-1.1v-4.4h1.1c.1-.3.2-.7.3-1.1h-1.6v-.4h3.8v.4ZM16.6,13.1v-.9h-2.3v.9h2.3ZM16.6,14.4v-.9h-2.3v.9h2.3ZM16.6,15.7v-.9h-2.3v.9h2.3ZM17.5,17.6l-.3.4c-.4-.4-.9-.8-1.4-1.3l.3-.3c.5.4,1,.8,1.4,1.2Z"/>
    <path class="st2" d="M26.1,16c0,.3,0,.7-.1.9s-.2.5-.3.6c0,.1-.2.2-.4.2-.1,0-.4,0-.9,0s-1,0-1.7,0-1.1,0-1.7,0-1,0-1.1,0-.2,0-.3-.1c0,0-.2-.2-.2-.3,0-.1,0-.2,0-.4v-4.5h3l1.4-1.3h-2.9c-.7.7-1.4,1.2-2.2,1.6l-.3-.4c1.2-.7,2.2-1.5,2.9-2.5l.5.2c-.1.2-.3.4-.5.6h3.2v.4c-.4.4-.8.8-1.4,1.4h2.4v2.6h-5.6v1.9c0,0,0,.1.1.2,0,0,.2.1.4.1.2,0,.9,0,2.3,0s2.2,0,2.4,0c.2,0,.3,0,.4-.2s.2-.3.2-.5c0-.3,0-.6,0-.9l.5.2ZM22.2,14.6v-1.6h-2.3v1.6h2.3ZM25,14.6v-1.6h-2.3v1.6h2.3Z"/>
    <path class="st3" d="M28.1,13.1v.9h-.9v-.9h.9ZM28.1,16.6v.9h-.9v-.9h.9Z"/>
    <path class="st3" d="M36.6,17.5h-.8l-.8-2.1c0-.3-.2-.4-.4-.5-.2,0-.4-.1-.7-.1h-1.6v2.8h-.7v-6.4h2.5c.7,0,1.2.2,1.6.5.4.3.6.7.6,1.3s-.1.8-.3,1.1-.5.5-.9.6c.2,0,.3.1.5.2s.2.3.3.6l.8,2.2ZM34.1,14.1c1,0,1.5-.4,1.5-1.2s-.1-.7-.4-.9c-.2-.2-.6-.3-1.1-.3h-1.8v2.4h1.8Z"/>
    <path class="st3" d="M43.9,14.8c.2.3.3.6.3,1s-.2,1-.6,1.3c-.4.3-1,.5-1.7.5s-1.3-.2-1.7-.5c-.4-.3-.6-.7-.6-1.3s.1-.7.4-1,.6-.5,1-.6c-.4-.1-.7-.3-.9-.6s-.3-.6-.3-.9,0-.6.3-.9c.2-.3.4-.5.8-.6.3-.1.7-.2,1.1-.2s.8,0,1.1.2.6.3.8.6c.2.3.3.6.3.9s-.1.7-.3.9-.5.4-.9.6c.4.1.7.3,1,.6ZM43.1,16.6c.3-.2.4-.5.4-.9s-.1-.6-.4-.9-.7-.3-1.1-.4c-.5,0-.9.2-1.1.4s-.4.5-.4.9.1.7.4.9c.3.2.7.3,1.2.3s.9-.1,1.2-.3ZM40.9,13.6c.3.2.6.3,1,.4.4,0,.8-.2,1-.4s.4-.5.4-.8-.1-.6-.4-.8c-.2-.2-.6-.3-1-.3s-.8.1-1,.3c-.2.2-.4.5-.4.8s.1.6.4.8Z"/>
    <path class="st3" d="M45.6,16.7c-.4-.6-.6-1.4-.6-2.4s.2-1.9.6-2.4.9-.8,1.7-.8,1.3.3,1.7.8.6,1.4.6,2.4-.2,1.9-.6,2.4c-.4.6-.9.8-1.7.8s-1.3-.3-1.7-.8ZM48.4,16.3c.2-.4.4-1.1.4-2s-.1-1.6-.4-2c-.2-.4-.6-.6-1.1-.6s-.9.2-1.1.6-.4,1.1-.4,2,.1,1.6.4,2c.2.4.6.7,1.1.7s.9-.2,1.1-.6Z"/>
    <path class="st3" d="M51.9,18l2.3-7.2h.7l-2.3,7.2h-.7Z"/>
    <path class="st3" d="M62.7,14.1v3c-.3.1-.6.2-1,.3-.4,0-.8.1-1.2.1-.6,0-1.2-.1-1.6-.4s-.8-.6-1.1-1.1c-.2-.5-.4-1.1-.4-1.8s.1-1.3.4-1.8c.2-.5.6-.9,1-1.1.5-.3,1-.4,1.6-.4s.9,0,1.2.2.7.3,1,.6l-.3.6c-.3-.3-.6-.5-.9-.6-.3-.1-.6-.2-1-.2-.7,0-1.3.2-1.7.7-.4.5-.6,1.1-.6,2s.2,1.5.6,2c.4.5,1,.7,1.7.7s1,0,1.5-.3v-2h-1.6v-.6h2.3Z"/>
    <path class="st3" d="M70.3,14.8c.2.3.3.6.3,1s-.2,1-.6,1.3c-.4.3-1,.5-1.7.5s-1.3-.2-1.7-.5c-.4-.3-.6-.7-.6-1.3s.1-.7.4-1c.2-.3.6-.5,1-.6-.4-.1-.7-.3-.9-.6s-.3-.6-.3-.9,0-.6.3-.9c.2-.3.4-.5.8-.6s.7-.2,1.1-.2.8,0,1.1.2.6.3.8.6c.2.3.3.6.3.9s-.1.7-.3.9-.5.4-.9.6c.4.1.7.3,1,.6ZM69.5,16.6c.3-.2.4-.5.4-.9s-.1-.6-.4-.9-.7-.3-1.1-.4c-.5,0-.9.2-1.1.4-.3.2-.4.5-.4.9s.1.7.4.9c.3.2.7.3,1.2.3s.9-.1,1.2-.3ZM67.3,13.6c.3.2.6.3,1,.4.4,0,.8-.2,1-.4s.4-.5.4-.8-.1-.6-.4-.8c-.2-.2-.6-.3-1-.3s-.8.1-1,.3c-.2.2-.4.5-.4.8s.1.6.4.8Z"/>
    <path class="st3" d="M72,16.7c-.4-.6-.6-1.4-.6-2.4s.2-1.9.6-2.4c.4-.6.9-.8,1.7-.8s1.3.3,1.7.8c.4.6.6,1.4.6,2.4s-.2,1.9-.6,2.4c-.4.6-.9.8-1.7.8s-1.3-.3-1.7-.8ZM74.8,16.3c.2-.4.4-1.1.4-2s-.1-1.6-.4-2-.6-.6-1.1-.6-.9.2-1.1.6c-.2.4-.4,1.1-.4,2s.1,1.6.4,2c.2.4.6.7,1.1.7s.9-.2,1.1-.6Z"/>
    <path class="st3" d="M76.1,18l2.3-7.2h.7l-2.3,7.2h-.7Z"/>
    <path class="st3" d="M86.3,14.7c.2.3.3.6.3,1s-.2,1-.6,1.3c-.4.3-.9.5-1.6.5h-2.7v-6.4h2.6c.7,0,1.2.1,1.5.4.4.3.5.7.5,1.2s0,.6-.3.9-.4.4-.7.6c.4.1.7.3.9.6ZM82.6,13.9h1.7c.5,0,.8,0,1.1-.3.2-.2.4-.5.4-.8,0-.7-.5-1.1-1.5-1.1h-1.7v2.2ZM85.5,16.6c.2-.2.4-.5.4-.9,0-.8-.5-1.2-1.5-1.2h-1.9v2.3h1.9c.5,0,.9,0,1.1-.3Z"/>
    <path class="st3" d="M94,14.8c.2.3.3.6.3,1s-.2,1-.6,1.3c-.4.3-1,.5-1.7.5s-1.3-.2-1.7-.5c-.4-.3-.6-.7-.6-1.3s.1-.7.4-1c.2-.3.6-.5,1-.6-.4-.1-.7-.3-.9-.6s-.3-.6-.3-.9,0-.6.3-.9c.2-.3.4-.5.8-.6s.7-.2,1.1-.2.8,0,1.1.2.6.3.8.6c.2.3.3.6.3.9s-.1.7-.3.9-.5.4-.9.6c.4.1.7.3,1,.6ZM93.2,16.6c.3-.2.4-.5.4-.9s-.1-.6-.4-.9-.7-.3-1.1-.4c-.5,0-.9.2-1.1.4-.3.2-.4.5-.4.9s.1.7.4.9c.3.2.7.3,1.2.3s.9-.1,1.2-.3ZM91,13.6c.3.2.6.3,1,.4.4,0,.8-.2,1-.4s.4-.5.4-.8-.1-.6-.4-.8c-.2-.2-.6-.3-1-.3s-.8.1-1,.3c-.2.2-.4.5-.4.8s.1.6.4.8Z"/>
    <path class="st3" d="M95.7,16.7c-.4-.6-.6-1.4-.6-2.4s.2-1.9.6-2.4.9-.8,1.7-.8,1.3.3,1.7.8.6,1.4.6,2.4-.2,1.9-.6,2.4c-.4.6-.9.8-1.7.8s-1.3-.3-1.7-.8ZM98.5,16.3c.2-.4.4-1.1.4-2s-.1-1.6-.4-2c-.2-.4-.6-.6-1.1-.6s-.9.2-1.1.6-.4,1.1-.4,2,.1,1.6.4,2c.2.4.6.7,1.1.7s.9-.2,1.1-.6Z"/>
  </g>
  <g>
    <path class="st2" d="M12,34.2c0,.2-.2.5-.4.9l-.3.5v6.3h-.5v-5.4c-.3.6-.7,1.1-1,1.5l-.2-.5c.7-.8,1.3-2,2-3.5l.4.2ZM17.2,35.2c-.1.7-.3,1.4-.7,2.3l-.4-.2c.2-.5.4-1,.5-1.6h-3.3c-.4.7-.8,1.4-1.3,2l-.3-.4c.8-.9,1.4-2,1.7-3.2h.5c0,.4-.2.7-.4,1.1h3.7ZM13.7,37.9c-.4,1.3-.9,2.3-1.5,3.1l-.4-.3c.6-.8,1-1.8,1.4-2.9l.5.2ZM14.9,41.2c0,.3,0,.5-.2.6-.1.1-.4.2-.9.2s-.3,0-.5,0l-.2-.5c.3,0,.6,0,.8,0s.5-.1.5-.3v-4.8h.5v4.8ZM17.5,40.7l-.5.2c-.4-1-.8-2-1.4-3l.4-.2c.6,1,1,2,1.4,3Z"/>
    <path class="st2" d="M21.5,41.8h-.5v-.8h-1.9v1h-.5v-6.4h.8c.2-.4.4-.9.6-1.5h.4c-.1.4-.3.9-.6,1.5h1.5v6.2ZM21,38v-1.9h-1.9v1.9h1.9ZM21,40.5v-2.1h-1.9v2.1h1.9ZM26,35.6c0,1.3-.1,2.6-.2,3.8,0,1.2-.2,1.8-.3,2s-.2.4-.4.4c-.2,0-.4.1-.9.1s-.4,0-.7,0v-.5c.1,0,.4,0,.7,0s.4,0,.5,0c0,0,.2,0,.2-.1,0,0,.1-.1.2-.2,0,0,0-.4.1-1s.1-1.3.1-2c0-.7,0-1.4,0-2.1h-2.3c-.3.6-.7,1.2-1.1,1.8l-.4-.3c.8-1,1.3-2.2,1.7-3.5h.5c-.1.6-.3,1.1-.5,1.5h2.7ZM24.4,39.6l-.4.3c-.3-.7-.7-1.4-1.3-2.1l.4-.2c.5.7,1,1.3,1.3,2.1Z"/>
    <path class="st2" d="M34.4,41.9h-.5v-.6h-4.3v.6h-.5v-3.1c-.7.3-1.3.4-1.7.6l-.3-.4c1.4-.4,2.6-.8,3.6-1.4-.4-.5-.9-1-1.5-1.6-.5.3-1,.6-1.5.9l-.4-.4c1.4-.6,2.5-1.4,3.4-2.5l.5.2c-.1.2-.3.3-.5.5h3.5v.4c-1,1.3-2.3,2.4-4,3.2h4.1v3.6ZM33.9,40.9v-2.1h-4.3v2.1h4.3ZM33.6,35.2h-3.3c-.2.2-.4.3-.6.5.6.5,1.1,1.1,1.5,1.6.9-.6,1.7-1.3,2.4-2.1Z"/>
    <path class="st2" d="M43.8,39.4h-3.7v1.9c0,.2,0,.4-.2.5-.2.1-.5.2-1.1.2s-.3,0-.5,0l-.2-.5c.2,0,.5,0,.7,0,.4,0,.6,0,.7,0,0,0,.1,0,.1-.2v-1.9h-3.7v-.5h3.7v-.6c.8-.5,1.4-.9,1.9-1.2h-4.1v-.5h4.9v.5c-.6.5-1.3.9-2.1,1.4v.3h3.7v.5ZM43.4,37.1h-.5v-1.6h-6.1v1.6h-.5v-2.1h3.4c0-.2-.2-.4-.5-.7l.4-.2c.2.3.4.6.6,1h3.2v2.1Z"/>
  </g>
  <g>
    <path class="st2" d="M13,64l-.5.2v1.8h-.5v-1.6c-.9.3-1.7.5-2.4.6l-.2-.4c.3,0,.5-.1.7-.2v-5.6h-.5v-.4h3.3v.4h-.5v4.9c.2,0,.4-.1.4-.1v.5ZM12.1,60.1v-1.4h-1.4v1.4h1.4ZM12.1,62v-1.4h-1.4v1.4h1.4ZM12.1,63.8v-1.3h-1.4v1.8c.5-.1,1-.3,1.4-.4ZM14.8,63.3c-.6,1.2-1.2,2.1-1.8,2.8l-.4-.3c.6-.6,1.2-1.5,1.7-2.7l.4.2ZM17,62.3h-3.7v-4h3.7v4ZM16.6,61.8v-3h-2.7v3h2.7ZM17.5,65.8l-.4.3c-.3-.8-.9-1.7-1.6-2.7l.4-.3c.7,1,1.3,1.9,1.7,2.8Z"/>
    <path class="st2" d="M20.8,58.2c-.1.3-.3.6-.5,1l-.3.6v6.1h-.5v-5.3c-.3.4-.6.9-1,1.4l-.3-.4c.8-1,1.5-2.2,2.1-3.5l.5.2ZM26.2,65.7h-5.8v-.5h1.8c-.2-1.5-.5-3.1-1-4.8l.3-.2h-1v-.5h2.7c-.1-.5-.3-1.1-.5-1.6l.5-.2c.2.5.4,1.1.6,1.7h2.3v.5h-.9.3c-.3,2-.6,3.6-1.1,5h1.8v.5ZM25,60.3h-3.2c.5,1.8.8,3.5,1,5h1.2c.5-1.7.9-3.3,1.1-5Z"/>
  </g>
  <g>
    <path class="st3" d="M18.4,75.5h-4.1v1.7c0,.3,0,.5-.3.7-.2.1-.5.2-1,.2s-.5,0-.9,0l-.2-.5c.9,0,1.4,0,1.6,0s.1,0,.1,0c0,0,0-.1,0-.2v-1.8h-4.1v-.5h4.1v-.7c.8-.3,1.5-.7,2.1-1h-4.8v-.5h5.8v.5c-.7.4-1.6.9-2.5,1.3v.4h4.1v.5ZM18.1,73h-.5v-1.2h-7.2v1.2h-.5v-1.7h8.2v1.8ZM12.2,70.9l-.5.2c-.3-.6-.7-1.1-1.1-1.6l.5-.2c.5.6.9,1.2,1.1,1.6ZM14.6,70.8l-.5.2c-.3-.6-.6-1.2-1-1.6l.5-.2c.5.7.8,1.3.9,1.6ZM17.5,69.5c-.4.6-.8,1.1-1.2,1.6h0l-.4-.3c.4-.4.8-.9,1.2-1.5l.5.2Z"/>
    <path class="st3" d="M21.7,72.3c.6.7.8,1.5.8,2.3s0,.5-.2.7c-.2.2-.5.3-1,.3s-.2,0-.4,0l-.2-.5h.6c.3,0,.5,0,.6-.1,0,0,.1-.2.1-.4,0-.8-.3-1.5-.9-2.2.2-.7.5-1.5.8-2.4h-1.5v8h-.5v-8.5h2.5v.5c-.2.8-.5,1.6-.8,2.4ZM28.3,76c0,.5,0,.9-.1,1.2s-.2.4-.4.5-.5.1-1,.1-.8-.2-.8-.6v-3.1h-1.1c0,1.1-.3,2-.7,2.5-.4.5-1,1-1.7,1.3l-.4-.4c.7-.3,1.3-.7,1.7-1.2.4-.5.6-1.2.6-2.2h-1.5v-.5h5.3v.5h-1.6v3c0,0,0,.1,0,.2,0,0,.2,0,.4,0s.4,0,.4,0c0,0,.1,0,.2-.1,0,0,0-.2,0-.5s0-.6,0-.9l.5.2ZM28.1,72.3h-.5v-1.5h-4.2v1.5h-.5v-2h2.3c0-.2-.2-.5-.4-.9h.5c.1.2.3.5.4.9h2.4v2ZM27.2,72.4h-3.4v-.5h3.4v.5Z"/>
    <path class="st3" d="M35.5,69.9l-3.6,8.8h-.8l3.6-8.8h.8Z"/>
    <path class="st3" d="M41.6,76.9c-1.4.5-2.4.8-3,1l-.2-.5c.2,0,.4,0,.4-.1v-3.9h.5v3.7c.2,0,.4-.1.7-.2v-4.3h-1.2v-3h2.4v3h-.7v1.4h.9v.5h-.9v2.2c.3,0,.7-.2,1.1-.4v.6ZM40.6,72.1v-2h-1.3v2h1.3ZM47.1,72.6l-.3.4c-1-.6-1.7-1.3-2.1-2.3h-.8c-.5.9-1.2,1.7-2.1,2.2l-.4-.4c.9-.6,1.5-1.2,1.9-1.9h-1.6v-.5h1.9c.1-.3.2-.7.3-1h.5c0,.4-.2.7-.3,1h2.8v.5h-1.7c.4.8,1,1.4,1.9,1.8ZM46.9,74.2h-3.3l-.3,1h3c0,.8-.1,1.4-.2,1.8-.1.4-.3.7-.4.8-.2.1-.6.2-1.2.2s-.6,0-1,0v-.5c.3,0,.9,0,1.6,0s.3,0,.4-.3c0-.2.2-.7.3-1.5h-3.1l.5-1.5h-1.2v-.5h5v.5ZM45.6,72.8h-2.5v-.5h2.5v.5Z"/>
    <path class="st3" d="M57,75.5h-4.1v1.7c0,.3,0,.5-.3.7-.2.1-.5.2-1,.2s-.5,0-.9,0l-.2-.5c.9,0,1.4,0,1.6,0s.1,0,.1,0c0,0,0-.1,0-.2v-1.8h-4.1v-.5h4.1v-.7c.8-.3,1.5-.7,2.1-1h-4.8v-.5h5.8v.5c-.7.4-1.6.9-2.5,1.3v.4h4.1v.5ZM56.8,73h-.5v-1.2h-7.2v1.2h-.5v-1.7h8.2v1.8ZM50.8,70.9l-.5.2c-.3-.6-.7-1.1-1.1-1.6l.5-.2c.5.6.9,1.2,1.1,1.6ZM53.2,70.8l-.5.2c-.3-.6-.6-1.2-1-1.6l.5-.2c.5.7.8,1.3.9,1.6ZM56.1,69.5c-.4.6-.8,1.1-1.2,1.6h0l-.4-.3c.4-.4.8-.9,1.2-1.5l.5.2Z"/>
    <path class="st3" d="M62.2,69.6c-.4.2-.9.4-1.6.5v1.6h1.5v.5h-1.5v.5c.6.6,1.1,1.2,1.5,1.7l-.4.4c-.3-.5-.7-1-1.1-1.4v4.5h-.5v-4.7c-.4.9-1,1.7-1.6,2.5l-.4-.4c.9-1,1.5-2.1,1.9-3.1h-1.9v-.5h1.9v-1.5c-.3,0-.8.1-1.5.3l-.3-.5c1.3-.1,2.5-.4,3.5-.8l.3.4ZM67,75.3l-1,.2v2.5h-.5v-2.4l-3.3.5v-.5s3.3-.5,3.3-.5v-5.8h.5v5.7h1c0-.1,0,.4,0,.4ZM64.6,74l-.4.4c-.4-.6-1-1.2-1.8-1.8l.3-.4c.8.6,1.4,1.1,1.9,1.8ZM64.8,71.3l-.3.4c-.6-.6-1.2-1.1-1.8-1.6l.3-.4c.6.4,1.2.9,1.8,1.5Z"/>
    <path class="st3" d="M76.8,75.5h-4.1v1.7c0,.3,0,.5-.3.7-.2.1-.5.2-1,.2s-.5,0-.9,0l-.2-.5c.9,0,1.4,0,1.6,0s.1,0,.1,0c0,0,0-.1,0-.2v-1.8h-4.1v-.5h4.1v-.7c.8-.3,1.5-.7,2.1-1h-4.8v-.5h5.8v.5c-.7.4-1.6.9-2.5,1.3v.4h4.1v.5ZM76.6,73h-.5v-1.2h-7.2v1.2h-.5v-1.7h8.2v1.8ZM70.7,70.9l-.5.2c-.3-.6-.7-1.1-1.1-1.6l.5-.2c.5.6.9,1.2,1.1,1.6ZM73.1,70.8l-.5.2c-.3-.6-.6-1.2-1-1.6l.5-.2c.5.7.8,1.3.9,1.6ZM75.9,69.5c-.4.6-.8,1.1-1.2,1.6h0l-.4-.3c.4-.4.8-.9,1.2-1.5l.5.2Z"/>
    <path class="st3" d="M80.1,72.3c.6.7.8,1.5.8,2.3s0,.5-.2.7c-.2.2-.5.3-1,.3s-.3,0-.4,0l-.2-.5h.6c.3,0,.5,0,.6-.1,0,0,.1-.2.1-.4,0-.8-.3-1.5-.9-2.2.2-.7.5-1.5.8-2.4h-1.5v8h-.5v-8.5h2.5v.5c-.2.8-.5,1.6-.8,2.4ZM86.8,76c0,.5,0,.9-.1,1.2s-.2.4-.4.5-.5.1-1,.1-.8-.2-.8-.6v-3.1h-1.1c0,1.1-.3,2-.7,2.5-.4.5-1,1-1.7,1.3l-.4-.4c.7-.3,1.3-.7,1.7-1.2.4-.5.6-1.2.6-2.2h-1.5v-.5h5.3v.5h-1.6v3c0,0,0,.1,0,.2,0,0,.2,0,.4,0s.4,0,.4,0c0,0,.1,0,.2-.1,0,0,0-.2,0-.5s0-.6,0-.9l.5.2ZM86.6,72.3h-.5v-1.5h-4.2v1.5h-.5v-2h2.3c0-.2-.2-.5-.4-.9h.5c.1.2.3.5.4.9h2.4v2ZM85.6,72.4h-3.4v-.5h3.4v.5Z"/>
    <path class="st3" d="M93.9,69.9l-3.6,8.8h-.8l3.6-8.8h.8Z"/>
    <path class="st3" d="M105.6,75.5h-4.1v1.7c0,.3,0,.5-.3.7-.2.1-.5.2-1,.2s-.5,0-.9,0l-.2-.5c.9,0,1.4,0,1.6,0s.1,0,.1,0c0,0,0-.1,0-.2v-1.8h-4.1v-.5h4.1v-.7c.8-.3,1.5-.7,2.1-1h-4.8v-.5h5.8v.5c-.7.4-1.6.9-2.5,1.3v.4h4.1v.5ZM105.3,73h-.5v-1.2h-7.2v1.2h-.5v-1.7h8.2v1.8ZM99.4,70.9l-.5.2c-.3-.6-.7-1.1-1.1-1.6l.5-.2c.5.6.9,1.2,1.1,1.6ZM101.8,70.8l-.5.2c-.3-.6-.6-1.2-1-1.6l.5-.2c.5.7.8,1.3.9,1.6ZM104.7,69.5c-.4.6-.8,1.1-1.2,1.6h0l-.4-.3c.4-.4.8-.9,1.2-1.5l.5.2Z"/>
    <path class="st3" d="M115.5,71.9h-3.9c1.1,2.3,2.4,4,3.9,5.1l-.4.4c-1.4-1-2.7-2.6-3.7-4.7v5.3h-.5v-5.3c-1.1,2.1-2.4,3.7-3.8,4.6l-.4-.4c1.5-1,2.8-2.7,4-5.1h-4v-.5h4.1v-2.1h.5v2.1h4.1v.5ZM114.8,70.7l-.4.4c-.4-.4-.9-.8-1.6-1.2l.4-.4c.6.3,1.1.7,1.6,1.2Z"/>
    <path class="st3" d="M121.8,73.5h-5.1v-.5h1.4c-.1-.6-.3-1.2-.6-1.8l.4-.3h-1v-.5h2.2c-.1-.3-.3-.6-.6-1l.5-.2c.2.3.4.7.6,1.2h1.9v.5h-1l.4.3c-.2.7-.4,1.3-.7,1.9h1.5v.5ZM121.2,78h-.5v-.7h-2.8v.7h-.5v-3.5h3.8v3.5ZM120.6,76.8v-1.8h-2.8v1.8h2.8ZM120.5,70.9h-2.5c.3.7.5,1.4.7,2.1h1.1c.3-.6.5-1.3.7-2.1ZM124.3,73.1c.7.8,1,1.7,1,2.5s-.1.7-.3.9c-.2.2-.6.3-1.2.3s-.2,0-.3,0v-.5s.2,0,.4,0,.5,0,.6,0c.1,0,.2-.1.3-.2,0-.1.1-.3.1-.5,0-.7-.4-1.5-1.1-2.3.4-1,.7-2,.9-3.1h-1.9v7.9h-.5v-8.4h2.9v.5c-.3,1.1-.6,2.1-.9,3Z"/>
    <path class="st3" d="M128.8,70.6l-.4.3c-.4-.5-.9-.9-1.5-1.4l.4-.4c.5.4,1,.9,1.5,1.4ZM127.6,78h-.5v-6.9h.5v6.9ZM134.9,77.4c0,.1,0,.2-.1.3,0,.1-.2.2-.3.2-.1,0-.4,0-.9,0s-.4,0-.6,0v-.5c.5,0,.9,0,1.1,0,.2,0,.3,0,.3-.2v-7.3h-5.1v-.5h5.6v7.9Z"/>
    <path class="st3" d="M142.5,69.9l-3.6,8.8h-.8l3.6-8.8h.8Z"/>
    <path class="st3" d="M148.7,70.2h-1.3c-.2.9-.4,1.7-.7,2.5h1.8v4.5h-.5v-.5h-1.2v.6h-.5v-3.6c-.2.3-.4.6-.6.8l-.4-.4c.8-.9,1.3-2.2,1.6-3.8h-1.5v-.5h3.3v.5ZM148,76.1v-2.9h-1.2v2.9h1.2ZM154.1,73.4h-1.3v4.6h-.5v-4.6h-1.6c0,1.3-.1,2.2-.4,2.9s-.6,1.2-1.1,1.7l-.4-.4c.5-.5.9-1.1,1.1-1.7.2-.6.3-1.5.3-2.5h-1.2v-.5h1.2v-2.9h-1v-.5h4.8v.5h-1.1v2.9h1.3v.5ZM152.2,72.9v-2.9h-1.6v2.9h1.6Z"/>
    <path class="st3" d="M164,75.8c0,.8-.1,1.3-.2,1.5,0,.2-.2.3-.4.4-.1,0-.5.1-1.1.1s-.9,0-1-.2c-.1-.1-.2-.3-.2-.6v-2.4h-2.1c-.2,1.5-1.3,2.7-3.4,3.3l-.4-.5c1.9-.5,3-1.4,3.2-2.9h-2.4v-.5h2.5c0-.3,0-.8,0-1.3h.5c0,.5,0,1,0,1.3h2.6v2.9c0,.1,0,.2,0,.2,0,0,.3,0,.8,0s.5,0,.6,0,.2-.2.2-.3c0-.2,0-.6.1-1.3l.5.2ZM163.6,72.1h-.5v-1.4h-2.1v1.7c0,0,0,.1,0,.2,0,0,.1,0,.2,0h2.1v.5h-2.1c-.5,0-.8-.3-.8-.9v-1.6h-1.5c0,.7-.3,1.3-.8,1.8s-1.3.9-2.6,1.1l-.3-.5c2-.3,3.1-1.1,3.2-2.4h-2.3v1.3h-.5v-1.8h3.7c-.1-.3-.3-.5-.5-.8l.6-.2c.2.3.4.7.6,1h3.7v1.9Z"/>
    <path class="st3" d="M169.3,69.7c-1,.4-1.9.7-3,.8v1.2h2.6v2.9h-2.6c0,1.4-.4,2.6-.8,3.3l-.4-.3c.5-.9.7-2.1.7-3.4v-4.2c1.4-.1,2.4-.4,3.3-.8l.2.5ZM168.5,74.1v-1.9h-2.1v1.9h2.1ZM173.9,72.9h-1.1v5.1h-.5v-5.1h-1.8c0,1.4-.1,2.4-.3,3s-.6,1.4-1.1,2.1l-.4-.3c.6-.8.9-1.5,1.1-2.2.2-.6.2-1.5.2-2.5v-3.1c1.4,0,2.5-.3,3.5-.7l.3.5c-.9.4-2,.6-3.3.7v2h3.4v.5Z"/>
    <path class="st3" d="M181.1,69.9l-3.6,8.8h-.8l3.6-8.8h.8Z"/>
    <path class="st3" d="M192.7,75.5h-4.1v1.7c0,.3,0,.5-.3.7-.2.1-.5.2-1,.2s-.5,0-.9,0l-.2-.5c.9,0,1.4,0,1.6,0s.1,0,.1,0c0,0,0-.1,0-.2v-1.8h-4.1v-.5h4.1v-.7c.8-.3,1.5-.7,2.1-1h-4.8v-.5h5.8v.5c-.7.4-1.6.9-2.5,1.3v.4h4.1v.5ZM192.5,73h-.5v-1.2h-7.2v1.2h-.5v-1.7h8.2v1.8ZM186.5,70.9l-.5.2c-.3-.6-.7-1.1-1.1-1.6l.5-.2c.5.6.9,1.2,1.1,1.6ZM189,70.8l-.5.2c-.3-.6-.6-1.2-1-1.6l.5-.2c.5.7.8,1.3.9,1.6ZM191.8,69.5c-.4.6-.8,1.1-1.2,1.6h0l-.4-.3c.4-.4.8-.9,1.2-1.5l.5.2Z"/>
    <path class="st3" d="M197.9,69.6c-.4.2-.9.4-1.6.5v1.6h1.5v.5h-1.5v.5c.6.6,1.1,1.2,1.5,1.7l-.4.4c-.3-.5-.7-1-1.1-1.4v4.5h-.5v-4.7c-.4.9-1,1.7-1.6,2.5l-.4-.4c.9-1,1.5-2.1,1.9-3.1h-1.9v-.5h1.9v-1.5c-.3,0-.8.1-1.5.3l-.3-.5c1.3-.1,2.5-.4,3.5-.8l.3.4ZM202.7,75.3l-1,.2v2.5h-.5v-2.4l-3.3.5v-.5s3.3-.5,3.3-.5v-5.8h.5v5.7h1c0-.1,0,.4,0,.4ZM200.3,74l-.4.4c-.4-.6-1-1.2-1.8-1.8l.3-.4c.8.6,1.4,1.1,1.9,1.8ZM200.6,71.3l-.3.4c-.6-.6-1.2-1.1-1.8-1.6l.3-.4c.6.4,1.2.9,1.8,1.5Z"/>
    <path class="st3" d="M209.8,69.9l-3.6,8.8h-.8l3.6-8.8h.8Z"/>
    <path class="st3" d="M221.4,75.3h-3.6c-.8,1.4-2.4,2.3-4.7,2.7l-.3-.4c2-.4,3.5-1.2,4.4-2.3h-4.3v-.5h4.5c.3-.9.4-2.1.4-3.6h.5c0,1.3-.1,2.5-.4,3.6h3.4v.5ZM221.2,72.1h-.5v-1.3h-7.1v1.3h-.5v-1.8h3.9c-.1-.3-.3-.7-.5-1l.5-.2c.2.4.4.8.6,1.2h3.6v1.8ZM216.5,73.9l-.3.4c-.7-.3-1.5-.6-2.5-.9l.3-.5c1,.3,1.8.6,2.5.9ZM217.1,72.5l-.3.4c-.7-.4-1.5-.8-2.4-1l.2-.5c1,.3,1.8.7,2.5,1.1ZM221.5,77.7l-.3.4c-.8-.6-1.8-1.3-3.1-1.9l.4-.4c1.3.7,2.3,1.3,3.1,1.9Z"/>
    <path class="st3" d="M225.1,75.5c-.8.3-1.6.5-2.3.8l-.2-.5c.9-.2,1.6-.5,2.4-.7v.5ZM225.9,73.4c0,.9,0,1.7,0,2.6,0,.8-.1,1.3-.2,1.4,0,.1-.1.3-.3.4s-.4.1-.9.2h-.6l-.2-.5c.3,0,.6,0,.8,0,.3,0,.6,0,.6,0s.1-.1.1-.2c0,0,0-.5.1-1.3,0-.7,0-1.4,0-2h-2.4l.2-3.4h.5s-.2,2.9-.2,2.9h1.3l.2-3.5h-2.4v-.5h2.9l-.3,3.9h.5ZM231.5,72.3l-.3.4c-1.2-.9-2-1.8-2.5-2.6-.6.8-1.3,1.7-2.3,2.5l-.4-.4c1.3-1,2.1-2.1,2.7-3.1l.5.2c0,0,0,.2-.1.3.4.9,1.3,1.8,2.5,2.7ZM231.4,77.8h-5.3v-.5h3.1c.5-1.2.9-2.5,1.2-3.9h.5c-.4,1.6-.8,2.9-1.2,3.9h1.6v.5ZM227.6,76.6h-.5c-.1-.8-.4-1.9-.8-3h.5c.4,1.1.7,2.1.8,3ZM230.2,72.8h-3v-.5h3v.5ZM229.1,76.5h-.5c0-.8-.2-1.9-.5-3.1h.5c.3,1.2.4,2.2.5,3.1Z"/>
    <path class="st3" d="M241.2,77.7h-8.7v-.5h4.1v-1.4h-3.5v-.5h3.5v-1.1c-1.2,0-2.3.1-3.2.2v-.5c.8-.4,1.7-1,2.5-1.8h-2.1v-.5h6.1v.5h-3.4c-.6.7-1.3,1.3-2.2,1.8,1.3,0,2.9-.1,4.7-.4-.3-.2-.6-.5-1.1-.7l.4-.3c1,.6,1.8,1.2,2.3,1.8l-.4.4c-.2-.2-.4-.4-.6-.6l-2.6.2v1.2h3.5v.5h-3.5v1.4h4.1v.5ZM240.9,71.9h-.5v-1.3h-7v1.3h-.5v-1.8h3.8c0-.1-.2-.4-.4-.8l.5-.2c.2.3.3.6.5,1h3.6v1.8Z"/>
    <path class="st3" d="M244.1,78l2.6-8h.8l-2.6,8h-.7Z"/>
    <path class="st3" d="M17.8,87h-3.5v3h-.5v-3h-3.5v-4h3.5v-1.8h.5v1.8h3.5v4ZM13.8,86.5v-2.9h-3v2.9h3ZM17.3,86.5v-2.9h-3v2.9h3Z"/>
    <path class="st3" d="M21.4,84.6c-.4,1.8-.9,3.3-1.4,4.3l-.5-.3c.6-1,1-2.4,1.3-4.1l.5.2ZM26.4,87.1c0,.6,0,1.2-.2,1.6,0,.4-.2.7-.3.8-.1.1-.2.2-.4.3-.2,0-.6,0-1.2,0s-.8,0-1.2,0c-.3,0-.5,0-.7-.2-.1-.1-.2-.3-.2-.5v-5.6h.5v5.4c0,0,0,.2,0,.2,0,0,.1.1.2.1,0,0,.3,0,.8,0h1.3c.1,0,.2,0,.3-.1.1,0,.2-.4.2-.9,0-.5,0-1,0-1.4l.6.2ZM25.4,83.9l-.4.4c-.5-.9-1.3-1.8-2.3-2.7l.4-.4c.9.9,1.7,1.8,2.3,2.7ZM28.3,88.3l-.6.2c-.2-1.1-.8-2.4-1.5-3.8l.5-.3c.8,1.5,1.3,2.8,1.6,3.9Z"/>
    <path class="st3" d="M35.5,81.9l-3.6,8.8h-.8l3.6-8.8h.8Z"/>
    <path class="st3" d="M47.2,86.8l-.3.5c-.4-.5-.9-1-1.5-1.4,0,1.5-.1,2.5-.2,3,0,.5-.3.8-.5,1-.2.2-.7.2-1.3.2s-.5,0-.7,0l-.2-.5c.3,0,.6,0,.9,0,.5,0,.8,0,.9,0,.1,0,.2-.1.3-.3,0-.1.1-.4.2-1,0-.6.1-1.3.2-2.3,0-.9,0-1.7,0-2.3h-2.7c0,1.5-.3,2.7-.8,3.7-.5,1-1.4,1.9-2.7,2.8l-.4-.4c.9-.5,1.7-1.2,2.3-2.1.6-.9,1-2.2,1-3.9h-3.1v-.5h3.1c0-.5,0-1.1,0-1.9h.5c0,.6,0,1.2,0,1.9h3.2c0,.9,0,1.6,0,2.1.8.7,1.4,1.2,1.8,1.6ZM40.5,84.7c-.5,1.2-1,2-1.5,2.6l-.5-.3c.6-.7,1.1-1.5,1.5-2.5l.5.2Z"/>
    <path class="st3" d="M57,87.2h-.8v1.3h-3.3v.8c0,.3,0,.4-.2.5-.2,0-.5.1-1.1.1s-.4,0-.6,0l-.2-.5h1.3c.2,0,.3,0,.3-.3v-.7h-3.5v-.4h3.5v-.8h-4.1v-.5h4.1v-.7h-3.5v-.5h3.5v-.7h-3.2v-1.7h3.2v-.7h-4v-.5h4v-.7h.5v.7h4v.5h-4v.7h3.2v1.7h-3.2v.7h3.3v1.2h.8v.5ZM52.4,84.3v-.7h-2.7v.7h2.7ZM55.6,84.3v-.7h-2.7v.7h2.7ZM55.7,86.7v-.7h-2.8v.7h2.8ZM55.7,88v-.8h-2.8v.8h2.8Z"/>
    <path class="st3" d="M67,89.3l-.2.5c-1.7,0-2.9-.2-3.8-.6-.9-.3-1.5-.9-2-1.5-.7.9-1.5,1.7-2.5,2.3l-.4-.4c1.1-.7,1.9-1.5,2.5-2.4-.3-.5-.7-1.3-1.2-2.6-.3.7-.6,1.3-.9,1.9l-.4-.3c.8-1.3,1.3-2.9,1.7-5h.5c0,.5-.2,1-.3,1.5h2.5c-.1,1.8-.5,3.3-1.3,4.6.5.7,1.1,1.2,2,1.5.8.3,2.1.5,3.8.5ZM62,83.2h-2c0,.3-.1.5-.2.6.3,1.1.7,2.1,1.2,3,.6-1.1.9-2.3,1-3.6ZM66.9,87.7l-.4.3c-1-1-1.7-2.4-2.2-4-.4,1.6-1,2.9-2,3.8l-.4-.4c.7-.6,1.2-1.4,1.6-2.3.4-.9.6-2.2.7-3.9h.5v1.6c-.1.1,0,.6.2,1.3.2.7.5,1.3.8,1.9.3.6.7,1.1,1.1,1.6Z"/>
  </g>
  <g>
    <path class="st3" d="M18.4,112.4c0,.7-.2,1.2-.4,1.3-.2.2-.4.2-.7.2-1.8,0-2.9,0-3.1,0-.2,0-.4,0-.5-.2-.1-.1-.2-.3-.2-.5v-1.7h-3.5v-4.6h3.5v-1.6h.6v1.6h3.4v4.6h-3.4v1.7c0,.1.1.2.3.2.2,0,.7,0,1.5,0s1.5,0,1.6,0c.1,0,.2-.5.3-1.2l.5.2ZM13.6,108.9v-1.5h-2.9v1.5h2.9ZM13.6,111v-1.5h-2.9v1.5h2.9ZM17,108.9v-1.5h-2.9v1.5h2.9ZM17,111v-1.5h-2.9v1.5h2.9Z"/>
    <path class="st3" d="M22.6,112.1c-.4.4-1,.8-1.6,1.2l-.3-.4c0,0,0-.2,0-.2v-4.2h-1.2v-.5h1.7v4.5c.3-.2.7-.5,1.2-.9l.2.5ZM21.8,106.8l-.4.3c-.3-.5-.7-1.1-1.3-1.7l.4-.3c.6.6,1.1,1.2,1.4,1.7ZM28.3,108.4h-2.9v1.7h2.1v3.9h-.5v-.7h-3.7v.7h-.5v-3.9h2.1v-1.7h-2.9v-.5h2.9v-1.8c-.7,0-1.5.1-2.4.2l-.2-.5c1.9,0,3.6-.3,5.2-.6l.3.4c-.8.2-1.7.3-2.4.4v1.9h2.9v.5ZM27,112.7v-2.2h-3.7v2.2h3.7Z"/>
    <path class="st3" d="M38.2,109.6h-5.8c0,.3-.2.6-.3,1h4.9c0,.6-.1,1.2-.2,1.8-.1.5-.2.9-.3,1s-.2.3-.4.4-.3.1-.5.2-.5,0-1.1,0-.4,0-.6,0l-.2-.5c.3,0,.6,0,.9,0,.6,0,1,0,1.1,0,0,0,.2-.1.3-.2,0-.1.2-.4.2-.7,0-.4.1-.8.2-1.3h-5c.2-.6.4-1.1.5-1.5h-2.4v-.5h8.7v.5ZM36.6,108.2h-5.5v-2.7h5.5v2.7ZM36,107.7v-1.7h-4.4v1.7h4.4Z"/>
    <path class="st3" d="M42.7,106.2h-1.3c-.2.9-.4,1.7-.7,2.5h1.8v4.8h-.5v-.6h-1.2v.7h-.5v-4.1c-.2.4-.4.7-.6.9l-.3-.4c.8-1.1,1.3-2.4,1.5-3.8h-1.3v-.5h3.2v.5ZM41.9,112.4v-3.2h-1.2v3.2h1.2ZM46.7,111.6h-3.9v-.5h3.9v.5ZM48,109.1c0,1.1,0,2-.2,2.8,0,.8-.1,1.3-.2,1.5,0,.2-.2.3-.4.4-.2,0-.6.1-1.2.1s-.3,0-.5,0l-.2-.5c1.1,0,1.6,0,1.7,0,0,0,.1,0,.2-.1,0,0,.1-.5.2-1.3,0-.8.1-1.6.1-2.3h-4.2l.4-3.2h.5c0,0-.3,2.7-.3,2.7h2.6l.4-3.1h-3.7v-.5h4.2l-.4,3.6h1Z"/>
    <path class="st3" d="M55.3,105.9l-3.6,8.8h-.8l3.6-8.8h.8Z"/>
    <path class="st3" d="M66.9,113.8h-8.7v-.5h1.6v-5.6h2.1c.1-.2.2-.5.4-.9h-3.8v-.5h4c.2-.5.3-.8.3-1.1h.5c-.1.6-.2.9-.3,1.1h3.8v.5h-4c0,.2-.2.5-.4.9h3v5.6h1.5v.5ZM64.8,109.1v-.9h-4.5v.9h4.5ZM64.8,110.5v-.9h-4.5v.9h4.5ZM64.8,111.9v-.9h-4.5v.9h4.5ZM64.8,113.3v-.9h-4.5v.9h4.5Z"/>
    <path class="st3" d="M71.5,112.6c-.9.4-2,.8-3.2,1.2l-.2-.5c.7-.2,1.8-.6,3.2-1.2l.2.5ZM71.6,107.2c-.9,1.7-1.8,3.1-2.6,4.1.6-.1,1.4-.4,2.3-.7l.2.4c-.8.3-1.8.7-3.1,1l-.2-.4c.7-.9,1.4-1.9,2-2.8-.6.2-1.2.3-1.7.4l-.2-.5c.7-1.1,1.3-2.2,1.7-3.3l.5.2c-.4,1-.9,2-1.6,3,.5,0,1-.2,1.6-.4l.6-1.1.5.2ZM76.9,112.2c-.1.5-.3.8-.4,1.2-.2.3-.3.5-.4.6-.1,0-.2,0-.4,0-.5,0-1-.5-1.5-1.5-.9.6-1.9,1.1-2.9,1.4l-.3-.4c1.2-.4,2.2-.8,3-1.4-.2-.7-.4-1.4-.5-2.3l-2,.2v-.5c0,0,1.9-.2,1.9-.2,0-.6-.1-1.1-.1-1.5l-1.5.2v-.5c0,0,1.4-.2,1.4-.2v-2s.5,0,.5,0c0,1,0,1.7,0,2l2.7-.3v.5c0,0-2.6.3-2.6.3,0,.4,0,.9.1,1.5l2.9-.3v.5c0,0-2.8.3-2.8.3,0,.7.2,1.4.4,1.9.4-.4.9-.9,1.5-1.5l.4.3c-.6.7-1.1,1.3-1.7,1.7.2.5.5.8.6,1,.2.2.3.3.4.3s.1,0,.2,0c0,0,.1-.2.2-.4.1-.2.2-.6.4-1.1l.5.2ZM76.1,106.4l-.3.4c-.4-.4-.8-.7-1.2-.9l.4-.4c.4.3.8.6,1.1.9Z"/>
    <path class="st3" d="M84,105.9l-3.6,8.8h-.8l3.6-8.8h.8Z"/>
    <path class="st3" d="M89.3,105.4c0,.3-.2.8-.4,1.3l-.3.7v6.6h-.5v-5.5c-.2.5-.5.9-.8,1.4l-.3-.4c.8-1.1,1.4-2.5,1.9-4.2h.5ZM95.6,108.9h-4.3c-.1.5-.3,1-.4,1.4h3.9v.5c-.5.7-1.1,1.4-1.9,2,.4.3.9.6,1.2.9l-.4.4c-1-.8-2.1-1.6-3.5-2.3l.3-.4c.7.3,1.3.7,1.9,1.1.7-.6,1.2-1.1,1.7-1.7h-3.8v-.5c.1-.3.3-.8.4-1.4h-1.9v-.5h2c.1-.4.3-.8.4-1.4h-1.9v-.5h2c.2-.6.3-1,.4-1.4h.5c0,.5-.2.9-.3,1.4h3.2v.5h-3.4c-.1.5-.3.9-.4,1.4h4.1v.5Z"/>
    <path class="st3" d="M105.6,112.2h-8.7v-.5h1.3v-4.6h2.1c0-.1.2-.3.3-.7h-3.6v-.5h3.8c0-.2.2-.5.3-.7h.5c0,.1-.2.7-.2.7h4.1v.5h-4.3l-.3.7h3.4v4.6h1.3v.5ZM100.4,112.9c-.9.5-2,.9-3.1,1.2l-.3-.5c1.1-.3,2.1-.7,3-1.1l.4.4ZM103.7,108.2v-.7h-5v.7h5ZM103.7,109.4v-.7h-5v.7h5ZM103.7,110.6v-.7h-5v.7h5ZM103.7,111.7v-.7h-5v.7h5ZM105.6,113.7l-.4.5c-.9-.4-1.9-.8-3.2-1.2l.4-.5c1.2.3,2.2.7,3.2,1.2Z"/>
    <path class="st3" d="M115.4,109.6h-5.8c0,.3-.2.6-.3,1h4.9c0,.6-.1,1.2-.2,1.8-.1.5-.2.9-.3,1s-.2.3-.4.4-.3.1-.5.2-.5,0-1.1,0-.4,0-.6,0l-.2-.5c.3,0,.6,0,.9,0,.6,0,1,0,1.1,0,0,0,.2-.1.3-.2,0-.1.2-.4.2-.7,0-.4.1-.8.2-1.3h-5c.2-.6.4-1.1.5-1.5h-2.4v-.5h8.7v.5ZM113.8,108.2h-5.5v-2.7h5.5v2.7ZM113.3,107.7v-1.7h-4.4v1.7h4.4Z"/>
    <path class="st3" d="M120,106.2h-1.3c-.2.9-.4,1.7-.7,2.5h1.8v4.8h-.5v-.6h-1.2v.7h-.5v-4.1c-.2.4-.4.7-.6.9l-.3-.4c.8-1.1,1.3-2.4,1.5-3.8h-1.3v-.5h3.2v.5ZM119.2,112.4v-3.2h-1.2v3.2h1.2ZM124,111.6h-3.9v-.5h3.9v.5ZM125.2,109.1c0,1.1,0,2-.2,2.8,0,.8-.1,1.3-.2,1.5,0,.2-.2.3-.4.4-.2,0-.6.1-1.2.1s-.3,0-.5,0l-.2-.5c1.1,0,1.6,0,1.7,0,0,0,.1,0,.2-.1,0,0,.1-.5.2-1.3,0-.8.1-1.6.1-2.3h-4.2l.4-3.2h.5c0,0-.3,2.7-.3,2.7h2.6l.4-3.1h-3.7v-.5h4.2l-.4,3.6h1Z"/>
    <path class="st3" d="M132.6,105.9l-3.6,8.8h-.8l3.6-8.8h.8Z"/>
    <path class="st3" d="M144.2,112.4c0,.7-.2,1.2-.4,1.3-.2.2-.4.2-.7.2-1.8,0-2.9,0-3.1,0-.2,0-.4,0-.5-.2-.1-.1-.2-.3-.2-.5v-1.7h-3.5v-4.6h3.5v-1.6h.6v1.6h3.4v4.6h-3.4v1.7c0,.1.1.2.3.2.2,0,.7,0,1.5,0s1.5,0,1.6,0c.1,0,.2-.5.3-1.2l.5.2ZM139.4,108.9v-1.5h-2.9v1.5h2.9ZM139.4,111v-1.5h-2.9v1.5h2.9ZM142.8,108.9v-1.5h-2.9v1.5h2.9ZM142.8,111v-1.5h-2.9v1.5h2.9Z"/>
    <path class="st3" d="M150.2,113.7h-.5v-.5h-3.5v.5h-.5v-6.9h2v-1.6h.5v1.6h2v6.9ZM147.7,109.6v-2.3h-1.5v2.3h1.5ZM147.7,112.7v-2.6h-1.5v2.6h1.5ZM149.7,109.6v-2.3h-1.5v2.3h1.5ZM149.7,112.7v-2.6h-1.5v2.6h1.5ZM152.7,108.8c.8.7,1.2,1.6,1.2,2.6s-.1.9-.3,1.1c-.2.2-.6.4-1.2.4s-.2,0-.4,0l-.2-.5c.3,0,.5,0,.7,0,.3,0,.6,0,.7-.2.1-.1.2-.4.2-.8,0-1-.4-1.8-1.3-2.5.5-.9.8-1.9,1.2-2.9h-1.9v8h-.5v-8.5h2.9v.5c-.3.9-.7,1.8-1.1,2.8Z"/>
    <path class="st3" d="M161.3,105.9l-3.6,8.8h-.8l3.6-8.8h.8Z"/>
    <path class="st3" d="M172.4,113.2c0,.2,0,.4-.2.5-.1.1-.2.2-.4.2-.2,0-.4,0-.8,0s-.4,0-.7,0l-.2-.6c.4,0,.6,0,.9,0,.4,0,.7,0,.8,0,0,0,.1-.2.1-.3v-7h-6.8v7.9h-.5v-8.5h7.8v7.6ZM168.7,111.6l-.4.3c-.2-.5-.5-1.1-1-1.7-.4,1.3-.9,2.3-1.3,3l-.5-.3c.6-.9,1.1-2,1.5-3.3-.3-.6-.8-1.3-1.3-2l.4-.3c.4.5.7,1.1,1.1,1.7.2-.8.4-1.6.5-2.4h.5c-.2,1.3-.4,2.2-.6,3,.5.8.9,1.5,1.2,2.1ZM171.5,111.6l-.4.3c-.4-.7-.7-1.3-1-1.8-.5,1.3-.9,2.3-1.4,3l-.5-.3c.5-.8,1-1.9,1.5-3.3-.4-.6-.8-1.3-1.4-2l.4-.3c.5.6.9,1.1,1.2,1.7.2-.6.4-1.5.5-2.4h.5c-.1,1-.3,1.9-.7,3,.5.8.9,1.5,1.2,2.1Z"/>
    <path class="st3" d="M178.8,109.9c0,1.3-.4,2.2-1.3,2.9-.8.6-1.9,1-3.2,1.2l-.2-.5c1.4-.2,2.5-.6,3.1-1.2.7-.6,1-1.4,1-2.4v-1.3h.5v1.3ZM182.7,106h-3.8c0,.3-.2.8-.4,1.4h2.9v4.5h-.5v-4h-4.9v4h-.5v-4.5h2.5c.1-.3.3-.8.4-1.4h-4.2v-.5h8.5v.5ZM182.8,113.7l-.3.4c-1.2-.7-2.4-1.4-3.7-1.9l.2-.4c1.5.6,2.7,1.2,3.8,1.9Z"/>
  </g>
  <g>
    <path class="st3" d="M18.4,137.8l-.4.4c-1.1-.7-1.9-1.5-2.6-2.4-.6-.9-1.1-2-1.4-3.4-.4,2.3-1.8,4.2-4.1,5.7l-.3-.5c.6-.4,1.2-.8,1.7-1.3s1-1.1,1.4-1.7c.4-.6.6-1.4.8-2.4h-3.7v-.5h3.8c.1-.8.2-1.6.2-2.4h.6c0,.9,0,1.7-.2,2.4h4.1v.5h-3.7c.4,1.4.9,2.5,1.5,3.4.6.8,1.4,1.5,2.4,2.1Z"/>
    <path class="st3" d="M28.3,135.6h-4.1v1.7c0,.3,0,.5-.3.7-.2.1-.5.2-1,.2s-.5,0-.9,0l-.2-.5c.9,0,1.4,0,1.6,0s.1,0,.1,0c0,0,0-.1,0-.2v-1.8h-4.1v-.5h4.1v-.7c.8-.3,1.5-.7,2.1-1h-4.8v-.5h5.8v.5c-.7.4-1.6.9-2.5,1.3v.4h4.1v.5ZM28.1,133.2h-.5v-1.2h-7.2v1.2h-.5v-1.7h8.2v1.8ZM22.1,131l-.5.2c-.3-.6-.7-1.1-1.1-1.6l.5-.2c.5.6.9,1.2,1.1,1.6ZM24.5,131l-.5.2c-.3-.6-.6-1.2-1-1.6l.5-.2c.5.7.8,1.3.9,1.6ZM27.4,129.7c-.4.6-.8,1.1-1.2,1.6h0l-.4-.3c.4-.4.8-.9,1.2-1.5l.5.2Z"/>
    <path class="st3" d="M38,130.7h-6.8c-.5.4-.9.8-1.4,1.1l-.3-.4c1-.6,1.7-1.3,2.2-2.1l.5.2c-.2.3-.3.5-.5.7h6.3v.5ZM38.2,137.7l-.2.5c-1.6-.1-3-.4-4.1-.9-1.3.4-2.7.8-4.1.9l-.2-.4c1.2-.1,2.5-.4,3.8-.7-.7-.4-1.3-.8-1.8-1.2-.4.3-1,.5-1.6.8l-.3-.4c.5-.2,1-.4,1.5-.7-.2-.2-.4-.4-.5-.5l.4-.3c0,0,.3.3.5.5.4-.3.8-.6,1-.9h-1.6v-3h6.2v3h-4.3l.3.2c-.1.2-.3.4-.6.6h4.7v.5c-.8.6-1.6,1.1-2.6,1.5.9.3,2.1.6,3.6.7ZM36.6,132.6v-.8h-5.1v.8h5.1ZM36.6,133.8v-.8h-5.1v.8h5.1ZM36.4,135.5h-4.4c.5.5,1.2.9,2,1.2,1-.4,1.8-.8,2.5-1.2Z"/>
    <path class="st3" d="M48.2,132.3l-.3.4c-1.7-.7-3-1.6-4.1-2.7-.9.9-2.3,1.8-4,2.7l-.3-.4c1.8-.8,3.3-1.8,4.4-3l.5.2c0,0,0,.1-.1.2,1,1.1,2.4,1.9,4.1,2.6ZM46.9,138.2h-.5v-.7h-5.2v.7h-.5v-4h6.3v4ZM46.4,137v-2.3h-5.2v2.3h5.2ZM46.4,132.8h-5.2v-.5h5.2v.5Z"/>
    <path class="st3" d="M58,136c-.3,1.5-.7,2.3-1.3,2.3s-.3,0-.4-.1c-.1,0-.3-.3-.5-.6s-.4-.7-.6-1.2c-.2-.5-.3-1.2-.4-2,0-.9-.2-1.8-.2-2.6h-5.2v-.5h5.2c0-.7,0-1.3,0-1.7h.5c0,.8,0,1.4,0,1.7h2.9v.5h-2.9c0,.7.1,1.6.2,2.8s.4,2,.7,2.5c.3.5.6.8.7.8s.3-.2.5-.7c.2-.5.3-.9.3-1.3l.5.3ZM54.3,136.4c-1.6.4-3.1.7-4.6,1v-.5c.4,0,1.1-.2,1.9-.4v-2.9h-1.8v-.5h4.1v.5h-1.9v2.8c.8-.2,1.5-.3,2.1-.5v.5ZM57.6,130.6l-.4.3c-.4-.4-.8-.8-1.1-1.1l.4-.3c.3.2.7.6,1.1,1.1Z"/>
    <path class="st3" d="M62.8,134.1l-.4.4c-.3-.4-.6-.9-1.1-1.4v5h-.5v-5.2c-.5,1-.9,1.8-1.3,2.4l-.4-.4c.6-.9,1.1-1.9,1.7-3.2h-1.5v-.5h1.5v-1.9h.5v1.9h1.3v.5h-1.3v.6c.5.5,1,1.1,1.4,1.6ZM64.2,134c-.5,1.3-1.1,2.4-1.7,3.2l-.4-.3c.6-.8,1.1-1.8,1.6-3.1l.5.2ZM67.9,132.9h-2.5v4.6c0,.2,0,.4-.2.5s-.5.2-.9.2-.4,0-.6,0l-.2-.5c.2,0,.4,0,.7,0,.4,0,.6,0,.7,0s.1-.1.1-.2v-4.5h-2.5v-.5h5.5v.5ZM67.7,130.2h-4.8v-.5h4.8v.5ZM68.1,137l-.5.2c-.3-1-.8-2.1-1.4-3.3l.5-.2c.5,1,1,2.1,1.4,3.3Z"/>
    <path class="st3" d="M77.8,131.2h-4v1.8h3.4v.5h-7.4v-.5h3.4v-1.8h-4v-.5h4v-1.2h.5v1.2h4v.5ZM71,135.2c-.4,1-.8,1.9-1.3,2.6l-.5-.3c.6-.8,1-1.6,1.3-2.5l.5.2ZM75.9,136.3c0,.7-.1,1.2-.3,1.4-.1.2-.3.3-.6.4-.2,0-.6,0-1.1,0h-1.5c-.5,0-.8-.3-.8-1v-2.3h.5v2.5c0,.1,0,.2.1.3,0,0,.6,0,1.4,0s1.2,0,1.3,0c0,0,.2,0,.2-.2,0-.1.1-.5.2-1.2l.5.2ZM74.6,135.8l-.4.3c-.3-.6-.8-1.2-1.4-1.8l.4-.3c.6.6,1.1,1.2,1.4,1.8ZM77.8,137.4l-.4.3c-.2-.6-.7-1.3-1.5-2.3l.4-.3c.5.7,1,1.4,1.5,2.3Z"/>
    <path class="st3" d="M83.1,139.4c-1.1-1.2-1.6-2.8-1.6-4.6s.5-3.4,1.6-4.7h.7c-1.1,1.3-1.7,2.9-1.7,4.7s.5,3.3,1.7,4.6h-.7Z"/>
    <path class="st3" d="M93.3,137.5v.5c-2.6,0-4.1,0-4.6,0-.6,0-1.1-.2-1.5-.4-.4-.2-.8-.6-1-.9-.5.7-.9,1.2-1.3,1.6l-.4-.3c.6-.5,1-1.2,1.5-1.8v-3.4h-1.4v-.5h1.9v4c.2.4.5.7.9.9s.8.4,1.3.4c.5,0,1.2,0,2.1,0s1.6,0,2.5,0ZM86.6,131l-.4.3c-.3-.4-.8-1-1.4-1.5l.4-.3c.4.4.9.9,1.4,1.5ZM93.3,135.4h-2.9v1.8h-.5v-1.8h-2.9v-.5h2.9v-1.3h-2.3v-.5c.3-.5.6-1.2,1-2h-1.4v-.5h1.6c.2-.4.3-.8.5-1.3l.5.2c-.2.5-.3.9-.4,1.1h3.7v.5h-3.9c-.3.7-.6,1.3-1,2h1.7v-1.5h.5v1.5h2.3v.5h-2.3v1.3h2.9v.5Z"/>
    <path class="st3" d="M97.8,136.7c-.9.5-2,.9-3.1,1.3l-.2-.5c.8-.2,1.9-.7,3.2-1.3l.2.5ZM97.7,131.3c-.8,1.6-1.5,2.9-2.3,4,.5-.1,1.2-.4,2.1-.8l.2.5c-1.3.5-2.3.9-2.9,1l-.2-.5c.6-.7,1.2-1.7,1.8-2.8-.5.1-1.1.3-1.6.4l-.2-.5c.6-.8,1.1-1.9,1.7-3.3l.5.2c-.5,1.3-1,2.3-1.5,3,.3,0,.8-.2,1.4-.3.1-.2.3-.6.5-1.1l.5.2ZM103.2,131.3h-2.5v1.6h2v.5h-4.6v-.5h2.1v-1.6h-2.4v-.5h2.4v-1.4h.5v1.4h2.5v.5ZM102.5,138.2h-.5v-.6h-3.1v.6h-.5v-3.6h4.1v3.6ZM102,137.1v-2.1h-3.1v2.1h3.1Z"/>
    <path class="st3" d="M113.1,137.9h-8.7v-.5h4.1v-2h-3.2v-.5h3.2v-1.2h.5v1.2h3.3v.5h-3.3v2h4.1v.5ZM112.9,130.2h-4c-.7,1.1-1.5,2-2.2,2.7,1.6,0,3-.2,4.4-.4-.4-.4-.7-.8-1.1-1.1l.5-.3c1,.9,1.7,1.8,2.3,2.6l-.4.3c-.2-.3-.5-.7-.8-1-1.9.2-3.9.4-5.8.5v-.4c.8-.5,1.7-1.5,2.6-2.9h-3.6v-.5h8.3v.5Z"/>
    <path class="st3" d="M122.7,132.5h-.5v-1.6h-6.9v1.5h-.5v-2.1h3.8c0-.3-.2-.6-.4-1h.5c.2.2.3.6.4,1h3.6v2.1ZM122.1,137.7h-5.9v.4h-.5v-6.2h5.9v2.3h-5.4v1h5.9v2.5ZM121.1,133.7v-1.3h-4.9v1.3h4.9ZM121.5,137.2v-1.5h-5.3v1.5h5.3Z"/>
    <path class="st3" d="M132.9,131.6h-5.4c0,.5,0,1.1,0,1.7h4.3c0,1,0,1.9-.2,2.7-.1.8-.2,1.4-.3,1.6-.1.2-.3.4-.4.5-.2,0-.6.1-1.3.1s-.4,0-.6,0l-.2-.6c.3,0,.6,0,.9,0,.5,0,.8,0,.9,0,0,0,.2-.1.2-.3,0-.1.1-.6.2-1.3,0-.7.2-1.5.2-2.2h-3.8c-.1,1.7-1.1,3.2-2.8,4.3l-.4-.4c.6-.3,1.2-.8,1.6-1.4.5-.6.8-1.2.9-1.8.1-.6.2-1.6.2-2.9h-2.6v-.5h4.2c-.3-.5-.6-1-1-1.4l.5-.2c.4.4.7,1,1.1,1.7h3.9v.5Z"/>
    <path class="st3" d="M142.3,137.3c0,.2,0,.4-.2.5-.1.1-.2.2-.4.2-.2,0-.4,0-.8,0s-.4,0-.7,0l-.2-.6c.4,0,.6,0,.9,0,.4,0,.7,0,.8,0,0,0,.1-.2.1-.3v-7h-6.8v7.9h-.5v-8.5h7.8v7.6ZM138.6,135.8l-.4.3c-.2-.5-.5-1.1-1-1.7-.4,1.3-.9,2.3-1.3,3l-.5-.3c.6-.9,1.1-2,1.5-3.3-.3-.6-.8-1.3-1.3-2l.4-.3c.4.5.7,1.1,1.1,1.7.2-.8.4-1.6.5-2.4h.5c-.2,1.3-.4,2.2-.6,3,.5.8.9,1.5,1.2,2.1ZM141.5,135.8l-.4.3c-.4-.7-.7-1.3-1-1.8-.5,1.3-.9,2.3-1.4,3l-.5-.3c.5-.8,1-1.9,1.5-3.3-.4-.6-.8-1.3-1.4-2l.4-.3c.5.6.9,1.1,1.2,1.7.2-.6.4-1.5.5-2.4h.5c-.1,1-.3,1.9-.7,3,.5.8.9,1.5,1.2,2.1Z"/>
    <path class="st3" d="M147.9,131.6h-.8l.4.3c-.1,1.3-.4,2.8-.8,4.6.2,0,.6-.2,1-.3v.6c-1.5.5-2.7.8-3.7,1v-.5c.1,0,.4-.1.9-.3,0-1.4-.2-3.1-.5-5.2l.4-.3h-.8v-.5h1.8c0-.4-.2-.9-.5-1.5l.5-.2c.3.6.5,1.2.6,1.7h1.5v.5ZM147.1,131.6h-2c.3,1.7.4,3.5.5,5.3.3,0,.4-.1.6-.2.5-2,.8-3.7.9-5.1ZM152.7,131.7h-2.6v2.3h2.2v4.2h-.5v-.7h-3.1v.7h-.5v-4.2h1.5v-4.6h.5v1.8h2.6v.5ZM151.8,137v-2.4h-3.1v2.4h3.1Z"/>
    <path class="st3" d="M153.4,139.4c1.1-1.3,1.6-2.8,1.6-4.6s-.6-3.3-1.7-4.7h.7c1.1,1.3,1.6,2.8,1.6,4.7s-.5,3.4-1.6,4.6h-.7Z"/>
  </g>
</svg>