<svg width="226" height="50" viewBox="0 0 226 50" fill="none" xmlns="http://www.w3.org/2000/svg">
<g clip-path="url(#clip0_124_5194)">
<path d="M120.4 16.5008V10.3008H110.9M110.9 10.3008V16.5008M110.9 10.3008H101.4V16.5008" stroke="#ED1C24" stroke-width="0.5" stroke-miterlimit="10"/>
<path d="M94.186 0.0367541V4.40039H93.6576V0.590732H93.632L92.5667 1.29812V0.761186L93.6576 0.0367541H94.186ZM96.9921 -0.167791L95.5858 5.05664H95.1256L96.5319 -0.167791H96.9921ZM99.0541 4.46005C98.7728 4.46005 98.5221 4.41175 98.3019 4.31516C98.0832 4.21857 97.9092 4.08434 97.7799 3.91246C97.6521 3.73917 97.5825 3.53817 97.5711 3.30948H98.108C98.1194 3.45011 98.1677 3.57156 98.2529 3.67383C98.3382 3.77468 98.4497 3.85281 98.5874 3.9082C98.7252 3.9636 98.8779 3.9913 99.0455 3.9913C99.233 3.9913 99.3992 3.95863 99.5441 3.89329C99.689 3.82795 99.8026 3.73704 99.885 3.62056C99.9674 3.50408 100.009 3.36914 100.009 3.21573C100.009 3.05522 99.9688 2.91388 99.8893 2.79173C99.8097 2.66815 99.6933 2.57156 99.5399 2.50195C99.3865 2.43235 99.199 2.39755 98.9774 2.39755H98.6279V1.9288H98.9774C99.1507 1.9288 99.3026 1.89755 99.4333 1.83505C99.5654 1.77255 99.6684 1.68448 99.7423 1.57085C99.8176 1.45721 99.8552 1.32369 99.8552 1.17028C99.8552 1.02255 99.8225 0.893998 99.7572 0.784623C99.6919 0.675248 99.5995 0.590021 99.4802 0.528942C99.3623 0.467862 99.2231 0.437322 99.0626 0.437322C98.912 0.437322 98.77 0.465021 98.6365 0.520419C98.5044 0.574396 98.3964 0.653232 98.3126 0.756925C98.2288 0.859197 98.1833 0.982777 98.1762 1.12766H97.6649C97.6734 0.89897 97.7423 0.698686 97.8715 0.526811C98.0008 0.353515 98.1698 0.218572 98.3786 0.121982C98.5889 0.0253905 98.8197 -0.022905 99.0711 -0.022905C99.341 -0.022905 99.5725 0.0317825 99.7657 0.141158C99.9589 0.249112 100.107 0.391868 100.211 0.569425C100.315 0.746982 100.367 0.938743 100.367 1.14471C100.367 1.39045 100.302 1.59996 100.173 1.77326C100.045 1.94656 99.8708 2.06658 99.6507 2.13335V2.16744C99.9262 2.21289 100.141 2.33008 100.296 2.519C100.451 2.7065 100.528 2.93874 100.528 3.21573C100.528 3.45295 100.464 3.66602 100.335 3.85494C100.207 4.04244 100.032 4.19016 99.8105 4.29812C99.5889 4.40607 99.3367 4.46005 99.0541 4.46005ZM103.42 0.0367541L104.545 1.8521H104.579L105.704 0.0367541H106.326L104.954 2.21857L106.326 4.40039H105.704L104.579 2.61914H104.545L103.42 4.40039H102.798L104.204 2.21857L102.798 0.0367541H103.42Z" fill="#231F20"/>
<path d="M116.186 0.136364V4.5H115.658V0.690341H115.632L114.567 1.39773V0.860795L115.658 0.136364H116.186ZM118.992 -0.0681821L117.586 5.15625H117.126L118.532 -0.0681821H118.992ZM121.054 4.55966C120.773 4.55966 120.522 4.51136 120.302 4.41477C120.083 4.31818 119.909 4.18395 119.78 4.01207C119.652 3.83878 119.582 3.63778 119.571 3.40909H120.108C120.119 3.54972 120.168 3.67116 120.253 3.77344C120.338 3.87429 120.45 3.95241 120.587 4.00781C120.725 4.06321 120.878 4.09091 121.046 4.09091C121.233 4.09091 121.399 4.05824 121.544 3.9929C121.689 3.92756 121.803 3.83665 121.885 3.72017C121.967 3.60369 122.009 3.46875 122.009 3.31534C122.009 3.15483 121.969 3.01349 121.889 2.89134C121.81 2.76776 121.693 2.67116 121.54 2.60156C121.386 2.53196 121.199 2.49716 120.977 2.49716H120.628V2.02841H120.977C121.151 2.02841 121.303 1.99716 121.433 1.93466C121.565 1.87216 121.668 1.78409 121.742 1.67045C121.818 1.55682 121.855 1.4233 121.855 1.26989C121.855 1.12216 121.823 0.993608 121.757 0.884233C121.692 0.774858 121.6 0.689631 121.48 0.628551C121.362 0.567472 121.223 0.536932 121.063 0.536932C120.912 0.536932 120.77 0.564631 120.636 0.620028C120.504 0.674006 120.396 0.752841 120.313 0.856534C120.229 0.958807 120.183 1.08239 120.176 1.22727H119.665C119.673 0.998579 119.742 0.798295 119.872 0.62642C120.001 0.453125 120.17 0.318182 120.379 0.221591C120.589 0.125 120.82 0.0767044 121.071 0.0767044C121.341 0.0767044 121.573 0.131392 121.766 0.240767C121.959 0.348721 122.107 0.491477 122.211 0.669034C122.315 0.846591 122.367 1.03835 122.367 1.24432C122.367 1.49006 122.302 1.69957 122.173 1.87287C122.045 2.04616 121.871 2.16619 121.651 2.23295V2.26705C121.926 2.3125 122.141 2.42969 122.296 2.61861C122.451 2.80611 122.528 3.03835 122.528 3.31534C122.528 3.55256 122.464 3.76562 122.335 3.95455C122.207 4.14205 122.032 4.28977 121.81 4.39773C121.589 4.50568 121.337 4.55966 121.054 4.55966ZM125.42 0.136364L126.545 1.9517H126.579L127.704 0.136364H128.326L126.954 2.31818L128.326 4.5H127.704L126.579 2.71875H126.545L125.42 4.5H124.798L126.204 2.31818L124.798 0.136364H125.42Z" fill="#231F20"/>
<path d="M12.9 21.5H7V49H12.9" stroke="#ED1C24" stroke-width="0.5" stroke-miterlimit="10"/>
<path d="M0.784091 32.8356L1.90909 34.6509H1.94318L3.06818 32.8356H3.69034L2.31818 35.0174L3.69034 37.1992H3.06818L1.94318 35.418H1.90909L0.784091 37.1992H0.161932L1.56818 35.0174L0.161932 32.8356H0.784091Z" fill="#231F20"/>
<path d="M225.9 20.9004H116.8V49.3004H225.9V20.9004Z" fill="#C6C6C6"/>
<path d="M40.2996 23.4992V24.5992H41.7996C41.1996 24.3992 40.6996 23.9992 40.2996 23.4992ZM38.4996 26.6992H41.4996V26.1992H38.4996V26.6992ZM41.4996 25.1992H38.4996V25.6992H41.4996V25.1992ZM38.2996 24.5992H39.6996V23.4992C39.2996 23.9992 38.8996 24.3992 38.2996 24.5992ZM42.0996 24.7992V27.4992H41.4996V27.1992H38.4996V27.4992H37.8996V24.8992C37.7996 24.8992 37.5996 24.9992 37.3996 25.0992L37.0996 24.5992C37.7996 24.3992 38.4996 24.0992 38.9996 23.5992H37.0996V23.0992H39.5996V22.5992C38.6996 22.5992 37.9996 22.5992 37.5996 22.5992L37.3996 21.9992C37.5996 21.9992 37.8996 21.9992 38.2996 21.9992C39.8996 21.9992 41.1996 21.9992 41.9996 21.6992L42.2996 22.1992C41.6996 22.2992 41.0996 22.3992 40.1996 22.4992V22.9992H42.7996V23.4992H40.7996C41.2996 23.9992 41.8996 24.2992 42.7996 24.3992L42.4996 24.9992C42.4996 24.9992 42.2996 24.9992 42.1996 24.9992C42.1996 24.9992 41.9996 24.9992 41.8996 24.8992" fill="#003875"/>
<path d="M47.8998 23.4992H48.9998V22.8992H47.8998V23.4992ZM47.9998 23.9992C47.9998 24.1992 47.7998 24.3992 47.5998 24.5992H49.1998C49.0998 24.3992 48.8998 24.2992 48.7998 23.9992H47.9998ZM47.4998 25.5992H48.8998V24.9992H47.4998V25.5992ZM46.4998 22.2992H47.2998V21.6992H47.8998V22.2992H48.9998V21.6992H49.5998V22.2992H50.5998V22.7992H49.5998V23.3992H50.6998V23.8992H49.4998C49.6998 24.1992 50.0998 24.5992 50.6998 24.8992L50.3998 25.3992C49.9998 25.1992 49.6998 24.9992 49.4998 24.6992V25.9992H47.4998V26.3992C47.4998 26.4992 47.4998 26.5992 47.6998 26.5992H49.4998C49.6998 26.5992 49.7998 26.5992 49.7998 26.3992C49.7998 26.2992 49.7998 25.9992 49.7998 25.6992L50.3998 25.8992C50.3998 26.4992 50.1998 26.7992 50.0998 26.8992C49.9998 26.9992 49.7998 27.0992 49.4998 27.0992H47.4998C47.1998 27.0992 47.0998 27.0992 46.8998 26.9992C46.7998 26.8992 46.6998 26.6992 46.6998 26.3992V24.9992C46.5998 24.9992 46.3998 25.1992 46.0998 25.3992L45.6998 24.8992C46.3998 24.5992 46.7998 24.1992 46.9998 23.8992H45.9998V23.3992H46.8998V22.7992H46.0998V22.4992L45.6998 22.9992C45.3998 22.6992 45.0998 22.4992 44.7998 22.2992L45.1998 21.7992C45.4998 21.9992 45.7998 22.1992 46.0998 22.3992L46.4998 22.2992ZM45.8998 24.4992C45.5998 24.1992 45.2998 23.9992 44.9998 23.7992L45.3998 23.2992C45.6998 23.4992 45.9998 23.6992 46.2998 23.8992L45.8998 24.3992V24.4992ZM46.2998 25.4992C46.0998 26.1992 45.8998 26.7992 45.4998 27.2992L44.9998 26.7992C45.3998 26.2992 45.5998 25.6992 45.6998 25.1992L46.1998 25.4992H46.2998Z" fill="#003875"/>
<path d="M56.8998 23.2992C56.3998 22.8992 56.0998 22.6992 55.7998 22.4992L56.1998 22.0992C56.4998 22.1992 56.7998 22.4992 57.2998 22.8992L56.8998 23.3992V23.2992ZM56.7998 24.7992C56.3998 24.3992 55.9998 24.1992 55.6998 23.9992L56.0998 23.5992C56.3998 23.7992 56.7998 23.9992 57.1998 24.3992L56.7998 24.8992V24.7992ZM55.3998 26.0992V25.4992L57.4998 25.1992V21.6992H58.0998V25.1992H58.6998V25.6992H58.0998V27.5992H57.4998V25.8992L55.3998 26.1992V26.0992ZM53.9998 22.4992C53.7998 22.4992 53.4998 22.4992 52.9998 22.5992V22.0992C53.7998 22.0992 54.5998 21.8992 55.1998 21.6992L55.3998 22.1992C55.0998 22.2992 54.7998 22.3992 54.4998 22.4992V23.3992H55.3998V23.8992H54.4998C54.9998 24.3992 55.2998 24.6992 55.4998 24.9992L55.1998 25.4992C55.0998 25.2992 54.9998 25.1992 54.7998 24.9992C54.6998 24.8992 54.5998 24.6992 54.4998 24.5992V27.4992H53.8998V24.9992C53.6998 25.3992 53.4998 25.8992 53.0998 26.3992L52.7998 25.7992C53.2998 25.1992 53.6998 24.5992 53.9998 23.8992H52.8998V23.3992H53.9998V22.5992V22.4992Z" fill="#003875"/>
<path d="M62.9998 23.5H62.2998V24.6C62.5998 24.5 62.8998 24.4 62.9998 24.3V24.9C62.8998 24.9 62.5998 25.1 62.2998 25.2V26.7C62.2998 27 62.2998 27.2 62.1998 27.3C62.1998 27.3 61.8998 27.4 61.5998 27.4H61.0998V26.8C60.9998 26.8 61.4998 26.8 61.4998 26.8C61.5998 26.8 61.6998 26.8 61.6998 26.6V25.3C61.3998 25.3 61.0998 25.5 60.8998 25.5V24.8C61.0998 24.8 61.3998 24.7 61.6998 24.6V23.4H60.7998V22.8H61.6998V21.5H62.2998V22.8H62.9998V22.4H64.2998V21.5H64.8998V22.4H66.3998V23H64.8998V23.8H66.0998V24.3C66.0998 24.5 65.8998 24.8 65.6998 25.2C65.4998 25.6 65.2998 25.8 64.9998 26C65.3998 26.3 65.8998 26.6 66.3998 26.7L66.0998 27.3C65.5998 27.1 65.0998 26.8 64.5998 26.4C63.9998 26.9 63.2998 27.2 62.6998 27.3L62.3998 26.7C62.9998 26.6 63.5998 26.3 64.1998 25.9C63.8998 25.6 63.5998 25.1 63.2998 24.6L63.7998 24.4C64.0998 24.9 64.3998 25.3 64.5998 25.6C64.9998 25.3 65.2998 24.8 65.4998 24.3H63.0998V23.7H64.2998V22.9H62.9998V23.3V23.5Z" fill="#003875"/>
<path d="M72.2996 23.8992C72.2996 24.3992 72.5996 24.8992 72.9996 25.4992C73.2996 25.9992 73.7996 26.4992 74.3996 26.8992L73.8996 27.4992C72.7996 26.7992 71.9996 25.5992 71.5996 23.8992C71.2996 25.3992 70.4996 26.5992 69.0996 27.4992L68.5996 26.8992C69.1996 26.5992 69.6996 26.0992 70.0996 25.5992C70.4996 25.0992 70.7996 24.4992 70.8996 23.8992H68.7996V23.1992H70.9996C70.9996 22.7992 70.9996 22.2992 70.9996 21.6992H71.5996C71.5996 22.3992 71.5996 22.8992 71.5996 23.1992H74.1996V23.8992H72.1996H72.2996Z" fill="#003875"/>
<path d="M79.4994 23.7996C79.2994 23.8996 79.0994 23.9996 78.7994 24.0996L78.4994 23.6996C78.7994 23.6996 78.9994 23.5996 79.0994 23.4996C79.0994 23.4996 78.8994 23.2996 78.6994 23.1996L78.9994 22.8996C78.9994 22.8996 79.1994 22.8996 79.1994 22.9996C79.1994 22.9996 79.3994 23.0996 79.4994 23.1996C79.5994 23.1996 79.7994 22.9996 79.8994 22.7996L80.1994 23.0996C79.9994 23.2996 79.8994 23.3996 79.7994 23.4996C79.8994 23.5996 79.9994 23.6996 80.1994 23.7996L79.7994 24.0996C79.5994 23.8996 79.4994 23.6996 79.4994 23.6996M79.4994 22.4996C79.2994 22.5996 79.0994 22.7996 78.7994 22.8996L78.4994 22.4996C78.7994 22.4996 79.0994 22.2996 79.1994 22.1996C79.0994 22.1996 78.9994 21.9996 78.7994 21.8996L79.0994 21.5996C79.2994 21.6996 79.3994 21.7996 79.5994 21.8996C79.7994 21.7996 79.8994 21.6996 79.9994 21.5996L80.2994 21.8996C80.2994 21.9996 80.0994 22.0996 79.8994 22.1996C79.8994 22.1996 80.0994 22.3996 80.1994 22.4996L79.7994 22.7996C79.5994 22.5996 79.4994 22.3996 79.4994 22.3996M81.5994 24.6996H77.1994V25.5996H76.6994V24.1996H76.9994V21.7996C77.4994 21.7996 77.8994 21.7996 78.2994 21.5996L78.5994 22.0996C78.3994 22.0996 77.9994 22.1996 77.4994 22.2996V22.5996H78.4994V22.9996H77.5994V23.3996H78.4994V23.7996H77.5994V24.1996H81.4994V23.7996H80.5994V23.3996H81.4994V22.9996H80.5994V22.5996H81.4994V22.2996H80.4994V21.7996H81.9994V24.1996H82.2994V25.5996H81.6994V24.6996H81.5994ZM80.9994 24.9996V25.3996C80.5994 25.5996 80.1994 25.7996 79.6994 25.8996H82.2994V26.3996H79.6994V26.6996C79.6994 27.0996 79.4994 27.3996 79.0994 27.3996H78.1994V26.8996C78.0994 26.8996 78.8994 26.8996 78.8994 26.8996C78.9994 26.8996 79.0994 26.8996 79.0994 26.6996V26.3996H76.3994V25.8996H79.0994V25.5996C79.3994 25.5996 79.6994 25.4996 80.1994 25.2996H77.5994V24.7996H80.9994V24.9996Z" fill="#003875"/>
<path d="M38.8998 34.3988H38.2998V30.3988H37.2998V29.7988H39.9998V30.3988H38.8998V34.3988Z" fill="#003875"/>
<path d="M43.1994 31.6988V29.7988H43.6994V34.3988H43.1994V32.1988H40.9994V34.3988H40.3994V29.7988H40.9994V31.6988H43.1994Z" fill="#003875"/>
<path d="M44.5996 29.7988H46.9996V30.3988H45.1996V31.5988H46.9996V32.0988H45.1996V33.7988H46.9996V34.3988H44.5996V29.7988Z" fill="#003875"/>
<path d="M52.2 31.6988V29.7988H52.8V34.3988H52.2V32.1988H50.1V34.3988H49.5V29.7988H50.1V31.6988H52.2Z" fill="#003875"/>
<path d="M57.4998 32.0992C57.4998 31.0992 56.7998 30.2992 55.6998 30.2992C54.5998 30.2992 53.8998 31.0992 53.8998 32.0992C53.8998 33.0992 54.6998 33.8992 55.6998 33.8992C56.6998 33.8992 57.4998 33.0992 57.4998 32.0992ZM58.0998 32.0992C58.0998 33.3992 56.9998 34.4992 55.6998 34.4992C54.3998 34.4992 53.2998 33.4992 53.2998 32.0992C53.2998 30.6992 54.3998 29.6992 55.6998 29.6992C56.9998 29.6992 58.0998 30.7992 58.0998 32.0992Z" fill="#003875"/>
<path d="M58.5996 29.5996L61.9996 33.1996V29.7996H62.5996V34.4996L59.1996 30.9996V34.3996H58.5996V29.5996Z" fill="#003875"/>
<path d="M67.6002 32.0988V32.2988C67.6002 33.4988 66.7002 34.4988 65.5002 34.4988C64.3002 34.4988 63.2002 33.3988 63.2002 32.1988C63.2002 30.9988 64.2002 29.7988 65.5002 29.7988C66.8002 29.7988 66.9002 30.0988 67.3002 30.6988L66.9002 31.0988C66.6002 30.6988 66.0002 30.3988 65.5002 30.3988C64.5002 30.3988 63.7002 31.1988 63.7002 32.1988C63.7002 33.1988 64.5002 33.9988 65.5002 33.9988C66.5002 33.9988 67.0002 33.3988 67.0002 32.6988H65.8002V32.1988H67.6002V32.0988Z" fill="#003875"/>
<path d="M72.5 29.7988H73.2L71.2 31.8988L73.2 34.3988H72.5L70.8 32.2988L70.6 32.4988V34.3988H70V29.7988H70.6V31.7988L72.5 29.7988Z" fill="#003875"/>
<path d="M77.4998 32.0992C77.4998 31.0992 76.7998 30.2992 75.6998 30.2992C74.5998 30.2992 73.8998 31.0992 73.8998 32.0992C73.8998 33.0992 74.6998 33.8992 75.6998 33.8992C76.6998 33.8992 77.4998 33.0992 77.4998 32.0992ZM78.0998 32.0992C78.0998 33.3992 76.9998 34.4992 75.6998 34.4992C74.3998 34.4992 73.2998 33.4992 73.2998 32.0992C73.2998 30.6992 74.3998 29.6992 75.6998 29.6992C76.9998 29.6992 78.0998 30.7992 78.0998 32.0992Z" fill="#003875"/>
<path d="M78.5996 29.5996L81.9996 33.1996V29.7996H82.5996V34.4996L79.1996 30.9996V34.3996H78.5996V29.5996Z" fill="#003875"/>
<path d="M87.6002 32.0988V32.2988C87.6002 33.4988 86.7002 34.4988 85.5002 34.4988C84.3002 34.4988 83.2002 33.3988 83.2002 32.1988C83.2002 30.9988 84.2002 29.7988 85.5002 29.7988C86.8002 29.7988 86.9002 30.0988 87.3002 30.6988L86.9002 31.0988C86.6002 30.6988 86.0002 30.3988 85.5002 30.3988C84.5002 30.3988 83.7002 31.1988 83.7002 32.1988C83.7002 33.1988 84.5002 33.9988 85.5002 33.9988C86.5002 33.9988 87.0002 33.3988 87.0002 32.6988H85.8002V32.1988H87.6002V32.0988Z" fill="#003875"/>
<path d="M38.1996 37V39.7C38.1996 40.4 38.3996 41.1 39.2996 41.1C40.1996 41.1 40.3996 40.4 40.3996 39.7V37H40.9996V39.9C40.9996 40.9 40.3996 41.7 39.2996 41.7C38.1996 41.7 37.5996 40.9 37.5996 39.9V37H38.1996Z" fill="#003875"/>
<path d="M41.7002 36.7988L45.1002 40.3988V36.9988H45.7002V41.6988L42.3002 38.1988V41.4988H41.7002V36.7988Z" fill="#003875"/>
<path d="M47.1 37H46.5V41.5H47.1V37Z" fill="#003875"/>
<path d="M49.5 40.4L50.8 37H51.4L49.5 41.8L47.5 37H48.1L49.5 40.4Z" fill="#003875"/>
<path d="M51.8994 37H54.2994V37.5H52.3994V38.8H54.2994V39.3H52.3994V41H54.2994V41.5H51.8994V37Z" fill="#003875"/>
<path d="M55.5996 39.2H55.7996C56.3996 39.2 56.9996 39.1 56.9996 38.4C56.9996 37.7 56.2996 37.6 55.7996 37.6H55.5996V39.2ZM57.8996 41.5H57.1996L55.8996 39.6H55.6996V41.5H55.0996V37H55.7996C56.1996 37 56.5996 37 56.9996 37.2C57.3996 37.4 57.5996 37.8 57.5996 38.3C57.5996 38.9 57.1996 39.5 56.4996 39.6L57.8996 41.6V41.5Z" fill="#003875"/>
<path d="M60.3996 37.8992C60.1996 37.5992 59.9996 37.4992 59.6996 37.4992C59.3996 37.4992 58.8996 37.6992 58.8996 38.0992C58.8996 38.4992 59.1996 38.5992 59.4996 38.6992H59.7996C60.3996 39.0992 60.8996 39.3992 60.8996 40.1992C60.8996 40.9992 60.2996 41.5992 59.4996 41.5992C58.6996 41.5992 58.1996 41.0992 58.0996 40.2992H58.6996C58.6996 40.6992 59.0996 40.9992 59.5996 40.9992C60.0996 40.9992 60.3996 40.5992 60.3996 40.0992C60.3996 39.5992 59.9996 39.3992 59.5996 39.1992H59.2996C58.7996 38.7992 58.2996 38.5992 58.2996 37.8992C58.2996 37.1992 58.8996 36.6992 59.5996 36.6992C60.2996 36.6992 60.4996 36.8992 60.7996 37.3992L60.2996 37.6992L60.3996 37.8992Z" fill="#003875"/>
<path d="M62.1996 37H61.5996V41.5H62.1996V37Z" fill="#003875"/>
<path d="M64.3002 41.5H63.8002V37.5H62.7002V37H65.4002V37.5H64.3002V41.5Z" fill="#003875"/>
<path d="M65.3994 37H66.0994L67.1994 39L68.2994 37H68.8994L67.4994 39.6V41.5H66.8994V39.6L65.3994 37Z" fill="#003875"/>
<path d="M74.9998 39.3004C74.9998 38.3004 74.2998 37.5004 73.1998 37.5004C72.0998 37.5004 71.3998 38.3004 71.3998 39.3004C71.3998 40.3004 72.1998 41.1004 73.1998 41.1004C74.1998 41.1004 74.9998 40.3004 74.9998 39.3004ZM75.5998 39.3004C75.5998 40.6004 74.4998 41.7004 73.1998 41.7004C71.8998 41.7004 70.7998 40.7004 70.7998 39.3004C70.7998 37.9004 71.8998 36.9004 73.1998 36.9004C74.4998 36.9004 75.5998 38.0004 75.5998 39.3004Z" fill="#003875"/>
<path d="M76.8002 37.5V38.8H78.3002V39.3H76.8002V41.5H76.2002V37H78.4002V37.5H76.8002Z" fill="#003875"/>
<path d="M82.8996 37.8992C82.6996 37.5992 82.4996 37.4992 82.1996 37.4992C81.8996 37.4992 81.3996 37.6992 81.3996 38.0992C81.3996 38.4992 81.6996 38.5992 81.9996 38.6992H82.2996C82.8996 39.0992 83.3996 39.3992 83.3996 40.1992C83.3996 40.9992 82.7996 41.5992 81.9996 41.5992C81.1996 41.5992 80.6996 41.0992 80.5996 40.2992H81.1996C81.1996 40.6992 81.5996 40.9992 82.0996 40.9992C82.5996 40.9992 82.8996 40.5992 82.8996 40.0992C82.8996 39.5992 82.4996 39.3992 82.0996 39.1992H81.7996C81.2996 38.7992 80.7996 38.5992 80.7996 37.8992C80.7996 37.1992 81.3996 36.6992 82.0996 36.6992C82.7996 36.6992 82.9996 36.8992 83.2996 37.3992L82.7996 37.6992L82.8996 37.8992Z" fill="#003875"/>
<path d="M87.4994 37.9004C87.1994 37.6004 86.6994 37.5004 86.2994 37.5004C85.2994 37.5004 84.4994 38.3004 84.4994 39.3004C84.4994 40.3004 85.2994 41.1004 86.2994 41.1004C87.2994 41.1004 87.1994 40.9004 87.4994 40.6004V41.3004C87.1994 41.5004 86.6994 41.6004 86.2994 41.6004C84.9994 41.6004 83.8994 40.6004 83.8994 39.3004C83.8994 38.0004 84.9994 36.9004 86.2994 36.9004C87.5994 36.9004 87.0994 36.9004 87.3994 37.2004V37.9004H87.4994Z" fill="#003875"/>
<path d="M88.8002 37H88.2002V41.5H88.8002V37Z" fill="#003875"/>
<path d="M89.7002 37H92.1002V37.5H90.2002V38.8H92.0002V39.3H90.2002V41H92.1002V41.5H89.7002V37Z" fill="#003875"/>
<path d="M92.7998 36.7988L96.1998 40.3988V36.9988H96.6998V41.6988L93.2998 38.1988V41.4988H92.7998V36.7988Z" fill="#003875"/>
<path d="M100.9 37.9004C100.6 37.6004 100.1 37.5004 99.6998 37.5004C98.6998 37.5004 97.8998 38.3004 97.8998 39.3004C97.8998 40.3004 98.6998 41.1004 99.6998 41.1004C100.7 41.1004 100.6 40.9004 100.9 40.6004V41.3004C100.6 41.5004 100.1 41.6004 99.6998 41.6004C98.3998 41.6004 97.2998 40.6004 97.2998 39.3004C97.2998 38.0004 98.3998 36.9004 99.6998 36.9004C101 36.9004 100.5 36.9004 100.8 37.2004V37.9004H100.9Z" fill="#003875"/>
<path d="M101.6 37H104.1V37.5H102.2V38.8H104V39.3H102.2V41H104.1V41.5H101.6V37Z" fill="#003875"/>
<path d="M39.4002 45.3L38.6002 47.1H40.2002L39.4002 45.3ZM38.3002 47.6L37.8002 48.7H37.2002L39.4002 44L41.6002 48.7H41.0002L40.5002 47.6H38.4002H38.3002Z" fill="#003875"/>
<path d="M41.8994 44L45.2994 47.6V44.2H45.8994V48.9L42.4994 45.4V48.7H41.8994V44Z" fill="#003875"/>
<path d="M47.2996 48.1992H47.4996C48.6996 48.1992 49.5996 47.7992 49.5996 46.4992C49.5996 45.1992 48.5996 44.7992 47.4996 44.7992H47.2996V48.2992V48.1992ZM46.6996 44.1992H47.5996C48.9996 44.1992 50.0996 44.8992 50.0996 46.3992C50.0996 47.8992 48.9996 48.6992 47.4996 48.6992H46.5996V44.1992H46.6996Z" fill="#003875"/>
<path d="M53.8002 48.6992H53.2002V44.6992H52.2002V44.1992H54.9002V44.6992H53.8002V48.6992Z" fill="#003875"/>
<path d="M55.3994 44.1992H57.7994V44.6992H55.8994V45.9992H57.6994V46.4992H55.8994V48.1992H57.7994V48.6992H55.3994V44.1992Z" fill="#003875"/>
<path d="M61.8002 45.0996C61.5002 44.7996 61.0002 44.6996 60.6002 44.6996C59.6002 44.6996 58.8002 45.4996 58.8002 46.4996C58.8002 47.4996 59.6002 48.2996 60.6002 48.2996C61.6002 48.2996 61.5002 48.0996 61.8002 47.7996V48.4996C61.5002 48.6996 61.0002 48.7996 60.6002 48.7996C59.3002 48.7996 58.2002 47.7996 58.2002 46.4996C58.2002 45.1996 59.3002 44.0996 60.6002 44.0996C61.9002 44.0996 61.4002 44.0996 61.7002 44.3996V45.0996H61.8002Z" fill="#003875"/>
<path d="M65.2 45.9992V44.1992H65.8V48.6992H65.2V46.5992H63.1V48.6992H62.5V44.1992H63.1V45.9992H65.2Z" fill="#003875"/>
<path d="M66.5996 44L69.9996 47.6V44.2H70.5996V48.9L67.1996 45.4V48.7H66.5996V44Z" fill="#003875"/>
<path d="M75.2996 46.4996C75.2996 45.4996 74.5996 44.6996 73.4996 44.6996C72.3996 44.6996 71.6996 45.4996 71.6996 46.4996C71.6996 47.4996 72.4996 48.2996 73.4996 48.2996C74.4996 48.2996 75.2996 47.4996 75.2996 46.4996ZM75.8996 46.4996C75.8996 47.7996 74.7996 48.8996 73.4996 48.8996C72.1996 48.8996 71.0996 47.8996 71.0996 46.4996C71.0996 45.0996 72.1996 44.0996 73.4996 44.0996C74.7996 44.0996 75.8996 45.1996 75.8996 46.4996Z" fill="#003875"/>
<path d="M77 48.1992H78.4V48.6992H76.5V44.1992H77V48.1992Z" fill="#003875"/>
<path d="M82.7 46.4996C82.7 45.4996 82 44.6996 80.9 44.6996C79.8 44.6996 79.1 45.4996 79.1 46.4996C79.1 47.4996 79.9 48.2996 80.9 48.2996C81.9 48.2996 82.7 47.4996 82.7 46.4996ZM83.3 46.4996C83.3 47.7996 82.2 48.8996 80.9 48.8996C79.6 48.8996 78.5 47.8996 78.5 46.4996C78.5 45.0996 79.6 44.0996 80.9 44.0996C82.2 44.0996 83.3 45.1996 83.3 46.4996Z" fill="#003875"/>
<path d="M87.9996 46.4992V46.6992C87.9996 47.8992 87.0996 48.8992 85.8996 48.8992C84.6996 48.8992 83.5996 47.7992 83.5996 46.5992C83.5996 45.3992 84.5996 44.1992 85.8996 44.1992C87.1996 44.1992 87.2996 44.4992 87.6996 45.0992L87.2996 45.4992C86.9996 45.0992 86.3996 44.7992 85.8996 44.7992C84.8996 44.7992 84.0996 45.5992 84.0996 46.5992C84.0996 47.5992 84.8996 48.3992 85.8996 48.3992C86.8996 48.3992 87.3996 47.7992 87.3996 47.0992H86.1996V46.5992H87.9996V46.4992Z" fill="#003875"/>
<path d="M88.0996 44.1992H88.7996L89.8996 46.1992L90.9996 44.1992H91.5996L90.1996 46.7992V48.6992H89.5996V46.7992L88.0996 44.1992Z" fill="#003875"/>
<path d="M29.6002 48.8992L26.4002 43.4992C26.4002 43.4992 26.3002 43.3992 26.3002 43.1992V33.1992H25.1002V43.4992C25.2002 43.5992 27.2002 47.0992 27.2002 47.0992H22.1002C22.1002 47.0992 24.1002 43.5992 24.2002 43.4992V33.1992H23.0002V43.0992C23.0002 43.3992 22.9002 43.4992 22.9002 43.4992L19.7002 48.8992H29.6002Z" fill="#A88236"/>
<path d="M28.5995 26.0996C28.5995 26.0996 29.1995 23.5996 26.9995 21.8996C26.9995 21.8996 26.0995 21.0996 24.4995 21.0996C22.8995 21.0996 22.0995 21.8996 22.0995 21.8996C20.0995 23.2996 20.5995 26.0996 20.5995 26.0996H28.4995H28.5995Z" fill="#A88236"/>
<path d="M20.9002 26.8004H28.3002C28.3002 26.7004 28.4002 26.5004 28.5002 26.4004H20.7002C20.7002 26.5004 20.7002 26.7004 20.9002 26.8004Z" fill="#A88236"/>
<path d="M28.2 27.0996H21C21 27.2996 21.2 27.3996 21.2 27.4996H27.9C27.9 27.3996 28.1 27.1996 28.1 27.0996" fill="#A88236"/>
<path d="M21.8 28.0988H27.5C27.6 27.9988 27.7 27.8988 27.8 27.7988H21.5C21.5 27.8988 21.7 27.9988 21.8 28.0988Z" fill="#A88236"/>
<path d="M22.4 28.7004H26.9C27 28.7004 27.1 28.5004 27.2 28.4004H22C22.1 28.4004 22.2 28.6004 22.3 28.7004" fill="#A88236"/>
<path d="M22.9994 29C23.4994 29.2 23.9994 29.3 24.5994 29.3C25.1994 29.3 25.6994 29.2 26.1994 29H22.8994H22.9994Z" fill="#A88236"/>
<path d="M32.3998 29.5H26.2998C26.2998 29.5 25.6998 29.5 25.2998 29.8C24.9998 30 24.6998 30.6 24.6998 30.6C24.6998 30.6 24.3998 30 24.0998 29.8C23.5998 29.5 23.0998 29.5 23.0998 29.5H16.9998L15.7998 31.5H21.3998C21.3998 31.5 21.5998 31.5 21.6998 31.5C21.8998 31.5 22.1998 31.6 22.4998 31.8C22.8998 32.1 22.9998 32.3 23.0998 32.4L23.2998 32.6H26.2998C26.2998 32.6 26.3998 32.4 26.4998 32.4C26.5998 32.3 26.6998 32.1 27.0998 31.8C27.3998 31.6 27.6998 31.5 27.8998 31.5C27.9998 31.5 28.1998 31.5 28.1998 31.5H33.7998L32.5998 29.5H32.3998Z" fill="#003875"/>
<path d="M16.2998 32.0996V41.1996C16.2998 41.3996 16.2998 41.4996 16.2998 41.5996C16.2998 42.5996 16.6998 43.2996 17.2998 44.2996C18.1998 45.7996 19.7998 46.7996 19.7998 46.7996L20.5998 45.5996C20.5998 45.5996 19.5998 44.9996 18.6998 43.7996C18.4998 43.4996 18.3998 43.2996 18.2998 43.0996C18.1998 42.8996 18.0998 42.6996 17.9998 42.4996C17.9998 42.3996 17.9998 42.1996 17.8998 42.0996C17.8998 41.8996 17.8998 41.7996 17.8998 41.5996V41.2996V32.0996H16.3998H16.2998Z" fill="#003875"/>
<path d="M18.5996 32.1004V41.3004C18.5996 41.3004 18.5996 41.4004 18.5996 41.5004C18.5996 41.6004 18.5996 41.8004 18.6996 42.0004C18.7996 42.3004 18.9996 42.7004 19.2996 43.1004C19.9996 44.2004 20.9996 44.7004 20.9996 44.7004L21.7996 43.5004C21.7996 43.5004 21.4996 43.4004 21.1996 43.1004C20.9996 42.9004 20.7996 42.6004 20.4996 42.3004C20.2996 42.0004 20.1996 41.7004 20.0996 41.4004C20.0996 41.2004 20.0996 41.0004 20.0996 40.9004V40.8004V31.9004H18.5996V32.1004Z" fill="#003875"/>
<path d="M33.0002 32.0996V41.1996C33.0002 41.3996 33.0002 41.4996 33.0002 41.5996C32.9002 42.5996 32.6002 43.2996 32.0002 44.2996C31.1002 45.7996 29.5002 46.7996 29.5002 46.7996L28.7002 45.5996C28.7002 45.5996 29.7002 44.9996 30.6002 43.7996C30.8002 43.4996 30.9002 43.2996 31.0002 43.0996C31.1002 42.8996 31.2002 42.6996 31.3002 42.4996C31.3002 42.3996 31.3002 42.1996 31.4002 42.0996C31.4002 41.8996 31.4002 41.7996 31.4002 41.5996V41.2996V32.0996H32.9002H33.0002Z" fill="#003875"/>
<path d="M30.5994 32.1004V41.3004C30.5994 41.3004 30.5994 41.4004 30.5994 41.5004C30.5994 41.6004 30.5994 41.8004 30.4994 42.0004C30.3994 42.3004 30.1994 42.7004 29.8994 43.1004C29.1994 44.2004 28.1994 44.7004 28.1994 44.7004L27.3994 43.5004C27.3994 43.5004 27.6994 43.4004 27.9994 43.1004C28.1994 42.9004 28.3994 42.6004 28.6994 42.3004C28.8994 42.0004 28.9994 41.7004 29.0994 41.4004C29.0994 41.2004 29.0994 41.0004 29.0994 40.9004V40.8004V31.9004H30.5994V32.1004Z" fill="#003875"/>
<path d="M110.7 21.1992H110V48.8992H110.7V21.1992Z" fill="#053566"/>
<path d="M123.618 31.8664V33.5764H127.209V31.8664H123.618ZM122.961 31.2274H127.902V34.2244H122.961V31.2274ZM121.647 35.1874H124.851V39.0394H124.176V35.8264H122.295V39.1204H121.647V35.1874ZM125.841 35.1874H129.225V39.0664H128.541V35.8264H126.489V39.1204H125.841V35.1874ZM121.944 37.9774H124.455V38.6344H121.944V37.9774ZM126.165 37.9774H128.838V38.6344H126.165V37.9774ZM133.446 36.6544H138.513V37.2394H133.446V36.6544ZM136.47 35.3944H137.109V39.1114H136.47V35.3944ZM135.597 30.8134L136.353 30.9574C136.245 31.1614 136.128 31.3684 136.002 31.5784C135.882 31.7884 135.774 31.9654 135.678 32.1094L135.129 31.9654C135.213 31.7974 135.297 31.6054 135.381 31.3894C135.471 31.1734 135.543 30.9814 135.597 30.8134ZM135.75 32.0464H136.335V33.5044C136.335 33.7744 136.308 34.0504 136.254 34.3324C136.206 34.6144 136.107 34.8904 135.957 35.1604C135.813 35.4304 135.6 35.6884 135.318 35.9344C135.042 36.1744 134.679 36.3934 134.229 36.5914C134.193 36.5494 134.148 36.5044 134.094 36.4564C134.04 36.4084 133.983 36.3634 133.923 36.3214C133.869 36.2734 133.821 36.2344 133.779 36.2044C134.205 36.0244 134.547 35.8234 134.805 35.6014C135.069 35.3794 135.267 35.1514 135.399 34.9174C135.537 34.6774 135.63 34.4374 135.678 34.1974C135.726 33.9574 135.75 33.7234 135.75 33.4954V32.0464ZM131.097 33.3154H133.617V33.9004H131.097V33.3154ZM132.276 30.8494H132.879V33.6754H132.276V30.8494ZM131.133 35.2234H133.158V39.1114H132.546V35.8084H131.133V35.2234ZM130.809 31.0204H131.403V34.4764C131.403 34.8364 131.394 35.2174 131.376 35.6194C131.364 36.0154 131.337 36.4204 131.295 36.8344C131.253 37.2424 131.19 37.6444 131.106 38.0404C131.028 38.4304 130.923 38.7964 130.791 39.1384C130.749 39.1084 130.692 39.0784 130.62 39.0484C130.554 39.0244 130.485 39.0004 130.413 38.9764C130.341 38.9524 130.275 38.9314 130.215 38.9134C130.347 38.5894 130.452 38.2384 130.53 37.8604C130.608 37.4824 130.668 37.0954 130.71 36.6994C130.752 36.3034 130.779 35.9164 130.791 35.5384C130.803 35.1544 130.809 34.8004 130.809 34.4764V31.0204ZM134.445 33.6934V34.6474H137.64V33.6934H134.445ZM134.445 32.2354V33.1804H137.64V32.2354H134.445ZM133.833 31.7044H138.261V35.1784H133.833V31.7044ZM142.158 32.6044V33.1984H144.606V32.6044H142.158ZM141.6 32.2084H145.191V33.6034H141.6V32.2084ZM141.852 35.2594V37.2664H144.912V35.2594H141.852ZM141.312 34.8364H145.479V37.6894H141.312V34.8364ZM142.851 35.9974V36.5284H143.895V35.9974H142.851ZM142.428 35.6374H144.345V36.8794H142.428V35.6374ZM140.7 34.0174H146.118V34.4404H140.7V34.0174ZM143.076 33.3334H143.661V34.2154H143.076V33.3334ZM139.638 31.2094H147.18V39.1114H146.523V31.7764H140.277V39.1114H139.638V31.2094ZM140.034 38.1754H146.865V38.7514H140.034V38.1754ZM152.139 30.8494L152.796 30.9664C152.562 31.3924 152.268 31.8244 151.914 32.2624C151.566 32.7004 151.152 33.1084 150.672 33.4864C150.612 33.4144 150.534 33.3424 150.438 33.2704C150.342 33.1924 150.252 33.1324 150.168 33.0904C150.48 32.8744 150.762 32.6374 151.014 32.3794C151.266 32.1214 151.485 31.8634 151.671 31.6054C151.863 31.3414 152.019 31.0894 152.139 30.8494ZM152.193 31.4164H154.362V31.9474H151.77L152.193 31.4164ZM151.554 33.1084V34.1344H155.55V33.1084H151.554ZM150.933 32.6134H156.198V34.6294H150.933V32.6134ZM153.21 32.8204H153.822V34.3504H153.21V32.8204ZM153.237 34.1794L153.768 34.3954C153.522 34.6234 153.231 34.8424 152.895 35.0524C152.565 35.2624 152.214 35.4544 151.842 35.6284C151.476 35.8024 151.119 35.9524 150.771 36.0784C150.747 36.0364 150.711 35.9854 150.663 35.9254C150.615 35.8654 150.564 35.8084 150.51 35.7544C150.462 35.6944 150.417 35.6464 150.375 35.6104C150.723 35.5024 151.074 35.3764 151.428 35.2324C151.788 35.0884 152.124 34.9264 152.436 34.7464C152.754 34.5664 153.021 34.3774 153.237 34.1794ZM152.292 35.1424L152.742 34.8634C153.084 35.1094 153.36 35.3854 153.57 35.6914C153.786 35.9974 153.945 36.3124 154.047 36.6364C154.149 36.9544 154.203 37.2604 154.209 37.5544C154.215 37.8424 154.176 38.1004 154.092 38.3284C154.008 38.5564 153.888 38.7274 153.732 38.8414C153.6 38.9494 153.468 39.0214 153.336 39.0574C153.204 39.0994 153.048 39.1234 152.868 39.1294C152.772 39.1294 152.661 39.1264 152.535 39.1204C152.415 39.1144 152.292 39.1084 152.166 39.1024C152.16 39.0244 152.145 38.9284 152.121 38.8144C152.097 38.7064 152.058 38.6074 152.004 38.5174C152.148 38.5354 152.283 38.5474 152.409 38.5534C152.541 38.5594 152.649 38.5624 152.733 38.5624C152.847 38.5624 152.946 38.5534 153.03 38.5354C153.12 38.5174 153.204 38.4754 153.282 38.4094C153.42 38.3074 153.513 38.1364 153.561 37.8964C153.615 37.6504 153.612 37.3684 153.552 37.0504C153.492 36.7264 153.36 36.3994 153.156 36.0694C152.952 35.7334 152.664 35.4244 152.292 35.1424ZM153.102 35.5024L153.507 35.7814C153.303 35.9734 153.045 36.1684 152.733 36.3664C152.427 36.5644 152.106 36.7504 151.77 36.9244C151.434 37.0924 151.113 37.2334 150.807 37.3474C150.765 37.2814 150.711 37.2034 150.645 37.1134C150.585 37.0234 150.522 36.9484 150.456 36.8884C150.756 36.7984 151.074 36.6784 151.41 36.5284C151.746 36.3784 152.064 36.2134 152.364 36.0334C152.67 35.8534 152.916 35.6764 153.102 35.5024ZM153.57 36.4744L154.02 36.7894C153.768 37.0534 153.453 37.3204 153.075 37.5904C152.697 37.8544 152.298 38.1004 151.878 38.3284C151.458 38.5564 151.053 38.7424 150.663 38.8864C150.621 38.8084 150.564 38.7214 150.492 38.6254C150.426 38.5294 150.357 38.4514 150.285 38.3914C150.573 38.2954 150.873 38.1784 151.185 38.0404C151.497 37.9024 151.8 37.7464 152.094 37.5724C152.394 37.3984 152.67 37.2184 152.922 37.0324C153.18 36.8464 153.396 36.6604 153.57 36.4744ZM155.991 34.8994L156.468 35.3044C156.234 35.5084 155.973 35.7154 155.685 35.9254C155.397 36.1294 155.133 36.3034 154.893 36.4474L154.497 36.0874C154.653 35.9854 154.821 35.8654 155.001 35.7274C155.187 35.5894 155.367 35.4484 155.541 35.3044C155.715 35.1604 155.865 35.0254 155.991 34.8994ZM154.236 34.2784C154.362 34.8484 154.533 35.3914 154.749 35.9074C154.965 36.4174 155.229 36.8704 155.541 37.2664C155.859 37.6564 156.216 37.9654 156.612 38.1934C156.564 38.2354 156.51 38.2894 156.45 38.3554C156.39 38.4154 156.333 38.4784 156.279 38.5444C156.231 38.6104 156.189 38.6734 156.153 38.7334C155.739 38.4634 155.37 38.1094 155.046 37.6714C154.722 37.2334 154.449 36.7354 154.227 36.1774C154.005 35.6194 153.822 35.0254 153.678 34.3954L154.236 34.2784ZM154.146 31.4164H154.29L154.416 31.3804L154.83 31.6684C154.686 31.9144 154.515 32.1664 154.317 32.4244C154.125 32.6764 153.942 32.8894 153.768 33.0634C153.72 33.0034 153.657 32.9344 153.579 32.8564C153.501 32.7784 153.435 32.7184 153.381 32.6764C153.525 32.5204 153.669 32.3374 153.813 32.1274C153.957 31.9114 154.068 31.7134 154.146 31.5334V31.4164ZM149.997 30.8854L150.618 31.0564C150.45 31.5784 150.249 32.0944 150.015 32.6044C149.787 33.1144 149.538 33.5974 149.268 34.0534C148.998 34.5034 148.713 34.9024 148.413 35.2504C148.395 35.1964 148.365 35.1274 148.323 35.0434C148.281 34.9534 148.236 34.8664 148.188 34.7824C148.14 34.6924 148.098 34.6204 148.062 34.5664C148.326 34.2604 148.578 33.9124 148.818 33.5224C149.058 33.1264 149.277 32.7034 149.475 32.2534C149.679 31.8034 149.853 31.3474 149.997 30.8854ZM149.268 33.0904L149.898 32.4694L149.916 32.4874V39.1204H149.268V33.0904ZM160.626 36.2674H162.525V36.7624H160.626V36.2674ZM160.14 31.8214H163.092V32.3614H160.14V31.8214ZM159.897 33.9004H165.459V34.4674H159.897V33.9004ZM160.608 35.0344H162.858V38.0314H160.608V37.5274H162.282V35.5294H160.608V35.0344ZM160.374 35.0344H160.914V38.5174H160.374V35.0344ZM161.319 30.8404H161.94V32.0914H161.319V30.8404ZM160.509 32.5504L160.986 32.4514C161.07 32.6494 161.139 32.8714 161.193 33.1174C161.247 33.3574 161.277 33.5674 161.283 33.7474L160.752 33.8644C160.752 33.6844 160.728 33.4744 160.68 33.2344C160.638 32.9884 160.581 32.7604 160.509 32.5504ZM164.082 31.4794L164.595 31.2634C164.799 31.5034 164.985 31.7734 165.153 32.0734C165.327 32.3674 165.456 32.6284 165.54 32.8564L164.982 33.0904C164.91 32.8624 164.79 32.5984 164.622 32.2984C164.454 31.9924 164.274 31.7194 164.082 31.4794ZM162.192 32.4064L162.768 32.5144C162.696 32.7484 162.624 32.9914 162.552 33.2434C162.486 33.4894 162.423 33.6994 162.363 33.8734L161.886 33.7654C161.922 33.6394 161.958 33.4954 161.994 33.3334C162.036 33.1714 162.075 33.0094 162.111 32.8474C162.147 32.6794 162.174 32.5324 162.192 32.4064ZM163.299 30.8494H163.902C163.89 31.9654 163.896 32.9824 163.92 33.9004C163.95 34.8184 164.001 35.6104 164.073 36.2764C164.145 36.9424 164.247 37.4614 164.379 37.8334C164.517 38.1994 164.694 38.3914 164.91 38.4094C164.988 38.4154 165.054 38.3104 165.108 38.0944C165.162 37.8724 165.201 37.5754 165.225 37.2034C165.267 37.2454 165.315 37.2904 165.369 37.3384C165.423 37.3864 165.477 37.4314 165.531 37.4734C165.591 37.5154 165.639 37.5454 165.675 37.5634C165.615 37.9774 165.543 38.3014 165.459 38.5354C165.381 38.7694 165.294 38.9314 165.198 39.0214C165.102 39.1114 165 39.1564 164.892 39.1564C164.604 39.1384 164.364 38.9974 164.172 38.7334C163.986 38.4754 163.833 38.1064 163.713 37.6264C163.599 37.1464 163.512 36.5674 163.452 35.8894C163.398 35.2114 163.362 34.4494 163.344 33.6034C163.326 32.7574 163.311 31.8394 163.299 30.8494ZM164.685 34.8634L165.225 35.1424C165.039 35.7364 164.796 36.2824 164.496 36.7804C164.202 37.2784 163.869 37.7224 163.497 38.1124C163.125 38.4964 162.726 38.8204 162.3 39.0844C162.258 39.0304 162.198 38.9644 162.12 38.8864C162.042 38.8144 161.97 38.7514 161.904 38.6974C162.324 38.4514 162.714 38.1424 163.074 37.7704C163.434 37.3924 163.752 36.9604 164.028 36.4744C164.31 35.9884 164.529 35.4514 164.685 34.8634ZM157.602 33.5674H159.798V34.0984H157.602V33.5674ZM157.656 31.1554H159.78V31.6954H157.656V31.1554ZM157.602 34.7644H159.798V35.3044H157.602V34.7644ZM157.242 32.3344H160.023V32.9014H157.242V32.3344ZM157.908 35.9794H159.816V38.5984H157.908V38.0404H159.258V36.5374H157.908V35.9794ZM157.584 35.9794H158.133V39.0214H157.584V35.9794ZM171.237 31.9204H171.894V36.9154H171.237V31.9204ZM173.442 31.0114H174.117V38.2204C174.117 38.4544 174.084 38.6284 174.018 38.7424C173.958 38.8564 173.856 38.9434 173.712 39.0034C173.562 39.0574 173.355 39.0904 173.091 39.1024C172.833 39.1204 172.497 39.1294 172.083 39.1294C172.071 39.0694 172.05 38.9974 172.02 38.9134C171.99 38.8294 171.96 38.7454 171.93 38.6614C171.9 38.5774 171.867 38.5054 171.831 38.4454C172.149 38.4514 172.437 38.4544 172.695 38.4544C172.953 38.4604 173.124 38.4604 173.208 38.4544C173.292 38.4484 173.352 38.4304 173.388 38.4004C173.424 38.3644 173.442 38.3044 173.442 38.2204V31.0114ZM167.907 35.1784H170.031V35.7814H167.907V35.1784ZM169.752 35.1784H170.382C170.382 35.1784 170.379 35.1964 170.373 35.2324C170.373 35.2624 170.373 35.3014 170.373 35.3494C170.373 35.3914 170.373 35.4274 170.373 35.4574C170.343 36.2134 170.307 36.8224 170.265 37.2844C170.229 37.7404 170.184 38.0884 170.13 38.3284C170.082 38.5624 170.016 38.7274 169.932 38.8234C169.86 38.9194 169.776 38.9824 169.68 39.0124C169.59 39.0484 169.479 39.0724 169.347 39.0844C169.233 39.0964 169.074 39.1024 168.87 39.1024C168.672 39.1024 168.462 39.0964 168.24 39.0844C168.234 38.9944 168.213 38.8924 168.177 38.7784C168.147 38.6644 168.105 38.5654 168.051 38.4814C168.279 38.5054 168.486 38.5174 168.672 38.5174C168.864 38.5234 168.999 38.5264 169.077 38.5264C169.155 38.5264 169.218 38.5204 169.266 38.5084C169.314 38.5024 169.356 38.4754 169.392 38.4274C169.452 38.3674 169.503 38.2264 169.545 38.0044C169.587 37.7824 169.623 37.4554 169.653 37.0234C169.689 36.5854 169.722 36.0064 169.752 35.2864V35.1784ZM167.376 31.8574V33.5944H169.671V31.8574H167.376ZM166.755 31.2544H170.319V34.2064H166.755V31.2544ZM167.745 33.9724H168.411C168.387 34.4464 168.345 34.9294 168.285 35.4214C168.231 35.9074 168.144 36.3814 168.024 36.8434C167.904 37.2994 167.733 37.7254 167.511 38.1214C167.295 38.5114 167.016 38.8504 166.674 39.1384C166.62 39.0604 166.545 38.9764 166.449 38.8864C166.359 38.7964 166.275 38.7274 166.197 38.6794C166.521 38.4154 166.779 38.1034 166.971 37.7434C167.169 37.3834 167.319 36.9934 167.421 36.5734C167.529 36.1474 167.604 35.7154 167.646 35.2774C167.694 34.8334 167.727 34.3984 167.745 33.9724ZM177.942 32.0914C178.194 33.1834 178.551 34.1614 179.013 35.0254C179.481 35.8894 180.093 36.6154 180.849 37.2034C181.605 37.7854 182.538 38.2084 183.648 38.4724C183.594 38.5204 183.537 38.5834 183.477 38.6614C183.417 38.7394 183.36 38.8174 183.306 38.8954C183.258 38.9734 183.216 39.0454 183.18 39.1114C182.322 38.8834 181.575 38.5654 180.939 38.1574C180.303 37.7434 179.754 37.2454 179.292 36.6634C178.83 36.0814 178.44 35.4184 178.122 34.6744C177.81 33.9304 177.549 33.1144 177.339 32.2264L177.942 32.0914ZM175.71 31.3264H180.75V31.9834H175.71V31.3264ZM182.406 33.5044H182.541L182.658 33.4684L183.117 33.6574C182.931 34.4494 182.661 35.1484 182.307 35.7544C181.959 36.3604 181.545 36.8824 181.065 37.3204C180.591 37.7524 180.069 38.1154 179.499 38.4094C178.929 38.7094 178.329 38.9494 177.699 39.1294C177.675 39.0634 177.639 38.9944 177.591 38.9224C177.549 38.8504 177.504 38.7784 177.456 38.7064C177.408 38.6344 177.36 38.5744 177.312 38.5264C177.906 38.3824 178.473 38.1784 179.013 37.9144C179.553 37.6444 180.048 37.3114 180.498 36.9154C180.954 36.5134 181.344 36.0394 181.668 35.4934C181.992 34.9474 182.238 34.3264 182.406 33.6304V33.5044ZM180.597 31.3264H180.678L180.795 31.2904L181.308 31.3804C181.248 31.6864 181.173 32.0284 181.083 32.4064C180.993 32.7784 180.9 33.1564 180.804 33.5404C180.708 33.9244 180.612 34.2814 180.516 34.6114L179.823 34.5034C179.895 34.2574 179.967 33.9934 180.039 33.7114C180.117 33.4234 180.189 33.1384 180.255 32.8564C180.327 32.5684 180.39 32.2984 180.444 32.0464C180.504 31.7944 180.555 31.5814 180.597 31.4074V31.3264ZM180.462 33.5044H182.568V34.1434H180.318L180.462 33.5044ZM177.294 31.5334H177.987V32.7394C177.987 33.0994 177.975 33.4834 177.951 33.8914C177.927 34.2934 177.873 34.7104 177.789 35.1424C177.705 35.5684 177.579 36.0004 177.411 36.4384C177.249 36.8764 177.03 37.3084 176.754 37.7344C176.478 38.1544 176.13 38.5594 175.71 38.9494C175.674 38.8954 175.626 38.8324 175.566 38.7604C175.512 38.6884 175.452 38.6164 175.386 38.5444C175.326 38.4784 175.269 38.4274 175.215 38.3914C175.701 37.9414 176.082 37.4734 176.358 36.9874C176.64 36.4954 176.847 36.0004 176.979 35.5024C177.111 35.0044 177.195 34.5214 177.231 34.0534C177.273 33.5794 177.294 33.1414 177.294 32.7394V31.5334ZM190.425 32.7034L191.136 32.9194C190.758 34.0174 190.272 34.9654 189.678 35.7634C189.09 36.5614 188.382 37.2334 187.554 37.7794C186.732 38.3254 185.775 38.7754 184.683 39.1294C184.659 39.0694 184.62 39.0004 184.566 38.9224C184.518 38.8444 184.464 38.7634 184.404 38.6794C184.35 38.5954 184.299 38.5294 184.251 38.4814C185.319 38.1694 186.252 37.7614 187.05 37.2574C187.848 36.7474 188.526 36.1204 189.084 35.3764C189.642 34.6264 190.089 33.7354 190.425 32.7034ZM186.33 32.7574C186.66 33.7174 187.104 34.5814 187.662 35.3494C188.226 36.1114 188.916 36.7564 189.732 37.2844C190.548 37.8124 191.499 38.2054 192.585 38.4634C192.531 38.5114 192.471 38.5744 192.405 38.6524C192.345 38.7364 192.285 38.8204 192.225 38.9044C192.171 38.9884 192.126 39.0604 192.09 39.1204C190.98 38.8324 190.011 38.4064 189.183 37.8424C188.361 37.2724 187.662 36.5794 187.086 35.7634C186.51 34.9414 186.036 34.0054 185.664 32.9554L186.33 32.7574ZM184.35 32.3704H192.486V33.0274H184.35V32.3704ZM188.04 30.8404H188.733V32.7664H188.04V30.8404ZM194.997 33.4414H199.317V34.0624H194.997V33.4414ZM193.539 35.7004H201.288V36.3484H193.539V35.7004ZM197.049 35.0254H197.769V38.2834C197.769 38.4814 197.736 38.6344 197.67 38.7424C197.61 38.8504 197.499 38.9344 197.337 38.9944C197.181 39.0484 196.977 39.0784 196.725 39.0844C196.479 39.0964 196.167 39.1024 195.789 39.1024C195.771 39.0364 195.744 38.9614 195.708 38.8774C195.678 38.7994 195.642 38.7214 195.6 38.6434C195.564 38.5654 195.528 38.4934 195.492 38.4274C195.696 38.4334 195.891 38.4364 196.077 38.4364C196.263 38.4424 196.422 38.4454 196.554 38.4454C196.692 38.4454 196.788 38.4454 196.842 38.4454C196.926 38.4394 196.98 38.4244 197.004 38.4004C197.034 38.3704 197.049 38.3254 197.049 38.2654V35.0254ZM199.119 33.4414H199.29L199.443 33.4054L199.884 33.7474C199.692 33.9634 199.467 34.1824 199.209 34.4044C198.957 34.6204 198.69 34.8274 198.408 35.0254C198.132 35.2174 197.856 35.3824 197.58 35.5204C197.538 35.4604 197.478 35.3944 197.4 35.3224C197.322 35.2444 197.256 35.1814 197.202 35.1334C197.442 35.0074 197.682 34.8544 197.922 34.6744C198.162 34.4944 198.387 34.3084 198.597 34.1164C198.807 33.9244 198.981 33.7444 199.119 33.5764V33.4414ZM197.031 30.8224H197.742V32.2804H197.031V30.8224ZM193.62 31.8124H201.18V33.9364H200.487V32.4604H194.286V33.9364H193.62V31.8124ZM205.851 35.1244H210.081V35.6464H205.851V35.1244ZM205.329 31.2364H210.54V31.7944H205.329V31.2364ZM205.284 36.2944H210.54V36.8614H205.284V36.2944ZM208.857 37.4014L209.334 37.0864C209.49 37.2244 209.649 37.3744 209.811 37.5364C209.973 37.6984 210.123 37.8604 210.261 38.0224C210.405 38.1784 210.519 38.3224 210.603 38.4544L210.099 38.8144C210.021 38.6884 209.913 38.5444 209.775 38.3824C209.637 38.2144 209.487 38.0464 209.325 37.8784C209.163 37.7044 209.007 37.5454 208.857 37.4014ZM206.184 32.9554V34.0624H209.721V32.9554H206.184ZM205.617 32.4244H210.315V34.5844H205.617V32.4244ZM207.579 36.5464H208.209V38.4544C208.209 38.6044 208.191 38.7244 208.155 38.8144C208.119 38.9104 208.041 38.9824 207.921 39.0304C207.801 39.0724 207.648 39.0994 207.462 39.1114C207.276 39.1234 207.042 39.1294 206.76 39.1294C206.748 39.0454 206.721 38.9494 206.679 38.8414C206.637 38.7394 206.595 38.6464 206.553 38.5624C206.775 38.5684 206.964 38.5714 207.12 38.5714C207.276 38.5774 207.381 38.5774 207.435 38.5714C207.495 38.5654 207.534 38.5534 207.552 38.5354C207.57 38.5174 207.579 38.4874 207.579 38.4454V36.5464ZM206.328 37.0594L206.841 37.3474C206.667 37.6174 206.448 37.8814 206.184 38.1394C205.92 38.3974 205.65 38.6194 205.374 38.8054C205.326 38.7454 205.26 38.6764 205.176 38.5984C205.098 38.5204 205.023 38.4544 204.951 38.4004C205.215 38.2264 205.473 38.0164 205.725 37.7704C205.977 37.5244 206.178 37.2874 206.328 37.0594ZM206.949 31.5514H207.498V32.7484H206.949V31.5514ZM206.994 32.6584H207.489V34.3684H206.994V32.6584ZM208.326 31.5514H208.884V32.7484H208.326V31.5514ZM208.326 32.6584H208.83V34.3684H208.326V32.6584ZM202.368 32.7934H205.266V33.4234H202.368V32.7934ZM203.628 30.8404H204.249V39.1114H203.628V30.8404ZM203.61 33.1714L204.033 33.3064C203.961 33.6664 203.871 34.0384 203.763 34.4224C203.661 34.8064 203.544 35.1844 203.412 35.5564C203.28 35.9284 203.139 36.2734 202.989 36.5914C202.839 36.9094 202.683 37.1824 202.521 37.4104C202.491 37.3204 202.44 37.2214 202.368 37.1134C202.296 36.9994 202.233 36.9034 202.179 36.8254C202.329 36.6214 202.476 36.3784 202.62 36.0964C202.764 35.8144 202.899 35.5084 203.025 35.1784C203.151 34.8484 203.265 34.5124 203.367 34.1704C203.469 33.8224 203.55 33.4894 203.61 33.1714ZM204.204 33.9904C204.258 34.0504 204.336 34.1584 204.438 34.3144C204.546 34.4644 204.66 34.6294 204.78 34.8094C204.906 34.9894 205.02 35.1574 205.122 35.3134C205.224 35.4634 205.293 35.5714 205.329 35.6374L204.96 36.1414C204.906 36.0274 204.831 35.8834 204.735 35.7094C204.645 35.5354 204.546 35.3554 204.438 35.1694C204.33 34.9834 204.228 34.8124 204.132 34.6564C204.036 34.4944 203.958 34.3684 203.898 34.2784L204.204 33.9904ZM216.723 30.8494H217.398V34.5394H216.723V30.8494ZM215.949 36.0244H216.597V38.2294C216.597 38.3374 216.612 38.4064 216.642 38.4364C216.678 38.4664 216.753 38.4814 216.867 38.4814C216.897 38.4814 216.945 38.4814 217.011 38.4814C217.083 38.4814 217.161 38.4814 217.245 38.4814C217.335 38.4814 217.416 38.4814 217.488 38.4814C217.566 38.4814 217.623 38.4814 217.659 38.4814C217.737 38.4814 217.794 38.4574 217.83 38.4094C217.866 38.3674 217.893 38.2774 217.911 38.1394C217.929 37.9954 217.941 37.7824 217.947 37.5004C218.007 37.5544 218.094 37.6054 218.208 37.6534C218.322 37.6954 218.424 37.7284 218.514 37.7524C218.496 38.1064 218.46 38.3764 218.406 38.5624C218.352 38.7484 218.271 38.8774 218.163 38.9494C218.061 39.0274 217.917 39.0664 217.731 39.0664C217.695 39.0664 217.632 39.0664 217.542 39.0664C217.452 39.0664 217.353 39.0664 217.245 39.0664C217.143 39.0664 217.047 39.0664 216.957 39.0664C216.873 39.0664 216.813 39.0664 216.777 39.0664C216.561 39.0664 216.393 39.0394 216.273 38.9854C216.153 38.9374 216.069 38.8534 216.021 38.7334C215.973 38.6194 215.949 38.4514 215.949 38.2294V36.0244ZM215.04 36.2944L215.598 36.4474C215.568 36.7054 215.523 36.9724 215.463 37.2484C215.403 37.5184 215.325 37.7764 215.229 38.0224C215.139 38.2624 215.019 38.4754 214.869 38.6614L214.365 38.2834C214.497 38.1274 214.605 37.9444 214.689 37.7344C214.779 37.5184 214.854 37.2874 214.914 37.0414C214.974 36.7894 215.016 36.5404 215.04 36.2944ZM216.003 35.2684L216.417 34.8544C216.615 34.9504 216.816 35.0644 217.02 35.1964C217.224 35.3224 217.416 35.4544 217.596 35.5924C217.776 35.7244 217.92 35.8504 218.028 35.9704L217.587 36.4294C217.485 36.3094 217.344 36.1804 217.164 36.0424C216.99 35.8984 216.801 35.7604 216.597 35.6284C216.393 35.4904 216.195 35.3704 216.003 35.2684ZM218.109 36.3664L218.649 36.1324C218.811 36.3484 218.958 36.5854 219.09 36.8434C219.228 37.1014 219.345 37.3564 219.441 37.6084C219.543 37.8544 219.615 38.0794 219.657 38.2834L219.072 38.5444C219.03 38.3404 218.961 38.1124 218.865 37.8604C218.769 37.6024 218.655 37.3444 218.523 37.0864C218.397 36.8224 218.259 36.5824 218.109 36.3664ZM214.716 32.1634H219.45V32.7754H214.716V32.1634ZM214.932 34.1434H219.333V34.7644H214.932V34.1434ZM211.647 33.5674H214.203V34.0984H211.647V33.5674ZM211.683 31.1554H214.176V31.6954H211.683V31.1554ZM211.647 34.7644H214.203V35.3044H211.647V34.7644ZM211.242 32.3344H214.437V32.9014H211.242V32.3344ZM211.953 35.9794H214.212V38.6074H211.953V38.0494H213.627V36.5464H211.953V35.9794ZM211.638 35.9794H212.214V39.0214H211.638V35.9794Z" fill="#231F20"/>
</g>
<defs>
<clipPath id="clip0_124_5194">
<rect width="225.9" height="49.3" fill="white"/>
</clipPath>
</defs>
</svg>
