<svg width="267" height="59" viewBox="0 0 267 59" fill="none" xmlns="http://www.w3.org/2000/svg">
<g clip-path="url(#clip0_124_5266)">
<path d="M151.4 16.6004V10.4004H141.9M141.9 10.4004V16.6004M141.9 10.4004H132.4V16.6004" stroke="#EC1C24" stroke-width="0.5" stroke-miterlimit="10"/>
<mask id="mask0_124_5266" style="mask-type:luminance" maskUnits="userSpaceOnUse" x="-25" y="-2" width="301" height="61">
<path d="M275.9 -1.5H-24.7002V58.4H275.9V-1.5Z" fill="white"/>
</mask>
<g mask="url(#mask0_124_5266)">
<path d="M125.186 0.136364V4.5H124.658V0.690341H124.632L123.567 1.39773V0.860795L124.658 0.136364H125.186ZM127.992 -0.0681821L126.586 5.15625H126.126L127.532 -0.0681821H127.992ZM130.054 4.55966C129.773 4.55966 129.522 4.51136 129.302 4.41477C129.083 4.31818 128.909 4.18395 128.78 4.01207C128.652 3.83878 128.582 3.63778 128.571 3.40909H129.108C129.119 3.54972 129.168 3.67116 129.253 3.77344C129.338 3.87429 129.45 3.95241 129.587 4.00781C129.725 4.06321 129.878 4.09091 130.046 4.09091C130.233 4.09091 130.399 4.05824 130.544 3.9929C130.689 3.92756 130.803 3.83665 130.885 3.72017C130.967 3.60369 131.009 3.46875 131.009 3.31534C131.009 3.15483 130.969 3.01349 130.889 2.89134C130.81 2.76776 130.693 2.67116 130.54 2.60156C130.386 2.53196 130.199 2.49716 129.977 2.49716H129.628V2.02841H129.977C130.151 2.02841 130.303 1.99716 130.433 1.93466C130.565 1.87216 130.668 1.78409 130.742 1.67045C130.818 1.55682 130.855 1.4233 130.855 1.26989C130.855 1.12216 130.823 0.993608 130.757 0.884233C130.692 0.774858 130.6 0.689631 130.48 0.628551C130.362 0.567472 130.223 0.536932 130.063 0.536932C129.912 0.536932 129.77 0.564631 129.636 0.620028C129.504 0.674006 129.396 0.752841 129.313 0.856534C129.229 0.958807 129.183 1.08239 129.176 1.22727H128.665C128.673 0.998579 128.742 0.798295 128.872 0.62642C129.001 0.453125 129.17 0.318182 129.379 0.221591C129.589 0.125 129.82 0.0767044 130.071 0.0767044C130.341 0.0767044 130.573 0.131392 130.766 0.240767C130.959 0.348721 131.107 0.491477 131.211 0.669034C131.315 0.846591 131.367 1.03835 131.367 1.24432C131.367 1.49006 131.302 1.69957 131.173 1.87287C131.045 2.04616 130.871 2.16619 130.651 2.23295V2.26705C130.926 2.3125 131.141 2.42969 131.296 2.61861C131.451 2.80611 131.528 3.03835 131.528 3.31534C131.528 3.55256 131.464 3.76562 131.335 3.95455C131.207 4.14205 131.032 4.28977 130.81 4.39773C130.589 4.50568 130.337 4.55966 130.054 4.55966ZM134.42 0.136364L135.545 1.9517H135.579L136.704 0.136364H137.326L135.954 2.31818L137.326 4.5H136.704L135.579 2.71875H135.545L134.42 4.5H133.798L135.204 2.31818L133.798 0.136364H134.42Z" fill="#231F20"/>
<path d="M147.186 0.235973V4.59961H146.658V0.78995H146.632L145.567 1.49734V0.960405L146.658 0.235973H147.186ZM149.992 0.0314273L148.586 5.25586H148.126L149.532 0.0314273H149.992ZM152.054 4.65927C151.773 4.65927 151.522 4.61097 151.302 4.51438C151.083 4.41779 150.909 4.28356 150.78 4.11168C150.652 3.93839 150.582 3.73739 150.571 3.5087H151.108C151.119 3.64933 151.168 3.77077 151.253 3.87305C151.338 3.9739 151.45 4.05202 151.587 4.10742C151.725 4.16282 151.878 4.19052 152.046 4.19052C152.233 4.19052 152.399 4.15785 152.544 4.09251C152.689 4.02717 152.803 3.93626 152.885 3.81978C152.967 3.7033 153.009 3.56836 153.009 3.41495C153.009 3.25444 152.969 3.1131 152.889 2.99094C152.81 2.86737 152.693 2.77077 152.54 2.70117C152.386 2.63157 152.199 2.59677 151.977 2.59677H151.628V2.12802H151.977C152.151 2.12802 152.303 2.09677 152.433 2.03427C152.565 1.97177 152.668 1.8837 152.742 1.77006C152.818 1.65643 152.855 1.5229 152.855 1.3695C152.855 1.22177 152.823 1.09322 152.757 0.983842C152.692 0.874467 152.6 0.78924 152.48 0.72816C152.362 0.667081 152.223 0.636541 152.063 0.636541C151.912 0.636541 151.77 0.66424 151.636 0.719638C151.504 0.773615 151.396 0.85245 151.313 0.956143C151.229 1.05842 151.183 1.182 151.176 1.32688H150.665C150.673 1.09819 150.742 0.897905 150.872 0.72603C151.001 0.552734 151.17 0.417791 151.379 0.3212C151.589 0.224609 151.82 0.176314 152.071 0.176314C152.341 0.176314 152.573 0.231001 152.766 0.340376C152.959 0.448331 153.107 0.591087 153.211 0.768643C153.315 0.9462 153.367 1.13796 153.367 1.34393C153.367 1.58967 153.302 1.79918 153.173 1.97248C153.045 2.14577 152.871 2.2658 152.651 2.33256V2.36665C152.926 2.41211 153.141 2.5293 153.296 2.71822C153.451 2.90572 153.528 3.13796 153.528 3.41495C153.528 3.65217 153.464 3.86523 153.335 4.05415C153.207 4.24165 153.032 4.38938 152.81 4.49734C152.589 4.60529 152.337 4.65927 152.054 4.65927ZM156.42 0.235973L157.545 2.05131H157.579L158.704 0.235973H159.326L157.954 2.41779L159.326 4.59961H158.704L157.579 2.81836H157.545L156.42 4.59961H155.798L157.204 2.41779L155.798 0.235973H156.42Z" fill="#231F20"/>
</g>
<path d="M12.9 26.9004H7V54.5004H12.9" stroke="#EC1C24" stroke-width="0.5" stroke-miterlimit="10"/>
<path d="M0.784091 36.5368L1.90909 38.3521H1.94318L3.06818 36.5368H3.69034L2.31818 38.7186L3.69034 40.9004H3.06818L1.94318 39.1191H1.90909L0.784091 40.9004H0.161932L1.56818 38.7186L0.161932 36.5368H0.784091Z" fill="#231F20"/>
<path d="M191.2 37.8008V35.3008H191.8V41.4008H191.2V38.4008H188V41.4008H187.3V35.3008H188V37.8008H191.2Z" fill="#4D4D4F"/>
<mask id="mask1_124_5266" style="mask-type:luminance" maskUnits="userSpaceOnUse" x="-25" y="-2" width="301" height="61">
<path d="M275.9 -1.5H-24.7002V58.4H275.9V-1.5Z" fill="white"/>
</mask>
<g mask="url(#mask1_124_5266)">
<path d="M193.599 38.8996V39.2996C193.599 39.3996 193.599 39.4996 193.599 39.6996C193.599 39.7996 193.599 39.8996 193.599 39.9996C193.599 40.0996 193.599 40.1996 193.799 40.2996C193.899 40.4996 194.099 40.5996 194.399 40.6996C194.599 40.7996 194.899 40.8996 195.099 40.8996C195.299 40.8996 195.499 40.8996 195.799 40.7996C195.999 40.7996 196.199 40.5996 196.299 40.3996C196.299 40.3996 196.399 40.1996 196.499 40.0996C196.499 39.9996 196.499 39.8996 196.499 39.6996C196.499 39.5996 196.499 39.4996 196.499 39.2996V35.1996H197.199V39.0996C197.199 39.2996 197.199 39.3996 197.199 39.5996C197.199 39.7996 197.199 39.8996 197.199 39.9996C197.199 40.0996 197.199 40.2996 196.999 40.3996C196.999 40.4996 196.799 40.6996 196.699 40.7996C196.499 40.9996 196.199 41.1996 195.899 41.2996C195.599 41.3996 195.299 41.4996 194.999 41.4996C194.699 41.4996 194.399 41.4996 194.099 41.2996C193.799 41.1996 193.599 40.9996 193.399 40.7996C193.299 40.6996 193.199 40.4996 193.099 40.3996C193.099 40.2996 192.999 40.0996 192.899 39.9996C192.899 39.8996 192.899 39.6996 192.899 39.4996C192.899 39.2996 192.899 39.1996 192.899 38.9996V35.0996H193.599V38.7996V38.8996Z" fill="#4D4D4F"/>
</g>
<path d="M199.1 34.9004L201.3 40.1004L203.6 34.9004L204.8 41.4004H204.1L203.3 37.3004L201.3 41.7004L199.3 37.3004L198.5 41.4004H197.8L199.1 34.9004Z" fill="#4D4D4F"/>
<path d="M207.9 36.6L206.8 39.1H208.9L207.9 36.6ZM206.5 39.7L205.8 41.5H205L207.9 35L210.7 41.5H209.9L209.2 39.7H206.6H206.5Z" fill="#4D4D4F"/>
<path d="M211.1 35L216 40V35.3H216.6V41.7L211.8 36.7V41.4H211.1V35Z" fill="#4D4D4F"/>
<path d="M218.4 35.3008H217.7V41.5008H218.4V35.3008Z" fill="#4D4D4F"/>
<path d="M221 41.4008H220.3V35.9008H218.9V35.3008H222.5V35.9008H221V41.4008Z" fill="#4D4D4F"/>
<path d="M223.7 35.3008H223V41.5008H223.7V35.3008Z" fill="#4D4D4F"/>
<path d="M224.7 35.3008H227.9V35.9008H225.4V37.7008H227.8V38.4008H225.4V40.8008H227.9V41.4008H224.7V35.3008Z" fill="#4D4D4F"/>
<mask id="mask2_124_5266" style="mask-type:luminance" maskUnits="userSpaceOnUse" x="-25" y="-2" width="301" height="61">
<path d="M275.9 -1.5H-24.7002V58.4H275.9V-1.5Z" fill="white"/>
</mask>
<g mask="url(#mask2_124_5266)">
<path d="M231.7 36.4996C231.6 36.2996 231.4 36.0996 231.3 35.9996C231.1 35.8996 230.9 35.7996 230.7 35.7996C230.5 35.7996 230.4 35.7996 230.3 35.7996C230.2 35.7996 230.1 35.8996 230 35.9996C230 35.9996 229.8 36.1996 229.8 36.2996C229.8 36.3996 229.8 36.4996 229.8 36.6996C229.8 36.8996 229.8 36.8996 229.8 36.9996C229.8 37.0996 229.9 37.1996 230 37.2996C230 37.2996 230.2 37.3996 230.3 37.4996C230.4 37.4996 230.5 37.5996 230.6 37.6996L231 37.8996C231.2 37.8996 231.4 38.0996 231.6 38.1996C231.8 38.2996 231.9 38.3996 232.1 38.5996C232.2 38.6996 232.3 38.8996 232.4 39.0996C232.4 39.2996 232.5 39.4996 232.5 39.6996C232.5 39.8996 232.5 40.1996 232.3 40.4996C232.2 40.6996 232.1 40.8996 231.9 41.0996C231.7 41.2996 231.5 41.3996 231.3 41.4996C231.1 41.4996 230.8 41.5996 230.5 41.5996C230.2 41.5996 230 41.5996 229.8 41.4996C229.6 41.4996 229.4 41.2996 229.2 41.1996C229 41.0996 228.9 40.8996 228.8 40.6996C228.7 40.4996 228.6 40.2996 228.6 39.9996L229.3 39.7996C229.3 39.9996 229.3 40.0996 229.4 40.1996C229.4 40.2996 229.6 40.4996 229.7 40.5996C229.8 40.6996 229.9 40.7996 230.1 40.7996C230.2 40.7996 230.4 40.7996 230.6 40.7996C230.8 40.7996 230.9 40.7996 231.1 40.7996C231.3 40.7996 231.4 40.6996 231.5 40.5996C231.6 40.4996 231.7 40.3996 231.8 40.1996C231.8 40.0996 231.9 39.8996 231.9 39.6996C231.9 39.4996 231.9 39.3996 231.9 39.1996C231.9 39.0996 231.7 38.9996 231.6 38.8996C231.5 38.8996 231.4 38.6996 231.2 38.6996C231.1 38.6996 230.9 38.5996 230.8 38.4996L230.4 38.2996C230.2 38.2996 230 38.0996 229.9 37.9996C229.7 37.9996 229.6 37.7996 229.5 37.6996C229.4 37.5996 229.3 37.3996 229.2 37.2996C229.2 37.0996 229.1 36.8996 229.1 36.6996C229.1 36.4996 229.1 36.1996 229.2 35.9996C229.2 35.7996 229.4 35.5996 229.6 35.4996C229.8 35.3996 229.9 35.2996 230.2 35.1996C230.4 35.1996 230.6 35.0996 230.9 35.0996C231.2 35.0996 231.6 35.0996 231.8 35.2996C232.1 35.4996 232.3 35.6996 232.5 35.9996L232 36.3996L231.7 36.4996Z" fill="#4D4D4F"/>
</g>
<path d="M236.1 38.4996L235.5 39.9996H236.8L236.2 38.4996H236.1ZM235.3 40.3996L234.9 41.4996H234.4L236.1 37.5996L237.8 41.4996H237.3L236.9 40.3996H235.3Z" fill="#8C8989"/>
<path d="M238.1 37.5996L241 40.5996V37.6996H241.4V41.5996L238.5 38.5996V41.3996H238.1V37.5996Z" fill="#8C8989"/>
<mask id="mask3_124_5266" style="mask-type:luminance" maskUnits="userSpaceOnUse" x="-25" y="-2" width="301" height="61">
<path d="M275.9 -1.5H-24.7002V58.4H275.9V-1.5Z" fill="white"/>
</mask>
<g mask="url(#mask3_124_5266)">
<path d="M242.8 41.1004C242.9 41.1004 243 41.1004 243.1 41.1004C243.2 41.1004 243.3 41.1004 243.4 41.1004C243.4 41.1004 243.6 41.1004 243.7 41.0004C243.7 41.0004 243.9 40.9004 244 40.8004C244.2 40.7004 244.3 40.5004 244.3 40.3004C244.3 40.1004 244.4 39.9004 244.4 39.7004C244.4 39.5004 244.4 39.3004 244.3 39.1004C244.3 38.9004 244.1 38.7004 243.9 38.6004C243.7 38.4004 243.5 38.4004 243.4 38.3004C243.2 38.3004 243 38.3004 242.8 38.3004H242.5V41.2004H242.8V41.1004ZM242.1 37.7004H242.8C242.9 37.7004 243.1 37.7004 243.2 37.7004C243.3 37.7004 243.5 37.7004 243.6 37.7004C243.7 37.7004 243.8 37.7004 243.9 37.8004C244 37.8004 244.1 37.9004 244.2 38.0004C244.4 38.2004 244.6 38.4004 244.7 38.6004C244.7 38.8004 244.8 39.1004 244.8 39.4004C244.8 39.7004 244.8 39.9004 244.7 40.2004C244.7 40.4004 244.4 40.6004 244.2 40.8004C244.1 40.8004 244 41.0004 243.9 41.0004C243.8 41.0004 243.7 41.1004 243.6 41.1004C243.5 41.1004 243.4 41.1004 243.2 41.1004C243.1 41.1004 242.9 41.1004 242.8 41.1004H242.1V37.4004V37.7004Z" fill="#8C8989"/>
<path d="M190.2 46.3004C190.1 46.1004 189.9 45.9004 189.8 45.8004C189.6 45.7004 189.4 45.6004 189.2 45.6004C189 45.6004 188.9 45.6004 188.8 45.6004C188.7 45.6004 188.6 45.7004 188.5 45.8004C188.5 45.8004 188.3 46.0004 188.3 46.1004C188.3 46.2004 188.3 46.3004 188.3 46.5004C188.3 46.7004 188.3 46.7004 188.3 46.8004C188.3 46.9004 188.4 47.0004 188.5 47.1004C188.5 47.1004 188.7 47.2004 188.8 47.3004C188.9 47.3004 189 47.4004 189.1 47.5004L189.5 47.7004C189.7 47.7004 189.9 47.9004 190.1 48.0004C190.3 48.1004 190.4 48.2004 190.6 48.4004C190.7 48.5004 190.8 48.7004 190.9 48.9004C190.9 49.1004 191 49.3004 191 49.5004C191 49.7004 191 50.0004 190.8 50.3004C190.7 50.5004 190.6 50.7004 190.4 50.9004C190.2 51.1004 190 51.2004 189.8 51.3004C189.6 51.3004 189.3 51.4004 189 51.4004C188.7 51.4004 188.5 51.4004 188.3 51.3004C188.1 51.3004 187.9 51.1004 187.7 51.0004C187.5 50.9004 187.4 50.7004 187.3 50.5004C187.2 50.3004 187.1 50.1004 187.1 49.8004L187.8 49.6004C187.8 49.8004 187.8 49.9004 187.9 50.0004C187.9 50.1004 188.1 50.3004 188.2 50.4004C188.3 50.5004 188.4 50.6004 188.6 50.6004C188.7 50.6004 188.9 50.6004 189.1 50.6004C189.3 50.6004 189.4 50.6004 189.6 50.6004C189.8 50.6004 189.9 50.5004 190 50.4004C190.1 50.3004 190.2 50.2004 190.3 50.0004C190.3 49.9004 190.4 49.7004 190.4 49.5004C190.4 49.3004 190.4 49.2004 190.4 49.0004C190.4 48.9004 190.2 48.8004 190.1 48.7004C190 48.7004 189.9 48.5004 189.7 48.5004C189.6 48.5004 189.4 48.4004 189.3 48.3004L188.9 48.1004C188.7 48.1004 188.5 47.9004 188.4 47.8004C188.2 47.8004 188.1 47.6004 188 47.5004C187.9 47.4004 187.8 47.2004 187.7 47.1004C187.7 46.9004 187.6 46.7004 187.6 46.5004C187.6 46.3004 187.6 46.0004 187.7 45.8004C187.7 45.6004 187.9 45.4004 188.1 45.3004C188.3 45.2004 188.4 45.1004 188.7 45.0004C188.9 45.0004 189.1 44.9004 189.4 44.9004C189.7 44.9004 190.1 44.9004 190.3 45.1004C190.6 45.3004 190.8 45.5004 191 45.8004L190.5 46.2004L190.2 46.3004Z" fill="#D1232A"/>
<path d="M194.699 45.6004C194.299 45.6004 193.999 45.6004 193.699 45.8004C193.399 45.9004 193.099 46.1004 192.899 46.4004C192.699 46.6004 192.499 46.9004 192.399 47.2004C192.299 47.5004 192.199 47.8004 192.199 48.2004C192.199 48.6004 192.199 48.9004 192.399 49.2004C192.499 49.5004 192.699 49.8004 192.899 50.0004C193.099 50.2004 193.399 50.4004 193.699 50.6004C193.999 50.7004 194.299 50.8004 194.699 50.8004C195.099 50.8004 195.399 50.8004 195.699 50.6004C195.999 50.5004 196.299 50.3004 196.499 50.0004C196.699 49.8004 196.899 49.5004 196.999 49.2004C197.099 48.9004 197.199 48.6004 197.199 48.2004C197.199 47.8004 197.199 47.5004 196.999 47.2004C196.899 46.9004 196.699 46.6004 196.499 46.4004C196.299 46.2004 195.999 46.0004 195.699 45.8004C195.399 45.7004 195.099 45.6004 194.699 45.6004ZM194.699 44.9004C195.099 44.9004 195.599 44.9004 195.999 45.1004C196.399 45.3004 196.699 45.5004 196.999 45.8004C197.299 46.1004 197.499 46.4004 197.699 46.8004C197.899 47.2004 197.999 47.6004 197.999 48.0004C197.999 48.4004 197.999 48.9004 197.699 49.2004C197.499 49.6004 197.299 49.9004 196.999 50.2004C196.699 50.5004 196.399 50.7004 195.999 50.9004C195.599 51.1004 195.199 51.2004 194.699 51.2004C194.199 51.2004 193.799 51.2004 193.399 50.9004C192.999 50.7004 192.699 50.5004 192.399 50.2004C192.099 49.9004 191.899 49.6004 191.699 49.2004C191.499 48.8004 191.399 48.4004 191.399 48.0004C191.399 47.6004 191.399 47.1004 191.699 46.8004C191.899 46.4004 192.099 46.1004 192.399 45.8004C192.699 45.5004 192.999 45.3004 193.399 45.1004C193.799 44.9004 194.199 44.9004 194.699 44.9004Z" fill="#D1232A"/>
<path d="M203.299 46.3996C203.099 46.0996 202.799 45.8996 202.399 45.7996C202.099 45.6996 201.699 45.5996 201.399 45.5996C201.099 45.5996 200.699 45.5996 200.399 45.7996C200.099 45.8996 199.799 46.0996 199.599 46.3996C199.399 46.5996 199.199 46.8996 199.099 47.1996C198.999 47.4996 198.899 47.7996 198.899 48.1996C198.899 48.5996 198.899 48.8996 199.099 49.1996C199.199 49.4996 199.399 49.7996 199.599 49.9996C199.799 50.1996 200.099 50.3996 200.399 50.5996C200.699 50.6996 200.999 50.7996 201.399 50.7996C201.799 50.7996 202.099 50.7996 202.399 50.5996C202.699 50.3996 202.999 50.2996 203.299 49.9996V50.8996C202.999 51.0996 202.699 51.1996 202.399 51.2996C202.099 51.3996 201.799 51.4996 201.399 51.4996C200.999 51.4996 200.499 51.4996 200.199 51.2996C199.799 51.0996 199.499 50.8996 199.199 50.5996C198.899 50.2996 198.699 49.9996 198.499 49.5996C198.299 49.1996 198.199 48.7996 198.199 48.3996C198.199 47.9996 198.199 47.4996 198.499 47.0996C198.699 46.6996 198.899 46.3996 199.199 46.0996C199.499 45.7996 199.799 45.5996 200.199 45.3996C200.599 45.1996 200.999 45.0996 201.399 45.0996C202.099 45.0996 202.699 45.2996 203.199 45.6996V46.5996L203.299 46.3996Z" fill="#D1232A"/>
</g>
<path d="M204.9 45.0996H204.2V51.2996H204.9V45.0996Z" fill="#D1232A"/>
<path d="M208.2 46.4008L207.1 48.9008H209.2L208.2 46.4008ZM206.9 49.5008L206.2 51.3008H205.4L208.3 44.8008L211.1 51.3008H210.3L209.6 49.5008H207H206.9Z" fill="#D1232A"/>
<path d="M212.1 50.5996H213.8V51.1996H211.4V45.0996H212.1V50.5996Z" fill="#D1232A"/>
<mask id="mask4_124_5266" style="mask-type:luminance" maskUnits="userSpaceOnUse" x="-25" y="-2" width="301" height="61">
<path d="M275.9 -1.5H-24.7002V58.4H275.9V-1.5Z" fill="white"/>
</mask>
<g mask="url(#mask4_124_5266)">
<path d="M219.3 46.3004C219.2 46.1004 219 45.9004 218.9 45.8004C218.7 45.7004 218.5 45.6004 218.3 45.6004C218.1 45.6004 218 45.6004 217.9 45.6004C217.8 45.6004 217.7 45.7004 217.6 45.8004C217.6 45.8004 217.4 46.0004 217.4 46.1004C217.4 46.2004 217.4 46.3004 217.4 46.5004C217.4 46.7004 217.4 46.7004 217.4 46.8004C217.4 46.9004 217.5 47.0004 217.6 47.1004C217.6 47.1004 217.8 47.2004 217.9 47.3004C218 47.3004 218.1 47.4004 218.2 47.5004L218.6 47.7004C218.8 47.7004 219 47.9004 219.2 48.0004C219.4 48.1004 219.5 48.2004 219.7 48.4004C219.8 48.5004 219.9 48.7004 220 48.9004C220 49.1004 220.1 49.3004 220.1 49.5004C220.1 49.7004 220.1 50.0004 219.9 50.3004C219.8 50.5004 219.7 50.7004 219.5 50.9004C219.3 51.1004 219.1 51.2004 218.9 51.3004C218.7 51.3004 218.4 51.4004 218.1 51.4004C217.8 51.4004 217.6 51.4004 217.4 51.3004C217.2 51.3004 217 51.1004 216.8 51.0004C216.6 50.9004 216.5 50.7004 216.4 50.5004C216.3 50.3004 216.2 50.1004 216.2 49.8004L216.9 49.6004C216.9 49.8004 216.9 49.9004 217 50.0004C217 50.1004 217.2 50.3004 217.3 50.4004C217.4 50.5004 217.5 50.6004 217.7 50.6004C217.8 50.6004 218 50.6004 218.2 50.6004C218.4 50.6004 218.5 50.6004 218.7 50.6004C218.9 50.6004 219 50.5004 219.1 50.4004C219.2 50.3004 219.3 50.2004 219.4 50.0004C219.4 49.9004 219.5 49.7004 219.5 49.5004C219.5 49.3004 219.5 49.2004 219.5 49.0004C219.5 48.9004 219.3 48.8004 219.2 48.7004C219.1 48.7004 219 48.5004 218.8 48.5004C218.7 48.5004 218.5 48.4004 218.4 48.3004L218 48.1004C217.8 48.1004 217.6 47.9004 217.5 47.8004C217.3 47.8004 217.2 47.6004 217.1 47.5004C217 47.4004 216.9 47.2004 216.8 47.1004C216.8 46.9004 216.7 46.7004 216.7 46.5004C216.7 46.3004 216.7 46.0004 216.8 45.8004C216.8 45.6004 217 45.4004 217.2 45.3004C217.4 45.2004 217.5 45.1004 217.8 45.0004C218 45.0004 218.2 44.9004 218.5 44.9004C218.8 44.9004 219.2 44.9004 219.4 45.1004C219.7 45.3004 219.9 45.5004 220.1 45.8004L219.6 46.2004L219.3 46.3004Z" fill="#D1232A"/>
<path d="M225.6 46.3996C225.4 46.0996 225.1 45.8996 224.7 45.7996C224.4 45.6996 224 45.5996 223.7 45.5996C223.4 45.5996 223 45.5996 222.7 45.7996C222.4 45.9996 222.1 46.0996 221.9 46.3996C221.7 46.5996 221.5 46.8996 221.4 47.1996C221.3 47.4996 221.2 47.7996 221.2 48.1996C221.2 48.5996 221.2 48.8996 221.4 49.1996C221.5 49.4996 221.7 49.7996 221.9 49.9996C222.1 50.1996 222.4 50.3996 222.7 50.5996C223 50.6996 223.3 50.7996 223.7 50.7996C224.1 50.7996 224.4 50.7996 224.7 50.5996C225 50.3996 225.3 50.2996 225.6 49.9996V50.8996C225.3 51.0996 225 51.1996 224.7 51.2996C224.4 51.3996 224.1 51.4996 223.7 51.4996C223.3 51.4996 222.8 51.4996 222.5 51.2996C222.1 51.0996 221.8 50.8996 221.5 50.5996C221.2 50.2996 221 49.9996 220.8 49.5996C220.6 49.1996 220.5 48.7996 220.5 48.3996C220.5 47.9996 220.5 47.4996 220.8 47.0996C221 46.6996 221.2 46.3996 221.5 46.0996C221.8 45.7996 222.1 45.5996 222.5 45.3996C222.9 45.1996 223.3 45.0996 223.7 45.0996C224.4 45.0996 225 45.2996 225.5 45.6996V46.5996L225.6 46.3996Z" fill="#D1232A"/>
</g>
<path d="M227.2 45.0996H226.5V51.2996H227.2V45.0996Z" fill="#D1232A"/>
<path d="M228.2 45.0996H231.4V45.6996H228.9V47.4996H231.4V48.1996H228.9V50.5996H231.4V51.1996H228.2V45.0996Z" fill="#D1232A"/>
<path d="M232.4 44.8008L237.2 49.8008V45.1008H237.9V51.5008L233.1 46.5008V51.2008H232.4V44.8008Z" fill="#D1232A"/>
<mask id="mask5_124_5266" style="mask-type:luminance" maskUnits="userSpaceOnUse" x="-25" y="-2" width="301" height="61">
<path d="M275.9 -1.5H-24.7002V58.4H275.9V-1.5Z" fill="white"/>
</mask>
<g mask="url(#mask5_124_5266)">
<path d="M243.7 46.3996C243.5 46.0996 243.2 45.8996 242.8 45.7996C242.5 45.6996 242.1 45.5996 241.8 45.5996C241.5 45.5996 241.1 45.5996 240.8 45.7996C240.5 45.8996 240.2 46.0996 240 46.3996C239.8 46.5996 239.6 46.8996 239.5 47.1996C239.4 47.4996 239.3 47.7996 239.3 48.1996C239.3 48.5996 239.3 48.8996 239.5 49.1996C239.6 49.4996 239.8 49.7996 240 49.9996C240.2 50.1996 240.5 50.3996 240.8 50.5996C241.1 50.6996 241.4 50.7996 241.8 50.7996C242.2 50.7996 242.5 50.7996 242.8 50.5996C243.1 50.3996 243.4 50.2996 243.7 49.9996V50.8996C243.4 51.0996 243.1 51.1996 242.8 51.2996C242.5 51.3996 242.2 51.4996 241.8 51.4996C241.4 51.4996 240.9 51.4996 240.6 51.2996C240.2 51.0996 239.9 50.8996 239.6 50.5996C239.3 50.2996 239.1 49.9996 238.9 49.5996C238.7 49.1996 238.6 48.7996 238.6 48.3996C238.6 47.9996 238.6 47.4996 238.9 47.0996C239.1 46.6996 239.3 46.3996 239.6 46.0996C239.9 45.7996 240.2 45.5996 240.6 45.3996C241 45.1996 241.4 45.0996 241.8 45.0996C242.5 45.0996 243.1 45.2996 243.6 45.6996V46.5996L243.7 46.3996Z" fill="#D1232A"/>
</g>
<path d="M244.6 45.0996H247.8V45.6996H245.3V47.4996H247.7V48.1996H245.3V50.5996H247.8V51.1996H244.6V45.0996Z" fill="#D1232A"/>
<mask id="mask6_124_5266" style="mask-type:luminance" maskUnits="userSpaceOnUse" x="-25" y="-2" width="301" height="61">
<path d="M275.9 -1.5H-24.7002V58.4H275.9V-1.5Z" fill="white"/>
</mask>
<g mask="url(#mask6_124_5266)">
<path d="M189.2 29.0992C189.2 28.9992 189 28.8992 188.9 28.7992C188.9 28.7992 188.7 28.6992 188.5 28.6992C188.3 28.6992 188.3 28.6992 188.3 28.6992C188.3 28.6992 188.2 28.6992 188.1 28.7992C188.1 28.7992 188 28.8992 188 28.9992C188 28.9992 188 29.0992 188 29.1992C188 29.2992 188 29.2992 188 29.3992C188 29.3992 188 29.4992 188.1 29.5992C188.1 29.5992 188.2 29.5992 188.3 29.6992C188.3 29.6992 188.4 29.6992 188.5 29.6992H188.7C188.8 29.8992 188.9 29.8992 189 29.9992C189.1 29.9992 189.2 30.0992 189.3 30.1992C189.3 30.1992 189.4 30.3992 189.5 30.4992C189.5 30.5992 189.5 30.6992 189.5 30.8992C189.5 31.0992 189.5 31.1992 189.5 31.3992C189.5 31.4992 189.4 31.6992 189.2 31.7992C189.1 31.8992 189 31.9992 188.8 31.9992C188.7 31.9992 188.5 31.9992 188.3 31.9992C188.1 31.9992 188 31.9992 187.9 31.9992C187.8 31.9992 187.7 31.8992 187.6 31.7992C187.5 31.7992 187.4 31.5992 187.3 31.4992C187.3 31.3992 187.2 31.2992 187.2 31.0992H187.6C187.6 31.0992 187.6 31.0992 187.6 31.2992C187.6 31.2992 187.6 31.4992 187.8 31.4992C187.8 31.4992 187.9 31.5992 188 31.5992C188 31.5992 188.2 31.5992 188.3 31.5992C188.4 31.5992 188.5 31.5992 188.6 31.5992C188.6 31.5992 188.8 31.5992 188.8 31.3992C188.8 31.3992 188.9 31.2992 189 31.1992C189 31.1992 189 30.9992 189 30.8992C189 30.7992 189 30.6992 189 30.5992C189 30.5992 189 30.4992 188.8 30.3992C188.8 30.3992 188.7 30.2992 188.6 30.2992C188.5 30.2992 188.4 30.2992 188.3 30.1992H188.1C188 30.0992 187.9 29.9992 187.8 29.8992C187.8 29.8992 187.6 29.7992 187.5 29.6992C187.5 29.6992 187.4 29.4992 187.3 29.3992C187.3 29.3992 187.3 29.1992 187.3 29.0992C187.3 28.9992 187.3 28.7992 187.3 28.6992C187.3 28.5992 187.4 28.4992 187.5 28.3992C187.5 28.3992 187.7 28.2992 187.8 28.1992C187.9 28.1992 188.1 28.1992 188.2 28.1992C188.4 28.1992 188.6 28.1992 188.8 28.3992C189 28.3992 189.1 28.5992 189.2 28.7992L188.9 28.9992L189.2 29.0992Z" fill="#8C8989"/>
<path d="M192.9 29.1996C192.8 28.9996 192.6 28.8996 192.4 28.7996C192.2 28.7996 192 28.6996 191.8 28.6996C191.6 28.6996 191.4 28.6996 191.2 28.7996C191 28.7996 190.9 28.9996 190.7 29.0996C190.6 29.1996 190.5 29.3996 190.4 29.5996C190.4 29.7996 190.3 29.9996 190.3 30.1996C190.3 30.3996 190.3 30.5996 190.4 30.7996C190.4 30.9996 190.6 31.0996 190.7 31.2996C190.8 31.3996 191 31.5996 191.2 31.5996C191.4 31.5996 191.6 31.6996 191.8 31.6996C192 31.6996 192.2 31.6996 192.4 31.5996C192.6 31.5996 192.8 31.3996 192.9 31.1996V31.6996C192.7 31.7996 192.6 31.8996 192.4 31.9996C192.2 31.9996 192 31.9996 191.8 31.9996C191.6 31.9996 191.3 31.9996 191.1 31.7996C190.9 31.6996 190.7 31.5996 190.5 31.3996C190.3 31.1996 190.2 30.9996 190.1 30.7996C190 30.5996 189.9 30.2996 189.9 30.0996C189.9 29.8996 189.9 29.5996 190.1 29.2996C190.2 29.0996 190.3 28.8996 190.5 28.6996C190.7 28.4996 190.9 28.3996 191.1 28.2996C191.3 28.1996 191.6 28.0996 191.9 28.0996C192.3 28.0996 192.7 28.1996 193 28.4996V28.9996L192.9 29.1996Z" fill="#8C8989"/>
</g>
<path d="M195.8 29.9004V28.4004H196.2V32.1004H195.8V30.3004H193.9V32.1004H193.5V28.4004H193.9V29.9004H195.8Z" fill="#8C8989"/>
<mask id="mask7_124_5266" style="mask-type:luminance" maskUnits="userSpaceOnUse" x="-25" y="-2" width="301" height="61">
<path d="M275.9 -1.5H-24.7002V58.4H275.9V-1.5Z" fill="white"/>
</mask>
<g mask="url(#mask7_124_5266)">
<path d="M198.6 28.7008C198.4 28.7008 198.2 28.7008 198 28.8008C197.8 28.8008 197.7 29.0008 197.5 29.1008C197.4 29.2008 197.3 29.4008 197.2 29.6008C197.2 29.8008 197.1 30.0008 197.1 30.2008C197.1 30.4008 197.1 30.6008 197.2 30.8008C197.2 31.0008 197.4 31.1008 197.5 31.3008C197.6 31.4008 197.8 31.5008 198 31.6008C198.2 31.6008 198.4 31.7008 198.6 31.7008C198.8 31.7008 199 31.7008 199.2 31.6008C199.4 31.6008 199.5 31.4008 199.7 31.3008C199.8 31.2008 199.9 31.0008 200 30.8008C200 30.6008 200.1 30.4008 200.1 30.2008C200.1 30.0008 200.1 29.8008 200 29.6008C200 29.4008 199.8 29.2008 199.7 29.1008C199.6 29.0008 199.4 28.9008 199.2 28.8008C199 28.8008 198.8 28.7008 198.6 28.7008ZM198.6 28.3008C198.9 28.3008 199.1 28.3008 199.4 28.4008C199.6 28.5008 199.8 28.6008 200 28.8008C200.2 29.0008 200.3 29.2008 200.4 29.4008C200.5 29.6008 200.6 29.9008 200.6 30.1008C200.6 30.3008 200.6 30.6008 200.4 30.8008C200.3 31.0008 200.2 31.2008 200 31.4008C199.8 31.6008 199.6 31.7008 199.4 31.8008C199.2 31.9008 198.9 32.0008 198.6 32.0008C198.3 32.0008 198.1 32.0008 197.8 31.8008C197.6 31.7008 197.4 31.6008 197.2 31.4008C197 31.2008 196.9 31.0008 196.8 30.8008C196.7 30.6008 196.6 30.3008 196.6 30.1008C196.6 29.9008 196.6 29.6008 196.8 29.4008C196.9 29.2008 197 29.0008 197.2 28.8008C197.4 28.6008 197.6 28.5008 197.8 28.4008C198 28.3008 198.3 28.3008 198.6 28.3008Z" fill="#8C8989"/>
<path d="M202.699 28.7008C202.499 28.7008 202.299 28.7008 202.099 28.8008C201.899 28.8008 201.799 29.0008 201.599 29.1008C201.499 29.2008 201.399 29.4008 201.299 29.6008C201.299 29.8008 201.199 30.0008 201.199 30.2008C201.199 30.4008 201.199 30.6008 201.299 30.8008C201.299 31.0008 201.499 31.1008 201.599 31.3008C201.699 31.4008 201.899 31.5008 202.099 31.6008C202.299 31.6008 202.499 31.7008 202.699 31.7008C202.899 31.7008 203.099 31.7008 203.299 31.6008C203.499 31.6008 203.599 31.4008 203.799 31.3008C203.899 31.2008 203.999 31.0008 204.099 30.8008C204.099 30.6008 204.199 30.4008 204.199 30.2008C204.199 30.0008 204.199 29.8008 204.099 29.6008C204.099 29.4008 203.899 29.2008 203.799 29.1008C203.699 29.0008 203.499 28.9008 203.299 28.8008C203.099 28.8008 202.899 28.7008 202.699 28.7008ZM202.699 28.3008C202.999 28.3008 203.199 28.3008 203.499 28.4008C203.699 28.5008 203.899 28.6008 204.099 28.8008C204.299 29.0008 204.399 29.2008 204.499 29.4008C204.599 29.6008 204.699 29.9008 204.699 30.1008C204.699 30.3008 204.699 30.6008 204.499 30.8008C204.399 31.0008 204.299 31.2008 204.099 31.4008C203.899 31.6008 203.699 31.7008 203.499 31.8008C203.299 31.9008 202.999 32.0008 202.699 32.0008C202.399 32.0008 202.199 32.0008 201.899 31.8008C201.699 31.7008 201.499 31.6008 201.299 31.4008C201.099 31.2008 200.999 31.0008 200.899 30.8008C200.799 30.6008 200.699 30.3008 200.699 30.1008C200.699 29.9008 200.699 29.6008 200.899 29.4008C200.999 29.2008 201.099 29.0008 201.299 28.8008C201.499 28.6008 201.699 28.5008 201.899 28.4008C202.099 28.3008 202.399 28.3008 202.699 28.3008Z" fill="#8C8989"/>
</g>
<path d="M205.4 31.7004H206.5V32.1004H205V28.4004H205.4V31.7004Z" fill="#8C8989"/>
<mask id="mask8_124_5266" style="mask-type:luminance" maskUnits="userSpaceOnUse" x="-25" y="-2" width="301" height="61">
<path d="M275.9 -1.5H-24.7002V58.4H275.9V-1.5Z" fill="white"/>
</mask>
<g mask="url(#mask8_124_5266)">
<path d="M209.8 28.7008C209.6 28.7008 209.4 28.7008 209.2 28.8008C209 28.8008 208.9 29.0008 208.7 29.1008C208.6 29.2008 208.5 29.4008 208.4 29.6008C208.4 29.8008 208.3 30.0008 208.3 30.2008C208.3 30.4008 208.3 30.6008 208.4 30.8008C208.4 31.0008 208.6 31.1008 208.7 31.3008C208.8 31.4008 209 31.5008 209.2 31.6008C209.4 31.6008 209.6 31.7008 209.8 31.7008C210 31.7008 210.2 31.7008 210.4 31.6008C210.6 31.6008 210.7 31.4008 210.9 31.3008C211 31.2008 211.1 31.0008 211.2 30.8008C211.2 30.6008 211.3 30.4008 211.3 30.2008C211.3 30.0008 211.3 29.8008 211.2 29.6008C211.2 29.4008 211 29.2008 210.9 29.1008C210.8 29.0008 210.6 28.9008 210.4 28.8008C210.2 28.8008 210 28.7008 209.8 28.7008ZM209.8 28.3008C210.1 28.3008 210.3 28.3008 210.6 28.4008C210.9 28.5008 211 28.6008 211.2 28.8008C211.4 29.0008 211.5 29.2008 211.6 29.4008C211.7 29.6008 211.8 29.9008 211.8 30.1008C211.8 30.3008 211.8 30.6008 211.6 30.8008C211.5 31.0008 211.4 31.2008 211.2 31.4008C211 31.6008 210.8 31.7008 210.6 31.8008C210.4 31.9008 210.1 32.0008 209.8 32.0008C209.5 32.0008 209.3 32.0008 209 31.8008C208.8 31.7008 208.6 31.6008 208.4 31.4008C208.2 31.2008 208.1 31.0008 208 30.8008C207.9 30.6008 207.8 30.3008 207.8 30.1008C207.8 29.9008 207.8 29.6008 208 29.4008C208.1 29.2008 208.2 29.0008 208.4 28.8008C208.6 28.6008 208.8 28.5008 209 28.4008C209.2 28.3008 209.5 28.3008 209.8 28.3008Z" fill="#8C8989"/>
</g>
<path d="M212.6 28.8004V29.9004H213.8V30.3004H212.6V32.1004H212.2V28.4004H213.9V28.8004H212.6Z" fill="#8C8989"/>
<path d="M39.5002 34.8004H38.7002V29.2004H37.2002V28.4004H41.0002V29.2004H39.5002V34.8004Z" fill="#003974"/>
<path d="M45.5002 31.0004V28.4004H46.2002V34.8004H45.5002V31.7004H42.4002V34.8004H41.7002V28.4004H42.4002V31.0004H45.5002Z" fill="#003974"/>
<path d="M47.5 28.4004H50.9V29.2004H48.2V30.9004H50.8V31.7004H48.2V34.0004H50.9V34.8004H47.5V28.4004Z" fill="#003974"/>
<path d="M58.0998 31.0004V28.4004H58.8998V34.8004H58.0998V31.7004H55.0998V34.8004H54.2998V28.4004H55.0998V31.0004H58.0998Z" fill="#003974"/>
<path d="M65.5002 31.6008C65.5002 30.2008 64.5002 29.0008 63.0002 29.0008C61.5002 29.0008 60.5002 30.2008 60.5002 31.6008C60.5002 33.0008 61.7002 34.2008 63.0002 34.2008C64.3002 34.2008 65.5002 33.1008 65.5002 31.6008ZM66.3002 31.6008C66.3002 33.5008 64.8002 34.9008 63.0002 34.9008C61.2002 34.9008 59.7002 33.5008 59.7002 31.6008C59.7002 29.7008 61.2002 28.3008 63.0002 28.3008C64.8002 28.3008 66.3002 29.8008 66.3002 31.6008Z" fill="#003974"/>
<path d="M67.0996 28.1016L71.7996 33.1016V28.4016H72.5996V35.0016L67.8996 30.1016V34.8016H67.0996V28.1016Z" fill="#003974"/>
<path d="M79.5994 31.6004V31.9004C79.5994 33.6004 78.3994 35.0004 76.5994 35.0004C74.7994 35.0004 73.3994 33.5004 73.3994 31.7004C73.3994 29.9004 74.8994 28.4004 76.6994 28.4004C78.4994 28.4004 78.5994 28.8004 79.2994 29.6004L78.6994 30.1004C78.1994 29.5004 77.4994 29.1004 76.6994 29.1004C75.2994 29.1004 74.1994 30.2004 74.1994 31.7004C74.1994 33.2004 75.2994 34.3004 76.6994 34.3004C78.0994 34.3004 78.6994 33.5004 78.7994 32.4004H77.1994V31.7004H79.6994L79.5994 31.6004Z" fill="#003974"/>
<path d="M86.3994 28.4004H87.3994L84.5994 31.3004L87.4994 34.8004H86.3994L83.9994 31.8004L83.6994 32.1004V34.8004H82.8994V28.4004H83.6994V31.2004L86.3994 28.4004Z" fill="#003974"/>
<path d="M93.3996 31.6008C93.3996 30.2008 92.3996 29.0008 90.8996 29.0008C89.3996 29.0008 88.3996 30.2008 88.3996 31.6008C88.3996 33.0008 89.5996 34.2008 90.8996 34.2008C92.1996 34.2008 93.3996 33.1008 93.3996 31.6008ZM94.1996 31.6008C94.1996 33.5008 92.6996 34.9008 90.8996 34.9008C89.0996 34.9008 87.5996 33.5008 87.5996 31.6008C87.5996 29.7008 89.0996 28.3008 90.8996 28.3008C92.6996 28.3008 94.1996 29.8008 94.1996 31.6008Z" fill="#003974"/>
<path d="M95 28.1016L99.7 33.1016V28.4016H100.5V35.0016L95.8 30.1016V34.8016H95V28.1016Z" fill="#003974"/>
<path d="M107.5 31.6004V31.9004C107.5 33.6004 106.3 35.0004 104.5 35.0004C102.7 35.0004 101.3 33.5004 101.3 31.7004C101.3 29.9004 102.8 28.4004 104.6 28.4004C106.4 28.4004 106.6 28.8004 107.2 29.6004L106.6 30.1004C106.1 29.5004 105.4 29.1004 104.6 29.1004C103.2 29.1004 102.1 30.2004 102.1 31.7004C102.1 33.2004 103.2 34.3004 104.6 34.3004C106 34.3004 106.6 33.5004 106.7 32.4004H105.1V31.7004H107.6L107.5 31.6004Z" fill="#003974"/>
<path d="M38.5002 38.5V42.2C38.5002 43.2 38.8002 44.2 40.0002 44.2C41.2002 44.2 41.5002 43.2 41.5002 42.2V38.5H42.3002V42.5C42.3002 43.9 41.4002 45 40.0002 45C38.6002 45 37.7002 43.9 37.7002 42.5V38.5H38.5002Z" fill="#003974"/>
<path d="M43.3994 38.2012L48.1994 43.1012V38.5012H48.9994V45.1012L44.1994 40.1012V44.8012H43.3994V38.2012Z" fill="#003974"/>
<path d="M50.8996 38.5H50.0996V44.8H50.8996V38.5Z" fill="#003974"/>
<path d="M54.3 43.2L56.2 38.5H57L54.3 45.1L51.5 38.5H52.4L54.3 43.2Z" fill="#003974"/>
<path d="M57.5996 38.5H60.9996V39.2H58.3996V41H60.8996V41.7H58.3996V44.1H60.9996V44.8H57.5996V38.5Z" fill="#003974"/>
<path d="M62.9 41.5H63.2C64 41.5 64.9 41.3 64.9 40.3C64.9 39.3 64 39.2 63.2 39.2H63V41.5H62.9ZM66 44.8H65L63.1 42.1H62.8V44.8H62V38.5H63C63.6 38.5 64.2 38.5 64.7 38.8C65.2 39.1 65.5 39.7 65.5 40.3C65.5 41.2 64.9 42 64 42.1L66 44.8Z" fill="#003974"/>
<path d="M69.4994 39.7004C69.2994 39.3004 68.9994 39.1004 68.4994 39.1004C67.9994 39.1004 67.3994 39.4004 67.3994 40.0004C67.3994 40.6004 67.8994 40.8004 68.2994 40.9004L68.7994 41.1004C69.6994 41.5004 70.3994 41.9004 70.3994 43.0004C70.3994 44.1004 69.4994 45.0004 68.3994 45.0004C67.2994 45.0004 66.5994 44.2004 66.3994 43.2004L67.1994 43.0004C67.1994 43.7004 67.6994 44.2004 68.3994 44.2004C69.0994 44.2004 69.5994 43.6004 69.5994 43.0004C69.5994 42.4004 69.0994 42.0004 68.4994 41.8004L68.0994 41.6004C67.3994 41.3004 66.6994 40.9004 66.6994 40.0004C66.6994 39.1004 67.5994 38.4004 68.5994 38.4004C69.5994 38.4004 69.8994 38.7004 70.1994 39.4004L69.5994 39.8004L69.4994 39.7004Z" fill="#003974"/>
<path d="M72.0998 38.5H71.2998V44.8H72.0998V38.5Z" fill="#003974"/>
<path d="M75.0002 44.8H74.2002V39.2H72.7002V38.5H76.5002V39.2H75.0002V44.8Z" fill="#003974"/>
<path d="M76.5996 38.5H77.4996L78.9996 41.2L80.5996 38.5H81.4996L79.3996 42.1V44.8H78.5996V42.1L76.5996 38.5Z" fill="#003974"/>
<path d="M90.0002 41.6008C90.0002 40.2008 89.0002 39.0008 87.5002 39.0008C86.0002 39.0008 85.0002 40.2008 85.0002 41.6008C85.0002 43.0008 86.2002 44.2008 87.5002 44.2008C88.8002 44.2008 90.0002 43.1008 90.0002 41.6008ZM90.8002 41.6008C90.8002 43.5008 89.3002 44.9008 87.5002 44.9008C85.7002 44.9008 84.2002 43.5008 84.2002 41.6008C84.2002 39.7008 85.7002 38.3008 87.5002 38.3008C89.3002 38.3008 90.8002 39.8008 90.8002 41.6008Z" fill="#003974"/>
<path d="M92.3996 39.2V41H94.5996V41.7H92.3996V44.8H91.5996V38.5H94.6996V39.2H92.3996Z" fill="#003974"/>
<path d="M100.999 39.7004C100.799 39.3004 100.499 39.1004 99.9994 39.1004C99.4994 39.1004 98.8994 39.4004 98.8994 40.0004C98.8994 40.6004 99.3994 40.8004 99.7994 40.9004L100.299 41.1004C101.199 41.5004 101.899 41.9004 101.899 43.0004C101.899 44.1004 100.999 45.0004 99.8994 45.0004C98.7994 45.0004 98.0994 44.2004 97.8994 43.2004L98.6994 43.0004C98.6994 43.7004 99.1994 44.2004 99.8994 44.2004C100.599 44.2004 101.099 43.6004 101.099 43.0004C101.099 42.4004 100.599 42.0004 99.9994 41.8004L99.5994 41.6004C98.8994 41.3004 98.1994 40.9004 98.1994 40.0004C98.1994 39.1004 99.0994 38.4004 100.099 38.4004C101.099 38.4004 101.399 38.7004 101.699 39.4004L101.099 39.8004L100.999 39.7004Z" fill="#003974"/>
<path d="M107.3 39.7008C106.8 39.3008 106.2 39.1008 105.6 39.1008C104.2 39.1008 103.1 40.3008 103.1 41.7008C103.1 43.1008 104.2 44.3008 105.6 44.3008C107 44.3008 106.8 44.1008 107.3 43.6008V44.5008C106.8 44.8008 106.2 44.9008 105.6 44.9008C103.8 44.9008 102.3 43.5008 102.3 41.6008C102.3 39.7008 103.8 38.3008 105.7 38.3008C107.6 38.3008 106.8 38.4008 107.3 38.7008V39.6008V39.7008Z" fill="#003974"/>
<path d="M109.1 38.5H108.3V44.8H109.1V38.5Z" fill="#003974"/>
<path d="M110.399 38.5H113.799V39.2H111.199V41H113.699V41.7H111.199V44.1H113.799V44.8H110.399V38.5Z" fill="#003974"/>
<path d="M114.7 38.2012L119.5 43.1012V38.5012H120.3V45.1012L115.5 40.1012V44.8012H114.7V38.2012Z" fill="#003974"/>
<path d="M126.1 39.7008C125.6 39.3008 125 39.1008 124.4 39.1008C123 39.1008 121.9 40.3008 121.9 41.7008C121.9 43.1008 123 44.3008 124.4 44.3008C125.8 44.3008 125.6 44.1008 126.1 43.6008V44.5008C125.6 44.8008 125 44.9008 124.4 44.9008C122.6 44.9008 121.1 43.5008 121.1 41.6008C121.1 39.7008 122.6 38.3008 124.5 38.3008C126.4 38.3008 125.6 38.4008 126.1 38.7008V39.6008V39.7008Z" fill="#003974"/>
<path d="M127.1 38.5H130.5V39.2H127.9V41H130.4V41.7H127.9V44.1H130.5V44.8H127.1V38.5Z" fill="#003974"/>
<path d="M40.2002 50.0008L39.1002 52.6008H41.3002L40.2002 50.0008ZM38.7002 53.3008L38.0002 54.9008H37.2002L40.2002 48.3008L43.2002 54.9008H42.4002L41.7002 53.3008H38.8002H38.7002Z" fill="#003974"/>
<path d="M43.7002 48.2012L48.5002 53.2012V48.5012H49.2002V55.1012L44.5002 50.1012V54.8012H43.7002V48.2012Z" fill="#003974"/>
<path d="M51.1998 54.1H51.4998C53.0998 54.1 54.4998 53.5 54.4998 51.7C54.4998 49.9 53.0998 49.3 51.4998 49.3H51.1998V54.2V54.1ZM50.3998 48.5H51.6998C53.5998 48.5 55.1998 49.5 55.1998 51.6C55.1998 53.7 53.5998 54.8 51.5998 54.8H50.2998V48.5H50.3998Z" fill="#003974"/>
<path d="M60.3 54.8H59.5V49.2H58V48.5H61.8V49.2H60.3V54.8Z" fill="#003974"/>
<path d="M62.5 48.5H65.9V49.2H63.3V51H65.8V51.7H63.3V54.1H65.9V54.8H62.5V48.5Z" fill="#003974"/>
<path d="M71.5 49.7008C71 49.3008 70.4 49.1008 69.8 49.1008C68.4 49.1008 67.3 50.3008 67.3 51.7008C67.3 53.1008 68.4 54.3008 69.8 54.3008C71.2 54.3008 71 54.1008 71.5 53.6008V54.5008C71 54.8008 70.4 54.9008 69.8 54.9008C68 54.9008 66.5 53.5008 66.5 51.6008C66.5 49.7008 68 48.3008 69.9 48.3008C71.8 48.3008 71 48.4008 71.5 48.7008V49.6008V49.7008Z" fill="#003974"/>
<path d="M76.3 51.1V48.5H77.1V54.8H76.3V51.8H73.3V54.8H72.5V48.5H73.3V51.1H76.3Z" fill="#003974"/>
<path d="M78.2002 48.2012L83.0002 53.2012V48.5012H83.7002V55.1012L79.0002 50.1012V54.8012H78.2002V48.2012Z" fill="#003974"/>
<path d="M90.3 51.7004C90.3 50.3004 89.3 49.1004 87.8 49.1004C86.3 49.1004 85.3 50.3004 85.3 51.7004C85.3 53.1004 86.5 54.3004 87.8 54.3004C89.1 54.3004 90.3 53.2004 90.3 51.7004ZM91.1 51.7004C91.1 53.6004 89.6 55.0004 87.8 55.0004C86 55.0004 84.5 53.6004 84.5 51.7004C84.5 49.8004 86 48.4004 87.8 48.4004C89.6 48.4004 91.1 49.9004 91.1 51.7004Z" fill="#003974"/>
<path d="M92.8 54.1H94.7V54.8H92V48.5H92.8V54.1Z" fill="#003974"/>
<path d="M100.7 51.7004C100.7 50.3004 99.6998 49.1004 98.1998 49.1004C96.6998 49.1004 95.6998 50.3004 95.6998 51.7004C95.6998 53.1004 96.8998 54.3004 98.1998 54.3004C99.4998 54.3004 100.7 53.2004 100.7 51.7004ZM101.4 51.7004C101.4 53.6004 99.8998 55.0004 98.0998 55.0004C96.2998 55.0004 94.7998 53.6004 94.7998 51.7004C94.7998 49.8004 96.2998 48.4004 98.0998 48.4004C99.8998 48.4004 101.4 49.9004 101.4 51.7004Z" fill="#003974"/>
<path d="M108 51.7V52C108 53.7 106.8 55.1 105 55.1C103.2 55.1 101.8 53.6 101.8 51.8C101.8 50 103.3 48.5 105.1 48.5C106.9 48.5 107.1 48.9 107.7 49.7L107.1 50.2C106.6 49.6 105.9 49.2 105.1 49.2C103.7 49.2 102.6 50.3 102.6 51.8C102.6 53.3 103.7 54.4 105.1 54.4C106.5 54.4 107.1 53.6 107.2 52.5H105.6V51.8H108.1L108 51.7Z" fill="#003974"/>
<path d="M108.2 48.5H109.2L110.7 51.2L112.2 48.5H113.2L111.1 52.1V54.8H110.3V52.1L108.2 48.5Z" fill="#003974"/>
<path d="M29.5998 55.0008L26.3998 49.6008C26.3998 49.6008 26.2998 49.5008 26.2998 49.3008V39.3008H25.0998V49.6008C25.1998 49.7008 27.1998 53.2008 27.1998 53.2008H22.1998C22.1998 53.2008 24.1998 49.7008 24.2998 49.6008V39.3008H23.0998V49.2008C23.0998 49.5008 22.9998 49.6008 22.9998 49.6008L19.7998 55.0008H29.6998H29.5998Z" fill="#A68237"/>
<path d="M28.6001 32.3008C28.6001 32.3008 29.2001 29.8008 27.0001 28.1008C27.0001 28.1008 26.1001 27.3008 24.5001 27.3008C22.9001 27.3008 22.2001 28.1008 22.2001 28.1008C20.2001 29.5008 20.7001 32.3008 20.7001 32.3008H28.6001Z" fill="#A68237"/>
<path d="M20.9998 33.0016H28.3998C28.3998 32.9016 28.4998 32.7016 28.4998 32.6016H20.7998C20.7998 32.7016 20.7998 32.9016 20.9998 33.0016Z" fill="#A68237"/>
<path d="M28.2996 33.3008H21.0996C21.0996 33.4008 21.2996 33.6008 21.2996 33.7008H27.9996C27.9996 33.6008 28.1996 33.4008 28.1996 33.3008" fill="#A68237"/>
<path d="M21.8 34.3H27.5C27.6 34.2 27.7 34.1 27.8 34H21.5C21.5 34.1 21.7 34.2 21.8 34.3Z" fill="#A68237"/>
<path d="M22.4 34.8H26.9C27 34.8 27.1 34.6 27.2 34.5H22C22.1 34.5 22.2 34.7 22.3 34.8" fill="#A68237"/>
<path d="M23.0996 35.2012C23.5996 35.4012 24.0996 35.5012 24.6996 35.5012C25.2996 35.5012 25.7996 35.4012 26.2996 35.2012H23.0996Z" fill="#A68237"/>
<path d="M32.3998 35.7012H26.2998C26.2998 35.7012 25.6998 35.7012 25.2998 36.0012C24.9998 36.2012 24.6998 36.8012 24.6998 36.8012C24.6998 36.8012 24.3998 36.2012 24.0998 36.0012C23.6998 35.7012 23.0998 35.7012 23.0998 35.7012H16.9998L15.7998 37.6012H21.3998C21.3998 37.6012 21.5998 37.6012 21.6998 37.6012C21.8998 37.6012 22.1998 37.7012 22.4998 37.9012C22.8998 38.2012 22.9998 38.3012 23.0998 38.5012L23.2998 38.7012H26.2998L26.4998 38.5012C26.5998 38.4012 26.6998 38.2012 27.0998 37.9012C27.3998 37.7012 27.6998 37.6012 27.8998 37.6012C27.9998 37.6012 28.1998 37.6012 28.1998 37.6012H33.7998L32.5998 35.7012H32.3998Z" fill="#003974"/>
<path d="M16.3994 38.3012V47.4012C16.3994 47.6012 16.3994 47.7012 16.3994 47.8012C16.4994 48.8012 16.7994 49.5012 17.3994 50.4012C18.2994 51.9012 19.8994 52.9012 19.8994 52.9012L20.6994 51.7012C20.6994 51.7012 19.6994 51.1012 18.7994 49.9012C18.5994 49.6012 18.4994 49.4012 18.3994 49.2012C18.2994 49.0012 18.1994 48.8012 18.0994 48.6012C18.0994 48.5012 18.0994 48.3012 17.9994 48.2012C17.9994 48.0012 17.9994 47.9012 17.9994 47.7012V47.4012V38.2012H16.4994L16.3994 38.3012Z" fill="#003974"/>
<path d="M18.7002 38.3012V47.5012C18.7002 47.6012 18.7002 47.7012 18.7002 47.7012C18.7002 47.9012 18.7002 48.1012 18.8002 48.3012C18.9002 48.6012 19.1002 49.0012 19.4002 49.4012C20.1002 50.5012 21.1002 51.0012 21.1002 51.0012L21.9002 49.8012C21.9002 49.8012 21.6002 49.7012 21.3002 49.4012C21.1002 49.2012 20.9002 48.9012 20.6002 48.6012C20.4002 48.3012 20.3002 48.0012 20.2002 47.7012C20.2002 47.5012 20.2002 47.3012 20.2002 47.2012V47.1012V38.2012H18.7002V38.3012Z" fill="#003974"/>
<path d="M33.0002 38.3012V47.4012C33.0002 47.6012 33.0002 47.7012 33.0002 47.8012C32.9002 48.8012 32.6002 49.5012 32.0002 50.4012C31.1002 51.9012 29.5002 52.9012 29.5002 52.9012L28.7002 51.7012C28.7002 51.7012 29.7002 51.1012 30.6002 49.9012C30.8002 49.6012 30.9002 49.4012 31.0002 49.2012C31.1002 49.0012 31.2002 48.8012 31.3002 48.6012C31.3002 48.5012 31.3002 48.3012 31.4002 48.2012C31.4002 48.0012 31.4002 47.9012 31.4002 47.7012V47.4012V38.2012H32.9002L33.0002 38.3012Z" fill="#003974"/>
<path d="M30.7 38.3012V47.5012C30.7 47.6012 30.7 47.7012 30.7 47.7012C30.7 47.9012 30.7 48.1012 30.6 48.3012C30.5 48.6012 30.3 49.0012 30 49.4012C29.3 50.5012 28.3 51.0012 28.3 51.0012L27.5 49.8012C27.5 49.8012 27.8 49.7012 28.1 49.4012C28.3 49.2012 28.5 48.9012 28.8 48.6012C29 48.3012 29.1 48.0012 29.2 47.7012C29.2 47.5012 29.2 47.3012 29.2 47.2012V47.1012V38.2012H30.7V38.3012Z" fill="#003974"/>
<path d="M142.6 23.6992H142V58.3992H142.6V23.6992Z" fill="#003974"/>
<path d="M266.9 23.6992H151V58.3992H266.9V23.6992Z" fill="#C5C5C5"/>
<path d="M162.018 37.1652V38.8752H165.609V37.1652H162.018ZM161.361 36.5262H166.302V39.5232H161.361V36.5262ZM160.047 40.4862H163.251V44.3382H162.576V41.1252H160.695V44.4192H160.047V40.4862ZM164.241 40.4862H167.625V44.3652H166.941V41.1252H164.889V44.4192H164.241V40.4862ZM160.344 43.2762H162.855V43.9332H160.344V43.2762ZM164.565 43.2762H167.238V43.9332H164.565V43.2762ZM171.846 41.9532H176.913V42.5382H171.846V41.9532ZM174.87 40.6932H175.509V44.4102H174.87V40.6932ZM173.997 36.1122L174.753 36.2562C174.645 36.4602 174.528 36.6672 174.402 36.8772C174.282 37.0872 174.174 37.2642 174.078 37.4082L173.529 37.2642C173.613 37.0962 173.697 36.9042 173.781 36.6882C173.871 36.4722 173.943 36.2802 173.997 36.1122ZM174.15 37.3452H174.735V38.8032C174.735 39.0732 174.708 39.3492 174.654 39.6312C174.606 39.9132 174.507 40.1892 174.357 40.4592C174.213 40.7292 174 40.9872 173.718 41.2332C173.442 41.4732 173.079 41.6922 172.629 41.8902C172.593 41.8482 172.548 41.8032 172.494 41.7552C172.44 41.7072 172.383 41.6622 172.323 41.6202C172.269 41.5722 172.221 41.5332 172.179 41.5032C172.605 41.3232 172.947 41.1222 173.205 40.9002C173.469 40.6782 173.667 40.4502 173.799 40.2162C173.937 39.9762 174.03 39.7362 174.078 39.4962C174.126 39.2562 174.15 39.0222 174.15 38.7942V37.3452ZM169.497 38.6142H172.017V39.1992H169.497V38.6142ZM170.676 36.1482H171.279V38.9742H170.676V36.1482ZM169.533 40.5222H171.558V44.4102H170.946V41.1072H169.533V40.5222ZM169.209 36.3192H169.803V39.7752C169.803 40.1352 169.794 40.5162 169.776 40.9182C169.764 41.3142 169.737 41.7192 169.695 42.1332C169.653 42.5412 169.59 42.9432 169.506 43.3392C169.428 43.7292 169.323 44.0952 169.191 44.4372C169.149 44.4072 169.092 44.3772 169.02 44.3472C168.954 44.3232 168.885 44.2992 168.813 44.2752C168.741 44.2512 168.675 44.2302 168.615 44.2122C168.747 43.8882 168.852 43.5372 168.93 43.1592C169.008 42.7812 169.068 42.3942 169.11 41.9982C169.152 41.6022 169.179 41.2152 169.191 40.8372C169.203 40.4532 169.209 40.0992 169.209 39.7752V36.3192ZM172.845 38.9922V39.9462H176.04V38.9922H172.845ZM172.845 37.5342V38.4792H176.04V37.5342H172.845ZM172.233 37.0032H176.661V40.4772H172.233V37.0032ZM178.056 36.5352H185.553V44.4192H184.878V37.1472H178.704V44.4192H178.056V36.5352ZM178.434 43.4382H185.265V44.0412H178.434V43.4382ZM180.675 41.1882L180.963 40.7742C181.203 40.8222 181.455 40.8852 181.719 40.9632C181.983 41.0352 182.235 41.1162 182.475 41.2062C182.721 41.2902 182.928 41.3712 183.096 41.4492L182.817 41.9082C182.649 41.8242 182.442 41.7372 182.196 41.6472C181.956 41.5512 181.701 41.4642 181.431 41.3862C181.167 41.3082 180.915 41.2422 180.675 41.1882ZM181.026 37.3272L181.593 37.5252C181.425 37.7952 181.224 38.0622 180.99 38.3262C180.762 38.5842 180.519 38.8242 180.261 39.0462C180.009 39.2682 179.757 39.4632 179.505 39.6312C179.475 39.5892 179.43 39.5442 179.37 39.4962C179.31 39.4422 179.25 39.3912 179.19 39.3432C179.13 39.2952 179.076 39.2562 179.028 39.2262C179.412 38.9982 179.784 38.7192 180.144 38.3892C180.504 38.0532 180.798 37.6992 181.026 37.3272ZM183.429 38.0472H183.555L183.654 38.0202L184.041 38.2452C183.813 38.6172 183.516 38.9592 183.15 39.2712C182.79 39.5772 182.388 39.8502 181.944 40.0902C181.506 40.3302 181.05 40.5372 180.576 40.7112C180.108 40.8852 179.646 41.0262 179.19 41.1342C179.166 41.0802 179.136 41.0172 179.1 40.9452C179.07 40.8732 179.034 40.8072 178.992 40.7472C178.95 40.6812 178.908 40.6272 178.866 40.5852C179.31 40.4952 179.76 40.3752 180.216 40.2252C180.672 40.0752 181.107 39.8952 181.521 39.6852C181.941 39.4752 182.316 39.2412 182.646 38.9832C182.976 38.7252 183.237 38.4462 183.429 38.1462V38.0472ZM180.63 38.5422C180.894 38.8542 181.242 39.1422 181.674 39.4062C182.106 39.6702 182.583 39.8982 183.105 40.0902C183.633 40.2762 184.167 40.4202 184.707 40.5222C184.647 40.5762 184.578 40.6542 184.5 40.7562C184.428 40.8582 184.371 40.9512 184.329 41.0352C183.783 40.9152 183.243 40.7472 182.709 40.5312C182.181 40.3152 181.692 40.0572 181.242 39.7572C180.798 39.4572 180.429 39.1272 180.135 38.7672L180.63 38.5422ZM180.819 38.0472H183.636V38.5692H180.459L180.819 38.0472ZM179.775 42.3312L180.09 41.8722C180.396 41.9082 180.714 41.9562 181.044 42.0162C181.38 42.0702 181.713 42.1332 182.043 42.2052C182.373 42.2712 182.682 42.3432 182.97 42.4212C183.264 42.4992 183.519 42.5742 183.735 42.6462L183.438 43.1502C183.15 43.0482 182.799 42.9462 182.385 42.8442C181.971 42.7362 181.536 42.6372 181.08 42.5472C180.624 42.4512 180.189 42.3792 179.775 42.3312ZM190.539 36.1482L191.196 36.2652C190.962 36.6912 190.668 37.1232 190.314 37.5612C189.966 37.9992 189.552 38.4072 189.072 38.7852C189.012 38.7132 188.934 38.6412 188.838 38.5692C188.742 38.4912 188.652 38.4312 188.568 38.3892C188.88 38.1732 189.162 37.9362 189.414 37.6782C189.666 37.4202 189.885 37.1622 190.071 36.9042C190.263 36.6402 190.419 36.3882 190.539 36.1482ZM190.593 36.7152H192.762V37.2462H190.17L190.593 36.7152ZM189.954 38.4072V39.4332H193.95V38.4072H189.954ZM189.333 37.9122H194.598V39.9282H189.333V37.9122ZM191.61 38.1192H192.222V39.6492H191.61V38.1192ZM191.637 39.4782L192.168 39.6942C191.922 39.9222 191.631 40.1412 191.295 40.3512C190.965 40.5612 190.614 40.7532 190.242 40.9272C189.876 41.1012 189.519 41.2512 189.171 41.3772C189.147 41.3352 189.111 41.2842 189.063 41.2242C189.015 41.1642 188.964 41.1072 188.91 41.0532C188.862 40.9932 188.817 40.9452 188.775 40.9092C189.123 40.8012 189.474 40.6752 189.828 40.5312C190.188 40.3872 190.524 40.2252 190.836 40.0452C191.154 39.8652 191.421 39.6762 191.637 39.4782ZM190.692 40.4412L191.142 40.1622C191.484 40.4082 191.76 40.6842 191.97 40.9902C192.186 41.2962 192.345 41.6112 192.447 41.9352C192.549 42.2532 192.603 42.5592 192.609 42.8532C192.615 43.1412 192.576 43.3992 192.492 43.6272C192.408 43.8552 192.288 44.0262 192.132 44.1402C192 44.2482 191.868 44.3202 191.736 44.3562C191.604 44.3982 191.448 44.4222 191.268 44.4282C191.172 44.4282 191.061 44.4252 190.935 44.4192C190.815 44.4132 190.692 44.4072 190.566 44.4012C190.56 44.3232 190.545 44.2272 190.521 44.1132C190.497 44.0052 190.458 43.9062 190.404 43.8162C190.548 43.8342 190.683 43.8462 190.809 43.8522C190.941 43.8582 191.049 43.8612 191.133 43.8612C191.247 43.8612 191.346 43.8522 191.43 43.8342C191.52 43.8162 191.604 43.7742 191.682 43.7082C191.82 43.6062 191.913 43.4352 191.961 43.1952C192.015 42.9492 192.012 42.6672 191.952 42.3492C191.892 42.0252 191.76 41.6982 191.556 41.3682C191.352 41.0322 191.064 40.7232 190.692 40.4412ZM191.502 40.8012L191.907 41.0802C191.703 41.2722 191.445 41.4672 191.133 41.6652C190.827 41.8632 190.506 42.0492 190.17 42.2232C189.834 42.3912 189.513 42.5322 189.207 42.6462C189.165 42.5802 189.111 42.5022 189.045 42.4122C188.985 42.3222 188.922 42.2472 188.856 42.1872C189.156 42.0972 189.474 41.9772 189.81 41.8272C190.146 41.6772 190.464 41.5122 190.764 41.3322C191.07 41.1522 191.316 40.9752 191.502 40.8012ZM191.97 41.7732L192.42 42.0882C192.168 42.3522 191.853 42.6192 191.475 42.8892C191.097 43.1532 190.698 43.3992 190.278 43.6272C189.858 43.8552 189.453 44.0412 189.063 44.1852C189.021 44.1072 188.964 44.0202 188.892 43.9242C188.826 43.8282 188.757 43.7502 188.685 43.6902C188.973 43.5942 189.273 43.4772 189.585 43.3392C189.897 43.2012 190.2 43.0452 190.494 42.8712C190.794 42.6972 191.07 42.5172 191.322 42.3312C191.58 42.1452 191.796 41.9592 191.97 41.7732ZM194.391 40.1982L194.868 40.6032C194.634 40.8072 194.373 41.0142 194.085 41.2242C193.797 41.4282 193.533 41.6022 193.293 41.7462L192.897 41.3862C193.053 41.2842 193.221 41.1642 193.401 41.0262C193.587 40.8882 193.767 40.7472 193.941 40.6032C194.115 40.4592 194.265 40.3242 194.391 40.1982ZM192.636 39.5772C192.762 40.1472 192.933 40.6902 193.149 41.2062C193.365 41.7162 193.629 42.1692 193.941 42.5652C194.259 42.9552 194.616 43.2642 195.012 43.4922C194.964 43.5342 194.91 43.5882 194.85 43.6542C194.79 43.7142 194.733 43.7772 194.679 43.8432C194.631 43.9092 194.589 43.9722 194.553 44.0322C194.139 43.7622 193.77 43.4082 193.446 42.9702C193.122 42.5322 192.849 42.0342 192.627 41.4762C192.405 40.9182 192.222 40.3242 192.078 39.6942L192.636 39.5772ZM192.546 36.7152H192.69L192.816 36.6792L193.23 36.9672C193.086 37.2132 192.915 37.4652 192.717 37.7232C192.525 37.9752 192.342 38.1882 192.168 38.3622C192.12 38.3022 192.057 38.2332 191.979 38.1552C191.901 38.0772 191.835 38.0172 191.781 37.9752C191.925 37.8192 192.069 37.6362 192.213 37.4262C192.357 37.2102 192.468 37.0122 192.546 36.8322V36.7152ZM188.397 36.1842L189.018 36.3552C188.85 36.8772 188.649 37.3932 188.415 37.9032C188.187 38.4132 187.938 38.8962 187.668 39.3522C187.398 39.8022 187.113 40.2012 186.813 40.5492C186.795 40.4952 186.765 40.4262 186.723 40.3422C186.681 40.2522 186.636 40.1652 186.588 40.0812C186.54 39.9912 186.498 39.9192 186.462 39.8652C186.726 39.5592 186.978 39.2112 187.218 38.8212C187.458 38.4252 187.677 38.0022 187.875 37.5522C188.079 37.1022 188.253 36.6462 188.397 36.1842ZM187.668 38.3892L188.298 37.7682L188.316 37.7862V44.4192H187.668V38.3892ZM199.917 37.4262V40.1172H202.644V37.4262H199.917ZM199.251 36.7782H203.337V40.7652H199.251V36.7782ZM201.933 41.8542L202.554 41.6292C202.722 41.8872 202.887 42.1662 203.049 42.4662C203.217 42.7602 203.364 43.0482 203.49 43.3302C203.622 43.6062 203.721 43.8522 203.787 44.0682L203.121 44.3382C203.061 44.1222 202.968 43.8702 202.842 43.5822C202.716 43.2942 202.575 43.0002 202.419 42.7002C202.263 42.3942 202.101 42.1122 201.933 41.8542ZM199.89 41.6472L200.583 41.8002C200.433 42.3102 200.229 42.7962 199.971 43.2582C199.719 43.7142 199.443 44.0982 199.143 44.4102C199.101 44.3742 199.041 44.3292 198.963 44.2752C198.891 44.2272 198.816 44.1792 198.738 44.1312C198.666 44.0832 198.603 44.0472 198.549 44.0232C198.849 43.7352 199.113 43.3812 199.341 42.9612C199.575 42.5412 199.758 42.1032 199.89 41.6472ZM196.218 36.7782L196.659 36.3732C196.827 36.4992 197.001 36.6432 197.181 36.8052C197.361 36.9612 197.532 37.1172 197.694 37.2732C197.856 37.4292 197.985 37.5702 198.081 37.6962L197.613 38.1642C197.517 38.0382 197.388 37.8942 197.226 37.7322C197.07 37.5702 196.902 37.4082 196.722 37.2462C196.548 37.0782 196.38 36.9222 196.218 36.7782ZM196.929 44.1672L196.794 43.5192L196.974 43.2402L198.621 41.9892C198.639 42.0492 198.663 42.1152 198.693 42.1872C198.729 42.2592 198.762 42.3312 198.792 42.4032C198.828 42.4692 198.858 42.5232 198.882 42.5652C198.486 42.8772 198.168 43.1292 197.928 43.3212C197.688 43.5072 197.502 43.6512 197.37 43.7532C197.238 43.8612 197.142 43.9452 197.082 44.0052C197.022 44.0652 196.971 44.1192 196.929 44.1672ZM195.75 38.9652H197.415V39.6132H195.75V38.9652ZM196.929 44.1672C196.905 44.1192 196.866 44.0652 196.812 44.0052C196.764 43.9452 196.713 43.8882 196.659 43.8342C196.605 43.7802 196.557 43.7382 196.515 43.7082C196.569 43.6602 196.635 43.5912 196.713 43.5012C196.797 43.4052 196.869 43.2942 196.929 43.1682C196.989 43.0362 197.019 42.8922 197.019 42.7362V38.9652H197.676V43.1952C197.676 43.1952 197.649 43.2192 197.595 43.2672C197.547 43.3152 197.484 43.3782 197.406 43.4562C197.334 43.5342 197.262 43.6182 197.19 43.7082C197.118 43.7982 197.055 43.8822 197.001 43.9602C196.953 44.0442 196.929 44.1132 196.929 44.1672ZM209.934 37.2192H210.591V42.2142H209.934V37.2192ZM211.842 36.3102H212.517V43.5282C212.517 43.7562 212.484 43.9272 212.418 44.0412C212.358 44.1552 212.262 44.2392 212.13 44.2932C211.986 44.3532 211.788 44.3892 211.536 44.4012C211.29 44.4192 210.966 44.4282 210.564 44.4282C210.546 44.3322 210.513 44.2182 210.465 44.0862C210.423 43.9542 210.375 43.8402 210.321 43.7442C210.627 43.7502 210.9 43.7532 211.14 43.7532C211.38 43.7592 211.539 43.7592 211.617 43.7532C211.701 43.7472 211.758 43.7292 211.788 43.6992C211.824 43.6692 211.842 43.6152 211.842 43.5372V36.3102ZM205.758 37.1472V38.8752H208.08V37.1472H205.758ZM205.137 36.5352H208.728V39.4962H205.137V36.5352ZM204.804 40.5042H208.476V41.1162H204.804V40.5042ZM208.215 40.5042H208.881C208.881 40.5042 208.881 40.5222 208.881 40.5582C208.881 40.5882 208.878 40.6272 208.872 40.6752C208.872 40.7232 208.872 40.7652 208.872 40.8012C208.842 41.5212 208.809 42.1032 208.773 42.5472C208.737 42.9912 208.695 43.3302 208.647 43.5642C208.599 43.7982 208.533 43.9602 208.449 44.0502C208.371 44.1462 208.29 44.2122 208.206 44.2482C208.122 44.2902 208.02 44.3142 207.9 44.3202C207.798 44.3382 207.654 44.3442 207.468 44.3382C207.288 44.3382 207.099 44.3352 206.901 44.3292C206.895 44.2272 206.874 44.1162 206.838 43.9962C206.808 43.8762 206.766 43.7712 206.712 43.6812C206.91 43.6992 207.087 43.7082 207.243 43.7082C207.405 43.7142 207.522 43.7172 207.594 43.7172C207.66 43.7172 207.714 43.7112 207.756 43.6992C207.804 43.6872 207.846 43.6602 207.882 43.6182C207.936 43.5522 207.981 43.4172 208.017 43.2132C208.059 43.0032 208.095 42.6912 208.125 42.2772C208.161 41.8572 208.191 41.3052 208.215 40.6212V40.5042ZM206.415 39.7212H207.054C207.03 40.2492 206.985 40.7502 206.919 41.2242C206.859 41.6982 206.76 42.1362 206.622 42.5382C206.484 42.9402 206.286 43.3032 206.028 43.6272C205.776 43.9452 205.44 44.2212 205.02 44.4552C204.978 44.3712 204.915 44.2782 204.831 44.1762C204.753 44.0802 204.675 44.0052 204.597 43.9512C204.981 43.7472 205.287 43.5042 205.515 43.2222C205.749 42.9342 205.926 42.6102 206.046 42.2502C206.172 41.8902 206.259 41.4972 206.307 41.0712C206.361 40.6452 206.397 40.1952 206.415 39.7212ZM216.342 37.3902C216.594 38.4822 216.951 39.4602 217.413 40.3242C217.881 41.1882 218.493 41.9142 219.249 42.5022C220.005 43.0842 220.938 43.5072 222.048 43.7712C221.994 43.8192 221.937 43.8822 221.877 43.9602C221.817 44.0382 221.76 44.1162 221.706 44.1942C221.658 44.2722 221.616 44.3442 221.58 44.4102C220.722 44.1822 219.975 43.8642 219.339 43.4562C218.703 43.0422 218.154 42.5442 217.692 41.9622C217.23 41.3802 216.84 40.7172 216.522 39.9732C216.21 39.2292 215.949 38.4132 215.739 37.5252L216.342 37.3902ZM214.11 36.6252H219.15V37.2822H214.11V36.6252ZM220.806 38.8032H220.941L221.058 38.7672L221.517 38.9562C221.331 39.7482 221.061 40.4472 220.707 41.0532C220.359 41.6592 219.945 42.1812 219.465 42.6192C218.991 43.0512 218.469 43.4142 217.899 43.7082C217.329 44.0082 216.729 44.2482 216.099 44.4282C216.075 44.3622 216.039 44.2932 215.991 44.2212C215.949 44.1492 215.904 44.0772 215.856 44.0052C215.808 43.9332 215.76 43.8732 215.712 43.8252C216.306 43.6812 216.873 43.4772 217.413 43.2132C217.953 42.9432 218.448 42.6102 218.898 42.2142C219.354 41.8122 219.744 41.3382 220.068 40.7922C220.392 40.2462 220.638 39.6252 220.806 38.9292V38.8032ZM218.997 36.6252H219.078L219.195 36.5892L219.708 36.6792C219.648 36.9852 219.573 37.3272 219.483 37.7052C219.393 38.0772 219.3 38.4552 219.204 38.8392C219.108 39.2232 219.012 39.5802 218.916 39.9102L218.223 39.8022C218.295 39.5562 218.367 39.2922 218.439 39.0102C218.517 38.7222 218.589 38.4372 218.655 38.1552C218.727 37.8672 218.79 37.5972 218.844 37.3452C218.904 37.0932 218.955 36.8802 218.997 36.7062V36.6252ZM218.862 38.8032H220.968V39.4422H218.718L218.862 38.8032ZM215.694 36.8322H216.387V38.0382C216.387 38.3982 216.375 38.7822 216.351 39.1902C216.327 39.5922 216.273 40.0092 216.189 40.4412C216.105 40.8672 215.979 41.2992 215.811 41.7372C215.649 42.1752 215.43 42.6072 215.154 43.0332C214.878 43.4532 214.53 43.8582 214.11 44.2482C214.074 44.1942 214.026 44.1312 213.966 44.0592C213.912 43.9872 213.852 43.9152 213.786 43.8432C213.726 43.7772 213.669 43.7262 213.615 43.6902C214.101 43.2402 214.482 42.7722 214.758 42.2862C215.04 41.7942 215.247 41.2992 215.379 40.8012C215.511 40.3032 215.595 39.8202 215.631 39.3522C215.673 38.8782 215.694 38.4402 215.694 38.0382V36.8322ZM228.825 38.0022L229.536 38.2182C229.158 39.3162 228.672 40.2642 228.078 41.0622C227.49 41.8602 226.782 42.5322 225.954 43.0782C225.132 43.6242 224.175 44.0742 223.083 44.4282C223.059 44.3682 223.02 44.2992 222.966 44.2212C222.918 44.1432 222.864 44.0622 222.804 43.9782C222.75 43.8942 222.699 43.8282 222.651 43.7802C223.719 43.4682 224.652 43.0602 225.45 42.5562C226.248 42.0462 226.926 41.4192 227.484 40.6752C228.042 39.9252 228.489 39.0342 228.825 38.0022ZM224.73 38.0562C225.06 39.0162 225.504 39.8802 226.062 40.6482C226.626 41.4102 227.316 42.0552 228.132 42.5832C228.948 43.1112 229.899 43.5042 230.985 43.7622C230.931 43.8102 230.871 43.8732 230.805 43.9512C230.745 44.0352 230.685 44.1192 230.625 44.2032C230.571 44.2872 230.526 44.3592 230.49 44.4192C229.38 44.1312 228.411 43.7052 227.583 43.1412C226.761 42.5712 226.062 41.8782 225.486 41.0622C224.91 40.2402 224.436 39.3042 224.064 38.2542L224.73 38.0562ZM222.75 37.6692H230.886V38.3262H222.75V37.6692ZM226.44 36.1392H227.133V38.0652H226.44V36.1392ZM233.397 38.7402H237.717V39.3612H233.397V38.7402ZM231.939 40.9992H239.688V41.6472H231.939V40.9992ZM235.449 40.3242H236.169V43.5822C236.169 43.7802 236.136 43.9332 236.07 44.0412C236.01 44.1492 235.899 44.2332 235.737 44.2932C235.581 44.3472 235.377 44.3772 235.125 44.3832C234.879 44.3952 234.567 44.4012 234.189 44.4012C234.171 44.3352 234.144 44.2602 234.108 44.1762C234.078 44.0982 234.042 44.0202 234 43.9422C233.964 43.8642 233.928 43.7922 233.892 43.7262C234.096 43.7322 234.291 43.7352 234.477 43.7352C234.663 43.7412 234.822 43.7442 234.954 43.7442C235.092 43.7442 235.188 43.7442 235.242 43.7442C235.326 43.7382 235.38 43.7232 235.404 43.6992C235.434 43.6692 235.449 43.6242 235.449 43.5642V40.3242ZM237.519 38.7402H237.69L237.843 38.7042L238.284 39.0462C238.092 39.2622 237.867 39.4812 237.609 39.7032C237.357 39.9192 237.09 40.1262 236.808 40.3242C236.532 40.5162 236.256 40.6812 235.98 40.8192C235.938 40.7592 235.878 40.6932 235.8 40.6212C235.722 40.5432 235.656 40.4802 235.602 40.4322C235.842 40.3062 236.082 40.1532 236.322 39.9732C236.562 39.7932 236.787 39.6072 236.997 39.4152C237.207 39.2232 237.381 39.0432 237.519 38.8752V38.7402ZM235.431 36.1212H236.142V37.5792H235.431V36.1212ZM232.02 37.1112H239.58V39.2352H238.887V37.7592H232.686V39.2352H232.02V37.1112ZM244.494 36.8232H248.418V37.4622H244.494V36.8232ZM244.098 38.9742H248.904V39.6132H244.098V38.9742ZM246.024 39.2892H246.708V43.5462C246.708 43.7382 246.684 43.8882 246.636 43.9962C246.588 44.1102 246.498 44.1972 246.366 44.2572C246.234 44.3112 246.06 44.3442 245.844 44.3562C245.634 44.3742 245.373 44.3832 245.061 44.3832C245.049 44.2812 245.022 44.1642 244.98 44.0322C244.938 43.9062 244.893 43.7922 244.845 43.6902C245.079 43.6962 245.289 43.6992 245.475 43.6992C245.667 43.6992 245.793 43.6992 245.853 43.6992C245.919 43.6932 245.964 43.6812 245.988 43.6632C246.012 43.6392 246.024 43.5972 246.024 43.5372V39.2892ZM247.311 40.7742L247.887 40.5942C248.037 40.8882 248.178 41.2032 248.31 41.5392C248.448 41.8692 248.571 42.1902 248.679 42.5022C248.787 42.8142 248.865 43.0902 248.913 43.3302L248.292 43.5552C248.244 43.3152 248.169 43.0362 248.067 42.7182C247.971 42.4002 247.857 42.0732 247.725 41.7372C247.593 41.3952 247.455 41.0742 247.311 40.7742ZM244.719 40.6212L245.34 40.7562C245.25 41.1042 245.139 41.4492 245.007 41.7912C244.881 42.1272 244.743 42.4452 244.593 42.7452C244.443 43.0452 244.287 43.3092 244.125 43.5372C244.083 43.5072 244.029 43.4712 243.963 43.4292C243.897 43.3812 243.828 43.3362 243.756 43.2942C243.69 43.2462 243.63 43.2102 243.576 43.1862C243.828 42.8622 244.053 42.4722 244.251 42.0162C244.449 41.5602 244.605 41.0952 244.719 40.6212ZM240.741 38.0472H243.972V38.6772H240.741V38.0472ZM242.118 36.1392H242.793V44.4102H242.118V36.1392ZM242.037 38.4252L242.496 38.5692C242.418 38.8992 242.322 39.2442 242.208 39.6042C242.1 39.9642 241.974 40.3182 241.83 40.6662C241.692 41.0082 241.542 41.3292 241.38 41.6292C241.224 41.9292 241.062 42.1842 240.894 42.3942C240.87 42.3342 240.834 42.2652 240.786 42.1872C240.744 42.1092 240.699 42.0342 240.651 41.9622C240.603 41.8842 240.558 41.8182 240.516 41.7642C240.72 41.5182 240.921 41.2092 241.119 40.8372C241.323 40.4652 241.503 40.0662 241.659 39.6402C241.821 39.2142 241.947 38.8092 242.037 38.4252ZM242.748 38.8662C242.802 38.9262 242.886 39.0312 243 39.1812C243.12 39.3252 243.249 39.4842 243.387 39.6582C243.525 39.8322 243.651 39.9942 243.765 40.1442C243.879 40.2882 243.96 40.3932 244.008 40.4592L243.612 40.9902C243.552 40.8882 243.468 40.7532 243.36 40.5852C243.258 40.4112 243.144 40.2312 243.018 40.0452C242.898 39.8592 242.781 39.6882 242.667 39.5322C242.559 39.3762 242.472 39.2562 242.406 39.1722L242.748 38.8662ZM249.804 37.4352H257.823V38.0832H249.804V37.4352ZM250.389 39.6132H257.274V40.2522H250.389V39.6132ZM253.431 36.1392H254.115V40.0722H253.431V36.1392ZM251.973 41.4312H252.639V43.3932C252.639 43.5192 252.675 43.6032 252.747 43.6452C252.819 43.6812 252.978 43.6992 253.224 43.6992C253.278 43.6992 253.377 43.6992 253.521 43.6992C253.671 43.6992 253.836 43.6992 254.016 43.6992C254.202 43.6992 254.373 43.6992 254.529 43.6992C254.685 43.6992 254.802 43.6992 254.88 43.6992C255.018 43.6992 255.123 43.6752 255.195 43.6272C255.267 43.5732 255.318 43.4682 255.348 43.3122C255.378 43.1502 255.399 42.9102 255.411 42.5922C255.465 42.6282 255.525 42.6642 255.591 42.7002C255.663 42.7302 255.738 42.7602 255.816 42.7902C255.894 42.8142 255.963 42.8322 256.023 42.8442C255.999 43.2342 255.951 43.5372 255.879 43.7532C255.813 43.9692 255.705 44.1162 255.555 44.1942C255.405 44.2782 255.198 44.3202 254.934 44.3202C254.886 44.3202 254.802 44.3202 254.682 44.3202C254.568 44.3202 254.433 44.3202 254.277 44.3202C254.121 44.3202 253.965 44.3202 253.809 44.3202C253.659 44.3202 253.524 44.3202 253.404 44.3202C253.284 44.3202 253.206 44.3202 253.17 44.3202C252.852 44.3202 252.606 44.2932 252.432 44.2392C252.264 44.1852 252.144 44.0892 252.072 43.9512C252.006 43.8192 251.973 43.6362 251.973 43.4022V41.4312ZM252.594 40.7742L253.053 40.3602C253.269 40.4622 253.485 40.5882 253.701 40.7382C253.923 40.8822 254.127 41.0322 254.313 41.1882C254.505 41.3382 254.658 41.4852 254.772 41.6292L254.277 42.0882C254.169 41.9442 254.022 41.7942 253.836 41.6382C253.656 41.4762 253.458 41.3202 253.242 41.1702C253.026 41.0202 252.81 40.8882 252.594 40.7742ZM255.717 41.6472L256.284 41.3502C256.518 41.5662 256.743 41.8092 256.959 42.0792C257.175 42.3432 257.37 42.6102 257.544 42.8802C257.718 43.1502 257.847 43.3992 257.931 43.6272L257.319 43.9512C257.241 43.7292 257.118 43.4832 256.95 43.2132C256.782 42.9432 256.59 42.6702 256.374 42.3942C256.164 42.1182 255.945 41.8692 255.717 41.6472ZM250.776 41.5572L251.379 41.7372C251.313 42.0372 251.229 42.3342 251.127 42.6282C251.025 42.9222 250.896 43.1982 250.74 43.4562C250.584 43.7082 250.386 43.9272 250.146 44.1132L249.579 43.7352C249.909 43.4892 250.17 43.1712 250.362 42.7812C250.56 42.3912 250.698 41.9832 250.776 41.5572Z" fill="#231F20"/>
</g>
<defs>
<clipPath id="clip0_124_5266">
<rect width="267" height="58.3" fill="white"/>
</clipPath>
</defs>
</svg>
