<?xml version="1.0" encoding="UTF-8"?>
<svg id="Layer_1" xmlns="http://www.w3.org/2000/svg" xmlns:xlink="http://www.w3.org/1999/xlink" version="1.1" viewBox="0 0 328.8 151.1">
  <!-- Generator: Adobe Illustrator 29.0.1, SVG Export Plug-In . SVG Version: 2.1.0 Build 192)  -->
  <defs>
    <style>
      .st0, .st1 {
        fill: none;
      }

      .st1 {
        stroke: #231f20;
        stroke-width: .2px;
      }

      .st2 {
        fill: #505050;
      }

      .st3 {
        fill: #a78337;
      }

      .st4 {
        clip-path: url(#clippath);
      }
    </style>
    <clipPath id="clippath">
      <rect class="st0" y="-33.4" width="361" height="185.8"/>
    </clipPath>
  </defs>
  <g>
    <path class="st2" d="M9.8.2h4v.6h-3.2v2.2h3.1v.6h-3.1v2.9h-.7V.2Z"/>
    <path class="st2" d="M15.8,6.3c-.4-.3-.8-.6-1-1.1-.2-.5-.4-1.1-.4-1.7s.1-1.3.4-1.7c.2-.5.6-.9,1-1.1.4-.3,1-.4,1.6-.4s1.1.1,1.6.4c.4.3.8.6,1,1.1.2.5.4,1.1.4,1.7s-.1,1.3-.4,1.7-.6.9-1,1.1c-.4.3-1,.4-1.5.4s-1.1-.1-1.5-.4ZM18.9,5.4c.4-.5.6-1.1.6-2s-.2-1.5-.6-2-.9-.7-1.6-.7-1.2.2-1.6.7-.6,1.1-.6,1.9.2,1.5.6,2,.9.7,1.6.7,1.2-.2,1.6-.7Z"/>
    <path class="st2" d="M26.6.2v6.4h-.6l-3.9-5.2v5.2h-.7V.2h.6l3.9,5.2V.2h.7Z"/>
    <path class="st2" d="M29.7.8h-2.2V.2h5.2v.6h-2.2v5.8h-.7V.8Z"/>
    <path class="st2" d="M34,2.2v.9h-.9v-.9h.9ZM34,5.7v.9h-.9v-.9h.9Z"/>
    <path class="st2" d="M41.7,5h-3.3l-.7,1.6h-.8L39.7.2h.6l2.8,6.4h-.8l-.7-1.6ZM41.4,4.4l-1.4-3.3-1.4,3.3h2.8Z"/>
    <path class="st2" d="M46.5,2v.7c-.2,0-.3,0-.5,0-.4,0-.8.1-1,.4-.2.3-.3.6-.3,1v2.6h-.7v-3.3c0-.5,0-.9,0-1.3h.7v.8c.2-.3.4-.5.6-.7.3-.2.5-.2.9-.2s.3,0,.4,0Z"/>
    <path class="st2" d="M47.9.2v.8h-.9V.2h.9ZM47.1,2.1h.7v4.5h-.7V2.1Z"/>
    <path class="st2" d="M53.2,2.1v4.5h-.7v-.8c-.1.3-.3.5-.6.7-.3.2-.6.2-.9.2s-.8,0-1.1-.3c-.3-.2-.5-.5-.7-.8-.2-.4-.2-.8-.2-1.2s0-.9.3-1.2c.2-.4.4-.6.7-.8s.7-.3,1-.3.7,0,.9.2c.3.2.5.4.6.7v-.8h.7ZM52.1,5.6c.2-.3.4-.7.4-1.3s-.1-1-.4-1.3c-.2-.3-.6-.5-1-.5s-.8.2-1,.5c-.2.3-.4.7-.4,1.3s.1,1,.4,1.3c.2.3.6.5,1,.5s.8-.2,1-.5Z"/>
    <path class="st2" d="M54.5,0h.7v6.6h-.7V0Z"/>
  </g>
  <g>
    <path class="st2" d="M10.9,16.3c-.4-.3-.8-.6-1-1.1-.2-.5-.4-1.1-.4-1.8s.1-1.3.4-1.7c.2-.5.6-.9,1-1.1s1-.4,1.6-.4.9,0,1.2.2.7.3,1,.6l-.3.6c-.3-.3-.6-.5-.9-.6s-.6-.2-1-.2c-.7,0-1.2.2-1.6.7s-.6,1.1-.6,1.9.2,1.5.6,2,.9.7,1.6.7.7,0,1-.2c.3-.1.6-.3.9-.6l.3.6c-.3.3-.6.5-1,.6-.4.1-.8.2-1.2.2s-1.1-.1-1.6-.4Z"/>
    <path class="st2" d="M16.9,16.3c-.4-.3-.8-.6-1-1.1-.2-.5-.4-1.1-.4-1.7s.1-1.3.4-1.7.6-.9,1-1.1c.4-.3,1-.4,1.6-.4s1.1.1,1.6.4c.4.3.8.6,1,1.1.2.5.4,1.1.4,1.7s-.1,1.3-.4,1.7c-.2.5-.6.9-1,1.1-.4.3-1,.4-1.5.4s-1.1-.1-1.5-.4ZM20,15.4c.4-.5.6-1.1.6-2s-.2-1.5-.6-2-.9-.7-1.6-.7-1.2.2-1.6.7-.6,1.1-.6,1.9.2,1.5.6,2,.9.7,1.6.7,1.2-.2,1.6-.7Z"/>
    <path class="st2" d="M22.6,10.2h.7v5.8h3.2v.6h-4v-6.4Z"/>
    <path class="st2" d="M28.3,16.3c-.4-.3-.8-.6-1-1.1-.2-.5-.4-1.1-.4-1.7s.1-1.3.4-1.7c.2-.5.6-.9,1-1.1.4-.3,1-.4,1.6-.4s1.1.1,1.6.4c.4.3.8.6,1,1.1.2.5.4,1.1.4,1.7s-.1,1.3-.4,1.7-.6.9-1,1.1c-.4.3-1,.4-1.5.4s-1.1-.1-1.5-.4ZM31.4,15.4c.4-.5.6-1.1.6-2s-.2-1.5-.6-2-.9-.7-1.6-.7-1.2.2-1.6.7-.6,1.1-.6,1.9.2,1.5.6,2,.9.7,1.6.7,1.2-.2,1.6-.7Z"/>
    <path class="st2" d="M39,16.6h-.8l-.8-2.1c0-.3-.2-.4-.4-.5s-.4-.1-.7-.1h-1.6v2.8h-.7v-6.4h2.5c.7,0,1.2.2,1.6.5.4.3.6.7.6,1.3s-.1.8-.3,1.1c-.2.3-.5.5-.9.6.2,0,.3.1.5.2.1.1.2.3.3.6l.8,2.2ZM36.5,13.2c1,0,1.5-.4,1.5-1.2s-.1-.7-.4-.9c-.2-.2-.6-.3-1.1-.3h-1.8v2.4h1.8Z"/>
    <path class="st2" d="M40.9,12.2v.9h-.9v-.9h.9ZM40.9,15.7v.9h-.9v-.9h.9Z"/>
    <path class="st2" d="M49.4,16.6h-.8l-.8-2.1c0-.3-.2-.4-.4-.5s-.4-.1-.7-.1h-1.6v2.8h-.7v-6.4h2.5c.7,0,1.2.2,1.6.5.4.3.6.7.6,1.3s-.1.8-.3,1.1c-.2.3-.5.5-.9.6.2,0,.3.1.5.2.1.1.2.3.3.6l.8,2.2ZM46.9,13.2c1,0,1.5-.4,1.5-1.2s-.1-.7-.4-.9c-.2-.2-.6-.3-1.1-.3h-1.8v2.4h1.8Z"/>
    <path class="st2" d="M56.7,13.9c.2.3.3.6.3,1s-.2,1-.6,1.3c-.4.3-1,.5-1.7.5s-1.3-.2-1.7-.5c-.4-.3-.6-.7-.6-1.3s.1-.7.4-1c.2-.3.6-.5,1-.6-.4-.1-.7-.3-.9-.6s-.3-.6-.3-.9,0-.6.3-.9c.2-.3.4-.5.8-.6s.7-.2,1.1-.2.8,0,1.1.2.6.3.8.6c.2.3.3.6.3.9s-.1.7-.3.9-.5.4-.9.6c.4.1.7.3,1,.6ZM55.9,15.8c.3-.2.4-.5.4-.9s-.1-.6-.4-.9-.7-.3-1.1-.4c-.5,0-.9.2-1.1.4-.3.2-.4.5-.4.9s.1.7.4.9c.3.2.7.3,1.2.3s.9-.1,1.2-.3ZM53.7,12.7c.3.2.6.3,1,.4.4,0,.8-.2,1-.4s.4-.5.4-.8-.1-.6-.4-.8c-.2-.2-.6-.3-1-.3s-.8.1-1,.3c-.2.2-.4.5-.4.8s.1.6.4.8Z"/>
    <path class="st2" d="M58.4,15.9c-.4-.6-.6-1.4-.6-2.4s.2-1.9.6-2.4c.4-.6.9-.8,1.7-.8s1.3.3,1.7.8c.4.6.6,1.4.6,2.4s-.2,1.9-.6,2.4c-.4.6-.9.8-1.7.8s-1.3-.3-1.7-.8ZM61.2,15.4c.2-.4.4-1.1.4-2s-.1-1.6-.4-2-.6-.6-1.1-.6-.9.2-1.1.6c-.2.4-.4,1.1-.4,2s.1,1.6.4,2c.2.4.6.7,1.1.7s.9-.2,1.1-.6Z"/>
    <path class="st2" d="M64.7,17.1l2.3-7.2h.7l-2.3,7.2h-.7Z"/>
    <path class="st2" d="M75.6,13.3v3c-.3.1-.6.2-1,.3s-.8.1-1.2.1c-.6,0-1.2-.1-1.6-.4s-.8-.6-1.1-1.1c-.2-.5-.4-1.1-.4-1.8s.1-1.3.4-1.8c.2-.5.6-.9,1-1.1.5-.3,1-.4,1.6-.4s.9,0,1.2.2.7.3,1,.6l-.3.6c-.3-.3-.6-.5-.9-.6-.3-.1-.6-.2-1-.2-.7,0-1.3.2-1.7.7-.4.5-.6,1.1-.6,2s.2,1.5.6,2c.4.5,1,.7,1.7.7s1,0,1.5-.3v-2h-1.6v-.6h2.3Z"/>
    <path class="st2" d="M83.1,13.9c.2.3.3.6.3,1s-.2,1-.6,1.3c-.4.3-1,.5-1.7.5s-1.3-.2-1.7-.5c-.4-.3-.6-.7-.6-1.3s.1-.7.4-1,.6-.5,1-.6c-.4-.1-.7-.3-.9-.6s-.3-.6-.3-.9,0-.6.3-.9c.2-.3.4-.5.8-.6.3-.1.7-.2,1.1-.2s.8,0,1.1.2.6.3.8.6c.2.3.3.6.3.9s-.1.7-.3.9-.5.4-.9.6c.4.1.7.3,1,.6ZM82.3,15.8c.3-.2.4-.5.4-.9s-.1-.6-.4-.9-.7-.3-1.1-.4c-.5,0-.9.2-1.1.4s-.4.5-.4.9.1.7.4.9c.3.2.7.3,1.2.3s.9-.1,1.2-.3ZM80.1,12.7c.3.2.6.3,1,.4.4,0,.8-.2,1-.4s.4-.5.4-.8-.1-.6-.4-.8c-.2-.2-.6-.3-1-.3s-.8.1-1,.3c-.2.2-.4.5-.4.8s.1.6.4.8Z"/>
    <path class="st2" d="M84.8,15.9c-.4-.6-.6-1.4-.6-2.4s.2-1.9.6-2.4.9-.8,1.7-.8,1.3.3,1.7.8.6,1.4.6,2.4-.2,1.9-.6,2.4c-.4.6-.9.8-1.7.8s-1.3-.3-1.7-.8ZM87.6,15.4c.2-.4.4-1.1.4-2s-.1-1.6-.4-2c-.2-.4-.6-.6-1.1-.6s-.9.2-1.1.6-.4,1.1-.4,2,.1,1.6.4,2c.2.4.6.7,1.1.7s.9-.2,1.1-.6Z"/>
    <path class="st2" d="M88.9,17.1l2.3-7.2h.7l-2.3,7.2h-.7Z"/>
    <path class="st2" d="M99.1,13.9c.2.3.3.6.3,1s-.2,1-.6,1.3c-.4.3-.9.5-1.6.5h-2.7v-6.4h2.6c.7,0,1.2.1,1.5.4s.5.7.5,1.2,0,.6-.3.9-.4.4-.7.6c.4.1.7.3.9.6ZM95.4,13.1h1.7c.5,0,.8,0,1.1-.3.2-.2.4-.5.4-.8,0-.7-.5-1.1-1.5-1.1h-1.7v2.2ZM98.4,15.7c.2-.2.4-.5.4-.9,0-.8-.5-1.2-1.5-1.2h-1.9v2.3h1.9c.5,0,.9,0,1.1-.3Z"/>
    <path class="st2" d="M106.8,13.9c.2.3.3.6.3,1s-.2,1-.6,1.3c-.4.3-1,.5-1.7.5s-1.3-.2-1.7-.5c-.4-.3-.6-.7-.6-1.3s.1-.7.4-1,.6-.5,1-.6c-.4-.1-.7-.3-.9-.6s-.3-.6-.3-.9,0-.6.3-.9c.2-.3.4-.5.8-.6.3-.1.7-.2,1.1-.2s.8,0,1.1.2.6.3.8.6c.2.3.3.6.3.9s-.1.7-.3.9-.5.4-.9.6c.4.1.7.3,1,.6ZM106,15.8c.3-.2.4-.5.4-.9s-.1-.6-.4-.9-.7-.3-1.1-.4c-.5,0-.9.2-1.1.4s-.4.5-.4.9.1.7.4.9c.3.2.7.3,1.2.3s.9-.1,1.2-.3ZM103.8,12.7c.3.2.6.3,1,.4.4,0,.8-.2,1-.4s.4-.5.4-.8-.1-.6-.4-.8c-.2-.2-.6-.3-1-.3s-.8.1-1,.3c-.2.2-.4.5-.4.8s.1.6.4.8Z"/>
    <path class="st2" d="M108.5,15.9c-.4-.6-.6-1.4-.6-2.4s.2-1.9.6-2.4c.4-.6.9-.8,1.7-.8s1.3.3,1.7.8c.4.6.6,1.4.6,2.4s-.2,1.9-.6,2.4c-.4.6-.9.8-1.7.8s-1.3-.3-1.7-.8ZM111.3,15.4c.2-.4.4-1.1.4-2s-.1-1.6-.4-2-.6-.6-1.1-.6-.9.2-1.1.6c-.2.4-.4,1.1-.4,2s.1,1.6.4,2c.2.4.6.7,1.1.7s.9-.2,1.1-.6Z"/>
  </g>
  <g>
    <path class="st2" d="M12.4,37.7v2.9h-.8v-2.9l-2.8-4.2h1l2.3,3.5,2.3-3.5h.9l-2.8,4.2Z"/>
    <path class="st2" d="M16.7,40.3c-.5-.3-.9-.7-1.1-1.3s-.4-1.2-.4-1.9.1-1.4.4-1.9.6-1,1.1-1.3c.5-.3,1.1-.4,1.7-.4s1.2.1,1.7.4c.5.3.9.7,1.1,1.3s.4,1.2.4,1.9-.1,1.4-.4,1.9c-.3.5-.6,1-1.1,1.3-.5.3-1.1.4-1.7.4s-1.2-.1-1.7-.4ZM20.2,39.2c.4-.5.6-1.2.6-2.2s-.2-1.7-.6-2.2c-.4-.5-1-.8-1.8-.8s-1.3.3-1.8.8c-.4.5-.6,1.2-.6,2.2s.2,1.7.6,2.2c.4.5,1,.8,1.8.8s1.3-.3,1.8-.8Z"/>
    <path class="st2" d="M23.7,40c-.5-.5-.7-1.2-.7-2.1v-4.3h.8v4.4c0,.7.2,1.2.5,1.6.3.4.8.5,1.5.5s1.2-.2,1.5-.5c.3-.4.5-.9.5-1.6v-4.4h.8v4.3c0,.9-.2,1.7-.7,2.1-.5.5-1.2.7-2.1.7s-1.6-.2-2.1-.7Z"/>
    <path class="st2" d="M35.9,40.6h-.9l-.9-2.4c-.1-.3-.3-.5-.4-.6-.2,0-.5-.2-.8-.2h-1.8v3.1h-.8v-7.1h2.8c.8,0,1.4.2,1.8.5.4.3.6.8.6,1.5s-.1.9-.4,1.2-.6.5-1.1.7c.2,0,.4.1.5.3.1.1.3.3.4.6l.9,2.4ZM33,36.8c1.1,0,1.6-.4,1.6-1.3s-.1-.8-.4-1-.7-.3-1.2-.3h-2v2.7h2Z"/>
    <path class="st2" d="M45.3,33.5v7.1h-.6l-4.3-5.7v5.7h-.8v-7.1h.6l4.3,5.7v-5.7h.8Z"/>
    <path class="st2" d="M51.7,38.8h-3.7l-.8,1.8h-.8l3.1-7.1h.7l3.1,7.1h-.8l-.8-1.8ZM51.4,38.1l-1.6-3.7-1.6,3.7h3.1Z"/>
    <path class="st2" d="M61,33.5v7.1h-.8v-5.3l-2.3,5.3h-.6l-2.3-5.2v5.2s-.8,0-.8,0v-7.1h.7l2.7,6.1,2.7-6.1h.7Z"/>
    <path class="st2" d="M62.6,33.5h4.5v.7h-3.7v2.5h3.5v.7h-3.5v2.6h3.7v.7h-4.5v-7.1Z"/>
  </g>
  <g>
    <path class="st2" d="M11.6,58.2h-2.5v-.7h5.8v.7h-2.5v6.4h-.8v-6.4Z"/>
    <path class="st2" d="M16.6,57.5v.9h-1v-.9h1ZM15.7,59.6h.8v5h-.8v-5Z"/>
    <path class="st2" d="M19.1,60.2v2.8c0,.4,0,.6.2.8.2.2.4.2.7.2s.4,0,.5,0v.7c-.2,0-.4.1-.7.1-.5,0-.9-.1-1.1-.4s-.4-.7-.4-1.2v-2.9h-1v-.6h1v-1.3l.8-.3v1.6h1.4v.6h-1.4Z"/>
    <path class="st2" d="M21.4,57.3h.8v7.4h-.8v-7.4Z"/>
    <path class="st2" d="M27.9,62.1h-3.7c0,.6.2,1.1.4,1.5.3.3.7.5,1.3.5s1.1-.2,1.6-.6l.3.6c-.2.2-.5.4-.8.5s-.7.2-1.1.2c-.8,0-1.4-.2-1.9-.7-.4-.5-.7-1.1-.7-1.9s.1-1,.3-1.4c.2-.4.5-.7.8-.9.4-.2.8-.3,1.2-.3.7,0,1.2.2,1.6.7s.6,1,.6,1.8v.2ZM24.8,60.5c-.3.3-.4.6-.5,1.1h2.9c0-.5-.2-.8-.4-1.1-.2-.2-.6-.4-1-.4s-.8.1-1,.4Z"/>
  </g>
  <g>
    <path class="st2" d="M9.5,75.8l.3-.6c.4.3.7.5,1.1.6.4.1.8.2,1.3.2s1-.1,1.3-.3c.3-.2.5-.5.5-.9s0-.4-.2-.6c-.2-.1-.3-.3-.6-.4-.2,0-.6-.2-1-.3-.5-.1-1-.2-1.3-.4s-.6-.3-.9-.6c-.2-.3-.3-.6-.3-1s.1-.8.3-1.1c.2-.3.5-.6.9-.7.4-.2.8-.3,1.4-.3s1,0,1.4.2c.4.2.8.4,1.1.7l-.3.6c-.3-.3-.7-.5-1-.6-.3-.1-.7-.2-1.1-.2s-1,.1-1.3.4c-.3.2-.5.6-.5,1s.1.6.4.8c.3.2.7.3,1.3.5.6.1,1.1.3,1.4.4.3.1.6.3.9.6s.3.6.3,1-.1.8-.3,1.1c-.2.3-.5.5-.9.7-.4.2-.9.2-1.4.2-1.1,0-2-.3-2.7-.9Z"/>
    <path class="st2" d="M16.8,76.4c-.4-.2-.6-.5-.8-.9-.2-.4-.3-.8-.3-1.4s.1-1,.3-1.4c.2-.4.5-.7.9-.9.4-.2.8-.3,1.3-.3s.7,0,1,.2c.3.1.6.3.8.5l-.3.6c-.3-.2-.5-.3-.7-.4-.2,0-.5-.1-.7-.1-.5,0-.9.2-1.2.5-.3.3-.4.8-.4,1.4s.1,1.1.4,1.4c.3.3.7.5,1.2.5s.5,0,.7-.1c.2,0,.5-.2.7-.4l.3.6c-.2.2-.5.4-.8.5-.3.1-.7.2-1,.2s-.9-.1-1.3-.3Z"/>
    <path class="st2" d="M25.1,73.5v3.2h-.8v-3.1c0-.5,0-.8-.3-1-.2-.2-.5-.3-.9-.3s-.8.1-1.1.4c-.3.3-.4.7-.4,1.2v2.9h-.8v-7.4h.8v3.2c.2-.3.4-.5.7-.7s.6-.2,1-.2c1.2,0,1.8.7,1.8,2Z"/>
    <path class="st2" d="M27.4,76.4c-.4-.2-.6-.5-.8-.9-.2-.4-.3-.9-.3-1.4s0-1,.3-1.4c.2-.4.5-.7.8-.9.4-.2.8-.3,1.2-.3s.9.1,1.2.3c.4.2.6.5.8.9.2.4.3.9.3,1.4s0,1-.3,1.4c-.2.4-.5.7-.8.9-.4.2-.8.3-1.2.3s-.9-.1-1.2-.3ZM29.8,75.5c.3-.3.4-.8.4-1.4s-.1-1.1-.4-1.4-.7-.5-1.1-.5-.9.2-1.2.5-.4.8-.4,1.4.1,1.1.4,1.4c.3.3.7.5,1.2.5s.9-.2,1.1-.5Z"/>
    <path class="st2" d="M33,76.4c-.4-.2-.6-.5-.8-.9-.2-.4-.3-.9-.3-1.4s0-1,.3-1.4c.2-.4.5-.7.8-.9.4-.2.8-.3,1.2-.3s.9.1,1.2.3c.4.2.6.5.8.9.2.4.3.9.3,1.4s0,1-.3,1.4c-.2.4-.5.7-.8.9-.4.2-.8.3-1.2.3s-.9-.1-1.2-.3ZM35.4,75.5c.3-.3.4-.8.4-1.4s-.1-1.1-.4-1.4-.7-.5-1.1-.5-.9.2-1.2.5-.4.8-.4,1.4.1,1.1.4,1.4c.3.3.7.5,1.2.5s.9-.2,1.1-.5Z"/>
    <path class="st2" d="M37.8,69.3h.8v7.4h-.8v-7.4Z"/>
    <path class="st2" d="M39.8,76l.3-.6c.3.2.5.4.8.5.3,0,.6.1.9.1s.7,0,.9-.2c.2-.1.3-.3.3-.6s0-.4-.2-.5c-.1-.1-.4-.2-.7-.3l-.9-.2c-.4,0-.7-.3-1-.5-.2-.2-.3-.5-.3-.9s.2-.8.5-1.1c.4-.3.8-.4,1.4-.4s.7,0,1,.2c.3.1.6.3.8.5l-.3.6c-.5-.4-1-.6-1.5-.6s-.6,0-.8.2c-.2.1-.3.3-.3.6s0,.4.2.5.3.2.6.3l.8.2c.5.1.8.3,1,.5.2.2.3.5.3.9s-.2.8-.5,1c-.4.3-.8.4-1.4.4s-1.5-.2-2-.7Z"/>
    <path class="st2" d="M45.8,75.6v.7c0,.3,0,.5-.1.8,0,.2-.2.5-.5.7l-.4-.3c.3-.3.4-.6.4-.9h-.5v-1h1Z"/>
    <path class="st2" d="M54.4,74.8h-3.7l-.8,1.8h-.8l3.1-7.1h.7l3.1,7.1h-.8l-.8-1.8ZM54.1,74.1l-1.6-3.7-1.6,3.7h3.1Z"/>
    <path class="st2" d="M57,69.5h.8v7.1h-.8v-7.1Z"/>
    <path class="st2" d="M59.1,75.8l.3-.6c.4.3.7.5,1.1.6.4.1.8.2,1.3.2s1-.1,1.3-.3c.3-.2.5-.5.5-.9s0-.4-.2-.6c-.2-.1-.3-.3-.6-.4-.2,0-.6-.2-1-.3-.5-.1-1-.2-1.3-.4s-.6-.3-.9-.6c-.2-.3-.3-.6-.3-1s.1-.8.3-1.1c.2-.3.5-.6.9-.7.4-.2.8-.3,1.4-.3s1,0,1.4.2c.4.2.8.4,1.1.7l-.3.6c-.3-.3-.7-.5-1-.6-.3-.1-.7-.2-1.1-.2s-1,.1-1.3.4c-.3.2-.5.6-.5,1s.1.6.4.8c.3.2.7.3,1.3.5.6.1,1.1.3,1.4.4.3.1.6.3.9.6s.3.6.3,1-.1.8-.3,1.1c-.2.3-.5.5-.9.7-.4.2-.9.2-1.4.2-1.1,0-2-.3-2.7-.9Z"/>
    <path class="st2" d="M66.4,75.6v.7c0,.3,0,.5-.1.8,0,.2-.2.5-.5.7l-.4-.3c.3-.3.4-.6.4-.9h-.5v-1h1Z"/>
    <path class="st2" d="M75,74.8h-3.7l-.8,1.8h-.8l3.1-7.1h.7l3.1,7.1h-.8l-.8-1.8ZM74.7,74.1l-1.6-3.7-1.6,3.7h3.1Z"/>
    <path class="st2" d="M78.3,76.4c-.4-.2-.6-.5-.8-.9-.2-.4-.3-.8-.3-1.4s.1-1,.3-1.4c.2-.4.5-.7.9-.9.4-.2.8-.3,1.3-.3s.7,0,1,.2c.3.1.6.3.8.5l-.3.6c-.3-.2-.5-.3-.7-.4-.2,0-.5-.1-.7-.1-.5,0-.9.2-1.2.5-.3.3-.4.8-.4,1.4s.1,1.1.4,1.4c.3.3.7.5,1.2.5s.5,0,.7-.1c.2,0,.5-.2.7-.4l.3.6c-.2.2-.5.4-.8.5-.3.1-.7.2-1,.2s-.9-.1-1.3-.3Z"/>
    <path class="st2" d="M86.8,71.6v5h-.8v-.9c-.1.3-.4.6-.7.7-.3.2-.6.3-1,.3s-.8-.1-1.2-.3c-.3-.2-.6-.5-.8-.9-.2-.4-.3-.8-.3-1.4s0-1,.3-1.4c.2-.4.4-.7.8-.9.3-.2.7-.3,1.2-.3s.7,0,1,.3c.3.2.5.4.7.7v-.9h.8ZM85.6,75.5c.3-.3.4-.8.4-1.4s-.1-1.1-.4-1.4c-.3-.3-.6-.5-1.1-.5s-.9.2-1.2.5c-.3.3-.4.8-.4,1.4s.1,1.1.4,1.4c.3.3.7.5,1.2.5s.9-.2,1.1-.5Z"/>
    <path class="st2" d="M92.7,69.3v7.4h-.8v-.9c-.1.3-.4.6-.7.7-.3.2-.6.3-1,.3s-.8-.1-1.2-.3c-.3-.2-.6-.5-.8-.9-.2-.4-.3-.9-.3-1.4s0-1,.3-1.4c.2-.4.4-.7.8-.9.3-.2.7-.3,1.2-.3s.7,0,1,.3c.3.2.5.4.7.7v-3.2h.8ZM91.5,75.5c.3-.3.4-.8.4-1.4s-.1-1.1-.4-1.4-.6-.5-1.1-.5-.9.2-1.2.5c-.3.3-.4.8-.4,1.4s.1,1.1.4,1.4c.3.3.7.5,1.2.5s.9-.2,1.1-.5Z"/>
    <path class="st2" d="M98.4,74.1h-3.7c0,.6.2,1.1.4,1.5.3.3.7.5,1.3.5s1.1-.2,1.6-.6l.3.6c-.2.2-.5.4-.8.5s-.7.2-1.1.2c-.8,0-1.4-.2-1.9-.7-.4-.5-.7-1.1-.7-1.9s.1-1,.3-1.4c.2-.4.5-.7.8-.9.4-.2.8-.3,1.2-.3.7,0,1.2.2,1.6.7s.6,1,.6,1.8v.2ZM95.2,72.5c-.3.3-.4.6-.5,1.1h2.9c0-.5-.2-.8-.4-1.1-.2-.2-.6-.4-1-.4s-.8.1-1,.4Z"/>
    <path class="st2" d="M106.7,73.5v3.2h-.8v-3.1c0-.5,0-.8-.2-1-.2-.2-.4-.3-.8-.3s-.8.1-1,.4c-.2.3-.4.7-.4,1.2v2.9h-.8v-3.1c0-.5,0-.8-.2-1-.2-.2-.4-.3-.8-.3s-.8.1-1,.4c-.2.3-.4.7-.4,1.2v2.9h-.8v-3.6c0-.5,0-1,0-1.4h.8v.9c.2-.3.4-.6.7-.7.3-.2.6-.3,1-.3s.7,0,1,.2.4.4.6.7c.2-.3.4-.5.7-.7.3-.2.6-.3,1-.3,1.1,0,1.7.7,1.7,2Z"/>
    <path class="st2" d="M109.1,69.5v.9h-1v-.9h1ZM108.2,71.6h.8v5h-.8v-5Z"/>
    <path class="st2" d="M111.3,76.4c-.4-.2-.6-.5-.8-.9-.2-.4-.3-.8-.3-1.4s.1-1,.3-1.4c.2-.4.5-.7.9-.9.4-.2.8-.3,1.3-.3s.7,0,1,.2c.3.1.6.3.8.5l-.3.6c-.3-.2-.5-.3-.7-.4-.2,0-.5-.1-.7-.1-.5,0-.9.2-1.2.5-.3.3-.4.8-.4,1.4s.1,1.1.4,1.4c.3.3.7.5,1.2.5s.5,0,.7-.1c.2,0,.5-.2.7-.4l.3.6c-.2.2-.5.4-.8.5-.3.1-.7.2-1,.2s-.9-.1-1.3-.3Z"/>
    <path class="st2" d="M117.9,69.5h2.4c1.1,0,2,.3,2.6.9.6.6.9,1.5.9,2.6s-.3,2-.9,2.6-1.5.9-2.6.9h-2.4v-7.1ZM120.3,75.9c.9,0,1.6-.2,2.1-.7.5-.5.7-1.2.7-2.2,0-1.9-.9-2.8-2.8-2.8h-1.5v5.7h1.5Z"/>
    <path class="st2" d="M129.4,74.1h-3.7c0,.6.2,1.1.4,1.5.3.3.7.5,1.3.5s1.1-.2,1.6-.6l.3.6c-.2.2-.5.4-.8.5s-.7.2-1.1.2c-.8,0-1.4-.2-1.9-.7-.4-.5-.7-1.1-.7-1.9s.1-1,.3-1.4c.2-.4.5-.7.8-.9.4-.2.8-.3,1.2-.3.7,0,1.2.2,1.6.7s.6,1,.6,1.8v.2ZM126.3,72.5c-.3.3-.4.6-.5,1.1h2.9c0-.5-.2-.8-.4-1.1-.2-.2-.6-.4-1-.4s-.8.1-1,.4Z"/>
    <path class="st2" d="M134.2,71.8c.3.2.6.5.8.9.2.4.3.9.3,1.4s0,1-.3,1.4c-.2.4-.4.7-.8.9-.3.2-.7.3-1.2.3s-.7,0-1-.3c-.3-.2-.5-.4-.7-.7v3.1h-.8v-5.8c0-.5,0-1,0-1.4h.8v1c.2-.3.4-.6.7-.8.3-.2.7-.3,1.1-.3s.8.1,1.2.3ZM134.1,75.5c.3-.3.4-.8.4-1.4s-.1-1.1-.4-1.4c-.3-.3-.7-.5-1.1-.5s-.9.2-1.2.5c-.3.3-.4.8-.4,1.4s.1,1.1.4,1.4c.3.3.7.5,1.2.5s.9-.2,1.1-.5Z"/>
    <path class="st2" d="M140.9,71.6v5h-.8v-.9c-.1.3-.4.6-.7.7-.3.2-.6.3-1,.3s-.8-.1-1.2-.3c-.3-.2-.6-.5-.8-.9-.2-.4-.3-.8-.3-1.4s0-1,.3-1.4c.2-.4.4-.7.8-.9.3-.2.7-.3,1.2-.3s.7,0,1,.3c.3.2.5.4.7.7v-.9h.8ZM139.7,75.5c.3-.3.4-.8.4-1.4s-.1-1.1-.4-1.4c-.3-.3-.6-.5-1.1-.5s-.9.2-1.2.5c-.3.3-.4.8-.4,1.4s.1,1.1.4,1.4c.3.3.7.5,1.2.5s.9-.2,1.1-.5Z"/>
    <path class="st2" d="M145.2,71.5v.7c-.2,0-.4,0-.6,0-.5,0-.8.2-1.1.5-.2.3-.4.7-.4,1.1v2.9h-.8v-3.6c0-.5,0-1,0-1.4h.8v.9c.2-.3.4-.6.7-.8.3-.2.6-.3,1-.3s.3,0,.5,0Z"/>
    <path class="st2" d="M147.4,72.2v2.8c0,.4,0,.6.2.8.2.2.4.2.7.2s.4,0,.5,0v.7c-.2,0-.4.1-.7.1-.5,0-.9-.1-1.1-.4s-.4-.7-.4-1.2v-2.9h-1v-.6h1v-1.3l.8-.3v1.6h1.4v.6h-1.4Z"/>
    <path class="st2" d="M157,73.5v3.2h-.8v-3.1c0-.5,0-.8-.2-1-.2-.2-.4-.3-.8-.3s-.8.1-1,.4c-.2.3-.4.7-.4,1.2v2.9h-.8v-3.1c0-.5,0-.8-.2-1-.2-.2-.4-.3-.8-.3s-.8.1-1,.4c-.2.3-.4.7-.4,1.2v2.9h-.8v-3.6c0-.5,0-1,0-1.4h.8v.9c.2-.3.4-.6.7-.7.3-.2.6-.3,1-.3s.7,0,1,.2.4.4.6.7c.2-.3.4-.5.7-.7.3-.2.6-.3,1-.3,1.1,0,1.7.7,1.7,2Z"/>
    <path class="st2" d="M162.6,74.1h-3.7c0,.6.2,1.1.4,1.5.3.3.7.5,1.3.5s1.1-.2,1.6-.6l.3.6c-.2.2-.5.4-.8.5-.3.1-.7.2-1.1.2-.8,0-1.4-.2-1.8-.7-.4-.5-.7-1.1-.7-1.9s0-1,.3-1.4c.2-.4.5-.7.8-.9.4-.2.8-.3,1.2-.3.7,0,1.2.2,1.6.7s.6,1,.6,1.8v.2ZM159.5,72.5c-.3.3-.4.6-.5,1.1h2.9c0-.5-.2-.8-.4-1.1-.2-.2-.6-.4-1-.4s-.8.1-1,.4Z"/>
    <path class="st2" d="M168.1,73.5v3.2h-.8v-3.1c0-.5,0-.8-.3-1-.2-.2-.5-.3-.9-.3s-.8.1-1.1.4c-.3.3-.4.7-.4,1.2v2.9h-.8v-3.6c0-.5,0-1,0-1.4h.8v.9c.2-.3.5-.6.8-.8s.7-.3,1-.3c1.2,0,1.8.7,1.8,2Z"/>
    <path class="st2" d="M170.6,72.2v2.8c0,.4,0,.6.2.8.2.2.4.2.7.2s.4,0,.5,0v.7c-.2,0-.4.1-.7.1-.5,0-.9-.1-1.1-.4s-.4-.7-.4-1.2v-2.9h-1v-.6h1v-1.3l.8-.3v1.6h1.4v.6h-1.4Z"/>
    <path class="st2" d="M172.6,76l.3-.6c.3.2.5.4.8.5.3,0,.6.1.9.1s.7,0,.9-.2c.2-.1.3-.3.3-.6s0-.4-.2-.5c-.1-.1-.4-.2-.7-.3l-.9-.2c-.4,0-.7-.3-1-.5-.2-.2-.3-.5-.3-.9s.2-.8.5-1.1c.4-.3.8-.4,1.4-.4s.7,0,1,.2c.3.1.6.3.8.5l-.3.6c-.5-.4-1-.6-1.5-.6s-.6,0-.8.2c-.2.1-.3.3-.3.6s0,.4.2.5.3.2.6.3l.8.2c.5.1.8.3,1,.5.2.2.3.5.3.9s-.2.8-.5,1c-.4.3-.8.4-1.4.4s-1.5-.2-2-.7Z"/>
    <path class="st2" d="M178.6,75.6v.7c0,.3,0,.5-.1.8,0,.2-.2.5-.5.7l-.4-.3c.3-.3.4-.6.4-.9h-.5v-1h1Z"/>
    <path class="st2" d="M182.6,69.5h.8v7.1h-.8v-7.1Z"/>
    <path class="st2" d="M189.3,73.5v3.2h-.8v-3.1c0-.5,0-.8-.3-1-.2-.2-.5-.3-.9-.3s-.8.1-1.1.4c-.3.3-.4.7-.4,1.2v2.9h-.8v-3.6c0-.5,0-1,0-1.4h.8v.9c.2-.3.5-.6.8-.8.3-.2.7-.3,1-.3,1.2,0,1.8.7,1.8,2Z"/>
    <path class="st2" d="M190.4,76l.3-.6c.3.2.5.4.8.5.3,0,.6.1.9.1s.7,0,.9-.2c.2-.1.3-.3.3-.6s0-.4-.2-.5c-.1-.1-.4-.2-.7-.3l-.9-.2c-.4,0-.7-.3-1-.5-.2-.2-.3-.5-.3-.9s.2-.8.5-1.1c.4-.3.8-.4,1.4-.4s.7,0,1,.2c.3.1.6.3.8.5l-.3.6c-.5-.4-1-.6-1.5-.6s-.6,0-.8.2c-.2.1-.3.3-.3.6s0,.4.2.5.3.2.6.3l.8.2c.5.1.8.3,1,.5.2.2.3.5.3.9s-.2.8-.5,1c-.4.3-.8.4-1.4.4s-1.5-.2-2-.7Z"/>
    <path class="st2" d="M196.6,72.2v2.8c0,.4,0,.6.2.8.2.2.4.2.7.2s.4,0,.5,0v.7c-.2,0-.4.1-.7.1-.5,0-.9-.1-1.1-.4s-.4-.7-.4-1.2v-2.9h-1v-.6h1v-1.3l.8-.3v1.6h1.4v.6h-1.4Z"/>
    <path class="st2" d="M199.9,69.5v.9h-1v-.9h1ZM199,71.6h.8v5h-.8v-5Z"/>
    <path class="st2" d="M202.3,72.2v2.8c0,.4,0,.6.2.8.2.2.4.2.7.2s.4,0,.5,0v.7c-.2,0-.4.1-.7.1-.5,0-.9-.1-1.1-.4-.3-.3-.4-.7-.4-1.2v-2.9h-1v-.6h1v-1.3l.8-.3v1.6h1.4v.6h-1.4Z"/>
    <path class="st2" d="M208.9,71.6v5h-.8v-.9c-.2.3-.4.5-.7.7-.3.2-.6.2-1,.2-.6,0-1-.2-1.3-.5-.3-.3-.5-.8-.5-1.5v-3.1h.8v3.1c0,.5,0,.8.3,1,.2.2.5.3.8.3s.8-.1,1.1-.4.4-.7.4-1.1v-2.8h.8Z"/>
    <path class="st2" d="M211.4,72.2v2.8c0,.4,0,.6.2.8.2.2.4.2.7.2s.4,0,.5,0v.7c-.2,0-.4.1-.7.1-.5,0-.9-.1-1.1-.4s-.4-.7-.4-1.2v-2.9h-1v-.6h1v-1.3l.8-.3v1.6h1.4v.6h-1.4Z"/>
    <path class="st2" d="M217.9,74.1h-3.7c0,.6.2,1.1.4,1.5.3.3.7.5,1.3.5s1.1-.2,1.6-.6l.3.6c-.2.2-.5.4-.8.5s-.7.2-1.1.2c-.8,0-1.4-.2-1.9-.7-.4-.5-.7-1.1-.7-1.9s.1-1,.3-1.4c.2-.4.5-.7.8-.9.4-.2.8-.3,1.2-.3.7,0,1.2.2,1.6.7s.6,1,.6,1.8v.2ZM214.8,72.5c-.3.3-.4.6-.5,1.1h2.9c0-.5-.2-.8-.4-1.1-.2-.2-.6-.4-1-.4s-.8.1-1,.4Z"/>
    <path class="st2" d="M218.8,76l.3-.6c.3.2.5.4.8.5.3,0,.6.1.9.1s.7,0,.9-.2c.2-.1.3-.3.3-.6s0-.4-.2-.5c-.1-.1-.4-.2-.7-.3l-.9-.2c-.4,0-.7-.3-1-.5-.2-.2-.3-.5-.3-.9s.2-.8.5-1.1c.4-.3.8-.4,1.4-.4s.7,0,1,.2c.3.1.6.3.8.5l-.3.6c-.5-.4-1-.6-1.5-.6s-.6,0-.8.2c-.2.1-.3.3-.3.6s0,.4.2.5.3.2.6.3l.8.2c.5.1.8.3,1,.5.2.2.3.5.3.9s-.2.8-.5,1c-.4.3-.8.4-1.4.4s-1.5-.2-2-.7Z"/>
    <path class="st2" d="M224.8,75.6v.7c0,.3,0,.5-.1.8,0,.2-.2.5-.5.7l-.4-.3c.3-.3.4-.6.4-.9h-.5v-1h1Z"/>
    <path class="st2" d="M233.4,74.8h-3.7l-.8,1.8h-.8l3.1-7.1h.7l3.1,7.1h-.8l-.8-1.8ZM233.1,74.1l-1.6-3.7-1.6,3.7h3.1Z"/>
    <path class="st2" d="M236.7,76.4c-.4-.2-.6-.5-.8-.9-.2-.4-.3-.8-.3-1.4s.1-1,.3-1.4c.2-.4.5-.7.9-.9.4-.2.8-.3,1.3-.3s.7,0,1,.2c.3.1.6.3.8.5l-.3.6c-.3-.2-.5-.3-.7-.4-.2,0-.5-.1-.7-.1-.5,0-.9.2-1.2.5-.3.3-.4.8-.4,1.4s.1,1.1.4,1.4c.3.3.7.5,1.2.5s.5,0,.7-.1c.2,0,.5-.2.7-.4l.3.6c-.2.2-.5.4-.8.5-.3.1-.7.2-1,.2s-.9-.1-1.3-.3Z"/>
    <path class="st2" d="M245.2,71.6v5h-.8v-.9c-.1.3-.4.6-.7.7-.3.2-.6.3-1,.3s-.8-.1-1.2-.3c-.3-.2-.6-.5-.8-.9-.2-.4-.3-.8-.3-1.4s0-1,.3-1.4c.2-.4.4-.7.8-.9.3-.2.7-.3,1.2-.3s.7,0,1,.3c.3.2.5.4.7.7v-.9h.8ZM244,75.5c.3-.3.4-.8.4-1.4s-.1-1.1-.4-1.4c-.3-.3-.6-.5-1.1-.5s-.9.2-1.2.5c-.3.3-.4.8-.4,1.4s.1,1.1.4,1.4c.3.3.7.5,1.2.5s.9-.2,1.1-.5Z"/>
    <path class="st2" d="M251.1,69.3v7.4h-.8v-.9c-.1.3-.4.6-.7.7-.3.2-.6.3-1,.3s-.8-.1-1.2-.3c-.3-.2-.6-.5-.8-.9-.2-.4-.3-.9-.3-1.4s0-1,.3-1.4c.2-.4.4-.7.8-.9.3-.2.7-.3,1.2-.3s.7,0,1,.3c.3.2.5.4.7.7v-3.2h.8ZM249.9,75.5c.3-.3.4-.8.4-1.4s-.1-1.1-.4-1.4-.6-.5-1.1-.5-.9.2-1.2.5c-.3.3-.4.8-.4,1.4s.1,1.1.4,1.4c.3.3.7.5,1.2.5s.9-.2,1.1-.5Z"/>
    <path class="st2" d="M256.8,74.1h-3.7c0,.6.2,1.1.4,1.5.3.3.7.5,1.3.5s1.1-.2,1.6-.6l.3.6c-.2.2-.5.4-.8.5s-.7.2-1.1.2c-.8,0-1.4-.2-1.9-.7-.4-.5-.7-1.1-.7-1.9s.1-1,.3-1.4c.2-.4.5-.7.8-.9.4-.2.8-.3,1.2-.3.7,0,1.2.2,1.6.7s.6,1,.6,1.8v.2ZM253.6,72.5c-.3.3-.4.6-.5,1.1h2.9c0-.5-.2-.8-.4-1.1-.2-.2-.6-.4-1-.4s-.8.1-1,.4Z"/>
    <path class="st2" d="M265.2,73.5v3.2h-.8v-3.1c0-.5,0-.8-.2-1-.2-.2-.4-.3-.8-.3s-.8.1-1,.4c-.2.3-.4.7-.4,1.2v2.9h-.8v-3.1c0-.5,0-.8-.2-1-.2-.2-.4-.3-.8-.3s-.8.1-1,.4c-.2.3-.4.7-.4,1.2v2.9h-.8v-3.6c0-.5,0-1,0-1.4h.8v.9c.2-.3.4-.6.7-.7.3-.2.6-.3,1-.3s.7,0,1,.2.4.4.6.7c.2-.3.4-.5.7-.7.3-.2.6-.3,1-.3,1.1,0,1.7.7,1.7,2Z"/>
    <path class="st2" d="M267.5,69.5v.9h-1v-.9h1ZM266.6,71.6h.8v5h-.8v-5Z"/>
    <path class="st2" d="M269.7,76.4c-.4-.2-.6-.5-.8-.9-.2-.4-.3-.8-.3-1.4s.1-1,.3-1.4c.2-.4.5-.7.9-.9.4-.2.8-.3,1.3-.3s.7,0,1,.2c.3.1.6.3.8.5l-.3.6c-.3-.2-.5-.3-.7-.4-.2,0-.5-.1-.7-.1-.5,0-.9.2-1.2.5-.3.3-.4.8-.4,1.4s.1,1.1.4,1.4c.3.3.7.5,1.2.5s.5,0,.7-.1c.2,0,.5-.2.7-.4l.3.6c-.2.2-.5.4-.8.5-.3.1-.7.2-1,.2s-.9-.1-1.3-.3Z"/>
  </g>
  <path class="st2" d="M9.9,81.5h2.8c.7,0,1.3.2,1.7.5.4.4.6.8.6,1.5s-.2,1.1-.6,1.5c-.4.4-1,.5-1.7.5h-2v3.1h-.8v-7.1ZM12.6,84.8c.5,0,.9-.1,1.2-.3.3-.2.4-.6.4-1s-.1-.8-.4-1c-.3-.2-.7-.3-1.2-.3h-1.9v2.6h1.9ZM18.4,83.5c.2,0,.3,0,.5,0v.7c-.2,0-.4,0-.5,0-.5,0-.8.2-1.1.5-.2.3-.4.7-.4,1.1v2.9h-.8v-3.6c0-.5,0-1,0-1.4h.8v.9c.2-.3.4-.6.7-.8s.6-.3,1-.3h0ZM21.6,88.7c-.5,0-.9-.1-1.2-.3-.4-.2-.6-.5-.8-.9-.2-.4-.3-.9-.3-1.4s0-1,.3-1.4c.2-.4.5-.7.8-.9.4-.2.8-.3,1.2-.3s.9.1,1.2.3c.4.2.6.5.8.9.2.4.3.9.3,1.4s0,1-.3,1.4c-.2.4-.5.7-.8.9-.4.2-.8.3-1.2.3h0ZM21.6,88c.5,0,.9-.2,1.1-.5.3-.3.4-.8.4-1.4s-.1-1.1-.4-1.4c-.3-.3-.7-.5-1.1-.5s-.9.2-1.2.5c-.3.3-.4.8-.4,1.4s.1,1.1.4,1.4.7.5,1.2.5h0ZM29.6,83.6v5c0,.7-.2,1.3-.6,1.7-.4.4-.9.6-1.7.6s-1.4-.2-2-.5v-.7c.5.2.8.3,1,.4.3,0,.6.1.9.1.5,0,.9-.1,1.1-.4.2-.3.4-.6.4-1.1v-1.2c-.2.3-.4.6-.7.7-.3.2-.6.3-1.1.3s-.8-.1-1.2-.3c-.3-.2-.6-.5-.8-.9-.2-.4-.3-.8-.3-1.3s0-.9.3-1.3c.2-.4.5-.7.8-.9.3-.2.7-.3,1.2-.3s.7,0,1,.3c.3.2.5.4.7.7v-.9h.8ZM27.2,87.8c.5,0,.9-.2,1.1-.5.3-.3.4-.8.4-1.3s-.1-1-.4-1.3c-.3-.3-.7-.5-1.1-.5s-.9.2-1.2.5c-.3.3-.4.8-.4,1.3s.1,1,.4,1.3c.3.3.7.5,1.2.5h0ZM33.4,83.5c.2,0,.3,0,.5,0v.7c-.2,0-.4,0-.6,0-.5,0-.8.2-1.1.5-.2.3-.4.7-.4,1.1v2.9h-.8v-3.6c0-.5,0-1,0-1.4h.8v.9c.2-.3.4-.6.7-.8.3-.2.6-.3,1-.3h0ZM38.9,83.6v5h-.8v-.9c-.1.3-.4.6-.7.7-.3.2-.6.3-1,.3s-.8-.1-1.2-.3c-.3-.2-.6-.5-.8-.9-.2-.4-.3-.8-.3-1.4s0-1,.3-1.4c.2-.4.4-.7.8-.9.3-.2.7-.3,1.2-.3s.7,0,1,.3c.3.2.5.4.7.7v-.9h.8ZM36.6,88c.5,0,.9-.2,1.1-.5.3-.3.4-.8.4-1.4s-.1-1.1-.4-1.4c-.3-.3-.6-.5-1.1-.5s-.9.2-1.2.5c-.3.3-.4.8-.4,1.4s.1,1.1.4,1.4c.3.3.7.5,1.2.5h0ZM46,83.5c1.1,0,1.7.7,1.7,2v3.2h-.8v-3.1c0-.5,0-.8-.2-1-.2-.2-.4-.3-.8-.3s-.8.1-1,.4c-.2.3-.4.7-.4,1.2v2.9h-.8v-3.1c0-.5,0-.8-.2-1-.2-.2-.4-.3-.8-.3s-.8.1-1,.4c-.2.3-.4.7-.4,1.2v2.9h-.8v-3.6c0-.5,0-1,0-1.4h.8v.9c.2-.3.4-.6.7-.7.3-.2.6-.3,1-.3s.7,0,1,.2c.3.2.4.4.6.7.2-.3.4-.5.7-.7.3-.2.6-.3,1-.3h0ZM50.8,88.7c-.8,0-1.5-.2-2-.7l.3-.6c.3.2.5.4.8.5.3,0,.6.1.9.1s.7,0,.9-.2c.2-.1.3-.3.3-.6s0-.4-.2-.5c-.1-.1-.4-.2-.7-.3l-.9-.2c-.4,0-.7-.3-1-.5-.2-.2-.3-.5-.3-.9s.2-.8.5-1.1c.4-.3.8-.4,1.4-.4s.7,0,1,.2c.3.1.6.3.8.5l-.3.6c-.5-.4-1-.6-1.5-.6s-.6,0-.8.2c-.2.1-.3.3-.3.6s0,.4.2.5c.1.1.3.2.6.3l.8.2c.5.1.8.3,1,.5.2.2.3.5.3.9s-.2.8-.5,1c-.4.3-.8.4-1.4.4h0ZM54.8,87.6v.7c0,.3,0,.5-.1.8,0,.2-.2.5-.5.7l-.4-.3c.3-.3.4-.6.4-.9h-.5v-1h1ZM58.7,81.5h.8v6.4h3.6v.7h-4.4v-7.1ZM68.4,83.6v5h-.8v-.9c-.1.3-.4.6-.7.7-.3.2-.6.3-1,.3s-.8-.1-1.2-.3c-.3-.2-.6-.5-.8-.9-.2-.4-.3-.8-.3-1.4s0-1,.3-1.4c.2-.4.4-.7.8-.9.3-.2.7-.3,1.2-.3s.7,0,1,.3c.3.2.5.4.7.7v-.9h.8ZM66,88c.5,0,.9-.2,1.1-.5.3-.3.4-.8.4-1.4s-.1-1.1-.4-1.4c-.3-.3-.6-.5-1.1-.5s-.9.2-1.2.5c-.3.3-.4.8-.4,1.4s.1,1.1.4,1.4c.3.3.7.5,1.2.5h0ZM72.4,83.5c.4,0,.8.1,1.2.3.3.2.6.5.8.9.2.4.3.8.3,1.4s0,1-.3,1.4c-.2.4-.4.7-.8.9-.3.2-.7.3-1.2.3s-.7,0-1-.3c-.3-.2-.5-.4-.7-.7v.9h-.8v-7.4h.8v3.2c.1-.3.4-.6.7-.8.3-.2.6-.3,1-.3h0ZM72.2,88c.5,0,.9-.2,1.1-.5.3-.3.4-.8.4-1.4s-.1-1.1-.4-1.4c-.3-.3-.7-.5-1.1-.5s-.9.2-1.2.5c-.3.3-.4.8-.4,1.4s.1,1.1.4,1.4c.3.3.7.5,1.2.5h0ZM77.8,88.7c-.5,0-.9-.1-1.2-.3-.4-.2-.6-.5-.8-.9-.2-.4-.3-.9-.3-1.4s0-1,.3-1.4c.2-.4.5-.7.8-.9.4-.2.8-.3,1.2-.3s.9.1,1.2.3c.4.2.6.5.8.9.2.4.3.9.3,1.4s0,1-.3,1.4c-.2.4-.5.7-.8.9-.4.2-.8.3-1.2.3h0ZM77.8,88c.5,0,.9-.2,1.2-.5.3-.3.4-.8.4-1.4s-.1-1.1-.4-1.4c-.3-.3-.7-.5-1.1-.5s-.9.2-1.2.5c-.3.3-.4.8-.4,1.4s.1,1.1.4,1.4c.3.3.7.5,1.2.5h0ZM83.7,83.5c.2,0,.3,0,.5,0v.7c-.2,0-.3,0-.6,0-.5,0-.8.2-1.1.5-.2.3-.4.7-.4,1.1v2.9h-.8v-3.6c0-.5,0-1,0-1.4h.8v.9c.2-.3.4-.6.7-.8.3-.2.6-.3,1-.3h0ZM89.2,83.6v5h-.8v-.9c-.1.3-.4.6-.7.7-.3.2-.6.3-1,.3s-.8-.1-1.2-.3c-.3-.2-.6-.5-.8-.9-.2-.4-.3-.8-.3-1.4s0-1,.3-1.4c.2-.4.4-.7.8-.9.3-.2.7-.3,1.2-.3s.7,0,1,.3c.3.2.5.4.7.7v-.9h.8ZM86.9,88c.5,0,.9-.2,1.1-.5.3-.3.4-.8.4-1.4s-.1-1.1-.4-1.4c-.3-.3-.6-.5-1.1-.5s-.9.2-1.2.5c-.3.3-.4.8-.4,1.4s.1,1.1.4,1.4c.3.3.7.5,1.2.5h0ZM91.8,84.2v2.8c0,.4,0,.6.2.8.2.1.4.2.7.2s.4,0,.5,0v.7c-.2,0-.4,0-.7,0-.5,0-.9-.1-1.1-.4-.3-.3-.4-.7-.4-1.2v-2.9h-1v-.6h1v-1.3l.8-.3v1.6h1.4v.6h-1.4ZM96.2,88.7c-.5,0-.9-.1-1.2-.3-.4-.2-.6-.5-.8-.9-.2-.4-.3-.9-.3-1.4s0-1,.3-1.4c.2-.4.5-.7.8-.9.4-.2.8-.3,1.2-.3s.9.1,1.2.3c.4.2.6.5.8.9.2.4.3.9.3,1.4s0,1-.3,1.4c-.2.4-.5.7-.8.9-.4.2-.8.3-1.2.3h0ZM96.2,88c.5,0,.9-.2,1.2-.5.3-.3.4-.8.4-1.4s-.1-1.1-.4-1.4c-.3-.3-.7-.5-1.1-.5s-.9.2-1.2.5c-.3.3-.4.8-.4,1.4s.1,1.1.4,1.4c.3.3.7.5,1.2.5h0ZM102.1,83.5c.2,0,.3,0,.5,0v.7c-.2,0-.3,0-.6,0-.5,0-.8.2-1.1.5-.2.3-.4.7-.4,1.1v2.9h-.8v-3.6c0-.5,0-1,0-1.4h.8v.9c.2-.3.4-.6.7-.8.3-.2.6-.3,1-.3h0ZM104.1,81.5v.9h-1v-.9h1ZM103.2,83.6h.8v5h-.8v-5ZM109.7,86.1h-3.7c0,.6.2,1.1.4,1.5.3.3.7.5,1.3.5s1.1-.2,1.6-.6l.3.6c-.2.2-.5.4-.8.5-.3.1-.7.2-1.1.2-.8,0-1.4-.2-1.8-.7-.4-.5-.7-1.1-.7-1.9s0-1,.3-1.4c.2-.4.5-.7.8-.9s.8-.3,1.2-.3c.7,0,1.2.2,1.6.7.4.4.6,1,.6,1.8v.2ZM107.6,84.1c-.4,0-.8.1-1,.4-.3.3-.4.6-.5,1.1h2.9c0-.5-.2-.8-.4-1.1-.2-.2-.6-.4-1-.4h0ZM112.6,88.7c-.8,0-1.5-.2-2-.7l.3-.6c.3.2.6.4.8.5.3,0,.6.1.9.1s.7,0,.9-.2c.2-.1.3-.3.3-.6s0-.4-.2-.5c-.1-.1-.4-.2-.7-.3l-.8-.2c-.4,0-.7-.3-1-.5-.2-.2-.3-.5-.3-.9s.2-.8.5-1.1c.4-.3.8-.4,1.4-.4s.7,0,1,.2c.3.1.6.3.8.5l-.3.6c-.5-.4-1-.6-1.5-.6s-.6,0-.8.2c-.2.1-.3.3-.3.6s0,.4.2.5c.1.1.3.2.6.3l.8.2c.5.1.8.3,1,.5.2.2.3.5.3.9s-.2.8-.5,1c-.4.3-.8.4-1.4.4h0ZM116.6,87.6v.7c0,.3,0,.5-.1.8,0,.2-.2.5-.5.7l-.4-.3c.3-.3.4-.6.4-.9h-.5v-1h1ZM124.8,83.6v5h-.8v-.9c-.1.3-.4.6-.7.7-.3.2-.6.3-1,.3s-.8-.1-1.2-.3c-.3-.2-.6-.5-.8-.9-.2-.4-.3-.8-.3-1.4s0-1,.3-1.4c.2-.4.4-.7.8-.9.3-.2.7-.3,1.2-.3s.7,0,1,.3c.3.2.5.4.7.7v-.9h.8ZM122.5,88c.5,0,.9-.2,1.1-.5.3-.3.4-.8.4-1.4s-.1-1.1-.4-1.4c-.3-.3-.6-.5-1.1-.5s-.9.2-1.2.5c-.3.3-.4.8-.4,1.4s.1,1.1.4,1.4c.3.3.7.5,1.2.5h0ZM128.8,83.5c1.2,0,1.8.7,1.8,2v3.2h-.8v-3.1c0-.5,0-.8-.3-1-.2-.2-.5-.3-.9-.3s-.8.1-1.1.4c-.3.3-.4.7-.4,1.2v2.9h-.8v-3.6c0-.5,0-1,0-1.4h.8v.9c.2-.3.5-.6.8-.8.3-.2.7-.3,1-.3h0ZM136.5,81.3v7.4h-.8v-.9c-.1.3-.4.6-.7.7-.3.2-.6.3-1,.3s-.8-.1-1.2-.3c-.3-.2-.6-.5-.8-.9-.2-.4-.3-.9-.3-1.4s0-1,.3-1.4c.2-.4.4-.7.8-.9.3-.2.7-.3,1.2-.3s.7,0,1,.3c.3.2.5.4.7.7v-3.2h.8ZM134.1,88c.5,0,.9-.2,1.1-.5.3-.3.4-.8.4-1.4s-.1-1.1-.4-1.4c-.3-.3-.6-.5-1.1-.5s-.9.2-1.2.5c-.3.3-.4.8-.4,1.4s.1,1.1.4,1.4c.3.3.7.5,1.2.5h0ZM143.6,88.7c-.7,0-1.3-.1-1.8-.4-.5-.3-.9-.7-1.1-1.3-.3-.6-.4-1.2-.4-1.9s.1-1.4.4-1.9c.3-.5.6-1,1.1-1.3.5-.3,1.1-.4,1.8-.4s.9,0,1.4.2c.4.2.8.4,1.1.7l-.3.6c-.3-.3-.7-.5-1-.6-.3-.1-.7-.2-1.1-.2-.8,0-1.4.3-1.8.8-.4.5-.6,1.2-.6,2.2s.2,1.7.6,2.2c.4.5,1,.8,1.8.8s.8,0,1.1-.2c.3-.1.7-.3,1-.6l.3.6c-.3.3-.7.5-1.1.7-.4.2-.9.2-1.4.2h0ZM151.3,86.1h-3.7c0,.6.2,1.1.4,1.5.3.3.7.5,1.3.5s1.1-.2,1.6-.6l.3.6c-.2.2-.5.4-.8.5-.3.1-.7.2-1.1.2-.8,0-1.4-.2-1.9-.7-.4-.5-.7-1.1-.7-1.9s.1-1,.3-1.4c.2-.4.5-.7.8-.9s.8-.3,1.2-.3c.7,0,1.2.2,1.6.7.4.4.6,1,.6,1.8v.2ZM149.2,84.1c-.4,0-.8.1-1,.4-.3.3-.4.6-.5,1.1h2.9c0-.5-.2-.8-.4-1.1-.2-.2-.6-.4-1-.4h0ZM154.9,83.5c1.2,0,1.8.7,1.8,2v3.2h-.8v-3.1c0-.5,0-.8-.3-1-.2-.2-.5-.3-.9-.3s-.8.1-1.1.4c-.3.3-.4.7-.4,1.2v2.9h-.8v-3.6c0-.5,0-1,0-1.4h.8v.9c.2-.3.5-.6.8-.8.3-.2.7-.3,1-.3h0ZM159.3,84.2v2.8c0,.4,0,.6.2.8.2.1.4.2.7.2s.4,0,.5,0v.7c-.2,0-.4,0-.7,0-.5,0-.9-.1-1.1-.4-.3-.3-.4-.7-.4-1.2v-2.9h-1v-.6h1v-1.3l.8-.3v1.6h1.4v.6h-1.4ZM165.8,86.1h-3.7c0,.6.2,1.1.4,1.5.3.3.7.5,1.3.5s1.1-.2,1.6-.6l.3.6c-.2.2-.5.4-.8.5-.3.1-.7.2-1.1.2-.8,0-1.4-.2-1.9-.7-.4-.5-.7-1.1-.7-1.9s.1-1,.3-1.4c.2-.4.5-.7.8-.9s.8-.3,1.2-.3c.7,0,1.2.2,1.6.7.4.4.6,1,.6,1.8v.2ZM163.7,84.1c-.4,0-.8.1-1,.4-.3.3-.4.6-.5,1.1h2.9c0-.5-.2-.8-.4-1.1-.2-.2-.6-.4-1-.4h0ZM169.3,83.5c.2,0,.3,0,.5,0v.7c-.2,0-.4,0-.6,0-.5,0-.8.2-1.1.5-.2.3-.4.7-.4,1.1v2.9h-.8v-3.6c0-.5,0-1,0-1.4h.8v.9c.2-.3.4-.6.7-.8s.6-.3,1-.3h0ZM172.1,88.7c-.8,0-1.5-.2-2-.7l.3-.6c.3.2.5.4.8.5.3,0,.6.1.9.1s.7,0,.9-.2c.2-.1.3-.3.3-.6s0-.4-.2-.5c-.1-.1-.4-.2-.7-.3l-.8-.2c-.4,0-.7-.3-1-.5-.2-.2-.3-.5-.3-.9s.2-.8.5-1.1c.4-.3.8-.4,1.4-.4s.7,0,1,.2c.3.1.6.3.8.5l-.3.6c-.5-.4-1-.6-1.5-.6s-.6,0-.8.2c-.2.1-.3.3-.3.6s0,.4.2.5c.1.1.3.2.6.3l.9.2c.5.1.8.3,1,.5.2.2.3.5.3.9s-.2.8-.5,1c-.4.3-.8.4-1.4.4h0ZM174.2,89.2l2.6-8h.8l-2.6,8h-.7ZM181,88.7c-.7,0-1.2-.1-1.7-.4-.5-.3-.9-.7-1.1-1.3-.3-.6-.4-1.2-.4-1.9s.1-1.4.4-1.9c.3-.5.6-1,1.1-1.3.5-.3,1.1-.4,1.7-.4s1.2.1,1.7.4c.5.3.9.7,1.1,1.3.3.5.4,1.2.4,1.9s-.1,1.4-.4,1.9c-.3.5-.6,1-1.1,1.3-.5.3-1.1.4-1.7.4h0ZM181,88c.8,0,1.3-.3,1.8-.8.4-.5.6-1.2.6-2.2s-.2-1.7-.6-2.2c-.4-.5-1-.8-1.8-.8s-1.4.3-1.8.8-.6,1.2-.6,2.2.2,1.7.6,2.2c.4.5,1,.8,1.8.8h0ZM187.4,81.9c-.3,0-.5,0-.6.2-.2.2-.2.4-.2.8v.7h1.2v.6h-1.2v4.4h-.8v-4.4h-1v-.6h1v-.8c0-.5.1-.9.4-1.2.3-.3.6-.4,1.1-.4s.5,0,.7,0v.7c-.2,0-.4,0-.5,0h0ZM189.9,83.6h3.1v5h-.8v-4.4h-2.3v4.4h-.8v-4.4h-1v-.6h1v-.7c0-.4,0-.7.2-1,.1-.2.3-.4.6-.5.3-.1.7-.2,1.1-.2h.3v.6h-.2c-.3,0-.6,0-.8,0-.2,0-.3.2-.3.3,0,.2,0,.4,0,.8v.5ZM193.1,81.4v.9h-1v-.9h1ZM196.5,88.7c-.5,0-.9-.1-1.3-.3-.4-.2-.6-.5-.8-.9-.2-.4-.3-.8-.3-1.4s.1-1,.3-1.4c.2-.4.5-.7.9-.9.4-.2.8-.3,1.3-.3s.7,0,1,.2c.3.1.6.3.8.5l-.3.6c-.3-.2-.5-.3-.7-.4-.2,0-.5-.1-.7-.1-.5,0-.9.2-1.2.5-.3.3-.4.8-.4,1.4s.1,1.1.4,1.4c.3.3.7.5,1.2.5s.5,0,.7-.1c.2,0,.5-.2.7-.4l.3.6c-.2.2-.5.4-.8.5-.3.1-.7.2-1,.2h0ZM203.5,86.1h-3.7c0,.6.2,1.1.4,1.5.3.3.7.5,1.3.5s1.1-.2,1.6-.6l.3.6c-.2.2-.5.4-.8.5-.3.1-.7.2-1.1.2-.8,0-1.4-.2-1.9-.7-.4-.5-.7-1.1-.7-1.9s.1-1,.3-1.4c.2-.4.5-.7.8-.9s.8-.3,1.2-.3c.7,0,1.2.2,1.6.7.4.4.6,1,.6,1.8v.2ZM201.3,84.1c-.4,0-.8.1-1,.4-.3.3-.4.6-.5,1.1h2.9c0-.5-.2-.8-.4-1.1-.2-.2-.6-.4-1-.4h0Z"/>
  <g>
    <path class="st2" d="M9.9,105.5h2.8c.7,0,1.3.2,1.7.5s.6.8.6,1.5-.2,1.1-.6,1.5-1,.5-1.7.5h-2v3.1h-.8v-7.1ZM12.6,108.8c.5,0,.9-.1,1.2-.3.3-.2.4-.6.4-1s-.1-.8-.4-1c-.3-.2-.7-.3-1.2-.3h-1.9v2.6h1.9Z"/>
    <path class="st2" d="M20.5,109.5v3.2h-.8v-3.1c0-.5,0-.8-.3-1-.2-.2-.5-.3-.9-.3s-.8.1-1.1.4c-.3.3-.4.7-.4,1.2v2.9h-.8v-7.4h.8v3.2c.2-.3.4-.5.7-.7.3-.2.6-.2,1-.2,1.2,0,1.8.7,1.8,2Z"/>
    <path class="st2" d="M22.8,112.4c-.4-.2-.6-.5-.8-.9-.2-.4-.3-.9-.3-1.4s0-1,.3-1.4c.2-.4.5-.7.8-.9.4-.2.8-.3,1.2-.3s.9.1,1.2.3c.4.2.6.5.8.9.2.4.3.9.3,1.4s0,1-.3,1.4c-.2.4-.5.7-.8.9-.4.2-.8.3-1.2.3s-.9-.1-1.2-.3ZM25.2,111.5c.3-.3.4-.8.4-1.4s-.1-1.1-.4-1.4-.7-.5-1.1-.5-.9.2-1.1.5-.4.8-.4,1.4.1,1.1.4,1.4c.3.3.7.5,1.2.5s.9-.2,1.2-.5Z"/>
    <path class="st2" d="M31.9,109.5v3.2h-.8v-3.1c0-.5,0-.8-.3-1-.2-.2-.5-.3-.9-.3s-.8.1-1.1.4c-.3.3-.4.7-.4,1.2v2.9h-.8v-3.6c0-.5,0-1,0-1.4h.8v.9c.2-.3.5-.6.8-.8.3-.2.7-.3,1-.3,1.2,0,1.8.7,1.8,2Z"/>
    <path class="st2" d="M37.6,110.1h-3.7c0,.6.2,1.1.4,1.5.3.3.7.5,1.3.5s1.1-.2,1.6-.6l.3.6c-.2.2-.5.4-.8.5-.3.1-.7.2-1.1.2-.8,0-1.4-.2-1.8-.7-.4-.5-.7-1.1-.7-1.9s0-1,.3-1.4c.2-.4.5-.7.8-.9.4-.2.8-.3,1.2-.3.7,0,1.2.2,1.6.7s.6,1,.6,1.8v.2ZM34.4,108.5c-.3.3-.4.6-.5,1.1h2.9c0-.5-.2-.8-.4-1.1-.2-.2-.6-.4-1-.4s-.8.1-1,.4Z"/>
    <path class="st2" d="M45.5,109.5v3.2h-.8v-3.1c0-.5,0-.8-.3-1-.2-.2-.5-.3-.9-.3s-.8.1-1.1.4c-.3.3-.4.7-.4,1.2v2.9h-.8v-3.6c0-.5,0-1,0-1.4h.8v.9c.2-.3.5-.6.8-.8.3-.2.7-.3,1-.3,1.2,0,1.8.7,1.8,2Z"/>
    <path class="st2" d="M51.2,107.6v5h-.8v-.9c-.2.3-.4.5-.7.7-.3.2-.6.2-1,.2-.6,0-1-.2-1.3-.5-.3-.3-.5-.8-.5-1.5v-3.1h.8v3.1c0,.5,0,.8.3,1,.2.2.5.3.8.3s.8-.1,1.1-.4.4-.7.4-1.1v-2.8h.8Z"/>
    <path class="st2" d="M59.9,109.5v3.2h-.8v-3.1c0-.5,0-.8-.2-1-.2-.2-.4-.3-.8-.3s-.8.1-1,.4c-.2.3-.4.7-.4,1.2v2.9h-.8v-3.1c0-.5,0-.8-.2-1-.2-.2-.4-.3-.8-.3s-.8.1-1,.4c-.2.3-.4.7-.4,1.2v2.9h-.8v-3.6c0-.5,0-1,0-1.4h.8v.9c.2-.3.4-.6.7-.7.3-.2.6-.3,1-.3s.7,0,1,.2.4.4.6.7c.2-.3.4-.5.7-.7.3-.2.6-.3,1-.3,1.1,0,1.7.7,1.7,2Z"/>
    <path class="st2" d="M65,107.8c.3.2.6.5.8.9.2.4.3.8.3,1.4s0,1-.3,1.4c-.2.4-.5.7-.8.9-.3.2-.7.3-1.2.3s-.7,0-1-.3c-.3-.2-.5-.4-.7-.7v.9h-.8v-7.4h.8v3.2c.1-.3.4-.6.7-.8.3-.2.6-.3,1-.3s.8.1,1.2.3ZM64.8,111.5c.3-.3.4-.8.4-1.4s-.1-1.1-.4-1.4c-.3-.3-.7-.5-1.1-.5s-.9.2-1.1.5c-.3.3-.4.8-.4,1.4s.1,1.1.4,1.4c.3.3.6.5,1.1.5s.9-.2,1.1-.5Z"/>
    <path class="st2" d="M71.5,110.1h-3.7c0,.6.2,1.1.4,1.5.3.3.7.5,1.3.5s1.1-.2,1.6-.6l.3.6c-.2.2-.5.4-.8.5-.3.1-.7.2-1.1.2-.8,0-1.4-.2-1.8-.7-.4-.5-.7-1.1-.7-1.9s0-1,.3-1.4c.2-.4.5-.7.8-.9.4-.2.8-.3,1.2-.3.7,0,1.2.2,1.6.7s.6,1,.6,1.8v.2ZM68.3,108.5c-.3.3-.4.6-.5,1.1h2.9c0-.5-.2-.8-.4-1.1-.2-.2-.6-.4-1-.4s-.8.1-1,.4Z"/>
    <path class="st2" d="M75.4,107.5v.7c-.2,0-.4,0-.6,0-.5,0-.8.2-1.1.5-.2.3-.4.7-.4,1.1v2.9h-.8v-3.6c0-.5,0-1,0-1.4h.8v.9c.2-.3.4-.6.7-.8.3-.2.6-.3,1-.3s.3,0,.5,0Z"/>
    <path class="st2" d="M77.6,113.2l2.6-8h.8l-2.6,8h-.7Z"/>
    <path class="st2" d="M84,105.5h2.4c1.1,0,2,.3,2.6.9.6.6.9,1.5.9,2.6s-.3,2-.9,2.6c-.6.6-1.5.9-2.6.9h-2.4v-7.1ZM86.4,111.9c.9,0,1.6-.2,2.1-.7.5-.5.7-1.2.7-2.2,0-1.9-.9-2.8-2.8-2.8h-1.5v5.7h1.5Z"/>
    <path class="st2" d="M92.2,105.5v.9h-1v-.9h1ZM91.3,107.6h.8v5h-.8v-5Z"/>
    <path class="st2" d="M96.4,107.5v.7c-.2,0-.4,0-.6,0-.5,0-.8.2-1.1.5-.2.3-.4.7-.4,1.1v2.9h-.8v-3.6c0-.5,0-1,0-1.4h.8v.9c.2-.3.4-.6.7-.8.3-.2.6-.3,1-.3s.3,0,.5,0Z"/>
    <path class="st2" d="M101.2,110.1h-3.7c0,.6.2,1.1.4,1.5.3.3.7.5,1.3.5s1.1-.2,1.6-.6l.3.6c-.2.2-.5.4-.8.5s-.7.2-1.1.2c-.8,0-1.4-.2-1.9-.7-.4-.5-.7-1.1-.7-1.9s.1-1,.3-1.4c.2-.4.5-.7.8-.9.4-.2.8-.3,1.2-.3.7,0,1.2.2,1.6.7s.6,1,.6,1.8v.2ZM98.1,108.5c-.3.3-.4.6-.5,1.1h2.9c0-.5-.2-.8-.4-1.1-.2-.2-.6-.4-1-.4s-.8.1-1,.4Z"/>
    <path class="st2" d="M103.2,112.4c-.4-.2-.6-.5-.8-.9-.2-.4-.3-.8-.3-1.4s.1-1,.3-1.4c.2-.4.5-.7.9-.9.4-.2.8-.3,1.3-.3s.7,0,1,.2c.3.1.6.3.8.5l-.3.6c-.3-.2-.5-.3-.7-.4-.2,0-.5-.1-.7-.1-.5,0-.9.2-1.2.5-.3.3-.4.8-.4,1.4s.1,1.1.4,1.4c.3.3.7.5,1.2.5s.5,0,.7-.1c.2,0,.5-.2.7-.4l.3.6c-.2.2-.5.4-.8.5-.3.1-.7.2-1,.2s-.9-.1-1.3-.3Z"/>
    <path class="st2" d="M108.3,108.2v2.8c0,.4,0,.6.2.8.2.2.4.2.7.2s.4,0,.5,0v.7c-.2,0-.4.1-.7.1-.5,0-.9-.1-1.1-.4s-.4-.7-.4-1.2v-2.9h-1v-.6h1v-1.3l.8-.3v1.6h1.4v.6h-1.4Z"/>
    <path class="st2" d="M113.2,105.3h.8v7.4h-.8v-7.4Z"/>
    <path class="st2" d="M116.4,105.5v.9h-1v-.9h1ZM115.4,107.6h.8v5h-.8v-5Z"/>
    <path class="st2" d="M122.1,109.5v3.2h-.8v-3.1c0-.5,0-.8-.3-1-.2-.2-.5-.3-.9-.3s-.8.1-1.1.4c-.3.3-.4.7-.4,1.2v2.9h-.8v-3.6c0-.5,0-1,0-1.4h.8v.9c.2-.3.5-.6.8-.8.3-.2.7-.3,1-.3,1.2,0,1.8.7,1.8,2Z"/>
    <path class="st2" d="M127.7,110.1h-3.7c0,.6.2,1.1.4,1.5.3.3.7.5,1.3.5s1.1-.2,1.6-.6l.3.6c-.2.2-.5.4-.8.5s-.7.2-1.1.2c-.8,0-1.4-.2-1.9-.7-.4-.5-.7-1.1-.7-1.9s.1-1,.3-1.4c.2-.4.5-.7.8-.9.4-.2.8-.3,1.2-.3.7,0,1.2.2,1.6.7s.6,1,.6,1.8v.2ZM124.6,108.5c-.3.3-.4.6-.5,1.1h2.9c0-.5-.2-.8-.4-1.1-.2-.2-.6-.4-1-.4s-.8.1-1,.4Z"/>
    <path class="st2" d="M130.4,113.2l2.6-8h.8l-2.6,8h-.7Z"/>
    <path class="st2" d="M136.7,105.5h4.4v.7h-3.6v2.5h3.4v.7h-3.4v3.3h-.8v-7.1Z"/>
    <path class="st2" d="M146.5,107.6v5h-.8v-.9c-.1.3-.4.6-.7.7-.3.2-.6.3-1,.3s-.8-.1-1.2-.3c-.3-.2-.6-.5-.8-.9-.2-.4-.3-.8-.3-1.4s0-1,.3-1.4c.2-.4.4-.7.8-.9.3-.2.7-.3,1.2-.3s.7,0,1,.3c.3.2.5.4.7.7v-.9h.8ZM145.3,111.5c.3-.3.4-.8.4-1.4s-.1-1.1-.4-1.4c-.3-.3-.6-.5-1.1-.5s-.9.2-1.2.5c-.3.3-.4.8-.4,1.4s.1,1.1.4,1.4c.3.3.7.5,1.2.5s.9-.2,1.1-.5Z"/>
    <path class="st2" d="M152.4,112.6h-1l-1.6-2-1.6,2h-1l2.1-2.6-2-2.4h1l1.5,1.9,1.5-1.9h1l-2,2.4,2.1,2.6Z"/>
    <path class="st2" d="M160.1,109.5v3.2h-.8v-3.1c0-.5,0-.8-.3-1-.2-.2-.5-.3-.9-.3s-.8.1-1.1.4c-.3.3-.4.7-.4,1.2v2.9h-.8v-3.6c0-.5,0-1,0-1.4h.8v.9c.2-.3.5-.6.8-.8.3-.2.7-.3,1-.3,1.2,0,1.8.7,1.8,2Z"/>
    <path class="st2" d="M165.7,107.6v5h-.8v-.9c-.2.3-.4.5-.7.7-.3.2-.6.2-1,.2-.6,0-1-.2-1.3-.5-.3-.3-.5-.8-.5-1.5v-3.1h.8v3.1c0,.5,0,.8.3,1,.2.2.5.3.8.3s.8-.1,1.1-.4.4-.7.4-1.1v-2.8h.8Z"/>
    <path class="st2" d="M174.5,109.5v3.2h-.8v-3.1c0-.5,0-.8-.2-1-.2-.2-.4-.3-.8-.3s-.8.1-1,.4c-.2.3-.4.7-.4,1.2v2.9h-.8v-3.1c0-.5,0-.8-.2-1-.2-.2-.4-.3-.8-.3s-.8.1-1,.4c-.2.3-.4.7-.4,1.2v2.9h-.8v-3.6c0-.5,0-1,0-1.4h.8v.9c.2-.3.4-.6.7-.7.3-.2.6-.3,1-.3s.7,0,1,.2c.3.2.4.4.6.7.2-.3.4-.5.7-.7s.6-.3,1-.3c1.1,0,1.7.7,1.7,2Z"/>
    <path class="st2" d="M179.6,107.8c.3.2.6.5.8.9.2.4.3.8.3,1.4s0,1-.3,1.4c-.2.4-.5.7-.8.9-.3.2-.7.3-1.2.3s-.7,0-1-.3c-.3-.2-.5-.4-.7-.7v.9h-.8v-7.4h.8v3.2c.1-.3.4-.6.7-.8.3-.2.6-.3,1-.3s.8.1,1.2.3ZM179.4,111.5c.3-.3.4-.8.4-1.4s-.1-1.1-.4-1.4c-.3-.3-.7-.5-1.1-.5s-.9.2-1.1.5c-.3.3-.4.8-.4,1.4s.1,1.1.4,1.4c.3.3.6.5,1.1.5s.9-.2,1.1-.5Z"/>
    <path class="st2" d="M186,110.1h-3.7c0,.6.2,1.1.4,1.5.3.3.7.5,1.3.5s1.1-.2,1.6-.6l.3.6c-.2.2-.5.4-.8.5-.3.1-.7.2-1.1.2-.8,0-1.4-.2-1.8-.7-.4-.5-.7-1.1-.7-1.9s0-1,.3-1.4c.2-.4.5-.7.8-.9.4-.2.8-.3,1.2-.3.7,0,1.2.2,1.6.7s.6,1,.6,1.8v.2ZM182.9,108.5c-.3.3-.4.6-.5,1.1h2.9c0-.5-.2-.8-.4-1.1-.2-.2-.6-.4-1-.4s-.8.1-1,.4Z"/>
    <path class="st2" d="M190,107.5v.7c-.2,0-.4,0-.6,0-.5,0-.8.2-1.1.5-.2.3-.4.7-.4,1.1v2.9h-.8v-3.6c0-.5,0-1,0-1.4h.8v.9c.2-.3.4-.6.7-.8.3-.2.6-.3,1-.3s.3,0,.5,0Z"/>
  </g>
  <g>
    <path class="st2" d="M9.9,117.5h4.5v.7h-3.7v2.5h3.5v.7h-3.5v2.6h3.7v.7h-4.5v-7.1Z"/>
    <path class="st2" d="M22.8,121.5v3.2h-.8v-3.1c0-.5,0-.8-.2-1-.2-.2-.4-.3-.8-.3s-.8.1-1,.4c-.2.3-.4.7-.4,1.2v2.9h-.8v-3.1c0-.5,0-.8-.2-1-.2-.2-.4-.3-.8-.3s-.8.1-1,.4c-.2.3-.4.7-.4,1.2v2.9h-.8v-3.6c0-.5,0-1,0-1.4h.8v.9c.2-.3.4-.6.7-.7.3-.2.6-.3,1-.3s.7,0,1,.2.4.4.6.7c.2-.3.4-.5.7-.7.3-.2.6-.3,1-.3,1.1,0,1.7.7,1.7,2Z"/>
    <path class="st2" d="M28.7,119.6v5h-.8v-.9c-.1.3-.4.6-.7.7-.3.2-.6.3-1,.3s-.8-.1-1.2-.3c-.3-.2-.6-.5-.8-.9-.2-.4-.3-.8-.3-1.4s0-1,.3-1.4c.2-.4.4-.7.8-.9.3-.2.7-.3,1.2-.3s.7,0,1,.3c.3.2.5.4.7.7v-.9h.8ZM27.5,123.5c.3-.3.4-.8.4-1.4s-.1-1.1-.4-1.4c-.3-.3-.6-.5-1.1-.5s-.9.2-1.2.5c-.3.3-.4.8-.4,1.4s.1,1.1.4,1.4c.3.3.7.5,1.2.5s.9-.2,1.1-.5Z"/>
    <path class="st2" d="M31.1,117.5v.9h-1v-.9h1ZM30.2,119.6h.8v5h-.8v-5Z"/>
    <path class="st2" d="M32.4,117.3h.8v7.4h-.8v-7.4Z"/>
    <path class="st2" d="M36.2,125.2l2.6-8h.8l-2.6,8h-.7Z"/>
    <path class="st2" d="M52.5,117.5l-2.5,7.1h-.7l-2-5.8-2,5.8h-.7l-2.5-7.1h.8l2,6,2.1-6h.6s2,6,2,6l2-6h.8Z"/>
    <path class="st2" d="M57.2,122.1h-3.7c0,.6.2,1.1.4,1.5.3.3.7.5,1.3.5s1.1-.2,1.6-.6l.3.6c-.2.2-.5.4-.8.5-.3.1-.7.2-1.1.2-.8,0-1.4-.2-1.8-.7-.4-.5-.7-1.1-.7-1.9s0-1,.3-1.4c.2-.4.5-.7.8-.9.4-.2.8-.3,1.2-.3.7,0,1.2.2,1.6.7s.6,1,.6,1.8v.2ZM54.1,120.5c-.3.3-.4.6-.5,1.1h2.9c0-.5-.2-.8-.4-1.1-.2-.2-.6-.4-1-.4s-.8.1-1,.4Z"/>
    <path class="st2" d="M62,119.8c.3.2.6.5.8.9.2.4.3.8.3,1.4s0,1-.3,1.4c-.2.4-.5.7-.8.9-.3.2-.7.3-1.2.3s-.7,0-1-.3c-.3-.2-.5-.4-.7-.7v.9h-.8v-7.4h.8v3.2c.1-.3.4-.6.7-.8.3-.2.6-.3,1-.3s.8.1,1.2.3ZM61.8,123.5c.3-.3.4-.8.4-1.4s-.1-1.1-.4-1.4c-.3-.3-.7-.5-1.1-.5s-.9.2-1.1.5c-.3.3-.4.8-.4,1.4s.1,1.1.4,1.4c.3.3.6.5,1.1.5s.9-.2,1.1-.5Z"/>
    <path class="st2" d="M63.9,124l.3-.6c.3.2.5.4.8.5.3,0,.6.1.9.1s.7,0,.9-.2c.2-.1.3-.3.3-.6s0-.4-.2-.5c-.1-.1-.4-.2-.7-.3l-.9-.2c-.4,0-.7-.3-1-.5-.2-.2-.3-.5-.3-.9s.2-.8.5-1.1c.4-.3.8-.4,1.4-.4s.7,0,1,.2c.3.1.6.3.8.5l-.3.6c-.5-.4-1-.6-1.5-.6s-.6,0-.8.2c-.2.1-.3.3-.3.6s0,.4.2.5.3.2.6.3l.8.2c.5.1.8.3,1,.5.2.2.3.5.3.9s-.2.8-.5,1c-.4.3-.8.4-1.4.4s-1.5-.2-2-.7Z"/>
    <path class="st2" d="M70,117.5v.9h-1v-.9h1ZM69.1,119.6h.8v5h-.8v-5Z"/>
    <path class="st2" d="M72.5,120.2v2.8c0,.4,0,.6.2.8.2.2.4.2.7.2s.4,0,.5,0v.7c-.2,0-.4.1-.7.1-.5,0-.9-.1-1.1-.4s-.4-.7-.4-1.2v-2.9h-1v-.6h1v-1.3l.8-.3v1.6h1.4v.6h-1.4Z"/>
    <path class="st2" d="M79,122.1h-3.7c0,.6.2,1.1.4,1.5.3.3.7.5,1.3.5s1.1-.2,1.6-.6l.3.6c-.2.2-.5.4-.8.5s-.7.2-1.1.2c-.8,0-1.4-.2-1.9-.7-.4-.5-.7-1.1-.7-1.9s.1-1,.3-1.4c.2-.4.5-.7.8-.9.4-.2.8-.3,1.2-.3.7,0,1.2.2,1.6.7s.6,1,.6,1.8v.2ZM75.9,120.5c-.3.3-.4.6-.5,1.1h2.9c0-.5-.2-.8-.4-1.1-.2-.2-.6-.4-1-.4s-.8.1-1,.4Z"/>
  </g>
  <g class="st4">
    <path class="st2" d="M12.7,148.7c-.9,0-1.6-.2-2.1-.7-.5-.5-.7-1.2-.7-2.1v-4.3h.8v4.4c0,.7.2,1.2.5,1.6.3.4.8.5,1.5.5s1.2-.2,1.5-.5c.3-.4.5-.9.5-1.6v-4.4h.8v4.3c0,.9-.2,1.7-.7,2.1-.5.5-1.2.7-2.1.7h0ZM19.5,143.5c1.2,0,1.8.7,1.8,2v3.2h-.8v-3.1c0-.5,0-.8-.3-1-.2-.2-.5-.3-.9-.3s-.8.1-1.1.4c-.3.3-.4.7-.4,1.2v2.9h-.8v-3.6c0-.5,0-1,0-1.4h.8v.9c.2-.3.5-.6.8-.8.3-.2.7-.3,1.1-.3h0ZM23.7,141.5v.9h-1v-.9h1ZM22.7,143.6h.8v5h-.8v-5ZM29.4,143.6l-2.2,5h-.8l-2.1-5h.8l1.7,4.1,1.7-4.1h.8ZM34.4,146.1h-3.7c0,.6.2,1.1.4,1.4.3.3.7.5,1.3.5s1.1-.2,1.6-.6l.3.6c-.2.2-.5.4-.8.5-.3.1-.7.2-1.1.2-.8,0-1.4-.2-1.9-.7-.4-.5-.7-1.1-.7-1.9s.1-1,.3-1.4c.2-.4.5-.7.8-.9.4-.2.8-.3,1.2-.3.7,0,1.2.2,1.6.7.4.4.6,1,.6,1.8v.2ZM32.2,144.1c-.4,0-.8.1-1,.4-.3.3-.4.6-.5,1.1h2.9c0-.5-.2-.8-.4-1.1-.2-.2-.6-.4-1-.4h0ZM37.8,143.5c.2,0,.3,0,.5,0v.7c-.2,0-.4,0-.6,0-.5,0-.8.2-1.1.5-.2.3-.4.7-.4,1.1v2.9h-.8v-3.6c0-.5,0-1,0-1.4h.8v.9c.2-.3.4-.6.7-.8.3-.2.6-.3,1-.3h0ZM40.7,148.7c-.8,0-1.5-.2-2-.6l.3-.6c.3.2.5.4.8.5.3,0,.6.1.9.1s.7,0,.9-.2c.2-.1.3-.3.3-.6s0-.4-.2-.5c-.1-.1-.4-.2-.7-.3l-.9-.2c-.4,0-.7-.3-1-.5-.2-.2-.3-.5-.3-.9s.2-.8.5-1.1c.4-.3.8-.4,1.4-.4s.7,0,1,.2c.3.1.6.3.8.5l-.3.6c-.5-.4-1-.6-1.5-.6s-.6,0-.8.2c-.2.1-.3.3-.3.6s0,.4.2.5c.1.1.3.2.6.3l.8.2c.5.1.8.3,1,.5.2.2.3.5.3.9s-.2.8-.5,1c-.4.3-.8.4-1.4.4h0ZM44.7,141.5v.9h-1v-.9h1ZM43.8,143.6h.8v5h-.8v-5ZM47.2,144.2v2.7c0,.4,0,.6.2.8.2.2.4.2.7.2s.4,0,.5,0v.7c-.2,0-.4,0-.7,0-.5,0-.9-.1-1.1-.4-.3-.3-.4-.7-.4-1.2v-2.9h-1v-.6h1v-1.3l.8-.3v1.6h1.4v.6h-1.4ZM54,143.6l-2.4,5.5c-.2.6-.6,1-.9,1.3-.4.3-.8.5-1.4.6l-.2-.6c.5-.1.8-.2,1.1-.4.2-.2.4-.4.6-.8l.2-.5-2.1-5h.9l1.7,4.1,1.7-4.1h.8ZM59.4,148.7c-.5,0-.9-.1-1.3-.3-.4-.2-.6-.5-.8-.9-.2-.4-.3-.8-.3-1.4s.1-1,.3-1.4c.2-.4.5-.7.9-.9.4-.2.8-.3,1.3-.3s.7,0,1,.2c.3.1.6.3.8.5l-.3.6c-.3-.2-.5-.3-.7-.4-.2,0-.5-.1-.7-.1-.5,0-.9.2-1.2.5-.3.3-.4.8-.4,1.4s.1,1.1.4,1.4c.3.3.7.5,1.2.5s.5,0,.7-.1c.2,0,.5-.2.7-.4l.3.6c-.2.2-.5.4-.8.5-.3.1-.7.2-1,.2h0ZM64.2,148.7c-.5,0-.9-.1-1.2-.3-.4-.2-.6-.5-.8-.9-.2-.4-.3-.9-.3-1.4s0-1,.3-1.4c.2-.4.5-.7.8-.9.4-.2.8-.3,1.2-.3s.9.1,1.2.3c.4.2.6.5.8.9.2.4.3.9.3,1.4s0,1-.3,1.4c-.2.4-.5.7-.8.9-.4.2-.8.3-1.2.3h0ZM64.2,148c.5,0,.9-.2,1.2-.5.3-.3.4-.8.4-1.4s-.1-1.1-.4-1.4c-.3-.3-.7-.5-1.1-.5s-.9.2-1.2.5c-.3.3-.4.8-.4,1.4s.1,1.1.4,1.4c.3.3.7.5,1.2.5h0ZM73.4,143.5c1.1,0,1.7.7,1.7,2v3.2h-.8v-3.1c0-.5,0-.8-.2-1-.2-.2-.4-.3-.8-.3s-.8.1-1,.4c-.2.3-.4.7-.4,1.2v2.9h-.8v-3.1c0-.5,0-.8-.2-1-.2-.2-.4-.3-.8-.3s-.8.1-1,.4c-.2.3-.4.7-.4,1.2v2.9h-.8v-3.6c0-.5,0-1,0-1.4h.8v.9c.2-.3.4-.6.7-.7.3-.2.6-.3,1-.3s.7,0,1,.2c.3.2.4.4.6.7.2-.3.4-.5.7-.7.3-.2.6-.3,1-.3h0ZM79,143.5c.4,0,.8.1,1.2.3.3.2.6.5.8.9.2.4.3.8.3,1.4s0,1-.3,1.4c-.2.4-.4.7-.8.9-.3.2-.7.3-1.2.3s-.7,0-1-.3c-.3-.2-.5-.4-.7-.7v.9h-.8v-7.4h.8v3.2c.1-.3.4-.6.7-.7.3-.2.6-.3,1-.3h0ZM78.8,148c.5,0,.9-.2,1.1-.5.3-.3.4-.8.4-1.4s-.1-1.1-.4-1.4c-.3-.3-.7-.5-1.1-.5s-.9.2-1.2.5c-.3.3-.4.8-.4,1.4s.1,1.1.4,1.4c.3.3.7.5,1.2.5h0ZM83.3,141.5v.9h-1v-.9h1ZM82.4,143.6h.8v5h-.8v-5ZM87.2,143.5c1.2,0,1.8.7,1.8,2v3.2h-.8v-3.1c0-.5,0-.8-.3-1-.2-.2-.5-.3-.9-.3s-.8.1-1.1.4c-.3.3-.4.7-.4,1.2v2.9h-.8v-3.6c0-.5,0-1,0-1.4h.8v.9c.2-.3.5-.6.8-.8.3-.2.7-.3,1.1-.3h0ZM94.8,143.6v5h-.8v-.9c-.1.3-.4.6-.7.7-.3.2-.6.3-1,.3s-.8-.1-1.2-.3c-.3-.2-.6-.5-.8-.9-.2-.4-.3-.8-.3-1.4s0-1,.3-1.4c.2-.4.4-.7.8-.9.3-.2.7-.3,1.2-.3s.7,0,1,.3c.3.2.5.4.7.7v-.9h.8ZM92.5,148c.5,0,.9-.2,1.1-.5.3-.3.4-.8.4-1.4s-.1-1.1-.4-1.4c-.3-.3-.6-.5-1.1-.5s-.9.2-1.2.5c-.3.3-.4.8-.4,1.4s.1,1.1.4,1.4c.3.3.7.5,1.2.5h0ZM97.4,144.2v2.7c0,.4,0,.6.2.8.2.2.4.2.7.2s.4,0,.5,0v.7c-.2,0-.4,0-.7,0-.5,0-.9-.1-1.1-.4-.3-.3-.4-.7-.4-1.2v-2.9h-1v-.6h1v-1.3l.8-.3v1.6h1.4v.6h-1.4ZM100.6,141.5v.9h-1v-.9h1ZM99.7,143.6h.8v5h-.8v-5ZM104.1,148.7c-.5,0-.9-.1-1.2-.3-.4-.2-.6-.5-.8-.9-.2-.4-.3-.9-.3-1.4s0-1,.3-1.4c.2-.4.5-.7.8-.9.4-.2.8-.3,1.2-.3s.9.1,1.2.3c.4.2.6.5.8.9.2.4.3.9.3,1.4s0,1-.3,1.4c-.2.4-.5.7-.8.9-.4.2-.8.3-1.2.3h0ZM104.1,148c.5,0,.9-.2,1.2-.5.3-.3.4-.8.4-1.4s-.1-1.1-.4-1.4c-.3-.3-.7-.5-1.1-.5s-.9.2-1.2.5c-.3.3-.4.8-.4,1.4s.1,1.1.4,1.4c.3.3.7.5,1.2.5h0ZM110.1,143.5c1.2,0,1.8.7,1.8,2v3.2h-.8v-3.1c0-.5,0-.8-.3-1-.2-.2-.5-.3-.9-.3s-.8.1-1.1.4c-.3.3-.4.7-.4,1.2v2.9h-.8v-3.6c0-.5,0-1,0-1.4h.8v.9c.2-.3.5-.6.8-.8.3-.2.7-.3,1.1-.3h0ZM115.9,141.3h.8v7.4h-.8v-7.4ZM120.2,148.7c-.5,0-.9-.1-1.2-.3-.4-.2-.6-.5-.8-.9-.2-.4-.3-.9-.3-1.4s0-1,.3-1.4c.2-.4.5-.7.8-.9.4-.2.8-.3,1.2-.3s.9.1,1.2.3c.4.2.6.5.8.9.2.4.3.9.3,1.4s0,1-.3,1.4c-.2.4-.5.7-.8.9-.4.2-.8.3-1.2.3h0ZM120.2,148c.5,0,.9-.2,1.2-.5.3-.3.4-.8.4-1.4s-.1-1.1-.4-1.4c-.3-.3-.7-.5-1.1-.5s-.9.2-1.2.5c-.3.3-.4.8-.4,1.4s.1,1.1.4,1.4c.3.3.7.5,1.2.5h0ZM128.2,143.6v5c0,.7-.2,1.3-.6,1.7-.4.4-.9.6-1.7.6s-1.4-.2-2-.5v-.7c.5.2.8.3,1,.4.3,0,.6.1.9.1.5,0,.9-.1,1.1-.4.2-.3.4-.6.4-1.1v-1.2c-.2.3-.4.6-.7.7-.3.2-.6.3-1.1.3s-.8-.1-1.2-.3c-.3-.2-.6-.5-.8-.9-.2-.4-.3-.8-.3-1.3s0-.9.3-1.3c.2-.4.5-.7.8-.9.3-.2.7-.3,1.2-.3s.7,0,1,.3c.3.2.5.4.7.7v-.9h.8ZM125.9,147.8c.5,0,.9-.2,1.1-.5.3-.3.4-.8.4-1.3s-.1-1-.4-1.3c-.3-.3-.7-.5-1.1-.5s-.9.2-1.2.5c-.3.3-.4.8-.4,1.3s.1,1,.4,1.3c.3.3.7.5,1.2.5h0ZM131.8,148.7c-.5,0-.9-.1-1.2-.3-.4-.2-.6-.5-.8-.9-.2-.4-.3-.9-.3-1.4s0-1,.3-1.4c.2-.4.5-.7.8-.9.4-.2.8-.3,1.2-.3s.9.1,1.2.3c.4.2.6.5.8.9.2.4.3.9.3,1.4s0,1-.3,1.4c-.2.4-.5.7-.8.9-.4.2-.8.3-1.2.3h0ZM131.8,148c.5,0,.9-.2,1.1-.5.3-.3.4-.8.4-1.4s-.1-1.1-.4-1.4c-.3-.3-.7-.5-1.1-.5s-.9.2-1.1.5c-.3.3-.4.8-.4,1.4s.1,1.1.4,1.4c.3.3.7.5,1.2.5h0ZM139.2,150.4c-.4-.8-.7-1.5-.9-2.2-.2-.7-.3-1.5-.3-2.3s0-1.5.3-2.2c.2-.7.5-1.5.9-2.2h.7c-.4.8-.6,1.6-.8,2.3-.1.7-.2,1.4-.2,2.1s0,1.4.2,2.1c.1.7.4,1.5.8,2.3h-.7ZM143.4,143.5c1.2,0,1.8.7,1.8,2v3.2h-.8v-3.1c0-.5,0-.8-.3-1-.2-.2-.5-.3-.9-.3s-.8.1-1.1.4c-.3.3-.4.7-.4,1.2v2.9h-.8v-7.4h.8v3.1c.2-.3.4-.5.7-.7.3-.2.6-.2,1-.2h0ZM151.1,143.6l-2.3,5.5c-.2.6-.6,1-.9,1.3-.4.3-.8.5-1.4.6l-.2-.6c.5-.1.8-.2,1.1-.4.2-.2.4-.4.6-.8l.2-.5-2.1-5h.9l1.7,4.1,1.7-4.1h.8ZM154.4,143.5c.4,0,.8.1,1.2.3.3.2.6.5.8.9.2.4.3.9.3,1.4s0,1-.3,1.4c-.2.4-.4.7-.8.9-.3.2-.7.3-1.2.3s-.7,0-1-.3c-.3-.2-.5-.4-.7-.7v3.1h-.8v-5.8c0-.5,0-1,0-1.4h.8v1c.2-.3.4-.6.7-.8.3-.2.7-.3,1.1-.3h0ZM154.2,148c.5,0,.9-.2,1.1-.5.3-.3.4-.8.4-1.4s-.1-1.1-.4-1.4c-.3-.3-.7-.5-1.1-.5s-.9.2-1.1.5c-.3.3-.4.8-.4,1.4s.1,1.1.4,1.4c.3.3.6.5,1.1.5h0ZM162,146.1h-3.7c0,.6.2,1.1.4,1.4.3.3.7.5,1.3.5s1.1-.2,1.6-.6l.3.6c-.2.2-.5.4-.8.5-.3.1-.7.2-1.1.2-.8,0-1.4-.2-1.9-.7-.4-.5-.7-1.1-.7-1.9s.1-1,.3-1.4c.2-.4.5-.7.8-.9.4-.2.8-.3,1.2-.3.7,0,1.2.2,1.6.7.4.4.6,1,.6,1.8v.2ZM159.8,144.1c-.4,0-.8.1-1,.4-.3.3-.4.6-.5,1.1h2.9c0-.5-.2-.8-.4-1.1-.2-.2-.6-.4-1-.4h0ZM165.4,143.5c.2,0,.3,0,.5,0v.7c-.2,0-.4,0-.6,0-.5,0-.8.2-1.1.5-.2.3-.4.7-.4,1.1v2.9h-.8v-3.6c0-.5,0-1,0-1.4h.8v.9c.2-.3.4-.6.7-.8.3-.2.6-.3,1-.3h0ZM166.6,141.3h.8v7.4h-.8v-7.4ZM169.8,141.5v.9h-1v-.9h1ZM168.9,143.6h.8v5h-.8v-5ZM173.7,143.5c1.2,0,1.8.7,1.8,2v3.2h-.8v-3.1c0-.5,0-.8-.3-1-.2-.2-.5-.3-.9-.3s-.8.1-1.1.4c-.3.3-.4.7-.4,1.2v2.9h-.8v-3.6c0-.5,0-1,0-1.4h.8v.9c.2-.3.5-.6.8-.8.3-.2.7-.3,1-.3h0ZM180.3,148.6l-2.6-2.4v2.4h-.8v-7.4h.8v4.6l2.4-2.3h1l-2.5,2.4,2.8,2.6h-1.1ZM185.6,144.2v2.7c0,.4,0,.6.2.8.2.2.4.2.7.2s.4,0,.5,0v.7c-.2,0-.4,0-.7,0-.5,0-.9-.1-1.1-.4s-.4-.7-.4-1.2v-2.9h-1v-.6h1v-1.3l.8-.3v1.6h1.4v.6h-1.4ZM190,148.7c-.5,0-.9-.1-1.2-.3-.4-.2-.6-.5-.8-.9-.2-.4-.3-.9-.3-1.4s0-1,.3-1.4c.2-.4.5-.7.8-.9.4-.2.8-.3,1.2-.3s.9.1,1.2.3c.4.2.6.5.8.9.2.4.3.9.3,1.4s0,1-.3,1.4c-.2.4-.5.7-.8.9-.4.2-.8.3-1.2.3h0ZM190,148c.5,0,.9-.2,1.1-.5.3-.3.4-.8.4-1.4s-.1-1.1-.4-1.4c-.3-.3-.7-.5-1.1-.5s-.9.2-1.1.5c-.3.3-.4.8-.4,1.4s.1,1.1.4,1.4c.3.3.7.5,1.2.5h0ZM198.1,148.7c-.5,0-.9-.1-1.2-.3-.4-.2-.6-.5-.8-.9-.2-.4-.3-.9-.3-1.4s0-1,.3-1.4c.2-.4.5-.7.8-.9.4-.2.8-.3,1.2-.3s.9.1,1.2.3c.4.2.6.5.8.9.2.4.3.9.3,1.4s0,1-.3,1.4c-.2.4-.5.7-.8.9-.4.2-.8.3-1.2.3h0ZM198.1,148c.5,0,.9-.2,1.1-.5.3-.3.4-.8.4-1.4s-.1-1.1-.4-1.4c-.3-.3-.7-.5-1.1-.5s-.9.2-1.1.5c-.3.3-.4.8-.4,1.4s.1,1.1.4,1.4c.3.3.7.5,1.2.5h0ZM203.6,141.9c-.3,0-.5,0-.6.2-.2.2-.2.4-.2.8v.7h1.2v.6h-1.2v4.4h-.8v-4.4h-1v-.6h1v-.8c0-.5.1-.9.4-1.2.3-.3.6-.4,1.1-.4s.5,0,.7,0v.7c-.2,0-.4,0-.5,0h0ZM206,143.6h3.1v5h-.8v-4.4h-2.3v4.4h-.8v-4.4h-1v-.6h1v-.7c0-.4,0-.7.2-1,.1-.2.3-.4.6-.5.3-.1.7-.2,1.1-.2h.3v.6h-.2c-.3,0-.6,0-.8,0-.2,0-.3.2-.3.3s0,.4,0,.8v.5ZM209.2,141.4v.9h-1v-.9h1ZM212.6,148.7c-.5,0-.9-.1-1.3-.3-.4-.2-.6-.5-.8-.9-.2-.4-.3-.8-.3-1.4s.1-1,.3-1.4c.2-.4.5-.7.9-.9.4-.2.8-.3,1.3-.3s.7,0,1,.2c.3.1.6.3.8.5l-.3.6c-.3-.2-.5-.3-.7-.4-.2,0-.5-.1-.7-.1-.5,0-.9.2-1.2.5-.3.3-.4.8-.4,1.4s.1,1.1.4,1.4c.3.3.7.5,1.2.5s.5,0,.7-.1c.2,0,.5-.2.7-.4l.3.6c-.2.2-.5.4-.8.5-.3.1-.7.2-1,.2h0ZM216.3,141.5v.9h-1v-.9h1ZM215.4,143.6h.8v5h-.8v-5ZM222.1,143.6v5h-.8v-.9c-.1.3-.4.6-.7.7-.3.2-.6.3-1,.3s-.8-.1-1.2-.3c-.3-.2-.6-.5-.8-.9-.2-.4-.3-.8-.3-1.4s0-1,.3-1.4c.2-.4.4-.7.8-.9.3-.2.7-.3,1.2-.3s.7,0,1,.3c.3.2.5.4.7.7v-.9h.8ZM219.7,148c.5,0,.9-.2,1.1-.5.3-.3.4-.8.4-1.4s-.1-1.1-.4-1.4c-.3-.3-.6-.5-1.1-.5s-.9.2-1.2.5c-.3.3-.4.8-.4,1.4s.1,1.1.4,1.4c.3.3.7.5,1.2.5h0ZM223.6,141.3h.8v7.4h-.8v-7.4ZM236,143.6l-1.9,5h-.8l-1.4-3.9-1.4,3.9h-.8l-1.9-5h.8l1.4,4.1,1.5-4.1h.7l1.4,4.1,1.4-4.1h.8ZM241.1,146.1h-3.7c0,.6.2,1.1.4,1.4.3.3.7.5,1.3.5s1.1-.2,1.6-.6l.3.6c-.2.2-.5.4-.8.5-.3.1-.7.2-1.1.2-.8,0-1.4-.2-1.9-.7-.4-.5-.7-1.1-.7-1.9s.1-1,.3-1.4c.2-.4.5-.7.8-.9.4-.2.8-.3,1.2-.3.7,0,1.2.2,1.6.7.4.4.6,1,.6,1.8v.2ZM239,144.1c-.4,0-.8.1-1,.4-.3.3-.4.6-.5,1.1h2.9c0-.5-.2-.8-.4-1.1-.2-.2-.6-.4-1-.4h0ZM244.7,143.5c.4,0,.8.1,1.2.3.3.2.6.5.8.9.2.4.3.8.3,1.4s0,1-.3,1.4c-.2.4-.4.7-.8.9-.3.2-.7.3-1.2.3s-.7,0-1-.3c-.3-.2-.5-.4-.7-.7v.9h-.8v-7.4h.8v3.2c.1-.3.4-.6.7-.7.3-.2.6-.3,1-.3h0ZM244.6,148c.5,0,.9-.2,1.1-.5.3-.3.4-.8.4-1.4s-.1-1.1-.4-1.4c-.3-.3-.7-.5-1.1-.5s-.9.2-1.1.5c-.3.3-.4.8-.4,1.4s.1,1.1.4,1.4c.3.3.6.5,1.1.5h0ZM249.8,148.7c-.8,0-1.5-.2-2-.6l.3-.6c.3.2.5.4.8.5.3,0,.6.1.9.1s.7,0,.9-.2c.2-.1.3-.3.3-.6s0-.4-.2-.5c-.1-.1-.4-.2-.7-.3l-.8-.2c-.4,0-.7-.3-1-.5-.2-.2-.3-.5-.3-.9s.2-.8.5-1.1c.4-.3.8-.4,1.4-.4s.7,0,1,.2c.3.1.6.3.8.5l-.3.6c-.5-.4-1-.6-1.5-.6s-.6,0-.8.2c-.2.1-.3.3-.3.6s0,.4.2.5c.1.1.3.2.6.3l.9.2c.5.1.8.3,1,.5.2.2.3.5.3.9s-.2.8-.5,1c-.4.3-.8.4-1.4.4h0ZM253.9,141.5v.9h-1v-.9h1ZM253,143.6h.8v5h-.8v-5ZM256.3,144.2v2.7c0,.4,0,.6.2.8.2.2.4.2.6.2s.4,0,.5,0v.7c-.2,0-.4,0-.7,0-.5,0-.9-.1-1.1-.4s-.4-.7-.4-1.2v-2.9h-1v-.6h1v-1.3l.8-.3v1.6h1.4v.6h-1.4ZM262.9,146.1h-3.7c0,.6.2,1.1.4,1.4.3.3.7.5,1.3.5s1.1-.2,1.6-.6l.3.6c-.2.2-.5.4-.8.5-.3.1-.7.2-1.1.2-.8,0-1.4-.2-1.9-.7-.4-.5-.7-1.1-.7-1.9s0-1,.3-1.4c.2-.4.5-.7.8-.9.4-.2.8-.3,1.2-.3.7,0,1.2.2,1.6.7.4.4.6,1,.6,1.8v.2ZM260.7,144.1c-.4,0-.8.1-1,.4-.3.3-.4.6-.5,1.1h2.9c0-.5-.2-.8-.4-1.1-.2-.2-.6-.4-1-.4h0ZM263.5,150.4c.4-.8.6-1.6.8-2.3.1-.7.2-1.4.2-2.1s0-1.4-.2-2.1c-.1-.7-.4-1.5-.8-2.3h.7c.4.7.7,1.5.9,2.2.2.7.3,1.5.3,2.2s0,1.5-.3,2.3c-.2.7-.5,1.5-.9,2.2h-.7Z"/>
  </g>
  <polyline class="st1" points="294.9 57 302.1 57 302.1 88.7 294.9 88.7"/>
  <polyline class="st1" points="294.9 32.9 302.1 32.9 302.1 40.1 294.9 40.1"/>
  <polyline class="st1" points="294.9 104.8 302.1 104.8 302.1 123.6 294.9 123.6"/>
  <g>
    <path class="st3" d="M311.9,76.6v.7h-3.3v-.7h1.2v-4l-1.2.7v-.8l1.5-.9h.5v5h1.2Z"/>
    <path class="st3" d="M316.6,76.6v.7h-3.3v-.7h1.2v-4l-1.2.7v-.8l1.5-.9h.5v5h1.2Z"/>
    <path class="st3" d="M319.7,71.6h2.4c.6,0,1.1.1,1.4.4.3.3.5.7.5,1.2s-.2.9-.5,1.2-.8.4-1.4.4h-1.5v2.4h-.8v-5.7ZM321.9,74.2c.4,0,.7,0,.9-.2.2-.2.3-.4.3-.7s0-.5-.3-.7c-.2-.2-.5-.2-.9-.2h-1.4v1.9h1.4Z"/>
    <path class="st3" d="M326,72.2h-1.9v-.7h4.7v.7h-1.9v5h-.8v-5Z"/>
  </g>
  <g>
    <path class="st3" d="M311.9,38.6v.7h-3.3v-.7h1.2v-4l-1.2.7v-.8l1.5-.9h.5v5h1.2Z"/>
    <path class="st3" d="M316.6,38.6v.7h-3.7v-.6l2-2.2c.3-.3.4-.5.5-.8.1-.2.2-.5.2-.7s0-.5-.2-.7c-.2-.2-.4-.2-.7-.2-.5,0-1.1.2-1.6.6l-.3-.6c.2-.2.5-.4.9-.5.3-.1.7-.2,1-.2.5,0,1,.1,1.3.4.3.3.5.6.5,1.1s0,.6-.2.9c-.1.3-.4.6-.7,1l-1.5,1.6h2.7Z"/>
    <path class="st3" d="M319.7,33.6h2.4c.6,0,1.1.1,1.4.4.3.3.5.7.5,1.2s-.2.9-.5,1.2-.8.4-1.4.4h-1.5v2.4h-.8v-5.7ZM321.9,36.2c.4,0,.7,0,.9-.2.2-.2.3-.4.3-.7s0-.5-.3-.7c-.2-.2-.5-.2-.9-.2h-1.4v1.9h1.4Z"/>
    <path class="st3" d="M326,34.3h-1.9v-.7h4.7v.7h-1.9v5h-.8v-5Z"/>
  </g>
  <g>
    <path class="st3" d="M311.9,116.6v.7h-3.3v-.7h1.2v-4l-1.2.7v-.8l1.5-.9h.5v5h1.2Z"/>
    <path class="st3" d="M313.2,116.6c-.3-.5-.5-1.2-.5-2.2s.2-1.7.5-2.2c.3-.5.9-.7,1.5-.7s1.2.2,1.5.7c.3.5.5,1.2.5,2.2s-.2,1.7-.5,2.2-.9.7-1.5.7-1.2-.2-1.5-.7ZM315.6,116.1c.2-.4.3-.9.3-1.7s0-1.3-.3-1.7c-.2-.4-.5-.5-.9-.5s-.7.2-.9.5c-.2.4-.3.9-.3,1.7s0,1.3.3,1.7c.2.4.5.5.9.5s.7-.2.9-.5Z"/>
    <path class="st3" d="M319.7,111.5h2.4c.6,0,1.1.1,1.4.4.3.3.5.7.5,1.2s-.2.9-.5,1.2-.8.4-1.4.4h-1.5v2.4h-.8v-5.7ZM321.9,114.1c.4,0,.7,0,.9-.2.2-.2.3-.4.3-.7s0-.5-.3-.7c-.2-.2-.5-.2-.9-.2h-1.4v1.9h1.4Z"/>
    <path class="st3" d="M326,112.2h-1.9v-.7h4.7v.7h-1.9v5h-.8v-5Z"/>
  </g>
</svg>