<?xml version="1.0" encoding="UTF-8"?>
<svg id="Layer_1" xmlns="http://www.w3.org/2000/svg" xmlns:xlink="http://www.w3.org/1999/xlink" version="1.1" viewBox="0 0 269.2 68.6">
  <!-- Generator: Adobe Illustrator 29.0.1, SVG Export Plug-In . SVG Version: 2.1.0 Build 192)  -->
  <defs>
    <style>
      .st0, .st1, .st2 {
        fill: none;
      }

      .st3 {
        fill: #0f305c;
      }

      .st4, .st5 {
        fill: #231f20;
      }

      .st6 {
        fill: #a88236;
      }

      .st1 {
        stroke: #ed1c24;
        stroke-width: .5px;
      }

      .st1, .st7, .st2 {
        stroke-miterlimit: 10;
      }

      .st8 {
        fill: #003875;
      }

      .st9 {
        clip-path: url(#clippath-11);
      }

      .st10 {
        clip-path: url(#clippath-10);
      }

      .st11 {
        clip-path: url(#clippath-1);
      }

      .st12 {
        clip-path: url(#clippath-3);
      }

      .st13 {
        clip-path: url(#clippath-4);
      }

      .st14 {
        clip-path: url(#clippath-2);
      }

      .st15 {
        clip-path: url(#clippath-7);
      }

      .st16 {
        clip-path: url(#clippath-6);
      }

      .st17 {
        clip-path: url(#clippath-9);
      }

      .st18 {
        clip-path: url(#clippath-8);
      }

      .st19 {
        clip-path: url(#clippath-5);
      }

      .st7 {
        stroke: #000;
        stroke-width: .1px;
      }

      .st5 {
        font-family: Muli-Regular, Muli;
        font-size: 6px;
      }

      .st20 {
        clip-path: url(#clippath);
      }

      .st2 {
        stroke: #1c3663;
        stroke-width: 1.1px;
      }
    </style>
    <clipPath id="clippath">
      <rect class="st0" x="-15.7" y="-1.5" width="284.9" height="72.9"/>
    </clipPath>
    <clipPath id="clippath-1">
      <rect class="st0" x="-15.7" y="-1.5" width="284.9" height="72.9"/>
    </clipPath>
    <clipPath id="clippath-2">
      <rect class="st0" x="-15.7" y="-1.5" width="284.9" height="72.9"/>
    </clipPath>
    <clipPath id="clippath-3">
      <rect class="st0" x="-15.7" y="-1.5" width="284.9" height="72.9"/>
    </clipPath>
    <clipPath id="clippath-4">
      <rect class="st0" x="-15.7" y="-1.5" width="284.9" height="72.9"/>
    </clipPath>
    <clipPath id="clippath-5">
      <rect class="st0" x="-15.7" y="-1.5" width="284.9" height="72.9"/>
    </clipPath>
    <clipPath id="clippath-6">
      <rect class="st0" x="-15.7" y="-1.5" width="284.9" height="72.9"/>
    </clipPath>
    <clipPath id="clippath-7">
      <rect class="st0" x="-15.7" y="-1.5" width="284.9" height="72.9"/>
    </clipPath>
    <clipPath id="clippath-8">
      <rect class="st0" x="-15.7" y="-1.5" width="284.9" height="72.9"/>
    </clipPath>
    <clipPath id="clippath-9">
      <rect class="st0" x="-15.7" y="-1.5" width="284.9" height="72.9"/>
    </clipPath>
    <clipPath id="clippath-10">
      <rect class="st0" x="-15.7" y="-1.5" width="284.9" height="72.9"/>
    </clipPath>
    <clipPath id="clippath-11">
      <rect class="st0" x="-15.7" y="-1.5" width="284.9" height="72.9"/>
    </clipPath>
  </defs>
  <polyline class="st1" points="14.2 20.9 8.3 20.9 8.3 52.1 14.2 52.1"/>
  <path class="st1" d="M134.6,16.6v-6.2h-9.5v6.2M125.1,16.6v-6.2h-9.5v6.2"/>
  <g class="st20">
    <text class="st5" transform="translate(107.4 4.5)"><tspan x="0" y="0">1/3 X</tspan></text>
    <text class="st5" transform="translate(128.5 4.6)"><tspan x="0" y="0">1/3 X</tspan></text>
  </g>
  <polyline class="st1" points="14.5 54.3 14.5 60.3 114.1 60.3 114.1 54.3"/>
  <g class="st11">
    <polyline class="st1" points="137.3 54.3 137.3 60.3 269 60.3 269 54.3"/>
  </g>
  <text class="st5" transform="translate(0 38.4)"><tspan x="0" y="0">X</tspan></text>
  <text class="st5" transform="translate(62.5 68.6)"><tspan x="0" y="0">Y</tspan></text>
  <rect class="st0" x="-15.7" y="-1.5" width="284.9" height="72.9"/>
  <rect class="st0" x="-15.7" y="-1.5" width="284.9" height="72.9"/>
  <rect class="st0" x="-15.7" y="-1.5" width="284.9" height="72.9"/>
  <rect class="st0" x="-15.7" y="-1.5" width="284.9" height="72.9"/>
  <rect class="st0" x="-15.7" y="-1.5" width="284.9" height="72.9"/>
  <rect class="st0" x="-15.7" y="-1.5" width="284.9" height="72.9"/>
  <rect class="st0" x="-15.7" y="-1.5" width="284.9" height="72.9"/>
  <rect class="st0" x="-15.7" y="-1.5" width="284.9" height="72.9"/>
  <rect class="st0" x="-15.7" y="-1.5" width="284.9" height="72.9"/>
  <rect class="st0" x="-15.7" y="-1.5" width="284.9" height="72.9"/>
  <rect class="st0" x="-15.7" y="-1.5" width="284.9" height="72.9"/>
  <rect class="st0" x="-15.7" y="-1.5" width="284.9" height="72.9"/>
  <rect class="st0" x="-15.7" y="-1.5" width="284.9" height="72.9"/>
  <g>
    <path class="st8" d="M43.4,23.6v1.3h1.7c-.7-.3-1.3-.7-1.7-1.3M41.4,27.1h3.4v-.6h-3.4v.6ZM44.8,25.5h-3.4v.5h3.4v-.5ZM41.2,24.9h1.6v-1.3c-.4.6-.9,1-1.6,1.3M45.4,25.1v3h-.6v-.3h-3.4v.3h-.6v-2.9c-.1,0-.3.1-.6.2l-.3-.6c.8-.2,1.6-.6,2.2-1.1h-2.1v-.6h2.8v-.6c-1,0-1.8,0-2.2,0l-.2-.6c.3,0,.6,0,1,0,1.8,0,3.2-.1,4.1-.3l.3.6c-.6.1-1.4.2-2.3.3v.6h2.9v.6h-2.2c.5.5,1.3.9,2.3,1l-.3.6c0,0-.2,0-.3-.1-.1,0-.2,0-.3-.1"/>
    <path class="st8" d="M51.9,23.6h1.2v-.7h-1.2v.7ZM52,24.2c-.1.2-.2.4-.4.6h1.7c-.1-.2-.3-.4-.4-.6h-.9ZM51.5,26h1.6v-.7h-1.6v.7ZM50.3,22.3h.9v-.7h.6v.7h1.2v-.7h.6v.7h1.1v.5h-1.1v.7h1.2v.6h-1.3c.2.4.6.7,1.4,1.1l-.3.6c-.4-.3-.8-.5-1-.7v1.4h-2.2v.4c0,.2,0,.2.2.2h2c.2,0,.3,0,.3-.2,0-.1,0-.4.1-.8l.7.2c0,.6-.2,1-.3,1.1-.1.1-.4.2-.7.2h-2.2c-.3,0-.5,0-.6-.2-.1-.1-.2-.3-.2-.6v-1.5c-.1,0-.3.2-.6.4l-.4-.6c.8-.3,1.2-.7,1.4-1.2h-1.1v-.6h1v-.7h-.9v-.4l-.4.5c-.4-.3-.7-.6-1-.8l.5-.5c.4.2.7.5,1,.7h0ZM49.7,24.8c-.4-.3-.7-.6-1-.7l.4-.5c.3.2.7.4,1,.7l-.5.6ZM50.1,25.9c-.2.7-.5,1.4-.9,2l-.5-.6c.4-.6.7-1.2.8-1.8l.6.3Z"/>
    <path class="st8" d="M61.9,23.4c-.5-.4-.9-.7-1.2-.9l.4-.5c.3.2.7.4,1.3.8l-.4.5ZM61.8,25.1c-.5-.4-.9-.7-1.2-.9l.4-.5c.3.2.8.5,1.3.8l-.4.5ZM60.3,26.5v-.6l2.3-.3v-3.9h.6v3.9h.6c0-.1,0,.5,0,.5h-.6v2.1h-.6v-1.9l-2.3.3ZM58.7,22.6c-.2,0-.6,0-1.1.1v-.6c.9,0,1.8-.2,2.5-.5l.2.6c-.3.1-.7.2-1,.3v1h1v.6h-1c.5.5.9.9,1.2,1.2l-.4.6c-.1-.2-.3-.4-.4-.5-.1-.1-.2-.3-.4-.5v3.2h-.6s0-2.8,0-2.8c-.2.4-.5.9-.9,1.5l-.4-.6c.6-.7,1-1.4,1.3-2.1h-1.3v-.6h1.3v-.9Z"/>
    <path class="st8" d="M68.7,23.6h-.8v1.2c.4-.1.6-.2.8-.3v.7c-.1,0-.4.2-.8.3v1.7c0,.3,0,.5-.1.6,0,.1-.3.2-.7.2h-.5l-.2-.7h.6c.1,0,.2,0,.2-.2v-1.4c-.4.1-.7.2-.9.2l-.2-.7c.4,0,.8-.1,1.1-.2v-1.4h-1v-.6h1v-1.4h.7v1.4h.8v-.4h1.5v-1h.7v1h1.6v.6h-1.6v.9h1.4v.6c0,.2-.2.6-.5,1-.2.4-.5.7-.7.9.5.4,1,.6,1.5.8l-.3.6c-.6-.2-1.2-.5-1.7-1-.7.6-1.4.9-2.1,1l-.4-.6c.7-.1,1.3-.4,2-.9-.4-.4-.7-.8-1-1.5l.6-.2c.3.6.6,1,.9,1.3.5-.4.8-.8,1-1.4h-2.7v-.6h1.4v-.9h-1.5v.4Z"/>
    <path class="st8" d="M79,24c.1.6.4,1.1.7,1.8.4.6.9,1.1,1.6,1.6l-.5.6c-1.2-.8-2.1-2.1-2.5-4h-.1c-.3,1.6-1.2,3-2.8,4l-.5-.7c.6-.4,1.2-.9,1.7-1.5.5-.6.7-1.2.9-1.9h-2.4v-.7h2.5c0-.4,0-1,0-1.7h.7c0,.8,0,1.4,0,1.7h2.9v.7h-2.2Z"/>
    <path class="st8" d="M87.1,23.9c-.2.1-.5.3-.8.4l-.3-.5c.3,0,.6-.2.7-.2,0,0-.2-.2-.5-.3l.4-.3c0,0,.2.1.2.2,0,0,.2.1.3.2.1,0,.3-.2.5-.4l.4.3c-.2.2-.3.3-.5.4.1.1.3.2.4.4l-.4.3c-.2-.3-.3-.4-.4-.4M87,22.5c-.2.1-.5.3-.8.4l-.3-.5c.4-.1.6-.2.8-.3-.1,0-.3-.2-.5-.3l.4-.3c.2.1.4.2.5.4.2-.1.3-.3.4-.4l.3.3c0,.1-.2.3-.4.4,0,0,.2.2.4.4l-.4.3c-.2-.3-.3-.4-.3-.4M89.4,25h-4.9v1h-.6v-1.5h.3v-2.6c.5,0,1,0,1.4-.2l.3.5c-.3,0-.7.1-1.2.2v.3h1.1v.5h-1v.4h1v.5h-1v.5h4.3v-.5s-1,0-1,0v-.5h1v-.4s-1,0-1,0v-.5h1v-.4s-1.1,0-1.1,0v-.5h1.7v2.7c0,0,.3,0,.3,0v1.5h-.6v-1ZM88.8,25.3v.5c-.4.2-.9.4-1.5.6h2.8v.6h-2.8v.3c0,.5-.2.7-.6.7h-1l-.2-.6h.9c.1,0,.2,0,.2-.2v-.3h-3v-.6h3v-.3c.3,0,.7-.2,1.2-.3h-2.9v-.5h3.8Z"/>
    <polygon class="st8" points="41.9 35.7 41.3 35.7 41.3 31.3 40.1 31.3 40.1 30.7 43.1 30.7 43.1 31.3 41.9 31.3 41.9 35.7"/>
    <polygon class="st8" points="46.6 32.7 46.6 30.7 47.2 30.7 47.2 35.7 46.6 35.7 46.6 33.3 44.2 33.3 44.2 35.7 43.6 35.7 43.6 30.7 44.2 30.7 44.2 32.7 46.6 32.7"/>
    <polygon class="st8" points="48.2 30.7 50.9 30.7 50.9 31.3 48.8 31.3 48.8 32.7 50.9 32.7 50.9 33.2 48.8 33.2 48.8 35.1 50.9 35.1 50.9 35.7 48.2 35.7 48.2 30.7"/>
    <polygon class="st8" points="56.7 32.7 56.7 30.7 57.3 30.7 57.3 35.7 56.7 35.7 56.7 33.3 54.3 33.3 54.3 35.7 53.7 35.7 53.7 30.7 54.3 30.7 54.3 32.7 56.7 32.7"/>
    <path class="st8" d="M62.6,33.2c0-1.1-.8-2-2-2s-2,.9-2,2,.9,2,2,2,2-.9,2-2M63.2,33.2c0,1.5-1.2,2.6-2.6,2.6s-2.6-1.1-2.6-2.6,1.2-2.6,2.6-2.6,2.6,1.2,2.6,2.6"/>
    <polygon class="st8" points="63.9 30.4 67.6 34.4 67.6 30.7 68.3 30.7 68.3 35.9 64.5 32 64.5 35.7 63.9 35.7 63.9 30.4"/>
    <path class="st8" d="M73.8,33.2v.2c0,1.4-1,2.4-2.4,2.4s-2.5-1.2-2.5-2.6,1.2-2.6,2.6-2.6,1.6.4,2,1l-.4.4c-.4-.5-1-.8-1.6-.8-1.1,0-2,.9-2,2s.9,2.1,2,2.1,1.6-.7,1.6-1.5h-1.3v-.6h2Z"/>
    <polygon class="st8" points="79.2 30.7 80.1 30.7 77.8 32.9 80.1 35.7 79.3 35.7 77.4 33.4 77.1 33.6 77.1 35.7 76.5 35.7 76.5 30.7 77.1 30.7 77.1 32.9 79.2 30.7"/>
    <path class="st8" d="M84.8,33.2c0-1.1-.8-2-2-2s-2,.9-2,2,.9,2,2,2,2-.9,2-2M85.5,33.2c0,1.5-1.2,2.6-2.6,2.6s-2.6-1.1-2.6-2.6,1.2-2.6,2.6-2.6,2.6,1.2,2.6,2.6"/>
    <polygon class="st8" points="86.1 30.4 89.9 34.4 89.9 30.7 90.5 30.7 90.5 35.9 86.7 32 86.7 35.7 86.1 35.7 86.1 30.4"/>
    <path class="st8" d="M96,33.2v.2c0,1.4-1,2.4-2.4,2.4s-2.5-1.2-2.5-2.6,1.2-2.6,2.6-2.6,1.6.4,2,1l-.4.4c-.4-.5-1-.8-1.6-.8-1.1,0-2,.9-2,2s.9,2.1,2,2.1,1.6-.7,1.6-1.5h-1.3v-.6h2Z"/>
    <path class="st8" d="M41.1,38.7v3c0,.8.2,1.6,1.2,1.6s1.2-.8,1.2-1.6v-3h.6v3.2c0,1.1-.7,2-1.8,2s-1.8-.8-1.8-2v-3.2h.6Z"/>
    <polygon class="st8" points="45 38.4 48.8 42.4 48.8 38.7 49.4 38.7 49.4 43.9 45.6 40 45.6 43.7 45 43.7 45 38.4"/>
    <rect class="st8" x="50.4" y="38.7" width=".6" height="5"/>
    <polygon class="st8" points="53.6 42.4 55.1 38.7 55.8 38.7 53.6 44 51.5 38.7 52.1 38.7 53.6 42.4"/>
    <polygon class="st8" points="56.3 38.7 59 38.7 59 39.3 56.9 39.3 56.9 40.7 59 40.7 59 41.2 56.9 41.2 56.9 43.1 59 43.1 59 43.7 56.3 43.7 56.3 38.7"/>
    <path class="st8" d="M60.5,41.1h.2c.6,0,1.3-.1,1.3-.9s-.7-.9-1.4-.9h-.2v1.8ZM63,43.7h-.8l-1.5-2.1h-.3v2.1h-.6v-5h.8c.4,0,.9,0,1.3.2.4.2.7.7.7,1.2,0,.7-.5,1.3-1.2,1.4l1.6,2.2Z"/>
    <path class="st8" d="M65.8,39.6c-.2-.3-.4-.5-.8-.5s-.8.3-.8.7.4.6.7.7h.4c.7.4,1.2.8,1.2,1.7s-.7,1.6-1.6,1.6-1.4-.6-1.6-1.4h.6c0,.4.4.8,1,.8s.9-.5.9-1-.4-.8-.9-1h-.3c-.6-.4-1.1-.7-1.1-1.4s.7-1.3,1.5-1.3,1,.3,1.3.8l-.5.3Z"/>
    <rect class="st8" x="67.2" y="38.7" width=".6" height="5"/>
    <polygon class="st8" points="70.2 43.7 69.5 43.7 69.5 39.3 68.3 39.3 68.3 38.7 71.4 38.7 71.4 39.3 70.2 39.3 70.2 43.7"/>
    <polygon class="st8" points="71.4 38.7 72.1 38.7 73.4 40.8 74.6 38.7 75.3 38.7 73.7 41.5 73.7 43.7 73 43.7 73 41.5 71.4 38.7"/>
    <path class="st8" d="M82.1,41.2c0-1.1-.8-2-2-2s-2,.9-2,2,.9,2,2,2,2-.9,2-2M82.7,41.2c0,1.5-1.2,2.6-2.6,2.6s-2.6-1.1-2.6-2.6,1.2-2.6,2.6-2.6,2.6,1.2,2.6,2.6"/>
    <polygon class="st8" points="84 39.3 84 40.7 85.8 40.7 85.8 41.2 84 41.2 84 43.7 83.4 43.7 83.4 38.7 85.8 38.7 85.8 39.3 84 39.3"/>
    <path class="st8" d="M90.9,39.6c-.2-.3-.4-.5-.8-.5s-.8.3-.8.7.4.6.7.7h.4c.7.4,1.2.8,1.2,1.7s-.7,1.6-1.6,1.6-1.4-.6-1.6-1.4h.6c0,.4.4.8,1,.8s.9-.5.9-1-.4-.8-.9-1h-.3c-.6-.4-1.1-.7-1.1-1.4s.7-1.3,1.5-1.3,1,.3,1.3.8l-.5.3Z"/>
    <path class="st8" d="M95.9,39.6c-.4-.3-.9-.5-1.3-.5-1.1,0-2,.9-2,2.1s.9,2,2,2,1-.2,1.3-.5v.7c-.4.2-.9.4-1.3.4-1.4,0-2.6-1.1-2.6-2.6s1.2-2.6,2.7-2.6.9.1,1.3.3v.7Z"/>
    <rect class="st8" x="96.7" y="38.7" width=".6" height="5"/>
    <polygon class="st8" points="98.4 38.7 101.1 38.7 101.1 39.3 99 39.3 99 40.7 101 40.7 101 41.2 99 41.2 99 43.1 101.1 43.1 101.1 43.7 98.4 43.7 98.4 38.7"/>
    <polygon class="st8" points="101.8 38.4 105.6 42.4 105.6 38.7 106.2 38.7 106.2 43.9 102.5 40 102.5 43.7 101.8 43.7 101.8 38.4"/>
    <path class="st8" d="M110.9,39.6c-.4-.3-.9-.5-1.3-.5-1.1,0-2,.9-2,2.1s.9,2,2,2,1-.2,1.3-.5v.7c-.4.2-.9.4-1.3.4-1.4,0-2.6-1.1-2.6-2.6s1.2-2.6,2.7-2.6.9.1,1.3.3v.7Z"/>
    <polygon class="st8" points="111.7 38.7 114.4 38.7 114.4 39.3 112.3 39.3 112.3 40.7 114.3 40.7 114.3 41.2 112.3 41.2 112.3 43.1 114.4 43.1 114.4 43.7 111.7 43.7 111.7 38.7"/>
    <path class="st8" d="M42.4,47.9l-.9,2h1.8l-.9-2ZM41.3,50.5l-.6,1.3h-.7l2.4-5.2,2.4,5.2h-.7l-.6-1.3h-2.3Z"/>
    <polygon class="st8" points="45.2 46.5 49 50.4 49 46.7 49.6 46.7 49.6 51.9 45.9 48 45.9 51.7 45.2 51.7 45.2 46.5"/>
    <path class="st8" d="M51.2,51.1h.2c1.3,0,2.4-.5,2.4-1.9s-1.1-1.9-2.4-1.9h-.2v3.9ZM50.5,46.7h1c1.5,0,2.8.8,2.8,2.5s-1.3,2.5-2.8,2.5h-1v-5Z"/>
    <polygon class="st8" points="58.4 51.7 57.8 51.7 57.8 47.3 56.6 47.3 56.6 46.7 59.6 46.7 59.6 47.3 58.4 47.3 58.4 51.7"/>
    <polygon class="st8" points="60.2 46.7 62.9 46.7 62.9 47.3 60.8 47.3 60.8 48.7 62.8 48.7 62.8 49.2 60.8 49.2 60.8 51.1 62.9 51.1 62.9 51.7 60.2 51.7 60.2 46.7"/>
    <path class="st8" d="M67.4,47.7c-.4-.3-.9-.5-1.3-.5-1.1,0-2,.9-2,2.1s.9,2,2,2,1-.2,1.3-.5v.7c-.4.2-.9.4-1.3.4-1.4,0-2.6-1.1-2.6-2.6s1.2-2.6,2.7-2.6.9.1,1.3.3v.7Z"/>
    <polygon class="st8" points="71.2 48.7 71.2 46.7 71.8 46.7 71.8 51.7 71.2 51.7 71.2 49.3 68.8 49.3 68.8 51.7 68.2 51.7 68.2 46.7 68.8 46.7 68.8 48.7 71.2 48.7"/>
    <polygon class="st8" points="72.7 46.5 76.5 50.4 76.5 46.7 77.1 46.7 77.1 51.9 73.4 48 73.4 51.7 72.7 51.7 72.7 46.5"/>
    <path class="st8" d="M82.4,49.2c0-1.1-.8-2-2-2s-2,.9-2,2,.9,2,2,2,2-.9,2-2M83,49.2c0,1.5-1.2,2.6-2.6,2.6s-2.6-1.1-2.6-2.6,1.2-2.6,2.6-2.6,2.6,1.2,2.6,2.6"/>
    <polygon class="st8" points="84.3 51.1 85.8 51.1 85.8 51.7 83.7 51.7 83.7 46.7 84.3 46.7 84.3 51.1"/>
    <path class="st8" d="M90.6,49.2c0-1.1-.8-2-2-2s-2,.9-2,2,.9,2,2,2,2-.9,2-2M91.2,49.2c0,1.5-1.2,2.6-2.6,2.6s-2.6-1.1-2.6-2.6,1.2-2.6,2.6-2.6,2.6,1.2,2.6,2.6"/>
    <path class="st8" d="M96.5,49.2v.2c0,1.4-1,2.4-2.4,2.4s-2.5-1.2-2.5-2.6,1.2-2.6,2.6-2.6,1.6.4,2,1l-.4.4c-.4-.5-1-.8-1.6-.8-1.1,0-2,.9-2,2s.9,2.1,2,2.1,1.6-.7,1.6-1.5h-1.3v-.6h2Z"/>
    <polygon class="st8" points="96.7 46.7 97.4 46.7 98.6 48.8 99.8 46.7 100.6 46.7 98.9 49.5 98.9 51.7 98.3 51.7 98.3 49.5 96.7 46.7"/>
    <g>
      <path class="st6" d="M31.5,51.9l-3.6-6s-.1-.1-.1-.4h0v-11.1h-1.4v11.5c.1.1,2.4,4,2.4,4h-5.6s2.3-3.9,2.4-4v-11.5h-1.4v11h0c0,.4-.1.5-.1.5l-3.6,6h11Z"/>
      <path class="st6" d="M30.4,26.6s.7-2.8-1.7-4.7c0,0-1-.9-2.8-.9s-2.6.9-2.6.9c-2.2,1.5-1.6,4.7-1.6,4.7h8.8Z"/>
      <path class="st6" d="M21.8,27.3h8.3c0-.2.1-.3.2-.5h-8.6c0,.2.1.3.2.5"/>
      <path class="st6" d="M30,27.6h-8c0,.2.2.3.3.5h7.5c.1-.2.2-.3.3-.5"/>
      <path class="st6" d="M22.8,28.8h6.4c.1-.1.2-.3.3-.4h-7.1c.1.1.2.3.3.4"/>
      <path class="st6" d="M23.5,29.4h5c.1,0,.3-.2.4-.3h-5.8c.1.1.2.2.4.3"/>
      <path class="st6" d="M24.2,29.8c.6.2,1.2.4,1.8.4s1.3-.1,1.8-.4h-3.6Z"/>
      <path class="st8" d="M34.6,30.4h-6.8s-.6,0-1.1.3c-.4.3-.7.9-.7.9h0s-.3-.6-.7-.9c-.5-.3-1.1-.3-1.1-.3h-6.8l-1.4,2.2h6.2s.2,0,.3,0c.2,0,.5.1.8.4.5.3.6.5.7.6,0,0,.2.3.2.3h3.4s.1-.2.2-.3c.1-.1.2-.3.7-.6.3-.2.7-.3.8-.4.1,0,.3,0,.3,0h6.2l-1.4-2.2Z"/>
      <path class="st8" d="M16.7,33.2v10.2h0c0,.3,0,.4,0,.4.1,1.1.5,1.9,1.1,3,1,1.7,2.8,2.8,2.8,2.8l.9-1.4s-1.2-.6-2.1-2c-.2-.3-.4-.5-.5-.8-.1-.2-.2-.5-.3-.7,0-.2,0-.3-.1-.4,0-.2,0-.3,0-.5,0,0,0-.3,0-.3h0v-10.3h-1.7Z"/>
      <path class="st8" d="M19.3,33.2v10.3s0,0,0,0c0,0,0,.1,0,.2,0,0,0,0,0,.1,0,.2,0,.3.1.5.1.3.3.8.6,1.2.8,1.2,1.9,1.8,1.9,1.8l.9-1.3s-.3-.2-.6-.5c-.2-.2-.5-.5-.7-.8-.2-.3-.4-.7-.4-1,0-.2,0-.4,0-.5,0,0,0-.1,0-.1v-9.9h-1.6Z"/>
      <path class="st8" d="M35.3,33.2v10.2h0c0,.3,0,.4,0,.4-.1,1.1-.5,1.9-1.1,3-1,1.7-2.8,2.8-2.8,2.8l-.9-1.4s1.2-.6,2.1-2c.2-.3.4-.5.5-.8.1-.2.2-.5.3-.7,0-.2,0-.3.1-.4,0-.2,0-.3,0-.5,0,0,0-.3,0-.3h0v-10.3h1.7Z"/>
      <path class="st8" d="M32.7,33.2v10.3s0,0,0,0c0,0,0,.1,0,.2,0,0,0,0,0,.1,0,.2,0,.3-.1.5-.1.3-.3.8-.6,1.2-.8,1.2-1.9,1.8-1.9,1.8l-.8-1.3s.3-.2.6-.5c.2-.2.5-.5.7-.8.2-.3.4-.7.4-1,0-.2,0-.4,0-.5,0,0,0-.1,0-.1v-9.9h1.6Z"/>
    </g>
  </g>
  <rect class="st0" x="-15.7" y="-1.5" width="284.9" height="72.9"/>
  <line class="st2" x1="124.9" y1="20.6" x2="124.9" y2="52.3"/>
  <g class="st14">
    <path class="st3" d="M137.5,34.3c-.3,0-.5-.2-.7-.4l.2-.4c.2.2.4.3.6.4.2,0,.5.1.7.1.3,0,.5,0,.7-.2.2-.1.3-.3.3-.5,0-.2,0-.3-.2-.4-.2-.1-.5-.2-.8-.2-.3,0-.5-.1-.8-.2-.2,0-.4-.2-.5-.4-.1-.2-.2-.4-.2-.6,0-.2,0-.5.2-.7.1-.2.3-.3.5-.4.3-.1.5-.2.8-.2.3,0,.6,0,.8.1.2,0,.5.2.6.4l-.2.4c-.2-.2-.4-.3-.6-.4-.2,0-.4-.1-.6-.1-.2,0-.5,0-.7.2-.2.1-.3.3-.3.5,0,.2,0,.3.2.4.2.1.5.2.7.3.3,0,.6.1.8.2.2,0,.4.2.5.4.1.2.2.4.2.6,0,.2,0,.4-.2.6-.1.2-.3.3-.5.4-.3.1-.6.2-.8.1-.3,0-.6,0-.9-.1"/>
    <path class="st3" d="M143.3,32.6v1.8h-.6v-1.8c0-.2,0-.4-.2-.6-.1-.1-.3-.2-.5-.2-.2,0-.4,0-.6.2-.1.2-.2.4-.2.6v1.7h-.6v-4.3h.6v1.8c0-.2.2-.3.4-.4.2,0,.4-.1.6-.1.7,0,1.1.4,1.1,1.2"/>
    <path class="st3" d="M144.9,32c-.2.2-.2.4-.3.6h1.6c0-.2,0-.4-.2-.6-.1-.1-.3-.2-.5-.2-.2,0-.4,0-.5.2M146.7,32.9h-2.1c0,.7.3,1,.9,1s.7-.1.9-.3l.2.4c-.1.1-.3.2-.5.3-.2,0-.4.1-.6.1-.8,0-1.4-.5-1.5-1.3,0,0,0-.2,0-.2,0-.3,0-.6.2-.8.1-.2.3-.4.5-.5.2-.1.5-.2.7-.2.4,0,.7.1.9.4.2.3.4.7.3,1.1h0Z"/>
    <path class="st3" d="M150,32.6v1.8h-.6v-1.8c0-.2,0-.4-.1-.6-.1-.1-.3-.2-.5-.2-.2,0-.4,0-.6.2-.1.2-.2.4-.2.6v1.7h-.6v-2.1c0-.3,0-.6,0-.8h.5v.5c.1-.2.3-.3.5-.4.2-.1.4-.2.6-.1.7,0,1.1.4,1.1,1.2"/>
  </g>
  <polygon class="st3" points="151.4 33.9 153.2 33.9 153.2 34.4 150.7 34.4 150.7 34 152.4 31.9 150.7 31.9 150.7 31.5 153.1 31.5 153.1 31.9 151.4 33.9"/>
  <g class="st12">
    <path class="st3" d="M156.5,32.6v1.8h-.6v-1.8c0-.2,0-.4-.1-.6-.1-.1-.3-.2-.5-.2-.2,0-.4,0-.6.2-.1.2-.2.4-.2.6v1.7h-.6v-4.3h.6v1.8c0-.2.2-.3.4-.4.2,0,.4-.1.6-.1.7,0,1.1.4,1.1,1.2"/>
    <path class="st3" d="M158.1,32c-.1.2-.2.4-.3.6h1.6c0-.2,0-.4-.2-.6-.1-.1-.3-.2-.5-.2-.2,0-.4,0-.6.2M159.9,32.9h-2.1c0,.7.3,1,.9,1s.7-.1.9-.3l.2.4c-.1.1-.3.2-.5.3-.2,0-.4.1-.6.1-.8,0-1.5-.5-1.5-1.3,0,0,0-.2,0-.2,0-.3,0-.6.2-.8.1-.2.3-.4.5-.5.2-.1.5-.2.7-.2.4,0,.7.1.9.4.2.3.4.7.3,1.1h0Z"/>
    <path class="st3" d="M163.2,32.6v1.8h-.6v-1.8c0-.2,0-.4-.2-.6-.1-.1-.3-.2-.5-.2-.2,0-.4,0-.6.2-.1.2-.2.4-.2.6v1.7h-.6v-2.1c0-.3,0-.6,0-.8h.6v.5c.1-.2.3-.3.5-.4.2-.1.4-.2.6-.1.7,0,1.1.4,1.1,1.2"/>
    <path class="st3" d="M167.3,32.1c.2,0,.5,0,.7-.2.3-.3.3-.8,0-1.1-.2-.1-.4-.2-.7-.2h-1v1.4h1ZM169,34.4h-.6l-.5-1.4c0-.1-.1-.2-.2-.3-.1,0-.3,0-.4,0h-.9v1.8h-.6v-4.2h1.7c.4,0,.7,0,1.1.3.2.2.4.5.4.9,0,.2,0,.5-.2.7-.2.2-.4.3-.6.4.3,0,.5.3.5.5l.5,1.4Z"/>
    <path class="st3" d="M170.3,32c-.2.2-.2.4-.3.6h1.6c0-.2,0-.4-.2-.6-.1-.1-.3-.2-.5-.2-.2,0-.4,0-.5.2h0ZM172.2,32.9h-2.1c0,.7.3,1,.9,1,.3,0,.7-.1.9-.3l.2.4c-.1.1-.3.2-.5.3-.2,0-.4.1-.6.1-.8,0-1.4-.5-1.5-1.3,0,0,0-.2,0-.2,0-.3,0-.6.2-.8.1-.2.3-.4.5-.5.2-.1.5-.2.7-.2.4,0,.7.1.9.4.2.3.4.7.4,1.1h0Z"/>
    <path class="st3" d="M172.6,34.1l.2-.4c.3.2.7.4,1.1.3.2,0,.3,0,.5-.1.1,0,.2-.2.2-.3,0,0,0-.2-.1-.2-.1,0-.2-.1-.4-.2h-.5c-.2-.2-.4-.3-.6-.4-.1-.1-.2-.3-.2-.5,0-.3.1-.5.3-.6.2-.2.5-.3.8-.2.2,0,.4,0,.6,0,.2,0,.3.2.5.3l-.2.4c-.3-.2-.6-.3-.9-.3-.2,0-.3,0-.4.1-.1,0-.2.2-.2.3,0,0,0,.2.1.2,0,0,.2.1.3.1h.5c.2.2.4.3.6.4.1.1.2.3.2.5,0,.3-.1.5-.3.6-.3.2-.6.2-.9.2-.4,0-.9-.1-1.2-.4"/>
    <path class="st3" d="M176.4,32c-.2.2-.2.4-.3.6h1.6c0-.2,0-.4-.2-.6-.1-.1-.3-.2-.5-.2-.2,0-.4,0-.5.2h0ZM178.2,32.9h-2.1c0,.7.3,1,.9,1s.7-.1.9-.3l.2.4c-.1.1-.3.2-.5.3-.2,0-.4.1-.6.1-.8,0-1.4-.5-1.5-1.3,0,0,0-.2,0-.2,0-.3,0-.6.2-.8.1-.2.3-.4.5-.5.2-.1.5-.2.7-.2.4,0,.7.1.9.4.2.3.4.7.3,1.1h0Z"/>
    <path class="st3" d="M180.8,33.7c.2-.2.2-.5.2-.8,0-.3,0-.6-.2-.8-.3-.3-.8-.4-1.2,0,0,0,0,0,0,0-.2.2-.2.5-.2.8,0,.3,0,.5.2.8.2.2.4.3.6.3.2,0,.5,0,.6-.3M181.6,31.5v2.9h-.6v-.5c0,.2-.2.3-.4.4-.2,0-.4.1-.6.1-.5,0-.9-.3-1.1-.7-.1-.2-.2-.5-.2-.8,0-.3,0-.6.2-.8.1-.2.3-.4.5-.5.2-.1.4-.2.7-.2.2,0,.4,0,.6.1.2,0,.3.2.4.4v-.5h.6Z"/>
    <path class="st3" d="M184.2,31.4v.5c-.1,0-.2,0-.4,0-.2,0-.5,0-.6.2-.1.2-.2.4-.2.6v1.6h-.6v-2.1c0-.3,0-.6,0-.8h.6v.5c.1-.2.2-.3.4-.4.2-.1.4-.2.6-.2,0,0,.2,0,.3,0"/>
    <path class="st3" d="M185.1,34.3c-.2-.1-.4-.3-.5-.5-.1-.2-.2-.5-.2-.8,0-.3,0-.6.2-.8.1-.2.3-.4.5-.5.2-.1.5-.2.8-.2.2,0,.4,0,.6.1.2,0,.3.2.5.3l-.2.4c-.2-.2-.5-.3-.8-.3-.2,0-.5,0-.7.3-.2.2-.3.5-.2.8,0,.3,0,.6.2.8.2.2.4.3.7.3.3,0,.6-.1.8-.3l.2.4c-.1.1-.3.2-.5.3-.2,0-.4,0-.6,0-.3,0-.5,0-.8-.2"/>
    <path class="st3" d="M190.2,32.6v1.8h-.6v-1.8c0-.2,0-.4-.1-.6-.1-.1-.3-.2-.5-.2-.2,0-.4,0-.6.2-.2.2-.2.4-.2.6v1.7h-.6v-4.3h.6v1.8c0-.2.2-.3.4-.4.2,0,.4-.1.6-.1.7,0,1.1.4,1.1,1.2"/>
  </g>
  <rect class="st3" x="192.6" y="30.2" width=".6" height="4.2"/>
  <g class="st13">
    <path class="st3" d="M196.8,32.6v1.8h-.6v-1.8c0-.2,0-.4-.1-.6-.1-.1-.3-.2-.5-.2-.2,0-.4,0-.6.2-.2.2-.2.4-.2.6v1.7h-.6v-2.1c0-.3,0-.6,0-.8h.6v.5c.1-.2.3-.3.5-.4.2-.1.4-.2.6-.1.7,0,1.1.4,1.1,1.2"/>
    <path class="st3" d="M197.4,34.1l.2-.4c.3.2.7.4,1.1.3.2,0,.3,0,.5-.1.1,0,.2-.2.2-.3,0,0,0-.2-.1-.2-.1,0-.2-.1-.4-.2h-.5c-.2-.2-.4-.3-.6-.4-.1-.1-.2-.3-.2-.5,0-.3.1-.5.3-.6.2-.2.5-.3.8-.2.2,0,.4,0,.6.1.2,0,.3.2.5.3l-.2.4c-.3-.2-.6-.3-.9-.3-.2,0-.3,0-.4.1-.1,0-.2.2-.2.3,0,0,0,.2.1.2,0,0,.2.1.3.1h.5c.2.2.4.3.6.4.1.1.2.3.2.5,0,.3-.1.5-.3.6-.3.2-.6.2-.9.2-.4,0-.9-.1-1.2-.4"/>
    <path class="st3" d="M201.3,31.9v1.5c0,.2,0,.3.1.4,0,0,.2.1.4.1.1,0,.2,0,.3,0v.5c-.1,0-.3,0-.4,0-.3,0-.5,0-.7-.3-.2-.2-.3-.5-.2-.7v-1.5h-.6v-.5h.6v-.7l.6-.2v.9h.8v.5h-.8Z"/>
  </g>
  <path class="st3" d="M202.6,34.4h.6v-2.9h-.6v2.9ZM202.6,30.8h.7v-.6h-.7v.6Z"/>
  <g class="st19">
    <path class="st3" d="M204.8,31.9v1.5c0,.2,0,.3.1.4,0,0,.2.1.4.1.1,0,.2,0,.3,0v.5c-.1,0-.3,0-.4,0-.3,0-.5,0-.7-.3-.2-.2-.3-.5-.2-.7v-1.5h-.6v-.5h.6v-.7l.6-.2v.9h.8v.5h-.8Z"/>
    <path class="st3" d="M208.8,31.5v2.9h-.6v-.5c0,.2-.2.3-.4.4-.2,0-.4.1-.6.1-.7,0-1.1-.4-1.1-1.2v-1.8h.6v1.8c0,.2,0,.4.1.5.1.1.3.2.5.2.2,0,.4,0,.6-.2.2-.2.2-.4.2-.6v-1.7h.6Z"/>
    <path class="st3" d="M210.4,31.9v1.5c0,.2,0,.3.1.4.1,0,.2.1.4.1.1,0,.2,0,.3,0v.5c-.1,0-.3,0-.4,0-.3,0-.5,0-.7-.3-.2-.2-.3-.5-.2-.7v-1.5h-.6v-.5h.6v-.7l.6-.2v.9h.8v.5h-.8Z"/>
    <path class="st3" d="M212.4,32c-.2.2-.2.4-.3.6h1.6c0-.2,0-.4-.2-.6-.1-.1-.3-.2-.5-.2-.2,0-.4,0-.5.2M214.3,32.9h-2.1c0,.7.3,1,.9,1s.7-.1.9-.3l.2.4c-.1.1-.3.2-.5.3-.2,0-.4.1-.6.1-.8,0-1.4-.5-1.5-1.3,0,0,0-.2,0-.2,0-.3,0-.6.2-.8.1-.2.3-.4.5-.5.2-.1.5-.2.7-.2.4,0,.7.1.9.4.2.3.4.7.3,1.1h0Z"/>
  </g>
  <polygon class="st3" points="140 46.8 140.6 46.8 140.6 51 140 51 140 49.1 137.7 49.1 137.7 51 137.1 51 137.1 46.8 137.7 46.8 137.7 48.6 140 48.6 140 46.8"/>
  <polygon class="st3" points="145 51 144.2 51 142.2 49 142.2 51 141.6 51 141.6 46.8 142.2 46.8 142.2 48.7 144.1 46.8 144.9 46.8 142.8 48.8 145 51"/>
  <g class="st16">
    <path class="st3" d="M145.7,50.6c-.3-.3-.5-.8-.4-1.3v-2.5h.6v2.5c0,.3,0,.6.3.9.2.2.5.3.8.3.3,0,.6,0,.8-.3.2-.2.3-.6.3-.9v-2.5h.6v2.5c0,.5-.1.9-.4,1.3-.3.3-.8.5-1.3.4-.5,0-.9-.1-1.3-.4"/>
    <path class="st3" d="M150.1,50.9c-.3,0-.5-.2-.7-.4l.2-.4c.2.2.4.3.6.4.2,0,.5.1.7.1.3,0,.5,0,.7-.2.2-.1.3-.3.3-.5,0-.2,0-.3-.2-.4-.2-.1-.5-.2-.8-.2-.3,0-.5-.1-.8-.2-.2,0-.4-.2-.5-.4-.1-.2-.2-.4-.2-.6,0-.2,0-.5.2-.6.1-.2.3-.3.5-.4.3-.1.5-.2.8-.2.3,0,.6,0,.8.1.2,0,.5.2.6.4l-.2.4c-.2-.1-.4-.3-.6-.4-.2,0-.4-.1-.7-.1-.2,0-.5,0-.7.2-.2.1-.3.3-.3.5,0,.2,0,.3.2.4.2.1.5.2.7.3.3,0,.6.1.8.2.2,0,.4.2.5.4.1.2.2.4.2.6,0,.2,0,.4-.2.6-.1.2-.3.3-.6.4-.3.1-.6.2-.8.1-.3,0-.6,0-.9-.1"/>
  </g>
  <polygon class="st3" points="154.2 51 154.2 47.3 152.8 47.3 152.8 46.8 156.2 46.8 156.2 47.3 154.8 47.3 154.8 51 154.2 51"/>
  <g class="st15">
    <path class="st3" d="M160,48.7c.2,0,.5,0,.7-.2.2-.1.2-.3.2-.5,0-.2,0-.4-.2-.5-.2-.1-.4-.2-.7-.2h-1v1.4h1ZM161.7,51h-.6l-.5-1.4c0-.1-.1-.2-.2-.3-.1,0-.3,0-.4,0h-.9v1.8h-.6v-4.2h1.7c.4,0,.7,0,1.1.3.2.2.4.5.4.9,0,.2,0,.5-.2.7-.2.2-.4.3-.6.4.3,0,.5.3.5.5l.5,1.4Z"/>
    <path class="st3" d="M165.8,50.3c.3-.5.3-1.1,0-1.6-.3-.3-.8-.4-1.2,0,0,0,0,0,0,0-.2.2-.2.5-.2.8,0,.3,0,.5.2.8.2.2.4.3.6.3.2,0,.5,0,.6-.3M166.6,48v3h-.6v-.5c0,.2-.2.3-.4.4-.2,0-.4.1-.6.1-.5,0-.9-.3-1.1-.7-.1-.2-.2-.5-.2-.8,0-.3,0-.6.2-.8.1-.2.3-.4.5-.5.2-.1.4-.2.7-.2.2,0,.4,0,.6.1.2,0,.3.2.4.4v-.5h.6Z"/>
    <path class="st3" d="M170.1,49.1v1.8h-.6v-1.8c0-.2,0-.4-.2-.6-.1-.1-.3-.2-.5-.2-.2,0-.4,0-.6.2-.2.2-.2.4-.2.6v1.7h-.6v-2.1c0-.3,0-.6,0-.8h.6v.5c.1-.2.3-.3.5-.4.2-.1.4-.2.6-.1.7,0,1.1.4,1.1,1.2"/>
    <path class="st3" d="M172.8,50.3c.3-.5.3-1.1,0-1.6-.1-.2-.4-.3-.6-.3-.2,0-.5,0-.6.3-.2.2-.2.5-.2.8,0,.3,0,.6.2.8.3.3.8.4,1.2,0,0,0,0,0,0,0h0ZM173.6,46.7v4.3h-.6v-.5c0,.2-.2.3-.4.4-.2,0-.4.1-.6.1-.2,0-.5,0-.7-.2-.2-.1-.4-.3-.5-.5-.2-.5-.2-1.1,0-1.6,0-.2.3-.4.5-.5.2-.1.4-.2.7-.2.2,0,.4,0,.6.1.2,0,.3.2.4.4v-1.8h.6Z"/>
    <path class="st3" d="M177.5,50.5c1,0,1.5-.5,1.5-1.6,0-1.1-.5-1.6-1.5-1.6h-.8v3.2h.8ZM176.1,46.8h1.5c.6,0,1.1.2,1.6.5.7.9.7,2.2,0,3.1-.4.4-1,.6-1.6.5h-1.5v-4.2Z"/>
    <path class="st3" d="M182.9,50.8c-.3-.2-.5-.4-.7-.7-.3-.7-.3-1.5,0-2.3.2-.3.4-.6.7-.7.3-.2.7-.3,1.1-.2.3,0,.5,0,.8.1.2,0,.4.2.6.4l-.2.4c-.2-.1-.4-.3-.6-.3-.2,0-.4-.1-.6-.1-.4,0-.8.1-1,.4-.3.3-.4.8-.4,1.2,0,.4,0,.9.4,1.2.2.3.6.4,1,.4.2,0,.4,0,.6-.1.2,0,.4-.2.6-.3l.2.4c-.2.2-.4.3-.6.4-.3,0-.5.1-.8.1-.4,0-.7,0-1.1-.3"/>
    <path class="st3" d="M187.8,50.3c.2-.2.2-.5.2-.8,0-.3,0-.6-.2-.8-.1-.2-.4-.3-.6-.3-.2,0-.5,0-.6.3-.3.5-.3,1.1,0,1.6.3.3.9.4,1.2,0,0,0,0,0,0,0h0ZM186.5,50.8c-.2-.1-.4-.3-.5-.5-.1-.3-.2-.5-.2-.8,0-.3,0-.6.2-.8.1-.2.3-.4.5-.5.5-.2,1-.2,1.5,0,.2.1.4.3.5.5.1.3.2.5.2.8,0,.3,0,.6-.2.8-.1.2-.3.4-.5.5-.5.2-1,.2-1.5,0"/>
    <path class="st3" d="M191.1,48v.5c-.1,0-.2,0-.3,0-.2,0-.5,0-.6.2-.1.2-.2.4-.2.6v1.7h-.6v-2.1c0-.3,0-.6,0-.8h.5v.5c.1-.2.2-.3.4-.4.2-.1.4-.2.5-.2,0,0,.2,0,.3,0"/>
    <path class="st3" d="M193.6,50.3c.2-.2.2-.5.2-.8,0-.3,0-.6-.2-.8-.3-.3-.8-.4-1.2,0,0,0,0,0,0,0-.3.5-.3,1.1,0,1.6.3.3.8.4,1.2,0,0,0,0,0,0,0h0ZM193.8,48.2c.2.1.4.3.5.5.2.5.2,1.1,0,1.6,0,.2-.3.4-.5.5-.2.1-.4.2-.7.2-.2,0-.4,0-.6-.1-.2,0-.3-.2-.4-.4v1.8h-.6v-3.4c0-.3,0-.6,0-.8h.6v.5c.1-.2.3-.3.4-.5.2-.1.4-.2.6-.2.2,0,.5,0,.7.2"/>
    <path class="st3" d="M197,50.3c.3-.5.3-1.1,0-1.6-.1-.2-.4-.3-.6-.3-.2,0-.5,0-.6.3-.3.5-.3,1.1,0,1.6.3.3.9.4,1.2,0,0,0,0,0,0,0h0ZM195.6,50.8c-.2-.1-.4-.3-.5-.5-.1-.3-.2-.5-.2-.8,0-.3,0-.6.2-.8.1-.2.3-.4.5-.5.5-.2,1-.2,1.5,0,.2.1.4.3.5.5.1.3.2.5.2.8,0,.3,0,.6-.2.8-.1.2-.3.4-.5.5-.5.2-1,.2-1.5,0"/>
    <path class="st3" d="M200.3,48v.5c-.1,0-.2,0-.4,0-.2,0-.5,0-.6.2-.1.2-.2.4-.2.6v1.6h-.6v-2.1c0-.3,0-.6,0-.8h.6v.5c.1-.2.2-.3.4-.4.2-.1.4-.2.6-.2,0,0,.2,0,.3,0"/>
    <path class="st3" d="M202.5,50.3c.3-.5.3-1.1,0-1.6-.3-.3-.8-.4-1.2,0,0,0,0,0,0,0-.2.2-.2.5-.2.8,0,.3,0,.5.2.8.2.2.4.3.6.3.2,0,.5,0,.6-.3h0ZM203.3,48v3h-.6v-.5c0,.2-.2.3-.4.4-.2,0-.4.1-.6.1-.2,0-.5,0-.7-.2-.2-.1-.4-.3-.5-.5-.2-.5-.2-1.1,0-1.6.1-.2.3-.4.5-.5.2-.1.4-.2.7-.2.2,0,.4,0,.6.1.2,0,.3.2.4.4v-.5h.6Z"/>
    <path class="st3" d="M205,48.5v1.5c0,.2,0,.3.1.4,0,0,.2.1.4.1.1,0,.2,0,.3,0v.5c-.1,0-.3,0-.4,0-.3,0-.5,0-.7-.3-.2-.2-.3-.5-.2-.7v-1.5h-.6v-.5h.6v-.7l.6-.2v.9h.8v.5h-.8Z"/>
  </g>
  <path class="st3" d="M206.3,48v2.9h.6s0-2.9,0-2.9h-.6ZM206.3,47.4h.7v-.6h-.7v.6Z"/>
  <g class="st18">
    <path class="st3" d="M209.7,50.3c.3-.5.3-1.1,0-1.6-.3-.3-.8-.4-1.2,0,0,0,0,0,0,0-.3.5-.3,1.1,0,1.6.3.3.9.4,1.2,0,0,0,0,0,0,0h0ZM208.3,50.8c-.2-.1-.4-.3-.5-.5-.1-.3-.2-.5-.2-.8,0-.3,0-.6.2-.8.1-.2.3-.4.5-.5.5-.2,1-.2,1.5,0,.2.1.4.3.5.5.1.3.2.5.2.8,0,.3,0,.6-.2.8-.1.2-.3.4-.5.5-.5.2-1,.2-1.5,0"/>
    <path class="st3" d="M213.8,49.1v1.8h-.6v-1.8c0-.2,0-.4-.1-.6-.1-.1-.3-.2-.5-.2-.2,0-.4,0-.6.2-.2.2-.2.4-.2.6v1.7h-.6v-2.1c0-.3,0-.6,0-.8h.5v.5c.1-.2.3-.3.5-.4.2-.1.4-.2.6-.1.7,0,1.1.4,1.1,1.2"/>
    <path class="st3" d="M216.5,50.8c-.1-.4-.2-.9-.2-1.3,0-.4,0-.9.2-1.3.1-.5.3-.9.5-1.3h.5c-.2.4-.3.9-.4,1.4-.2.8-.2,1.7,0,2.5.1.5.2.9.4,1.4h-.5c-.2-.4-.4-.9-.5-1.3"/>
    <path class="st3" d="M218.7,50.9c-.3,0-.5-.2-.7-.4l.2-.4c.2.2.4.3.6.4.2,0,.5.1.7.1.3,0,.5,0,.7-.2.2-.1.3-.3.3-.5,0-.2,0-.3-.2-.4-.2-.1-.5-.2-.8-.2-.3,0-.6-.1-.8-.2-.2,0-.4-.2-.5-.4-.1-.2-.2-.4-.2-.6,0-.2,0-.5.2-.6.1-.2.3-.3.5-.4.3-.1.5-.2.8-.2.3,0,.6,0,.8.1.2,0,.5.2.6.4l-.2.4c-.2-.1-.4-.3-.6-.4-.2,0-.4-.1-.6-.1-.3,0-.5,0-.7.2-.2.1-.2.3-.2.5,0,.2,0,.3.2.4.2.1.5.2.7.3.3,0,.6.1.8.2.2,0,.4.2.5.4.1.2.2.4.2.6,0,.2,0,.4-.2.6-.1.2-.3.3-.6.4-.3.1-.6.2-.8.1-.3,0-.6,0-.9-.1"/>
    <path class="st3" d="M224.5,49.1v1.8h-.6v-1.8c0-.2,0-.4-.1-.6-.1-.1-.3-.2-.5-.2-.2,0-.4,0-.6.2-.2.2-.2.4-.2.6v1.7h-.6v-4.3h.6v1.8c0-.2.2-.3.4-.4.2,0,.4-.1.6-.1.7,0,1.1.4,1.1,1.2"/>
    <path class="st3" d="M226,48.6c-.2.2-.2.4-.3.6h1.6c0-.2,0-.4-.2-.6-.1-.1-.3-.2-.5-.2-.2,0-.4,0-.5.2h0ZM227.8,49.5h-2.1c0,.7.3,1,.9,1s.7-.1.9-.3l.2.4c-.1.1-.3.2-.5.3-.2,0-.4.1-.6.1-.4,0-.8-.1-1.1-.4-.3-.3-.4-.7-.4-1.1,0-.3,0-.6.2-.8.1-.2.3-.4.5-.5.2-.1.5-.2.7-.2.4,0,.7.1.9.4.2.3.4.7.3,1.1h0Z"/>
    <path class="st3" d="M231.1,49.1v1.8h-.6v-1.8c0-.2,0-.4-.1-.6-.1-.1-.3-.2-.5-.2-.2,0-.4,0-.6.2-.2.2-.2.4-.2.6v1.7h-.6v-2.1c0-.3,0-.6,0-.8h.6v.5c.1-.2.3-.3.5-.4.2-.1.4-.2.6-.1.7,0,1.1.4,1.1,1.2"/>
  </g>
  <polygon class="st3" points="232.6 50.5 234.4 50.5 234.4 51 231.8 51 231.8 50.6 233.6 48.5 231.9 48.5 231.9 48 234.3 48 234.3 48.5 232.6 50.5"/>
  <g class="st17">
    <path class="st3" d="M237.7,49.1v1.8h-.6v-1.8c0-.2,0-.4-.1-.6-.1-.1-.3-.2-.5-.2-.2,0-.4,0-.6.2-.2.2-.2.4-.2.6v1.7h-.6v-4.3h.6v1.8c0-.2.2-.3.4-.4.2,0,.4-.1.6-.1.7,0,1.1.4,1.1,1.2"/>
    <path class="st3" d="M239.2,48.6c-.2.2-.2.4-.3.6h1.6c0-.2,0-.4-.2-.6-.1-.1-.3-.2-.5-.2-.2,0-.4,0-.5.2h0ZM241,49.5h-2.1c0,.7.3,1,.9,1s.7-.1.9-.3l.2.4c-.1.1-.3.2-.5.3-.2,0-.4.1-.6.1-.8,0-1.4-.5-1.5-1.3,0,0,0-.2,0-.2,0-.3,0-.6.2-.8.1-.2.3-.4.5-.5.2-.1.5-.2.7-.2.4,0,.7.1.9.4.2.3.4.7.3,1.1h0Z"/>
    <path class="st3" d="M244.3,49.1v1.8h-.6v-1.8c0-.2,0-.4-.1-.6-.1-.1-.3-.2-.5-.2-.2,0-.4,0-.6.2-.2.2-.2.4-.2.6v1.7h-.6v-2.1c0-.3,0-.6,0-.8h.5v.5c.1-.2.3-.3.5-.4.2-.1.4-.2.6-.1.7,0,1.1.4,1.1,1.2"/>
    <path class="st3" d="M244.9,52c.2-.4.3-.9.4-1.4.2-.8.2-1.7,0-2.5-.1-.5-.3-.9-.4-1.4h.5c.2.4.4.8.5,1.3.2.9.2,1.8,0,2.6-.1.5-.3.9-.5,1.3h-.5Z"/>
  </g>
  <polygon class="st3" points="248.7 51 248.7 46.8 249.3 46.8 249.3 50.5 251.4 50.5 251.4 51 248.7 51"/>
  <path class="st3" d="M251.9,48v2.9h.6s0-2.9,0-2.9h-.6ZM251.9,47.4h.7v-.6h-.7v.6Z"/>
  <g class="st10">
    <path class="st3" d="M257.7,49.1v1.8h-.6v-1.8c0-.2,0-.4-.1-.6-.1-.1-.3-.2-.4-.2-.2,0-.4,0-.5.2-.1.2-.2.4-.2.6v1.7h-.6v-1.8c0-.2,0-.4-.1-.6-.1-.1-.3-.2-.4-.2-.2,0-.4,0-.5.2-.1.2-.2.4-.2.6v1.7h-.6v-2.1c0-.3,0-.6,0-.8h.5v.5c.1-.2.3-.3.4-.4.2,0,.4-.1.6-.1.4,0,.8.2.9.6,0-.2.2-.3.4-.4.2-.1.4-.2.6-.2.7,0,1,.4,1,1.2"/>
  </g>
  <path class="st3" d="M258.5,48v2.9h.6s0-2.9,0-2.9h-.6ZM258.5,47.4h.7v-.6h-.7v.6Z"/>
  <g class="st9">
    <path class="st3" d="M260.8,48.5v1.5c0,.2,0,.3.1.4.1,0,.2.1.4.1.1,0,.2,0,.3,0v.5c-.1,0-.3,0-.4,0-.3,0-.5,0-.7-.3-.2-.2-.3-.5-.2-.7v-1.5h-.6v-.5h.6v-.7l.6-.2v.9h.8v.5h-.8Z"/>
    <path class="st3" d="M262.8,48.6c-.1.2-.2.4-.3.6h1.6c0-.2,0-.4-.2-.6-.1-.1-.3-.2-.5-.2-.2,0-.4,0-.5.2h0ZM264.6,49.5h-2.1c0,.7.3,1,.9,1s.7-.1.9-.3l.2.4c-.1.1-.3.2-.5.3-.2,0-.4.1-.6.1-.4,0-.8-.1-1.1-.4-.3-.3-.4-.7-.4-1.1,0-.3,0-.6.2-.8.1-.2.3-.4.5-.5.2-.1.5-.2.7-.2.4,0,.7.1.9.4.2.3.4.7.3,1.1h0Z"/>
    <path class="st3" d="M267.2,50.3c.3-.5.3-1.1,0-1.6-.1-.2-.4-.3-.6-.3-.2,0-.5,0-.6.3-.2.2-.2.5-.2.8,0,.3,0,.6.2.8.3.3.8.4,1.2,0,0,0,0,0,0,0h0ZM268,46.7v4.3h-.6v-.5c0,.2-.2.3-.4.4-.2,0-.4.1-.6.1-.2,0-.5,0-.7-.2-.2-.1-.4-.3-.5-.5-.1-.3-.2-.5-.2-.8,0-.3,0-.5.2-.8.2-.5.6-.7,1.1-.7.2,0,.4,0,.6.1.2,0,.3.2.4.4v-1.8h.6Z"/>
    <path class="st3" d="M142.1,23.6h-1c-.1,0-.2,0-.3-.1,0,0-.1-.2-.1-.3v-1h.5v.8s0,0,0,0c0,0,0,0,0,0h.9v.5ZM142.2,22.5h-.5v-.6h-2.7v.6h-.5v-1.1h3.8v1.1ZM140,22.2c0,.9-.4,1.4-1.3,1.6l-.4-.4c.3,0,.6-.2.9-.4.2-.2.3-.5.2-.8h.5ZM142.3,25.9l-.3.4c-.6-.4-1.1-.9-1.4-1.4v1.7h-.5v-1.7c-.4.5-.9,1-1.5,1.4l-.4-.4c.6-.4,1.2-.8,1.5-1.4h-1.4v-.5h1.7v-.5h.5v.5h1.7v.5h-1.4c.4.6.9,1.1,1.4,1.4M138.2,22.2l-.4.4c-.2-.3-.5-.6-.8-.9l.4-.4c.3.3.6.5.9.9h0ZM138.2,24.7c-.2.7-.4,1.4-.8,2l-.5-.3c.4-.6.6-1.2.8-1.9l.5.3ZM138.2,23.6l-.4.4c-.3-.3-.6-.5-.9-.7l.3-.4c.3.2.7.4.9.7"/>
    <path class="st3" d="M149.8,26.6h-.5v-5.3h.5v5.3ZM148.6,26.2h-.5v-4.6h.5v4.6ZM147.4,24.1c0,.9-.3,1.8-.9,2.5l-.5-.3c.3-.3.5-.6.7-1,.1-.4.2-.8.2-1.2v-2.8h.5v2.8ZM146.6,25.1c-.6.3-1.2.6-1.9.7v-.5c.2,0,.4-.2.6-.3v-1.8h-.7v-.5h.7v-1.4h.6v1.4h.7v.5h-.7v1.5c.2,0,.5-.2.7-.3v.6Z"/>
    <path class="st3" d="M156.3,22h-.7v1.4h.7v-1.4ZM157.5,24h-.7v2.7h-.5v-2.7h-.7c0,1.1-.3,2-.9,2.7l-.4-.4c.2-.2.4-.5.5-.8.1-.5.2-1,.2-1.5h-.6v-.5h.6v-1.4h-.5v-.5h2.9v.5h-.6v1.4h.7v.5ZM153.7,23.9h-.5v1.7h.5v-1.7ZM154.3,22h-.8c0,.4-.2.9-.3,1.3h1v3h-.5v-.3h-.5v.4h-.5v-2.2c0,.1-.1.2-.2.3l-.3-.5c.4-.6.7-1.3.8-2h-.7v-.5h2v.5Z"/>
    <path class="st3" d="M165.1,25.3c0,.3,0,.6-.1.9,0,.1-.1.2-.2.3-.2,0-.5,0-.7,0-.2,0-.4,0-.6,0,0,0-.2,0-.2-.2,0-.1,0-.3,0-.4v-1.2c0,0-1,0-1,0-.2.9-.8,1.5-2,1.9l-.4-.5c1.1-.4,1.6-.9,1.8-1.5h-1.5v-.5h1.6c0-.2,0-.5,0-.7h.6c0,.2,0,.5,0,.7h1.6v1.7c0,0,0,0,0,.1,0,0,.2,0,.3,0,.1,0,.2,0,.3,0,0,0,0,0,0,0,0-.1,0-.2,0-.4,0-.2,0-.4,0-.5l.5.2ZM165,23h-.5v-.7h-1.1v.8c0,0,0,.1.1.1h1.3v.5h-1.4c-.4,0-.5-.2-.5-.5v-.9h-.7c0,.5-.3.9-.7,1.2-.4.3-.9.4-1.3.5l-.3-.5c.4,0,.8-.2,1.2-.4.3-.2.5-.5.5-.8h-1.1v.7h-.6v-1.2h2.2c0-.1-.1-.2-.2-.3l.5-.2c.1.2.2.3.3.5h2.2v1.2Z"/>
    <path class="st3" d="M171.9,23.4h-1.7v-.5h1.7v.5ZM172.6,23.2h-.5v-.7h-2.1v.7h-.5v-1.3h1.3c0-.2-.1-.4-.2-.5h.5c.1,0,.2.3.2.5h1.3v1.3ZM172.8,25.4c0,.5,0,.8-.2.9-.2.2-.4.3-.7.2-.2,0-.4,0-.5-.1-.1-.1-.2-.3-.1-.4v-1.6h-.5c0,1-.5,1.9-1.5,2.2l-.3-.4c.9-.3,1.3-.8,1.3-1.6,0,0,0-.1,0-.2h-.7v-.5h3.2v.5h-.9v1.5c0,0,0,.1.1.1.2,0,.3,0,.3,0,0-.2,0-.5,0-.7h.5ZM168.8,23.2c.3.4.5.8.5,1.3,0,.2,0,.4-.2.6-.2.2-.4.2-.7.2h-.2l-.2-.5c0,0,.1,0,.2,0,.2,0,.3,0,.3,0,0,0,0-.1,0-.2,0-.5-.2-.9-.5-1.3.2-.4.3-.9.4-1.4h-.6v4.7h-.5v-5.2h1.7v.5c-.1.5-.3.9-.4,1.3"/>
    <path class="st3" d="M140.8,39.3h-1.1v.6h1.1v-.6ZM141,40.9c-.1-.2-.2-.3-.3-.5h-.8c-.1.2-.2.4-.4.5h1.5ZM140.8,41.3h-1.5v.5h1.5v-.5ZM142.4,41.3l-.3.5c-.3-.1-.5-.3-.8-.5v1.1h-2v.4s0,0,0,.1c0,0,0,0,.1,0,1.2,0,1.8,0,1.9,0,0,0,.2-.2.2-.5l.5.2c0,.2,0,.4-.2.6-.2.2-.4.3-.6.2h-1.8c-.4,0-.7-.2-.7-.7v-1.3c-.1.1-.3.2-.4.3l-.3-.5c.5-.2.9-.6,1.2-1h-1v-.5h.9v-.6h-.8v-.5h.8v-.6h.5v.6h1.1v-.6h.5v.6h.8v.5h-.8v.6h.9v.5h-1c.3.4.7.8,1.1,1M138.3,38.9l-.4.4c-.2-.3-.5-.6-.9-.9l.4-.4c.3.2.6.5.8.8M138.2,40.3l-.3.4c-.3-.3-.6-.5-.9-.7l.3-.5c.4.2.7.4,1,.7M138.2,41.7c-.2.6-.5,1.2-.8,1.7l-.5-.3c.3-.5.6-1.1.8-1.7l.5.3Z"/>
    <path class="st3" d="M148.6,39.4l-.4.4c-.3-.4-.7-.7-1.1-1l.4-.4c.4.3.7.6,1.1,1h0ZM148.5,40.8l-.4.4c-.3-.4-.7-.8-1.1-1l.4-.4c.4.3.8.6,1.1,1M149.9,41.9h-.6v1.5h-.5v-1.4l-1.8.2v-.5s1.8-.2,1.8-.2v-3.4h.5v3.3h.5c0,0,0,.5,0,.5ZM147.1,38.6c-.3,0-.6.2-.9.2v.8h.8v.5h-.8v.2c.3.3.6.7.8,1l-.4.4c-.1-.3-.3-.5-.4-.7v2.5h-.5v-2.4c-.2.4-.5.9-.8,1.2l-.3-.5c.5-.5.8-1.1,1.1-1.7h-1v-.5h1.1v-.7c-.3,0-.5,0-.8,0l-.2-.5c.7,0,1.5-.2,2.2-.4l.3.5Z"/>
    <path class="st3" d="M157.5,43.1l-.3.4c-1.1-.7-2-1.8-2.4-3.1-.4,1.3-1.2,2.3-2.4,3l-.3-.5c1.2-.8,2-1.8,2.3-3h-2.1v-.5h2.2c0-.4,0-.9,0-1.3h.5c0,.5,0,1,0,1.3h2.4v.5h-2.2c.3,1.3,1.1,2.4,2.3,3.1"/>
    <path class="st3" d="M163.9,40.2v-1.4h-.7v1.4h.7ZM165.1,40.8h-.7v2.7h-.6v-2.7h-.7c0,1.1-.3,2-.9,2.7l-.4-.4c.2-.2.4-.5.5-.8.1-.5.2-1,.2-1.5h-.6v-.5h.6v-1.4h-.5v-.5h2.9v.5h-.6v1.4h.7v.5ZM161.3,40.7h-.5v1.7h.5v-1.7ZM161.9,38.8h-.8c0,.4-.2.9-.3,1.3h1v3h-.5v-.3h-.5v.4h-.5v-2.2c0,.1-.1.2-.2.3l-.3-.5c.4-.6.7-1.3.8-2h-.7v-.5h2v.5Z"/>
    <path class="st3" d="M172.7,42.1c0,.3,0,.6-.1.9,0,.1-.1.2-.2.3-.2,0-.5,0-.7,0-.2,0-.4,0-.6,0,0,0-.2,0-.2-.2,0-.1,0-.3,0-.4v-1.2c0,0-1,0-1,0-.2.9-.8,1.5-2,1.9l-.4-.5c1-.4,1.6-.9,1.8-1.5h-1.5v-.5h1.6c0-.2,0-.5,0-.7h.6c0,.2,0,.5,0,.7h1.6v1.7c0,0,0,0,0,.1,0,0,.2,0,.3,0,.1,0,.2,0,.3,0,0,0,0,0,0,0,0-.1,0-.2,0-.4,0-.2,0-.4,0-.5l.5.2ZM172.6,39.8h-.5v-.7h-1.1v.8c0,0,0,.1.1.1h1.3v.5h-1.4c-.4,0-.5-.2-.5-.5v-.9h-.7c0,.5-.3.9-.7,1.2-.4.3-.9.4-1.3.5l-.3-.5c.4,0,.8-.2,1.2-.4.3-.2.5-.5.5-.8h-1.1v.7h-.6v-1.2h2.2c0-.1-.1-.2-.2-.3l.5-.2c.1.2.2.3.3.5h2.2v1.2Z"/>
    <path class="st3" d="M178.5,40.3v-1.5h-1.7v1.5h1.7ZM180.3,40.8h-1.3v2.6h-.5v-2.6h-1.7c0,1-.5,2-1.3,2.6l-.4-.4c.8-.5,1.2-1.3,1.2-2.3h-1.2v-.5h1.3v-1.5h-1v-.5h4.8v.5h-1.1v1.5h1.3v.5Z"/>
    <path class="st3" d="M187.4,38.8l-.4.4c-.3-.2-.7-.4-1-.6l.4-.4c.4.2.7.4,1,.6h0ZM186.8,40.9h-1.8c.2.4.5.8.9,1.1.4-.3.7-.7.9-1.1h0ZM188.1,43l-.3.5c-.6-.2-1.3-.5-1.8-.9-.7.4-1.4.7-2.2.9l-.3-.5c.7-.1,1.4-.4,2.1-.8-.4-.4-.7-.8-1-1.3-.4.8-.9,1.6-1.5,2.3l-.4-.4c.8-.9,1.4-2,1.8-3.1h-1.6c.2-.5.4-1,.6-1.6h.5c0,.4-.2.7-.3,1.1h1c0-.4.2-.8.2-1.2h.5c0,.5-.1.8-.2,1.2h2.9v.5h-3c0,.2-.1.4-.2.6h2.7v.5c-.3.5-.7,1-1.1,1.4.5.3,1.1.6,1.7.7"/>
    <path class="st3" d="M191.3,43.7c-.7-.8-1-1.8-1-2.8,0-1,.3-2.1,1-2.8h.6c-.7.8-1,1.8-1,2.8,0,1,.3,2,1,2.8h-.6Z"/>
    <path class="st3" d="M199.1,40.4h-1c-.1,0-.2,0-.3-.1,0,0-.1-.2-.1-.3v-1h.5v.8s0,0,0,0c0,0,0,0,0,0h.9v.5ZM199.1,39.4h-.5v-.6h-2.7v.6h-.5v-1.1h3.8v1.1ZM197,39c0,.9-.4,1.4-1.3,1.6l-.4-.4c.3,0,.7-.2.9-.4.2-.2.3-.5.2-.8h.5ZM199.3,42.7l-.3.4c-.6-.4-1.1-.9-1.4-1.4v1.7h-.5v-1.7c-.4.6-.9,1-1.5,1.4l-.4-.4c.6-.3,1.2-.8,1.5-1.4h-1.4v-.5h1.7v-.5h.5v.5h1.7v.5h-1.4c.4.6.9,1.1,1.4,1.4h0ZM195.2,39l-.4.4c-.2-.3-.5-.6-.8-.9l.4-.4c.3.3.6.5.9.9h0ZM195.2,41.5c-.2.7-.5,1.4-.8,2l-.5-.3c.4-.6.6-1.2.8-1.9l.5.3ZM195.2,40.4l-.4.4c-.3-.3-.6-.5-.9-.7l.3-.4c.3.2.7.4.9.7"/>
    <path class="st3" d="M206.7,43.4h-.5v-5.3h.5v5.3ZM205.5,43h-.5v-4.6h.5v4.6ZM204.3,41c0,.9-.3,1.8-.9,2.5l-.5-.3c.3-.3.5-.6.7-1,.1-.4.2-.8.2-1.2v-2.8h.5v2.8ZM203.5,41.9c-.6.3-1.2.6-1.9.8v-.5c.2-.1.4-.2.6-.2v-1.8h-.7v-.5h.7v-1.4h.6v1.4h.7v.5h-.7v1.5c.2,0,.4-.2.7-.3v.6Z"/>
    <path class="st3" d="M208.8,43.7c.7-.8,1-1.8,1-2.8,0-1-.3-2-1-2.8h.6c.7.8,1,1.8,1,2.8,0,1-.3,2-1,2.8h-.6Z"/>
    <path class="st3" d="M217.1,41.7v-.5h-2.6v.5h2.6ZM217.1,40.8v-.5h-2.6v.5h2.6ZM218.1,39.2h-3c0,.2-.2.4-.3.5h2.9v3.3c0,.1,0,.2-.1.3,0,0-.2.1-.3.1h-1l-.2-.5c.3,0,.6,0,1,0s.1,0,.1-.1v-.6h-2.7c-.1.4-.3.9-.6,1.2l-.5-.3c.4-.5.7-.9.7-1.3v-1c-.2.3-.5.5-.8.7l-.4-.4c.7-.5,1.3-1.1,1.8-1.9h-1.7v-.5h2c.1-.2.2-.4.3-.6h.6c0,.3-.1.4-.2.6h2.7v.5Z"/>
    <path class="st3" d="M225.8,43.1l-.3.4c-.9-.5-1.5-1.3-1.7-2.3l.5-.2c0,.2.2.5.3.7.3-.2.5-.5.8-.7l.4.4c-.3.3-.6.6-.9.9.3.3.6.6,1,.8h0ZM224.9,40.3v-.6h-1.6v.5h1.6ZM224.9,38.7h-1.6v.6h1.6v-.6ZM225.4,40.8h-2.2v1.9c.3,0,.6-.2.9-.4v.6c-.4.2-.9.4-1.3.5l-.2-.5c0,0,.1-.1.1-.2v-4.5h2.7v2.5ZM221.9,40c.3.4.5.9.5,1.4,0,.6-.3.9-.8.9h-.2l-.2-.5c0,0,.2,0,.3,0,.1,0,.2,0,.3,0,0,0,0-.2,0-.2,0-.5-.2-1-.5-1.4.1-.3.2-.7.4-1.3h-.7v4.7h-.5v-5.2h1.8v.5c-.1.4-.3.8-.4,1.2"/>
    <path class="st3" d="M233.4,40.6l-.3.5c-.8-.6-1.4-1.4-1.7-2.3h-.5v-.5h.9c.3,1,.8,1.8,1.6,2.4h0ZM233,43.2l-.5.3c0-.2-.2-.5-.3-.7-.9.2-2.1.4-3.4.6l-.2-.5c.5-.4,1.1-1.4,1.8-3.1l.6.2c-.4,1-.9,1.9-1.5,2.8.8,0,1.7-.2,2.5-.4-.2-.3-.4-.6-.6-.9l.4-.3c.5.6.9,1.3,1.3,2h0ZM230.3,38.3c-.4,1.1-1.1,2-1.9,2.7l-.3-.5c.8-.6,1.4-1.5,1.8-2.4l.5.2Z"/>
    <path class="st3" d="M238.8,40.8h-2.1v1h2.1v-1ZM239.3,42.4h-3.2v-2.1h3.2v2.1ZM239.7,39.8h-3.9v-.5h3.9v.5ZM240.8,42.7c0,.5-.2.7-.7.7h-.9l-.2-.5c.5,0,.8,0,.9,0s.3,0,.3-.2v-4h-4.6v-.5h5.1v4.5Z"/>
  </g>
  <g>
    <path class="st4" d="M205.9,68.1v.4h-2.4v-.4h.9v-3.2l-.9.6v-.5l1.1-.7h.3v3.9h.9Z"/>
    <path class="st4" d="M207.3,67.9v.6h-.6v-.6h.6Z"/>
    <path class="st4" d="M210.4,66c.2.1.4.3.5.5s.2.4.2.7,0,.5-.2.7c-.1.2-.3.4-.5.5-.2.1-.5.2-.8.2s-.5,0-.8-.1c-.3,0-.5-.2-.6-.4l.2-.4c.4.3.8.5,1.2.5s.5,0,.7-.3c.2-.2.3-.4.3-.7s0-.5-.3-.7-.4-.3-.7-.3c-.4,0-.7.2-1,.5h-.3v-2.5h2.6v.4h-2.1v1.5c.2-.2.5-.3.9-.3s.5,0,.7.2Z"/>
    <path class="st4" d="M213.4,66.8v1.7h-.5v-1.7l-1.7-2.5h.6l1.4,2.1,1.4-2.1h.6l-1.7,2.5Z"/>
    <g>
      <path class="st7" d="M195.6,66.2h-2.2v2.3h-.2v-.5c-.7.1-1.3.2-1.8.2v-.2s.1,0,.4,0v-1.7h-.4v-.2h4.3v.2ZM195,65.7h-.3v-1.2h-2.5v1.2h-.3v-1.4h3v1.4ZM193.1,66.5v-.3h-1.2v.3h1.2ZM193.1,67.1v-.4h-1.2v.4h1.2ZM193.1,67.7v-.3h-1.2v.5c.5,0,.9-.1,1.2-.2ZM194.4,65h-1.9v-.2h1.9v.2ZM194.4,65.6h-1.9v-.2h1.9v.2ZM195.6,68.3v.2c-.5-.1-.8-.3-1-.5-.3.2-.6.4-.9.5l-.2-.2c.3-.1.6-.3.9-.5-.3-.3-.6-.7-.7-1.1h0v-.2h1.8c-.1.5-.3,1-.6,1.3.2.2.5.3.8.5ZM195.1,66.8h-1.2c.2.4.4.7.6.9.2-.2.4-.5.5-.9Z"/>
      <path class="st7" d="M200.7,68.3l-.2.2c-.5-.3-1-.7-1.3-1.2-.3-.5-.6-1-.7-1.7-.2,1.2-.9,2.1-2,2.9l-.2-.2c.3-.2.6-.4.9-.7s.5-.5.7-.8c.2-.3.3-.7.4-1.2h-1.9v-.3h1.9c0-.4,0-.8,0-1.2h.3c0,.4,0,.8,0,1.2h2v.3h-1.9c.2.7.4,1.3.7,1.7s.7.8,1.2,1Z"/>
    </g>
  </g>
</svg>